<svg width="118" height="119" viewBox="0 0 118 119" fill="none" xmlns="http://www.w3.org/2000/svg">
<g clip-path="url(#clip0_884_8883)">
<path fill-rule="evenodd" clip-rule="evenodd" d="M92.7999 35.9497L59.3599 63.6097V91.5597L63.6899 91.5197V81.1697L92.7999 57.0897V35.9497Z" fill="white"/>
<path fill-rule="evenodd" clip-rule="evenodd" d="M26.02 41.96V56.98L47.72 75.21V69.72C47.72 62.98 44.5 58.01 39.26 53.24C36.05 50.31 26.02 41.96 26.02 41.96Z" fill="white"/>
<path fill-rule="evenodd" clip-rule="evenodd" d="M59.3601 55.8101C59.3601 46.5601 54.7401 39.2401 47.7601 33.2101C45.5301 31.2901 38.8101 25.5801 38.8101 25.5801V46.0701L59.3601 63.3401V55.8201V55.8101Z" fill="white"/>
<path fill-rule="evenodd" clip-rule="evenodd" d="M68.5799 24.3198C63.1399 29.2498 59.3599 34.9298 59.3599 42.2798V48.2598L73.2599 36.5898V20.3398C73.2599 20.3398 69.7199 23.2998 68.5799 24.3298V24.3198Z" fill="white"/>
<path d="M19.6502 16.04C19.7302 16 19.8102 15.96 19.8902 15.92L22.3502 18.71C22.2402 18.84 22.1402 19 22.0602 19.16L22.1802 19.3L23.3702 18.25L23.2502 18.11C23.1702 18.13 23.1002 18.16 23.0202 18.2C22.9402 18.24 22.8602 18.28 22.7702 18.33L22.6802 18.23L22.3702 15.06L22.2702 14.52L22.5402 14.92L24.3402 16.96C24.2802 17.03 24.2302 17.11 24.1902 17.18C24.1502 17.25 24.1102 17.32 24.0802 17.39L24.2002 17.53L25.4002 16.48L25.2802 16.34C25.1302 16.39 24.9602 16.46 24.7902 16.57L22.3302 13.78C22.3902 13.7 22.4402 13.63 22.4902 13.55C22.5402 13.47 22.5802 13.4 22.6202 13.32L22.5002 13.18L21.3002 14.23L21.4202 14.36C21.4902 14.34 21.5702 14.3 21.6502 14.27C21.7302 14.23 21.8202 14.19 21.9002 14.14L22.0002 14.25L22.3102 17.38L22.4102 17.95L22.1502 17.55L20.3502 15.51C20.4102 15.43 20.4602 15.36 20.5002 15.29C20.5402 15.22 20.5702 15.15 20.6002 15.08L20.4802 14.94L19.2902 15.99L19.4102 16.13C19.5002 16.1 19.5802 16.06 19.6602 16.03L19.6502 16.04ZM9.25023 38.02L9.42023 38.1L10.0002 36.83L9.83023 36.75C9.69023 36.89 9.56024 37.03 9.47023 37.18L8.59023 36.33L9.21023 34.97L10.4302 35.06C10.4102 35.14 10.3902 35.23 10.3802 35.32C10.3702 35.41 10.3602 35.5 10.3602 35.59L10.5302 35.66L11.2002 34.18L11.0302 34.1C10.9602 34.15 10.9002 34.2 10.8502 34.27C10.8002 34.34 10.7502 34.4 10.7002 34.47L6.27023 34.21L6.19023 34.38L9.31024 37.53C9.28024 37.68 9.26023 37.84 9.26023 38L9.25023 38.02ZM7.34023 35.1L6.90023 34.73L7.44023 34.83L8.86023 34.93L8.34023 36.08L7.34023 35.1ZM4.11023 42.16C4.24023 42.31 4.41023 42.41 4.63023 42.48C4.80023 42.53 4.95023 42.56 5.10023 42.55C5.25023 42.55 5.38023 42.51 5.50023 42.46C5.62023 42.41 5.73023 42.34 5.83023 42.25C5.93023 42.16 6.01023 42.07 6.08023 41.96C6.17023 42.08 6.26023 42.19 6.36023 42.31C6.46023 42.43 6.55023 42.55 6.65023 42.67C6.75023 42.79 6.85023 42.92 6.95023 43.07C7.05023 43.21 7.15023 43.37 7.24023 43.54L7.29023 43.87L7.44023 43.92L7.68023 43.17L7.59023 42.92C7.50023 42.78 7.40023 42.65 7.30023 42.52C7.20023 42.4 7.09023 42.28 6.98023 42.17C6.87023 42.06 6.75023 41.94 6.63023 41.83C6.51023 41.72 6.40023 41.59 6.28023 41.46L6.47023 40.85L7.91023 41.31C7.87023 41.52 7.86023 41.71 7.89023 41.88L8.06024 41.93L8.56024 40.34L8.39023 40.28C8.28024 40.39 8.18023 40.53 8.09023 40.73L4.54023 39.61C4.55023 39.5 4.56023 39.4 4.56023 39.31C4.56023 39.22 4.56023 39.14 4.54023 39.08L4.37023 39.02L4.13023 39.79C4.09023 39.91 4.05023 40.03 4.01023 40.15C3.97023 40.27 3.93023 40.36 3.91023 40.44C3.85023 40.64 3.81023 40.85 3.79023 41.06C3.77023 41.27 3.79023 41.47 3.84023 41.66C3.89023 41.85 3.98023 42.02 4.11023 42.16ZM4.22023 40.54C4.24023 40.48 4.26023 40.42 4.29023 40.35C4.32023 40.28 4.34023 40.22 4.37023 40.19L6.17023 40.76C6.17023 40.82 6.17023 40.88 6.14023 40.96C6.12023 41.04 6.10023 41.11 6.08023 41.18C5.98023 41.5 5.82023 41.72 5.60023 41.82C5.38023 41.93 5.13023 41.93 4.83023 41.84C4.50023 41.74 4.29023 41.57 4.21023 41.34C4.12023 41.11 4.13023 40.85 4.22023 40.54ZM8.56024 32.23C8.76023 32.47 9.04023 32.68 9.40023 32.88C9.75023 33.07 10.0702 33.19 10.3702 33.24C10.6702 33.29 10.9502 33.27 11.2002 33.19C11.4502 33.11 11.6902 32.97 11.9002 32.77C12.1102 32.57 12.3002 32.32 12.4702 32.01C12.5102 31.93 12.5602 31.84 12.6002 31.75C12.6402 31.66 12.6802 31.56 12.7102 31.46C12.7402 31.36 12.7602 31.27 12.7802 31.18C12.8002 31.09 12.8002 31 12.7802 30.92C12.6402 30.83 12.4802 30.75 12.3202 30.68C12.1602 30.61 12.0202 30.55 11.9002 30.52L11.8202 30.66L12.3602 31.29C12.3602 31.29 12.3702 31.4 12.3402 31.49C12.3202 31.58 12.2702 31.69 12.2002 31.81C12.0802 32.04 11.9302 32.22 11.7502 32.35C11.5702 32.49 11.3802 32.58 11.1602 32.62C10.9402 32.66 10.7102 32.66 10.4602 32.61C10.2102 32.56 9.96023 32.46 9.70023 32.32C9.41023 32.16 9.18023 31.99 9.00023 31.8C8.82023 31.61 8.70023 31.41 8.63023 31.21C8.56024 31.01 8.53023 30.81 8.55023 30.61C8.57024 30.41 8.63023 30.22 8.73023 30.03C8.78023 29.94 8.83023 29.85 8.89023 29.76C8.95024 29.67 9.00023 29.61 9.04023 29.58L9.99023 29.73L10.0702 29.59C10.0102 29.54 9.94023 29.49 9.86023 29.43C9.78023 29.37 9.70023 29.32 9.62023 29.26C9.54023 29.2 9.46023 29.15 9.38023 29.11C9.30023 29.06 9.24024 29.02 9.18023 28.99C9.05023 29.08 8.92023 29.2 8.80023 29.35C8.68023 29.5 8.55023 29.69 8.42023 29.94C8.29023 30.19 8.19024 30.44 8.14023 30.7C8.09023 30.97 8.10023 31.22 8.17023 31.48C8.24023 31.74 8.37023 31.98 8.57023 32.22L8.56024 32.23ZM10.8302 28.22C11.0102 28.47 11.2702 28.71 11.6102 28.94C11.9402 29.16 12.2502 29.3 12.5502 29.37C12.8502 29.44 13.1202 29.45 13.3802 29.39C13.6402 29.33 13.8802 29.21 14.1102 29.03C14.3402 28.85 14.5502 28.61 14.7402 28.32C14.7902 28.24 14.8402 28.16 14.8902 28.07C14.9402 27.98 14.9802 27.89 15.0202 27.79C15.0602 27.7 15.0902 27.6 15.1102 27.51C15.1302 27.42 15.1402 27.33 15.1302 27.25C15.0002 27.15 14.8502 27.06 14.6902 26.98C14.5302 26.9 14.4002 26.83 14.2902 26.78L14.2002 26.92L14.6902 27.59C14.6902 27.59 14.6902 27.7 14.6602 27.79C14.6302 27.88 14.5702 27.98 14.5002 28.1C14.3602 28.32 14.1902 28.49 14.0102 28.61C13.8202 28.73 13.6202 28.8 13.4002 28.83C13.1802 28.85 12.9502 28.83 12.7102 28.76C12.4702 28.69 12.2202 28.57 11.9702 28.41C11.6902 28.23 11.4802 28.03 11.3202 27.83C11.1602 27.63 11.0502 27.42 10.9902 27.22C10.9302 27.01 10.9202 26.81 10.9602 26.61C11.0002 26.41 11.0702 26.23 11.1902 26.05C11.2502 25.96 11.3102 25.88 11.3702 25.79C11.4402 25.71 11.4902 25.65 11.5402 25.63L12.4802 25.85L12.5702 25.71C12.5102 25.66 12.4402 25.6 12.3702 25.53C12.3002 25.47 12.2202 25.4 12.1402 25.34C12.0602 25.28 11.9802 25.22 11.9102 25.17C11.8402 25.12 11.7702 25.07 11.7202 25.04C11.5802 25.12 11.4502 25.23 11.3102 25.37C11.1802 25.51 11.0302 25.69 10.8802 25.92C10.7302 26.15 10.6102 26.4 10.5402 26.66C10.4702 26.92 10.4602 27.18 10.5002 27.44C10.5502 27.7 10.6602 27.96 10.8402 28.21L10.8302 28.22ZM13.4902 24.53C13.6502 24.77 13.8602 25 14.1202 25.2C14.3802 25.4 14.6402 25.56 14.9202 25.66C15.2002 25.76 15.4602 25.81 15.7302 25.8C16.0002 25.8 16.2502 25.73 16.4902 25.6C16.7302 25.48 16.9502 25.29 17.1402 25.04C17.3302 24.79 17.4602 24.54 17.5302 24.27C17.5902 24.01 17.6002 23.75 17.5502 23.49C17.5002 23.23 17.3902 22.98 17.2202 22.74C17.0602 22.5 16.8502 22.27 16.5902 22.07C16.3302 21.87 16.0702 21.71 15.7902 21.61C15.5202 21.51 15.2502 21.46 14.9802 21.47C14.7102 21.47 14.4602 21.54 14.2202 21.67C13.9802 21.79 13.7602 21.98 13.5702 22.23C13.3802 22.48 13.2502 22.73 13.1802 23C13.1202 23.26 13.1102 23.52 13.1702 23.78C13.2202 24.04 13.3302 24.29 13.4902 24.53ZM13.7902 22.47C13.9402 22.29 14.1002 22.16 14.2902 22.09C14.4802 22.02 14.6702 21.99 14.8802 22.01C15.0902 22.03 15.3002 22.09 15.5202 22.2C15.7402 22.3 15.9502 22.44 16.1702 22.6C16.3902 22.76 16.5602 22.94 16.7202 23.13C16.8702 23.32 16.9902 23.51 17.0602 23.7C17.1302 23.89 17.1602 24.08 17.1502 24.27C17.1302 24.46 17.0602 24.64 16.9302 24.81C16.7802 24.99 16.6202 25.12 16.4302 25.19C16.2402 25.26 16.0502 25.29 15.8402 25.27C15.6302 25.25 15.4202 25.19 15.2002 25.09C14.9802 24.99 14.7602 24.85 14.5502 24.69C14.3402 24.52 14.1602 24.35 14.0002 24.17C13.8402 23.99 13.7302 23.8 13.6502 23.61C13.5702 23.42 13.5502 23.23 13.5602 23.04C13.5802 22.85 13.6602 22.66 13.8002 22.48L13.7902 22.47ZM16.2302 19.67L18.9302 22.23C18.8102 22.43 18.7302 22.59 18.6802 22.71L18.8102 22.84L21.3902 20.11L22.2702 20.56L22.3802 20.45C22.3302 20.38 22.2702 20.3 22.2002 20.21C22.1302 20.12 22.0602 20.03 21.9802 19.94C21.9002 19.85 21.8302 19.76 21.7502 19.68C21.6802 19.6 21.6102 19.53 21.5502 19.47L21.0502 19.99L18.3402 17.43C18.4402 17.28 18.5202 17.12 18.5802 16.95L18.4502 16.82L17.3602 17.97L17.4902 18.1C17.5702 18.07 17.6502 18.03 17.7202 17.99C17.7902 17.95 17.8602 17.91 17.9302 17.86L20.6402 20.42L19.3502 21.78L16.6402 19.22C16.7402 19.05 16.8102 18.9 16.8502 18.77L16.7202 18.64L15.6302 19.79L15.7602 19.92C15.9402 19.85 16.1002 19.76 16.2302 19.66V19.67ZM80.9602 8.7C80.9002 8.64 80.8402 8.58 80.7802 8.52C80.7202 8.46 80.6502 8.41 80.5902 8.36L81.7802 5.8L82.1102 5.07L82.1602 5.09L82.0602 5.85L81.8202 9.29L81.9702 9.36L84.4902 6.97L84.9602 6.45L85.0002 6.47L84.6702 7.13L83.4802 9.7C83.3902 9.68 83.3002 9.67 83.2202 9.65C83.1302 9.64 83.0502 9.63 82.9602 9.62L82.8802 9.79L84.2802 10.44L84.3602 10.28C84.3102 10.22 84.2502 10.16 84.1902 10.11C84.1302 10.06 84.0602 10 83.9902 9.95L85.5602 6.56C85.6402 6.58 85.7302 6.59 85.8102 6.6C85.8902 6.6 85.9802 6.61 86.0602 6.62L86.1402 6.45L85.1202 5.98L82.8902 8.1L82.4202 8.61L82.5002 7.93L82.7102 4.87L81.5402 4.33L81.4602 4.49C81.5202 4.56 81.5902 4.62 81.6502 4.68C81.7202 4.74 81.7902 4.8 81.8602 4.85L80.3002 8.23C80.2102 8.21 80.1202 8.19 80.0302 8.18C79.9402 8.17 79.8502 8.16 79.7702 8.16L79.6902 8.32L80.8802 8.87L80.9602 8.7ZM108.13 34.17C108.04 34.42 108.02 34.69 108.06 34.98C108.1 35.27 108.19 35.57 108.34 35.89C108.38 35.97 108.42 36.06 108.48 36.15C108.53 36.24 108.59 36.32 108.65 36.4C108.71 36.48 108.77 36.55 108.84 36.62C108.91 36.69 108.97 36.74 109.05 36.77C109.21 36.71 109.36 36.63 109.51 36.54C109.66 36.45 109.79 36.37 109.89 36.3L109.82 36.15L108.99 36.22C108.99 36.22 108.9 36.16 108.84 36.09C108.78 36.02 108.72 35.92 108.66 35.79C108.55 35.56 108.49 35.33 108.49 35.1C108.49 34.88 108.53 34.66 108.62 34.46C108.71 34.26 108.85 34.07 109.04 33.9C109.23 33.73 109.45 33.58 109.72 33.45C110.02 33.31 110.3 33.22 110.55 33.2C110.81 33.17 111.04 33.18 111.24 33.24C111.45 33.3 111.62 33.39 111.77 33.53C111.92 33.67 112.04 33.83 112.13 34.02C112.17 34.11 112.22 34.21 112.25 34.31C112.29 34.41 112.31 34.49 112.3 34.54L111.62 35.22L111.69 35.37C111.77 35.35 111.85 35.32 111.94 35.29C112.03 35.26 112.13 35.23 112.22 35.19C112.31 35.15 112.4 35.12 112.49 35.09C112.57 35.05 112.65 35.02 112.71 35C112.71 34.84 112.69 34.67 112.64 34.48C112.59 34.3 112.51 34.08 112.39 33.83C112.27 33.58 112.12 33.35 111.93 33.16C111.74 32.97 111.53 32.82 111.28 32.72C111.03 32.62 110.76 32.59 110.45 32.61C110.14 32.63 109.8 32.73 109.43 32.9C109.07 33.07 108.79 33.26 108.57 33.47C108.35 33.69 108.2 33.92 108.12 34.17H108.13ZM105.82 26.76C105.54 26.93 105.31 27.13 105.12 27.36C104.93 27.58 104.8 27.82 104.72 28.07C104.64 28.32 104.62 28.58 104.65 28.85C104.69 29.12 104.79 29.39 104.96 29.65C105.13 29.92 105.32 30.12 105.55 30.27C105.78 30.42 106.02 30.51 106.28 30.54C106.54 30.57 106.82 30.56 107.1 30.48C107.38 30.41 107.66 30.28 107.94 30.11C108.22 29.94 108.45 29.74 108.64 29.51C108.83 29.29 108.96 29.05 109.04 28.8C109.12 28.55 109.14 28.29 109.11 28.02C109.08 27.75 108.97 27.48 108.8 27.22C108.63 26.95 108.43 26.75 108.21 26.6C107.98 26.45 107.74 26.36 107.47 26.32C107.21 26.28 106.93 26.3 106.65 26.38C106.37 26.45 106.09 26.57 105.81 26.75L105.82 26.76ZM107.5 26.84C107.7 26.84 107.89 26.87 108.06 26.95C108.23 27.03 108.38 27.17 108.5 27.37C108.62 27.57 108.69 27.77 108.69 27.97C108.69 28.17 108.65 28.37 108.56 28.55C108.47 28.73 108.34 28.92 108.17 29.09C108 29.26 107.8 29.42 107.57 29.56C107.34 29.7 107.12 29.81 106.89 29.9C106.66 29.98 106.45 30.03 106.24 30.03C106.04 30.03 105.85 30 105.68 29.92C105.51 29.84 105.37 29.71 105.25 29.53C105.12 29.33 105.06 29.13 105.05 28.93C105.05 28.73 105.09 28.54 105.18 28.35C105.27 28.16 105.4 27.98 105.57 27.8C105.74 27.62 105.94 27.47 106.17 27.32C106.4 27.18 106.62 27.06 106.85 26.97C107.07 26.88 107.29 26.84 107.49 26.83L107.5 26.84ZM109.33 37.39L109.16 37.45L109.65 38.76L109.82 38.7C109.82 38.5 109.81 38.31 109.77 38.14L110.99 38.12L111.51 39.52L110.58 40.32C110.54 40.25 110.49 40.17 110.43 40.1C110.37 40.03 110.32 39.96 110.26 39.89L110.09 39.95L110.66 41.47L110.83 41.41C110.84 41.33 110.85 41.25 110.83 41.16C110.81 41.07 110.81 40.99 110.8 40.91L114.12 37.97L114.06 37.8L109.63 37.76C109.55 37.63 109.45 37.51 109.33 37.39ZM112.74 38.11L113.31 38.06L112.85 38.37L111.78 39.3L111.34 38.12H112.74V38.11ZM100.34 19.92C100.09 20.13 99.9002 20.37 99.7502 20.62C99.6002 20.87 99.5002 21.13 99.4602 21.39C99.4202 21.65 99.4402 21.91 99.5102 22.17C99.5902 22.43 99.7302 22.68 99.9402 22.91C100.15 23.15 100.37 23.32 100.62 23.43C100.87 23.54 101.12 23.59 101.39 23.59C101.66 23.59 101.92 23.52 102.19 23.41C102.46 23.29 102.72 23.13 102.96 22.92C103.21 22.7 103.4 22.47 103.55 22.22C103.7 21.97 103.8 21.71 103.84 21.45C103.88 21.19 103.86 20.93 103.79 20.67C103.71 20.41 103.57 20.16 103.36 19.92C103.15 19.68 102.93 19.51 102.68 19.4C102.43 19.29 102.18 19.24 101.91 19.24C101.64 19.24 101.38 19.31 101.11 19.42C100.84 19.53 100.58 19.7 100.34 19.92ZM102.01 19.74C102.21 19.7 102.4 19.71 102.58 19.76C102.76 19.81 102.93 19.93 103.08 20.1C103.23 20.28 103.33 20.46 103.37 20.66C103.41 20.86 103.39 21.06 103.34 21.26C103.28 21.46 103.18 21.66 103.04 21.86C102.9 22.06 102.73 22.24 102.52 22.42C102.32 22.6 102.11 22.74 101.9 22.86C101.69 22.98 101.48 23.05 101.28 23.09C101.08 23.13 100.89 23.12 100.71 23.07C100.53 23.02 100.37 22.91 100.23 22.75C100.08 22.57 99.9802 22.39 99.9402 22.19C99.9002 21.99 99.9202 21.79 99.9702 21.59C100.03 21.39 100.13 21.19 100.27 20.99C100.41 20.79 100.58 20.6 100.78 20.43C100.98 20.25 101.19 20.1 101.4 19.98C101.61 19.86 101.81 19.78 102.01 19.74ZM105.36 23L102.37 25.23C102.24 25.11 102.1 25 101.94 24.91L101.79 25.02L102.82 26.4L102.97 26.29C102.91 26.09 102.83 25.9 102.73 25.72L105.73 23.49L106.48 24.5L105.92 25.32L106.02 25.45C106.1 25.41 106.18 25.36 106.28 25.3C106.37 25.24 106.47 25.18 106.57 25.11C106.67 25.04 106.76 24.98 106.85 24.92C106.94 24.86 107.02 24.8 107.09 24.75L105.33 22.39L105.18 22.5C105.2 22.59 105.23 22.67 105.26 22.76C105.29 22.85 105.33 22.93 105.36 23.01V23ZM114.06 53.76C114.06 53.76 113.97 53.73 113.93 53.72C113.89 53.7 113.85 53.69 113.81 53.67C113.77 53.65 113.75 53.64 113.73 53.62L113.85 52.96L113.69 52.88C113.69 52.88 113.59 52.9 113.53 52.92C113.47 52.94 113.41 52.96 113.35 52.98C113.29 53 113.23 53.03 113.17 53.05C113.11 53.08 113.07 53.11 113.03 53.13C113.01 53.25 113.03 53.36 113.09 53.46C113.15 53.56 113.23 53.65 113.35 53.73C113.47 53.81 113.61 53.89 113.79 53.97C113.97 54.04 114.18 54.11 114.41 54.18L117.29 55.18C117.32 55.27 117.36 55.36 117.39 55.43C117.42 55.5 117.46 55.56 117.48 55.62L117.66 55.6L117.55 54.2L117.37 54.22C117.31 54.37 117.28 54.55 117.26 54.76L115.13 54.11L114.71 54.02L115.1 53.84L117.09 52.63C117.12 52.72 117.15 52.81 117.18 52.9C117.21 52.99 117.25 53.06 117.28 53.13H117.46L117.33 51.47H117.15C117.12 51.56 117.1 51.64 117.08 51.72C117.06 51.8 117.04 51.88 117.03 51.96L114.17 53.76C114.17 53.76 114.1 53.74 114.06 53.73V53.76ZM115.35 47.19C115.06 47.15 114.75 47.15 114.43 47.2C114.11 47.25 113.82 47.35 113.56 47.48C113.3 47.61 113.08 47.78 112.91 47.98C112.74 48.18 112.62 48.41 112.54 48.67C112.46 48.93 112.46 49.22 112.51 49.53C112.56 49.84 112.66 50.11 112.81 50.33C112.96 50.55 113.15 50.73 113.38 50.87C113.61 51 113.87 51.09 114.16 51.14C114.45 51.19 114.76 51.18 115.08 51.13C115.4 51.08 115.69 50.98 115.95 50.85C116.21 50.72 116.43 50.55 116.6 50.35C116.77 50.15 116.89 49.92 116.97 49.66C117.04 49.4 117.05 49.11 117 48.8C116.95 48.49 116.85 48.22 116.7 48C116.55 47.78 116.36 47.6 116.13 47.46C115.9 47.33 115.64 47.24 115.35 47.19ZM116.67 48.8C116.71 49.03 116.69 49.24 116.62 49.43C116.55 49.62 116.43 49.78 116.28 49.92C116.12 50.06 115.93 50.18 115.71 50.27C115.49 50.36 115.24 50.43 114.98 50.47C114.71 50.51 114.46 50.53 114.22 50.52C113.98 50.51 113.76 50.46 113.57 50.39C113.38 50.32 113.22 50.21 113.09 50.07C112.96 49.93 112.88 49.75 112.85 49.54C112.81 49.31 112.83 49.1 112.9 48.91C112.97 48.72 113.09 48.56 113.24 48.42C113.4 48.28 113.59 48.16 113.81 48.07C114.03 47.98 114.28 47.91 114.54 47.86C114.81 47.82 115.06 47.8 115.3 47.8C115.54 47.8 115.76 47.85 115.95 47.92C116.14 47.99 116.3 48.1 116.43 48.24C116.56 48.38 116.64 48.57 116.68 48.8H116.67ZM27.9302 9.64L29.8702 12.82C29.7002 12.98 29.5802 13.11 29.5102 13.22L29.6002 13.38L32.8102 11.42L33.5402 12.09L33.6802 12.01C33.6502 11.93 33.6102 11.84 33.5702 11.74C33.5302 11.64 33.4802 11.53 33.4302 11.42C33.3802 11.31 33.3302 11.21 33.2802 11.11C33.2302 11.01 33.1802 10.93 33.1402 10.85L32.5202 11.23L30.5802 8.04C30.7102 7.92 30.8302 7.79 30.9402 7.64L30.8402 7.48L29.4802 8.31L29.5702 8.47C29.6602 8.47 29.7402 8.45 29.8202 8.43C29.9002 8.41 29.9802 8.39 30.0502 8.36L31.9902 11.55L30.3902 12.53L28.4502 9.35C28.5902 9.21 28.7002 9.08 28.7702 8.97L28.6802 8.81L27.3202 9.64L27.4102 9.8C27.6102 9.77 27.7802 9.73 27.9302 9.67V9.64ZM111.27 42.29C111.23 42.21 111.19 42.13 111.14 42.06C111.09 41.99 111.04 41.91 110.99 41.84L110.81 41.89L111.15 43.16L111.33 43.11C111.34 43.02 111.35 42.94 111.35 42.86C111.35 42.78 111.35 42.69 111.35 42.61L114.08 41.88L114.85 41.67V41.72L114.21 42.13L111.41 44.15L111.45 44.31L114.9 44.72L115.6 44.75V44.8L114.9 44.97L112.17 45.7C112.13 45.62 112.08 45.54 112.04 45.47C112 45.39 111.95 45.32 111.89 45.25L111.71 45.3L112.11 46.79L112.29 46.74C112.3 46.66 112.31 46.58 112.31 46.5C112.31 46.42 112.31 46.33 112.31 46.25L115.91 45.29C115.95 45.37 115.99 45.44 116.04 45.51C116.09 45.58 116.14 45.65 116.19 45.71L116.37 45.66L116.08 44.57L113.03 44.22L112.34 44.18L112.91 43.8L115.4 42L115.07 40.76L114.89 40.81C114.88 40.9 114.87 40.99 114.87 41.08C114.87 41.17 114.87 41.26 114.87 41.35L111.28 42.31L111.27 42.29ZM48.7202 5.48L48.6902 5.3C48.5002 5.26 48.3102 5.24 48.1302 5.25L48.3202 4.04L49.7902 3.77L50.4202 4.82C50.3402 4.85 50.2602 4.89 50.1802 4.93C50.1002 4.97 50.0202 5.02 49.9402 5.06L49.9702 5.24L51.5602 4.94L51.5302 4.76C51.4502 4.73 51.3702 4.72 51.2902 4.71C51.2102 4.71 51.1202 4.71 51.0402 4.71L48.7202 0.93L48.5402 0.96L47.7402 5.32C47.6002 5.38 47.4602 5.46 47.3202 5.55L47.3502 5.73L48.7202 5.47V5.48ZM48.6202 2.32L48.6702 1.75H48.6802L48.9002 2.26L49.6302 3.48L48.3902 3.71L48.6202 2.33V2.32ZM37.7002 6.08C37.8002 6.19 37.9002 6.27 38.0202 6.34C38.1302 6.4 38.2602 6.45 38.3902 6.47C38.5202 6.49 38.6502 6.5 38.7702 6.49C38.7402 6.63 38.7002 6.78 38.6702 6.92C38.6402 7.07 38.6102 7.22 38.5702 7.37C38.5302 7.52 38.4902 7.68 38.4502 7.85C38.4002 8.02 38.3402 8.19 38.2702 8.37L38.0402 8.62L38.1002 8.77L38.8402 8.48L38.9802 8.26C39.0302 8.1 39.0802 7.94 39.1102 7.79C39.1402 7.63 39.1602 7.48 39.1802 7.32C39.2002 7.16 39.2202 7 39.2302 6.84C39.2502 6.68 39.2702 6.51 39.3002 6.33L39.8902 6.1L40.4402 7.51C40.2502 7.61 40.1002 7.72 39.9902 7.85L40.0602 8.02L41.6102 7.42L41.5402 7.25C41.3902 7.23 41.2102 7.25 41.0102 7.3L39.6602 3.83C39.7602 3.77 39.8402 3.71 39.9102 3.66C39.9802 3.6 40.0402 3.55 40.0802 3.5L40.0102 3.33L39.2602 3.62C39.1402 3.67 39.0202 3.71 38.9002 3.75C38.7802 3.79 38.6802 3.82 38.6102 3.85C38.4102 3.93 38.2202 4.03 38.0502 4.15C37.8702 4.27 37.7302 4.41 37.6102 4.56C37.5002 4.72 37.4202 4.89 37.3902 5.08C37.3602 5.27 37.3902 5.47 37.4602 5.69C37.5202 5.85 37.6002 5.99 37.7002 6.1V6.08ZM38.0802 4.63C38.2002 4.42 38.4102 4.25 38.7102 4.14C38.7602 4.12 38.8302 4.1 38.9002 4.07C38.9702 4.05 39.0302 4.03 39.0802 4.03L39.7702 5.79C39.7702 5.79 39.6702 5.86 39.5902 5.9C39.5202 5.94 39.4502 5.97 39.3802 5.99C39.0602 6.11 38.8002 6.12 38.5802 6.02C38.3602 5.92 38.2002 5.72 38.0802 5.43C37.9602 5.11 37.9502 4.84 38.0802 4.63ZM61.5802 4.28C61.5102 4.24 61.4302 4.21 61.3502 4.18C61.2602 4.15 61.1802 4.12 61.0802 4.1V3.96L63.0802 1.47L63.3802 1.01L63.2902 1.48L63.1602 4.2C63.0702 4.21 62.9802 4.23 62.9002 4.25C62.8202 4.27 62.7402 4.3 62.6802 4.32V4.5L64.2602 4.58V4.4C64.1302 4.33 63.9602 4.27 63.7602 4.22L63.9402 0.5C64.0302 0.48 64.1202 0.46 64.2102 0.44C64.3002 0.42 64.3802 0.4 64.4602 0.36V0.21L62.8802 0.13V0.31C62.9402 0.34 63.0202 0.37 63.1002 0.41C63.1902 0.44 63.2702 0.47 63.3702 0.49V0.64L61.4002 3.1L61.0702 3.58L61.1602 3.11L61.2902 0.39C61.3902 0.37 61.4702 0.36 61.5502 0.33C61.6302 0.3 61.7002 0.28 61.7702 0.25V0.08L60.1902 0V0.18C60.2602 0.22 60.3502 0.25 60.4302 0.28C60.5202 0.31 60.6002 0.34 60.6802 0.36L60.5002 4.08C60.3202 4.1 60.1502 4.14 59.9802 4.21V4.39L61.5602 4.47V4.29L61.5802 4.28ZM32.1802 7.04C32.2702 7.02 32.3602 7.01 32.4402 6.99L34.0802 10.33C33.9302 10.43 33.8002 10.55 33.6802 10.69L33.7602 10.85L35.1902 10.15L35.1102 9.99C35.0302 9.99 34.9502 9.99 34.8602 10.01C34.7702 10.03 34.6802 10.05 34.5902 10.07L34.5302 9.95L35.0702 6.81L35.1102 6.27L35.2602 6.72L36.4602 9.16C36.3802 9.22 36.3202 9.27 36.2602 9.33C36.2002 9.39 36.1502 9.45 36.1002 9.5L36.1802 9.66L37.6102 8.96L37.5302 8.8C37.3702 8.8 37.1902 8.84 37.0002 8.89L35.3602 5.55C35.4302 5.49 35.5002 5.43 35.5702 5.37C35.6402 5.31 35.7002 5.25 35.7502 5.18L35.6702 5.02L34.2402 5.72L34.3202 5.88C34.4002 5.88 34.4802 5.86 34.5702 5.85C34.6602 5.84 34.7502 5.82 34.8502 5.79L34.9202 5.92L34.4002 9.02L34.3502 9.6L34.2002 9.15L33.0002 6.7C33.0802 6.64 33.1402 6.58 33.2002 6.52C33.2602 6.46 33.3102 6.41 33.3502 6.35L33.2702 6.19L31.8402 6.89L31.9202 7.05C32.0102 7.05 32.1002 7.03 32.1902 7.02L32.1802 7.04ZM95.7002 17.99C95.5502 17.89 95.3902 17.81 95.2202 17.74L95.0902 17.87L96.2402 18.97L96.3702 18.84C96.3402 18.77 96.3102 18.69 96.2702 18.62C96.2302 18.55 96.1802 18.48 96.1402 18.41L97.3502 17.14L98.7802 18.5L97.5702 19.77C97.4302 19.68 97.2802 19.61 97.1302 19.55L97.0002 19.68L98.1502 20.78L98.2802 20.65C98.2502 20.58 98.2102 20.5 98.1702 20.42C98.1202 20.34 98.0702 20.26 98.0102 20.18L100.58 17.49C100.66 17.54 100.73 17.59 100.81 17.63C100.89 17.68 100.97 17.71 101.06 17.73L101.19 17.6L100.04 16.5L99.9102 16.63C99.9402 16.7 99.9702 16.78 100.01 16.85C100.05 16.92 100.09 17 100.14 17.07L99.0102 18.26L97.5802 16.9L98.7102 15.71C98.7802 15.76 98.8602 15.8 98.9302 15.83C99.0002 15.87 99.0802 15.9 99.1602 15.92L99.2902 15.79L98.1402 14.69L98.0102 14.82C98.0602 14.98 98.1502 15.13 98.2702 15.29L95.7002 17.99ZM94.7902 12.38L95.5402 12.98L93.1902 15.89C93.0902 15.83 93.0002 15.79 92.9102 15.75C92.8202 15.71 92.7302 15.67 92.6402 15.64L92.5302 15.78L93.9002 16.89L94.0102 16.75C93.9702 16.67 93.9102 16.59 93.8502 16.51C93.7902 16.43 93.7202 16.35 93.6502 16.27L96.0002 13.36L96.7402 13.96L96.4302 14.87L96.5602 14.97C96.6302 14.91 96.6902 14.84 96.7702 14.76C96.8502 14.68 96.9102 14.6 96.9902 14.52C97.0602 14.44 97.1402 14.36 97.2102 14.28C97.2802 14.2 97.3402 14.13 97.3902 14.06L94.5502 11.77C94.5002 11.84 94.4402 11.91 94.3802 12C94.3202 12.09 94.2502 12.17 94.1902 12.27C94.1202 12.36 94.0602 12.45 94.0002 12.54C93.9402 12.63 93.8902 12.71 93.8502 12.78L93.9702 12.88L94.7902 12.39V12.38ZM65.9502 0.71L66.9002 0.84L66.4002 4.54C66.2902 4.54 66.1902 4.54 66.0902 4.56C65.9902 4.57 65.9002 4.59 65.8002 4.61L65.7802 4.79L67.5302 5.02L67.5502 4.84C67.4702 4.79 67.3802 4.75 67.2902 4.72C67.2002 4.69 67.1002 4.65 67.0002 4.62L67.5002 0.92L68.4502 1.05L68.6602 1.98L68.8202 2C68.8402 1.91 68.8702 1.82 68.8902 1.71C68.9102 1.6 68.9302 1.5 68.9502 1.39C68.9702 1.28 68.9902 1.17 69.0102 1.07C69.0302 0.97 69.0402 0.87 69.0502 0.79L65.4302 0.3C65.4202 0.38 65.4102 0.48 65.4002 0.58C65.3902 0.69 65.3802 0.8 65.3702 0.91C65.3702 1.02 65.3502 1.13 65.3502 1.24C65.3502 1.35 65.3502 1.44 65.3502 1.53L65.5102 1.55L65.9602 0.7L65.9502 0.71ZM6.21023 48.4L6.39023 48.44L6.70023 47.08L6.52023 47.04C6.41023 47.2 6.32023 47.37 6.25023 47.53L5.22023 46.87L5.55023 45.41L6.76023 45.25C6.76023 45.34 6.76023 45.42 6.76023 45.52C6.76023 45.61 6.78023 45.7 6.79023 45.79L6.97023 45.83L7.33023 44.25L7.15023 44.21C7.09023 44.27 7.05023 44.34 7.01023 44.41C6.97023 44.48 6.93023 44.56 6.90023 44.64L2.51023 45.27L2.47023 45.45L6.16023 47.92C6.16023 48.07 6.18023 48.23 6.21023 48.39V48.4ZM4.93023 46.68L3.75023 45.92L3.25023 45.65H3.80023L5.21023 45.46L4.93023 46.69V46.68ZM9.88023 88.41L13.1002 86.54C13.2302 86.69 13.3602 86.82 13.4902 86.91L13.6502 86.82L12.0902 84.15C11.9302 84.24 11.7702 84.33 11.6202 84.43C11.4702 84.53 11.3302 84.64 11.1902 84.75L11.2702 84.89L12.0802 84.78L12.8102 86.03L11.3002 86.91L10.7902 86.03L11.0802 85.58L11.0002 85.44C10.6102 85.64 10.2502 85.85 9.90023 86.08L9.98023 86.22L10.5002 86.2L11.0102 87.09L9.57023 87.93L8.88023 86.75L9.35023 86.18L9.27024 86.04C9.11024 86.11 8.96023 86.18 8.80023 86.26C8.65024 86.34 8.50023 86.41 8.35023 86.49L9.85023 89.06L10.0102 88.97C10.0002 88.88 9.98024 88.79 9.96023 88.7C9.94023 88.61 9.92023 88.52 9.89023 88.44L9.88023 88.41ZM109.31 87.95C109.24 88.01 109.18 88.07 109.11 88.13L105.97 86.12C106.04 85.96 106.09 85.79 106.12 85.61L105.97 85.51L105.11 86.85L105.26 86.95C105.33 86.91 105.39 86.86 105.46 86.8C105.53 86.74 105.59 86.68 105.66 86.6L105.78 86.67L106.95 89.63L107.2 90.12L106.84 89.81L104.55 88.34C104.59 88.25 104.61 88.17 104.63 88.09C104.65 88.01 104.67 87.93 104.68 87.86L104.53 87.76L103.67 89.1L103.82 89.2C103.96 89.11 104.09 89 104.22 88.85L107.36 90.86C107.33 90.95 107.3 91.04 107.27 91.13C107.25 91.22 107.22 91.3 107.21 91.38L107.36 91.48L108.22 90.14L108.07 90.04C108.01 90.08 107.94 90.14 107.87 90.19C107.8 90.25 107.73 90.31 107.66 90.38L107.53 90.3L106.37 87.37L106.11 86.85L106.47 87.16L108.77 88.63C108.74 88.72 108.71 88.81 108.69 88.88C108.67 88.95 108.66 89.03 108.65 89.11L108.8 89.21L109.66 87.87L109.51 87.77C109.44 87.82 109.37 87.88 109.3 87.94L109.31 87.95ZM89.6302 8.45L87.0502 6.96L86.9602 7.12C87.0202 7.19 87.0802 7.26 87.1402 7.33C87.2002 7.4 87.2702 7.46 87.3302 7.52L85.4702 10.75C85.2802 10.68 85.1102 10.64 84.9502 10.62L84.8602 10.78L87.5402 12.33C87.6402 12.17 87.7302 12.02 87.8102 11.85C87.8902 11.69 87.9602 11.52 88.0202 11.36L87.8802 11.28L87.2402 11.78L85.9902 11.06L86.8602 9.54L87.7502 10.05L87.7202 10.59L87.8602 10.67C88.1002 10.31 88.3102 9.94 88.4902 9.57L88.3502 9.49L87.9102 9.77L87.0202 9.26L87.8502 7.82L89.0402 8.5L88.9202 9.23L89.0602 9.31C89.1602 9.17 89.2602 9.03 89.3602 8.89C89.4502 8.75 89.5402 8.61 89.6302 8.46V8.45ZM105.52 91.85C105.38 91.74 105.24 91.67 105.1 91.63C104.96 91.59 104.83 91.57 104.7 91.57C104.57 91.57 104.44 91.6 104.32 91.65C104.2 91.7 104.09 91.76 103.98 91.83C103.93 91.69 103.89 91.55 103.84 91.41C103.79 91.27 103.74 91.12 103.69 90.97C103.64 90.82 103.59 90.66 103.55 90.5C103.5 90.33 103.47 90.15 103.43 89.96L103.49 89.63L103.37 89.53L102.89 90.16V90.43C102.92 90.6 102.97 90.75 103.02 90.9C103.08 91.05 103.14 91.19 103.2 91.34C103.27 91.49 103.34 91.63 103.41 91.78C103.48 91.93 103.55 92.08 103.61 92.25L103.22 92.75L102.02 91.83C102.13 91.65 102.2 91.47 102.23 91.3L102.09 91.19L101.08 92.51L101.22 92.62C101.36 92.56 101.5 92.45 101.65 92.3L104.6 94.57C104.55 94.67 104.51 94.77 104.48 94.85C104.45 94.93 104.43 95.01 104.41 95.08L104.55 95.19L105.04 94.55C105.12 94.45 105.2 94.35 105.28 94.26C105.36 94.17 105.43 94.09 105.48 94.02C105.61 93.85 105.72 93.67 105.81 93.47C105.9 93.28 105.95 93.08 105.97 92.89C105.99 92.7 105.96 92.51 105.89 92.33C105.82 92.15 105.69 91.99 105.51 91.85H105.52ZM105.24 93.81C105.24 93.81 105.16 93.91 105.11 93.97C105.06 94.03 105.02 94.07 104.98 94.1L103.48 92.95C103.5 92.9 103.53 92.84 103.57 92.77C103.61 92.7 103.66 92.64 103.7 92.58C103.91 92.31 104.13 92.16 104.37 92.14C104.61 92.12 104.85 92.2 105.1 92.39C105.37 92.6 105.51 92.83 105.52 93.07C105.52 93.31 105.43 93.56 105.23 93.82L105.24 93.81ZM90.2202 14.18C90.3002 14.23 90.3802 14.28 90.4702 14.33C90.5602 14.38 90.6502 14.43 90.7402 14.46C90.8302 14.5 90.9202 14.53 91.0102 14.55C91.1002 14.57 91.1902 14.58 91.2702 14.58C91.3702 14.45 91.4702 14.3 91.5502 14.15C91.6402 13.99 91.7002 13.86 91.7502 13.75L91.6202 13.66L90.9402 14.14C90.9402 14.14 90.8302 14.14 90.7402 14.1C90.6502 14.06 90.5502 14.01 90.4402 13.93C90.2302 13.78 90.0602 13.62 89.9402 13.43C89.8202 13.24 89.7502 13.04 89.7302 12.81C89.7102 12.59 89.7302 12.36 89.8102 12.12C89.8802 11.88 90.0002 11.64 90.1702 11.39C90.3602 11.12 90.5502 10.9 90.7602 10.75C90.9702 10.59 91.1702 10.49 91.3802 10.44C91.5902 10.39 91.7902 10.38 91.9802 10.42C92.1802 10.46 92.3602 10.54 92.5402 10.66C92.6302 10.72 92.7102 10.78 92.7902 10.85C92.8702 10.92 92.9302 10.97 92.9502 11.02L92.7102 11.95L92.8402 12.04C92.9002 11.98 92.9502 11.92 93.0202 11.84C93.0902 11.77 93.1502 11.69 93.2102 11.61C93.2702 11.53 93.3302 11.46 93.3902 11.39C93.4402 11.32 93.4902 11.26 93.5302 11.2C93.4502 11.06 93.3502 10.92 93.2102 10.79C93.0702 10.65 92.8902 10.51 92.6602 10.35C92.4302 10.19 92.1802 10.08 91.9202 10C91.6602 9.92 91.4002 9.91 91.1402 9.95C90.8802 9.99 90.6202 10.1 90.3602 10.27C90.1102 10.44 89.8602 10.7 89.6302 11.04C89.4102 11.37 89.2602 11.67 89.1802 11.97C89.1002 12.26 89.0902 12.54 89.1402 12.8C89.1902 13.06 89.3102 13.3 89.4902 13.54C89.6602 13.77 89.9002 13.99 90.1902 14.19L90.2202 14.18ZM59.0102 3.75C59.1002 3.58 59.1502 3.39 59.1402 3.16C59.1402 2.98 59.1002 2.83 59.0302 2.71C58.9602 2.59 58.8802 2.48 58.7802 2.4C58.6802 2.32 58.5702 2.25 58.4402 2.21C58.3102 2.17 58.1902 2.13 58.0602 2.12V2.1C58.2002 2.06 58.3202 2.01 58.4202 1.93C58.5202 1.85 58.6102 1.77 58.6702 1.67C58.7402 1.57 58.7802 1.47 58.8102 1.36C58.8402 1.25 58.8502 1.14 58.8502 1.03C58.8502 0.81 58.7902 0.64 58.7002 0.5C58.6102 0.37 58.4902 0.26 58.3502 0.19C58.2102 0.12 58.0502 0.07 57.8702 0.05C57.7002 0.03 57.5202 0.02 57.3602 0.03C57.2402 0.03 57.1402 0.03 57.0502 0.05C56.9602 0.07 56.8702 0.06 56.7902 0.07C56.7102 0.08 56.6302 0.08 56.5602 0.09C56.4902 0.09 56.4102 0.1 56.3302 0.1L55.6602 0.12V0.3C55.7502 0.33 55.8402 0.36 55.9302 0.38C56.0202 0.4 56.1102 0.42 56.1902 0.44L56.3102 4.16C56.1302 4.19 55.9602 4.24 55.8002 4.33V4.51L56.4102 4.49C56.5802 4.49 56.7602 4.49 56.9402 4.49C57.1202 4.49 57.2902 4.49 57.4402 4.49C57.6502 4.49 57.8602 4.45 58.0602 4.4C58.2602 4.35 58.4402 4.26 58.6002 4.15C58.7602 4.04 58.8802 3.9 58.9802 3.73L59.0102 3.75ZM56.7802 0.41C56.8402 0.41 56.9102 0.39 57.0002 0.38C57.0902 0.38 57.2002 0.37 57.3302 0.36C57.6102 0.36 57.8302 0.41 58.0002 0.54C58.1702 0.67 58.2602 0.88 58.2702 1.15C58.2702 1.35 58.2202 1.53 58.1002 1.68C57.9802 1.83 57.8302 1.95 57.6402 2.02C57.5802 2.03 57.5002 2.04 57.4002 2.05C57.3002 2.05 57.2202 2.07 57.1502 2.07H56.8402L56.7902 0.4L56.7802 0.41ZM58.4702 3.6C58.4202 3.72 58.3502 3.82 58.2602 3.9C58.1702 3.98 58.0602 4.05 57.9302 4.1C57.8002 4.15 57.6602 4.18 57.5102 4.18C57.3302 4.18 57.2002 4.18 57.1202 4.18C57.0402 4.18 56.9702 4.16 56.9102 4.15L56.8502 2.42L57.3202 2.4C57.4702 2.4 57.6302 2.4 57.7702 2.42C57.9202 2.44 58.0402 2.48 58.1602 2.54C58.2702 2.6 58.3602 2.69 58.4302 2.79C58.5002 2.9 58.5402 3.04 58.5402 3.2C58.5402 3.33 58.5202 3.46 58.4702 3.58V3.6ZM73.8702 2.1C73.9602 2.1 74.0502 2.08 74.1302 2.07L74.1702 1.89L72.6102 1.54L72.5702 1.72C72.6302 1.76 72.7002 1.81 72.7802 1.85C72.8602 1.89 72.9402 1.94 73.0302 1.98L73.0002 2.13L70.6502 4.23L70.2502 4.65L70.4202 4.21L71.0102 1.55C71.1102 1.55 71.2002 1.55 71.2802 1.54C71.3602 1.54 71.4402 1.52 71.5102 1.5L71.5502 1.32L70.0002 0.98L69.9602 1.16C70.0302 1.21 70.1102 1.26 70.1902 1.3C70.2702 1.34 70.3502 1.39 70.4302 1.42L69.6302 5.05C69.4502 5.04 69.2702 5.05 69.0902 5.09L69.0502 5.27L70.6002 5.61L70.6402 5.43C70.5802 5.38 70.5102 5.34 70.4302 5.29C70.3502 5.25 70.2702 5.21 70.1802 5.17L70.2102 5.04L72.5902 2.92L72.9602 2.52L72.8002 2.97L72.2102 5.62C72.1202 5.62 72.0302 5.62 71.9402 5.62C71.8602 5.62 71.7802 5.64 71.7102 5.66L71.6702 5.84L73.2302 6.19L73.2702 6.01C73.1402 5.91 72.9802 5.83 72.8002 5.75L73.6102 2.11C73.7102 2.11 73.8002 2.11 73.8902 2.1H73.8702ZM54.5202 2.63C54.4302 2.55 54.3302 2.5 54.2102 2.45C54.0902 2.41 53.9702 2.39 53.8502 2.38V2.36C54.1002 2.23 54.2802 2.06 54.3902 1.86C54.4902 1.66 54.5302 1.46 54.5102 1.24C54.4902 1.02 54.4202 0.85 54.3202 0.72C54.2202 0.59 54.0902 0.49 53.9402 0.43C53.7902 0.36 53.6302 0.33 53.4602 0.31C53.2902 0.3 53.1202 0.31 52.9502 0.32C52.8602 0.32 52.7702 0.34 52.6702 0.36C52.5702 0.38 52.4702 0.4 52.3802 0.44C52.2902 0.47 52.2002 0.51 52.1102 0.55C52.0202 0.59 51.9502 0.64 51.9002 0.7C51.9102 0.87 51.9402 1.04 51.9702 1.22C52.0002 1.39 52.0402 1.53 52.0702 1.64L52.2302 1.62L52.4802 0.82C52.4802 0.82 52.5602 0.75 52.6402 0.72C52.7202 0.69 52.8302 0.67 52.9602 0.65C53.2302 0.62 53.4602 0.67 53.6302 0.81C53.8002 0.94 53.9002 1.15 53.9302 1.42C53.9502 1.62 53.9202 1.8 53.8302 1.96C53.7402 2.12 53.6102 2.24 53.4202 2.33C53.3502 2.35 53.2702 2.36 53.1702 2.38C53.0702 2.4 52.9902 2.41 52.9202 2.42L52.7202 2.44C52.7102 2.55 52.7202 2.68 52.7602 2.8L53.2302 2.68C53.3602 2.67 53.4802 2.67 53.5902 2.68C53.7102 2.7 53.8102 2.74 53.9102 2.79C54.0102 2.84 54.0802 2.93 54.1502 3.04C54.2202 3.15 54.2602 3.28 54.2702 3.45C54.2802 3.59 54.2702 3.72 54.2402 3.84C54.2002 3.96 54.1402 4.07 54.0602 4.17C53.9802 4.27 53.8802 4.34 53.7502 4.41C53.6302 4.47 53.4902 4.51 53.3402 4.53C53.2902 4.53 53.2302 4.53 53.1702 4.54C53.1102 4.54 53.0502 4.54 52.9902 4.54C52.9302 4.54 52.8802 4.54 52.8302 4.53C52.7802 4.53 52.7502 4.52 52.7202 4.51L52.3602 3.66L52.2002 3.68C52.1902 3.77 52.1802 3.86 52.1702 3.95C52.1702 4.05 52.1502 4.14 52.1502 4.24C52.1502 4.34 52.1502 4.43 52.1502 4.51C52.1502 4.6 52.1502 4.67 52.1602 4.74C52.3102 4.8 52.4902 4.84 52.7102 4.86C52.9302 4.88 53.1502 4.88 53.3802 4.86C53.5902 4.84 53.7902 4.79 53.9902 4.72C54.1802 4.65 54.3502 4.55 54.4902 4.42C54.6302 4.29 54.7302 4.15 54.8002 3.97C54.8702 3.79 54.9002 3.59 54.8702 3.37C54.8502 3.2 54.8102 3.05 54.7502 2.93C54.6902 2.81 54.6202 2.71 54.5302 2.64L54.5202 2.63ZM75.7602 6.78L75.7102 6.95L77.3002 7.45L77.3502 7.28C77.2402 7.17 77.1002 7.07 76.9002 6.98L78.0102 3.43C78.1202 3.44 78.2302 3.45 78.3102 3.45C78.4002 3.45 78.4802 3.45 78.5402 3.43L78.5902 3.26L77.8202 3.02C77.7002 2.98 77.5802 2.94 77.4602 2.9C77.3402 2.86 77.2502 2.82 77.1702 2.8C76.9702 2.74 76.7602 2.7 76.5502 2.68C76.3402 2.66 76.1402 2.68 75.9502 2.73C75.7602 2.78 75.6002 2.87 75.4502 3C75.3002 3.13 75.2002 3.3 75.1302 3.52C75.0802 3.69 75.0502 3.84 75.0602 3.99C75.0602 4.13 75.1002 4.27 75.1502 4.39C75.2002 4.51 75.2702 4.62 75.3602 4.72C75.4502 4.82 75.5402 4.9 75.6502 4.98C75.5302 5.07 75.4202 5.16 75.3002 5.26C75.1802 5.36 75.0702 5.45 74.9402 5.55C74.8202 5.65 74.6902 5.75 74.5402 5.85C74.4002 5.95 74.2402 6.05 74.0702 6.14L73.7402 6.19L73.6902 6.34L74.4402 6.58L74.6902 6.49C74.8302 6.4 74.9602 6.3 75.0802 6.2C75.2002 6.1 75.3202 5.99 75.4302 5.88C75.5402 5.77 75.6602 5.65 75.7702 5.53C75.8802 5.41 76.0102 5.3 76.1402 5.18L76.7502 5.37L76.3002 6.81C76.0902 6.77 75.9002 6.77 75.7302 6.79L75.7602 6.78ZM76.6702 5.02C76.5902 5 76.5202 4.98 76.4502 4.96C76.1302 4.86 75.9102 4.7 75.8102 4.49C75.7002 4.27 75.7002 4.02 75.7902 3.72C75.8902 3.39 76.0602 3.18 76.2802 3.1C76.5102 3.01 76.7702 3.01 77.0802 3.11C77.1402 3.13 77.2002 3.15 77.2702 3.18C77.3402 3.21 77.4002 3.23 77.4302 3.26L76.8602 5.06C76.8002 5.06 76.7402 5.06 76.6602 5.03L76.6702 5.02ZM117.31 61.85C117.28 61.93 117.25 62.02 117.22 62.11L113.51 61.8C113.51 61.71 113.49 61.63 113.48 61.54C113.47 61.45 113.44 61.36 113.41 61.27L113.23 61.25L113.08 62.97L113.26 62.99C113.3 62.9 113.34 62.81 113.37 62.72C113.41 62.62 113.44 62.52 113.46 62.41L114.84 62.53C114.84 62.53 114.83 62.58 114.82 62.63C114.81 62.68 114.8 62.72 114.8 62.77C114.8 62.82 114.79 62.87 114.78 62.91C114.78 62.95 114.78 62.99 114.78 63.01C114.76 63.23 114.78 63.44 114.8 63.65C114.84 63.86 114.9 64.05 115 64.22C115.1 64.39 115.23 64.53 115.4 64.64C115.57 64.75 115.77 64.82 116.02 64.84C116.28 64.86 116.5 64.84 116.68 64.75C116.86 64.67 117.01 64.56 117.13 64.42C117.25 64.28 117.34 64.11 117.4 63.92C117.46 63.73 117.5 63.53 117.52 63.32C117.54 63.14 117.54 62.95 117.54 62.75C117.54 62.55 117.54 62.37 117.56 62.2L117.61 61.64L117.43 61.62C117.39 61.7 117.36 61.78 117.32 61.86L117.31 61.85ZM117.2 63.15C117.17 63.49 117.06 63.75 116.87 63.93C116.68 64.11 116.42 64.18 116.08 64.15C115.89 64.13 115.73 64.09 115.61 64.02C115.48 63.95 115.38 63.86 115.3 63.76C115.22 63.65 115.17 63.54 115.14 63.4C115.11 63.27 115.1 63.13 115.12 62.98C115.12 62.96 115.12 62.92 115.12 62.88C115.12 62.84 115.12 62.8 115.14 62.75C115.14 62.71 115.15 62.66 115.16 62.63C115.16 62.59 115.17 62.56 115.18 62.54L117.21 62.71C117.21 62.77 117.22 62.83 117.21 62.89C117.21 62.95 117.21 63.03 117.2 63.14V63.15ZM113.13 64.69L112.95 64.66L112.73 66.04L112.91 66.07C113.01 65.9 113.09 65.73 113.14 65.56L114.21 66.15L113.98 67.62L112.78 67.86C112.78 67.77 112.77 67.69 112.76 67.6C112.75 67.51 112.73 67.42 112.71 67.33L112.53 67.3L112.28 68.9L112.46 68.93C112.51 68.87 112.56 68.8 112.59 68.72C112.62 68.64 112.66 68.56 112.68 68.48L117.02 67.55L117.05 67.37L113.21 65.16C113.21 65 113.17 64.85 113.13 64.69ZM114.52 66.32L115.75 67L116.27 67.24L115.72 67.28L114.33 67.56L114.53 66.31L114.52 66.32ZM117.53 56.51C117.49 56.59 117.46 56.68 117.43 56.77C117.4 56.86 117.38 56.94 117.36 57.03L113.64 56.97C113.62 56.86 113.61 56.76 113.58 56.67C113.55 56.58 113.53 56.51 113.49 56.45H113.31L113.28 58.04H113.46C113.53 57.89 113.58 57.74 113.62 57.57L117.36 57.63L117.33 59.54L113.59 59.48C113.55 59.26 113.5 59.1 113.45 59.01H113.27L113.25 60.6H113.43C113.51 60.43 113.56 60.26 113.59 60.09L117.31 60.15C117.33 60.24 117.34 60.33 117.37 60.42C117.4 60.51 117.42 60.59 117.46 60.67H117.64L117.71 56.53H117.53V56.51ZM1.86023 51.48L5.55023 52C5.55023 52.18 5.58023 52.36 5.63023 52.53L5.81023 52.55L6.03023 50.98L5.85023 50.96C5.77023 51.07 5.69023 51.22 5.64023 51.41L3.89023 51.16L3.93023 50.85C4.30023 50.67 4.67023 50.48 5.04023 50.29C5.41023 50.09 5.75023 49.89 6.07023 49.69L6.25023 49.5L6.36023 48.72L6.20023 48.7L6.01023 48.98C5.82023 49.11 5.63023 49.23 5.42023 49.36C5.21023 49.49 5.01023 49.61 4.81023 49.74C4.61023 49.86 4.41023 49.98 4.22023 50.09C4.03023 50.2 3.86023 50.3 3.71023 50.38L2.23023 48.9C2.23023 48.82 2.21023 48.74 2.20023 48.66C2.19023 48.58 2.17023 48.49 2.14023 48.41L1.96023 48.39L1.77023 49.76L1.95023 49.78C1.99023 49.72 2.03023 49.65 2.07023 49.58C2.11023 49.51 2.14023 49.43 2.17023 49.35L3.64023 50.74L3.68023 51.13L1.96023 50.89C1.96023 50.8 1.94023 50.71 1.92023 50.63C1.90023 50.55 1.89023 50.47 1.87023 50.4L1.69023 50.38L1.47023 51.95L1.65023 51.97C1.75023 51.83 1.83023 51.66 1.88023 51.48H1.86023ZM116.14 70.57C116.09 70.65 116.05 70.73 116.02 70.8L112.4 69.92C112.42 69.74 112.41 69.56 112.38 69.38L112.2 69.34L112.06 69.93C112.02 70.1 111.97 70.27 111.92 70.44C111.87 70.61 111.82 70.77 111.79 70.92C111.74 71.12 111.72 71.33 111.71 71.54C111.7 71.75 111.74 71.95 111.8 72.13C111.86 72.31 111.96 72.47 112.1 72.61C112.23 72.75 112.41 72.84 112.63 72.89C112.8 72.93 112.96 72.94 113.09 72.91C113.23 72.88 113.35 72.83 113.45 72.76C113.56 72.69 113.65 72.6 113.73 72.49C113.81 72.38 113.87 72.27 113.92 72.15H113.94C113.94 72.3 113.96 72.43 114.01 72.55C114.06 72.67 114.11 72.77 114.19 72.86C114.27 72.95 114.35 73.02 114.45 73.08C114.55 73.14 114.65 73.18 114.76 73.21C114.97 73.26 115.15 73.26 115.31 73.21C115.46 73.16 115.59 73.07 115.7 72.95C115.81 72.83 115.89 72.69 115.96 72.53C116.03 72.37 116.08 72.2 116.12 72.04C116.15 71.93 116.17 71.82 116.19 71.73C116.21 71.64 116.22 71.55 116.24 71.48C116.26 71.4 116.27 71.33 116.28 71.25C116.29 71.18 116.31 71.1 116.33 71.03L116.49 70.38L116.31 70.34C116.26 70.41 116.21 70.49 116.16 70.56L116.14 70.57ZM113.84 71.34C113.8 71.49 113.76 71.63 113.7 71.77C113.64 71.9 113.57 72.02 113.48 72.11C113.39 72.2 113.28 72.27 113.16 72.3C113.04 72.33 112.89 72.34 112.73 72.3C112.6 72.27 112.48 72.21 112.39 72.13C112.29 72.05 112.21 71.95 112.16 71.84C112.1 71.73 112.07 71.6 112.05 71.46C112.04 71.32 112.05 71.18 112.08 71.03C112.12 70.86 112.16 70.74 112.18 70.66C112.21 70.58 112.24 70.52 112.27 70.46L113.95 70.87L113.84 71.33V71.34ZM115.87 71.58C115.85 71.67 115.83 71.78 115.8 71.91C115.73 72.18 115.62 72.38 115.44 72.51C115.27 72.64 115.05 72.67 114.78 72.6C114.58 72.55 114.43 72.45 114.31 72.3C114.19 72.15 114.13 71.97 114.11 71.76C114.11 71.7 114.13 71.62 114.15 71.52C114.17 71.42 114.18 71.34 114.2 71.27L114.27 70.96L115.91 71.36C115.91 71.42 115.89 71.49 115.87 71.58ZM113.48 79.4C113.42 79.47 113.37 79.54 113.32 79.61L109.88 78.17C109.92 77.98 109.95 77.8 109.94 77.64L109.77 77.57L108.57 80.43C108.74 80.51 108.91 80.58 109.08 80.63C109.25 80.68 109.42 80.74 109.6 80.78L109.66 80.64L109.08 80.06L109.64 78.73L111.26 79.41L110.86 80.35L110.32 80.39L110.26 80.53C110.65 80.72 111.04 80.88 111.43 81.02L111.49 80.88L111.16 80.47L111.56 79.53L113.1 80.17L112.57 81.43L111.83 81.4L111.77 81.55C111.92 81.64 112.07 81.72 112.22 81.79C112.37 81.87 112.53 81.94 112.68 82.01L113.83 79.26L113.66 79.19C113.59 79.25 113.53 79.32 113.47 79.39L113.48 79.4ZM114.67 75.69C114.19 75.53 113.78 75.38 113.43 75.23C113.09 75.08 112.8 74.94 112.56 74.82C112.32 74.69 112.13 74.57 111.99 74.46C111.85 74.35 111.73 74.25 111.65 74.15L112 73.5L111.88 73.36C111.83 73.35 111.77 73.34 111.69 73.33C111.62 73.33 111.55 73.33 111.47 73.33C111.4 73.33 111.33 73.34 111.26 73.35C111.19 73.36 111.14 73.37 111.1 73.39C111.06 73.5 111.05 73.62 111.06 73.75C111.06 73.88 111.11 74 111.19 74.12C111.28 74.26 111.39 74.39 111.53 74.52C111.66 74.65 111.85 74.8 112.1 74.95C112.35 75.1 112.67 75.27 113.07 75.44C113.47 75.61 113.98 75.82 114.6 76.04L114.23 77.15L110.68 75.98C110.68 75.89 110.69 75.81 110.69 75.73C110.69 75.65 110.69 75.56 110.69 75.48L110.52 75.42L110.02 76.94L110.19 77C110.3 76.88 110.4 76.73 110.49 76.56L114.03 77.72C114 77.92 113.99 78.1 114.02 78.26L114.19 78.32L115.22 75.18L115.05 75.12C114.92 75.25 114.79 75.43 114.67 75.67V75.69ZM111.6 83.55L108.29 81.83C108.34 81.66 108.38 81.48 108.39 81.3L108.23 81.22L107.5 82.63L107.66 82.71C107.72 82.66 107.78 82.61 107.84 82.55C107.9 82.49 107.96 82.43 108.01 82.36L109.57 83.17L108.66 84.92L107.1 84.11C107.15 83.95 107.17 83.79 107.18 83.62L107.02 83.54L106.29 84.95L106.45 85.03C106.51 84.98 106.58 84.92 106.64 84.86C106.7 84.79 106.76 84.72 106.82 84.64L110.13 86.36C110.11 86.45 110.08 86.53 110.06 86.63C110.04 86.72 110.03 86.81 110.03 86.9L110.19 86.98L110.92 85.57L110.76 85.49C110.7 85.54 110.64 85.59 110.58 85.65C110.52 85.71 110.46 85.77 110.4 85.84L108.94 85.08L109.85 83.33L111.31 84.09C111.29 84.17 111.27 84.25 111.25 84.34C111.23 84.42 111.23 84.5 111.23 84.59L111.39 84.67L112.12 83.26L111.96 83.18C111.83 83.27 111.7 83.4 111.58 83.56L111.6 83.55ZM6.02023 75.6C6.40023 75.49 6.71023 75.35 6.96023 75.17C7.21023 74.99 7.39023 74.79 7.52023 74.55C7.64023 74.32 7.71023 74.05 7.72023 73.76C7.72023 73.47 7.68023 73.16 7.59023 72.82C7.57023 72.73 7.53023 72.64 7.50023 72.54C7.46023 72.44 7.42023 72.35 7.37023 72.26C7.32023 72.17 7.27023 72.09 7.22023 72.01C7.17023 71.93 7.11023 71.87 7.04023 71.83C6.88023 71.87 6.71023 71.92 6.55023 71.99C6.38023 72.06 6.25023 72.12 6.14023 72.17L6.19023 72.33L7.02023 72.4C7.02023 72.4 7.10023 72.47 7.15023 72.55C7.20023 72.63 7.24023 72.74 7.28023 72.87C7.35023 73.12 7.37023 73.35 7.34023 73.57C7.31023 73.79 7.23023 73.99 7.11023 74.18C6.99023 74.36 6.82023 74.53 6.61023 74.66C6.40023 74.8 6.15023 74.91 5.87023 74.99C5.55023 75.08 5.26023 75.12 5.01023 75.11C4.76023 75.1 4.52023 75.05 4.33023 74.96C4.14023 74.87 3.98023 74.75 3.85023 74.59C3.72023 74.43 3.63023 74.25 3.57023 74.05C3.54023 73.95 3.52023 73.85 3.49023 73.74C3.46023 73.63 3.46023 73.56 3.47023 73.51L4.25023 72.94L4.21023 72.79C4.13023 72.79 4.04023 72.81 3.95023 72.83C3.86023 72.85 3.76023 72.86 3.66023 72.88C3.56023 72.9 3.47023 72.92 3.38023 72.94C3.29023 72.96 3.22023 72.98 3.15023 73C3.12023 73.16 3.12023 73.33 3.13023 73.52C3.15023 73.71 3.20023 73.94 3.27023 74.2C3.35023 74.47 3.46023 74.71 3.62023 74.94C3.77023 75.16 3.96023 75.34 4.19023 75.48C4.42023 75.61 4.69023 75.7 4.99023 75.72C5.29023 75.75 5.64023 75.71 6.04023 75.59L6.02023 75.6ZM4.80023 71.25C5.19023 71.17 5.51023 71.05 5.77023 70.89C6.03023 70.73 6.23023 70.54 6.37023 70.32C6.51023 70.1 6.60023 69.84 6.63023 69.55C6.66023 69.26 6.64023 68.94 6.57023 68.6C6.55023 68.51 6.53023 68.42 6.50023 68.32C6.47023 68.22 6.44023 68.13 6.40023 68.03C6.36023 67.94 6.31023 67.85 6.27023 67.77C6.23023 67.69 6.17023 67.62 6.11023 67.57C5.94023 67.59 5.78023 67.63 5.60023 67.69C5.43023 67.74 5.29023 67.79 5.18023 67.83L5.21023 67.99L6.03023 68.12C6.03023 68.12 6.11023 68.2 6.15023 68.28C6.19023 68.37 6.22023 68.48 6.25023 68.61C6.30023 68.86 6.30023 69.1 6.25023 69.32C6.20023 69.54 6.11023 69.73 5.97023 69.91C5.83023 70.08 5.65023 70.23 5.43023 70.35C5.21023 70.47 4.95023 70.56 4.66023 70.62C4.34023 70.69 4.05023 70.7 3.79023 70.67C3.53023 70.64 3.31023 70.57 3.13023 70.46C2.94023 70.36 2.80023 70.22 2.68023 70.05C2.57023 69.88 2.49023 69.7 2.45023 69.49C2.43023 69.39 2.41023 69.28 2.40023 69.18C2.39023 69.07 2.39023 69 2.40023 68.95L3.22023 68.45L3.19023 68.29C3.11023 68.29 3.02023 68.29 2.92023 68.31C2.82023 68.31 2.72023 68.33 2.63023 68.34C2.54023 68.35 2.44023 68.36 2.35023 68.38C2.26023 68.39 2.18023 68.41 2.12023 68.42C2.08023 68.57 2.06023 68.75 2.06023 68.94C2.06023 69.13 2.09023 69.36 2.15023 69.63C2.21023 69.9 2.30023 70.16 2.43023 70.39C2.56023 70.62 2.74023 70.82 2.96023 70.97C3.18023 71.12 3.44023 71.22 3.74023 71.28C4.04023 71.33 4.40023 71.32 4.80023 71.24V71.25ZM7.81023 80.41C8.12023 80.29 8.38023 80.14 8.61023 79.96C8.84023 79.78 9.01023 79.57 9.14023 79.34C9.27024 79.11 9.34023 78.86 9.36023 78.59C9.38023 78.32 9.33023 78.04 9.21023 77.74C9.10023 77.45 8.94023 77.2 8.75023 77.02C8.56024 76.83 8.33023 76.69 8.08023 76.61C7.83023 76.53 7.56023 76.49 7.27023 76.51C6.98023 76.53 6.68023 76.59 6.37023 76.71C6.07023 76.83 5.80023 76.98 5.57023 77.16C5.34023 77.34 5.17023 77.55 5.04023 77.78C4.91023 78.01 4.84023 78.26 4.82023 78.53C4.80023 78.8 4.85023 79.08 4.97023 79.38C5.08023 79.67 5.24023 79.91 5.43023 80.1C5.63023 80.29 5.85023 80.43 6.10023 80.51C6.35023 80.6 6.62023 80.63 6.91023 80.61C7.20023 80.59 7.50023 80.52 7.81023 80.41ZM6.18023 80.01C5.98023 79.98 5.80023 79.91 5.65023 79.79C5.50023 79.68 5.38023 79.51 5.29023 79.3C5.21023 79.08 5.18023 78.87 5.21023 78.68C5.24023 78.48 5.32023 78.3 5.45023 78.13C5.58023 77.96 5.74023 77.81 5.94023 77.67C6.14023 77.53 6.37023 77.42 6.62023 77.32C6.87023 77.22 7.11023 77.16 7.35023 77.12C7.59023 77.08 7.81024 77.08 8.01023 77.12C8.21023 77.15 8.39023 77.22 8.54023 77.34C8.69023 77.46 8.81024 77.61 8.89023 77.81C8.97023 78.03 9.00023 78.24 8.97023 78.43C8.94024 78.63 8.86023 78.81 8.73023 78.98C8.61023 79.15 8.44023 79.3 8.25023 79.44C8.05023 79.58 7.83023 79.7 7.57023 79.79C7.32023 79.89 7.08023 79.96 6.84023 80C6.60023 80.04 6.39023 80.05 6.18023 80.02V80.01ZM7.79023 84.68L11.1402 83.05C11.1902 83.12 11.2502 83.19 11.3002 83.26C11.3602 83.33 11.4202 83.39 11.5002 83.45L11.6602 83.37L10.9102 81.82L10.7502 81.9C10.7502 81.99 10.7702 82.09 10.7902 82.19C10.8102 82.29 10.8402 82.4 10.8802 82.5L9.63023 83.11C9.63023 83.11 9.61024 83.06 9.60023 83.01C9.58023 82.97 9.57024 82.92 9.55023 82.88C9.53023 82.83 9.51023 82.79 9.49023 82.75C9.47023 82.71 9.46023 82.68 9.45023 82.66C9.35023 82.46 9.24024 82.29 9.10023 82.12C8.96023 81.96 8.81024 81.83 8.64023 81.73C8.47023 81.63 8.28023 81.58 8.08023 81.57C7.88023 81.56 7.67023 81.61 7.45023 81.72C7.22023 81.83 7.04023 81.97 6.93023 82.13C6.82023 82.29 6.74023 82.46 6.72023 82.65C6.70023 82.84 6.70023 83.02 6.75023 83.22C6.80023 83.42 6.86023 83.61 6.95023 83.79C7.03023 83.95 7.12023 84.12 7.22023 84.29C7.32023 84.46 7.41023 84.62 7.48023 84.77L7.73023 85.28L7.89023 85.2C7.89023 85.11 7.88023 85.03 7.87023 84.94C7.86023 84.85 7.84023 84.76 7.81023 84.67L7.79023 84.68ZM7.50023 84.15C7.50023 84.15 7.43023 84.05 7.40023 84C7.37023 83.95 7.33023 83.87 7.29023 83.78C7.14023 83.47 7.10023 83.19 7.17023 82.94C7.24023 82.69 7.43023 82.49 7.74023 82.34C7.91023 82.26 8.07023 82.21 8.21023 82.21C8.36023 82.21 8.49023 82.23 8.61023 82.28C8.73023 82.33 8.84023 82.4 8.93023 82.5C9.02024 82.6 9.10023 82.72 9.17023 82.85C9.18023 82.87 9.19023 82.9 9.21023 82.94C9.23024 82.98 9.25023 83.02 9.26023 83.06C9.28024 83.1 9.29023 83.14 9.31024 83.18C9.33024 83.22 9.33023 83.25 9.33023 83.27L7.50023 84.16V84.15ZM5.95023 66.72L6.13023 66.7L5.95023 65.12L5.77023 65.14C5.75023 65.21 5.72023 65.3 5.71023 65.39C5.69023 65.48 5.69023 65.57 5.68023 65.67L5.54023 65.69L2.76023 64.13L2.26023 63.91H2.73023L5.43023 63.61C5.46023 63.7 5.49023 63.78 5.53023 63.86C5.57023 63.94 5.60023 64.01 5.64023 64.07L5.82023 64.05L5.64023 62.47L5.46023 62.49C5.41023 62.64 5.38023 62.82 5.37023 63.02L1.67023 63.45C1.64023 63.36 1.60023 63.27 1.57023 63.19C1.53023 63.1 1.50023 63.03 1.45023 62.96L1.27023 62.98L1.45023 64.56L1.63023 64.54C1.65023 64.47 1.67023 64.38 1.69023 64.3C1.71023 64.21 1.72023 64.12 1.73023 64.02L1.88023 64L4.63023 65.53L5.16023 65.77L4.68023 65.75L1.97023 66.06C1.94023 65.97 1.91023 65.88 1.87023 65.81C1.84023 65.74 1.80023 65.67 1.76023 65.61L1.58023 65.63L1.76023 67.21L1.94023 67.19C1.96023 67.1 1.98023 67.01 2.00023 66.92C2.02023 66.83 2.03023 66.74 2.04023 66.66L5.74023 66.23C5.78023 66.4 5.85023 66.57 5.95023 66.73V66.72ZM14.9502 90.82C15.1302 90.57 15.2402 90.32 15.2802 90.06C15.3202 89.8 15.3002 89.53 15.2202 89.25C15.1402 88.97 15.0002 88.69 14.8002 88.4C14.7502 88.32 14.6902 88.25 14.6202 88.17C14.5502 88.09 14.4902 88.02 14.4102 87.95C14.3302 87.88 14.2602 87.82 14.1902 87.76C14.1202 87.7 14.0402 87.67 13.9602 87.64C13.8202 87.73 13.6802 87.83 13.5402 87.95C13.4002 88.06 13.2902 88.16 13.2102 88.25L13.3002 88.38L14.1102 88.18C14.1102 88.18 14.2102 88.22 14.2802 88.28C14.3502 88.34 14.4202 88.43 14.5002 88.55C14.6502 88.76 14.7402 88.98 14.7802 89.2C14.8202 89.42 14.8102 89.64 14.7602 89.85C14.7002 90.06 14.5902 90.27 14.4402 90.47C14.2802 90.67 14.0802 90.85 13.8402 91.02C13.5702 91.21 13.3102 91.34 13.0602 91.41C12.8102 91.48 12.5802 91.5 12.3702 91.48C12.1602 91.46 11.9702 91.39 11.8002 91.28C11.6302 91.17 11.4902 91.03 11.3702 90.86C11.3102 90.77 11.2502 90.68 11.2002 90.59C11.1502 90.5 11.1202 90.43 11.1102 90.37L11.6702 89.59L11.5802 89.46C11.5102 89.5 11.4302 89.53 11.3402 89.58C11.2502 89.62 11.1702 89.67 11.0802 89.72C10.9902 89.77 10.9102 89.82 10.8302 89.87C10.7502 89.92 10.6902 89.96 10.6302 90C10.6502 90.16 10.7002 90.32 10.7802 90.5C10.8602 90.68 10.9802 90.88 11.1302 91.1C11.2902 91.33 11.4802 91.53 11.6902 91.69C11.9002 91.85 12.1402 91.96 12.4002 92.02C12.6602 92.08 12.9402 92.07 13.2402 92C13.5402 91.93 13.8602 91.78 14.2002 91.55C14.5202 91.32 14.7702 91.09 14.9502 90.84V90.82ZM1.62023 55.89C1.79023 56.09 2.02023 56.26 2.29023 56.39C2.56023 56.52 2.91023 56.6 3.32023 56.62C3.71023 56.64 4.06023 56.62 4.35023 56.53C4.64023 56.44 4.89023 56.31 5.08023 56.13C5.28023 55.95 5.43023 55.73 5.53023 55.46C5.64023 55.19 5.70023 54.88 5.72023 54.53C5.72023 54.44 5.72023 54.34 5.72023 54.24C5.72023 54.14 5.71023 54.04 5.70023 53.94C5.68023 53.84 5.66023 53.75 5.64023 53.66C5.61023 53.57 5.58024 53.49 5.53023 53.43C5.36023 53.41 5.19023 53.41 5.01023 53.41C4.83024 53.41 4.68023 53.43 4.56023 53.44V53.6L5.31023 53.94C5.34023 53.97 5.37023 54.03 5.38023 54.13C5.40023 54.22 5.40023 54.34 5.39023 54.48C5.37023 54.74 5.32023 54.97 5.21023 55.17C5.11023 55.37 4.97023 55.53 4.79023 55.67C4.61023 55.8 4.40023 55.9 4.16023 55.96C3.91023 56.02 3.64023 56.04 3.35023 56.02C3.02023 56 2.73023 55.94 2.49023 55.84C2.25023 55.74 2.05023 55.62 1.90023 55.47C1.75023 55.32 1.64023 55.15 1.57023 54.96C1.50023 54.77 1.48023 54.57 1.49023 54.36C1.49023 54.26 1.51023 54.15 1.52023 54.04C1.54023 53.93 1.56023 53.86 1.58023 53.82L2.50023 53.55V53.39C2.43023 53.37 2.34023 53.35 2.25023 53.34C2.15023 53.32 2.06023 53.3 1.96023 53.29C1.86023 53.28 1.77023 53.26 1.67023 53.25C1.58023 53.25 1.50023 53.23 1.44023 53.23C1.36023 53.37 1.30023 53.53 1.25023 53.72C1.20023 53.91 1.17023 54.14 1.16023 54.41C1.14023 54.69 1.16023 54.96 1.24023 55.22C1.31023 55.48 1.43023 55.71 1.60023 55.91L1.62023 55.89ZM0.700234 58.95C0.630234 58.86 0.540234 58.8 0.440234 58.76C0.340234 58.72 0.240234 58.7 0.120234 58.71C0.0802344 58.77 0.0502344 58.84 0.0202344 58.93C0.000234375 59.02 -0.00976562 59.1 -0.00976562 59.16L0.0802344 59.31H0.640234C0.640234 59.31 0.680234 59.43 0.700234 59.53C0.720234 59.63 0.720234 59.71 0.720234 59.78C0.720234 59.88 0.720234 59.97 0.700234 60.05C0.690234 60.14 0.670234 60.21 0.640234 60.27H0.110234L0.0302344 60.44C0.0302344 60.53 0.0502344 60.62 0.0702344 60.71C0.0902344 60.8 0.130234 60.87 0.180234 60.91C0.410234 60.91 0.590234 60.81 0.740234 60.63C0.890234 60.45 0.960234 60.16 0.950234 59.78C0.950234 59.58 0.920234 59.42 0.870234 59.28C0.830234 59.15 0.770234 59.03 0.690234 58.95H0.700234ZM1.47023 61.69C1.49023 61.6 1.51023 61.51 1.53023 61.43L5.25023 61.34C5.28023 61.52 5.33023 61.69 5.41023 61.85H5.59023L5.55023 60.26H5.37023C5.34023 60.34 5.31023 60.42 5.29023 60.5C5.27023 60.59 5.25023 60.68 5.23023 60.77H5.09023L2.46023 58.97L1.98023 58.7L2.45023 58.75L5.17023 58.68C5.19023 58.77 5.21023 58.86 5.24023 58.94C5.27023 59.02 5.30023 59.09 5.33023 59.16H5.51023L5.47023 57.56H5.29023C5.23023 57.71 5.18023 57.89 5.15023 58.08L1.43023 58.17C1.41023 58.08 1.38023 57.99 1.35023 57.9C1.32023 57.81 1.29023 57.73 1.26023 57.66H1.08023L1.12023 59.26H1.30023C1.33023 59.18 1.35023 59.1 1.38023 59.02C1.40023 58.93 1.43023 58.84 1.45023 58.75H1.60023L4.20023 60.52L4.70023 60.81L4.23023 60.75L1.50023 60.82C1.48023 60.72 1.45023 60.64 1.42023 60.56C1.39023 60.49 1.36023 60.42 1.33023 60.35H1.15023L1.19023 61.94H1.37023C1.40023 61.85 1.43023 61.76 1.45023 61.67L1.47023 61.69ZM45.6702 6.01C45.5802 6.01 45.4802 5.99 45.3702 5.99C45.2702 5.99 45.1602 5.99 45.0502 6.01L44.7002 4.67C44.7002 4.67 44.7602 4.67 44.8002 4.66C44.8502 4.66 44.8902 4.64 44.9402 4.63C44.9902 4.62 45.0302 4.61 45.0802 4.6C45.1202 4.59 45.1502 4.58 45.1702 4.58C45.3802 4.52 45.5802 4.45 45.7602 4.34C45.9402 4.24 46.1002 4.11 46.2302 3.96C46.3602 3.81 46.4502 3.64 46.4902 3.44C46.5402 3.25 46.5302 3.03 46.4702 2.79C46.4002 2.54 46.3002 2.34 46.1702 2.2C46.0402 2.06 45.8802 1.95 45.7102 1.89C45.5402 1.83 45.3502 1.8 45.1502 1.81C44.9502 1.81 44.7502 1.85 44.5502 1.9C44.3802 1.94 44.1902 2 44.0102 2.07C43.8202 2.14 43.6502 2.19 43.4902 2.23L42.9402 2.37L42.9902 2.55C43.0802 2.56 43.1602 2.57 43.2502 2.58C43.3402 2.58 43.4302 2.58 43.5302 2.58L44.4802 6.18C44.4002 6.22 44.3202 6.26 44.2502 6.3C44.1702 6.34 44.1002 6.4 44.0302 6.46L44.0802 6.64L45.7502 6.2L45.7002 6.02L45.6702 6.01ZM44.0902 2.38C44.1402 2.35 44.2002 2.33 44.2602 2.31C44.3202 2.29 44.4002 2.27 44.5002 2.24C44.8302 2.15 45.1102 2.17 45.3502 2.28C45.5802 2.4 45.7402 2.62 45.8302 2.95C45.8802 3.13 45.8902 3.3 45.8702 3.44C45.8502 3.58 45.8002 3.71 45.7302 3.82C45.6602 3.93 45.5602 4.02 45.4502 4.09C45.3302 4.16 45.2102 4.22 45.0602 4.25C45.0402 4.25 45.0002 4.27 44.9602 4.28C44.9202 4.29 44.8802 4.3 44.8302 4.31C44.7802 4.32 44.7402 4.33 44.7102 4.33C44.6702 4.33 44.6402 4.34 44.6202 4.33L44.1002 2.36L44.0902 2.38ZM29.1002 13.48C29.0202 13.48 28.9402 13.51 28.8602 13.54C28.7802 13.57 28.7002 13.61 28.6302 13.64L24.9002 11.25L24.7502 11.36L25.9302 15.64C25.8302 15.76 25.7402 15.89 25.6602 16.03L25.7702 16.18L26.8902 15.35L26.7802 15.2C26.5902 15.25 26.4102 15.31 26.2602 15.4L25.9102 14.23L27.1102 13.34L28.1302 14.01C28.0702 14.07 28.0202 14.14 27.9602 14.21C27.9002 14.28 27.8502 14.36 27.8002 14.43L27.9102 14.58L29.2102 13.62L29.1002 13.47V13.48ZM25.8002 13.89L25.4002 12.54L25.2002 12H25.2102L25.6302 12.36L26.8202 13.14L25.8002 13.89ZM15.2402 95.82L18.1302 93.47C18.2602 93.59 18.4002 93.69 18.5702 93.77L18.7102 93.66L18.3302 93.19C18.2202 93.06 18.1102 92.92 18.0102 92.76C17.9002 92.61 17.8002 92.48 17.7102 92.36C17.5802 92.2 17.4302 92.05 17.2602 91.92C17.0902 91.79 16.9202 91.7 16.7402 91.64C16.5602 91.58 16.3702 91.56 16.1802 91.59C15.9902 91.62 15.8102 91.7 15.6302 91.84C15.4902 91.95 15.4002 92.07 15.3402 92.2C15.2802 92.33 15.2502 92.45 15.2402 92.58C15.2402 92.71 15.2502 92.84 15.2902 92.96C15.3302 93.09 15.3802 93.21 15.4402 93.32L15.4202 93.34C15.3002 93.25 15.1902 93.19 15.0602 93.15C14.9402 93.11 14.8202 93.1 14.7002 93.11C14.5802 93.11 14.4702 93.14 14.3702 93.18C14.2602 93.22 14.1702 93.28 14.0802 93.35C13.9102 93.49 13.8002 93.63 13.7502 93.79C13.7002 93.95 13.6902 94.1 13.7202 94.26C13.7502 94.42 13.8102 94.57 13.9002 94.72C13.9902 94.87 14.0902 95.01 14.1902 95.14C14.2602 95.23 14.3302 95.31 14.3902 95.38C14.4502 95.45 14.5102 95.51 14.5602 95.57C14.6102 95.63 14.6702 95.69 14.7102 95.74C14.7602 95.79 14.8102 95.85 14.8602 95.91L15.2802 96.43L15.4202 96.32C15.3902 96.23 15.3602 96.15 15.3302 96.06C15.2902 95.97 15.2602 95.89 15.2202 95.82H15.2402ZM15.7702 92.64C15.8202 92.52 15.9002 92.41 16.0302 92.3C16.1302 92.22 16.2502 92.16 16.3702 92.13C16.4902 92.1 16.6202 92.09 16.7402 92.12C16.8602 92.14 16.9802 92.19 17.1002 92.26C17.2202 92.33 17.3302 92.43 17.4202 92.55C17.5302 92.69 17.6102 92.79 17.6502 92.86C17.6902 92.93 17.7302 92.99 17.7502 93.05L16.4102 94.14L16.1102 93.77C16.0102 93.65 15.9302 93.52 15.8602 93.4C15.7902 93.27 15.7402 93.15 15.7202 93.02C15.7002 92.89 15.7202 92.77 15.7602 92.65L15.7702 92.64ZM14.8602 95.4C14.8602 95.4 14.7602 95.31 14.7002 95.24C14.6402 95.17 14.5702 95.09 14.4902 94.99C14.3202 94.78 14.2302 94.56 14.2302 94.35C14.2302 94.14 14.3402 93.94 14.5602 93.76C14.7202 93.63 14.8902 93.57 15.0802 93.57C15.2702 93.57 15.4602 93.63 15.6302 93.73C15.6802 93.77 15.7302 93.83 15.8002 93.9C15.8702 93.97 15.9202 94.04 15.9702 94.09L16.1702 94.33L14.8602 95.39V95.4ZM70.7102 104.66C70.6302 104.66 70.5602 104.68 70.4902 104.71C70.4202 104.74 70.3602 104.78 70.3102 104.83C70.2602 104.88 70.2002 104.96 70.1502 105.05L66.1402 112.57C66.0302 112.77 65.9302 112.98 65.8402 113.19C65.7502 113.41 65.6602 113.63 65.5702 113.86C65.4802 113.64 65.3902 113.42 65.3002 113.21C65.2102 112.99 65.1102 112.79 65.0002 112.59L60.9402 105.06C60.8902 104.97 60.8402 104.89 60.7802 104.84C60.7302 104.78 60.6702 104.74 60.6002 104.72C60.5302 104.7 60.4602 104.68 60.3802 104.67C60.3002 104.67 60.2002 104.67 60.0902 104.67H58.1802V118.24H60.4002V109.48C60.4002 109.31 60.4002 109.13 60.3802 108.93C60.3702 108.73 60.3502 108.53 60.3302 108.32L64.4802 116.04C64.6702 116.41 64.9702 116.59 65.3702 116.59H65.7302C66.1302 116.59 66.4302 116.41 66.6202 116.04L70.7202 108.34C70.7002 108.54 70.6902 108.74 70.6802 108.93C70.6802 109.12 70.6702 109.3 70.6702 109.47V118.23H72.8902V104.66H70.9802C70.8702 104.66 70.7702 104.66 70.6902 104.66H70.7102ZM53.5702 105.86C53.1402 105.48 52.5902 105.18 51.9302 104.97C51.2702 104.76 50.4802 104.65 49.5702 104.65H45.1602V118.22H47.6802V113.44H49.5702C50.4502 113.44 51.2202 113.33 51.8802 113.11C52.5402 112.89 53.0902 112.58 53.5302 112.19C53.9702 111.8 54.3002 111.32 54.5202 110.78C54.7402 110.23 54.8502 109.63 54.8502 108.97C54.8502 108.31 54.7502 107.76 54.5402 107.22C54.3302 106.69 54.0102 106.23 53.5802 105.85L53.5702 105.86ZM52.1502 110.01C52.0402 110.32 51.8702 110.58 51.6402 110.8C51.4102 111.02 51.1302 111.18 50.7802 111.3C50.4402 111.42 50.0302 111.47 49.5702 111.47H47.6802V106.6H49.5702C50.0402 106.6 50.4502 106.66 50.7902 106.76C51.1302 106.87 51.4202 107.03 51.6402 107.23C51.8602 107.44 52.0302 107.69 52.1502 107.98C52.2602 108.27 52.3202 108.6 52.3202 108.96C52.3202 109.34 52.2602 109.69 52.1502 110V110.01ZM34.4402 104.65L29.1002 118.22H31.0702C31.2802 118.22 31.4602 118.16 31.6002 118.04C31.7402 117.92 31.8402 117.79 31.8902 117.65L32.9002 114.88H38.5202L39.5302 117.65C39.6002 117.81 39.7002 117.95 39.8402 118.06C39.9802 118.17 40.1602 118.22 40.3702 118.22H42.3202L36.9902 104.65H34.4202H34.4402ZM33.5602 113.1L35.2102 108.6C35.2902 108.39 35.3702 108.15 35.4602 107.88C35.5402 107.61 35.6302 107.31 35.7202 106.99C35.8102 107.31 35.9002 107.6 35.9802 107.88C36.0602 108.16 36.1502 108.39 36.2302 108.59L37.8802 113.1H33.5502H33.5602ZM99.3002 104.83C99.1602 104.95 99.0602 105.08 98.9902 105.21L96.6902 110.18C96.5602 110.45 96.4402 110.73 96.3302 111C96.2202 111.27 96.1302 111.54 96.0502 111.82C95.8802 111.26 95.6502 110.71 95.3702 110.18L92.7302 105.21C92.6402 105.05 92.5302 104.91 92.4002 104.81C92.2702 104.7 92.0902 104.65 91.8702 104.65H89.5102L94.9502 114.18L94.4102 115.26C94.3002 115.48 94.1802 115.67 94.0402 115.8C93.9102 115.94 93.7702 116.04 93.6302 116.12C93.4902 116.2 93.3502 116.25 93.2002 116.27C93.0602 116.29 92.9102 116.31 92.7802 116.31H92.0502V117.89C92.0502 118.05 92.1502 118.17 92.3602 118.25C92.5702 118.33 92.9002 118.37 93.3502 118.37C93.6802 118.37 93.9902 118.34 94.2802 118.28C94.5702 118.22 94.8402 118.12 95.1002 117.97C95.3502 117.82 95.5902 117.61 95.8102 117.35C96.0302 117.09 96.2302 116.75 96.4302 116.35L101.91 104.67H99.8202C99.6102 104.67 99.4302 104.73 99.2902 104.85L99.3002 104.83ZM24.4302 111.21C24.8502 111.07 25.2102 110.89 25.5102 110.68C25.8102 110.47 26.0602 110.24 26.2602 109.99C26.4602 109.74 26.6002 109.47 26.7002 109.17C26.7902 108.88 26.8402 108.57 26.8402 108.25C26.8402 107.69 26.7502 107.19 26.5602 106.75C26.3702 106.31 26.0802 105.93 25.6702 105.61C25.2702 105.3 24.7502 105.06 24.1202 104.89C23.4902 104.72 22.7302 104.64 21.8402 104.64H17.1702V118.21H22.2902C23.0802 118.21 23.7802 118.11 24.3902 117.91C25.0002 117.71 25.5202 117.43 25.9402 117.08C26.3602 116.73 26.6802 116.31 26.9002 115.82C27.1202 115.33 27.2302 114.8 27.2302 114.23C27.2302 112.63 26.3002 111.63 24.4302 111.21ZM19.6902 106.6H21.8402C22.6902 106.6 23.3202 106.75 23.7202 107.05C24.1202 107.35 24.3202 107.85 24.3202 108.56C24.3202 109.27 24.1002 109.74 23.6602 110.05C23.2202 110.36 22.5702 110.52 21.7002 110.52H19.6902V106.6ZM24.6002 114.97C24.5202 115.22 24.3802 115.44 24.1902 115.63C24.0002 115.82 23.7402 115.97 23.4302 116.08C23.1102 116.19 22.7202 116.25 22.2502 116.25H19.7002V112.27H22.2402C22.6802 112.27 23.0602 112.31 23.3802 112.4C23.7002 112.49 23.9502 112.61 24.1502 112.78C24.3502 112.95 24.5002 113.15 24.5902 113.38C24.6802 113.61 24.7302 113.88 24.7302 114.17C24.7302 114.45 24.6902 114.72 24.6002 114.97ZM86.6402 115.02C86.5702 115.02 86.4902 115.04 86.4202 115.07C86.3502 115.1 86.2902 115.15 86.2202 115.21C86.0102 115.4 85.8102 115.56 85.6002 115.68C85.3902 115.8 85.1702 115.91 84.9302 115.99C84.6902 116.07 84.4402 116.13 84.1602 116.17C83.8802 116.21 83.5702 116.23 83.2302 116.23C82.6502 116.23 82.1202 116.12 81.6202 115.91C81.1202 115.69 80.6802 115.38 80.3202 114.98C79.9502 114.57 79.6602 114.07 79.4402 113.48C79.2202 112.89 79.1202 112.21 79.1202 111.44C79.1202 110.67 79.2202 110.01 79.4202 109.42C79.6202 108.83 79.9002 108.33 80.2702 107.92C80.6402 107.51 81.0702 107.2 81.5702 106.98C82.0702 106.76 82.6302 106.66 83.2402 106.66C83.6002 106.66 83.9102 106.69 84.1802 106.74C84.4502 106.79 84.6902 106.86 84.9002 106.94C85.1102 107.02 85.2902 107.1 85.4402 107.2C85.6002 107.29 85.7302 107.38 85.8502 107.46C85.9702 107.54 86.0802 107.6 86.1802 107.66C86.2802 107.71 86.3802 107.74 86.4702 107.74C86.6102 107.74 86.7202 107.71 86.7902 107.66C86.8702 107.6 86.9302 107.54 86.9802 107.46L87.8302 106.29C87.2902 105.77 86.6402 105.34 85.8702 105.01C85.1002 104.68 84.2302 104.52 83.2402 104.52C82.2502 104.52 81.3402 104.69 80.5202 105.03C79.7002 105.37 79.0002 105.85 78.4002 106.46C77.8102 107.07 77.3502 107.8 77.0202 108.65C76.6902 109.5 76.5302 110.43 76.5302 111.45C76.5302 112.47 76.6802 113.39 76.9802 114.24C77.2802 115.09 77.7202 115.82 78.2902 116.44C78.8602 117.06 79.5502 117.53 80.3502 117.88C81.1502 118.22 82.0602 118.4 83.0702 118.4C84.2002 118.4 85.1602 118.22 85.9702 117.86C86.7702 117.5 87.4502 116.97 88.0002 116.29L87.0102 115.21C86.9002 115.1 86.7802 115.05 86.6402 115.05V115.02Z" fill="white"/>
</g>
<defs>
<clipPath id="clip0_884_8883">
<rect width="117.73" height="118.36" fill="white"/>
</clipPath>
</defs>
</svg>
