<svg width="126" height="91" viewBox="0 0 126 91" fill="none" xmlns="http://www.w3.org/2000/svg">
<g id="Logo" clip-path="url(#clip0_318_14)">
<path id="Vector" d="M51.3648 35.2287C60.1312 33.7896 68.9677 32.8655 77.4747 29.5535C86.0273 26.2239 93.9385 21.5081 100.269 13.3746C103.283 9.50177 105.744 5.1634 107.139 -0.00384521C101.541 12.4998 94.5308 17.9493 80.2298 23.2576C71.4914 26.499 62.4867 27.3738 53.5099 28.6118C42.311 30.1567 31.2031 32.2906 20.5614 37.158C2.57645 44.2617 -12.9935 70.4788 16.4744 90.6999C5.49625 82.8732 -14.9494 41.7927 51.3648 35.2251M126.004 88.8129V90.6999H116.207V77.7765H125.247V79.6811H118.086V83.5962C118.86 83.1448 119.67 83.0954 120.515 83.0954H123.322V85.0177H120.515C119.687 85.0177 118.86 85.1058 118.086 85.5185V88.8093H126.004V88.8129ZM111.422 77.7765L103.865 87.7371V77.7765H102.007V90.6999H103.865L111.422 80.7393V90.6999H113.28V77.7765H111.422ZM87.7834 90.6999V77.7765H89.6411V83.0777C90.1564 82.8167 90.7242 82.7321 91.278 82.7321C92.0352 82.7321 94.2925 83.113 95.4632 83.113C95.996 83.113 96.6515 83.0248 97.2018 82.785V77.7765H99.077V90.6999H97.2018V84.6896C96.6515 84.933 95.996 85.0177 95.4632 85.0177C94.2925 85.0177 92.0387 84.6367 91.278 84.6367C90.7277 84.6367 90.1599 84.7249 89.6411 84.9824V90.6999H87.7834ZM77.7131 88.8129V85.522C78.4877 85.1058 79.3149 85.0212 80.1422 85.0212H82.9498V83.0989H80.1422C79.2974 83.0989 78.4877 83.1518 77.7131 83.5998V79.6846H84.8741V77.78H75.8343V90.7034H85.6312V88.8164H77.7131V88.8129ZM65.3504 77.7765V83.0954C66.0549 83.0777 66.7805 82.9578 67.45 82.5945L70.7028 77.78H72.9566L68.7399 83.8608L71.0463 87.342C71.9085 88.64 72.578 88.7987 73.1634 88.7987C73.3001 88.7987 73.4403 88.7811 73.577 88.7811L73.5945 90.7034C72.0978 90.7034 70.9937 90.9115 69.5846 88.6577L67.124 84.6896C66.5386 84.933 65.9533 85.0177 65.3504 85.0177V90.6999H63.4751V85.0177C62.8722 85.0177 62.2869 84.9295 61.719 84.6896L59.2409 88.6577C57.8283 90.8939 56.6576 90.7034 55.245 90.7034L55.2625 88.7811C55.3817 88.7811 55.5219 88.7987 55.6761 88.7987C56.244 88.7987 56.917 88.6612 57.7932 87.342L60.0996 83.8608L55.8829 77.78H58.1368L61.372 82.5945C62.045 82.9578 62.7495 83.0813 63.4716 83.0954V77.7765H65.3469H65.3504ZM44.5367 77.7765H42.4862C43.5693 82.8167 45.6724 86.0582 48.1505 88.3261C47.8736 88.827 47.3934 89.0351 46.7906 89.0351C45.8792 89.0351 45.4305 88.8446 44.8802 88.3931L44.1582 90.0403C44.6244 90.5094 45.9318 90.8727 46.7941 90.8727C48.0174 90.8727 49.1355 90.5094 50.1695 89.0033C52.4584 85.6243 53.871 81.6422 54.8875 77.7765H52.7353C51.9957 80.704 50.6848 84.4992 49.2582 86.9223C47.3654 84.6685 45.5567 82.3476 44.5402 77.7765M38.8934 79.6811H35.192C34.866 83.0425 34.0913 87.0105 32.0233 89.4865C31.0944 90.5941 29.801 90.6999 29.114 90.6999H28.7705V88.8129H29.114C29.6994 88.8129 30.4039 88.6929 31.3538 87.1657C32.7313 84.9471 33.1099 82.3335 33.3868 79.6811H31.9076L31.0979 77.7765H40.7722V90.6999H38.8969V79.6811H38.8934ZM26.755 80.8592L27.9608 79.4377C26.7025 78.1715 24.9464 77.392 23.0185 77.392C19.3346 77.392 16.0959 80.2349 16.0959 84.0442C16.0959 87.8535 19.1103 90.9926 23.001 90.9926C25.0656 90.9926 26.9619 90.1073 28.2518 88.6541L27.0986 87.0775C26.1697 88.3261 24.687 89.1056 23.0185 89.1056C20.3336 89.1056 17.9396 87.0599 17.9396 84.2734C17.9396 81.487 20.1443 79.3002 23.001 79.3002C24.4662 79.3002 25.8262 79.8892 26.755 80.8592Z" fill="#D2A35F"/>
<path id="Vector_2" d="M104.44 33.3984C75.1894 42.5866 78.1302 38.6926 44.5473 41.8071C36.3698 42.8511 28.2273 45.3025 21.1574 49.9406C19.4153 51.0834 17.8976 52.5719 15.8716 54.2296C27.3685 46.1701 39.9065 45.5458 51.2036 45.3906C73.7979 45.3906 91.7513 45.701 110.532 33.6347C116.974 29.9806 121.447 24.9015 125.706 18.006C120.693 24.9897 114.966 29.6632 104.443 33.4019" fill="white"/>
<path id="Vector_3" d="M104.44 33.3984C75.1894 42.5866 78.1302 38.6926 44.5473 41.8071C36.3698 42.8511 28.2273 45.3025 21.1574 49.9406C19.4153 51.0834 17.8976 52.5719 15.8716 54.2296C27.3685 46.1701 39.9065 45.5458 51.2036 45.3906C73.7979 45.3906 91.7513 45.701 110.532 33.6347C116.974 29.9806 121.447 24.9015 125.706 18.006C120.693 24.9897 114.966 29.6632 104.443 33.4019L104.44 33.3984Z" stroke="#D2A35F" stroke-width="0.25" stroke-miterlimit="10"/>
<path id="Vector_4" d="M21.1465 55.8027C25.5244 52.9246 37.5261 48.8578 56.6993 51.3903C80.2505 54.995 89.0239 53.2597 102.438 46.3959C95.1579 53.2561 86.6649 57.3124 71.5928 57.3124C51.2628 56.4094 37.9888 48.7097 21.1465 55.8027Z" fill="#153C88"/>
<path id="Vector_5" d="M57.4076 59.3263C41.3715 54.5541 33.2781 56.3953 21.5498 59.4851C47.3127 55.9932 47.9857 61.4391 75.9464 69.2129C92.014 72.7118 97.4786 72.1722 110.742 67.34C85.6662 70.8777 68.207 62.007 57.4076 59.3263Z" fill="#E42313"/>
</g>
<defs>
<clipPath id="clip0_318_14">
<rect width="126" height="91" fill="white"/>
</clipPath>
</defs>
</svg>
