<svg width="150" height="55" viewBox="0 0 150 55" fill="none" xmlns="http://www.w3.org/2000/svg">
<g id="Layer_1" clip-path="url(#clip0_884_22152)">
<path id="Vector" d="M13.709 0.0896983C13.709 0.0896983 13.709 0.0298994 13.709 0H54.7629C54.7629 0.164447 54.7629 0.313944 54.7629 0.478391C54.7629 13.9331 54.7629 27.4028 54.7629 40.8576C54.7629 41.022 54.8522 41.2313 54.6736 41.3659C54.7182 41.2164 54.7033 41.0519 54.7033 40.9024V0.583039C54.7033 0.433542 54.7182 0.298994 54.6736 0.149497C54.5247 0.0149497 54.361 0.0747486 54.1972 0.0747486C41.634 0.0747486 29.0856 0.0747486 16.5223 0.0747486C15.5845 0.0747486 14.6468 0.0747486 13.709 0.0747486" fill="#EDFBF7"/>
<path id="Vector_2" d="M0.0893123 54.9701C0.0893123 54.9701 0.0297708 54.9701 0 54.9701V27.5224C0 27.5224 0.104198 27.5224 0.163739 27.5224C0.0595415 27.6719 0.0893123 27.8513 0.0893123 28.0157V38.1068C0.0893123 43.7279 0.0893123 49.334 0.0893123 54.9551" fill="#98E9D0"/>
<path id="Vector_3" d="M54.6738 0.164459C54.7185 0.299007 54.7036 0.448504 54.7036 0.598001C54.7036 14.0378 54.7036 27.4776 54.7036 40.9024C54.7036 41.0669 54.7036 41.2164 54.6738 41.3659C54.3017 41.7247 53.9147 42.0835 53.5574 42.4572C50.5357 45.477 47.4991 48.4969 44.4773 51.5167C43.4205 52.5632 42.3636 53.6246 41.3067 54.6711C41.2323 54.7459 41.1728 54.8655 40.9941 54.8655V14.3966C40.9941 14.2172 40.9941 14.0378 40.9941 13.8434C41.0983 13.7537 41.2025 13.6491 41.3067 13.5594C45.1472 9.70238 48.9876 5.8603 52.828 2.00327C53.4532 1.37539 54.0784 0.777398 54.7036 0.164459" fill="#0092DA"/>
<path id="Vector_4" d="M54.6743 0.16445C54.0491 0.777388 53.424 1.39033 52.7988 2.00326C48.9584 5.86029 45.1179 9.70237 41.2775 13.5594C41.1733 13.664 41.0691 13.7537 40.9649 13.8434H0.164062C0.223604 13.679 0.312916 13.6192 0.387343 13.5295C1.20604 12.7073 2.02474 11.885 2.84343 11.0478C2.94763 10.9432 3.0816 10.8385 3.15602 10.689C3.5877 10.2555 4.03426 9.83692 4.46594 9.40337C7.51744 6.35363 10.5392 3.28894 13.5758 0.224249C13.6205 0.1794 13.6651 0.134551 13.7098 0.0747518C14.6475 0.0747518 15.5853 0.0747518 16.5231 0.0747518C29.0864 0.0897016 41.6496 0.0897015 54.198 0.0897015C54.3617 0.0897015 54.5404 0.014953 54.6743 0.16445Z" fill="#32D3A2"/>
<path id="Vector_5" d="M0.0888976 54.9701C0.0888976 49.349 0.0888976 43.7428 0.0888976 38.1217V28.0307C0.0888976 27.8662 0.0591268 27.6868 0.163324 27.5374C0.297293 27.5374 0.431261 27.5374 0.550344 27.5374C9.36249 27.5374 18.1746 27.5374 26.9868 27.5374C27.1356 27.5374 27.2994 27.4776 27.4333 27.5971C27.3291 27.6868 27.2101 27.7915 27.1208 27.8812C18.2193 36.8062 9.33272 45.7312 0.446147 54.6561C0.341949 54.7608 0.252637 54.8654 0.163324 54.9701H0.133554H0.103783H0.0888976Z" fill="#32D3A2"/>
<path id="Vector_6" d="M0.148438 54.9701C0.252635 54.8655 0.341947 54.7608 0.446145 54.6562C9.33272 45.7312 18.2193 36.8211 27.1059 27.8962C27.2101 27.7915 27.3143 27.7018 27.4185 27.6121C27.4185 27.7616 27.4482 27.9261 27.4482 28.0756V54.6263C27.4482 55.0448 27.478 55.0149 27.0612 55.0149H0.62477C0.475916 55.0149 0.312177 55 0.163323 54.985" fill="#0092DA"/>
<path id="Vector_7" d="M68.2646 8.55122V3.75236C68.2646 3.66266 68.2646 3.57297 68.2646 3.48327C68.2646 3.31882 68.3242 3.24407 68.4879 3.24407C68.994 3.24407 69.5001 3.24407 70.0062 3.24407C70.17 3.24407 70.2146 3.31882 70.1997 3.45337C70.1997 3.54307 70.1997 3.63277 70.1997 3.72246C70.1997 6.42836 70.1997 9.14921 70.1997 11.8551C70.1997 12.2886 70.1997 12.2886 70.6165 12.2886C71.6734 12.2886 72.7303 12.2886 73.7871 12.2886C74.3081 12.2886 74.2635 12.3185 74.2635 11.8402C74.2635 9.19406 74.2635 6.54796 74.2635 3.90186C74.2635 3.82711 74.2635 3.73741 74.2635 3.66267C74.2635 3.21417 74.2188 3.22912 74.6802 3.22912C75.097 3.22912 75.5138 3.22912 75.9306 3.22912C76.1986 3.22912 76.1986 3.22912 76.2134 3.52812C76.2134 4.03641 76.2134 4.5447 76.2134 5.05299V11.8701C76.2134 12.3185 76.1688 12.3036 76.6302 12.3036C76.794 12.3036 76.9428 12.3036 77.1066 12.3036C77.2703 12.3036 77.3298 12.3783 77.3298 12.5428C77.3298 13.6491 77.3298 14.7703 77.3298 15.8766C77.3298 16.0261 77.3001 16.1158 77.1215 16.1158C76.66 16.1158 76.2134 16.1158 75.752 16.1158C75.5734 16.1158 75.5436 16.0261 75.5436 15.8766C75.5436 15.3533 75.5436 14.8301 75.5436 14.3069C75.5436 14.2172 75.5436 14.1275 75.5436 14.0378C75.5436 13.9182 75.4989 13.8733 75.3799 13.8733C75.2757 13.8733 75.1715 13.8733 75.0673 13.8733H68.6517C68.2795 13.8733 68.2795 13.8733 68.2795 13.5145C68.2795 12.6474 68.2795 11.7804 68.2795 10.9133V8.55122H68.2646Z" fill="#0092DA"/>
<path id="Vector_8" d="M126.675 41.0519C126.303 41.0519 125.916 41.0519 125.543 41.0519C125.38 41.0519 125.29 40.9921 125.305 40.8276C125.305 40.7529 125.305 40.6632 125.305 40.5884C125.305 38.2563 125.305 35.9241 125.305 33.592C125.305 33.5471 125.305 33.5172 125.305 33.4724C125.305 33.1285 125.305 33.1285 125.648 33.1285C126.213 33.1285 126.764 33.1285 127.33 33.1285C127.672 33.1285 127.687 33.1285 127.806 33.4425C128.297 34.7282 128.788 36.0138 129.28 37.2995C129.429 37.6733 129.563 38.047 129.711 38.4357C129.86 38.346 129.86 38.1965 129.905 38.0769C130.471 36.5371 131.021 34.9973 131.572 33.4724C131.691 33.1435 131.691 33.1435 132.034 33.1435C132.629 33.1435 133.209 33.1435 133.79 33.1435C133.969 33.1435 134.043 33.2033 134.043 33.3976C134.043 33.891 134.043 34.3993 134.043 34.8926V40.5884C134.043 40.6781 134.043 40.7678 134.043 40.8575C134.043 41.007 133.984 41.0668 133.835 41.0668C133.403 41.0668 132.971 41.0668 132.54 41.0668C132.406 41.0668 132.346 41.007 132.346 40.8725C132.346 40.7977 132.346 40.708 132.346 40.6333V34.8777C132.242 34.9674 132.212 35.1318 132.167 35.2663C131.513 37.0753 130.872 38.8842 130.217 40.6931C130.188 40.7678 130.158 40.8426 130.143 40.9173C130.113 41.022 130.039 41.0668 129.935 41.0668C129.89 41.0668 129.86 41.0668 129.816 41.0668C129.349 41.0768 129.032 40.8625 128.863 40.424C128.193 38.645 127.523 36.8809 126.839 35.1019C126.839 34.9973 126.794 34.9225 126.734 34.8328C126.66 34.9225 126.69 34.9823 126.69 35.0421C126.749 36.9108 126.69 38.7795 126.719 40.6482C126.719 40.7977 126.734 40.9323 126.675 41.0668" fill="#0092DA"/>
<path id="Vector_9" d="M68.2643 35.7298V30.9309C68.2643 30.8412 68.2643 30.7516 68.2643 30.6619C68.2494 30.4675 68.3387 30.4077 68.5173 30.4227C68.562 30.4227 68.5918 30.4227 68.6364 30.4227H72.3578C72.9234 30.4227 73.4742 30.4825 74.0101 30.6768C75.186 31.0954 75.9303 32.0671 76.0196 33.2781C76.1535 35.0421 75.1562 36.7464 72.7597 36.8809C72.0452 36.9108 71.3307 36.8809 70.6013 36.8809C70.2143 36.8809 70.2143 36.8809 70.2143 37.2547C70.2143 38.3909 70.2143 39.527 70.2143 40.6782C70.2143 41.037 70.2143 41.037 69.857 41.037C69.4402 41.037 69.0234 41.037 68.6067 41.037C68.2792 41.037 68.2792 41.037 68.2792 40.723C68.2792 39.9905 68.2792 39.2579 68.2792 38.5254V35.7298H68.2643ZM70.2143 33.6518C70.2143 34.1302 70.2143 34.5936 70.2143 35.0571C70.2143 35.2365 70.2589 35.3262 70.4524 35.3112C71.1223 35.3112 71.807 35.3112 72.4769 35.2963C73.623 35.2365 74.3375 34.1601 73.9952 33.0688C73.7719 32.3661 73.236 32.0671 72.5513 31.9924C71.8517 31.9176 71.1521 31.9774 70.4376 31.9625C70.2292 31.9625 70.1994 32.0671 70.2143 32.2316C70.2143 32.695 70.2143 33.1734 70.2143 33.6368" fill="#0092DA"/>
<path id="Vector_10" d="M103.364 7.20577C103.498 7.14597 103.513 7.07122 103.558 6.99647C104.54 5.5613 106.58 5.39686 107.77 6.66758C108.217 7.13102 108.5 7.68416 108.649 8.31205C108.902 9.41833 108.902 10.5246 108.589 11.6159C108.396 12.3036 108.053 12.9315 107.488 13.38C106.594 14.0826 105.627 14.1873 104.585 13.7836C104.243 13.6491 103.989 13.4249 103.766 13.1259C103.692 13.0362 103.662 12.9166 103.513 12.8269V13.1558C103.513 14.1424 103.513 15.1291 103.513 16.1009C103.513 16.3998 103.513 16.3998 103.215 16.3998C102.814 16.3998 102.412 16.3998 101.995 16.3998C101.727 16.3998 101.727 16.3998 101.712 16.1009C101.712 16.0411 101.712 15.9962 101.712 15.9364C101.712 12.7521 101.712 9.56783 101.712 6.38354C101.712 5.8902 101.667 5.94999 102.159 5.94999C102.486 5.94999 102.814 5.94999 103.141 5.94999C103.335 5.94999 103.394 6.02474 103.394 6.20414C103.394 6.51808 103.394 6.83203 103.394 7.17587M103.528 9.91167C103.528 10.2705 103.528 10.6143 103.528 10.9731C103.558 11.4963 103.751 11.9598 104.153 12.3186C104.778 12.8867 105.731 12.8119 106.267 12.1541C106.49 11.8701 106.654 11.5561 106.743 11.2123C106.937 10.4648 106.937 9.71732 106.833 8.95489C106.773 8.49145 106.639 8.0579 106.356 7.68416C106.103 7.34032 105.761 7.14597 105.329 7.11607C104.481 7.05627 103.841 7.51971 103.617 8.34195C103.468 8.85024 103.543 9.38843 103.528 9.89672" fill="#0092DA"/>
<path id="Vector_11" d="M87.0649 26.4161C86.9904 26.5806 87.0202 26.7151 87.0202 26.8497C87.0202 27.7915 87.0202 28.7333 87.0202 29.6752C87.0202 29.9742 87.0202 29.9742 86.7225 29.9742C86.3057 29.9742 85.8889 29.9742 85.4721 29.9742C85.3084 29.9742 85.2191 29.9293 85.2488 29.7499C85.2488 29.6752 85.2488 29.5855 85.2488 29.5107V20.0027C85.2488 20.0027 85.2488 19.8682 85.2488 19.8084C85.234 19.629 85.2935 19.5393 85.487 19.5542C85.874 19.5542 86.2759 19.5542 86.6629 19.5542C86.8713 19.5542 86.9309 19.6439 86.916 19.8383C86.916 20.1373 86.916 20.4512 86.916 20.7801C87.05 20.7203 87.0797 20.6306 87.1244 20.5558C88.0919 19.0908 90.161 19.0908 91.2328 20.1522C91.8579 20.7801 92.1854 21.5575 92.3045 22.4246C92.4236 23.3215 92.4087 24.2335 92.1557 25.1155C91.977 25.7434 91.6942 26.3115 91.2328 26.7749C90.4141 27.5972 89.1786 27.8364 88.1217 27.3729C87.7942 27.2234 87.5114 27.0141 87.303 26.7301C87.2435 26.6404 87.1691 26.5507 87.0797 26.4161M87.05 23.5159C87.05 23.9046 87.05 24.2933 87.05 24.6969C87.0649 25.1155 87.2435 25.4743 87.5263 25.7882C88.1664 26.5058 89.2679 26.461 89.8335 25.6836C90.0419 25.3996 90.1908 25.0707 90.2652 24.7268C90.4587 23.8747 90.4438 23.0076 90.2652 22.1555C90.1908 21.8266 90.0419 21.5126 89.8335 21.2435C89.4763 20.81 88.9999 20.6306 88.4492 20.7203C87.6603 20.8548 87.1691 21.408 87.0649 22.2601C87.0202 22.6787 87.05 23.0973 87.0649 23.5159" fill="#0092DA"/>
<path id="Vector_12" d="M107.413 23.2767C107.622 23.3514 107.845 23.3963 108.038 23.486C108.961 23.8896 109.304 24.7119 109.095 25.7583C108.917 26.6404 108.321 27.1487 107.458 27.358C107.175 27.4178 106.892 27.4477 106.609 27.4477C105.24 27.4477 103.87 27.4477 102.501 27.4477C102.144 27.4477 102.129 27.4477 102.129 27.0889C102.129 24.6969 102.129 22.29 102.129 19.898C102.129 19.5692 102.129 19.5692 102.412 19.5692C103.796 19.5692 105.18 19.5692 106.565 19.5692C106.877 19.5692 107.19 19.629 107.488 19.7186C108.262 19.9728 108.708 20.5708 108.753 21.3781C108.783 22.1854 108.381 22.8132 107.622 23.1272C107.562 23.1571 107.503 23.172 107.443 23.2019C107.398 23.2019 107.324 23.2019 107.324 23.2318C107.324 23.2767 107.383 23.2767 107.443 23.2617M105.151 26.2666C105.508 26.2517 105.865 26.2666 106.207 26.2367C106.773 26.1919 107.16 25.8032 107.205 25.265C107.264 24.667 107.011 24.2335 106.461 24.0391C106.282 23.9793 106.103 23.9494 105.925 23.9494C105.344 23.9494 104.779 23.9494 104.198 23.9494C104.004 23.9494 103.915 23.9943 103.915 24.2185C103.915 24.8165 103.915 25.4294 103.915 26.0274C103.915 26.2517 104.004 26.2965 104.198 26.2816C104.511 26.2816 104.823 26.2816 105.136 26.2816M105.046 20.6904C104.719 20.6904 104.436 20.6904 104.168 20.6904C103.99 20.6904 103.915 20.7502 103.915 20.9296C103.915 21.4678 103.915 22.006 103.915 22.5441C103.915 22.7235 103.975 22.7983 104.168 22.7983C104.704 22.7983 105.24 22.7983 105.776 22.7983C105.999 22.7983 106.222 22.7385 106.401 22.6189C106.758 22.3797 106.952 21.9312 106.862 21.4827C106.788 21.0791 106.49 20.81 106.014 20.7203C105.672 20.6605 105.329 20.7203 105.061 20.6904" fill="#0092DA"/>
<path id="Vector_13" d="M100.536 27.4477C99.9556 27.4477 99.4197 27.4477 98.8987 27.4477C98.7648 27.4477 98.7201 27.3729 98.7052 27.2533C98.6605 26.9244 98.601 26.5955 98.5564 26.2517C98.467 26.2517 98.4522 26.3265 98.4075 26.3713C97.9461 27.059 97.306 27.4327 96.5022 27.5523C95.8919 27.642 95.2816 27.5972 94.6862 27.3879C93.793 27.059 93.2869 26.4012 93.1827 25.4594C93.0785 24.5175 93.4358 23.7701 94.2247 23.2468C94.7457 22.903 95.3411 22.7385 95.9514 22.6339C96.6957 22.4993 97.4548 22.4694 98.214 22.4694C98.5712 22.4694 98.5712 22.4694 98.5564 22.0957C98.5564 22.0658 98.5564 22.0359 98.5564 22.0209C98.4968 21.0941 98.1247 20.7203 97.1869 20.6456C96.8892 20.6306 96.5915 20.6456 96.2938 20.6904C95.7579 20.7801 95.356 21.0941 95.1774 21.6173C95.1178 21.7967 95.0285 21.8565 94.835 21.8266C94.448 21.7668 94.061 21.7219 93.6739 21.6771C93.4209 21.6472 93.406 21.6173 93.4804 21.3781C93.7633 20.5409 94.314 19.9728 95.1327 19.6589C95.4453 19.5393 95.7579 19.4795 96.0854 19.4496C96.7403 19.3898 97.4102 19.3748 98.08 19.4645C99.7918 19.7187 100.328 20.7203 100.357 22.1555C100.372 23.0674 100.357 23.9943 100.357 24.9062C100.357 25.7434 100.357 26.5806 100.536 27.4477ZM96.5617 26.2966C97.2167 26.2667 97.7972 25.9976 98.1693 25.3996C98.4075 25.0109 98.5266 24.5773 98.5564 24.1288C98.601 23.6056 98.5861 23.6056 98.08 23.6206C97.4697 23.6505 96.8445 23.6355 96.2491 23.8149C95.9216 23.9196 95.6239 24.069 95.4006 24.3381C94.835 25.0408 95.0881 25.9079 95.9365 26.1919C96.13 26.2517 96.3235 26.2667 96.5468 26.2816" fill="#0092DA"/>
<path id="Vector_14" d="M96.5909 36.0587C95.6234 37.4191 94.7154 38.7048 93.7925 39.9905C93.6287 40.2147 93.5245 40.4539 93.5394 40.7529C93.5543 41.0519 93.5394 41.0519 93.2417 41.0519C92.8398 41.0519 92.4379 41.0519 92.0211 41.0519C91.7532 41.0519 91.7383 41.0519 91.7383 40.7678C91.7383 40.0204 91.7383 39.2729 91.7383 38.5254V33.6069C91.7383 33.5172 91.7383 33.4275 91.7383 33.3378C91.7383 33.2182 91.7829 33.1435 91.9169 33.1435C92.3932 33.1435 92.8845 33.1435 93.3608 33.1435C93.5096 33.1435 93.5394 33.2182 93.5394 33.3378C93.5394 33.4873 93.5394 33.6219 93.5394 33.7714V38.0171C93.6585 38.0171 93.6585 37.8975 93.7032 37.8377C94.3432 36.9108 94.9982 35.9989 95.6382 35.072C95.8615 34.7581 96.0848 34.4292 96.323 34.1152C96.4867 33.891 96.576 33.6667 96.5463 33.3827C96.5314 33.2033 96.6058 33.1285 96.7844 33.1285C97.231 33.1285 97.6776 33.1285 98.1092 33.1285C98.273 33.1285 98.3474 33.1883 98.3474 33.3528C98.3474 33.4275 98.3474 33.5172 98.3474 33.592V40.5884C98.3474 40.5884 98.3474 40.6931 98.3474 40.7379C98.3474 41.0369 98.3474 41.0369 98.0348 41.0369C97.6478 41.0369 97.2459 41.0369 96.8589 41.0369C96.5463 41.0369 96.5314 41.0369 96.5314 40.708C96.5314 39.228 96.4867 37.748 96.5611 36.268C96.5611 36.2231 96.5611 36.1633 96.5611 36.0437" fill="#0092DA"/>
<path id="Vector_15" d="M143.302 27.4477C143.912 26.3563 144.493 25.3398 145.058 24.3232C145.028 24.1886 144.909 24.1886 144.835 24.1587C143.763 23.6504 143.332 22.7385 143.495 21.5874C143.659 20.3914 144.493 19.6738 145.788 19.5991C146.443 19.5542 147.098 19.5692 147.738 19.5692C148.363 19.5692 148.988 19.5692 149.613 19.5692C149.985 19.5692 149.985 19.5692 149.985 19.928C149.985 22.3199 149.985 24.7268 149.985 27.1188C149.985 27.4626 149.985 27.4626 149.628 27.4626C149.241 27.4626 148.839 27.4626 148.452 27.4626C148.169 27.4626 148.169 27.4626 148.169 27.1786C148.169 26.4161 148.169 25.6537 148.169 24.9062C148.169 24.5474 148.169 24.5474 147.812 24.5474C147.574 24.5474 147.336 24.5624 147.112 24.5474C146.874 24.5325 146.77 24.6371 146.666 24.8315C146.264 25.6238 145.847 26.4161 145.46 27.2085C145.356 27.4028 145.252 27.4925 145.014 27.4925C144.463 27.4776 143.927 27.4925 143.302 27.4925M148.199 22.0658C148.199 21.7518 148.199 21.4379 148.199 21.1239C148.199 20.9894 148.169 20.8997 148.006 20.8997C147.44 20.9146 146.889 20.8548 146.323 20.9595C145.743 21.0641 145.386 21.4827 145.356 22.0658C145.326 22.589 145.669 23.0225 146.219 23.172C146.353 23.2019 146.502 23.2318 146.636 23.2318C147.068 23.2318 147.499 23.2318 147.916 23.2318C148.14 23.2318 148.184 23.1421 148.184 22.9478C148.184 22.6488 148.184 22.3498 148.184 22.0508" fill="#0092DA"/>
<path id="Vector_16" d="M137.273 24.4577C138.226 23.1122 139.119 21.8266 140.042 20.5259C140.191 20.3017 140.325 20.0924 140.28 19.8083C140.25 19.6289 140.325 19.5542 140.518 19.5542C140.965 19.5542 141.411 19.5542 141.843 19.5542C142.022 19.5542 142.066 19.6289 142.066 19.7934C142.066 19.8831 142.066 19.9728 142.066 20.0625V26.9394C142.066 26.9394 142.066 27.044 142.066 27.1038C142.066 27.4476 142.066 27.4476 141.724 27.4476C141.322 27.4476 140.92 27.4476 140.503 27.4476C140.34 27.4476 140.265 27.3878 140.28 27.2234C140.28 27.1337 140.28 27.044 140.28 26.9543C140.295 25.5191 140.235 24.069 140.31 22.6338C140.31 22.6189 140.31 22.589 140.28 22.5292C140.161 22.7086 140.042 22.8581 139.938 23.0076C139.149 24.1288 138.345 25.25 137.541 26.3713C137.363 26.6254 137.214 26.8646 137.258 27.1935C137.288 27.3879 137.199 27.4626 137.005 27.4626C136.574 27.4626 136.142 27.4626 135.71 27.4626C135.532 27.4626 135.457 27.4028 135.457 27.2234C135.457 26.76 135.457 26.3115 135.457 25.848V20.1073C135.457 20.0176 135.457 19.9279 135.457 19.8382C135.442 19.6588 135.502 19.5841 135.695 19.5841C136.142 19.5841 136.589 19.5841 137.02 19.5841C137.229 19.5841 137.258 19.6738 137.258 19.8532C137.258 20.6605 137.258 21.4528 137.258 22.2451V24.4876" fill="#0092DA"/>
<path id="Vector_17" d="M85.3974 11.586C85.442 11.7505 85.3527 11.885 85.2932 12.0046C84.921 12.8269 84.2959 13.4099 83.4623 13.7388C82.2863 14.1723 81.1402 14.1275 80.0089 13.5743C79.2646 13.2006 78.7287 12.6325 78.4161 11.8551C77.9249 10.6442 77.8951 9.43327 78.3566 8.20739C78.9818 6.54798 80.5596 5.57625 82.4203 5.86029C84.0875 6.11444 85.1443 7.16092 85.4718 8.85023C85.5462 9.25388 85.576 9.65752 85.576 10.0612C85.576 10.2107 85.5165 10.2705 85.3676 10.2705C85.2783 10.2705 85.189 10.2705 85.0997 10.2705H80.4852C80.3959 10.2705 80.3066 10.2705 80.2173 10.2705C80.0982 10.2705 80.0089 10.3153 80.0237 10.4499C80.0684 11.1973 80.247 11.885 80.8722 12.3485C81.8249 13.0661 83.2241 12.6774 83.6856 11.5711C83.76 11.4066 83.8195 11.3468 83.9981 11.3767C84.4745 11.4365 84.9508 11.4814 85.4271 11.5711M81.8547 9.07448C82.3756 9.07448 82.8966 9.07448 83.4176 9.07448C83.5516 9.07448 83.6409 9.05953 83.6409 8.89508C83.6111 8.22234 83.3432 7.45991 82.4798 7.16091C81.4974 6.81707 80.2321 7.44496 80.0982 8.83528C80.0833 9.04458 80.1726 9.07448 80.3512 9.07448C80.8573 9.07448 81.3634 9.07448 81.8695 9.07448" fill="#0092DA"/>
<path id="Vector_18" d="M84.0581 38.7347C83.7455 39.7064 83.1799 40.3941 82.3016 40.7978C80.9471 41.4107 79.6074 41.321 78.3272 40.5735C77.8211 40.2745 77.4192 39.8559 77.1662 39.3327C76.4963 37.9274 76.4517 36.4922 77.0917 35.087C77.7467 33.6518 79.2055 32.8744 80.7982 33.0089C82.5696 33.1584 83.8646 34.3245 84.1325 36.4324C84.1623 36.6716 84.1772 36.8959 84.1772 37.1351C84.1772 37.4341 84.1772 37.449 83.8795 37.449C83.7306 37.449 83.5967 37.449 83.4478 37.449C81.9295 37.449 80.4261 37.449 78.9078 37.449C78.5803 37.449 78.5803 37.449 78.61 37.7779C78.6398 38.1068 78.6845 38.4357 78.8184 38.7347C79.1459 39.4672 79.7116 39.8858 80.5303 39.8858C81.3341 39.8858 81.9295 39.527 82.257 38.7646C82.3314 38.5852 82.4207 38.5254 82.5993 38.5553C83.0608 38.63 83.5222 38.6749 84.0432 38.7496M80.4112 36.268H81.6169C82.0734 36.268 82.247 36.0487 82.1379 35.6102C81.8997 34.5936 80.9768 34.0405 79.9944 34.3245C79.131 34.5787 78.744 35.2963 78.6398 36.0288C78.61 36.2231 78.6845 36.2829 78.878 36.2829C79.3841 36.2829 79.8902 36.2829 80.3963 36.2829" fill="#0092DA"/>
<path id="Vector_19" d="M125.618 25.1603C125.291 26.162 124.695 26.8646 123.787 27.2533C122.552 27.7765 121.316 27.7317 120.125 27.1188C119.366 26.7301 118.86 26.1321 118.547 25.3397C118.146 24.2634 118.101 23.1571 118.428 22.0658C118.92 20.4213 120.319 19.3898 122.031 19.4047C124.01 19.4047 125.41 20.6754 125.678 22.6787C125.722 22.9777 125.737 23.2767 125.752 23.5757C125.752 23.785 125.678 23.8448 125.484 23.8448C124.904 23.8448 124.308 23.8448 123.728 23.8448C122.641 23.8448 121.554 23.8448 120.483 23.8448C120.185 23.8448 120.185 23.8448 120.185 24.1587C120.185 24.5325 120.274 24.8912 120.438 25.2201C120.795 25.9228 121.361 26.3115 122.165 26.2816C122.954 26.2666 123.534 25.8929 123.847 25.1603C123.891 25.0557 123.891 24.9211 124.07 24.951C124.576 25.0258 125.067 25.0856 125.633 25.1603M122.001 22.6637H123.177C123.663 22.6637 123.842 22.4245 123.713 21.9462C123.489 21.0791 122.745 20.5708 121.867 20.6754C121.018 20.7651 120.378 21.4528 120.244 22.3946C120.215 22.6488 120.215 22.6637 120.468 22.6637C120.974 22.6637 121.48 22.6637 122.001 22.6637Z" fill="#0092DA"/>
<path id="Vector_20" d="M67.2969 16.8334C67.9221 16.8334 68.5324 16.8334 69.1427 16.8334C69.3808 16.8334 69.4106 16.9978 69.485 17.1473C70.0953 18.4479 70.7056 19.7486 71.3159 21.0641C71.5243 21.5126 71.7327 21.9611 71.956 22.4246C72.1049 22.3498 72.1197 22.2153 72.1644 22.1106C72.8194 20.4662 73.4594 18.8217 74.1144 17.1922C74.2632 16.8035 74.2335 16.8633 74.5907 16.8633C75.0373 16.8633 75.469 16.8633 75.9006 16.8633C75.9602 16.9978 75.9006 17.0875 75.856 17.1922C74.7842 19.7785 73.7274 22.3648 72.6556 24.9511C72.4323 25.4893 72.1942 26.0125 71.8518 26.4759C71.4797 26.9842 71.0182 27.3729 70.3781 27.5075C69.8423 27.6271 69.2915 27.5972 68.7408 27.5374C68.6068 27.5224 68.4877 27.4776 68.5026 27.2982C68.5026 26.8497 68.5026 26.4161 68.5026 25.9527C68.9045 25.9826 69.2469 26.0573 69.619 25.9975C70.393 25.8779 70.7354 25.3099 70.9438 24.7567C71.0033 24.5773 70.8843 24.4577 70.8247 24.3232C70.0209 22.6488 69.2171 20.9744 68.4133 19.3001C68.0858 18.6124 67.7583 17.9397 67.4308 17.252C67.3862 17.1473 67.3118 17.0576 67.3118 16.8782" fill="#0092DA"/>
<path id="Vector_21" d="M107.22 37.0753C107.22 37.7929 107.086 38.4656 106.803 39.0935C106.133 40.5735 104.749 41.306 103.141 41.1864C100.879 41.022 99.9112 39.2729 99.7325 37.7032C99.6283 36.8062 99.7325 35.954 100.105 35.1318C100.775 33.6219 102.159 32.8894 103.781 33.009C106.118 33.1883 107.056 35.0122 107.205 36.567C107.205 36.7464 107.22 36.9407 107.235 37.0753M105.3 37.0603C105.285 36.8062 105.27 36.5072 105.225 36.2231C105.166 35.8643 105.076 35.5056 104.913 35.1767C104.6 34.6086 104.139 34.2946 103.499 34.2946C102.844 34.2946 102.352 34.6086 102.04 35.1916C101.98 35.3262 101.921 35.4607 101.876 35.5953C101.578 36.5819 101.578 37.5836 101.876 38.5702C101.921 38.7496 101.995 38.9141 102.084 39.0785C102.397 39.6167 102.873 39.9008 103.499 39.8858C104.124 39.8858 104.585 39.5719 104.898 39.0337C105.225 38.4357 105.27 37.763 105.3 37.0753" fill="#0092DA"/>
<path id="Vector_22" d="M123.98 37.1052C123.98 37.7929 123.846 38.4656 123.564 39.0935C122.894 40.5735 121.509 41.3061 119.902 41.1865C117.684 41.022 116.686 39.3327 116.493 37.7331C116.389 36.851 116.493 36.0139 116.82 35.1916C117.475 33.6219 118.889 32.8744 120.527 32.994C122.67 33.1435 123.757 34.7581 123.951 36.5221C123.965 36.7165 123.965 36.9108 123.98 37.1052ZM122.03 37.1052C122.03 36.5072 121.971 35.9092 121.733 35.3411C121.45 34.6534 120.884 34.2647 120.185 34.2946C119.455 34.3096 118.979 34.6983 118.696 35.371C118.517 35.7747 118.458 36.1933 118.428 36.6268C118.368 37.3743 118.428 38.1218 118.711 38.8244C118.979 39.4672 119.455 39.8559 120.17 39.8858C120.869 39.9157 121.36 39.5719 121.673 38.959C121.956 38.3909 122.015 37.763 122.03 37.1201" fill="#0092DA"/>
<path id="Vector_23" d="M115.124 37.0902V40.5436C115.124 40.6183 115.124 40.708 115.124 40.7828C115.124 40.9622 115.079 41.0519 114.886 41.0369C114.439 41.0369 113.993 41.0369 113.561 41.0369C113.397 41.0369 113.323 40.9771 113.323 40.8127C113.323 40.5735 113.323 40.3343 113.323 40.1101C113.323 39.3775 113.323 38.645 113.323 37.9124C113.323 37.5985 113.323 37.5985 112.995 37.5985C112.206 37.5985 111.432 37.5985 110.643 37.5985C110.346 37.5985 110.346 37.5985 110.346 37.9124C110.346 38.8393 110.346 39.7662 110.346 40.708C110.346 41.0519 110.346 41.0519 110.003 41.0519C109.601 41.0519 109.2 41.0519 108.783 41.0519C108.619 41.0519 108.53 40.9921 108.545 40.8276C108.545 40.7678 108.545 40.6931 108.545 40.6333C108.545 38.2712 108.545 35.9241 108.545 33.5621C108.545 33.0538 108.574 33.1435 108.961 33.1285C109.319 33.1285 109.661 33.1285 110.018 33.1285C110.316 33.1285 110.331 33.1285 110.331 33.4275C110.331 34.2199 110.331 35.0272 110.331 35.8195C110.331 36.2829 110.301 36.253 110.748 36.253C111.507 36.253 112.266 36.253 113.01 36.253C113.293 36.253 113.293 36.253 113.293 35.969C113.293 35.1468 113.293 34.3096 113.293 33.4873C113.293 33.1285 113.293 33.1285 113.665 33.1285C114.037 33.1285 114.424 33.1285 114.796 33.1285C115.094 33.1285 115.094 33.1285 115.094 33.4425C115.094 34.5637 115.094 35.6999 115.094 36.8211V37.0902H115.124Z" fill="#0092DA"/>
<path id="Vector_24" d="M93.48 9.92662C93.48 11.1226 93.48 12.3186 93.48 13.4996C93.48 13.8584 93.48 13.8584 93.1078 13.8584C92.7208 13.8584 92.3189 13.8584 91.9319 13.8584C91.7235 13.8584 91.664 13.7836 91.664 13.5893C91.664 12.7073 91.664 11.8402 91.664 10.9581C91.664 10.8684 91.664 10.7788 91.664 10.6891C91.6788 10.5097 91.6193 10.4349 91.4258 10.4349C90.6071 10.4349 89.7735 10.4349 88.9548 10.4349C88.6869 10.4349 88.6869 10.4349 88.6869 10.7339C88.6869 11.586 88.6869 12.4382 88.6869 13.2903V13.4846C88.6869 13.8733 88.7166 13.8733 88.2999 13.8733C87.9277 13.8733 87.5705 13.8733 87.1983 13.8733C86.8857 13.8733 86.8857 13.8733 86.8857 13.5444C86.8857 12.6923 86.8857 11.8402 86.8857 10.988V6.47323C86.8857 6.38353 86.8857 6.29384 86.8857 6.20414C86.8857 6.05464 86.9453 5.99484 87.0941 5.99484C87.5407 5.99484 87.9873 5.99484 88.4189 5.99484C88.6422 5.99484 88.672 6.08454 88.672 6.27889C88.672 7.05627 88.672 7.81871 88.672 8.59609C88.672 8.68579 88.672 8.77549 88.672 8.86519C88.672 9.02963 88.7315 9.10438 88.8953 9.08943C89.3269 9.08943 89.7586 9.08943 90.1903 9.08943C90.5773 9.08943 90.9792 9.08943 91.3662 9.08943C91.6342 9.08943 91.6491 9.08943 91.6491 8.80539C91.6491 8.028 91.6491 7.23567 91.6491 6.44333C91.6491 6.35364 91.6491 6.26394 91.6491 6.17424C91.6491 6.06959 91.6937 5.99484 91.7979 5.99484H93.2865C93.4055 5.99484 93.4502 6.05464 93.4353 6.17424C93.4353 6.27889 93.4353 6.38353 93.4353 6.48818V9.94157" fill="#0092DA"/>
<path id="Vector_25" d="M76.7939 23.486V19.9429C76.7939 19.5692 76.7939 19.5692 77.1512 19.5692C79.1161 19.5692 81.066 19.5692 83.0309 19.5692C83.3733 19.5692 83.3733 19.5692 83.3733 19.913V27.1038C83.3733 27.4626 83.3733 27.4626 83.0011 27.4626C82.6439 27.4626 82.2718 27.4626 81.8996 27.4626C81.5722 27.4626 81.5722 27.4626 81.5722 27.1487C81.5722 26.3264 81.5722 25.5042 81.5722 24.667C81.5722 23.5308 81.5722 22.3797 81.5722 21.2435C81.5722 20.9146 81.5722 20.9146 81.2596 20.9146C80.4706 20.9146 79.6966 20.9146 78.9077 20.9146C78.5951 20.9146 78.5951 20.9146 78.5951 21.2435C78.5951 23.172 78.5951 25.1005 78.5951 27.0291C78.5951 27.5224 78.6397 27.4626 78.1485 27.4626C77.8062 27.4626 77.4638 27.4626 77.1363 27.4626C76.8088 27.4626 76.8088 27.4626 76.7939 27.1038C76.7939 25.8929 76.7939 24.6969 76.7939 23.486Z" fill="#0092DA"/>
<path id="Vector_26" d="M133.641 23.5308C133.641 24.7268 133.641 25.9228 133.641 27.1038C133.641 27.4476 133.641 27.4476 133.298 27.4476C132.926 27.4476 132.569 27.4476 132.197 27.4476C131.825 27.4476 131.84 27.4775 131.84 27.0739V24.4428C131.84 24.368 131.84 24.2783 131.84 24.2036C131.84 24.0541 131.795 23.9793 131.631 23.9943C131.468 23.9943 131.289 23.9943 131.125 23.9943C130.485 23.9943 129.845 23.9943 129.205 23.9943C128.863 23.9943 128.863 23.9943 128.863 24.3381C128.863 25.25 128.863 26.1769 128.863 27.0889C128.863 27.4476 128.863 27.4476 128.505 27.4476C128.103 27.4476 127.702 27.4476 127.285 27.4476C127.121 27.4476 127.047 27.3878 127.061 27.2234C127.061 27.1786 127.061 27.1487 127.061 27.1038V19.913C127.061 19.5691 127.061 19.5691 127.389 19.5542C127.746 19.5542 128.089 19.5542 128.446 19.5542C128.892 19.5542 128.863 19.5542 128.863 19.9578C128.863 20.7502 128.863 21.5276 128.863 22.3199C128.863 22.6488 128.863 22.6637 129.205 22.6637C129.994 22.6637 130.768 22.6637 131.557 22.6637C131.825 22.6637 131.84 22.6637 131.84 22.3797C131.84 21.5575 131.84 20.7352 131.84 19.898C131.84 19.5691 131.84 19.5691 132.152 19.5691C132.539 19.5691 132.941 19.5691 133.328 19.5691C133.626 19.5691 133.626 19.5691 133.626 19.8831C133.626 20.8548 133.626 21.8266 133.626 22.7983V23.5458L133.641 23.5308Z" fill="#0092DA"/>
<path id="Vector_27" d="M116.88 23.5159C116.88 24.7268 116.88 25.9228 116.88 27.1337C116.88 27.4477 116.88 27.4626 116.552 27.4626C116.151 27.4626 115.749 27.4626 115.332 27.4626C115.123 27.4626 115.064 27.3879 115.064 27.1935C115.064 26.6553 115.064 26.1171 115.064 25.579C115.064 24.1438 115.064 22.6937 115.064 21.2585C115.064 20.9146 115.064 20.9146 114.722 20.9146C114.245 20.9146 113.784 20.9146 113.307 20.9146C113.039 20.9146 113.039 20.9146 113.025 21.1987C112.98 22.0957 112.935 23.0076 112.876 23.9046C112.831 24.6072 112.727 25.3099 112.474 25.9826C112.102 26.9543 111.268 27.5374 110.286 27.5224C110.196 27.5224 110.107 27.5224 110.018 27.4925C109.899 27.4776 109.824 27.4327 109.824 27.2832C109.824 26.9394 109.824 26.6105 109.824 26.2666C109.824 26.162 109.869 26.1022 109.973 26.0872C110.033 26.0872 110.107 26.0573 110.167 26.0424C110.643 25.9378 110.956 25.6388 111.134 25.2052C111.283 24.8464 111.357 24.4577 111.402 24.069C111.521 22.7834 111.566 21.5126 111.566 20.227C111.566 19.5692 111.566 19.5692 112.206 19.5692H116.389C116.463 19.5692 116.552 19.5692 116.627 19.5692C116.82 19.5542 116.88 19.629 116.88 19.8233C116.88 20.4811 116.88 21.1389 116.88 21.7817V23.5159Z" fill="#0092DA"/>
<path id="Vector_28" d="M98.4814 10.5994C98.4814 11.586 98.4814 12.5578 98.4814 13.5444C98.4814 13.8584 98.4814 13.8733 98.1539 13.8733C97.752 13.8733 97.3501 13.8733 96.9333 13.8733C96.7249 13.8733 96.6654 13.7986 96.6654 13.6042C96.6654 13.0212 96.6654 12.4531 96.6654 11.8701C96.6654 10.4648 96.6654 9.07448 96.6654 7.66921C96.6654 7.32537 96.6654 7.32537 96.323 7.32537C95.7574 7.32537 95.2066 7.32537 94.641 7.32537C94.3135 7.32537 94.3135 7.32537 94.3135 7.01142C94.3135 6.77223 94.3135 6.53303 94.3135 6.30879C94.3135 5.99484 94.3135 5.99484 94.641 5.99484C94.7154 5.99484 94.8047 5.99484 94.8791 5.99484H100.357C100.446 5.99484 100.536 5.99484 100.625 5.99484C100.759 5.99484 100.818 6.03969 100.818 6.17424C100.818 6.48818 100.818 6.80213 100.818 7.11607C100.818 7.29547 100.729 7.32537 100.58 7.32537C99.9997 7.32537 99.4043 7.32537 98.8237 7.32537C98.4665 7.32537 98.4665 7.32537 98.4665 7.69911C98.4665 8.67084 98.4665 9.64257 98.4665 10.5994" fill="#0092DA"/>
<path id="Vector_29" d="M85.5166 37.0902V33.592C85.5166 33.5023 85.5166 33.4126 85.5166 33.3229C85.5166 33.2033 85.5761 33.1285 85.7101 33.1285C85.7697 33.1285 85.8441 33.1285 85.9036 33.1285H90.4883C90.8605 33.1285 90.8605 33.1285 90.8605 33.4873C90.8605 33.7265 90.8605 33.9657 90.8605 34.19C90.8605 34.4591 90.8605 34.474 90.5776 34.474C89.7887 34.474 89.0147 34.474 88.2257 34.474C88.0471 34.474 87.8685 34.474 87.675 34.474C87.3475 34.474 87.3326 34.474 87.3326 34.8328C87.3326 36.7314 87.3326 38.63 87.3326 40.5286C87.3326 40.6333 87.3326 40.7379 87.3326 40.8426C87.3326 40.9921 87.2731 41.0519 87.1242 41.0519C86.6628 41.0519 86.2162 41.0519 85.7548 41.0519C85.591 41.0519 85.5166 40.9921 85.5315 40.8276C85.5315 40.7379 85.5315 40.6482 85.5315 40.5585V37.1052" fill="#0092DA"/>
<path id="Vector_30" d="M126.675 41.0519C126.734 40.9174 126.719 40.7679 126.719 40.6333C126.705 38.7646 126.749 36.8959 126.69 35.0272C126.69 34.9674 126.675 34.9076 126.734 34.8179C126.794 34.9076 126.853 34.9823 126.839 35.087C126.719 35.1767 126.779 35.2963 126.779 35.4159C126.779 37.165 126.779 38.9141 126.779 40.6782C126.779 40.8127 126.853 40.9772 126.675 41.0519Z" fill="#B4DFF4"/>
<path id="Vector_31" d="M107.413 23.2767C107.413 23.2767 107.294 23.2767 107.294 23.2468C107.294 23.2019 107.368 23.2019 107.413 23.2169C107.413 23.2468 107.413 23.2617 107.413 23.2916" fill="#9DD5F1"/>
</g>
<defs>
<clipPath id="clip0_884_22152">
<rect width="150" height="55" fill="white"/>
</clipPath>
</defs>
</svg>
