<svg width="150" height="74" viewBox="0 0 150 74" fill="none" xmlns="http://www.w3.org/2000/svg">
<g id="Layer_1" clip-path="url(#clip0_884_18890)">
<path id="Vector" d="M27.302 47.9036C27.0873 47.8098 26.9933 47.7562 26.8993 47.716C25.9598 47.3139 25.1275 47.5954 24.6309 48.48C24.3624 48.9625 24.1342 49.4718 23.8658 49.9544C22.9933 51.4957 21.5705 52.1659 19.9061 52.3804C19.1275 52.4876 18.2953 52.501 17.4631 52.0989C17.6376 51.8978 17.7853 51.7102 17.9463 51.536C19.0202 50.4101 20.1342 49.311 21.1544 48.1315C22.2551 46.8716 23.1007 45.4374 23.651 43.7888C23.2886 43.7084 23.1812 43.9631 23.0336 44.1373C22.3087 45.0219 21.6242 45.9333 20.8859 46.7912C19.8121 48.0243 18.5504 49.0161 17.047 49.6863C15.2618 50.4905 13.49 50.2626 11.6108 49.5791C12.1074 49.1099 12.6175 48.8419 13.1141 48.5738C14.8725 47.6088 16.604 46.5901 18.1879 45.357C18.9262 44.7807 19.6242 44.1239 20.3087 43.4805C20.4967 43.3063 20.6309 43.065 20.8457 42.7836C20.349 42.6763 20.1342 42.998 19.8658 43.1454C18.4564 43.9765 17.0604 44.8477 15.6242 45.6385C14.3356 46.3623 12.9396 46.8716 11.4497 47.0056C9.85237 47.153 8.36244 46.7509 6.97989 45.9467C6.51009 45.6653 6.08056 45.3168 5.55707 44.9281C5.77183 44.8209 5.89264 44.7404 6.01344 44.7136C8.01344 44.2579 10.0403 43.896 12.0134 43.3599C13.5034 42.9578 14.953 42.3412 16.4027 41.7783C16.8725 41.5907 17.2752 41.2556 17.7181 40.9875C17.6913 40.9339 17.6644 40.8803 17.651 40.8267C17.396 40.8937 17.1275 40.9473 16.8725 41.0277C15.1275 41.6041 13.3289 42.0062 11.5168 42.1536C9.87921 42.2876 8.22821 42.2474 6.59062 42.1536C5.55707 42.1 4.63089 41.5504 3.8121 40.9071C2.80539 40.1297 2.04029 39.1512 1.50338 37.9986C1.47653 37.9315 1.48995 37.8511 1.48995 37.7305C2.37586 37.8913 3.24834 38.0388 4.1074 38.213C6.13425 38.6151 8.18794 38.7357 10.2551 38.6955C11.7718 38.6687 13.2483 38.4811 14.6846 38.0254C14.8322 37.9717 14.9799 37.9047 15.1544 37.8109C14.9128 37.449 14.5906 37.5562 14.3087 37.5428C13.4765 37.5428 12.6443 37.5562 11.8121 37.5294C10.9262 37.4892 10.0403 37.4222 9.15438 37.3418C7.75841 37.2212 6.42955 36.8325 5.12754 36.3499C3.30203 35.6798 1.86579 34.5539 1.02015 32.7712C0.496664 31.6454 0.120825 30.4659 0.0537109 29.0987C1.10069 29.6617 2.08056 30.1978 3.06042 30.7205C5.58391 32.0609 8.22821 33.0527 11.0336 33.6022C11.9195 33.7765 12.8188 33.9775 13.7853 33.7497C13.6376 33.428 13.3826 33.3744 13.1141 33.3074C11.5571 32.9053 10 32.4764 8.53693 31.8062C6.83223 31.0154 5.19465 30.1174 3.86579 28.777C2.18794 27.0882 1.32888 25.0241 1.30203 22.6383C1.30203 21.9815 1.2215 21.3248 1.40942 20.5474C1.70472 20.8154 1.91948 21.0031 2.13425 21.2041C3.78525 22.7857 5.44968 24.3405 7.30203 25.6943C9.10069 27.0078 10.9665 28.2275 13.0336 29.0853C13.2081 29.1523 13.3826 29.2059 13.651 29.1791C13.5571 29.0451 13.49 28.8843 13.3557 28.7904C12.2416 27.9058 11.1007 27.0614 10.0134 26.15C8.06713 24.5014 6.37586 22.6249 5.14096 20.3731C4.55036 19.3008 4.24163 18.1214 4.1074 16.8882C3.85237 14.6365 4.42955 12.559 5.3423 10.535C5.36915 10.468 5.43626 10.401 5.53022 10.3072C5.82552 10.468 5.87921 10.7763 6.00002 11.031C7.18123 13.658 8.65774 16.0974 10.3222 18.443C11.651 20.3329 13.1141 22.1156 14.7114 23.791C16.8054 26.0025 19.047 28.0398 21.5571 29.7689C21.9061 30.0101 22.2416 30.238 22.5772 30.4927C22.7517 30.6267 22.8993 30.7741 23.141 30.9886C22.8054 31.2701 22.5369 31.5113 22.2685 31.7258C21.0738 32.664 20.5638 33.9239 20.7383 35.3983C20.9262 36.8995 21.8524 37.9315 23.2483 38.4677C24.4967 38.9502 25.7047 38.8028 26.8054 37.9851C26.9799 37.8511 27.1678 37.7171 27.3423 37.5964C27.3826 37.5696 27.4497 37.5964 27.5705 37.5964C27.5034 40.9741 27.7047 44.3652 27.3691 47.8634" fill="black"/>
<path id="Vector_2" d="M57.2621 33.8033C58.3493 33.9775 59.3023 33.8033 60.2419 33.6157C63.6648 32.9321 66.8191 31.5783 69.8124 29.8225C70.1882 29.5946 70.5775 29.407 71.0742 29.1389C71.0339 29.541 71.0607 29.8359 70.9802 30.104C70.7252 30.9886 70.497 31.8732 70.148 32.7176C69.3829 34.5003 67.9735 35.6396 66.1882 36.3365C64.7788 36.8727 63.356 37.3016 61.8392 37.4088C60.6983 37.4892 59.5708 37.6233 58.4299 37.6903C58.0137 37.7171 57.5976 37.6501 57.1815 37.6367C56.7788 37.6367 56.3627 37.4624 55.8795 37.8645C56.2554 37.9986 56.5507 38.146 56.8594 38.213C58.3225 38.5883 59.8124 38.7357 61.3158 38.7625C64.0272 38.7894 66.6849 38.4811 69.3158 37.8109C69.3963 37.7975 69.4768 37.7841 69.6245 37.7707C69.6111 37.9181 69.6245 38.0656 69.5842 38.1594C68.6983 39.8214 67.4768 41.1483 65.6916 41.8989C65.1681 42.1134 64.6446 42.2608 64.0809 42.2474C62.6849 42.2206 61.2889 42.2876 59.9064 42.2206C58.0943 42.1268 56.3493 41.7113 54.6178 41.1617C54.2285 41.0411 53.8661 40.7999 53.356 40.9607C54.148 41.6443 55.0607 41.9928 55.9466 42.3546C58.2956 43.3197 60.7386 43.9496 63.2218 44.4188C63.9466 44.5528 64.6715 44.7136 65.544 44.8879C65.2218 45.1694 65.007 45.3704 64.7788 45.5447C63.3426 46.6169 61.705 47.1128 59.9332 47.0726C58.5909 47.0324 57.3292 46.5901 56.1077 46.0138C54.4164 45.223 52.8057 44.2713 51.2755 43.2125C51.007 43.0382 50.7788 42.7702 50.3493 42.7836C50.4164 43.1991 50.6983 43.4269 50.9265 43.6682C52.3627 45.1292 54.0406 46.2818 55.7721 47.3273C56.9533 48.0511 58.1748 48.7213 59.4366 49.4584C58.9131 49.9544 58.2956 49.9678 57.7319 50.075C55.2352 50.5709 53.2218 49.6059 51.4097 47.9975C50.1748 46.8984 49.0876 45.6787 48.148 44.3249C48.0003 44.1105 47.8124 43.9228 47.4903 43.7888C47.5305 43.9496 47.5439 44.1373 47.5976 44.2847C48.1346 45.7323 48.9265 47.0458 49.9601 48.1985C50.9533 49.3244 52.0137 50.3833 53.0607 51.4689C53.2352 51.6432 53.4634 51.7772 53.6648 51.9381C53.3426 52.3536 52.9802 52.367 52.6849 52.3938C50.2956 52.635 48.0943 51.8308 46.9131 49.4718C46.7788 49.2038 46.658 48.9223 46.5238 48.6408C45.9735 47.5686 45.1413 47.2871 44.0272 47.7964C43.9601 47.8232 43.8661 47.8366 43.7453 47.8634C43.4097 44.4322 43.6245 41.0277 43.5439 37.4892C43.8124 37.6635 43.9601 37.7305 44.0809 37.8377C45.6648 39.2451 48.1882 39.0708 49.705 37.1809C50.9533 35.6128 50.5507 33.0527 48.846 31.7526C48.5775 31.5515 48.3359 31.3371 47.9869 31.0556C48.2419 30.8278 48.4299 30.6401 48.6312 30.4793C49.9601 29.4606 51.3158 28.4822 52.6178 27.4501C54.4433 25.9891 56.1211 24.3405 57.6111 22.5445C58.9668 20.8959 60.3225 19.2204 61.5037 17.4378C62.7117 15.6149 63.7184 13.6446 64.8057 11.7414C65.0473 11.3124 65.2755 10.8567 65.544 10.334C65.6916 10.5485 65.8258 10.6691 65.8929 10.8299C66.5238 12.2641 66.9131 13.7385 67.0205 15.3201C67.2084 18.309 66.0943 20.7752 64.2285 23.027C62.4164 25.2117 60.2554 26.9944 58.0003 28.6698C57.7856 28.8306 57.5037 28.9245 57.4768 29.3266C58.497 29.0585 59.3694 28.5894 60.2285 28.0935C62.6312 26.7263 64.8594 25.1045 66.8728 23.2146C67.6513 22.4909 68.4164 21.7671 69.1815 21.0433C69.3158 20.9093 69.4768 20.802 69.6111 20.6814C69.6916 20.735 69.7721 20.7618 69.7721 20.7886C69.9064 22.3166 69.9064 23.8312 69.4231 25.319C68.6715 27.6377 67.101 29.2462 65.101 30.5329C63.0876 31.833 60.8728 32.6238 58.5775 33.1867C58.2822 33.2538 57.9869 33.3342 57.705 33.4414C57.5708 33.495 57.4634 33.6291 57.2755 33.8033" fill="black"/>
<path id="Vector_3" d="M5.00684 55.9189C5.28872 55.557 5.54375 55.2353 5.79878 54.9136C5.77194 54.6053 5.73167 54.3105 5.73167 54.0022C5.73167 53.0639 6.36254 52.4474 7.28871 52.6082C7.94643 52.7289 8.40281 52.5948 8.80549 52.0855C8.85918 52.0319 8.93972 51.9917 9.03368 51.9381C9.57059 52.2195 9.65113 52.7557 9.74509 53.265C9.78536 53.4526 9.77194 53.6537 9.74509 53.8413C9.6914 54.3641 9.77194 54.8198 10.1612 55.2219C10.2686 55.3291 10.3894 55.5034 10.3894 55.6508C10.3894 56.2673 10.7921 56.589 11.1679 56.9643C12.7921 58.5727 14.4162 60.1811 16.0135 61.8029C16.4028 62.205 16.8323 62.3927 17.4095 62.4329C17.9867 62.4731 18.5639 62.5937 19.1142 62.768C20.7115 63.2773 22.0001 62.6339 23.2082 61.7225C23.6511 61.3874 23.7585 60.8245 23.6914 60.275C23.6243 59.779 23.4632 59.3099 23.3558 58.8274C23.1813 58.1304 22.9129 57.4334 22.8458 56.7365C22.6981 55.2085 23.1813 53.8547 24.4297 52.9031C25.0203 52.4474 25.7182 52.1257 26.4028 51.8308C27.0203 51.5628 27.2619 51.7504 27.3156 52.434C27.3156 52.4876 27.3156 52.5412 27.3156 52.5948C27.3961 54.1094 28.0807 54.8198 29.6109 54.9002C30.1075 54.927 30.6176 54.9538 31.1142 54.8734C31.7048 54.7796 32.2686 54.8332 32.8592 54.8868C33.9599 54.9806 34.6981 55.5704 35.2216 56.5086C35.3156 56.6694 35.3827 56.8437 35.5169 57.1118C35.678 56.8437 35.7988 56.6426 35.9062 56.4282C36.4297 55.4363 37.235 54.8868 38.3894 54.9002C39.3156 54.9002 40.2283 54.9002 41.1545 54.9002C41.4901 54.9002 41.8256 54.8734 42.1478 54.793C43.1142 54.5651 43.6646 53.8949 43.7317 52.9031C43.7585 52.5144 43.7317 52.1257 43.7317 51.6566C44.8726 51.7638 45.7988 52.2195 46.6176 52.8629C48.0135 53.9754 48.4162 55.4765 48.1209 57.1922C48.0135 57.7819 47.7854 58.3583 47.6511 58.9614C47.5303 59.4708 47.4498 59.9935 47.3961 60.5162C47.3424 61.1596 47.6511 61.6421 48.1612 61.9906C48.6847 62.3525 49.2753 62.5937 49.8525 62.7814C49.9867 62.0576 50.0941 61.3874 50.2417 60.7307C50.3223 60.409 50.4699 60.1007 50.6444 59.8192C50.9531 59.3099 51.1948 59.3099 51.584 59.779C52.3357 60.677 53.2753 60.9987 54.4162 60.7441C54.8995 60.6368 55.2753 60.3822 55.6109 60.0203C55.8122 59.8058 56.027 59.5914 56.2283 59.3903C56.6713 59.4976 56.8055 59.8326 56.9531 60.1141C58.1209 62.4329 56.886 64.8857 54.631 65.5023C53.584 65.7837 52.4968 65.7033 51.6109 64.9929C50.5773 64.1753 49.4229 63.8536 48.1478 63.733C47.5169 63.6794 46.886 63.5186 46.2686 63.4247C45.9196 63.3711 45.6511 63.1969 45.4766 62.8886C45.6243 62.2855 45.8256 61.7091 45.933 61.1194C46.376 58.6129 44.188 56.589 41.6914 57.1788C40.6444 57.42 39.678 57.7819 38.9129 58.5995C38.376 59.1625 38.2552 59.8326 38.4028 60.5296C38.4699 60.8111 38.725 61.1194 38.9666 61.2936C39.3021 61.5215 39.7182 61.6555 40.1075 61.7895C41.5303 62.2452 42.8726 62.8484 43.9867 63.8536C44.9666 64.7517 45.7585 65.7703 45.7988 67.1911C45.8391 68.384 45.2887 69.2418 44.2686 69.9924C43.5706 66.655 41.4632 64.6847 38.4565 63.4247C38.9397 63.9743 39.3693 64.4568 39.8122 64.9527C40.5773 65.8105 41.2484 66.7086 41.5706 67.8479C41.9733 69.3222 41.6646 70.5955 40.5907 71.6678C40.3625 71.9091 40.1209 72.1235 39.7585 72.472C39.6243 71.6678 39.5169 70.9976 39.3827 70.3409C39.0471 68.6118 38.5236 66.9498 37.4229 65.5291C37.3156 65.3816 37.1679 65.261 36.98 65.06C36.725 65.7167 37.0471 66.226 37.1142 66.7354C37.329 68.3304 37.5303 69.9254 37.1948 71.5338C36.9934 72.5256 36.4028 73.3969 35.4766 73.9866C35.2484 73.799 34.9666 73.6247 34.7652 73.37C34.0672 72.4988 33.7048 71.507 33.6646 70.3811C33.6109 68.8397 33.7719 67.3385 34.1075 65.8373C34.1344 65.7033 34.1612 65.5693 34.1612 65.4218C34.1612 65.3414 34.1344 65.261 34.1075 65.1136C33.9464 65.2208 33.7988 65.2744 33.7182 65.3816C32.725 66.5879 32.188 68.0087 31.8391 69.5099C31.6377 70.4213 31.4901 71.3595 31.3156 72.2978C29.5169 71.2389 28.8592 69.1748 29.5974 67.4189C30.0001 66.4673 30.5639 65.6095 31.3021 64.8723C31.7451 64.43 32.188 63.9877 32.5773 63.4918C29.5706 64.6444 27.4632 66.6281 26.8055 69.912C25.4498 69.1078 24.9397 67.687 25.4095 66.2126C25.6914 65.3414 26.2417 64.631 26.886 64.0145C27.9196 63.0092 29.1545 62.3123 30.537 61.9102C30.886 61.8163 31.235 61.7091 31.5706 61.5751C32.7787 61.0926 33.1545 59.8192 32.3491 58.8006C32.0807 58.4521 31.7317 58.1572 31.3693 57.9026C30.6713 57.4334 29.8525 57.1922 29.0337 57.0715C27.0068 56.7901 25.1948 58.2778 25.074 60.3286C25.0471 60.7843 25.1948 61.2534 25.2753 61.7225C25.3021 61.8834 25.3693 62.0442 25.4229 62.1916C25.6511 62.9556 25.5303 63.2237 24.7652 63.3979C24.0941 63.5454 23.3961 63.6124 22.7115 63.7464C22.027 63.8805 21.3558 64.0413 20.6981 64.2289C20.2149 64.3764 19.8122 64.6847 19.5572 65.1806C19.8122 65.4889 20.0807 65.7703 20.3088 66.0786C20.631 66.5209 20.6713 66.8962 20.4565 67.1509C20.2149 67.4323 19.7854 67.4055 19.3156 67.0705C19.2887 67.0571 19.2619 67.0437 19.2484 67.0168C18.7384 66.3735 18.0807 66.2126 17.2753 66.2394C16.3223 66.2663 15.4632 65.2878 15.5169 64.1619C15.5572 63.2907 15.1276 62.8484 14.5907 62.3391C13.0471 60.8915 11.5437 59.3903 10.0404 57.916C9.74509 57.6211 9.46321 57.353 8.97999 57.3262C8.73838 57.3262 8.44308 57.1386 8.26858 56.9509C7.91959 56.5756 7.54375 56.5086 7.06053 56.589C6.22831 56.7231 5.71825 56.522 5.02026 55.8786" fill="black"/>
<path id="Vector_4" d="M51.8924 20.2793C49.1541 20.1185 46.7917 20.8422 44.6172 22.1558C42.4427 23.4693 41.2749 25.4798 40.8722 27.9862C40.5098 30.2514 41.0467 32.3289 42.0266 34.3394C42.2011 34.6879 42.3622 35.0364 42.5635 35.4251C42.4293 35.4787 42.3353 35.5323 42.2414 35.5323C38.7649 35.5725 35.2749 35.6262 31.7984 35.653C30.9125 35.653 30.0132 35.5859 29.1273 35.5457C28.9394 35.5457 28.7514 35.5055 28.4964 35.4787C28.7649 34.9292 29.0065 34.4333 29.2481 33.9373C29.9461 32.4898 30.3622 30.9618 30.3488 29.3534C30.3219 25.8283 28.4293 22.7991 25.1273 21.432C23.6239 20.802 22.0803 20.3865 20.4696 20.2257C20.0937 20.1855 19.7045 20.2525 19.2481 20.2793C19.0602 19.2606 19.3152 18.3894 19.9326 17.6254C20.5098 16.9016 21.3018 16.4593 22.1474 16.2047C23.0467 15.9366 23.9729 15.749 24.9125 15.6685C26.3488 15.5479 27.7984 15.5479 29.2481 15.4809C30.1608 15.4407 31.0736 15.3737 31.9998 15.3201C32.134 15.3201 32.2682 15.3201 32.5501 15.3201C32.3756 15.5881 32.2414 15.7758 32.1206 15.9634C31.879 16.3387 31.5971 16.6872 31.3957 17.0759C30.7649 18.2956 31.0333 19.4081 31.7716 20.5206C32.5635 21.7269 33.342 22.9466 33.9863 24.2333C34.7917 25.8283 35.2078 27.5573 35.3957 29.34C35.4092 29.474 35.4629 29.5946 35.6239 29.7287C35.7045 29.2864 35.785 28.8575 35.8521 28.4151C36.2548 25.8149 37.3152 23.4827 38.7917 21.3248C38.9796 21.0433 39.1675 20.7752 39.3555 20.4938C40.389 18.9524 40.3219 17.5718 39.1541 16.1377C38.9259 15.8562 38.6977 15.5747 38.4696 15.2932C40.5098 15.3603 42.5098 15.3737 44.5232 15.5077C45.7984 15.5881 47.0736 15.6283 48.3219 15.9902C49.4092 16.2985 50.4159 16.7274 51.181 17.612C51.8387 18.376 52.0132 19.2606 51.9326 20.2793" fill="black"/>
<path id="Vector_5" d="M16.7783 15.7087C16.0668 15.2262 13.1272 13.9395 11.9326 13.5642C12.1608 13.3498 12.3487 13.1755 12.5501 13.0013C12.9125 12.693 13.2615 12.3847 13.6239 12.0764C14.2548 11.5537 14.3621 10.8701 14.2145 10.1061C14.1608 9.81127 14.0937 9.50299 14.0534 9.20812C13.9729 8.64517 14.0132 8.53795 14.5501 8.32349C14.9528 8.14925 15.3823 8.00181 15.8118 7.88118C17.7179 7.35845 19.3286 6.3666 20.6977 4.97265C21.0601 4.61076 21.4628 4.34269 21.9729 4.20866C22.4427 4.07463 22.8856 4.14164 23.2078 4.49013C23.5031 4.81181 23.5702 5.22731 23.3957 5.65622C23.1272 6.29958 22.8588 6.94295 22.6038 7.58631C22.1877 8.60496 21.9863 9.66383 22.1474 10.7629C22.3353 11.996 23.5165 12.8136 24.8722 12.5456C24.738 12.2909 24.6172 12.0496 24.483 11.8218C24.3219 11.5671 24.1071 11.3258 23.9729 11.0578C23.4091 9.98551 23.9595 8.7524 25.1138 8.41732C25.5568 8.28328 25.7044 8.3637 25.8252 8.83282C25.9326 9.26173 26.04 9.69064 26.1474 10.1195C26.2413 10.4948 26.4561 10.6825 26.8722 10.6557C27.3554 10.6289 27.5031 10.5753 27.6642 10.0793C27.8118 9.66383 27.8924 9.22152 28.0132 8.79261C28.1474 8.32349 28.2682 8.26988 28.738 8.43072C29.9192 8.83282 30.3756 9.9319 29.8118 11.0444C29.6776 11.3124 29.4628 11.5403 29.3017 11.8084C29.1541 12.063 28.9259 12.3043 29.1138 12.6796C29.785 12.76 30.3487 12.5053 30.8454 12.0898C31.7984 11.2856 32.1474 10.2402 32.0132 9.03387C31.9863 8.80601 31.8252 8.57816 31.691 8.37711C31.3823 7.92139 30.993 7.49248 30.738 7.00996C29.8118 5.33454 30.3621 3.1766 32.7246 2.49303C32.9259 2.43941 33.1675 2.49303 33.4628 2.49303C33.597 3.00236 33.7179 3.49828 33.8655 3.9942C34.0266 4.55715 34.1877 5.10668 34.3621 5.66963C34.4964 6.12534 34.7917 6.38 35.2883 6.31299C35.4494 6.28618 35.6239 6.29958 35.785 6.31299C36.3219 6.3666 36.6306 6.08513 36.7783 5.60261C36.993 4.85202 37.2078 4.11484 37.3689 3.35084C37.5568 2.42601 37.7984 2.29198 38.6843 2.61366C40.7246 3.35084 41.2749 5.45517 40.3085 7.10379C40.0937 7.46568 39.8789 7.84097 39.5836 8.12244C38.9125 8.7524 38.9528 9.50299 39.1407 10.2804C39.4762 11.7414 40.644 12.7466 41.9595 12.7332C42.2011 12.3981 41.9863 12.1166 41.8252 11.8486C41.6239 11.5135 41.3823 11.2052 41.2346 10.8433C40.7917 9.73085 41.2749 8.7658 42.4158 8.41732C42.8319 8.29669 42.9528 8.3369 43.087 8.7658C43.2346 9.20812 43.3286 9.67723 43.4762 10.1195C43.5836 10.468 43.8118 10.6691 44.2145 10.6557C44.6038 10.6557 44.8588 10.5485 44.9528 10.1464C45.0467 9.74425 45.1541 9.34215 45.2615 8.94005C45.4226 8.3369 45.6507 8.22967 46.2279 8.49774C47.2615 8.96686 47.6507 10.0525 47.1273 11.0578C46.9796 11.3527 46.7514 11.6073 46.5903 11.9022C46.4695 12.1032 46.389 12.3177 46.2816 12.559C47.5299 12.7868 48.6038 12.1032 48.9259 10.9774C49.1541 10.2 49.0601 9.42257 48.8454 8.68538C48.6575 7.98841 48.3487 7.33164 48.0937 6.66148C47.946 6.27278 47.7715 5.89748 47.6776 5.49538C47.5031 4.70458 48.1474 4.03442 48.9393 4.20866C49.3554 4.30248 49.7581 4.54374 50.1205 4.785C50.4024 4.95925 50.6306 5.22731 50.8588 5.45517C52.1742 6.72849 53.7581 7.49248 55.4897 8.00181C55.946 8.13585 56.389 8.28328 56.8588 8.44412C57.0199 9.03387 57.0199 9.62362 56.8856 10.1732C56.644 11.1382 56.9393 11.8486 57.7313 12.4249C58.2145 12.7868 58.6843 13.1621 59.3017 13.6714C58.8856 13.7519 58.644 13.8457 58.4158 13.8457C56.8856 13.7921 55.6373 14.3148 54.6977 15.5479C54.6306 15.6283 54.5232 15.6685 54.4024 15.749C53.8252 15.3201 53.7179 14.6901 53.6105 14.0735C53.342 12.559 53.6105 11.165 54.4293 9.85148C54.9393 9.02047 54.7246 8.3503 53.8655 7.90799C52.738 7.30484 51.5836 6.72849 50.3219 6.48723C50.0668 6.43362 49.7984 6.46042 49.4628 6.44702C49.4628 6.91614 49.4628 7.29143 49.4628 7.66673C49.5031 8.69879 49.6239 9.71744 49.5702 10.7361C49.5165 11.6341 49.0064 12.3847 48.1474 12.7466C47.5702 12.9879 46.9259 13.1621 46.3085 13.1889C44.8856 13.2559 43.4628 13.1889 42.04 13.2157C41.0199 13.2425 40.2011 12.8136 39.4762 12.1837C39.0601 11.8218 38.6709 11.4063 38.3621 10.9506C37.8252 10.2 37.1272 9.87828 36.2279 9.87828C35.7313 9.87828 35.2212 9.87828 34.7246 9.87828C33.9192 9.87828 33.2883 10.2 32.8051 10.8567C32.5098 11.2588 32.1742 11.6341 31.8252 11.996C31.0467 12.8002 30.0803 13.1755 28.9796 13.2023C27.5836 13.2291 26.1877 13.2425 24.8051 13.1889C24.2011 13.1621 23.5836 13.0281 23.0333 12.8002C22.04 12.3847 21.5568 11.5403 21.4897 10.4948C21.4226 9.5298 21.3823 8.55135 21.6373 7.58631C21.6776 7.45227 21.6642 7.30484 21.6776 7.1708C21.7447 6.46042 21.6105 6.32639 20.8856 6.46042C19.5299 6.72849 18.295 7.29143 17.1004 7.97501C16.3487 8.40391 16.2011 9.06068 16.6574 9.83807C17.1407 10.6691 17.4494 11.5537 17.5702 12.4919C17.7179 13.658 17.436 14.7303 16.7917 15.7758" fill="black"/>
<path id="Vector_6" d="M41.6642 50.8926C41.1676 50.8926 40.7783 50.9194 40.4025 50.8926C39.8253 50.839 39.6374 50.6245 39.5568 50.0616C39.436 49.2708 39.3286 48.4666 39.2212 47.6758C39.2212 47.5954 39.1541 47.5283 39.1139 47.4345H37.6105C37.53 47.6624 37.436 47.9036 37.3689 48.1717C37.0333 49.4048 36.6441 50.6111 36.0535 51.7504C35.9327 51.9917 35.785 52.2195 35.5702 52.5814C35.3555 52.2597 35.1541 52.0587 35.0736 51.8174C34.6038 50.5709 34.1608 49.3244 33.7179 48.0779C33.6508 47.8768 33.5702 47.6758 33.5031 47.4613H31.9327C31.7984 48.3594 31.6776 49.2306 31.5434 50.1018C31.4494 50.7184 31.3421 50.8524 30.7112 50.9194C30.3219 50.9596 29.9327 50.9194 29.4092 50.9194C30.4964 49.8203 30.7783 48.48 31.0467 47.1128C30.8991 47.0056 30.7783 46.885 30.6441 46.818C29.2481 46.1478 28.6709 43.6682 29.9058 42.234C30.0669 42.0464 30.2682 41.8989 30.4561 41.7247C30.9394 41.2958 30.9394 41.2958 30.7246 40.6658C30.6172 40.3575 30.4964 40.0493 30.389 39.741C31.2615 39.4059 31.5837 39.4729 31.9595 40.2369C32.228 40.7596 32.577 40.9205 33.1407 40.9205C33.7447 40.9205 34.3353 41.0813 34.9931 41.1886C35.0199 41.0813 35.0736 40.9339 35.087 40.7865C35.1139 40.4648 35.2347 40.2503 35.5971 40.2637C35.9595 40.2771 36.0535 40.5184 36.0669 40.8267C36.0669 40.9607 36.1206 41.0813 36.134 41.1483C36.9528 41.0545 37.7045 40.9607 38.4696 40.8937C38.8051 40.8669 38.9394 40.639 39.0736 40.3978C39.6642 39.4327 39.6776 39.4327 40.832 39.6204C40.6843 39.9823 40.5233 40.3307 40.4025 40.6926C40.1877 41.2824 40.1877 41.3092 40.6575 41.6711C41.7582 42.5423 42.0937 43.6414 41.785 44.9951C41.6105 45.7457 41.2212 46.3086 40.6038 46.7375C40.0803 47.0994 40.1072 47.0994 40.228 47.7428C40.4427 48.8955 40.7917 49.9812 41.7179 50.9194M36.0669 42.234C36.0669 43.3197 36.0669 44.3652 36.0669 45.424C36.0669 46.2416 36.2951 46.4695 37.1944 46.6035C37.6374 45.3436 38.4427 41.9391 38.389 41.4834C37.5702 41.5102 36.8051 41.6845 36.0669 42.2206M33.9863 46.6705C34.5635 46.5231 35.0736 46.3489 35.087 45.7457C35.1273 44.5528 35.1004 43.3599 35.1004 42.1938C34.3085 41.7113 33.5702 41.403 32.6709 41.5639C33.1139 43.2795 33.5434 44.9415 33.9863 46.6705ZM39.2481 41.8453C39.2481 41.8453 39.1407 41.8185 39.087 41.8051C38.483 43.4135 38.134 45.0755 37.8387 46.7912C38.4025 46.9922 38.832 46.8582 39.2615 46.6303V41.8453H39.2481ZM31.9998 41.8453V46.6571C32.4561 46.8448 32.8857 47.0056 33.4092 46.7644C33.1004 45.0755 32.7649 43.4001 31.9998 41.8453ZM40.0132 46.3623C41.4494 45.1828 41.4629 43.3197 40.1474 42.2608C39.8253 43.5878 39.9461 44.8879 40.0132 46.3623ZM31.1944 46.2416C31.2212 44.8477 31.3957 43.561 31.0333 42.2474C29.7179 43.3599 29.7582 45.3302 31.1944 46.2416ZM36.1206 46.9654C36.0535 47.9036 36.0266 48.7749 36.389 49.7935C36.6441 48.8687 36.8588 48.1181 37.087 47.3273C36.738 47.1933 36.4561 47.0994 36.1206 46.9654ZM34.7649 49.6059C35.087 48.7212 35.1676 47.8902 35.0602 46.9654C34.7112 47.0994 34.4159 47.2067 34.0937 47.3273C34.3353 48.1449 34.5635 48.8821 34.7783 49.6059" fill="black"/>
<path id="Vector_7" d="M123.115 31.3907C122.913 32.4228 122.779 32.4898 121.437 32.2351C121.383 31.9938 121.329 31.7258 121.262 31.4041C120.94 31.3371 120.604 31.2299 120.255 31.1896C119.517 31.1226 118.86 30.868 118.215 30.5061C117.074 29.8895 116.497 28.9379 116.309 27.6511C116.108 26.2706 116.457 25.1447 117.517 24.2199C118.336 23.4961 119.343 23.1744 120.39 23.0002C121.262 22.8527 121.262 22.8796 121.45 22.0217H122.94C122.994 22.2898 123.061 22.5579 123.128 22.8661C123.638 22.96 124.148 23.027 124.658 23.1744C125.772 23.4961 126.833 23.925 127.464 24.9705C128.417 26.5521 128.376 29.1657 126.323 30.3988C125.651 30.8009 124.94 31.0958 124.148 31.1762C123.826 31.2164 123.49 31.2969 123.128 31.3773M121.155 24.3271C120.014 24.5282 118.819 24.6756 118.255 25.9087C117.826 26.8335 117.853 27.7986 118.484 28.6698C119.061 29.4606 120.309 29.9297 121.262 29.7421C121.437 28.6296 121.383 24.9571 121.155 24.3405M123.088 29.8627C124.403 29.8225 125.464 29.4472 126.054 28.3347C126.537 27.4501 126.524 26.4851 125.92 25.6406C125.235 24.689 124.229 24.4209 123.088 24.3539V29.8493V29.8627Z" fill="black"/>
<path id="Vector_8" d="M90.1341 22.3702H91.4093C91.6375 23.0538 91.7314 30.7875 91.5301 31.9402C91.3019 31.9536 91.0603 31.9804 90.8187 31.9938C90.5771 31.9938 90.322 31.9938 90.0401 31.9938C89.812 31.3103 89.9462 30.6401 89.9193 29.9833C89.8925 29.2864 89.9193 28.5894 89.9193 27.8924V25.9221C89.9193 25.9221 89.812 25.8819 89.7583 25.8685C89.5838 26.1366 89.4093 26.418 89.2482 26.6861C88.5771 27.7986 87.9193 28.9379 87.2214 30.037C86.6039 31.0154 86.161 31.0154 85.5032 30.037C84.7918 28.9379 84.1207 27.8254 83.4227 26.7129C83.275 26.4851 83.1274 26.2572 82.8724 25.8819C82.8187 26.2438 82.765 26.4448 82.765 26.6459C82.765 28.1203 82.765 29.5946 82.765 31.069C82.765 31.3371 82.7381 31.6051 82.7247 31.9268H81.1945C81.02 31.3371 80.9529 24.2467 81.114 22.3434C81.5032 22.3434 81.9059 22.3166 82.322 22.33C82.6576 22.33 82.765 22.6249 82.9126 22.8527C83.9328 24.5416 84.9529 26.2304 85.973 27.9192C86.0804 28.1069 86.2146 28.2811 86.4026 28.5492C87.1677 27.5171 87.718 26.4314 88.3623 25.3994C88.9932 24.3807 89.5703 23.3487 90.1744 22.3434" fill="black"/>
<path id="Vector_9" d="M129.986 22.3836H131.731V29.0451C131.959 28.8306 132.094 28.7368 132.188 28.6162C133.624 26.7129 135.074 24.8096 136.496 22.8795C136.792 22.4908 137.114 22.263 137.61 22.3166C137.906 22.3568 138.215 22.3166 138.564 22.3166V31.9268H136.805C136.778 29.7421 136.805 27.5841 136.792 25.2251C136.268 25.8819 135.852 26.3778 135.463 26.9006C134.402 28.2945 133.342 29.6885 132.295 31.0958C131.543 32.1011 131.409 32.1547 129.986 31.8598V22.3568V22.3836Z" fill="black"/>
<path id="Vector_10" d="M124.362 47.4613C125.1 46.4963 125.839 45.5312 126.563 44.5662C127.382 43.4805 128.228 42.4083 129.033 41.3092C129.275 40.9875 129.543 40.8401 129.933 40.8669C130.268 40.8937 130.59 40.8669 130.912 40.8669C131.087 41.5236 131.114 49.5657 130.953 50.5173C130.725 50.5307 130.483 50.5575 130.228 50.5575C129.933 50.5575 129.624 50.5575 129.261 50.5575V43.9899C129.261 43.9899 129.167 43.9496 129.114 43.9228C128.805 44.2847 128.483 44.6466 128.201 45.0353C127.006 46.6035 125.798 48.1583 124.657 49.7667C124.241 50.3565 123.785 50.6647 123.074 50.5441C122.886 50.5173 122.698 50.5173 122.456 50.5039V40.9205H124.174C124.282 41.6041 124.201 42.3144 124.214 43.0248C124.214 43.7754 124.214 44.526 124.214 45.2766V47.4077C124.214 47.4077 124.322 47.4345 124.376 47.4479" fill="black"/>
<path id="Vector_11" d="M94.4023 22.3568H96.0668C96.1742 23.0672 96.107 23.791 96.1205 24.5014C96.1205 25.252 96.1205 26.0025 96.1205 26.7531V29.1255C96.4292 28.777 96.6171 28.5894 96.7782 28.3749C98.0802 26.6459 99.4225 24.9437 100.671 23.1744C101.141 22.5177 101.651 22.2496 102.416 22.3434C102.577 22.3702 102.738 22.3702 102.939 22.3836V31.9536C102.671 31.967 102.416 31.9938 102.174 31.9938C101.933 31.9938 101.678 31.9938 101.396 31.9938C101.154 31.2433 101.302 30.5195 101.275 29.8225C101.248 29.0987 101.275 28.3749 101.275 27.6512V25.4128C100.792 25.587 100.604 25.9623 100.362 26.284C99.0466 28.013 97.7312 29.7287 96.4426 31.4845C96.1339 31.9 95.8252 32.0743 95.3285 32.0072C95.0601 31.9804 94.7916 31.9804 94.4023 31.967C94.4023 28.7636 94.4023 25.6004 94.4023 22.3702" fill="black"/>
<path id="Vector_12" d="M133.799 50.4905V40.9473H135.423C135.544 41.6443 135.463 42.3681 135.476 43.0784C135.49 43.829 135.476 44.5796 135.476 45.3302C135.476 46.0406 135.476 46.751 135.49 47.4479C135.544 47.4613 135.597 47.4881 135.651 47.5015C135.893 47.2067 136.134 46.9252 136.362 46.6169C137.691 44.8611 139.02 43.1186 140.322 41.3494C140.577 41.0009 140.846 40.7999 141.289 40.8535C141.584 40.8803 141.893 40.8535 142.174 40.8535C142.362 41.5102 142.429 48.9625 142.268 50.4771H140.644C140.591 49.4182 140.631 48.346 140.617 47.2603C140.617 46.1746 140.617 45.0889 140.617 43.8424C140.362 44.0837 140.201 44.2043 140.08 44.3652C138.819 46.0138 137.557 47.6758 136.282 49.3378C136.201 49.445 136.121 49.5657 136.04 49.6729C135.289 50.5843 135.141 50.6379 133.785 50.4637" fill="black"/>
<path id="Vector_13" d="M95.3962 50.6111C94.1882 50.6379 93.1009 50.2894 92.1345 49.5523C91.262 48.8955 90.7654 48.0377 90.4969 47.019C90.2553 46.0942 90.2687 45.1425 90.5103 44.2177C90.8056 43.1186 91.5036 42.2876 92.4164 41.6711C94.5506 40.2235 97.6378 40.4648 99.3694 42.3546C101.651 44.8343 100.9 49.2842 97.2217 50.3699C96.9801 50.4369 96.7385 50.5173 96.4969 50.5441C96.1345 50.5843 95.7721 50.5843 95.4097 50.5977M98.8325 45.6787C98.9533 43.8558 97.3828 42.3144 95.4633 42.3144C93.705 42.3144 92.0808 43.7754 92.0942 45.7189C92.0942 47.4613 93.517 49.0831 95.5841 49.0831C97.168 49.0831 99.0204 47.5417 98.8191 45.6787" fill="black"/>
<path id="Vector_14" d="M107.436 31.9536H105.718V22.3836H107.476V26.1902C108.161 26.3644 110.899 26.418 112.416 26.2974C112.617 25.6675 112.483 24.9973 112.51 24.3405C112.537 23.7106 112.51 23.0672 112.51 22.3836H114.214C114.375 22.9734 114.443 30.2246 114.295 31.9268H112.523V27.8924H107.53C107.396 29.2193 107.557 30.5731 107.436 31.9402" fill="black"/>
<path id="Vector_15" d="M149.892 31.9402H148.255C148.08 31.2969 148.188 30.6267 148.174 29.9833C148.147 29.3132 148.174 28.6564 148.174 27.9996C147.584 27.812 144.402 27.7584 143.181 27.9192C143.074 29.2193 143.208 30.5597 143.1 31.9402H141.423C141.423 31.9402 141.396 31.9268 141.382 31.9C141.369 31.8866 141.342 31.8598 141.342 31.833C141.329 31.7258 141.302 31.6185 141.302 31.4979C141.302 28.5492 141.302 25.6004 141.302 22.6517C141.302 22.5713 141.342 22.5043 141.369 22.3702H143.114V26.284H148.107C148.241 24.9973 148.094 23.724 148.201 22.3836H149.839C150 22.9198 150.067 30.6133 149.892 31.9268" fill="black"/>
<path id="Vector_16" d="M81.1413 40.8937C82.94 40.8535 84.6984 40.7865 86.4433 41.0679C88.242 41.3628 89.0742 42.931 89.1145 44.2311C89.1816 46.255 87.7185 47.3675 86.4568 47.5418C85.5843 47.6758 84.685 47.6624 83.7856 47.716C83.5172 47.7294 83.2487 47.7428 82.8997 47.7562V50.5039H81.1816C81.0205 49.9544 80.9668 42.0062 81.1413 40.8937ZM82.94 42.4217V46.2282C83.6648 46.2282 84.336 46.2416 84.9937 46.2282C85.3561 46.2148 85.7185 46.1612 86.0541 46.0674C86.8729 45.8261 87.3829 45.1291 87.3427 44.3249C87.2756 43.3063 86.7252 42.7568 85.9467 42.5691C84.9534 42.3278 83.9735 42.4351 82.9266 42.4485" fill="black"/>
<path id="Vector_17" d="M110.912 42.3144C110.751 42.5021 110.671 42.6227 110.577 42.7165C109.959 43.3331 109.812 43.3733 109.087 42.8774C108.04 42.1536 105.959 42.1536 104.872 43.1723C103.839 44.1373 103.597 45.3168 103.865 46.6035C104.134 47.8366 104.953 48.681 106.188 48.9759C107.275 49.244 108.349 49.1904 109.275 48.4264C109.382 48.3326 109.503 48.2655 109.61 48.1851C109.651 48.1583 109.704 48.1449 109.839 48.0779C110.161 48.3594 110.496 48.6676 110.872 48.9893C110.657 49.4316 110.335 49.6729 109.986 49.8873C109.261 50.3297 108.483 50.5977 107.624 50.5709C106.872 50.5441 106.134 50.6245 105.382 50.4101C103.06 49.7399 101.704 47.3809 102.027 45.1023C102.322 42.9846 103.516 41.537 105.624 40.9741C107.584 40.4514 109.342 40.8535 110.926 42.3144" fill="black"/>
<path id="Vector_18" d="M120.591 42.3815C120.43 42.5691 120.322 42.7165 120.188 42.8506C119.705 43.3197 119.611 43.3465 119.034 42.9712C118.309 42.5021 117.517 42.3681 116.658 42.3546C115.222 42.3278 113.463 43.7486 113.504 45.7859C113.531 47.4881 114.927 49.0697 116.712 49.0697C117.947 49.0697 117.973 49.0697 119.584 48.0511C119.947 48.346 120.363 48.6274 120.578 49.1502C119.906 49.9275 119.034 50.4101 118.067 50.5307C117.168 50.6379 116.215 50.5977 115.343 50.4101C113.383 49.9678 112.269 48.6274 111.839 46.6973C111.383 44.593 112.188 42.9444 113.839 41.6711C114.51 41.1483 115.302 40.8669 116.161 40.8669C116.725 40.8669 117.276 40.8535 117.839 40.8669C118.792 40.9071 119.987 41.5504 120.591 42.3681" fill="black"/>
<path id="Vector_19" d="M36.8589 1.32693C36.8858 1.9837 36.3086 2.56004 35.624 2.62706C34.9395 2.69408 34.2549 1.97029 34.2146 1.36714C34.1743 0.696974 34.8455 -1.47708e-06 35.5032 -0.0134048C36.1609 -0.0134048 36.8321 0.64336 36.8589 1.31353" fill="black"/>
<path id="Vector_20" d="M53.7049 59.4573C52.9934 59.4573 52.4431 58.9078 52.4297 58.2242C52.4297 57.5139 53.0337 56.9107 53.7451 56.9241C54.376 56.9241 55.0874 57.6479 55.0203 58.3047C54.9532 59.0418 54.5102 59.511 53.6914 59.4707" fill="black"/>
<path id="Vector_21" d="M44.1884 8.26988C43.8797 8.29669 43.477 7.9616 43.4233 7.62652C43.3696 7.27803 43.732 6.84912 44.0944 6.82232C44.4434 6.79551 44.8595 7.18421 44.8595 7.5461C44.8595 7.85437 44.4837 8.24307 44.175 8.26988" fill="black"/>
<path id="Vector_22" d="M27.6379 7.53269C27.6379 7.85438 27.1681 8.28328 26.8594 8.26988C26.5506 8.25648 26.1748 7.84097 26.1748 7.5461C26.1748 7.21101 26.6043 6.79551 26.9533 6.82232C27.2755 6.84912 27.6513 7.22442 27.6513 7.53269" fill="black"/>
</g>
<defs>
<clipPath id="clip0_884_18890">
<rect width="150" height="74" fill="white"/>
</clipPath>
</defs>
</svg>
