<svg width="103" height="109" viewBox="0 0 103 109" fill="none" xmlns="http://www.w3.org/2000/svg">
<g id="Layer_1" clip-path="url(#clip0_884_18820)">
<path id="Vector" d="M47.8779 0H48.863C49.0658 0.116298 49.2831 0.0436116 49.4859 0.0581488C49.6453 0.0581488 49.8191 0.0581488 49.9785 0.0581488C50.0944 0.0581488 50.2247 0.0581488 50.3406 0.0581488C52.3253 0.174447 54.281 0.421579 56.2222 0.843158C64.3637 2.66031 71.1579 6.74527 76.547 13.1126C81.5449 19.0147 84.3842 25.8472 85.152 33.5519C85.4997 37.0844 85.3403 40.6024 84.6595 44.0914C82.9501 52.8137 78.6765 60.0387 71.8533 65.7082C65.8558 70.6945 58.9312 73.442 51.1519 74.0525C48.0373 74.2997 44.9371 74.1398 41.866 73.5873C38.4181 72.9768 35.1007 71.8865 31.9716 70.3165C25.554 67.0892 20.4547 62.3937 16.7316 56.2445C13.5446 50.9675 11.8207 45.2253 11.473 39.076V38.7126C11.473 38.5527 11.473 38.3782 11.473 38.2183C11.473 37.9712 11.5309 37.7095 11.415 37.4624V36.721C11.5309 36.4739 11.4585 36.2267 11.473 35.9651C11.473 35.8051 11.473 35.6452 11.473 35.4708C11.473 35.34 11.473 35.2237 11.473 35.1074C11.5599 33.581 11.7193 32.0545 11.9945 30.5427C12.8347 25.8472 14.5007 21.4715 17.0359 17.4447C20.7155 11.5862 25.6264 7.07962 31.7977 3.95412C36.3755 1.61363 41.2575 0.334356 46.3858 0.0436116C46.5017 0.0436116 46.6321 0.0436116 46.7479 0.0436116H47.2405C47.4433 0.0436116 47.6606 0.10176 47.8634 0M48.1097 10.4959C47.9938 10.5686 48.0083 10.6848 47.9793 10.7721C47.6896 11.7751 47.2984 12.7346 46.8204 13.665C46.125 15.0315 45.2558 16.2962 44.4591 17.6046C43.445 19.2618 42.7786 21.0063 43.0539 23.0124C43.2132 24.2045 43.7058 25.2075 44.6329 25.978C45.082 26.3414 45.5456 26.6758 46.0236 26.9956C46.7624 27.5044 47.4723 28.0423 47.9503 28.8273C48.0662 29.0163 48.1387 28.9436 48.2256 28.7982C48.4863 28.3766 48.8195 28.0132 49.1962 27.6934C49.7322 27.2427 50.3261 26.8793 50.8911 26.4723C51.7458 25.8617 52.4847 25.1639 52.8323 24.1463C53.3539 22.5763 53.2524 21.0208 52.6585 19.4944C52.2094 18.3314 51.5285 17.2993 50.8622 16.2671C50.0074 14.9443 49.2107 13.5778 48.6457 12.1095C48.4429 11.5862 48.2835 11.0483 48.0952 10.5104M48.8485 40.835C48.8485 40.835 48.8775 40.835 48.9065 40.835C49.0223 40.617 49.1093 40.3989 49.2397 40.1808C49.8771 39.076 50.8477 38.3055 51.8907 37.6514C53.4697 36.6628 55.0923 35.7179 56.6713 34.7294C58.9892 33.2757 60.1336 31.1532 60.1191 28.4057C60.1191 26.5013 60.1191 24.597 60.1191 22.6926V22.4018C59.8873 22.867 59.6411 23.3031 59.3224 23.6957C58.6415 24.5533 57.8013 25.2511 56.9031 25.8762C55.5703 26.8211 54.1072 27.5771 52.7164 28.4202C50.978 29.4815 49.6742 30.9061 49.1382 32.9413C48.9209 33.7699 48.8485 34.6131 48.863 35.4708C48.8775 37.2443 48.863 39.0324 48.863 40.8059M47.3564 40.8059C47.3564 40.8059 47.3564 40.7333 47.3564 40.6896C47.3564 38.7271 47.3854 36.7791 47.3564 34.8166C47.3564 33.9589 47.1825 33.1158 46.8783 32.3162C46.2409 30.6299 45.082 29.3942 43.5609 28.4639C42.1267 27.5771 40.6056 26.8066 39.2294 25.8181C38.3457 25.193 37.5345 24.4807 36.8536 23.6375C36.5638 23.2741 36.3321 22.867 36.1003 22.4454V22.7217C36.1003 24.6696 36.1003 26.6176 36.1003 28.5656C36.1003 29.1907 36.1727 29.8158 36.3321 30.4264C36.8101 32.4034 38.056 33.8135 39.7509 34.8457C41.1126 35.6743 42.4889 36.4739 43.8361 37.3025C45.2703 38.1892 46.6321 39.1632 47.3564 40.8059ZM60.1191 33.6391C59.8584 34.1915 59.5252 34.6858 59.134 35.151C58.4966 35.8924 57.7288 36.5029 56.9321 37.0699C55.5848 38.0148 54.1361 38.7707 52.7309 39.6284C50.2392 41.1403 48.892 43.3354 48.8775 46.2865C48.8775 48.1182 48.8775 49.9498 48.8775 51.7815C48.8775 51.8542 48.8775 51.9269 48.8775 51.9996C49.0948 51.6652 49.2541 51.3163 49.4714 51.0111C50.2103 49.9644 51.2243 49.223 52.2963 48.5688C53.774 47.6675 55.2806 46.7953 56.7437 45.8794C58.8733 44.542 60.0467 42.594 60.1191 40.05C60.1771 37.913 60.1191 35.7615 60.1191 33.6246M36.1148 33.6246V33.9589C36.1148 35.747 36.1148 37.5351 36.1148 39.3377C36.1148 39.9192 36.1437 40.5007 36.2451 41.0822C36.4769 42.5504 37.1433 43.7861 38.1863 44.8182C38.8672 45.4869 39.6785 45.9812 40.4752 46.4755C41.837 47.3186 43.2567 48.0891 44.6039 48.9904C45.7484 49.7609 46.7624 50.6622 47.3129 51.9851C47.3129 51.9851 47.3419 51.9851 47.3709 51.9851C47.3709 51.9414 47.3709 51.8833 47.3709 51.8397C47.3709 50.0371 47.3854 48.2345 47.3709 46.4318C47.3709 45.6904 47.284 44.9345 47.0956 44.2077C46.5596 42.1143 45.2269 40.646 43.4305 39.5703C42.0398 38.7271 40.5766 37.9857 39.2584 37.0263C37.998 36.1104 36.7956 35.1364 36.1148 33.6391M48.9065 63.1787C49.0948 62.8298 49.2686 62.4809 49.5004 62.1611C50.2247 61.158 51.2098 60.4457 52.2384 59.8061C53.687 58.9193 55.1647 58.0471 56.6133 57.1603C58.9747 55.7066 60.1336 53.5842 60.1336 50.8075C60.1336 48.8886 60.1336 46.9843 60.1336 45.0653C60.1336 44.9781 60.1336 44.9054 60.1191 44.7455C59.6266 45.9667 58.8008 46.8244 57.8592 47.5803C56.483 48.6996 54.9474 49.5573 53.4118 50.4296C52.3543 51.0256 51.3547 51.7234 50.5724 52.6683C49.5439 53.8894 48.9934 55.3141 48.9354 56.8986C48.8485 58.992 48.9354 61.0854 48.9354 63.1932M47.3998 63.1932C47.3998 63.1932 47.3998 63.0915 47.3998 63.0479C47.3998 61.1435 47.3998 59.2391 47.3998 57.3348C47.3998 57.044 47.3709 56.7387 47.3274 56.448C47.0232 54.1511 45.8498 52.4212 43.952 51.1419C43.0683 50.5459 42.1267 50.0516 41.1996 49.4992C40.0696 48.8305 38.9686 48.1182 37.9835 47.2459C37.2302 46.5772 36.5783 45.8213 36.1437 44.8764V45.138C36.1437 47.1006 36.1437 49.0485 36.1437 51.0111C36.1437 51.3745 36.1727 51.7379 36.2307 52.0868C36.5349 54.2965 37.6938 55.9537 39.5481 57.1458C41.0692 58.1052 42.6193 58.992 44.1548 59.9369C45.082 60.5039 45.9367 61.1435 46.6176 62.0012C46.9218 62.3792 47.1246 62.8153 47.3998 63.2223" fill="#F7B949"/>
<path id="Vector_2" d="M11.473 35.9505C11.473 36.1976 11.5309 36.4593 11.415 36.7065V35.9651C11.415 35.9651 11.4585 35.9651 11.473 35.9651" fill="#F9C465"/>
<path id="Vector_3" d="M11.415 37.4479C11.5309 37.695 11.4585 37.9421 11.473 38.2038C11.4585 38.2038 11.4295 38.2038 11.415 38.2038V37.4624V37.4479Z" fill="#F9C465"/>
<path id="Vector_4" d="M47.8788 0C47.676 0.116298 47.4587 0.0436116 47.2559 0.0581488C47.2559 0.0436116 47.2559 0.0145372 47.2559 0H47.8788Z" fill="#F9C567"/>
<path id="Vector_5" d="M49.4716 0.0581488C49.2687 0.0581488 49.0514 0.116298 48.8486 0H49.4716C49.4716 0 49.4716 0.0436116 49.4716 0.0581488Z" fill="#F9C567"/>
<path id="Vector_6" d="M47.2552 0C47.2552 0 47.2552 0.0436116 47.2552 0.0581488C47.0959 0.0581488 46.922 0.0581488 46.7627 0.0581488C46.7627 0.0436116 46.7627 0.0290744 46.7627 0H47.2552Z" fill="#FBD899"/>
<path id="Vector_7" d="M49.4717 0.0581488C49.4717 0.0581488 49.4717 0.0145372 49.4717 0H49.9642C49.9642 0 49.9642 0.0290744 49.9642 0.0581488C49.8049 0.0581488 49.631 0.0581488 49.4717 0.0581488Z" fill="#FBD899"/>
<path id="Vector_8" d="M11.473 35.9505C11.473 35.9505 11.4295 35.9505 11.415 35.9505V35.4563C11.415 35.4563 11.444 35.4563 11.473 35.4563C11.473 35.6162 11.473 35.7906 11.473 35.9505Z" fill="#FBD99C"/>
<path id="Vector_9" d="M11.415 38.1893C11.415 38.1893 11.4585 38.1893 11.473 38.1893C11.473 38.3492 11.473 38.5236 11.473 38.6835C11.4585 38.6835 11.444 38.6835 11.415 38.6835V38.1893Z" fill="#FBD99C"/>
<path id="Vector_10" d="M46.7626 0C46.7626 0 46.7626 0.0290744 46.7626 0.0581488C46.6467 0.0581488 46.5163 0.0581488 46.4004 0.0581488C46.4004 0.0436116 46.4004 0.0290744 46.4004 0.0145372H46.7626V0Z" fill="#FCEDD1"/>
<path id="Vector_11" d="M49.9648 0.0581488C49.9648 0.0581488 49.9648 0.0290744 49.9648 0H50.327C50.327 0 50.327 0.0290744 50.327 0.0581488C50.2111 0.0581488 50.0807 0.0581488 49.9648 0.0581488Z" fill="#FCEDD2"/>
<path id="Vector_12" d="M11.473 35.4708C11.473 35.4708 11.444 35.4708 11.415 35.4708V35.0928C11.415 35.0928 11.444 35.0928 11.4585 35.0928C11.4585 35.2237 11.4585 35.34 11.4585 35.4562" fill="#FDEDD0"/>
<path id="Vector_13" d="M11.415 38.6835C11.415 38.6835 11.444 38.6835 11.473 38.6835C11.473 38.7998 11.473 38.9306 11.473 39.0469H11.415V38.669V38.6835Z" fill="#FDEBCC"/>
<path id="Vector_14" d="M48.1242 10.4959C48.3125 11.0337 48.4719 11.5716 48.6747 12.095C49.2542 13.5632 50.0509 14.9297 50.8911 16.2526C51.5575 17.2993 52.2384 18.3314 52.6875 19.4799C53.2814 21.0063 53.3828 22.5617 52.8613 24.1318C52.5137 25.1639 51.7748 25.8472 50.9201 26.4577C50.3551 26.8648 49.7612 27.2282 49.2252 27.6788C48.8485 27.9987 48.5153 28.3621 48.2546 28.7837C48.1677 28.929 48.1097 29.0017 47.9793 28.8127C47.5013 28.0277 46.7914 27.4899 46.0526 26.9811C45.5745 26.6612 45.0965 26.3269 44.6619 25.9635C43.7203 25.193 43.2422 24.1754 43.0828 22.9979C42.8076 20.9917 43.474 19.2473 44.488 17.59C45.2848 16.2817 46.154 15.0169 46.8494 13.6504C47.3274 12.7201 47.7186 11.7606 48.0083 10.7575C48.0373 10.6703 48.0228 10.554 48.1387 10.4813" fill="#DA9722"/>
<path id="Vector_15" d="M48.8631 40.8205C48.8631 39.0469 48.8631 37.2589 48.8631 35.4853C48.8631 34.6276 48.9211 33.7845 49.1384 32.9559C49.6744 30.9352 50.9782 29.496 52.7166 28.4348C54.1073 27.5771 55.5559 26.8357 56.9032 25.8908C57.7869 25.2657 58.6416 24.5824 59.3225 23.7102C59.6412 23.3177 59.8874 22.8816 60.1192 22.4164V22.7071C60.1192 24.6115 60.1192 26.5159 60.1192 28.4202C60.1192 31.1678 58.9893 33.2902 56.6714 34.7439C55.0924 35.7325 53.4699 36.6774 51.8908 37.6659C50.8478 38.3201 49.8772 39.0906 49.2398 40.1954C49.1239 40.4134 49.0225 40.6315 48.9066 40.8496C48.8921 40.8496 48.8776 40.8496 48.8486 40.8496" fill="#FEFEFE"/>
<path id="Vector_16" d="M47.3567 40.8205C46.6324 39.1778 45.2706 38.2038 43.8365 37.317C42.4747 36.4884 41.0985 35.6888 39.7512 34.8602C38.0563 33.8281 36.8249 32.418 36.3324 30.4409C36.1875 29.8304 36.1006 29.2053 36.1006 28.5802C36.1006 26.6322 36.1006 24.6842 36.1006 22.7362V22.46C36.3324 22.867 36.5642 23.2886 36.8539 23.652C37.5348 24.4952 38.346 25.2075 39.2297 25.8326C40.6204 26.8066 42.127 27.5916 43.5612 28.4784C45.0678 29.4088 46.2412 30.6444 46.8786 32.3308C47.1829 33.1303 47.3422 33.988 47.3567 34.8312C47.3857 36.7937 47.3567 38.7417 47.3567 40.7042C47.3567 40.7478 47.3567 40.7769 47.3567 40.8205Z" fill="#DA9722"/>
<path id="Vector_17" d="M60.1192 33.6536C60.1192 35.7906 60.1626 37.9421 60.1192 40.0791C60.0612 42.6086 58.8733 44.5565 56.7438 45.9085C55.2806 46.8389 53.774 47.6966 52.2964 48.6124C51.2244 49.2666 50.2103 49.9935 49.4715 51.0547C49.2542 51.36 49.0948 51.7089 48.8775 52.0432V51.8106C48.8775 49.9789 48.863 48.1472 48.8775 46.3156C48.892 43.3645 50.2393 41.1694 52.7455 39.6575C54.1507 38.7998 55.6138 38.0584 56.9466 37.099C57.7434 36.532 58.5111 35.9214 59.1486 35.18C59.5397 34.7149 59.8729 34.2206 60.1336 33.6682" fill="#3B5FAC"/>
<path id="Vector_18" d="M36.1152 33.6536C36.7961 35.151 37.9985 36.1395 39.2588 37.0408C40.5916 38.0003 42.0403 38.7417 43.4455 39.5848C45.2418 40.6606 46.5746 42.1288 47.1106 44.2222C47.2989 44.9491 47.3714 45.705 47.3858 46.4464C47.4148 48.249 47.3858 50.0516 47.3858 51.8542C47.3858 51.9124 47.3858 51.956 47.3858 51.9996C47.3569 51.9996 47.3279 51.9996 47.3279 51.9996C46.7774 50.6767 45.7633 49.7899 44.6189 49.0049C43.2861 48.1036 41.8664 47.3332 40.4902 46.49C39.6934 45.9957 38.8677 45.5015 38.2013 44.8328C37.1583 43.8006 36.4919 42.5504 36.2601 41.0967C36.1587 40.5152 36.1297 39.9337 36.1297 39.3377C36.1297 37.5496 36.1297 35.7615 36.1297 33.9589V33.6246" fill="#DA9722"/>
<path id="Vector_19" d="M48.9068 63.1932C48.9068 61.0999 48.8199 58.992 48.9068 56.8986C48.9792 55.3141 49.5152 53.8894 50.5438 52.6683C51.3406 51.7234 52.3256 51.0401 53.3832 50.4296C54.9188 49.5573 56.4543 48.6996 57.8306 47.5803C58.7577 46.8243 59.5979 45.9812 60.0905 44.7455C60.0905 44.9054 60.105 44.9927 60.105 45.0653C60.105 46.9843 60.105 48.8886 60.105 50.8075C60.105 53.5842 58.946 55.7066 56.5847 57.1603C55.1361 58.0471 53.6584 58.9193 52.2098 59.8061C51.1812 60.4457 50.1961 61.158 49.4718 62.1611C49.24 62.4809 49.0662 62.8298 48.8778 63.1787" fill="#FC2029"/>
<path id="Vector_20" d="M47.3714 63.1787C47.0961 62.7717 46.8933 62.3355 46.5891 61.9576C45.9082 61.0999 45.039 60.4602 44.1263 59.8933C42.5908 58.9484 41.0262 58.0761 39.5196 57.1022C37.6653 55.9101 36.5064 54.2529 36.2022 52.0432C36.1587 51.6943 36.1152 51.3309 36.1152 50.9675C36.1152 49.0049 36.1152 47.0569 36.1152 45.0944V44.8327C36.5353 45.7777 37.2017 46.5336 37.955 47.2023C38.9401 48.0745 40.0411 48.7869 41.1711 49.4556C42.0837 50.008 43.0254 50.5023 43.9235 51.0983C45.8213 52.3776 46.9947 54.122 47.2989 56.4044C47.3424 56.6951 47.3714 57.0004 47.3714 57.2911C47.3714 59.1955 47.3714 61.0999 47.3714 63.0043C47.3714 63.0479 47.3714 63.106 47.3714 63.1496" fill="#DA9722"/>
<path id="Vector_21" d="M17.7314 87.2087V81.2921H18.166L20.5853 86.5255L22.9756 81.2921H23.4247V87.1942H22.9611V82.3824L20.7736 87.2087H20.3825L18.1805 82.3824V87.2087H17.7314Z" fill="black"/>
<path id="Vector_22" d="M28.9298 87.2087H28.4518V82.1352L25.0474 87.2087H24.5693V81.2921H25.0474V86.3656L28.4518 81.2921H28.9298V87.2087Z" fill="black"/>
<path id="Vector_23" d="M30.0742 87.2087V81.2921H30.5523V84.0251H33.9566V81.2921H34.4347V87.2087H33.9566V84.4757H30.5523V87.2087H30.0742Z" fill="black"/>
<path id="Vector_24" d="M39.9396 87.2087H39.4615V82.1352L36.0572 87.2087H35.5791V81.2921H36.0572V86.3656L39.4615 81.2921H39.9396V87.2087Z" fill="black"/>
<path id="Vector_25" d="M43.4457 87.325C42.8662 87.325 42.3592 87.1942 41.968 86.9325C41.5624 86.6708 41.2727 86.3074 41.0698 85.8422C40.867 85.377 40.7656 84.8537 40.7656 84.2431C40.7656 83.6326 40.867 83.1092 41.0698 82.644C41.2727 82.1788 41.5769 81.8154 41.968 81.5537C42.3592 81.2921 42.8517 81.1612 43.4457 81.1612C44.1265 81.1612 44.6915 81.3357 45.1116 81.6991C45.5317 82.048 45.8359 82.5277 45.9808 83.1238L45.4883 83.2401C45.3579 82.7458 45.1261 82.3533 44.7929 82.0625C44.4452 81.7718 43.9961 81.6264 43.4457 81.6264C42.9676 81.6264 42.562 81.7427 42.2433 81.9608C41.9246 82.1788 41.6783 82.4841 41.5189 82.8912C41.3596 83.2837 41.2727 83.7343 41.2727 84.2431C41.2727 84.7519 41.3451 85.2026 41.5044 85.5951C41.6638 85.9876 41.9101 86.2929 42.2288 86.5255C42.5475 86.7435 42.9531 86.8598 43.4457 86.8598C43.9961 86.8598 44.4452 86.7145 44.7929 86.4237C45.1406 86.133 45.3724 85.7405 45.4883 85.2462L45.9808 85.3625C45.8359 85.9585 45.5317 86.4382 45.1116 86.7871C44.6915 87.136 44.1265 87.325 43.4457 87.325Z" fill="black"/>
<path id="Vector_26" d="M48.5008 87.2087V81.7573H46.3857V81.2921H51.0794V81.7573H48.9644V87.2087H48.5008Z" fill="black"/>
<path id="Vector_27" d="M51.7314 87.2087V81.2921H55.3821V81.7573H52.2095V83.996H54.8895V84.4612H52.2095V86.7435H55.3821V87.2087H51.7314Z" fill="black"/>
<path id="Vector_28" d="M56.3535 87.2087V81.2921H58.57C58.57 81.2921 58.6859 81.2921 58.7583 81.2921C58.8307 81.2921 58.9032 81.2921 58.9756 81.3211C59.2653 81.3648 59.5261 81.4665 59.7289 81.641C59.9462 81.8009 60.1056 82.0189 60.207 82.2661C60.3229 82.5132 60.3808 82.7894 60.3808 83.0947C60.3808 83.4 60.3229 83.6762 60.207 83.9233C60.0911 84.1704 59.9317 84.3885 59.7289 84.5484C59.5116 84.7083 59.2653 84.8246 58.9756 84.8682C58.9032 84.8682 58.8307 84.8828 58.7583 84.8973C58.6859 84.8973 58.6279 84.8973 58.57 84.8973H56.8171V87.1942H56.3535V87.2087ZM56.8171 84.4466H58.5555C58.5555 84.4466 58.6569 84.4466 58.7293 84.4466C58.7873 84.4466 58.8597 84.4466 58.9176 84.4176C59.1349 84.374 59.3088 84.2867 59.4537 84.1559C59.5985 84.0251 59.6999 83.8652 59.7724 83.6907C59.8448 83.5017 59.8738 83.3127 59.8738 83.1092C59.8738 82.9057 59.8448 82.7167 59.7724 82.5277C59.6999 82.3388 59.5985 82.1934 59.4537 82.0625C59.3088 81.9317 59.1349 81.8445 58.9176 81.8009C58.8597 81.8009 58.7873 81.7718 58.7293 81.7718C58.6714 81.7718 58.6134 81.7718 58.5555 81.7718H56.8171V84.4612V84.4466Z" fill="black"/>
<path id="Vector_29" d="M63.5531 87.325C62.9736 87.325 62.4811 87.1942 62.0754 86.9325C61.6843 86.6708 61.3801 86.3074 61.1773 85.8422C60.9745 85.377 60.873 84.8537 60.873 84.2431C60.873 83.6326 60.9745 83.1092 61.1773 82.644C61.3801 82.1788 61.6843 81.8154 62.0754 81.5537C62.4811 81.2921 62.9736 81.1612 63.5531 81.1612C64.2339 81.1612 64.7989 81.3357 65.219 81.6991C65.6392 82.048 65.9289 82.5277 66.0882 83.1238L65.5957 83.2401C65.4653 82.7458 65.2335 82.3533 64.9003 82.0625C64.5527 81.7718 64.1036 81.6264 63.5531 81.6264C63.075 81.6264 62.6694 81.7427 62.3507 81.9608C62.032 82.1788 61.7857 82.4841 61.6264 82.8912C61.467 83.2837 61.3801 83.7343 61.3801 84.2431C61.3801 84.7519 61.4525 85.2026 61.6119 85.5951C61.7712 85.9876 62.0175 86.2929 62.3362 86.5255C62.6549 86.7435 63.0605 86.8598 63.5531 86.8598C64.1036 86.8598 64.5527 86.7145 64.9003 86.4237C65.248 86.133 65.4798 85.7405 65.5957 85.2462L66.0882 85.3625C65.9289 85.9585 65.6392 86.4382 65.219 86.7871C64.7989 87.136 64.2339 87.325 63.5531 87.325Z" fill="black"/>
<path id="Vector_30" d="M68.6229 87.2087V81.7573H66.5078V81.2921H71.2015V81.7573H69.0864V87.2087H68.6229Z" fill="black"/>
<path id="Vector_31" d="M71.8535 87.2087V81.2921H74.1134C74.4177 81.2921 74.6929 81.3502 74.9392 81.4811C75.1854 81.6119 75.3738 81.7863 75.5186 82.0189C75.6635 82.237 75.7359 82.4987 75.7359 82.7749C75.7359 83.0947 75.649 83.3854 75.4752 83.6326C75.3013 83.8797 75.0696 84.0687 74.7798 84.1704V83.9669C75.1565 84.0832 75.4607 84.2722 75.678 84.5484C75.9098 84.8246 76.0257 85.159 76.0257 85.566C76.0257 85.9004 75.9532 86.1911 75.8084 86.4382C75.6635 86.6854 75.4607 86.8744 75.1854 86.9907C74.9247 87.1215 74.6205 87.1796 74.2873 87.1796H71.8535V87.2087ZM72.3316 83.8652H74.1134C74.3162 83.8652 74.5046 83.8215 74.6784 83.7198C74.8523 83.618 74.9826 83.4872 75.084 83.3273C75.1854 83.1674 75.2289 82.9784 75.2289 82.7603C75.2289 82.455 75.1275 82.2079 74.9102 82.0189C74.6929 81.8299 74.4321 81.7427 74.1134 81.7427H72.3316V83.8652ZM72.3316 86.7435H74.1279C74.3887 86.7435 74.6205 86.6999 74.8378 86.6127C75.0406 86.5255 75.2144 86.3946 75.3303 86.2202C75.4462 86.0457 75.5186 85.8422 75.5186 85.6096C75.5186 85.377 75.4607 85.159 75.3448 84.9554C75.2289 84.7665 75.084 84.6066 74.8957 84.4903C74.7074 84.374 74.4901 84.3158 74.2583 84.3158H72.3316V86.729V86.7435Z" fill="black"/>
<path id="Vector_32" d="M79.1693 87.325C78.5898 87.325 78.0973 87.1942 77.6917 86.9325C77.3005 86.6708 76.9963 86.3074 76.7935 85.8422C76.5907 85.377 76.4893 84.8537 76.4893 84.2431C76.4893 83.6326 76.5907 83.1092 76.7935 82.644C76.9963 82.1788 77.3005 81.8154 77.6917 81.5537C78.0973 81.2921 78.5898 81.1612 79.1693 81.1612C79.7488 81.1612 80.2413 81.2921 80.6469 81.5537C81.0381 81.8154 81.3423 82.1788 81.5451 82.644C81.7479 83.1092 81.8493 83.6471 81.8493 84.2431C81.8493 84.8392 81.7479 85.377 81.5451 85.8422C81.3423 86.3074 81.0381 86.6708 80.6469 86.9325C80.2558 87.1942 79.7632 87.325 79.1693 87.325ZM79.1693 86.8598C79.6473 86.8598 80.053 86.7581 80.3717 86.5255C80.6904 86.3074 80.9367 85.9876 81.096 85.5951C81.2554 85.2026 81.3423 84.7519 81.3423 84.2431C81.3423 83.7343 81.2554 83.2837 81.096 82.8912C80.9367 82.4987 80.6904 82.1934 80.3717 81.9608C80.053 81.7427 79.6473 81.6264 79.1693 81.6264C78.6912 81.6264 78.2856 81.7282 77.9669 81.9608C77.6482 82.1788 77.4019 82.4841 77.2426 82.8912C77.0832 83.2837 76.9963 83.7343 76.9963 84.2577C76.9963 84.7665 77.0687 85.2171 77.2281 85.6096C77.3874 86.0021 77.6337 86.3074 77.9524 86.54C78.2711 86.7581 78.6767 86.8744 79.1693 86.8744" fill="black"/>
<path id="Vector_33" d="M6.15659 97.7337C5.57713 97.7337 5.07009 97.6028 4.67895 97.3412C4.27333 97.0795 3.98359 96.7161 3.78078 96.2509C3.57797 95.7857 3.47656 95.2623 3.47656 94.6518C3.47656 94.0412 3.57797 93.5179 3.78078 93.0527C3.98359 92.5875 4.28781 92.2241 4.67895 91.9624C5.07009 91.7007 5.56264 91.5699 6.15659 91.5699C6.83746 91.5699 7.40244 91.7443 7.82255 92.1078C8.24267 92.4567 8.54689 92.9364 8.69175 93.5324L8.19921 93.6487C8.06883 93.1544 7.83704 92.7619 7.50385 92.4712C7.15617 92.1804 6.70708 92.0351 6.15659 92.0351C5.67853 92.0351 5.27291 92.1514 4.9542 92.3694C4.63549 92.5875 4.38922 92.8928 4.22987 93.2998C4.07051 93.6923 3.98359 94.143 3.98359 94.6518C3.98359 95.1606 4.05603 95.6112 4.21538 96.0037C4.37473 96.3962 4.62101 96.7015 4.93971 96.9341C5.25842 97.1522 5.66404 97.2685 6.15659 97.2685C6.70708 97.2685 7.15617 97.1231 7.50385 96.8324C7.85153 96.5416 8.08331 96.1491 8.19921 95.6548L8.69175 95.7711C8.54689 96.3672 8.24267 96.8469 7.82255 97.1958C7.40244 97.5447 6.83746 97.7337 6.15659 97.7337Z" fill="black"/>
<path id="Vector_34" d="M9.58984 97.6174V91.7007H13.226V92.1514H10.0534V94.4046H12.7334V94.8698H10.0534V97.1522H13.226V97.6174H9.58984Z" fill="black"/>
<path id="Vector_35" d="M13.8057 97.6174V97.1813C13.965 97.1958 14.0954 97.1958 14.1968 97.1813C14.2982 97.1522 14.3706 97.094 14.4431 96.9923C14.501 96.8905 14.559 96.7451 14.6024 96.5562C14.6459 96.3672 14.6893 96.1055 14.7328 95.7857C14.7763 95.4659 14.8197 95.1606 14.8632 94.8553C14.8922 94.55 14.9356 94.2447 14.9646 93.9104C14.9936 93.5906 15.0225 93.2417 15.037 92.8928C15.066 92.5293 15.0805 92.1368 15.095 91.7298H18.7311V97.6464H18.2531V92.195H15.5585C15.5441 92.5148 15.5151 92.8201 15.5006 93.1399C15.4861 93.4452 15.4571 93.7505 15.4427 94.0703C15.4282 94.3901 15.3847 94.6954 15.3557 95.0298C15.3268 95.3641 15.2833 95.6985 15.2254 96.0619C15.1819 96.3236 15.1384 96.5562 15.0805 96.7888C15.0225 97.0068 14.9501 97.1958 14.8487 97.3557C14.7473 97.5156 14.6169 97.6174 14.4576 97.6755C14.2982 97.7337 14.0809 97.7337 13.8057 97.661" fill="black"/>
<path id="Vector_36" d="M19.876 97.6174V91.7007H20.3395V94.0121H22.0924C22.0924 94.0121 22.2083 94.0121 22.2808 94.0121C22.3387 94.0121 22.4111 94.0121 22.4836 94.0412C22.7733 94.0848 23.0341 94.2011 23.2369 94.361C23.4542 94.5209 23.6135 94.739 23.7294 94.9861C23.8453 95.2332 23.9033 95.5095 23.9033 95.8147C23.9033 96.12 23.8453 96.3962 23.7294 96.6434C23.6135 96.8905 23.4542 97.1086 23.2514 97.2685C23.0341 97.4284 22.7878 97.5447 22.4836 97.5883C22.4111 97.5883 22.3387 97.6028 22.2808 97.6174C22.2228 97.6174 22.1504 97.6174 22.0924 97.6174H19.876ZM20.3395 97.1522H22.0779C22.0779 97.1522 22.1794 97.1522 22.2518 97.1522C22.3097 97.1522 22.3822 97.1522 22.4401 97.1231C22.6574 97.0795 22.8312 96.9923 22.9761 96.8614C23.121 96.7306 23.2224 96.5707 23.2948 96.3962C23.3673 96.2218 23.3962 96.0183 23.3962 95.8147C23.3962 95.6112 23.3673 95.4222 23.2948 95.2333C23.2224 95.0443 23.121 94.8989 22.9761 94.7681C22.8312 94.6372 22.6574 94.55 22.4401 94.5064C22.3822 94.5064 22.3097 94.4919 22.2518 94.4773C22.1938 94.4773 22.1359 94.4773 22.0779 94.4773H20.3395V97.1667V97.1522Z" fill="black"/>
<path id="Vector_37" d="M27.1478 97.7337C26.5683 97.7337 26.0613 97.6028 25.6702 97.3412C25.2645 97.0795 24.9748 96.7161 24.772 96.2509C24.5692 95.7857 24.4678 95.2623 24.4678 94.6518C24.4678 94.0412 24.5692 93.5179 24.772 93.0527C24.9748 92.5875 25.279 92.2241 25.6702 91.9624C26.0613 91.7007 26.5538 91.5699 27.1478 91.5699C27.8287 91.5699 28.3937 91.7443 28.8138 92.1078C29.2339 92.4567 29.5381 92.9364 29.683 93.5324L29.1904 93.6487C29.06 93.1544 28.8283 92.7619 28.4951 92.4712C28.1474 92.1804 27.6983 92.0351 27.1478 92.0351C26.6697 92.0351 26.2641 92.1514 25.9454 92.3694C25.6267 92.5875 25.3804 92.8928 25.2211 93.2998C25.0617 93.6923 24.9748 94.143 24.9748 94.6518C24.9748 95.1606 25.0472 95.6112 25.2066 96.0037C25.3659 96.3962 25.6122 96.7015 25.9309 96.9341C26.2496 97.1522 26.6553 97.2685 27.1478 97.2685C27.6983 97.2685 28.1474 97.1231 28.4951 96.8324C28.8427 96.5416 29.0745 96.1491 29.1904 95.6548L29.683 95.7711C29.5381 96.3672 29.2339 96.8469 28.8138 97.1958C28.3937 97.5447 27.8287 97.7337 27.1478 97.7337Z" fill="black"/>
<path id="Vector_38" d="M30.5957 97.6174V91.7007H31.0593V94.5064L33.8697 91.7007H34.4926L31.6677 94.5355L34.7389 97.6174H34.1015L31.0593 94.5936V97.6174H30.5957Z" fill="black"/>
<path id="Vector_39" d="M37.4046 97.7337C36.8252 97.7337 36.3181 97.6028 35.927 97.3412C35.5214 97.0795 35.2316 96.7161 35.0288 96.2509C34.826 95.7857 34.7246 95.2623 34.7246 94.6518C34.7246 94.0412 34.826 93.5179 35.0288 93.0527C35.2316 92.5875 35.5359 92.2241 35.927 91.9624C36.3181 91.7007 36.8107 91.5699 37.4046 91.5699C37.9986 91.5699 38.4766 91.7007 38.8823 91.9624C39.2734 92.2241 39.5776 92.5875 39.7804 93.0527C39.9833 93.5179 40.0847 94.0557 40.0847 94.6518C40.0847 95.2478 39.9833 95.7857 39.7804 96.2509C39.5776 96.7161 39.2734 97.0795 38.8823 97.3412C38.4911 97.6028 37.9986 97.7337 37.4046 97.7337ZM37.4046 97.2685C37.8827 97.2685 38.2883 97.1667 38.607 96.9341C38.9257 96.7161 39.172 96.3962 39.3314 96.0037C39.4907 95.6112 39.5776 95.1606 39.5776 94.6518C39.5776 94.143 39.4907 93.6923 39.3314 93.2998C39.172 92.9073 38.9257 92.602 38.607 92.3694C38.2883 92.1514 37.8827 92.0351 37.4046 92.0351C36.9266 92.0351 36.521 92.1368 36.2022 92.3694C35.8835 92.5875 35.6373 92.8928 35.4779 93.2998C35.3186 93.6923 35.2316 94.143 35.2316 94.6663C35.2316 95.1751 35.3041 95.6258 35.4634 96.0183C35.6228 96.4108 35.8691 96.7161 36.1878 96.9487C36.5065 97.1667 36.9121 97.283 37.4046 97.283" fill="black"/>
<path id="Vector_40" d="M40.8955 97.6174V91.7007H44.5317V92.1514H41.3591V97.6174H40.8955Z" fill="black"/>
<path id="Vector_41" d="M47.5453 97.7337C46.9658 97.7337 46.4588 97.6028 46.0676 97.3412C45.662 97.0795 45.3723 96.7161 45.1695 96.2509C44.9666 95.7857 44.8652 95.2623 44.8652 94.6518C44.8652 94.0412 44.9666 93.5179 45.1695 93.0527C45.3723 92.5875 45.6765 92.2241 46.0676 91.9624C46.4588 91.7007 46.9513 91.5699 47.5453 91.5699C48.1392 91.5699 48.6173 91.7007 49.0229 91.9624C49.414 92.2241 49.7183 92.5875 49.9211 93.0527C50.1239 93.5179 50.2253 94.0557 50.2253 94.6518C50.2253 95.2478 50.1239 95.7857 49.9211 96.2509C49.7183 96.7161 49.414 97.0795 49.0229 97.3412C48.6318 97.6028 48.1392 97.7337 47.5453 97.7337ZM47.5453 97.2685C48.0233 97.2685 48.429 97.1667 48.7477 96.9341C49.0664 96.7161 49.3126 96.3962 49.472 96.0037C49.6313 95.6112 49.7183 95.1606 49.7183 94.6518C49.7183 94.143 49.6313 93.6923 49.472 93.2998C49.3126 92.9073 49.0664 92.602 48.7477 92.3694C48.429 92.1514 48.0233 92.0351 47.5453 92.0351C47.0672 92.0351 46.6616 92.1368 46.3429 92.3694C46.0242 92.5875 45.7779 92.8928 45.6185 93.2998C45.4592 93.6923 45.3723 94.143 45.3723 94.6663C45.3723 95.1751 45.4447 95.6258 45.6041 96.0183C45.7634 96.4108 46.0097 96.7161 46.3284 96.9487C46.6471 97.1667 47.0527 97.283 47.5453 97.283" fill="black"/>
<path id="Vector_42" d="M52.1807 97.6174L54.2378 94.6082L52.2386 91.7007H52.8036L54.513 94.2302L56.2224 91.7007H56.8019L54.7883 94.6082L56.8454 97.6174H56.2804L54.513 95.0152L52.7601 97.6174H52.1807Z" fill="black"/>
<path id="Vector_43" d="M59.6126 97.7337C59.0332 97.7337 58.5406 97.6028 58.135 97.3412C57.7439 97.0795 57.4396 96.7161 57.2368 96.2509C57.034 95.7857 56.9326 95.2623 56.9326 94.6518C56.9326 94.0412 57.034 93.5179 57.2368 93.0527C57.4396 92.5875 57.7439 92.2241 58.135 91.9624C58.5406 91.7007 59.0332 91.5699 59.6126 91.5699C60.1921 91.5699 60.6847 91.7007 61.0903 91.9624C61.4814 92.2241 61.7856 92.5875 61.9885 93.0527C62.1913 93.5179 62.2927 94.0557 62.2927 94.6518C62.2927 95.2478 62.1913 95.7857 61.9885 96.2509C61.7856 96.7161 61.4814 97.0795 61.0903 97.3412C60.6991 97.6028 60.2066 97.7337 59.6126 97.7337ZM59.6126 97.2685C60.0907 97.2685 60.4963 97.1667 60.815 96.9341C61.1337 96.7161 61.38 96.3962 61.5394 96.0037C61.6987 95.6112 61.7856 95.1606 61.7856 94.6518C61.7856 94.143 61.6987 93.6923 61.5394 93.2998C61.38 92.9073 61.1337 92.602 60.815 92.3694C60.4963 92.1514 60.0907 92.0351 59.6126 92.0351C59.1346 92.0351 58.729 92.1368 58.4103 92.3694C58.0915 92.5875 57.8453 92.8928 57.6859 93.2998C57.5266 93.6923 57.4397 94.143 57.4397 94.6663C57.4397 95.1751 57.5121 95.6258 57.6714 96.0183C57.8308 96.4108 58.0771 96.7161 58.3958 96.9487C58.7145 97.1667 59.1201 97.283 59.6126 97.283" fill="black"/>
<path id="Vector_44" d="M64.9145 97.7337C64.5234 97.7337 64.1757 97.6755 63.886 97.5592C63.5962 97.4429 63.3645 97.283 63.1761 97.094C62.9878 96.905 62.8574 96.687 62.7705 96.4544L63.2196 96.2218C63.2775 96.4253 63.3934 96.5998 63.5383 96.7597C63.6832 96.9196 63.8715 97.0359 64.1033 97.1376C64.3351 97.2249 64.6103 97.2685 64.9145 97.2685C65.2477 97.2685 65.523 97.2103 65.7548 97.1086C65.9865 97.0068 66.1604 96.8469 66.2908 96.6579C66.4211 96.4689 66.4791 96.2363 66.4791 95.9601C66.4791 95.6694 66.4067 95.4513 66.2763 95.2914C66.1459 95.1315 65.9721 95.0152 65.7403 94.9571C65.5085 94.8844 65.2622 94.8553 64.9725 94.8408C64.7697 94.8408 64.6248 94.8262 64.5524 94.8262C64.4654 94.8262 64.4075 94.8262 64.3785 94.8262H64.2916V94.361H64.451C64.5379 94.361 64.6248 94.361 64.7262 94.361C64.8276 94.361 64.9 94.361 64.958 94.361C65.3781 94.3465 65.6968 94.2302 65.9286 94.0267C66.1604 93.8231 66.2763 93.5469 66.2763 93.2126C66.2763 92.8492 66.1459 92.573 65.8996 92.3694C65.6533 92.1659 65.3202 92.0641 64.929 92.0641C64.5524 92.0641 64.2481 92.1514 63.9874 92.3404C63.7411 92.5293 63.5383 92.7765 63.3645 93.0963L62.9299 92.8346C63.1182 92.4712 63.3645 92.1804 63.7121 91.9478C64.0453 91.7153 64.451 91.599 64.929 91.599C65.1753 91.599 65.4071 91.628 65.6244 91.7007C65.8417 91.7734 66.0445 91.8752 66.2183 92.006C66.3922 92.1368 66.5225 92.3113 66.624 92.5148C66.7254 92.7183 66.7688 92.9509 66.7688 93.2126C66.7688 93.5469 66.6964 93.8377 66.537 94.0848C66.3777 94.332 66.1894 94.5064 65.9576 94.6227C66.2618 94.7099 66.5081 94.8698 66.6964 95.1024C66.8702 95.335 66.9716 95.6403 66.9716 96.0183C66.9716 96.3672 66.8847 96.687 66.7254 96.9487C66.5515 97.2103 66.3197 97.4138 66.001 97.5592C65.6823 97.7046 65.3202 97.7773 64.8856 97.7773" fill="black"/>
<path id="Vector_45" d="M68.1452 97.6174H67.5947L68.8696 94.9861L69.3042 95.2042L68.1452 97.6028V97.6174ZM71.7814 97.6174H71.3033V95.3205H69.2027L69.0724 95.2623C68.6523 95.1751 68.3335 94.9716 68.1018 94.6518C67.87 94.332 67.7541 93.954 67.7541 93.5179C67.7541 93.2126 67.812 92.9364 67.9279 92.6892C68.0438 92.4421 68.2032 92.2241 68.4205 92.0642C68.6378 91.9042 68.884 91.7879 69.1738 91.7443C69.2462 91.7443 69.3186 91.7153 69.3766 91.7153C69.449 91.7153 69.507 91.7153 69.5649 91.7153H71.7814V97.6319V97.6174ZM71.3033 94.8553V92.1659H69.5649C69.5649 92.1659 69.4635 92.1659 69.4056 92.1659C69.3331 92.1659 69.2752 92.1804 69.2027 92.195C68.9854 92.2386 68.8116 92.3258 68.6667 92.4567C68.5219 92.5875 68.4205 92.7474 68.348 92.9218C68.2756 93.0963 68.2466 93.2998 68.2466 93.5033C68.2466 93.7069 68.2756 93.8958 68.348 94.0848C68.4205 94.2738 68.5219 94.4192 68.6667 94.55C68.8116 94.6808 68.9854 94.7681 69.2027 94.8117C69.2607 94.8117 69.3331 94.8262 69.4056 94.8408C69.4635 94.8408 69.5215 94.8408 69.5649 94.8408H71.3033V94.8553Z" fill="black"/>
<path id="Vector_46" d="M72.9111 97.6174V91.7007H73.3892V96.7742L76.808 91.7007H77.2861V97.6174H76.808V92.5439L73.3892 97.6174H72.9111ZM75.1566 91.1774C74.9682 91.1774 74.8089 91.1338 74.664 91.0465C74.5191 90.9593 74.3888 90.8285 74.3018 90.6831C74.2149 90.5377 74.1715 90.3633 74.1715 90.1888H74.5771C74.5771 90.3488 74.635 90.4796 74.7509 90.5959C74.8668 90.7122 75.0117 90.7703 75.1566 90.7703C75.3014 90.7703 75.4608 90.7122 75.5767 90.5959C75.6926 90.4796 75.7505 90.3488 75.7505 90.1888H76.1561C76.1561 90.3778 76.1127 90.5377 76.0258 90.6831C75.9388 90.8285 75.8229 90.9593 75.6636 91.0465C75.5187 91.1338 75.3449 91.1774 75.1566 91.1774Z" fill="black"/>
<path id="Vector_47" d="M80.7777 97.7337C80.1982 97.7337 79.7057 97.6028 79.3 97.3412C78.9089 97.0795 78.6047 96.7161 78.4019 96.2509C78.1991 95.7857 78.0977 95.2623 78.0977 94.6518C78.0977 94.0412 78.1991 93.5179 78.4019 93.0527C78.6047 92.5875 78.9089 92.2241 79.3 91.9624C79.7057 91.7007 80.1982 91.5699 80.7777 91.5699C81.4586 91.5699 82.0235 91.7443 82.4436 92.1078C82.8638 92.4567 83.1535 92.9364 83.3128 93.5324L82.8203 93.6487C82.6899 93.1544 82.4581 92.7619 82.1249 92.4712C81.7773 92.1804 81.3282 92.0351 80.7777 92.0351C80.2996 92.0351 79.894 92.1514 79.5753 92.3694C79.2566 92.5875 79.0103 92.8928 78.851 93.2998C78.6916 93.6923 78.6047 94.143 78.6047 94.6518C78.6047 95.1606 78.6771 95.6112 78.8365 96.0037C78.9958 96.3962 79.2421 96.7015 79.5608 96.9341C79.8795 97.1522 80.2851 97.2685 80.7777 97.2685C81.3282 97.2685 81.7773 97.1231 82.1249 96.8324C82.4726 96.5416 82.7044 96.1491 82.8203 95.6548L83.3128 95.7711C83.1535 96.3672 82.8638 96.8469 82.4436 97.1958C82.0235 97.5447 81.4586 97.7337 80.7777 97.7337Z" fill="black"/>
<path id="Vector_48" d="M85.8338 97.6174V92.1514H83.7188V91.7007H88.4124V92.1514H86.3119V97.6174H85.8338Z" fill="black"/>
<path id="Vector_49" d="M89.0635 97.6174V91.7007H91.3234C91.6276 91.7007 91.9029 91.7589 92.1491 91.8897C92.3954 92.0205 92.5837 92.195 92.7286 92.4276C92.8735 92.6456 92.9459 92.9073 92.9459 93.1835C92.9459 93.5033 92.859 93.7941 92.6851 94.0412C92.5113 94.2883 92.2795 94.4773 91.9898 94.5791V94.3756C92.3664 94.4919 92.6707 94.6954 92.888 94.9716C93.1197 95.2478 93.2356 95.5821 93.2356 95.9892C93.2356 96.3235 93.1632 96.6143 93.0183 96.8614C92.8735 97.1085 92.6706 97.2975 92.3954 97.4138C92.1346 97.5447 91.8304 97.6028 91.4972 97.6028H89.0635V97.6174ZM89.5415 94.2738H91.3234C91.5262 94.2738 91.7145 94.2302 91.8884 94.1284C92.0622 94.0267 92.1926 93.8958 92.294 93.7359C92.3954 93.576 92.4389 93.387 92.4389 93.169C92.4389 92.8637 92.3375 92.6166 92.1202 92.4276C91.9029 92.2386 91.6421 92.1514 91.3234 92.1514H89.5415V94.2738ZM89.5415 97.1522H91.3379C91.5986 97.1522 91.8304 97.1086 92.0477 97.0213C92.2505 96.9341 92.4244 96.8033 92.5403 96.6288C92.6562 96.4544 92.7286 96.2509 92.7286 96.0183C92.7286 95.7857 92.6706 95.5676 92.5548 95.3641C92.4389 95.1751 92.294 95.0152 92.1057 94.8989C91.9173 94.7826 91.7 94.7245 91.4683 94.7245H89.5415V97.1376V97.1522Z" fill="black"/>
<path id="Vector_50" d="M93.6268 97.6174L95.7129 91.7007H96.2923L98.3784 97.6174H97.8714L95.8722 91.9478H96.104L94.1048 97.6174H93.6123H93.6268ZM94.496 95.6839H97.5237V96.1346H94.496V95.6839Z" fill="black"/>
<path id="Vector_51" d="M0 108.011V102.095H2.21646C2.21646 102.095 2.33235 102.095 2.40478 102.095C2.47722 102.095 2.54965 102.095 2.62208 102.124C2.91181 102.167 3.17257 102.269 3.37539 102.444C3.59269 102.604 3.75204 102.822 3.85345 103.069C3.96934 103.316 4.02729 103.592 4.02729 103.897C4.02729 104.203 3.96934 104.479 3.85345 104.726C3.73755 104.973 3.5782 105.191 3.37539 105.351C3.15809 105.511 2.91181 105.627 2.62208 105.671C2.54965 105.671 2.47722 105.686 2.40478 105.7C2.33235 105.7 2.2744 105.7 2.21646 105.7H0.463572V107.997H0V108.011ZM0.463572 105.249H2.21646C2.21646 105.249 2.31786 105.249 2.3903 105.249C2.44824 105.249 2.52068 105.249 2.57862 105.22C2.79592 105.177 2.96976 105.089 3.11463 104.959C3.25949 104.828 3.3609 104.668 3.43333 104.493C3.50577 104.304 3.53474 104.115 3.53474 103.912C3.53474 103.708 3.50577 103.519 3.43333 103.33C3.3609 103.141 3.25949 102.996 3.11463 102.865C2.96976 102.734 2.79592 102.647 2.57862 102.604C2.50619 102.604 2.44824 102.575 2.3903 102.575C2.33235 102.575 2.2744 102.575 2.21646 102.575H0.463572V105.264V105.249Z" fill="black"/>
<path id="Vector_52" d="M7.19956 108.142C6.62009 108.142 6.11306 108.011 5.72192 107.75C5.3163 107.488 5.02656 107.125 4.82375 106.659C4.62094 106.194 4.51953 105.671 4.51953 105.06C4.51953 104.45 4.62094 103.926 4.82375 103.461C5.02656 102.996 5.33078 102.633 5.72192 102.371C6.11306 102.109 6.60561 101.979 7.19956 101.979C7.79351 101.979 8.27157 102.109 8.6772 102.371C9.06834 102.633 9.37256 102.996 9.57537 103.461C9.77818 103.926 9.87959 104.464 9.87959 105.06C9.87959 105.656 9.77818 106.194 9.57537 106.659C9.37256 107.125 9.06834 107.488 8.6772 107.75C8.28606 108.011 7.79351 108.142 7.19956 108.142ZM7.19956 107.677C7.67762 107.677 8.08325 107.575 8.40195 107.343C8.72066 107.125 8.96693 106.805 9.12628 106.412C9.28564 106.02 9.37256 105.569 9.37256 105.06C9.37256 104.552 9.28564 104.101 9.12628 103.708C8.96693 103.316 8.72066 103.011 8.40195 102.778C8.08325 102.56 7.67762 102.444 7.19956 102.444C6.7215 102.444 6.31587 102.545 5.99717 102.778C5.67846 102.996 5.43219 103.301 5.27284 103.708C5.11348 104.101 5.02656 104.552 5.02656 105.075C5.02656 105.584 5.099 106.034 5.25835 106.427C5.4177 106.819 5.66398 107.125 5.98268 107.357C6.30139 107.575 6.70701 107.692 7.19956 107.692" fill="black"/>
<path id="Vector_53" d="M13.0521 108.142C12.4726 108.142 11.9656 108.011 11.5745 107.75C11.1688 107.488 10.8791 107.125 10.6763 106.659C10.4735 106.194 10.3721 105.671 10.3721 105.06C10.3721 104.45 10.4735 103.926 10.6763 103.461C10.8791 102.996 11.1833 102.633 11.5745 102.371C11.9656 102.109 12.4581 101.979 13.0521 101.979C13.733 101.979 14.2979 102.153 14.7181 102.516C15.1382 102.865 15.4424 103.345 15.5873 103.941L15.0947 104.057C14.9643 103.563 14.7325 103.171 14.3994 102.88C14.0517 102.589 13.6026 102.444 13.0521 102.444C12.574 102.444 12.1684 102.56 11.8497 102.778C11.531 102.996 11.2847 103.301 11.1254 103.708C10.966 104.101 10.8791 104.552 10.8791 105.06C10.8791 105.569 10.9515 106.02 11.1109 106.412C11.2702 106.805 11.5165 107.11 11.8352 107.343C12.1539 107.561 12.5596 107.677 13.0521 107.677C13.6026 107.677 14.0517 107.532 14.3994 107.241C14.747 106.95 14.9788 106.558 15.0947 106.063L15.5873 106.18C15.4424 106.776 15.1382 107.256 14.7181 107.604C14.2979 107.953 13.733 108.142 13.0521 108.142Z" fill="black"/>
<path id="Vector_54" d="M18.8324 108.142C18.2529 108.142 17.7459 108.011 17.3547 107.75C16.9491 107.488 16.6594 107.125 16.4566 106.659C16.2538 106.194 16.1523 105.671 16.1523 105.06C16.1523 104.45 16.2538 103.926 16.4566 103.461C16.6594 102.996 16.9636 102.633 17.3547 102.371C17.7459 102.109 18.2384 101.979 18.8324 101.979C19.5132 101.979 20.0782 102.153 20.4983 102.516C20.9184 102.865 21.2227 103.345 21.3675 103.941L20.875 104.057C20.7446 103.563 20.5128 103.171 20.1796 102.88C19.832 102.589 19.3829 102.444 18.8324 102.444C18.3543 102.444 17.9487 102.56 17.63 102.778C17.3113 102.996 17.065 103.301 16.9056 103.708C16.7463 104.101 16.6594 104.552 16.6594 105.06C16.6594 105.569 16.7318 106.02 16.8912 106.412C17.0505 106.805 17.2968 107.11 17.6155 107.343C17.9342 107.561 18.3398 107.677 18.8324 107.677C19.3829 107.677 19.832 107.532 20.1796 107.241C20.5273 106.95 20.7591 106.558 20.875 106.063L21.3675 106.18C21.2227 106.776 20.9184 107.256 20.4983 107.604C20.0782 107.953 19.5132 108.142 18.8324 108.142Z" fill="black"/>
<path id="Vector_55" d="M26.6408 108.011H26.1627V102.938L22.7438 108.011H22.2803V102.095H22.7438V107.168L26.1627 102.095H26.6408V108.011Z" fill="black"/>
<path id="Vector_56" d="M27.7852 108.011V102.095H28.2632V107.168L31.6821 102.095H32.1601V108.011H31.6821V102.938L28.2632 108.011H27.7852ZM30.0306 101.571C29.8423 101.571 29.6829 101.528 29.538 101.441C29.3932 101.353 29.2628 101.223 29.1759 101.077C29.089 100.932 29.0455 100.757 29.0455 100.583H29.4511C29.4511 100.743 29.5091 100.874 29.625 100.99C29.7409 101.106 29.8712 101.164 30.0306 101.164C30.1899 101.164 30.3348 101.106 30.4507 100.99C30.5666 100.874 30.6245 100.743 30.6245 100.583H31.0302C31.0302 100.772 30.9867 100.932 30.8998 101.077C30.8129 101.223 30.697 101.353 30.5376 101.441C30.3783 101.528 30.2189 101.571 30.0306 101.571Z" fill="black"/>
<path id="Vector_57" d="M35.6371 108.142C35.0576 108.142 34.5506 108.011 34.1594 107.75C33.7538 107.488 33.4641 107.125 33.2612 106.659C33.0584 106.194 32.957 105.671 32.957 105.06C32.957 104.45 33.0584 103.926 33.2612 103.461C33.4641 102.996 33.7683 102.633 34.1594 102.371C34.5506 102.109 35.0431 101.979 35.6371 101.979C36.3179 101.979 36.8829 102.153 37.303 102.516C37.7231 102.865 38.0274 103.345 38.1722 103.941L37.6797 104.057C37.5493 103.563 37.3175 103.171 36.9843 102.88C36.6366 102.589 36.1876 102.444 35.6371 102.444C35.159 102.444 34.7534 102.56 34.4347 102.778C34.116 102.996 33.8697 103.301 33.7103 103.708C33.551 104.101 33.4641 104.552 33.4641 105.06C33.4641 105.569 33.5365 106.02 33.6959 106.412C33.8552 106.805 34.1015 107.11 34.4202 107.343C34.7389 107.561 35.1445 107.677 35.6371 107.677C36.1876 107.677 36.6366 107.532 36.9843 107.241C37.332 106.95 37.5638 106.558 37.6797 106.063L38.1722 106.18C38.0274 106.776 37.7231 107.256 37.303 107.604C36.8829 107.953 36.3179 108.142 35.6371 108.142Z" fill="black"/>
<path id="Vector_58" d="M39.085 108.011V102.095H39.5485V104.915L42.3589 102.095H42.9819L40.157 104.944L43.2281 108.011H42.5907L39.5485 104.988V108.011H39.085Z" fill="black"/>
<path id="Vector_59" d="M45.8939 108.142C45.3144 108.142 44.8074 108.011 44.4163 107.75C44.0106 107.488 43.7209 107.125 43.5181 106.659C43.3153 106.194 43.2139 105.671 43.2139 105.06C43.2139 104.45 43.3153 103.926 43.5181 103.461C43.7209 102.996 44.0251 102.633 44.4163 102.371C44.8074 102.109 45.2999 101.979 45.8939 101.979C46.4878 101.979 46.9659 102.109 47.3715 102.371C47.7627 102.633 48.0669 102.996 48.2697 103.461C48.4725 103.926 48.5739 104.464 48.5739 105.06C48.5739 105.656 48.4725 106.194 48.2697 106.659C48.0669 107.125 47.7627 107.488 47.3715 107.75C46.9804 108.011 46.4878 108.142 45.8939 108.142ZM45.8939 107.677C46.372 107.677 46.7776 107.575 47.0963 107.343C47.415 107.125 47.6613 106.805 47.8206 106.412C47.98 106.02 48.0669 105.569 48.0669 105.06C48.0669 104.552 47.98 104.101 47.8206 103.708C47.6613 103.316 47.415 103.011 47.0963 102.778C46.7776 102.56 46.372 102.444 45.8939 102.444C45.4158 102.444 45.0102 102.545 44.6915 102.778C44.3728 102.996 44.1265 103.301 43.9672 103.708C43.8078 104.101 43.7209 104.552 43.7209 105.075C43.7209 105.584 43.7933 106.034 43.9527 106.427C44.112 106.819 44.3583 107.125 44.677 107.357C44.9957 107.575 45.4014 107.692 45.8939 107.692" fill="black"/>
<path id="Vector_60" d="M49.3848 108.011V102.095H49.8628V107.168L53.2817 102.095H53.7597V108.011H53.2817V102.938L49.8628 108.011H49.3848ZM51.6302 101.571C51.4419 101.571 51.2825 101.528 51.1376 101.441C50.9928 101.353 50.8624 101.223 50.7755 101.077C50.6886 100.932 50.6451 100.757 50.6451 100.583H51.0507C51.0507 100.743 51.1087 100.874 51.2246 100.99C51.3405 101.106 51.4853 101.164 51.6302 101.164C51.7751 101.164 51.9344 101.106 52.0503 100.99C52.1662 100.874 52.2241 100.743 52.2241 100.583H52.6298C52.6298 100.772 52.5863 100.932 52.4994 101.077C52.4125 101.223 52.2966 101.353 52.1372 101.441C51.9924 101.528 51.8185 101.571 51.6302 101.571Z" fill="black"/>
<path id="Vector_61" d="M58.5837 108.011V107.241C58.2794 107.299 57.9897 107.285 57.7 107.197C57.4102 107.11 57.164 106.979 56.9322 106.776C56.7004 106.572 56.5266 106.311 56.3962 105.991C56.2658 105.671 56.1934 105.293 56.1934 104.871C56.1934 104.45 56.2658 104.072 56.3962 103.752C56.5266 103.432 56.7149 103.171 56.9322 102.967C57.164 102.764 57.4102 102.618 57.7 102.531C57.9897 102.444 58.2794 102.429 58.5837 102.487V102.095H59.0472V102.487C59.3514 102.429 59.6412 102.458 59.9309 102.531C60.2206 102.618 60.4669 102.749 60.6987 102.967C60.9305 103.171 61.1043 103.432 61.2347 103.752C61.3651 104.072 61.4375 104.45 61.4375 104.871C61.4375 105.293 61.3651 105.671 61.2347 105.991C61.1043 106.311 60.916 106.572 60.6987 106.776C60.4669 106.979 60.2206 107.125 59.9309 107.197C59.6412 107.27 59.3514 107.299 59.0472 107.241V108.011H58.5837ZM58.5837 106.776V102.938C58.3229 102.894 58.0621 102.923 57.8448 102.996C57.613 103.069 57.4102 103.2 57.2364 103.374C57.0626 103.549 56.9322 103.752 56.8308 104.014C56.7294 104.261 56.6859 104.552 56.6859 104.871C56.6859 105.191 56.7294 105.467 56.8308 105.729C56.9322 105.976 57.0626 106.194 57.2364 106.369C57.4102 106.543 57.613 106.659 57.8448 106.732C58.0766 106.805 58.3229 106.834 58.5837 106.79M59.0472 106.79C59.308 106.819 59.5687 106.805 59.786 106.732C60.0178 106.659 60.2206 106.543 60.38 106.369C60.5538 106.194 60.6842 105.991 60.7856 105.744C60.887 105.497 60.9305 105.206 60.9305 104.886C60.9305 104.566 60.887 104.29 60.7856 104.028C60.6842 103.781 60.5538 103.563 60.38 103.389C60.2062 103.214 60.0033 103.083 59.786 103.011C59.5543 102.938 59.308 102.909 59.0472 102.953V106.79Z" fill="black"/>
<path id="Vector_62" d="M62.2637 108.011V102.095H65.9143V102.56H62.7417V104.813H65.4218V105.264H62.7417V107.561H65.9143V108.011H62.2637Z" fill="black"/>
<path id="Vector_63" d="M66.6387 109V107.561C66.8849 107.561 67.0733 107.503 67.2181 107.372C67.363 107.256 67.4644 107.081 67.5368 106.878C67.6093 106.674 67.6672 106.441 67.7107 106.209C67.7397 105.962 67.7831 105.715 67.7976 105.467C67.8411 105.089 67.87 104.741 67.899 104.392C67.928 104.043 67.9425 103.694 67.957 103.316C67.9714 102.953 68.0004 102.545 68.0149 102.109H71.5786V107.561H71.9987V109H71.5207V108.011H67.1167V109H66.6532H66.6387ZM67.6527 107.561H71.1006V102.575H68.464C68.4495 102.923 68.435 103.258 68.406 103.592C68.3916 103.927 68.3626 104.261 68.3481 104.61C68.3191 104.944 68.2901 105.293 68.2612 105.656C68.2322 105.976 68.1887 106.267 68.1453 106.514C68.1018 106.761 68.0439 106.979 67.9714 107.154C67.899 107.328 67.7976 107.474 67.6672 107.575" fill="black"/>
<path id="Vector_64" d="M72.8965 108.011V102.095H76.5326V102.56H73.3601V104.813H76.0401V105.264H73.3601V107.561H76.5326V108.011H72.8965Z" fill="black"/>
<path id="Vector_65" d="M77.5176 108.011V102.095H79.734C79.734 102.095 79.8499 102.095 79.9224 102.095C79.9948 102.095 80.0672 102.095 80.1397 102.124C80.4294 102.167 80.6902 102.269 80.893 102.444C81.1103 102.604 81.2696 102.822 81.371 103.069C81.4869 103.316 81.5449 103.592 81.5449 103.897C81.5449 104.203 81.4869 104.479 81.371 104.726C81.2551 104.973 81.0958 105.191 80.893 105.351C80.6757 105.511 80.4294 105.627 80.1397 105.671C80.0672 105.671 79.9948 105.686 79.9224 105.7C79.8499 105.7 79.792 105.7 79.734 105.7H77.9812V107.997H77.5176V108.011ZM77.9812 105.249H79.7195C79.7195 105.249 79.821 105.249 79.8934 105.249C79.9513 105.249 80.0238 105.249 80.0817 105.22C80.299 105.177 80.4729 105.089 80.6177 104.959C80.7626 104.828 80.864 104.668 80.9364 104.493C81.0089 104.304 81.0378 104.115 81.0378 103.912C81.0378 103.708 81.0089 103.519 80.9364 103.33C80.864 103.141 80.7626 102.996 80.6177 102.865C80.4729 102.734 80.299 102.647 80.0817 102.604C80.0238 102.604 79.9513 102.575 79.8934 102.575C79.8354 102.575 79.7775 102.575 79.7195 102.575H77.9812V105.264V105.249Z" fill="black"/>
<path id="Vector_66" d="M81.8787 108.011L83.9648 102.095H84.5443L86.6304 108.011H86.1233L84.1242 102.342H84.356L82.3568 108.011H81.8643H81.8787ZM82.7479 106.078H85.7757V106.529H82.7479V106.078Z" fill="black"/>
<path id="Vector_67" d="M92.0049 108.724V108.011H87.3691V102.095H87.8327V107.561H91.3964V102.124H91.8745V107.561H92.4829V108.724H92.0049Z" fill="black"/>
<path id="Vector_68" d="M97.4952 108.011H97.0172V102.938L93.6128 108.011H93.1348V102.095H93.6128V107.168L97.0172 102.095H97.4952V108.011Z" fill="black"/>
<path id="Vector_69" d="M103 108.011H102.537V102.938L99.1177 108.011H98.6396V102.095H99.1177V107.168L102.537 102.095H103V108.011Z" fill="black"/>
</g>
<defs>
<clipPath id="clip0_884_18820">
<rect width="103" height="109" fill="white"/>
</clipPath>
</defs>
</svg>
