<svg width="109" height="106" viewBox="0 0 109 106" fill="none" xmlns="http://www.w3.org/2000/svg">
<g id="Layer_1" clip-path="url(#clip0_884_19984)">
<path id="Vector" fill-rule="evenodd" clip-rule="evenodd" d="M12.8838 81.8469L39.9725 1.64401L60.0127 1.67474L32.9239 81.8623L12.8838 81.8469Z" fill="white"/>
<path id="Vector_2" d="M12.8838 81.8469L39.9725 1.64401L60.0127 1.67474L32.9239 81.8623L12.8838 81.8469Z" stroke="white" stroke-width="0.23" stroke-miterlimit="10"/>
<path id="Vector_3" fill-rule="evenodd" clip-rule="evenodd" d="M96.4234 24.1377L74.6633 24.107L47.0371 105.969L68.7972 106L96.4234 24.1377Z" fill="#E93E3B"/>
<path id="Vector_4" fill-rule="evenodd" clip-rule="evenodd" d="M60.013 1.64401H39.9728L12.8841 81.8469L32.9242 81.8777L60.013 1.64401ZM78.9935 12.4914L51.352 94.3383L29.5919 94.3076L33.2314 83.5063L11.7477 83.4756H10.6113L10.9799 82.4001L38.6215 0.568488L38.7904 0H39.3739L61.134 0.0307291H62.2704L61.9325 1.10625L58.0781 12.476L78.9935 12.5067V12.4914Z" fill="#0B7DBC"/>
<path id="Vector_5" fill-rule="evenodd" clip-rule="evenodd" d="M8.7071 40.3166H109L100.293 66.3441H0L8.7071 40.3166Z" fill="white"/>
<path id="Vector_6" fill-rule="evenodd" clip-rule="evenodd" d="M58.784 41.8376H82.1257L74.4475 64.823H51.1211L58.784 41.8376Z" fill="#0B7DBC"/>
<path id="Vector_7" fill-rule="evenodd" clip-rule="evenodd" d="M34.1682 41.8376H57.4793L49.8164 64.823H26.4746L34.1682 41.8376Z" fill="#0B7DBC"/>
<path id="Vector_8" fill-rule="evenodd" clip-rule="evenodd" d="M9.81298 41.8376H33.1241L25.4458 64.823H2.13477L9.81298 41.8376Z" fill="#0B7DBC"/>
<path id="Vector_9" fill-rule="evenodd" clip-rule="evenodd" d="M54.3926 43.8658L53.2408 47.1845C44.4416 46.8619 39.7425 47.5533 38.1455 53.1152C36.3488 59.0459 41.8617 59.5837 49.3096 59.4608L48.0504 62.9485C35.8266 63.2866 29.1466 62.3801 32.2639 53.0845C35.6884 42.8824 42.3685 43.8658 54.3926 43.8658Z" fill="white"/>
<path id="Vector_10" fill-rule="evenodd" clip-rule="evenodd" d="M83.5393 41.8376H106.85L99.1875 64.823H75.8457L83.5393 41.8376Z" fill="#0B7DBC"/>
<path id="Vector_11" fill-rule="evenodd" clip-rule="evenodd" d="M60.3354 43.8658L53.5479 62.9793H60.0129L65.2495 47.2306H71.7913L66.3858 62.9793H72.8509L79.3467 43.8658H60.3354Z" fill="white"/>
<path id="Vector_12" fill-rule="evenodd" clip-rule="evenodd" d="M84.9983 43.8658L78.2568 62.9793H84.7219L89.9584 47.1845L96.5003 47.1999L91.0948 62.9793H97.5599L104.056 43.8658H84.9983Z" fill="white"/>
<path id="Vector_13" fill-rule="evenodd" clip-rule="evenodd" d="M11.5783 43.8658L4.94434 62.9793H11.2405L13.2829 57.0025C22.8039 57.0332 26.904 56.8335 27.764 50.4879C28.455 45.6173 25.8752 43.7736 17.7977 43.8965H11.5783V43.8658ZM14.5728 53.1921L16.692 47.0462C19.9169 46.8926 21.6368 47.5686 21.775 49.5968C21.7289 52.7465 19.149 53.3611 14.5728 53.1921Z" fill="white"/>
</g>
<defs>
<clipPath id="clip0_884_19984">
<rect width="109" height="106" fill="white"/>
</clipPath>
</defs>
</svg>
