<svg width="172" height="22" viewBox="0 0 172 22" fill="none" xmlns="http://www.w3.org/2000/svg">
<g id="Layer_1" clip-path="url(#clip0_884_26866)">
<path id="Vector" d="M14.4355 6.81862V1.91463H6.91137V19.7024H10.2935V21.2959H0V19.7024H3.38216V1.91463H0V0.333496H16.9353V6.81862H14.4355Z" fill="#12100B"/>
<path id="Vector_2" d="M38.8703 19.8877V21.4688H32.0937V19.5665C30.5742 21.1476 27.9518 21.9752 25.7215 21.9752C20.7341 21.9752 18.1484 18.3065 18.1484 15.0331C18.1484 11.2161 21.0404 7.41152 26.0401 7.41152C28.491 7.41152 30.7213 8.22679 32.106 9.99321V6.73213C32.106 2.60635 29.5694 1.55638 27.4249 1.55638C24.3491 1.55638 22.033 3.50809 21.6286 3.86632L20.3787 2.0999C22.4742 0.568173 24.4716 0.0246582 27.3268 0.0246582C35.3043 0.0246582 35.3901 4.82982 35.3901 10.0056V19.9H38.858L38.8703 19.8877ZM32.0937 12.9455C31.5178 11.3149 30.084 9.31382 27.5842 9.31382C24.5084 9.31382 21.7512 11.352 21.7512 15.0825C21.7512 18.1583 24.4226 20.0729 27.0082 20.0729C28.7851 20.0729 31.1134 18.9859 32.0937 16.6266V12.9455Z" fill="#12100B"/>
<path id="Vector_3" d="M40.6226 6.80629V0.506457H42.1789V2.08759L42.0931 2.72993H42.3627L42.5833 2.08759C43.6494 1.00056 45.2547 0 48.2447 0C53.465 0 55.3276 3.13756 55.3276 5.39809C55.3276 6.75688 55.058 9.70915 50.5608 10.3391V10.6109C53.7714 10.6603 56.6633 12.6985 56.6633 15.9596C56.6633 19.2207 53.5018 21.9876 47.1786 21.9876C43.6984 21.9876 40.6226 21.0365 38.7109 17.5407L40.6226 15.9102C41.4314 18.8624 44.1518 20.5424 47.6197 20.5424C51.0877 20.5424 52.742 18.0842 52.742 16.046C52.742 11.5991 48.9064 11.4262 46.811 11.4262H45.3405V9.96856H46.7252C49.4456 9.96856 51.8474 8.74565 51.8474 5.62044C51.8474 3.39697 50.426 1.6676 48.1467 1.6676C44.3111 1.6676 42.0931 3.70578 42.1789 6.79394H40.6226V6.80629Z" fill="#12100B"/>
<path id="Vector_4" d="M62.9864 11.4508C62.9864 13.8102 63.6114 20.2583 70.1184 20.2583C72.9736 20.2583 75.2406 19.2577 77.6057 16.8489L78.7698 18.0718C76.6744 20.5671 73.0226 21.9753 69.8488 21.9753C64.6407 21.9753 59.0283 18.7142 59.0283 10.9073C59.0283 3.10048 64.2364 0.0123291 68.9665 0.0123291C74.052 0.0123291 79.1252 3.45871 78.7698 11.4508H62.9987H62.9864ZM74.8362 10.0056C74.8362 4.6075 72.2016 1.43288 68.8194 1.43288C65.4373 1.43288 62.8026 5.24984 62.9864 10.0056H74.8362Z" fill="#12100B"/>
<path id="Vector_5" d="M85.4728 19.9124H88.8672V2.12461H83.12V6.84331H80.6201V0.531128H100.631V6.84331H98.1314V2.12461H92.3842V19.9124H95.7663V21.4935H85.4728V19.9124Z" fill="#12100B"/>
<path id="Vector_6" d="M122.849 19.8877V21.4688H116.072V19.5665C114.553 21.1476 111.93 21.9752 109.7 21.9752C104.713 21.9752 102.127 18.3065 102.127 15.0331C102.127 11.2161 105.019 7.41152 110.006 7.41152C112.457 7.41152 114.688 8.22679 116.072 9.99321V6.73213C116.072 2.60635 113.536 1.55638 111.391 1.55638C108.315 1.55638 105.999 3.50809 105.595 3.86632L104.345 2.0999C106.453 0.568173 108.462 0.0246582 111.305 0.0246582C119.283 0.0246582 119.369 4.82982 119.369 10.0056V19.9H122.837L122.849 19.8877ZM116.072 12.9455C115.496 11.3149 114.063 9.31382 111.563 9.31382C108.487 9.31382 105.73 11.352 105.73 15.0825C105.73 18.1583 108.401 20.0729 110.987 20.0729C112.776 20.0729 115.092 18.9859 116.072 16.6266V12.9455Z" fill="#12100B"/>
<path id="Vector_7" d="M127.137 16.392C128.559 16.392 129.319 17.6643 129.319 19.2084C129.319 20.7524 128.559 21.9753 127.137 21.9753C125.802 21.9753 124.956 20.8389 124.956 19.2084C124.956 17.8496 125.581 16.392 127.137 16.392Z" fill="#12100B"/>
<path id="Vector_8" d="M138.472 0.592883V3.90338H138.693C139.71 1.40816 141.193 0.0864258 143.509 0.0864258C144.085 0.0864258 145.825 0.222304 146.854 1.58109L145.065 4.48396C144.171 3.12517 143.104 2.804 142.21 2.804C140.163 2.804 138.472 5.65745 138.472 8.83208V19.9494H141.867V21.5429H131.573V19.9494H134.955V2.17402H131.573V0.592883H138.485H138.472Z" fill="#12100B"/>
<path id="Vector_9" d="M155.187 0.432373V14.4896C155.187 15.5767 155.187 20.0236 159.733 20.0236C162.588 20.0236 165.076 18.2572 165.076 13.9832V2.01351H161.694V0.432373H168.593V19.8013H171.987V21.3824H165.076V19.7024L165.309 18.6525H165.039L164.5 19.653C162.539 21.7406 160.088 21.963 158.434 21.963C151.658 21.963 151.658 15.972 151.658 14.292V2.01351H148.275V0.432373H155.175H155.187Z" fill="#12100B"/>
</g>
<defs>
<clipPath id="clip0_884_26866">
<rect width="172" height="22" fill="white"/>
</clipPath>
</defs>
</svg>
