<svg width="170" height="70" viewBox="0 0 170 70" fill="none" xmlns="http://www.w3.org/2000/svg">
<g id="Layer_1" clip-path="url(#clip0_884_19883)">
<path id="Vector" fill-rule="evenodd" clip-rule="evenodd" d="M7.22034 11.7966H10.1908L10.3045 11.669C10.7593 10.9885 11.5126 10.2937 11.8964 9.58478H11.8822H3.89453V9.69821C4.26407 10.8467 5.31582 11.6974 6.58076 11.7541L7.23455 11.7825L7.22034 11.7966Z" fill="#004E90"/>
<path id="Vector_2" fill-rule="evenodd" clip-rule="evenodd" d="M5.24415 8.86165H12.0947C12.0947 8.64897 12.0237 8.30868 11.8816 8.096C11.2562 7.06096 9.08162 7.21693 7.70297 6.93335C6.01164 6.64978 2.6432 6.09681 2.6432 6.09681L2.34473 6.0401V6.21024C2.47264 7.64229 3.65231 8.79076 5.13045 8.86165H5.24415Z" fill="#004E90"/>
<path id="Vector_3" d="M5.24415 8.86165H12.0947C12.0947 8.64897 12.0237 8.30868 11.8816 8.096C11.2562 7.06096 9.08162 7.21693 7.70297 6.93335C6.01164 6.64978 2.6432 6.09681 2.6432 6.09681L2.34473 6.0401V6.21024C2.47264 7.64229 3.65231 8.79076 5.13045 8.86165H5.24415Z" stroke="#004E90" stroke-width="0.22" stroke-miterlimit="10"/>
<path id="Vector_4" fill-rule="evenodd" clip-rule="evenodd" d="M10.2479 15.795L10.1058 15.3838C9.79309 14.5473 9.77888 13.2287 9.97786 12.3921L5.94141 12.3496L5.96983 12.463C6.29673 14.0369 7.56167 15.2988 9.16773 15.6107C9.32407 15.6391 10.0063 15.7808 10.2763 15.7808" fill="#004E90"/>
<path id="Vector_5" d="M10.2479 15.795L10.1058 15.3838C9.79309 14.5473 9.77888 13.2287 9.97786 12.3921L5.94141 12.3496L5.96983 12.463C6.29673 14.0369 7.56167 15.2988 9.16773 15.6107C9.32407 15.6391 10.0063 15.7808 10.2763 15.7808L10.2479 15.795Z" stroke="#004E90" stroke-width="0.22" stroke-miterlimit="10"/>
<path id="Vector_6" fill-rule="evenodd" clip-rule="evenodd" d="M42.9373 12.3496L39.2135 12.3921C39.4267 13.2996 39.3841 14.7742 39.0003 15.5965L38.915 15.7667L39.583 15.6816C41.4165 15.5256 42.8804 14.1928 43.2357 12.463L43.2642 12.3496H42.9373Z" fill="#004E90"/>
<path id="Vector_7" d="M42.9373 12.3496L39.2135 12.3921C39.4267 13.2996 39.3841 14.7742 39.0003 15.5965L38.915 15.7667L39.583 15.6816C41.4165 15.5256 42.8804 14.1928 43.2357 12.463L43.2642 12.3496H42.9373Z" stroke="#004E90" stroke-width="0.22" stroke-miterlimit="10"/>
<path id="Vector_8" fill-rule="evenodd" clip-rule="evenodd" d="M44.9982 9.58478H37.3232C37.6928 10.2937 38.4461 10.9885 38.9151 11.669L38.9861 11.7966H42.5109C42.7241 11.7966 42.9373 11.7399 43.0084 11.7258C44.1028 11.5414 44.984 10.7332 45.2967 9.71239V9.59896H44.9982V9.58478Z" fill="#004E90"/>
<path id="Vector_9" d="M44.9982 9.58478H37.3232C37.6928 10.2937 38.4461 10.9885 38.9151 11.669L38.9861 11.7966H42.5109C42.7241 11.7966 42.9373 11.7399 43.0084 11.7258C44.1028 11.5414 44.984 10.7332 45.2967 9.71239V9.59896H44.9982V9.58478Z" stroke="#004E90" stroke-width="0.22" stroke-miterlimit="10"/>
<path id="Vector_10" fill-rule="evenodd" clip-rule="evenodd" d="M46.5473 6.09683C44.8559 6.38041 43.1788 6.66398 41.4875 6.93337C40.1088 7.21695 37.9343 7.06098 37.3089 8.09602C37.1668 8.3087 37.1099 8.53556 37.0957 8.74824V8.86167H43.9463H44.06C45.5381 8.79078 46.7178 7.64231 46.8457 6.21026L46.5046 6.26698L46.533 6.09683H46.5473Z" fill="#004E90"/>
<path id="Vector_11" fill-rule="evenodd" clip-rule="evenodd" d="M39.6256 19.1554C38.6875 19.1554 37.849 18.73 37.0389 18.0636L36.3851 17.2696L33.0877 13.4839C32.8603 13.2854 32.6471 13.1011 32.4481 12.9026C30.4441 10.7049 28.0137 8.76242 24.4889 8.76242C21.7316 8.76242 19.6565 9.95343 17.9226 11.5131C17.3398 12.0093 16.7997 12.5481 16.3023 13.0869L16.0465 13.3138L12.1237 17.8084L11.9816 17.9644C11.1572 18.6591 10.3045 19.1128 9.35221 19.1128H9.30957V19.1412C9.30957 19.5949 9.63647 19.9636 10.0629 20.0486H38.8865C39.3129 19.9636 39.6398 19.5949 39.6398 19.1412" fill="#004E90"/>
<path id="Vector_12" fill-rule="evenodd" clip-rule="evenodd" d="M25.9956 58.2743C25.356 57.8489 24.6738 57.4235 23.9489 56.9982C23.0677 56.4594 22.1439 55.9206 21.2485 55.3251C18.3348 57.4377 16.6151 59.8481 16.7572 61.9607C16.9988 65.4487 21.4474 67.0367 21.4474 67.0367C21.4474 67.0367 21.2911 66.9516 21.0495 66.7815C21.4048 66.9516 21.6464 67.0367 21.6464 67.0367C21.6464 67.0367 19.3155 65.8315 19.145 62.9249C19.0597 61.6346 19.9551 59.8906 21.817 58.4161C22.2291 58.0899 22.6697 57.778 23.153 57.4661L23.423 68.8515C23.423 69.4896 23.9489 70.0142 24.5885 70.0142C25.2281 70.0142 25.7539 69.4896 25.7539 68.8515V68.6956L25.9956 58.3026V58.2743Z" fill="#004E90"/>
<path id="Vector_13" fill-rule="evenodd" clip-rule="evenodd" d="M21.1202 40.1256L21.4329 40.2957L21.3476 40.2532C21.8166 40.5084 22.4847 40.8771 22.7547 41.033L22.8684 41.1039C24.176 41.8554 25.3841 42.621 26.3505 43.4434C27.8998 44.7478 28.8804 46.194 28.7241 47.8671C28.6388 48.6895 28.0135 49.9514 26.5922 51.2558L26.5211 54.0916L26.6206 54.1624C26.6206 54.1624 26.9901 54.4177 27.317 54.6445C30.4154 52.5744 33.059 49.9797 32.2205 45.6269C32.0499 44.7195 31.6662 43.8546 31.0976 43.018C30.3586 41.9688 29.3637 40.9621 28.2977 40.0405C26.649 38.6368 24.7587 37.3891 22.6268 36.0705C22.0867 35.7444 21.5324 35.4041 20.9923 35.0638C20.708 34.8937 20.4238 34.7235 20.1253 34.5392H20.1395C19.5142 34.1564 18.8746 33.7594 18.2492 33.3624C10.29 28.3715 19.1731 25.6208 18.4056 29.2506C19.372 29.0095 22.0298 26.9962 19.8553 24.5007C18.5477 22.9978 14.6249 22.1329 11.8534 24.6567C11.3702 25.0962 10.9864 25.5641 10.6738 26.0604C8.57026 28.967 9.63623 32.5825 12.5641 35.1631C12.692 35.2765 12.8199 35.3757 12.9478 35.4892C14.966 37.0914 18.0929 38.5376 21.0349 40.1114L21.106 40.1539L21.1202 40.1256ZM22.7405 41.0047C22.5131 40.8912 22.3283 40.792 22.1435 40.6786C22.3425 40.792 22.5415 40.8912 22.7405 41.0047Z" fill="#004E90"/>
<path id="Vector_14" fill-rule="evenodd" clip-rule="evenodd" d="M22.2578 20.5165L22.2862 20.6583V20.7292L22.6273 35.5459C24.0344 36.4108 25.2994 37.219 26.479 38.0413L26.5359 35.8578L26.9054 20.7008V20.6583L26.9338 20.5165H22.2578Z" fill="#004E90"/>
<path id="Vector_15" fill-rule="evenodd" clip-rule="evenodd" d="M37.6076 24.8835C37.3944 24.685 37.167 24.5149 36.9396 24.3589C34.1965 22.2746 30.6006 23.1112 29.3641 24.5432C27.6443 26.5282 28.9519 28.2013 30.0605 28.9244C30.4301 29.2222 30.8138 29.4065 31.0696 29.4774L31.0412 29.2931L31.1123 29.3214L31.0412 29.2789C30.8707 27.7476 32.562 27.5066 33.6706 28.1871C34.7366 29.0662 34.8787 30.9662 30.9844 33.4191C29.6341 34.2698 28.2981 35.0921 26.9905 35.9003L26.9053 38.3532C27.5022 38.7928 28.0849 39.2465 28.6392 39.7144L28.6819 39.7569C31.6524 38.2115 34.765 36.8078 36.7121 35.0921C40.0095 32.1855 40.9476 27.9319 37.6218 24.8977" fill="#004E90"/>
<path id="Vector_16" fill-rule="evenodd" clip-rule="evenodd" d="M46.4619 6.11101V6.26698L46.8457 6.29533L46.8741 6.02594L46.4619 6.11101Z" fill="white"/>
<path id="Vector_17" fill-rule="evenodd" clip-rule="evenodd" d="M12.8339 9.01762C12.8339 9.78327 12.4928 10.4638 11.9669 10.9176L11.64 11.2153C10.9152 11.9526 10.4604 12.9593 10.4604 14.0794C10.4604 15.0577 10.8157 15.9652 11.3984 16.6741L11.9527 17.2412L11.9954 17.298L15.7049 13.0302L15.6339 12.7041C15.6339 12.5056 15.6907 12.3354 15.8044 12.1795C16.3445 11.3571 16.643 10.3929 16.643 9.34373C16.643 7.07514 15.1933 5.13267 13.1608 4.40956L12.8197 4.29613L0.625085 0.28357L0.39768 0.212677L0.326615 0.411178C0.141848 0.80818 0.0281452 1.2619 -0.000280535 1.74397C-0.0713448 3.3178 0.909342 4.67895 2.31642 5.17521L2.48697 5.23192C2.7428 5.30281 2.99863 5.34535 3.26868 5.35953C5.40061 5.71399 10.3751 6.47964 10.901 6.55053C12.0096 6.81993 12.8339 7.81243 12.8339 9.00344" fill="#004E90"/>
<path id="Vector_18" fill-rule="evenodd" clip-rule="evenodd" d="M48.8926 0.482078L48.7932 0.184326L36.3711 4.29614L36.03 4.40956C33.9976 5.13268 32.5479 7.07515 32.5479 9.34373C32.5479 10.393 32.8605 11.3713 33.3864 12.1795C33.4859 12.3213 33.5428 12.5056 33.5428 12.7041C33.5428 12.8742 33.4859 13.0444 33.4006 13.172H33.4148L36.7122 16.9718V16.986C36.8259 17.1278 36.9538 17.298 37.0675 17.4397L37.2097 17.2412L37.764 16.6741C38.3467 15.9652 38.6878 15.0719 38.6878 14.0794C38.6878 12.9593 38.233 11.9526 37.5081 11.2153L37.1812 10.9176C36.6412 10.4497 36.3143 9.76909 36.3143 9.01763C36.3143 7.8408 37.1386 6.83411 38.2472 6.56472C38.7731 6.47965 43.7476 5.72818 45.8795 5.37371C46.1496 5.35953 46.8318 5.18939 46.8318 5.17521C48.2388 4.67896 49.2195 3.30363 49.1627 1.74398C49.1485 1.29026 49.0348 0.864901 48.8642 0.482078" fill="#004E90"/>
<path id="Vector_19" d="M48.8926 0.482078L48.7932 0.184326L36.3711 4.29614L36.03 4.40956C33.9976 5.13268 32.5479 7.07515 32.5479 9.34374C32.5479 10.393 32.8605 11.3713 33.3864 12.1795C33.4859 12.3213 33.5428 12.5056 33.5428 12.7041C33.5428 12.8742 33.4859 13.0444 33.4006 13.172H33.4148L36.7122 16.9718V16.986C36.8259 17.1278 36.9538 17.298 37.0675 17.4397L37.2097 17.2412L37.764 16.6741C38.3467 15.9652 38.6878 15.0719 38.6878 14.0794C38.6878 12.9593 38.233 11.9526 37.5081 11.2153L37.1812 10.9176C36.6412 10.4497 36.3143 9.76909 36.3143 9.01763C36.3143 7.8408 37.1386 6.83411 38.2472 6.56472C38.7731 6.47965 43.7476 5.72818 45.8795 5.37371C46.1496 5.35953 46.8318 5.18939 46.8318 5.17521C48.2388 4.67896 49.2195 3.30363 49.1627 1.74398C49.1485 1.29026 49.0348 0.864901 48.8642 0.482078H48.8926Z" stroke="#004E90" stroke-width="0.22" stroke-miterlimit="10"/>
<path id="Vector_20" fill-rule="evenodd" clip-rule="evenodd" d="M22.8262 41.6002V43.8262L22.9967 51.4969C23.8353 52.2341 24.8728 52.9856 26.0809 53.7796L26.152 50.873H26.1662L26.3367 44.0105C25.3276 43.0889 24.0485 42.3091 22.8262 41.6002Z" fill="#004E90"/>
<path id="Vector_21" fill-rule="evenodd" clip-rule="evenodd" d="M20.5946 40.3666C18.5479 42.0964 17.1124 43.8971 16.7145 45.9388C15.8759 50.32 18.5053 52.9431 21.6179 55.0273C23.6645 56.3885 25.9244 57.537 27.502 58.7989C27.7152 58.969 27.9 59.1391 28.0847 59.3093H28.0563C29.5629 60.6988 30.2735 62.2301 30.2025 63.4069C30.0888 65.1651 29.2218 66.2994 28.5253 66.9374C28.2837 67.065 28.0705 67.1784 27.8858 67.2635C27.7294 67.3628 27.6441 67.4195 27.6441 67.4195C27.6441 67.4195 27.9 67.3202 28.2979 67.1359C28.0563 67.3202 27.8858 67.4053 27.8858 67.4053L28.0421 67.3486C27.8289 67.5045 27.6868 67.5754 27.6868 67.5754C27.6868 67.5754 29.2076 67.0225 30.5293 65.874C31.5385 65.0516 32.4623 63.8748 32.576 62.3293C32.7181 60.3443 31.1831 58.0899 28.5822 56.0624C28.3406 55.8922 28.0989 55.7221 27.8431 55.5378C27.7863 55.4952 27.4309 55.2542 27.0898 55.0132L26.9335 54.9139C26.6777 54.7296 26.4503 54.5736 26.3934 54.5453C24.6736 53.411 23.2808 52.4326 22.2575 51.4118C21.0778 50.2633 20.3956 49.1574 20.3814 47.9805C20.3672 46.5343 21.1773 45.2157 22.3996 44.0389V41.3733C22.0158 41.1464 21.2057 40.6927 20.8504 40.5084L20.6088 40.3808L20.5946 40.3666Z" fill="#004E90"/>
<path id="Vector_22" d="M56.9086 32.8661V27.464H54.8193V26.7409H59.7654V27.464H57.6619V32.8661H56.9086Z" fill="#004E90"/>
<path id="Vector_23" d="M62.977 32.9937C62.3659 32.9937 61.84 32.8519 61.4136 32.5826C60.9872 32.3132 60.6603 31.9445 60.4329 31.4624C60.2055 30.9804 60.0918 30.4274 60.0918 29.8035C60.0918 29.1797 60.2055 28.6125 60.4329 28.1446C60.6603 27.6626 60.9872 27.2939 61.4136 27.0245C61.84 26.7551 62.3659 26.6133 62.977 26.6133C63.5882 26.6133 64.114 26.7551 64.5404 27.0245C64.9668 27.2939 65.2937 27.6626 65.5069 28.1446C65.7343 28.6267 65.8338 29.1797 65.8338 29.8035C65.8338 30.4274 65.7201 30.9804 65.5069 31.4624C65.2795 31.9445 64.9668 32.3132 64.5404 32.5826C64.114 32.8519 63.5882 32.9937 62.977 32.9937ZM62.977 32.2706C63.4318 32.2706 63.8156 32.1714 64.1282 31.9587C64.4267 31.746 64.6683 31.4624 64.8105 31.0938C64.9668 30.7252 65.0379 30.2856 65.0379 29.8035C65.0379 29.3215 64.9668 28.8819 64.8105 28.5133C64.6541 28.1446 64.4267 27.8611 64.1282 27.6484C63.8298 27.4357 63.446 27.3365 62.977 27.3365C62.5222 27.3365 62.1384 27.4357 61.84 27.6484C61.5415 27.8611 61.3141 28.1446 61.1578 28.5133C61.0014 28.8819 60.9304 29.3215 60.9304 29.8035C60.9304 30.2856 61.0014 30.7252 61.1578 31.0938C61.3141 31.4624 61.5415 31.746 61.8542 31.9587C62.1669 32.1714 62.5364 32.2706 63.0054 32.2706" fill="#004E90"/>
<path id="Vector_24" d="M66.6865 32.8661V26.7409H69.1169C69.1169 26.7409 69.2448 26.7409 69.3301 26.7409C69.4154 26.7409 69.4865 26.7409 69.5717 26.7693C69.8986 26.826 70.1829 26.9394 70.4103 27.1096C70.6377 27.2797 70.8083 27.5066 70.922 27.776C71.0357 28.0454 71.0925 28.3431 71.0925 28.6692C71.0925 28.9953 71.0357 29.2931 70.922 29.5625C70.8083 29.8319 70.6377 30.0587 70.4103 30.2289C70.1829 30.399 69.9128 30.5125 69.5717 30.5692C69.5007 30.5692 69.4154 30.5833 69.3301 30.5975C69.2448 30.6117 69.1738 30.5975 69.1169 30.5975H67.454V32.8661H66.7007H66.6865ZM67.4398 29.8886H69.0885C69.0885 29.8886 69.2022 29.8886 69.2733 29.8886C69.3443 29.8886 69.4154 29.8744 69.4722 29.8602C69.6712 29.8177 69.8276 29.7326 69.9555 29.605C70.0834 29.4916 70.1687 29.3498 70.2255 29.1797C70.2824 29.0095 70.3108 28.8536 70.3108 28.6834C70.3108 28.5133 70.2824 28.3431 70.2255 28.1872C70.1687 28.0312 70.0834 27.8752 69.9555 27.7618C69.8276 27.6342 69.6712 27.5633 69.4722 27.5208C69.4154 27.5066 69.3443 27.4924 69.2733 27.4924C69.2022 27.4924 69.1454 27.4924 69.0885 27.4924H67.4398V29.917V29.8886Z" fill="#004E90"/>
<path id="Vector_25" d="M71.9453 32.8661V26.7409H75.8254V27.464H72.6986V32.8661H71.9453Z" fill="#004E90"/>
<path id="Vector_26" d="M79.0376 32.9937C78.4264 32.9937 77.9005 32.8519 77.4741 32.5826C77.0477 32.3132 76.7209 31.9445 76.4934 31.4624C76.266 30.9804 76.1523 30.4274 76.1523 29.8035C76.1523 29.1797 76.266 28.6125 76.4934 28.1446C76.7209 27.6626 77.0477 27.2939 77.4741 27.0245C77.9005 26.7551 78.4264 26.6133 79.0376 26.6133C79.6487 26.6133 80.1746 26.7551 80.601 27.0245C81.0274 27.2939 81.3542 27.6626 81.5674 28.1446C81.7948 28.6267 81.8943 29.1797 81.8943 29.8035C81.8943 30.4274 81.7806 30.9804 81.5674 31.4624C81.34 31.9445 81.0274 32.3132 80.601 32.5826C80.1746 32.8519 79.6487 32.9937 79.0376 32.9937ZM79.0376 32.2706C79.4924 32.2706 79.8761 32.1714 80.1888 31.9587C80.4873 31.746 80.7289 31.4624 80.871 31.0938C81.0274 30.7252 81.0984 30.2856 81.0984 29.8035C81.0984 29.3215 81.0274 28.8819 80.871 28.5133C80.7147 28.1446 80.4873 27.8611 80.1888 27.6484C79.8903 27.4357 79.5066 27.3365 79.0376 27.3365C78.5827 27.3365 78.199 27.4357 77.9005 27.6484C77.6021 27.8611 77.3746 28.1446 77.2183 28.5133C77.062 28.8819 76.9909 29.3215 76.9909 29.8035C76.9909 30.2856 77.062 30.7252 77.2183 31.0938C77.3746 31.4624 77.6021 31.746 77.9147 31.9587C78.2274 32.1714 78.597 32.2706 79.066 32.2706" fill="#004E90"/>
<path id="Vector_27" d="M82.7617 32.8661V26.7409H85.1495C85.519 26.7409 85.8317 26.8118 86.0875 26.9678C86.3434 27.1238 86.5423 27.3223 86.6845 27.5633C86.8266 27.8043 86.8977 28.0737 86.8977 28.3573C86.8977 28.6834 86.8124 28.9812 86.6418 29.2364C86.4713 29.4916 86.2439 29.6617 85.9454 29.7468V29.5341C86.3291 29.6334 86.6418 29.8319 86.855 30.1155C87.0682 30.399 87.1819 30.7251 87.1819 31.1221C87.1819 31.4766 87.1109 31.7885 86.9687 32.0438C86.8266 32.299 86.6134 32.5116 86.3434 32.6534C86.0733 32.7952 85.7464 32.8661 85.3627 32.8661H82.7617ZM83.5292 29.2931H85.1495C85.3342 29.2931 85.4906 29.2506 85.6469 29.1797C85.7891 29.1088 85.917 28.9953 86.0022 28.8536C86.0875 28.7118 86.1302 28.5416 86.1302 28.3573C86.1302 28.0879 86.0449 27.8752 85.8601 27.7051C85.6754 27.5349 85.4479 27.4499 85.1637 27.4499H83.5434V29.2931H83.5292ZM83.5292 32.143H85.2205C85.4479 32.143 85.6469 32.1005 85.8317 32.0154C86.0165 31.9303 86.1586 31.8169 86.2581 31.6609C86.3576 31.505 86.4144 31.3206 86.4144 31.108C86.4144 30.8953 86.3718 30.711 86.2723 30.555C86.1728 30.3848 86.0449 30.2572 85.8885 30.158C85.718 30.0587 85.5332 30.0162 85.3058 30.0162H83.5292V32.143Z" fill="#004E90"/>
<path id="Vector_28" d="M90.5639 32.9937C89.9528 32.9937 89.4269 32.8519 89.0005 32.5826C88.5741 32.3132 88.2472 31.9445 88.0198 31.4624C87.7924 30.9804 87.6787 30.4274 87.6787 29.8035C87.6787 29.1797 87.7924 28.6125 88.0198 28.1446C88.2472 27.6626 88.5741 27.2939 89.0005 27.0245C89.4269 26.7551 89.9528 26.6133 90.5639 26.6133C91.1751 26.6133 91.701 26.7551 92.1273 27.0245C92.5537 27.2939 92.8806 27.6626 93.0938 28.1446C93.3212 28.6267 93.4207 29.1797 93.4207 29.8035C93.4207 30.4274 93.307 30.9804 93.0938 31.4624C92.8664 31.9445 92.5537 32.3132 92.1273 32.5826C91.701 32.8519 91.1751 32.9937 90.5639 32.9937ZM90.5639 32.2706C91.0187 32.2706 91.4025 32.1714 91.7152 31.9587C92.0136 31.746 92.2553 31.4624 92.3974 31.0938C92.5537 30.7252 92.6248 30.2856 92.6248 29.8035C92.6248 29.3215 92.5537 28.8819 92.3974 28.5133C92.241 28.1446 92.0136 27.8611 91.7152 27.6484C91.4167 27.4357 91.0329 27.3365 90.5639 27.3365C90.1091 27.3365 89.7254 27.4357 89.4269 27.6484C89.1284 27.8611 88.901 28.1446 88.7447 28.5133C88.5883 28.8819 88.5173 29.3215 88.5173 29.8035C88.5173 30.2856 88.5883 30.7252 88.7447 31.0938C88.901 31.4624 89.1284 31.746 89.4411 31.9587C89.7538 32.1714 90.1233 32.2706 90.5924 32.2706" fill="#004E90"/>
<path id="Vector_29" d="M96.7614 29.8744H94.2031V30.4983H96.7614V29.8744Z" fill="#004E90"/>
<path id="Vector_30" d="M97.8701 32.8661V26.7409H102.66V32.8661H101.907V27.464H98.6234V32.8661H97.8701Z" fill="#004E90"/>
<path id="Vector_31" d="M103.854 32.8661V26.7409H106.284C106.284 26.7409 106.412 26.7409 106.497 26.7409C106.582 26.7409 106.653 26.7409 106.739 26.7693C107.066 26.826 107.35 26.9394 107.577 27.1096C107.805 27.2797 107.975 27.5066 108.089 27.776C108.203 28.0454 108.259 28.3431 108.259 28.6692C108.259 28.9953 108.203 29.2931 108.089 29.5625C107.975 29.8319 107.805 30.0587 107.577 30.2289C107.35 30.399 107.08 30.5125 106.739 30.5692C106.668 30.5692 106.582 30.5833 106.497 30.5975C106.412 30.6117 106.341 30.5975 106.284 30.5975H104.621V32.8661H103.868H103.854ZM104.607 29.8886H106.255C106.255 29.8886 106.369 29.8886 106.44 29.8886C106.511 29.8886 106.582 29.8744 106.639 29.8602C106.838 29.8177 106.995 29.7326 107.122 29.605C107.25 29.4916 107.336 29.3498 107.393 29.1797C107.449 29.0095 107.478 28.8536 107.478 28.6834C107.478 28.5133 107.449 28.3431 107.393 28.1872C107.336 28.0312 107.25 27.8752 107.122 27.7618C106.995 27.6342 106.838 27.5633 106.639 27.5208C106.582 27.5066 106.511 27.4924 106.44 27.4924C106.369 27.4924 106.312 27.4924 106.255 27.4924H104.607V29.917V29.8886Z" fill="#004E90"/>
<path id="Vector_32" d="M111.642 32.9937C111.031 32.9937 110.505 32.8519 110.079 32.5826C109.652 32.3132 109.325 31.9445 109.098 31.4624C108.871 30.9804 108.757 30.4274 108.757 29.8035C108.757 29.1797 108.871 28.6125 109.098 28.1446C109.325 27.6626 109.652 27.2939 110.079 27.0245C110.505 26.7551 111.031 26.6133 111.642 26.6133C112.253 26.6133 112.779 26.7551 113.205 27.0245C113.632 27.2939 113.959 27.6626 114.172 28.1446C114.399 28.6267 114.499 29.1797 114.499 29.8035C114.499 30.4274 114.385 30.9804 114.172 31.4624C113.945 31.9445 113.632 32.3132 113.205 32.5826C112.779 32.8519 112.253 32.9937 111.642 32.9937ZM111.642 32.2706C112.097 32.2706 112.481 32.1714 112.793 31.9587C113.092 31.746 113.333 31.4624 113.476 31.0938C113.632 30.7252 113.703 30.2856 113.703 29.8035C113.703 29.3215 113.632 28.8819 113.476 28.5133C113.319 28.1446 113.092 27.8611 112.793 27.6484C112.495 27.4357 112.111 27.3365 111.642 27.3365C111.187 27.3365 110.803 27.4357 110.505 27.6484C110.207 27.8611 109.979 28.1446 109.823 28.5133C109.666 28.8819 109.595 29.3215 109.595 29.8035C109.595 30.2856 109.666 30.7252 109.823 31.0938C109.979 31.4624 110.207 31.746 110.519 31.9587C110.832 32.1714 111.201 32.2706 111.67 32.2706" fill="#004E90"/>
<path id="Vector_33" d="M115.352 32.8661V26.7409H116.048L118.365 31.6184L120.681 26.7409H121.378V32.8661H120.653V28.3998L118.564 32.8661H118.166L116.076 28.3998V32.8661H115.352Z" fill="#004E90"/>
<path id="Vector_34" d="M122.571 32.8661V26.7409H123.339V29.0095H125.002C125.002 29.0095 125.13 29.0095 125.215 29.0095C125.3 29.0095 125.371 29.0095 125.456 29.0379C125.783 29.0946 126.068 29.208 126.295 29.3782C126.522 29.5483 126.693 29.7752 126.807 30.0445C126.92 30.3139 126.977 30.6117 126.977 30.9378C126.977 31.2639 126.92 31.5617 126.807 31.8311C126.693 32.1005 126.522 32.3273 126.295 32.4975C126.068 32.6676 125.798 32.7952 125.456 32.8377C125.385 32.8377 125.3 32.8519 125.215 32.8661C125.13 32.8803 125.059 32.8661 125.002 32.8661H122.571ZM123.339 32.143H124.973C124.973 32.143 125.087 32.143 125.158 32.143C125.229 32.143 125.3 32.1288 125.357 32.1146C125.556 32.0721 125.712 31.987 125.84 31.8594C125.968 31.746 126.053 31.6042 126.11 31.4341C126.167 31.2639 126.196 31.1079 126.196 30.9378C126.196 30.7677 126.167 30.5975 126.11 30.4416C126.053 30.2714 125.968 30.1438 125.84 30.0162C125.712 29.8886 125.556 29.8177 125.357 29.7752C125.3 29.761 125.229 29.7468 125.158 29.7468C125.087 29.7468 125.03 29.7468 124.973 29.7468H123.339V32.1713V32.143ZM127.588 26.7267H128.342V32.8519H127.588V26.7267Z" fill="#004E90"/>
<path id="Vector_35" d="M129.521 32.8661V26.7409H130.289V32.1572H132.478V26.7409H133.231V32.1572H135.42V26.7409H136.187V32.8661H129.521Z" fill="#004E90"/>
<path id="Vector_36" d="M136.955 32.8661V32.2139C137.111 32.2281 137.225 32.2139 137.325 32.1855C137.424 32.1572 137.509 32.1005 137.566 32.0012C137.623 31.902 137.68 31.7743 137.737 31.59C137.779 31.4057 137.836 31.1788 137.879 30.8811C137.936 30.5408 137.993 30.2005 138.035 29.846C138.078 29.5058 138.106 29.1513 138.135 28.7968C138.163 28.4424 138.192 28.1021 138.206 27.7476C138.22 27.4073 138.248 27.0529 138.263 26.7267H142.214V32.8519H141.461V27.4357H138.988C138.973 27.6909 138.959 27.9745 138.931 28.258C138.902 28.5416 138.888 28.8535 138.86 29.1797C138.831 29.4916 138.803 29.8319 138.76 30.158C138.717 30.4983 138.675 30.8386 138.604 31.193C138.561 31.4766 138.504 31.7318 138.433 31.9587C138.362 32.1855 138.277 32.384 138.163 32.54C138.049 32.696 137.893 32.7952 137.694 32.8661C137.509 32.9228 137.254 32.9086 136.955 32.8377" fill="#004E90"/>
<path id="Vector_37" d="M143.408 32.8661V26.7409H147.288V27.464H144.176V29.3782H146.777V30.1013H144.176V32.1572H147.288V32.8661H143.408Z" fill="#004E90"/>
<path id="Vector_38" d="M148.325 32.8661V26.7409H149.078V29.4491H152.319V26.7409H153.072V32.8661H152.319V30.158H149.078V32.8661H148.325Z" fill="#004E90"/>
<path id="Vector_39" d="M154.267 32.8661V26.7409H155.02V29.4491H158.26V26.7409H159.014V32.8661H158.26V30.158H155.02V32.8661H154.267Z" fill="#004E90"/>
<path id="Vector_40" d="M159.781 32.8661L161.842 26.7409H162.894L164.955 32.8661H164.173L162.254 27.1805H162.496L160.591 32.8661H159.795H159.781ZM160.776 30.7251H163.96V31.4341H160.776V30.7251Z" fill="#004E90"/>
<path id="Vector_41" d="M166.347 32.8661H165.48L166.816 30.1438L167.57 30.3707L166.362 32.8661H166.347ZM170 32.8661H169.247V30.5975H167.357L167.072 30.555C166.589 30.4699 166.234 30.2572 165.978 29.9028C165.736 29.5483 165.608 29.1371 165.608 28.6692C165.608 28.3431 165.665 28.0454 165.779 27.776C165.893 27.5066 166.063 27.2797 166.291 27.1096C166.518 26.9394 166.788 26.826 167.129 26.7693C167.214 26.7551 167.286 26.7409 167.371 26.7409C167.456 26.7409 167.527 26.7409 167.584 26.7409H170.014V32.8661H170ZM169.247 29.8886V27.464H167.598C167.598 27.464 167.484 27.464 167.413 27.464C167.342 27.464 167.271 27.4782 167.214 27.4924C167.015 27.5349 166.859 27.62 166.731 27.7334C166.603 27.861 166.518 28.0028 166.461 28.1588C166.404 28.3289 166.376 28.4849 166.376 28.6551C166.376 28.8252 166.404 28.9953 166.461 29.1513C166.518 29.3073 166.603 29.4491 166.731 29.5767C166.859 29.6901 167.015 29.7752 167.214 29.8319C167.286 29.8461 167.342 29.8602 167.413 29.8602C167.484 29.8602 167.541 29.8602 167.598 29.8602H169.247V29.8886Z" fill="#004E90"/>
<path id="Vector_42" d="M55.3311 43.0889V36.9496H60.1208V43.0889H59.3675V37.6727H56.0843V43.0889H55.3311Z" fill="#004E90"/>
<path id="Vector_43" d="M60.8877 43.0889L62.9486 36.9637H64.0003L66.0612 43.0889H65.2653L63.3465 37.4033H63.5881L61.6836 43.0889H60.9019H60.8877ZM61.8826 40.9479H65.0663V41.6569H61.8826V40.9479Z" fill="#004E90"/>
<path id="Vector_44" d="M66.7012 43.0889V42.4367C66.8575 42.4509 66.9712 42.4367 67.0707 42.4083C67.1702 42.38 67.2555 42.3233 67.3123 42.224C67.3692 42.1248 67.426 41.9972 67.4829 41.8128C67.5255 41.6285 67.5824 41.4017 67.625 41.1039C67.6819 40.7636 67.7387 40.4233 67.7813 40.0689C67.824 39.7286 67.8524 39.3741 67.8808 39.0196C67.9093 38.6652 67.9377 38.3249 67.9519 37.9704C67.9661 37.6301 67.9945 37.2757 68.0088 36.9496H71.9599V43.0747H71.2066V37.6585H68.7336C68.7194 37.9137 68.7052 38.1973 68.6768 38.4808C68.6483 38.7644 68.6341 39.0764 68.6057 39.4025C68.5773 39.7144 68.5488 40.0547 68.5062 40.3808C68.4636 40.7211 68.4209 41.0614 68.3499 41.4158C68.3072 41.6994 68.2504 41.9546 68.1793 42.1815C68.1082 42.4083 68.023 42.6068 67.9093 42.7628C67.7956 42.9188 67.6392 43.018 67.4402 43.0889C67.2555 43.1456 66.9996 43.1314 66.7012 43.0606" fill="#004E90"/>
<path id="Vector_45" d="M72.7275 43.0889L74.7884 36.9637H75.8402L77.901 43.0889H77.1193L75.2006 37.4033H75.4422L73.5377 43.0889H72.7418H72.7275ZM73.7224 40.9479H76.9061V41.6569H73.7224V40.9479Z" fill="#004E90"/>
<path id="Vector_46" d="M79.748 43.0889V37.6727H77.6445V36.9496H82.6048V37.6727H80.5013V43.0889H79.748Z" fill="#004E90"/>
<path id="Vector_47" d="M82.6904 43.0889L84.7513 36.9637H85.803L87.8639 43.0889H87.068L85.1493 37.4033H85.3909L83.4864 43.0889H82.7046H82.6904ZM83.6853 40.9479H86.869V41.6569H83.6853V40.9479Z" fill="#004E90"/>
<path id="Vector_48" d="M90.3369 43.0889V36.9637H92.7673C92.7673 36.9637 92.8952 36.9637 92.9805 36.9637C93.0658 36.9637 93.1368 36.9637 93.2221 36.9921C93.549 37.0488 93.8333 37.1622 94.0607 37.3324C94.2881 37.5025 94.4586 37.7294 94.5723 37.9988C94.686 38.2682 94.7429 38.5659 94.7429 38.892C94.7429 39.2182 94.686 39.5159 94.5723 39.7853C94.4586 40.0547 94.2881 40.2816 94.0607 40.4517C93.8333 40.6218 93.5632 40.7353 93.2221 40.792C93.1511 40.792 93.0658 40.8062 92.9805 40.8203C92.8952 40.8345 92.8242 40.8203 92.7673 40.8203H91.1044V43.0889H90.3511H90.3369ZM91.0902 40.1114H92.7389C92.7389 40.1114 92.8526 40.1114 92.9236 40.1114C92.9947 40.1114 93.0658 40.0972 93.1226 40.083C93.3216 40.0405 93.478 39.9554 93.6059 39.8278C93.7338 39.7144 93.8191 39.5726 93.8759 39.4025C93.9328 39.2323 93.9612 39.0764 93.9612 38.9062C93.9612 38.7361 93.9328 38.5659 93.8759 38.41C93.8191 38.254 93.7338 38.098 93.6059 37.9846C93.478 37.857 93.3216 37.7861 93.1226 37.7436C93.0658 37.7294 92.9947 37.7152 92.9236 37.7152C92.8526 37.7152 92.7957 37.7152 92.7389 37.7152H91.0902V40.1398V40.1114Z" fill="#004E90"/>
<path id="Vector_49" d="M98.1118 43.2165C97.5006 43.2165 96.9747 43.0747 96.5484 42.8053C96.122 42.5359 95.7951 42.1673 95.5677 41.6852C95.3403 41.2031 95.2266 40.6502 95.2266 40.0263C95.2266 39.4025 95.3403 38.8353 95.5677 38.3674C95.7951 37.8853 96.122 37.5167 96.5484 37.2473C96.9747 36.9779 97.5006 36.8361 98.1118 36.8361C98.7229 36.8361 99.2488 36.9779 99.6752 37.2473C100.102 37.5167 100.428 37.8853 100.642 38.3674C100.869 38.8495 100.969 39.4025 100.969 40.0263C100.969 40.6502 100.855 41.2031 100.642 41.6852C100.414 42.1673 100.102 42.5359 99.6752 42.8053C99.2488 43.0747 98.7229 43.2165 98.1118 43.2165ZM98.1118 42.4934C98.5666 42.4934 98.9503 42.3942 99.263 42.1815C99.5615 41.9688 99.8031 41.6852 99.9452 41.3166C100.102 40.9479 100.173 40.5084 100.173 40.0263C100.173 39.5442 100.102 39.1047 99.9452 38.7361C99.7889 38.3674 99.5615 38.0838 99.263 37.8712C98.9645 37.6585 98.5808 37.5592 98.1118 37.5592C97.657 37.5592 97.2732 37.6585 96.9747 37.8712C96.6763 38.0838 96.4489 38.3674 96.2925 38.7361C96.1362 39.1047 96.0651 39.5442 96.0651 40.0263C96.0651 40.5084 96.1362 40.9479 96.2925 41.3166C96.4489 41.6852 96.6763 41.9688 96.989 42.1815C97.3016 42.3942 97.6712 42.4934 98.1402 42.4934" fill="#004E90"/>
<path id="Vector_50" d="M104.351 43.2165C103.74 43.2165 103.214 43.0747 102.788 42.8053C102.361 42.5359 102.034 42.1673 101.807 41.6852C101.58 41.2031 101.466 40.6502 101.466 40.0263C101.466 39.4025 101.58 38.8495 101.807 38.3674C102.034 37.8853 102.361 37.5167 102.788 37.2473C103.214 36.9779 103.74 36.8361 104.351 36.8361C105.062 36.8361 105.644 37.0204 106.113 37.3749C106.568 37.7294 106.895 38.2256 107.066 38.8353L106.298 39.0338C106.17 38.5801 105.957 38.2115 105.63 37.9562C105.303 37.6868 104.891 37.5592 104.365 37.5592C103.91 37.5592 103.527 37.6585 103.228 37.8712C102.93 38.0838 102.688 38.3674 102.546 38.7361C102.39 39.1047 102.319 39.5442 102.304 40.0263C102.304 40.5226 102.375 40.9479 102.532 41.3166C102.688 41.6852 102.916 41.9688 103.228 42.1815C103.541 42.3942 103.925 42.4934 104.379 42.4934C104.905 42.4934 105.318 42.3658 105.644 42.0964C105.971 41.827 106.184 41.4725 106.312 41.0188L107.08 41.2173C106.909 41.827 106.597 42.3091 106.128 42.6635C105.673 43.0322 105.076 43.2023 104.365 43.2023" fill="#004E90"/>
<path id="Vector_51" d="M110.519 43.2165C109.908 43.2165 109.382 43.0747 108.956 42.8053C108.529 42.5359 108.202 42.1673 107.975 41.6852C107.747 41.2031 107.634 40.6502 107.634 40.0263C107.634 39.4025 107.747 38.8495 107.975 38.3674C108.202 37.8853 108.529 37.5167 108.956 37.2473C109.382 36.9779 109.908 36.8361 110.519 36.8361C111.23 36.8361 111.812 37.0204 112.281 37.3749C112.736 37.7294 113.063 38.2256 113.234 38.8353L112.466 39.0338C112.338 38.5801 112.125 38.2115 111.798 37.9562C111.471 37.6868 111.059 37.5592 110.533 37.5592C110.078 37.5592 109.695 37.6585 109.396 37.8712C109.098 38.0838 108.856 38.3674 108.714 38.7361C108.558 39.1047 108.487 39.5442 108.472 40.0263C108.472 40.5226 108.543 40.9479 108.7 41.3166C108.856 41.6852 109.083 41.9688 109.396 42.1815C109.709 42.3942 110.093 42.4934 110.547 42.4934C111.073 42.4934 111.485 42.3658 111.812 42.0964C112.139 41.827 112.352 41.4725 112.48 41.0188L113.248 41.2173C113.077 41.827 112.765 42.3091 112.296 42.6635C111.841 43.0322 111.244 43.2023 110.533 43.2023" fill="#004E90"/>
<path id="Vector_52" d="M118.905 43.0889H118.137V38.2965L114.939 43.0889H114.172V36.9496H114.939V41.7419L118.137 36.9496H118.905V43.0889Z" fill="#004E90"/>
<path id="Vector_53" d="M120.099 43.0889V36.9637H120.866V41.7561L124.064 36.9637H124.832V43.0889H124.064V38.2965L120.866 43.0889H120.099ZM122.501 36.4249C122.287 36.4249 122.088 36.3682 121.918 36.269C121.747 36.1697 121.605 36.0279 121.506 35.8436C121.392 35.6735 121.349 35.475 121.349 35.2623H121.961C121.961 35.4183 122.017 35.5459 122.117 35.6451C122.231 35.7585 122.358 35.8011 122.501 35.8011C122.643 35.8011 122.785 35.7444 122.884 35.6451C122.998 35.5317 123.041 35.4041 123.041 35.2623H123.652C123.652 35.475 123.595 35.6735 123.496 35.8436C123.396 36.0138 123.254 36.1556 123.069 36.269C122.884 36.3824 122.7 36.4249 122.486 36.4249" fill="#004E90"/>
<path id="Vector_54" d="M128.57 43.2165C127.959 43.2165 127.433 43.0747 127.006 42.8053C126.58 42.5359 126.253 42.1673 126.026 41.6852C125.798 41.2031 125.685 40.6502 125.685 40.0263C125.685 39.4025 125.798 38.8495 126.026 38.3674C126.253 37.8853 126.58 37.5167 127.006 37.2473C127.433 36.9779 127.959 36.8361 128.57 36.8361C129.28 36.8361 129.863 37.0204 130.332 37.3749C130.787 37.7294 131.114 38.2256 131.284 38.8353L130.517 39.0338C130.389 38.5801 130.176 38.2115 129.849 37.9562C129.522 37.6868 129.11 37.5592 128.584 37.5592C128.129 37.5592 127.745 37.6585 127.447 37.8712C127.148 38.0838 126.907 38.3674 126.765 38.7361C126.608 39.1047 126.537 39.5442 126.523 40.0263C126.523 40.5226 126.594 40.9479 126.751 41.3166C126.907 41.6852 127.134 41.9688 127.447 42.1815C127.76 42.3942 128.143 42.4934 128.598 42.4934C129.124 42.4934 129.536 42.3658 129.863 42.0964C130.19 41.827 130.403 41.4725 130.531 41.0188L131.299 41.2173C131.128 41.827 130.815 42.3091 130.346 42.6635C129.892 43.0322 129.295 43.2023 128.584 43.2023" fill="#004E90"/>
<path id="Vector_55" d="M132.208 43.0889V36.9496H132.961V39.8278L135.662 36.9496H136.614L133.814 39.9271L136.827 43.0889H135.847L132.961 40.083V43.0889H132.208Z" fill="#004E90"/>
<path id="Vector_56" d="M139.656 43.2165C139.045 43.2165 138.519 43.0747 138.092 42.8053C137.666 42.5359 137.339 42.1673 137.112 41.6852C136.884 41.2031 136.771 40.6502 136.771 40.0263C136.771 39.4025 136.884 38.8353 137.112 38.3674C137.339 37.8853 137.666 37.5167 138.092 37.2473C138.519 36.9779 139.045 36.8361 139.656 36.8361C140.267 36.8361 140.793 36.9779 141.219 37.2473C141.646 37.5167 141.972 37.8853 142.186 38.3674C142.413 38.8495 142.512 39.4025 142.512 40.0263C142.512 40.6502 142.399 41.2031 142.186 41.6852C141.958 42.1673 141.646 42.5359 141.219 42.8053C140.793 43.0747 140.267 43.2165 139.656 43.2165ZM139.656 42.4934C140.111 42.4934 140.494 42.3942 140.807 42.1815C141.105 41.9688 141.347 41.6852 141.489 41.3166C141.646 40.9479 141.717 40.5084 141.717 40.0263C141.717 39.5442 141.646 39.1047 141.489 38.7361C141.333 38.3674 141.105 38.0838 140.807 37.8712C140.508 37.6585 140.125 37.5592 139.656 37.5592C139.201 37.5592 138.817 37.6585 138.519 37.8712C138.22 38.0838 137.993 38.3674 137.836 38.7361C137.68 39.1047 137.609 39.5442 137.609 40.0263C137.609 40.5084 137.68 40.9479 137.836 41.3166C137.993 41.6852 138.22 41.9688 138.533 42.1815C138.846 42.3942 139.215 42.4934 139.684 42.4934" fill="#004E90"/>
<path id="Vector_57" d="M143.379 43.0889V36.9637H144.146V41.7561L147.344 36.9637H148.112V43.0889H147.344V38.2965L144.146 43.0889H143.379ZM145.781 36.4249C145.568 36.4249 145.369 36.3682 145.198 36.269C145.028 36.1697 144.885 36.0279 144.786 35.8436C144.672 35.6735 144.63 35.475 144.63 35.2623H145.241C145.241 35.4183 145.298 35.5459 145.397 35.6451C145.511 35.7585 145.639 35.8011 145.781 35.8011C145.923 35.8011 146.065 35.7444 146.165 35.6451C146.278 35.5317 146.321 35.4041 146.321 35.2623H146.932C146.932 35.475 146.875 35.6735 146.776 35.8436C146.676 36.0138 146.534 36.1556 146.349 36.269C146.165 36.3824 145.98 36.4249 145.767 36.4249" fill="#004E90"/>
<path id="Vector_58" d="M57.4197 53.2975V52.461C57.107 52.5177 56.7943 52.5035 56.51 52.4185C56.2116 52.3334 55.9557 52.1916 55.7283 51.9931C55.5009 51.7946 55.3162 51.5252 55.1882 51.1991C55.0461 50.873 54.9893 50.4902 54.9893 50.0648C54.9893 49.6394 55.0603 49.2424 55.1882 48.9163C55.3162 48.5902 55.5009 48.3208 55.7283 48.1082C55.9557 47.8955 56.2258 47.7537 56.51 47.6686C56.8085 47.5835 57.107 47.5694 57.4197 47.6261V47.1724H58.1729V47.6261C58.4856 47.5694 58.7983 47.5835 59.0826 47.6686C59.381 47.7537 59.6369 47.8955 59.8643 48.1082C60.0917 48.3208 60.2764 48.5902 60.4044 48.9163C60.5323 49.2424 60.6033 49.6253 60.6033 50.0648C60.6033 50.5043 60.5323 50.873 60.4044 51.1991C60.2764 51.5252 60.0917 51.7946 59.8643 51.9931C59.6369 52.2058 59.381 52.3476 59.0826 52.4185C58.7841 52.5035 58.4856 52.5177 58.1729 52.461V53.2975H57.4197ZM57.4197 51.7521V48.3067C57.1638 48.2641 56.9222 48.2783 56.7232 48.3634C56.51 48.4343 56.3395 48.5619 56.1974 48.7178C56.0552 48.8738 55.9557 49.0723 55.8705 49.2992C55.7852 49.526 55.7568 49.7671 55.7568 50.0365C55.7568 50.3058 55.7994 50.5469 55.8705 50.7737C55.9415 51.0006 56.0552 51.1849 56.1974 51.3409C56.3395 51.4969 56.51 51.6103 56.7232 51.6812C56.9222 51.7521 57.1638 51.7662 57.4197 51.7379M58.1729 51.7379C58.443 51.7804 58.6704 51.7521 58.8694 51.6812C59.0683 51.6103 59.2531 51.4969 59.3952 51.3409C59.5374 51.1849 59.6511 51.0006 59.7221 50.7737C59.7932 50.5469 59.8358 50.3058 59.8358 50.0506C59.8358 49.7954 59.7932 49.5402 59.7221 49.3133C59.6511 49.0865 59.5374 48.888 59.3952 48.7178C59.2531 48.5477 59.0826 48.4343 58.8694 48.3492C58.6704 48.2641 58.4288 48.2499 58.1729 48.2925V51.7379Z" fill="#004E90"/>
<path id="Vector_59" d="M61.4707 53.2975V47.1724H65.3508V47.8955H62.224V49.8096H64.8391V50.5327H62.224V52.5744H65.3508V53.2975H61.4707Z" fill="#004E90"/>
<path id="Vector_60" d="M66.0752 54.3184V52.5745C66.3026 52.5745 66.4874 52.5177 66.6295 52.4043C66.7716 52.2909 66.8853 52.1349 66.9564 51.9364C67.0417 51.7379 67.0985 51.5252 67.1412 51.2842C67.1838 51.0432 67.2122 50.7879 67.2406 50.5327C67.2833 50.1641 67.3117 49.8096 67.3259 49.4551C67.3543 49.1149 67.3686 48.7462 67.397 48.3776C67.4112 48.0089 67.4396 47.5977 67.4681 47.1582H71.3339V52.5745H71.7888V54.3184H71.0355V53.2976H66.8569V54.3184H66.0894H66.0752ZM67.4112 52.5745H70.5665V47.8813H68.1645C68.1503 48.2074 68.1361 48.5194 68.1218 48.8313C68.1076 49.129 68.0934 49.441 68.065 49.7387C68.0366 50.0365 68.0081 50.3768 67.9797 50.717C67.9513 51.029 67.9086 51.3125 67.8802 51.5394C67.8376 51.7663 67.7807 51.9648 67.7097 52.1349C67.6386 52.3051 67.5391 52.4468 67.4112 52.5745Z" fill="#004E90"/>
<path id="Vector_61" d="M72.7129 53.2975V47.1724H76.593V47.8955H73.4662V49.8096H76.0813V50.5327H73.4662V52.5744H76.593V53.2975H72.7129Z" fill="#004E90"/>
<path id="Vector_62" d="M77.6162 53.2975V47.1724H80.0466C80.0466 47.1724 80.1745 47.1724 80.2598 47.1724C80.3451 47.1724 80.4161 47.1724 80.5014 47.2007C80.8283 47.2574 81.1126 47.3709 81.34 47.541C81.5674 47.7111 81.7379 47.938 81.8516 48.2074C81.9653 48.4768 82.0222 48.7746 82.0222 49.1007C82.0222 49.4268 81.9653 49.7245 81.8516 49.9939C81.7379 50.2633 81.5674 50.4902 81.34 50.6603C81.1126 50.8305 80.8425 50.9439 80.5014 51.0006C80.4304 51.0006 80.3451 51.0148 80.2598 51.029C80.1745 51.0431 80.1035 51.029 80.0466 51.029H78.3837V53.2975H77.6304H77.6162ZM78.3695 50.32H80.0182C80.0182 50.32 80.1319 50.32 80.203 50.32C80.274 50.32 80.3451 50.3058 80.4019 50.2917C80.6009 50.2491 80.7573 50.1641 80.8852 50.0365C81.0131 49.923 81.0984 49.7812 81.1552 49.6111C81.2121 49.4409 81.2405 49.285 81.2405 49.1148C81.2405 48.9447 81.2121 48.7746 81.1552 48.6186C81.0984 48.4626 81.0131 48.3067 80.8852 48.1932C80.7573 48.0656 80.6009 47.9947 80.4019 47.9522C80.3451 47.938 80.274 47.9238 80.203 47.9238C80.1319 47.9238 80.075 47.9238 80.0182 47.9238H78.3695V50.3484V50.32Z" fill="#004E90"/>
<path id="Vector_63" d="M82.1934 53.2975L84.2542 47.1724H85.3202L87.381 53.2975H86.5851L84.6664 47.6119H84.908L83.0035 53.2975H82.2076H82.1934ZM83.1883 51.1566H86.3719V51.8655H83.1883V51.1566Z" fill="#004E90"/>
<path id="Vector_64" d="M92.8951 54.1483V53.2975H88.1338V47.1724H88.8871V52.617H92.2271V47.2574H92.9946V52.617H93.6484V54.1483H92.8951Z" fill="#004E90"/>
<path id="Vector_65" d="M99.0781 53.2975H98.3106V48.5052L95.0986 53.2975H94.3311V47.1724H95.0986V51.9647L98.3106 47.1724H99.0781V53.2975Z" fill="#004E90"/>
<path id="Vector_66" d="M105.004 53.2975H104.237V48.5052L101.039 53.2975H100.271V47.1724H101.039V51.9647L104.237 47.1724H105.004V53.2975Z" fill="#004E90"/>
</g>
<defs>
<clipPath id="clip0_884_19883">
<rect width="170" height="70" fill="white"/>
</clipPath>
</defs>
</svg>
