<svg width="169" height="31" viewBox="0 0 169 31" fill="none" xmlns="http://www.w3.org/2000/svg">
<g id="Layer_1" clip-path="url(#clip0_884_18801)">
<path id="Vector" d="M69.5874 13.8418H55.7565V7.0518H74.3478V3.63063H52.5195V27.317H69.5355C73.3438 27.317 76.3211 24.3148 76.3211 20.4747C76.3211 17.3153 73.8111 13.8418 69.5874 13.8418ZM69.5355 23.8958H55.7046V17.0535H69.5355C71.4223 17.0535 72.9283 18.5721 72.9283 20.4747C72.9283 22.3773 71.4223 23.8958 69.5355 23.8958Z" fill="#323E48"/>
<path id="Vector_2" d="M50.2688 15.4825C50.2688 18.7466 48.9705 21.6965 46.824 23.8609C44.6776 26.0253 41.7521 27.3345 38.5151 27.3345H24.7881V23.9133H38.5151C42.583 23.9133 45.9758 20.9634 46.7202 17.0709H28.7175V13.8069H46.7202C45.9412 9.96678 42.6003 7.01689 38.5151 7.01689H24.7881V3.59572H38.5151C44.9892 3.64808 50.2688 8.97184 50.2688 15.5" fill="#323E48"/>
<path id="Vector_3" d="M20.6684 15.1684C21.8109 13.964 22.5553 12.2708 22.5553 10.4381C22.5553 6.65034 19.526 3.59572 15.8216 3.59572H0V27.2646H16.3928C20.1491 27.2646 23.1784 24.21 23.1784 20.4223C23.1784 18.3102 22.1917 16.4251 20.6684 15.1509M15.7696 7.0518C17.6045 7.0518 19.1105 8.57038 19.1105 10.4206C19.1105 12.2708 17.6045 13.7894 15.7696 13.7894H3.23702V7.0518H15.7696ZM16.3928 23.8958H3.23702V17.0535H16.3928C18.2796 17.0535 19.7856 18.5721 19.7856 20.4747C19.7856 22.3773 18.2796 23.8958 16.3928 23.8958Z" fill="#323E48"/>
<path id="Vector_4" d="M93.0771 27.317H96.5738V23.634H122.418V3.57826H93.0771V27.317ZM96.5738 7.0518H118.921V20.1605H96.5738V7.0518Z" fill="#616E7D"/>
<path id="Vector_5" d="M125.759 23.634H145.648V27.317H149.093V23.634H168.983V3.57826H125.707V23.634H125.759ZM149.145 7.0518H165.59V20.1605H149.145V7.0518ZM129.204 7.0518H145.648V20.1605H129.204V7.0518Z" fill="#616E7D"/>
<path id="Vector_6" d="M86.3434 0H82.8467V31H86.3434V0Z" fill="#616E7D"/>
</g>
<defs>
<clipPath id="clip0_884_18801">
<rect width="169" height="31" fill="white"/>
</clipPath>
</defs>
</svg>
