<svg width="152" height="26" viewBox="0 0 152 26" fill="none" xmlns="http://www.w3.org/2000/svg">
<g id="Layer_1" clip-path="url(#clip0_884_26858)">
<path id="Vector" fill-rule="evenodd" clip-rule="evenodd" d="M151.56 0.79002C149.92 0.79002 148.28 0.79002 146.63 0.79002C146.61 5.13002 146.79 9.47002 146.53 13.79C146.34 15.89 146.12 18.17 144.73 19.87C142.83 21.88 139.25 21.93 137.32 19.93C135.85 18.25 135.64 15.93 135.44 13.81C135.16 9.48002 135.38 5.13002 135.3 0.80002C133.66 0.78002 132.03 0.78002 130.41 0.82002C130.52 5.97002 130.25 11.12 130.53 16.27C130.8 20.04 133 24.11 136.87 25.12C139.75 25.72 142.84 25.75 145.69 24.93C149.55 23.54 151.39 19.23 151.49 15.37C151.6 10.51 151.49 5.64002 151.55 0.77002" fill="#221F20"/>
<path id="Vector_2" fill-rule="evenodd" clip-rule="evenodd" d="M21.0897 20.29C19.5997 19.45 19.6497 17.66 20.1397 16.23C22.4697 13.9 26.0097 14.48 28.9997 14.27C28.9997 12.96 28.9997 11.64 28.9997 10.33C26.4397 10.08 23.6797 10.43 21.3197 9.20003C20.1797 7.94003 20.4697 5.73003 22.0497 4.96003C24.9597 4.00003 28.2097 4.63003 30.8697 6.04003C30.8297 4.33003 30.7697 2.61003 30.6397 0.910035C26.6597 0.420035 22.2697 -0.299965 18.5097 1.49003C14.3397 3.41003 14.0597 10.53 18.5997 12.19C12.7497 14 13.2797 23.3 19.0097 24.86C23.6697 25.94 28.7697 25.94 33.2897 24.25C33.3197 22.53 33.3197 20.79 33.3197 19.07C29.7597 21.4 24.9697 22.32 21.0597 20.3" fill="#221F20"/>
<path id="Vector_3" fill-rule="evenodd" clip-rule="evenodd" d="M103.84 19.79C102.22 19.79 100.9 21.11 100.9 22.73C100.9 24.35 102.21 25.67 103.84 25.67C105.47 25.67 106.78 24.35 106.78 22.73C106.78 21.11 105.47 19.79 103.84 19.79Z" fill="#221F20"/>
<path id="Vector_4" fill-rule="evenodd" clip-rule="evenodd" d="M77.8102 0.79001H51.8502L51.8702 15.06L35.6702 0.26001L35.6602 25.11L40.5402 25.08L40.6102 11.41L56.6802 25.66L56.7402 5.01001H64.8502L64.8202 25.04L69.6802 25.16L69.7002 5.01001L77.8102 5.05001V0.79001Z" fill="#221F20"/>
<path id="Vector_5" fill-rule="evenodd" clip-rule="evenodd" d="M4.97 20.48L4.85 0.73999L0 0.80999V25.08L13.55 25.01L13.45 20.4L4.97 20.48Z" fill="#221F20"/>
<path id="Vector_6" fill-rule="evenodd" clip-rule="evenodd" d="M73.2305 25.07L78.8205 25.18L80.6605 21.2L91.4605 21.11L93.2705 25.04L99.0905 25.14L85.9205 0L73.2305 25.07ZM89.4305 16.96L82.5805 16.94L85.9505 9.68L89.4205 16.96H89.4305Z" fill="#221F20"/>
<path id="Vector_7" fill-rule="evenodd" clip-rule="evenodd" d="M123.72 2.63C121.87 1.29 119.78 0.75 117.61 0.75H109.41V25.13H114.21L114.18 19.97C115.72 19.87 117.27 19.82 118.81 19.77L123.39 25.05L129.69 25.07C127.67 22.64 125.64 20.21 123.57 17.83C128.05 14.12 128.44 6.28 123.72 2.62M119.36 14.7C117.8 15.46 116.13 15.68 114.32 15.62L114.23 4.93C115.52 4.94 117.06 5.02 118.4 5.37C118.85 5.49 119.29 5.65 119.71 5.89C122.62 7.86 122.43 12.97 119.36 14.7Z" fill="#221F20"/>
</g>
<defs>
<clipPath id="clip0_884_26858">
<rect width="151.56" height="25.66" fill="white"/>
</clipPath>
</defs>
</svg>
