<svg width="194" height="194" viewBox="0 0 194 194" fill="none" xmlns="http://www.w3.org/2000/svg">
<g id="Layer_1">
<g id="Clip path group">
<mask id="mask0_884_22309" style="mask-type:luminance" maskUnits="userSpaceOnUse" x="13" y="83" width="168" height="28">
<g id="clippath">
<path id="Vector" d="M27.3935 83.3108C19.8347 83.3108 13.6895 89.4412 13.6895 97C13.6895 104.559 19.8198 110.704 27.3935 110.704H166.607C174.166 110.704 180.311 104.574 180.311 97C180.311 89.4263 174.181 83.3108 166.607 83.3108H27.3935Z" fill="white"/>
</g>
</mask>
<g mask="url(#mask0_884_22309)">
<g id="Group">
<path id="Vector_2" d="M96.9934 0.0027239L-0.00390625 97L96.9934 193.997L193.991 97L96.9934 0.0027239Z" fill="url(#paint0_linear_884_22309)"/>
<path id="Vector_3" d="M32.214 99.3361H34.1483L34.8923 96.5387H32.9579L33.3746 94.9466H35.3238L36.3654 91.0928H38.27L37.2284 94.9318H38.7907L39.8323 91.0779H41.722L40.6804 94.9318H42.6148L42.1982 96.5239H40.2489L39.505 99.3212H41.4393L41.0227 100.913H39.0735L38.0468 104.737H36.1422L37.1689 100.928H35.5916L34.5649 104.737H32.6604L33.687 100.928H31.7676L32.1842 99.3361H32.214ZM37.6153 99.3361L38.3592 96.5387H36.782L36.0231 99.3361H37.6004H37.6153Z" fill="white"/>
<path id="Vector_4" d="M44.0137 90.7357H48.2841L50.7541 101.642H50.7839L53.2539 90.7357H57.5541V104.752H54.8311V93.0272L52.1528 104.752H49.3108L46.7515 93.0272H46.7069V104.752H44.0286V90.7357H44.0137Z" fill="white"/>
<path id="Vector_5" d="M60.5151 90.7357H63.4166V96.256H66.214C66.4223 96.256 66.6901 96.256 67.0175 96.2709C67.3746 96.2858 67.7317 96.3304 68.0739 96.4048C68.4608 96.4941 68.8328 96.6131 69.1899 96.7768C69.5768 96.9554 69.919 97.1934 70.2166 97.5059C70.5439 97.8481 70.7969 98.2648 70.9606 98.7112C71.1689 99.2915 71.273 99.9015 71.2433 100.512C71.2582 101.122 71.1689 101.732 70.9606 102.297C70.7969 102.744 70.5439 103.145 70.2315 103.488C69.9488 103.785 69.6214 104.038 69.2494 104.217C68.9221 104.38 68.565 104.499 68.193 104.589C67.8805 104.663 67.568 104.708 67.2556 104.723C66.9728 104.723 66.7645 104.737 66.6306 104.737H60.4854V90.7208L60.5151 90.7357ZM63.4464 102.327H65.9462C66.2289 102.327 66.4967 102.312 66.7794 102.267C67.0472 102.223 67.3151 102.148 67.5532 102.014C67.7912 101.881 67.9995 101.687 68.1335 101.449C68.2971 101.137 68.3715 100.794 68.3566 100.452C68.3715 100.095 68.2971 99.7378 68.1335 99.4105C67.9995 99.1724 67.7912 98.979 67.5532 98.8451C67.3002 98.7112 67.0175 98.6368 66.7199 98.607C66.4223 98.5772 66.1098 98.5624 65.8122 98.5624H63.4613V102.327H63.4464ZM73.1776 90.7357H76.0792V104.752H73.1776V90.7357Z" fill="white"/>
<path id="Vector_6" d="M78.936 90.7357H85.8104C86.3163 90.7357 86.8222 90.7803 87.3281 90.8994C87.7298 90.9887 88.1018 91.1375 88.4589 91.3458C89.0244 91.6731 89.4856 92.1493 89.7684 92.7444C89.8874 92.9974 89.9767 93.2652 90.0362 93.5479C90.0957 93.8009 90.1106 94.0687 90.1255 94.3217C90.1255 94.649 90.0957 94.9615 90.0213 95.274C89.9618 95.5418 89.8576 95.8096 89.7237 96.0477C89.5898 96.2858 89.4112 96.4941 89.188 96.6727C88.95 96.881 88.6821 97.0446 88.3994 97.1786C88.8161 97.3274 89.2029 97.5506 89.5452 97.8481C89.813 98.0862 90.0362 98.3689 90.1999 98.6814C90.3486 98.979 90.4528 99.2915 90.4974 99.6188C90.5421 99.9313 90.5718 100.229 90.5718 100.541C90.5718 101.166 90.4528 101.776 90.1999 102.342C89.9618 102.863 89.6047 103.309 89.1434 103.651C88.6524 104.023 88.087 104.306 87.4769 104.455C86.7776 104.648 86.0484 104.737 85.3342 104.737H78.9062V90.7208L78.936 90.7357ZM81.7483 96.256H85.364C85.6169 96.256 85.855 96.2263 86.0931 96.1667C86.3163 96.1221 86.5246 96.018 86.718 95.884C86.8966 95.7501 87.0454 95.5864 87.1495 95.393C87.2686 95.1698 87.3132 94.9169 87.3132 94.6639C87.3132 94.411 87.2686 94.158 87.1644 93.9199C87.0751 93.7265 86.9263 93.5777 86.7478 93.4587C86.5692 93.3396 86.3609 93.2652 86.1526 93.2206C85.9145 93.176 85.6765 93.1462 85.4235 93.1611H81.7334V96.2709L81.7483 96.256ZM81.7483 102.327H85.3937C85.6913 102.327 85.9889 102.297 86.2865 102.208C86.5395 102.148 86.7924 102.029 87.0007 101.866C87.2091 101.717 87.3579 101.509 87.462 101.27C87.581 101.003 87.6406 100.72 87.6257 100.437C87.6257 100.095 87.5662 99.7676 87.4323 99.4551C87.3132 99.2171 87.1347 99.0236 86.9115 98.8897C86.6883 98.7558 86.4353 98.6665 86.1675 98.6219C85.8997 98.5772 85.6169 98.5624 85.3342 98.5624H81.7631V102.327H81.7483Z" fill="white"/>
<path id="Vector_7" d="M92.8037 90.7357H97.089L99.5442 101.642H99.5888L102.044 90.7357H106.374V104.752H103.666V93.0272H103.636L100.958 104.752H98.1157L95.5564 93.0272H95.5267V104.752H92.8335L92.8037 90.7357Z" fill="white"/>
<path id="Vector_8" d="M109.306 90.7357H119.602V93.1462H112.118V96.256H119.007V98.6814H112.118V102.223H119.93V104.752H109.306V90.7357Z" fill="white"/>
<path id="Vector_9" d="M131.163 95.3484C131.134 95.2145 131.074 95.0657 131.015 94.8871C130.955 94.7085 130.881 94.53 130.777 94.3514C130.672 94.158 130.553 93.9943 130.405 93.8307C130.241 93.6521 130.062 93.4884 129.854 93.3694C129.601 93.2206 129.333 93.1164 129.051 93.042C128.693 92.9528 128.321 92.9081 127.949 92.923C127.741 92.923 127.518 92.9528 127.31 92.9825C127.057 93.0272 126.804 93.1164 126.566 93.2355C126.298 93.3694 126.045 93.5479 125.822 93.7563C125.554 94.0092 125.331 94.2919 125.167 94.6193C124.959 95.0359 124.795 95.4674 124.691 95.9287C124.557 96.5239 124.497 97.1339 124.512 97.744C124.512 98.4284 124.587 99.1129 124.75 99.7825C124.884 100.333 125.107 100.839 125.435 101.3C126.015 102.119 126.967 102.595 127.964 102.55C128.485 102.565 129.006 102.476 129.467 102.267C129.809 102.104 130.122 101.866 130.39 101.583C130.613 101.33 130.791 101.032 130.91 100.72C131.029 100.422 131.119 100.154 131.178 99.9462H134.08C133.946 100.75 133.678 101.523 133.291 102.238C132.949 102.848 132.488 103.398 131.952 103.845C131.416 104.276 130.821 104.589 130.166 104.797C128.559 105.273 126.848 105.214 125.301 104.589C124.512 104.261 123.828 103.755 123.262 103.101C122.697 102.416 122.265 101.628 122.012 100.779C121.715 99.7974 121.581 98.7707 121.596 97.744C121.596 96.9554 121.67 96.1667 121.849 95.393C121.998 94.7383 122.236 94.1134 122.548 93.5331C123.084 92.5212 123.902 91.688 124.899 91.1374C125.375 90.8845 125.866 90.6911 126.387 90.572C126.908 90.4381 127.429 90.3786 127.964 90.3637C128.649 90.3637 129.333 90.4381 130.003 90.6018C130.538 90.7506 131.074 90.9589 131.55 91.2416C131.967 91.4946 132.354 91.7921 132.681 92.1493C132.979 92.4766 133.247 92.8337 133.455 93.2057C133.648 93.5479 133.797 93.9199 133.901 94.3068C133.991 94.6342 134.065 94.9764 134.08 95.3186L131.134 95.3484H131.163Z" fill="white"/>
<path id="Vector_10" d="M135.077 90.7357H146.564V93.1462H142.279V104.752H139.348V93.1462H135.077V90.7357Z" fill="white"/>
<path id="Vector_11" d="M148.379 90.7357H158.676V93.1462H151.191V96.256H158.066V98.6814H151.191V102.223H159.003V104.752H148.379V90.7357Z" fill="white"/>
</g>
</g>
</g>
</g>
<defs>
<linearGradient id="paint0_linear_884_22309" x1="163.643" y1="32.7436" x2="38.3011" y2="158.086" gradientUnits="userSpaceOnUse">
<stop stop-color="#F2E500"/>
<stop offset="0.11" stop-color="#F8DA1C"/>
<stop offset="0.22" stop-color="#FDD033"/>
<stop offset="0.3" stop-color="#FFCD3C"/>
<stop offset="0.53" stop-color="#F7A848"/>
<stop offset="0.74" stop-color="#F2904F"/>
<stop offset="0.86" stop-color="#F08752"/>
<stop offset="1" stop-color="#F08752"/>
</linearGradient>
</defs>
</svg>
