<svg width="170" height="42" viewBox="0 0 170 42" fill="none" xmlns="http://www.w3.org/2000/svg">
<g id="Layer_1" clip-path="url(#clip0_884_26820)">
<path id="Vector" d="M63.2888 4.93453C62.7397 4.06957 61.9653 3.44567 60.9515 2.97774C59.9378 2.50981 58.7692 2.3113 57.3612 2.3113H50.6592V17.838H54.2495V13.5557H57.3612C58.7692 13.5557 59.9378 13.3572 60.9515 12.8893C61.9653 12.4214 62.7397 11.7975 63.2888 10.9325C63.8379 10.1101 64.1054 9.08915 64.1054 7.95478C64.1054 6.82041 63.8379 5.79948 63.2888 4.93453ZM60.4869 7.91224C60.4869 8.7772 60.1772 9.44364 59.628 9.91157C59.0789 10.3795 58.2623 10.6205 57.1781 10.6205H54.2495V5.20394H57.1781C58.2764 5.20394 59.093 5.44499 59.628 5.91292C60.2194 6.38085 60.4869 7.04729 60.4869 7.91224ZM69.5684 2.29712H66.0203V17.838H69.4135L76.7773 7.71373V17.8805H80.3254V2.29712H76.9744L69.5684 12.4639V2.29712ZM93.9688 14.5058H86.8021L85.4364 17.838H81.7756L88.6607 2.29712H92.2088L99.1079 17.8805H95.3627L93.9547 14.5058H93.9688ZM92.8424 11.7975L90.3925 5.82784L87.9426 11.7975H92.8565H92.8424ZM64.8939 39.5044V23.921H61.3035V30.0466H54.2918V23.921H50.7014V39.5044H54.2918V33.1094H61.3035V39.5044H64.8939ZM72.3421 38.7245C71.0609 38.0155 70.0471 37.0797 69.3009 35.8603C68.5547 34.6408 68.2027 33.2654 68.2027 31.734C68.2027 30.2026 68.5547 28.8272 69.3009 27.6077C70.0471 26.3883 71.0468 25.4099 72.3421 24.7434C73.6234 24.0345 75.0736 23.68 76.6646 23.68C78.2557 23.68 79.7059 24.0345 80.9872 24.7434C82.2684 25.4524 83.2822 26.3883 84.0284 27.6077C84.7746 28.8272 85.1266 30.2026 85.1266 31.734C85.1266 33.2654 84.7746 34.6408 84.0284 35.8603C83.2822 37.0797 82.2684 38.0581 80.9872 38.7245C79.7059 39.4335 78.2557 39.788 76.6646 39.788C75.0736 39.788 73.6234 39.4335 72.3421 38.7245ZM79.1568 36.1013C79.903 35.6759 80.4803 35.0804 80.9027 34.3288C81.3251 33.5773 81.5222 32.7124 81.5222 31.734C81.5222 30.7556 81.3251 29.9332 80.9027 29.1391C80.4803 28.3876 79.8889 27.8062 79.1568 27.3667C78.4105 26.9413 77.5939 26.7428 76.6646 26.7428C75.7354 26.7428 74.9187 26.9413 74.1725 27.3667C73.4263 27.7921 72.849 28.3876 72.4266 29.1391C72.0042 29.8906 71.8071 30.7414 71.8071 31.734C71.8071 32.7266 72.0042 33.5348 72.4266 34.3288C72.8631 35.0804 73.4404 35.6617 74.1725 36.1013C74.9187 36.5267 75.7354 36.7252 76.6646 36.7252C77.5939 36.7252 78.4246 36.4841 79.1568 36.1013ZM102.079 35.1229C102.079 34.1871 101.839 33.393 101.333 32.7691C100.826 32.1452 100.122 31.6631 99.1924 31.3937C99.8541 31.0817 100.403 30.6138 100.797 30.0183C101.192 29.4369 101.389 28.7704 101.389 27.9764C101.389 26.686 100.882 25.6935 99.8682 24.9987C98.8545 24.2897 97.4465 23.9352 95.6584 23.9352H88.4495V39.476H96.0948C98.0097 39.476 99.4881 39.1216 100.544 38.3417C101.6 37.5902 102.107 36.4983 102.107 35.1229M95.4049 30.4153H92.0117V26.6435H95.3627C96.1371 26.6435 96.7284 26.7995 97.1086 27.1114C97.5451 27.4659 97.7281 27.9338 97.7281 28.5294C97.7281 29.1533 97.531 29.6212 97.1508 29.9474C96.7566 30.2593 96.1793 30.4153 95.4049 30.4153ZM95.954 32.9251C97.6295 32.9251 98.4884 33.549 98.4884 34.8535C98.4884 36.158 97.6718 36.8528 95.954 36.8528H92.0117V32.9251H95.954ZM108.541 38.7387C107.26 38.0297 106.246 37.0939 105.5 35.8744C104.754 34.655 104.402 33.2796 104.402 31.7482C104.402 30.2168 104.754 28.8413 105.5 27.6219C106.246 26.4025 107.246 25.4241 108.541 24.7576C109.823 24.0486 111.273 23.6941 112.864 23.6941C114.455 23.6941 115.905 24.0486 117.186 24.7576C118.468 25.4666 119.481 26.4025 120.228 27.6219C120.974 28.8413 121.326 30.2168 121.326 31.7482C121.326 33.2796 120.974 34.655 120.228 35.8744C119.481 37.0939 118.468 38.0723 117.186 38.7387C115.905 39.4477 114.455 39.8022 112.864 39.8022C111.273 39.8022 109.823 39.4477 108.541 38.7387ZM115.356 36.1155C116.102 35.6901 116.68 35.0946 117.102 34.343C117.524 33.5915 117.721 32.7266 117.721 31.7482C117.721 30.7698 117.524 29.9474 117.102 29.1533C116.68 28.4018 116.088 27.8204 115.356 27.3808C114.61 26.9555 113.793 26.7569 112.864 26.7569C111.935 26.7569 111.118 26.9555 110.372 27.3808C109.626 27.8062 109.048 28.4018 108.612 29.1533C108.189 29.9048 107.992 30.7556 107.992 31.7482C107.992 32.7407 108.189 33.549 108.612 34.343C109.048 35.0946 109.626 35.6759 110.372 36.1155C111.118 36.5409 111.935 36.7394 112.864 36.7394C113.793 36.7394 114.624 36.4983 115.356 36.1155ZM124.705 35.917C125.451 37.1364 126.423 38.0723 127.704 38.7812C128.957 39.4477 130.393 39.8022 131.956 39.8022C133.322 39.8022 134.533 39.5611 135.617 39.0932C136.715 38.6253 137.602 37.9163 138.348 37.0088L136.053 34.896C134.997 36.1155 133.716 36.7394 132.153 36.7394C131.182 36.7394 130.323 36.5409 129.577 36.1155C128.83 35.6901 128.253 35.0946 127.817 34.343C127.394 33.5632 127.197 32.7266 127.197 31.7482C127.197 30.7698 127.394 29.9048 127.817 29.1533C128.253 28.4018 128.83 27.8204 129.577 27.3808C130.351 26.9555 131.182 26.7569 132.153 26.7569C133.716 26.7569 134.997 27.3525 136.053 28.5578L138.348 26.445C137.602 25.5375 136.715 24.8711 135.617 24.4031C134.519 23.9352 133.322 23.6941 131.998 23.6941C130.393 23.6941 128.999 24.0061 127.704 24.7151C126.423 25.3815 125.451 26.3599 124.705 27.5794C123.959 28.7988 123.607 30.2168 123.607 31.734C123.607 33.2512 123.959 34.6833 124.705 35.8886M152.921 26.8562H147.965V39.4902H144.417V26.8562H139.503V23.9068H152.907V26.8562H152.921ZM159.271 23.9068H155.723V39.4902H159.116L166.48 29.366V39.4902H170.028V23.9068H166.677L159.271 34.0736V23.9068Z" fill="#183254"/>
<path id="Vector_2" d="M23.513 5.11889C23.5834 3.82855 24.0199 2.5382 24.7239 1.36129C24.921 1.04934 25.1181 0.77993 25.3152 0.453799C27.0611 0.850828 28.7366 1.43219 30.3417 2.25461C29.7926 2.99195 29.3702 3.8569 29.2153 4.87784C29.0605 5.89877 29.1731 6.9906 29.5673 7.96899C29.9897 8.94738 30.6233 9.81234 31.3555 10.4788C32.1017 11.1878 32.9183 11.6982 33.8054 12.1662C35.5513 13.0311 37.4239 13.5416 39.3387 13.6976C39.733 13.7401 40.1131 13.7401 40.5074 13.7401C40.5778 13.9811 40.7045 14.2506 40.7749 14.52C40.0286 14.5909 39.3387 14.6759 38.5925 14.6759C35.861 14.761 33.1014 14.4065 30.567 13.499C28.0326 12.5632 25.6954 11.0318 24.4563 8.79141C23.7524 7.69958 23.4426 6.39505 23.5271 5.10471M37.5084 23.7934C33.0732 23.5524 28.624 22.6165 24.5831 20.7023C22.5556 19.7664 20.6125 18.547 18.8948 17.0156C17.1771 15.4842 15.6987 13.6408 14.8117 11.4855C13.8824 9.33023 13.5726 6.90552 13.9105 4.6226C14.1077 3.28972 14.5301 1.99938 15.0792 0.822469C12.587 1.53145 10.292 2.70836 8.30677 4.22557C8.26453 4.53753 8.22229 4.89202 8.19413 5.20397C7.99701 7.7563 8.54612 10.337 9.75699 12.5774C10.9256 14.8177 12.7138 16.7745 14.7413 18.3343C16.811 19.894 19.106 21.156 21.5137 22.0919C26.3853 24.0061 31.6793 24.8002 36.9311 24.7576C38.4517 24.7576 39.9723 24.6442 41.493 24.4882C41.5352 24.2472 41.5774 24.0203 41.6056 23.7367C40.2398 23.8502 38.8882 23.8502 37.5224 23.7793M20.697 14.8036C22.2599 16.023 24.0058 16.9589 25.8362 17.6962C29.5392 19.1425 33.5801 19.7664 37.5928 19.6955C39.0008 19.6955 40.3525 19.5821 41.7182 19.4261C41.7182 19.3127 41.7182 19.1851 41.676 19.1142C41.676 19.0007 41.6338 18.8731 41.6338 18.7597C40.5778 18.8022 39.5359 18.8022 38.4799 18.7597C35.326 18.5612 32.1721 17.8522 29.2576 16.4909C27.8214 15.782 26.4134 14.9312 25.2026 13.8677C23.9917 12.7759 22.9076 11.443 22.2036 9.9116C21.4996 8.3802 21.2321 6.62193 21.4996 4.93456C21.7389 3.28972 22.4289 1.75832 23.3722 0.467979C23.4567 0.354542 23.5271 0.269464 23.6116 0.198566C22.1191 5.13892e-05 20.5985 -0.056667 19.0356 0.0709494C18.4161 0.113488 17.8247 0.226925 17.2475 0.312003C16.5012 1.75832 15.9944 3.33226 15.8817 4.89202C15.6846 6.80626 16.0788 8.76305 16.9659 10.4504C17.7825 12.1803 19.106 13.6692 20.6689 14.8461M36.8325 28.9123C31.1443 28.6712 25.456 27.5085 20.2465 25.1547C17.6417 23.9778 15.1496 22.4889 12.925 20.5747C10.7003 18.6888 8.79956 16.42 7.54646 13.7117C6.46231 11.4005 5.95543 8.77723 6.06807 6.2249C1.87228 10.4504 -0.464974 16.4484 0.0841399 22.8718C1.09789 34.4281 11.2635 42.9643 22.7527 41.915C30.8064 41.206 37.3957 35.9595 40.2398 28.9123C39.1135 28.9548 37.9871 28.9548 36.8466 28.9123M31.7356 3.04867C31.3836 3.71511 31.1865 4.42409 31.1865 5.09053C31.1865 5.75697 31.3836 6.38088 31.7356 6.89134C32.4396 7.98317 33.6786 8.73469 35.0444 9.16008C36.1285 9.51457 37.2972 9.62801 38.4658 9.62801C36.7199 6.96224 34.4108 4.73604 31.7356 3.04867Z" fill="#254B9A"/>
</g>
<defs>
<clipPath id="clip0_884_26820">
<rect width="170" height="42" fill="white"/>
</clipPath>
</defs>
</svg>
