<svg width="131" height="42" viewBox="0 0 131 42" fill="none" xmlns="http://www.w3.org/2000/svg">
<g id="Layer_1" clip-path="url(#clip0_884_22125)">
<path id="Vector" d="M131 4.22724C130.174 4.24157 129.334 4.28456 128.494 4.28456C126.38 4.28456 124.28 4.28456 122.165 4.29889C121.861 4.29889 121.542 4.32754 121.238 4.41352C120.529 4.59981 120.137 5.11567 120.036 5.81782C119.978 6.16173 119.964 6.51997 119.964 6.87821C119.964 14.4012 119.964 21.9386 119.964 29.4616C119.964 29.8342 119.78 30.0205 119.413 30.0205C118.414 30.0205 117.415 30.0205 116.43 30.0205C116.111 30.0205 116.01 29.9202 116.01 29.6049C116.01 20.0758 116.01 10.5323 116.01 1.00308C116.01 0.702161 116.097 0.616184 116.401 0.616184C118.747 0.616184 121.079 0.616184 123.425 0.616184C125.771 0.616184 128.103 0.587524 130.449 0.587524C130.638 0.587524 130.812 0.630513 131 0.644843V4.22724Z" fill="black"/>
<path id="Vector_2" d="M131 40.739C130.198 40.7963 129.798 40.4428 129.798 39.6786V37.2856C129.798 37.2856 129.754 37.2712 129.725 37.2569C129.291 37.9017 128.856 38.5466 128.436 39.1771C128.132 39.6213 127.842 40.0798 127.524 40.5097C127.437 40.6387 127.234 40.7103 127.075 40.7533C126.872 40.7963 126.655 40.7533 126.452 40.7533C126.119 40.782 126.003 40.653 126.003 40.3234C126.003 39.0194 126.003 37.7154 126.003 36.4115C126.003 36.0389 126.003 35.652 126.003 35.2794C126.003 35.0358 126.075 34.9355 126.351 34.9355C127.48 34.9642 127.306 34.7636 127.321 35.8669C127.321 36.6121 127.321 37.3572 127.321 38.1023C127.321 38.217 127.321 38.3173 127.335 38.5179C127.422 38.4033 127.48 38.346 127.524 38.2886C128.19 37.2999 128.856 36.2968 129.508 35.2937C129.682 35.0358 129.87 34.9069 130.189 34.9355C130.464 34.9642 130.739 34.9498 131.014 34.9642V40.739H131Z" fill="black"/>
<path id="Vector_3" d="M24.4766 15.4043V1.27535C24.4766 0.893229 24.6745 0.702168 25.0704 0.702168C27.0256 0.702168 28.9808 0.702168 30.936 0.702168C31.2981 0.702168 31.385 0.816805 31.385 1.16072C31.385 5.00104 31.385 8.84137 31.385 12.6817C31.385 12.8107 31.385 12.9396 31.385 13.0543C31.385 13.4698 31.5443 13.6991 31.8485 13.7707C32.1526 13.8281 32.3699 13.6848 32.5292 13.2692C32.8913 12.4094 33.2244 11.5497 33.5865 10.6899C34.8899 7.48006 36.2079 4.27023 37.5114 1.06041C37.6273 0.773816 37.7721 0.65918 38.0907 0.65918C40.1039 0.65918 42.117 0.65918 44.1447 0.65918C44.5792 0.65918 44.5936 0.673509 44.5936 1.1034V29.5619C44.5936 30.0205 44.5936 30.0348 44.1302 30.0348C42.1315 30.0348 40.1184 30.0348 38.1197 30.0348C37.7576 30.0348 37.6707 29.9202 37.6707 29.5763C37.6707 25.7073 37.6707 21.8526 37.6707 17.998C37.6707 17.8833 37.6707 17.7687 37.6707 17.6541C37.6707 17.2815 37.4969 17.0379 37.1928 16.9949C36.8452 16.9376 36.6569 17.1382 36.5265 17.4248C36.1789 18.2846 35.8313 19.1443 35.4838 20.0041C34.1948 23.1853 32.9058 26.3665 31.6312 29.5476C31.4864 29.9059 31.3126 30.0492 30.9071 30.0492C28.9374 30.0492 26.9677 30.0635 24.998 30.0778C24.4766 30.0778 24.4766 30.0778 24.4766 29.5619V15.4043Z" fill="black"/>
<path id="Vector_4" d="M0.0286911 15.4043V1.27536C0.0286911 0.773823 0.0286911 0.759493 0.521118 0.759493C3.59154 0.745164 6.66197 0.716505 9.7324 0.730834C11.1083 0.730834 12.4842 0.917119 13.8166 1.28969C15.9022 1.86287 17.6402 2.92326 18.7409 4.82909C19.3637 5.91814 19.7113 7.1075 19.8416 8.35417C19.943 9.31425 19.972 10.2887 19.9865 11.2631C20.0009 14.4013 20.0154 17.5394 19.9865 20.6776C19.9865 22.1822 19.7692 23.6725 19.1899 25.0768C18.3933 27.0113 16.9884 28.3296 15.0622 29.1177C13.7297 29.6623 12.3249 29.9918 10.8766 30.0205C7.38613 30.0921 3.88121 30.0778 0.376286 30.1208C0.11559 30.1208 0.014208 30.0348 0.0286911 29.7769C0.0286911 29.6909 0.0286911 29.5906 0.0286911 29.5046V15.4043ZM7.61786 15.4043C7.61786 17.826 7.61786 20.2334 7.61786 22.6551C7.61786 22.956 7.70476 23.085 8.03787 23.0707C8.70409 23.0563 9.3848 23.0993 10.051 23.042C10.4855 23.0133 10.9345 22.8987 11.3111 22.7124C12.0931 22.3255 12.3104 21.5804 12.3249 20.7779C12.3394 19.4166 12.3249 18.0553 12.3249 16.694C12.3249 14.5016 12.3249 12.2948 12.3249 10.1024C12.3249 8.6121 11.4993 7.79532 9.97861 7.75233C9.35583 7.75233 8.73306 7.75233 8.11028 7.75233C7.63234 7.75233 7.63234 7.75233 7.63234 8.2252V15.4043" fill="black"/>
<path id="Vector_5" d="M69.5189 29.9488C69.3596 29.9488 69.2437 29.9775 69.1134 29.9775C67.2595 29.9775 65.4057 29.9775 63.5518 29.9775C63.2912 29.9775 63.1753 29.9202 63.1174 29.6336C62.8422 28.3153 62.538 26.997 62.2629 25.6643C62.1904 25.3491 62.0746 25.2058 61.7125 25.2058C59.6849 25.2344 57.6572 25.2487 55.6296 25.2487C55.3544 25.2487 55.253 25.3347 55.1951 25.607C54.9199 26.9396 54.6158 28.2723 54.3406 29.6049C54.2826 29.9202 54.1378 30.0205 53.8337 30.0062C52.0233 30.0062 50.2129 30.0062 48.417 30.0062C47.9535 30.0062 47.939 29.9918 48.0549 29.5333C49.3873 23.9018 50.7053 18.2702 52.0378 12.6387C52.9502 8.76973 53.8626 4.90074 54.7751 1.03176C54.8475 0.716504 54.9633 0.601868 55.2965 0.601868C57.6282 0.601868 59.96 0.601868 62.2773 0.601868C62.5815 0.601868 62.6973 0.702175 62.7698 0.988766C63.6677 4.81476 64.5657 8.64076 65.4636 12.4668C66.7961 18.1699 68.143 23.8588 69.4755 29.562C69.5044 29.6766 69.5044 29.7769 69.5334 29.9345M61.0028 19.5886C61.0028 19.5886 61.0318 19.4883 61.0318 19.4596C60.5538 17.0809 60.0759 14.7022 59.5835 12.3378C59.4966 11.9366 59.1924 11.7073 58.7869 11.7073C58.4103 11.7073 58.1062 11.9079 57.9758 12.2805C57.9469 12.3665 57.9179 12.4524 57.9034 12.5527C57.5413 14.3153 57.1793 16.0635 56.8172 17.826C56.7013 18.3992 56.5855 18.9867 56.4551 19.5886H60.9883H61.0028Z" fill="black"/>
<path id="Vector_6" d="M94.5464 15.1894C94.5464 12.6244 94.4884 10.0594 94.5608 7.49439C94.6333 5.14434 95.5602 3.15253 97.4864 1.70524C98.7609 0.745157 100.253 0.272281 101.831 0.100326C103.453 -0.0859585 105.061 -0.0143106 106.669 0.343929C109.58 1.01742 111.796 3.25283 112.317 6.17607C112.433 6.86389 112.505 7.58037 112.505 8.29685C112.52 13.0113 112.52 17.74 112.505 22.4545C112.505 23.8731 112.201 25.2487 111.492 26.5097C110.536 28.2006 109.102 29.3327 107.248 29.8915C104.482 30.7226 101.716 30.7226 99.0216 29.6049C96.4002 28.5159 94.9953 26.4524 94.6332 23.7011C94.5029 22.7267 94.5464 21.738 94.5464 20.7493C94.5464 18.9007 94.5464 17.0379 94.5464 15.1894ZM99.0361 15.218C99.0361 17.3675 99.0361 19.5312 99.0361 21.6807C99.0361 22.1536 99.0651 22.6264 99.123 23.085C99.3403 24.6756 100.325 25.7646 101.904 26.1515C102.831 26.3808 103.758 26.3951 104.699 26.2375C106.249 25.9652 107.378 25.1771 107.798 23.6152C107.958 23.042 108.03 22.4258 108.03 21.824C108.045 17.4105 108.045 13.0113 108.03 8.59777C108.03 8.12489 107.972 7.63769 107.885 7.16481C107.639 5.91814 106.973 4.97238 105.756 4.47085C104.786 4.06962 103.772 4.04096 102.758 4.12694C101.991 4.19859 101.252 4.3992 100.615 4.84342C99.5141 5.60289 99.0941 6.73492 99.0651 7.99593C99.0216 10.4033 99.0651 12.8107 99.0651 15.218" fill="black"/>
<path id="Vector_7" d="M71.3582 29.9632C71.4596 29.519 71.561 29.1321 71.6479 28.7452C72.8645 23.8158 74.0811 18.9007 75.3121 13.9714C76.3839 9.6295 77.4701 5.30197 78.5419 0.960107C78.6143 0.673515 78.7302 0.558879 79.0343 0.573208C80.9316 0.573208 82.8289 0.573208 84.7407 0.573208C85.0014 0.573208 85.1317 0.659186 85.1896 0.917118C86.189 4.95806 87.1883 9.01333 88.1876 13.0543C88.8684 15.7769 89.5491 18.4995 90.2153 21.2221C90.896 23.9734 91.5912 26.739 92.2719 29.4903C92.3733 29.9059 92.3588 29.9345 91.9098 29.9345C90.4036 29.9345 88.8973 29.9345 87.3911 29.9345C87.0869 29.9345 86.9421 29.8485 86.8697 29.5333C85.8414 25.1484 84.7986 20.7779 83.7558 16.3931C83.4517 15.0891 83.1475 13.7851 82.8289 12.4811C82.6406 11.693 81.844 11.3491 81.2937 11.8649C81.0909 12.0512 80.975 12.3665 80.9026 12.6387C80.3667 14.8025 79.8743 16.9806 79.3529 19.1587C78.5419 22.5978 77.7163 26.0225 76.9198 29.4616C76.8329 29.8342 76.7025 29.9632 76.297 29.9488C74.8052 29.9202 73.3135 29.9488 71.8072 29.9488H71.3438" fill="black"/>
<path id="Vector_8" d="M101.99 34.9355C102.396 34.9355 102.743 34.9355 103.091 34.9355C103.323 34.9355 103.337 35.0931 103.352 35.2651C103.352 35.8239 103.352 36.3828 103.352 36.956C103.352 37.0706 103.366 37.1996 103.381 37.3142C103.41 37.3429 103.439 37.3572 103.482 37.3859C103.627 37.2712 103.815 37.1853 103.888 37.042C104.09 36.7124 104.221 36.3398 104.394 35.9959C104.814 35.1361 105.336 34.8352 106.306 34.8925C106.509 34.8925 106.596 34.9928 106.61 35.1791C106.668 35.7093 106.625 35.781 106.118 35.8526C105.785 35.9099 105.597 36.1105 105.466 36.3971C105.249 36.87 105.003 37.3285 104.757 37.8014C105.597 38.303 105.857 39.306 106.364 40.1371C106.437 40.2661 106.509 40.4094 106.625 40.61C106.712 40.4524 106.77 40.3521 106.799 40.2518C107.494 38.5752 108.189 36.8987 108.87 35.2221C108.957 35.0072 109.072 34.9212 109.304 34.9355C109.608 34.9498 109.913 34.9212 110.202 34.9498C110.333 34.9642 110.506 35.0788 110.564 35.1934C111.346 36.9703 112.099 38.7472 112.867 40.524C112.882 40.567 112.882 40.6387 112.911 40.739C112.447 40.739 112.013 40.739 111.593 40.739C111.52 40.739 111.448 40.61 111.404 40.524C111.317 40.3378 111.216 40.1515 111.173 39.9509C111.071 39.564 110.868 39.4207 110.448 39.4493C109.956 39.4923 109.449 39.478 108.957 39.4493C108.681 39.4493 108.522 39.5496 108.45 39.8076C108.406 39.9509 108.334 40.0798 108.29 40.2231C108.088 40.7676 108.175 40.7533 107.494 40.7533C106.842 40.7533 106.19 40.739 105.553 40.7533C105.234 40.7533 105.061 40.653 104.93 40.3808C104.699 39.8935 104.452 39.4207 104.192 38.9478C104.09 38.7472 103.931 38.5609 103.786 38.4033C103.728 38.3316 103.569 38.303 103.482 38.3173C103.439 38.3173 103.395 38.4892 103.395 38.5752C103.395 39.1627 103.395 39.7646 103.395 40.3664C103.395 40.6387 103.308 40.7533 103.019 40.7533C102.048 40.7533 102.048 40.7677 102.048 39.8219V34.9355H101.99ZM108.986 38.3459H110.477C110.231 37.7298 109.999 37.1709 109.768 36.6121H109.666C109.449 37.1709 109.232 37.7441 109 38.3459" fill="black"/>
<path id="Vector_9" d="M78.2231 36.7984C78.2231 37.9734 78.2231 39.1198 78.2231 40.2804C78.2231 40.7533 78.2231 40.7677 77.7306 40.7677C76.8037 40.7677 76.9051 40.8966 76.8906 39.9509C76.8906 38.4463 76.8906 36.9273 76.8906 35.4227C76.8906 34.9642 76.8906 34.9642 77.3541 34.9642C77.6727 34.9642 78.0058 34.9642 78.3245 34.9642C78.8893 34.9642 78.8893 34.9642 79.0341 35.48C79.2948 36.3971 79.541 37.3142 79.7873 38.2313C79.8162 38.346 79.8597 38.4749 79.961 38.6039C80.1348 38.002 80.3086 37.4145 80.4824 36.8127C80.6273 36.3112 80.7721 35.7953 80.9025 35.2938C80.9604 35.0645 81.0763 34.9642 81.308 34.9785C81.757 34.9928 82.2059 34.9785 82.6694 34.9785C82.9156 34.9785 83.0025 35.0788 83.0025 35.3081C83.0025 37.0276 83.0025 38.7472 83.0025 40.4667C83.0025 40.7103 82.9011 40.8106 82.6549 40.8106C81.5252 40.7963 81.699 40.9539 81.6845 39.8792C81.6845 38.9048 81.6845 37.9304 81.6266 36.956C81.5107 37.3572 81.3949 37.7441 81.279 38.1453C81.0763 38.8905 80.859 39.6499 80.6707 40.3951C80.5983 40.696 80.468 40.825 80.1204 40.825C79.0921 40.782 79.3238 40.9683 79.0486 39.9795C78.7879 39.0624 78.5562 38.1453 78.31 37.2282C78.281 37.1136 78.2376 36.999 78.1941 36.8557" fill="black"/>
<path id="Vector_10" d="M74.4576 36.87C74.2114 37.7585 73.9797 38.6326 73.7335 39.521C73.6321 39.8649 73.5452 40.2088 73.4438 40.5527C73.4438 40.5814 73.4293 40.6387 73.4149 40.653C73.0673 40.696 72.7052 40.7533 72.3431 40.7533C72.2417 40.7533 72.0824 40.5814 72.039 40.4524C71.7203 39.3204 71.4162 38.174 71.112 37.042C71.0975 36.9847 71.0831 36.913 71.0107 36.8557V39.3777C71.0107 39.7359 71.0107 40.0942 71.0107 40.4381C71.0107 40.6674 70.9382 40.782 70.692 40.7677C69.5189 40.7533 69.7072 40.9253 69.6927 39.8363C69.6927 38.3603 69.6927 36.8844 69.6927 35.4084C69.6927 35.0788 69.7941 34.9355 70.1417 34.9499C70.5472 34.9785 70.9527 34.9642 71.3582 34.9499C71.6189 34.9499 71.7348 35.0358 71.8072 35.2794C72.0534 36.1679 72.2996 37.0706 72.5603 37.9591C72.6183 38.174 72.6907 38.3746 72.821 38.5896C72.9659 38.1024 73.0962 37.6152 73.2411 37.128C73.4149 36.5261 73.5886 35.9386 73.748 35.3368C73.8204 35.0645 73.9507 34.9355 74.2549 34.9499C74.6749 34.9785 75.0949 34.9642 75.5004 34.9499C75.7466 34.9499 75.8335 35.0358 75.8335 35.2794C75.8335 37.0133 75.8335 38.7329 75.8335 40.4668C75.8335 40.696 75.7466 40.782 75.5004 40.782C74.3852 40.7533 74.559 40.954 74.5445 39.8363C74.5445 38.9621 74.5445 38.1024 74.5445 37.2283V36.8987H74.4721L74.4576 36.87Z" fill="black"/>
<path id="Vector_11" d="M15.5979 34.9355C15.7283 34.9355 15.8586 34.9355 15.9745 34.9355C16.1773 34.9355 16.2931 35.0072 16.2786 35.2078C16.2786 35.437 16.3945 35.48 16.5973 35.523C17.0028 35.609 17.4228 35.6807 17.7994 35.8383C18.538 36.1535 18.9001 36.7554 18.9435 37.5292C18.9725 38.1167 18.9291 38.6755 18.5525 39.1627C18.089 39.7646 17.4083 39.9509 16.6987 40.0368C16.4235 40.0655 16.2642 40.1228 16.2931 40.4381C16.3076 40.653 16.1917 40.7533 15.9745 40.739C15.7862 40.739 15.5979 40.7247 15.4241 40.739C15.0765 40.7677 14.8593 40.696 14.9027 40.2804C14.9317 40.0798 14.7579 40.0798 14.5986 40.0368C14.0917 39.8935 13.5703 39.7789 13.1068 39.5496C12.8461 39.4207 12.5999 39.1198 12.4841 38.8475C11.9627 37.6868 12.1654 35.9816 14.0193 35.5947C14.1641 35.566 14.3089 35.5374 14.4683 35.523C14.729 35.4944 14.9462 35.4657 14.9317 35.1075C14.9317 35.0501 15.0765 34.9355 15.1634 34.9212C15.3083 34.8925 15.4676 34.9212 15.6124 34.9212L15.5979 34.9355ZM14.9027 37.7728C14.9027 37.4718 14.9027 37.1566 14.9027 36.8557C14.9027 36.6407 14.8303 36.5548 14.5841 36.5977C13.8455 36.7267 13.5269 37.1853 13.5848 38.0164C13.6282 38.5752 14.0338 38.9765 14.5841 39.0051C14.7869 39.0051 14.8883 38.9478 14.8883 38.7472C14.8883 38.4319 14.8883 38.1024 14.8883 37.7871M16.2786 37.7871C16.2786 38.0737 16.2786 38.3603 16.2786 38.6469C16.2786 39.0051 16.38 39.0624 16.7276 38.9908C17.3359 38.8618 17.6545 38.3746 17.5966 37.6295C17.5532 37.042 17.1476 36.6407 16.5393 36.6121C16.4524 36.6121 16.3076 36.7554 16.2931 36.827C16.2642 37.1423 16.2931 37.4719 16.2931 37.7871" fill="black"/>
<path id="Vector_12" d="M36.6425 37.6295C36.7294 37.6868 36.7728 37.7155 36.8163 37.7441C37.497 38.1167 37.7577 38.6326 37.6273 39.3634C37.5259 40.0082 36.9756 40.5814 36.2804 40.6817C35.8314 40.739 35.3535 40.7534 34.9045 40.7534C34.1803 40.7534 33.4417 40.7534 32.7175 40.7534C32.4424 40.7534 32.3555 40.6531 32.3555 40.3951C32.3555 38.6899 32.3555 36.9847 32.3555 35.2795C32.3555 35.1218 32.3555 34.9355 32.5872 34.9355C33.7024 34.9499 34.8031 34.9355 35.9183 34.9929C36.628 35.0215 37.1204 35.4084 37.3232 36.0819C37.5115 36.7267 37.2073 37.214 36.6425 37.6152M34.7597 39.6786C34.9914 39.6786 35.2231 39.6786 35.4549 39.6786C35.9328 39.6643 36.2514 39.392 36.2514 38.9908C36.2514 38.5896 35.9618 38.303 35.4693 38.2887C35.0059 38.26 34.5424 38.2887 34.079 38.26C33.8472 38.26 33.7314 38.3317 33.7314 38.5753C33.7314 38.8475 33.7314 39.1198 33.7314 39.4064C33.7314 39.607 33.8183 39.7073 34.021 39.693C34.2672 39.693 34.5135 39.693 34.7452 39.693M34.7017 36.0246C34.47 36.0103 34.2383 35.9816 34.0065 36.0246C33.9052 36.0389 33.7459 36.1679 33.7314 36.2682C33.6879 36.4688 33.6879 36.6981 33.7314 36.913C33.7459 37.0133 33.8907 37.1566 33.9776 37.1566C34.4555 37.171 34.9479 37.171 35.4259 37.1566C35.7735 37.128 35.9907 36.8844 35.9907 36.5835C35.9907 36.2969 35.759 36.0819 35.4114 36.0389C35.1652 36.0246 34.9335 36.0389 34.6873 36.0389" fill="black"/>
<path id="Vector_13" d="M123.454 37.3142C122.976 38.0164 122.513 38.7185 122.035 39.4206C121.788 39.7932 121.542 40.1658 121.267 40.524C121.18 40.6387 120.992 40.739 120.847 40.739C119.616 40.739 119.804 40.9253 119.804 39.7646C119.804 38.3029 119.804 36.827 119.804 35.3654C119.804 35.0501 119.906 34.9212 120.239 34.9355C121.224 34.9641 121.122 34.7779 121.137 35.8096C121.137 36.6837 121.137 37.5578 121.137 38.5465C121.542 37.9304 121.904 37.4002 122.252 36.87C122.628 36.3111 122.991 35.7379 123.382 35.1791C123.469 35.0501 123.671 34.9641 123.831 34.9355C124.062 34.8925 124.323 34.9355 124.555 34.9355C124.772 34.9355 124.873 34.9928 124.873 35.2221C124.873 36.9703 124.873 38.7185 124.873 40.481C124.873 40.6817 124.772 40.7676 124.569 40.7676C123.382 40.7533 123.57 40.9253 123.555 39.8505C123.555 39.1341 123.555 38.4032 123.555 37.6868C123.555 37.5721 123.555 37.4718 123.541 37.3572C123.512 37.3572 123.483 37.3572 123.454 37.3429" fill="black"/>
<path id="Vector_14" d="M7.63273 38.5036C8.35689 37.4145 9.08105 36.3255 9.80521 35.2364C9.95004 35.0215 10.1094 34.9068 10.37 34.9355C10.5873 34.9498 10.8045 34.9498 11.0218 34.9355C11.268 34.9212 11.3549 35.0358 11.3549 35.2651C11.3549 36.9846 11.3549 38.7042 11.3549 40.4237C11.3549 40.6673 11.268 40.7676 11.0073 40.7676C9.93555 40.739 10.0514 40.9109 10.0369 39.8505C10.0369 39.0194 10.0369 38.1883 9.96452 37.3285C9.77624 37.5865 9.60244 37.8301 9.41416 38.088C8.8638 38.8905 8.32792 39.7072 7.77757 40.5097C7.69067 40.6387 7.4879 40.7103 7.32859 40.739C7.12582 40.782 6.90858 40.739 6.70581 40.739C6.3727 40.7676 6.25684 40.6387 6.25684 40.3091C6.25684 38.9191 6.25684 37.5435 6.25684 36.1535C6.25684 35.8526 6.25684 35.5517 6.25684 35.2651C6.25684 35.0215 6.32925 34.9212 6.58995 34.9212C7.53135 34.9068 7.53135 34.8925 7.53135 35.8096C7.53135 36.5834 7.53135 37.3429 7.53135 38.1167V38.4892C7.53135 38.4892 7.58929 38.4892 7.61825 38.4892" fill="black"/>
<path id="Vector_15" d="M99.4556 37.2569C98.7314 38.3173 98.0073 39.3777 97.2976 40.4524C97.1527 40.6673 96.9934 40.782 96.7327 40.7533C96.5589 40.739 96.3851 40.7533 96.2113 40.7533C95.7479 40.7533 95.7334 40.7533 95.7334 40.2661C95.7334 39.1771 95.7334 38.088 95.7334 36.999C95.7334 36.4544 95.7334 35.9243 95.7334 35.3797C95.7334 35.0502 95.8058 34.8782 96.1824 34.9212C96.3417 34.9355 96.501 34.9355 96.6603 34.9212C96.9934 34.8782 97.0369 35.0358 97.0369 35.3224C97.0224 36.3112 97.0369 37.3142 97.0369 38.303C97.0369 38.3746 97.0369 38.4319 97.0658 38.5609C97.5293 37.8587 97.9638 37.2139 98.3983 36.5691C98.7169 36.0962 99.0066 35.6233 99.3252 35.1648C99.4121 35.0358 99.6149 34.9642 99.7742 34.9355C99.9914 34.8925 100.238 34.9355 100.469 34.9355C100.774 34.9069 100.846 35.0501 100.846 35.3224C100.846 36.3255 100.846 37.3142 100.846 38.303C100.846 39.0051 100.846 39.6929 100.846 40.3951C100.846 40.6673 100.745 40.7677 100.469 40.7533C99.3976 40.7247 99.5714 40.8823 99.5569 39.8649C99.5569 39.0051 99.5569 38.131 99.5569 37.2712C99.528 37.2712 99.499 37.2712 99.4701 37.2569" fill="black"/>
<path id="Vector_16" d="M114.823 37.2856C114.823 37.9591 114.823 38.6325 114.823 39.3204C114.823 39.607 114.924 39.7073 115.214 39.6929C115.749 39.6786 116.285 39.6786 116.807 39.6929C117.082 39.6929 117.169 39.5926 117.169 39.3347C117.169 38.0307 117.169 36.7267 117.169 35.4227C117.169 34.9498 117.169 34.9498 117.661 34.9498C118.241 34.9498 118.53 35.2317 118.53 35.7953C118.53 36.9703 118.53 38.1597 118.53 39.3347C118.53 39.5496 118.559 39.7073 118.834 39.7216C118.921 39.7216 119.052 39.8935 119.052 39.9795C119.066 40.567 119.052 41.1546 119.052 41.7277C119.052 41.9284 118.95 42.0143 118.747 42C117.792 42 117.936 42.1003 117.922 41.2119C117.922 40.7533 117.922 40.7533 117.458 40.7533C116.271 40.7533 115.098 40.7533 113.91 40.7533C113.577 40.7533 113.476 40.6387 113.476 40.3234C113.476 38.6755 113.476 37.0276 113.476 35.3797C113.476 35.0215 113.591 34.9212 113.939 34.9355C114.837 34.9498 114.837 34.9355 114.837 35.8096V37.2856" fill="black"/>
<path id="Vector_17" d="M68.8673 37.8731C68.9832 39.564 67.7086 40.825 65.9417 40.8536C63.9865 40.8823 62.7844 39.7359 62.7554 37.9161C62.7264 36.0102 63.8851 34.9069 65.7969 34.8496C67.419 34.8066 68.9976 35.8956 68.8673 37.8588M67.4769 37.7298C67.4769 37.5865 67.4769 37.4289 67.4479 37.2856C67.3321 36.4975 66.7528 35.9673 65.9852 35.9386C65.0727 35.9099 64.421 36.3255 64.2761 37.1566C64.2037 37.5865 64.2037 38.0451 64.2761 38.4749C64.4355 39.435 65.4058 39.9795 66.3472 39.693C67.1293 39.4494 67.5348 38.7329 67.4769 37.7441" fill="black"/>
<path id="Vector_18" d="M28.4452 40.825C27.2721 40.8393 26.3452 40.4954 25.7659 39.521C25.0127 38.2743 25.2445 36.2252 26.5335 35.3368C27.9963 34.3337 30.4584 34.8496 31.1681 36.3972C31.9357 38.088 31.3998 40.8966 28.4452 40.825ZM30.0529 37.8444C30.0529 37.6725 30.0529 37.5005 30.0239 37.3286C29.9515 36.6551 29.488 36.1106 28.8653 35.9816C28.0832 35.8096 27.388 36.0389 27.0259 36.6264C26.6783 37.1853 26.7073 37.8158 26.8086 38.432C27.0259 39.6643 28.4452 40.1802 29.4446 39.392C29.937 39.0051 30.0529 38.4463 30.0529 37.8444Z" fill="black"/>
<path id="Vector_19" d="M3.67872 37.2712C3.67872 36.5977 3.67872 35.9243 3.67872 35.2364C3.67872 35.0215 3.73665 34.9212 3.96838 34.9355C4.17114 34.9355 4.38839 34.9498 4.59116 34.9355C4.92427 34.9069 5.04013 35.0358 5.04013 35.3654C5.04013 36.6264 5.04013 37.8874 5.04013 39.1484C5.04013 39.2487 5.01117 39.3634 5.04013 39.4493C5.0691 39.5353 5.156 39.6643 5.22841 39.6786C5.48911 39.6929 5.51808 39.8506 5.51808 40.0512C5.51808 40.5957 5.51808 41.1259 5.51808 41.6704C5.51808 41.914 5.41669 42.0143 5.17048 42.0143C4.31598 42 4.40287 42.1003 4.40287 41.2692C4.40287 40.7677 4.40287 40.7677 3.88148 40.7677C2.73731 40.7677 1.59315 40.7677 0.434494 40.7677C0.101382 40.7677 0 40.653 0 40.3378C0 38.6755 0 37.0133 0 35.3511C0 35.0358 0.101382 34.9355 0.420011 34.9355C1.30348 34.9355 1.30348 34.9355 1.30348 35.7953C1.30348 36.956 1.30348 38.1024 1.30348 39.2631C1.30348 39.5783 1.39038 39.7216 1.72349 39.7073C2.27385 39.6786 2.80973 39.7073 3.36009 39.7073C3.6063 39.7073 3.6932 39.6213 3.6932 39.3777C3.6932 38.6755 3.6932 37.9734 3.6932 37.2856L3.67872 37.2712Z" fill="black"/>
<path id="Vector_20" d="M47.2148 37.8444C47.2148 36.9847 47.2148 36.1249 47.2148 35.2651C47.2148 35.0215 47.2873 34.9212 47.548 34.9212C48.8949 34.9212 50.2563 34.9212 51.6177 34.9212C51.8494 34.9212 51.9074 35.0072 51.9219 35.2221C51.9508 35.9959 51.9508 35.9959 51.1977 35.9959C50.4446 35.9959 49.6915 35.9959 48.9383 35.9959C48.6776 35.9959 48.5618 36.0819 48.5763 36.3542C48.5907 37.2856 48.4749 37.1566 49.3873 37.1709C50.0391 37.1709 50.6908 37.1709 51.3281 37.1709C51.6032 37.1709 51.7191 37.2569 51.7191 37.5435C51.7046 38.3316 51.7481 38.217 51.0239 38.2313C50.3142 38.2313 49.6046 38.2313 48.9094 38.2313C48.6776 38.2313 48.5618 38.303 48.5763 38.5466C48.5763 38.8188 48.5763 39.0911 48.5763 39.3777C48.5763 39.6356 48.6632 39.7216 48.9239 39.7216C49.8218 39.7216 50.7343 39.7216 51.6322 39.7216C51.9508 39.7216 52.0522 39.8219 52.0522 40.1372C52.0522 40.7963 52.0522 40.7963 51.386 40.7963C50.126 40.7963 48.8659 40.7963 47.6059 40.7963C47.3307 40.7963 47.2293 40.7247 47.2293 40.4238C47.2438 39.5783 47.2293 38.7329 47.2293 37.8874" fill="black"/>
<path id="Vector_21" d="M94.5898 37.8588C94.5898 38.6899 94.5898 39.5353 94.5898 40.3665C94.5898 40.6674 94.4884 40.7677 94.1843 40.7534C93.0691 40.7247 93.2429 40.911 93.2284 39.8363C93.2284 39.4064 93.2284 38.9908 93.2284 38.5609C93.2284 38.346 93.156 38.2457 92.9243 38.2457C92.3449 38.2457 91.7656 38.2457 91.1863 38.2457C90.9546 38.2457 90.8821 38.346 90.8821 38.5609C90.8821 39.1628 90.8821 39.7503 90.8821 40.3521C90.8821 40.653 90.7808 40.7534 90.4766 40.7534C89.3469 40.7247 89.5352 40.8966 89.5352 39.8363C89.5352 38.3317 89.5352 36.827 89.5352 35.3368C89.5352 35.0215 89.6366 34.9212 89.9552 34.9212C90.8966 34.9212 90.8966 34.9212 90.8966 35.8526C90.8966 36.1822 90.8966 36.5118 90.8966 36.8414C90.8966 37.0563 90.969 37.1566 91.2008 37.1566C91.7801 37.1566 92.3594 37.1566 92.9387 37.1566C93.1705 37.1566 93.2429 37.0563 93.2429 36.8414C93.2429 36.3255 93.2429 35.8096 93.2429 35.2938C93.2429 35.0358 93.3153 34.9212 93.605 34.9212C94.6043 34.9212 94.6043 34.9069 94.6043 35.8813V37.8444" fill="black"/>
<path id="Vector_22" d="M40.4515 40.7533C39.9591 40.7533 39.4522 40.7533 38.9597 40.7533C38.7135 40.7533 38.5977 40.6817 38.5977 40.4238C38.5977 38.6899 38.5977 36.9703 38.5977 35.2365C38.5977 34.9928 38.699 34.9069 38.9308 34.9355C39.0756 34.9355 39.2349 34.9355 39.3797 34.9355C39.7563 34.9355 39.9446 35.1266 39.9446 35.5087C39.9446 35.9386 39.9736 36.3542 39.9446 36.784C39.9156 37.1423 40.0605 37.2283 40.408 37.2283C41.0598 37.2283 41.7115 37.1996 42.3488 37.2999C43.7247 37.5292 44.304 38.9621 43.5219 40.0655C43.1454 40.5957 42.566 40.7247 41.9577 40.7533C41.4653 40.782 40.9584 40.7533 40.466 40.7533M40.9439 39.6643C41.2191 39.6643 41.5088 39.693 41.7695 39.6643C42.175 39.6213 42.4357 39.3347 42.4357 39.0051C42.4357 38.6612 42.2329 38.4176 41.7984 38.3603C41.3205 38.303 40.8281 38.3173 40.3501 38.2887C40.017 38.26 39.9446 38.4033 39.9446 38.7042C39.9446 39.7073 39.9446 39.7073 40.9439 39.6786" fill="black"/>
<path id="Vector_23" d="M62.3792 40.739C61.9158 40.739 61.4668 40.7677 61.0033 40.7247C60.8875 40.7247 60.7571 40.5241 60.6847 40.3951C60.424 39.9079 60.1923 39.4064 59.9171 38.9335C59.8012 38.7329 59.6564 38.5322 59.4681 38.3746C59.2364 38.1883 59.1205 38.26 59.1205 38.5609C59.1205 39.1627 59.1205 39.7503 59.1205 40.3521C59.1205 40.6387 59.0336 40.7677 58.7295 40.7533C57.6143 40.7247 57.7881 40.8966 57.7736 39.8362C57.7736 38.3316 57.7736 36.8414 57.7736 35.3368C57.7736 35.0358 57.8315 34.9069 58.1646 34.9212C59.1205 34.9355 59.1205 34.9212 59.1205 35.8669V37.3142C59.4681 37.3429 59.6274 37.1709 59.7288 36.9417C59.9171 36.5691 60.0764 36.1679 60.2792 35.7953C60.6413 35.0931 61.3944 34.7349 62.162 34.8925C62.2344 34.9069 62.3503 35.0072 62.3647 35.0788C62.3937 35.2508 62.3937 35.4227 62.3647 35.5947C62.3503 35.6807 62.2344 35.7953 62.162 35.7953C61.5102 35.7953 61.293 36.2538 61.0757 36.741C60.9309 37.085 60.7137 37.4145 60.5109 37.7728C61.5102 38.4319 61.7565 39.6643 62.4227 40.6387C62.4082 40.6817 62.3937 40.7103 62.3792 40.7533" fill="black"/>
<path id="Vector_24" d="M19.8416 37.8301C19.8416 36.999 19.8416 36.1535 19.8416 35.3224C19.8416 35.0215 19.943 34.9212 20.2471 34.9355C21.1161 34.9499 21.9851 34.9355 22.8541 34.9499C23.5203 34.9499 24.0851 35.1648 24.4472 35.738C25.2003 36.956 24.4472 38.4033 22.9989 38.5323C22.5354 38.5752 22.0575 38.5896 21.5796 38.5896C21.3333 38.5896 21.2175 38.6899 21.232 38.9335C21.232 39.4064 21.232 39.8649 21.232 40.3378C21.232 40.6244 21.1451 40.7533 20.8409 40.7533C19.6823 40.7247 19.8561 40.911 19.8416 39.7789C19.8416 39.1198 19.8416 38.4749 19.8416 37.8158M22.043 37.5005C22.2458 37.5005 22.463 37.5005 22.6658 37.4575C23.0279 37.4145 23.2886 37.128 23.3031 36.7984C23.3175 36.4258 23.1148 36.1249 22.7382 36.0532C22.492 35.9959 22.2313 35.9959 21.9851 35.9959C21.1595 35.9816 21.2464 35.8956 21.2464 36.7124C21.2464 37.6008 21.1595 37.4862 22.043 37.5005Z" fill="black"/>
<path id="Vector_25" d="M83.5098 34.9499C84.0167 34.9499 84.4512 34.9355 84.8857 34.9642C84.987 34.9642 85.1029 35.1505 85.1753 35.2651C85.5084 35.9529 85.8416 36.6551 86.1602 37.3429C86.2181 37.4575 86.276 37.5865 86.3919 37.7871C86.5657 37.3859 86.725 37.0706 86.8554 36.7411C87.0726 36.2252 87.2754 35.695 87.5216 35.1935C87.5795 35.0788 87.7388 34.9642 87.8692 34.9499C88.2168 34.9212 88.5789 34.9499 89.0134 34.9499C88.7092 35.609 88.434 36.1822 88.1589 36.7554C87.6809 37.7298 87.2174 38.7186 86.7395 39.693C86.6381 39.8936 86.5078 40.0942 86.3774 40.2805C86.0009 40.7963 85.0595 41.0399 84.4946 40.7963C84.4367 40.7677 84.3788 40.6674 84.3498 40.5957C84.3208 40.4811 84.3498 40.3665 84.3208 40.2518C84.2774 39.9509 84.3932 39.8219 84.6974 39.8363C85.0595 39.8506 85.4505 39.8649 85.6098 39.4637C85.6678 39.3061 85.6967 39.0625 85.6243 38.9192C85.0015 37.7441 84.3643 36.5691 83.727 35.4084C83.6546 35.2795 83.6111 35.1505 83.5242 34.9499" fill="black"/>
<path id="Vector_26" d="M44.7236 37.8158C44.7236 36.9847 44.7236 36.1679 44.7236 35.3368C44.7236 35.0215 44.825 34.9212 45.1436 34.9212C46.2444 34.9499 46.0995 34.7492 46.114 35.8526C46.114 37.3286 46.114 38.8045 46.114 40.2805C46.114 40.7247 46.0995 40.739 45.6361 40.739C44.5933 40.7247 44.7381 40.8966 44.7236 39.8219C44.7236 39.1484 44.7236 38.4749 44.7236 37.8014" fill="black"/>
</g>
<defs>
<clipPath id="clip0_884_22125">
<rect width="131" height="42" fill="white"/>
</clipPath>
</defs>
</svg>
