<svg width="89" height="116" viewBox="0 0 89 116" fill="none" xmlns="http://www.w3.org/2000/svg">
<g id="Layer_1" clip-path="url(#clip0_884_26823)">
<path id="Vector" d="M89.0146 0H0.246094V89.1693H89.0146V0Z" fill="#2D2667"/>
<path id="Vector_2" d="M0.15918 98.079H1.01286V102.134L0.983924 102.875H1.02733C1.2299 102.468 1.34565 102.279 1.56269 101.945L3.93564 98.0935H4.87614V104.038H4.02245V99.983L4.05139 99.2417H4.00798C3.79095 99.7068 3.66072 99.8958 3.47263 100.172L1.09968 104.024H0.15918V98.079Z" fill="#2D2667"/>
<path id="Vector_3" d="M6.62695 98.079H7.46617V100.564H10.3021V98.079H11.1413V104.024H10.3021V101.32H7.46617V104.024H6.62695V98.079Z" fill="#2D2667"/>
<path id="Vector_4" d="M16.0749 102.628H16.3064C16.6392 102.628 17.1022 102.585 17.4784 102.192C17.7099 101.96 17.9125 101.596 17.9125 100.957C17.9125 100.274 17.652 99.8957 17.4205 99.6777C17.0443 99.3288 16.5958 99.2852 16.3064 99.2852H16.0749V102.614V102.628ZM14.9897 99.2998C14.7148 99.2998 14.2517 99.3434 13.8755 99.6922C13.644 99.9102 13.3836 100.288 13.3836 100.971C13.3836 101.596 13.5862 101.974 13.8177 102.207C14.1939 102.585 14.6569 102.643 14.9897 102.643H15.2212V99.3143H14.9897V99.2998ZM16.0749 98.6021H16.2919C17.0443 98.6021 17.5797 98.8492 17.9125 99.1108C18.4044 99.4887 18.8095 100.128 18.8095 100.957C18.8095 101.698 18.4912 102.381 17.9848 102.788C17.7822 102.962 17.2324 103.326 16.2919 103.326H16.0749V104.111H15.2357V103.326H15.0186C14.0781 103.326 13.5428 102.962 13.3257 102.788C12.8338 102.381 12.501 101.698 12.501 100.957C12.501 100.128 12.9061 99.4887 13.3981 99.1108C13.7309 98.8492 14.2662 98.6021 15.0186 98.6021H15.2357V97.8318H16.0749V98.6021Z" fill="#2D2667"/>
<path id="Vector_5" d="M21.3851 99.4306C21.0813 99.823 20.8787 100.448 20.8787 101.058C20.8787 101.567 21.0089 102.221 21.3851 102.686C21.6745 103.064 22.1231 103.369 22.8321 103.369C23.541 103.369 23.9896 103.064 24.279 102.686C24.6407 102.221 24.7854 101.553 24.7854 101.058C24.7854 100.448 24.5973 99.823 24.279 99.4306C24.0041 99.0818 23.5266 98.7475 22.8321 98.7475C22.1375 98.7475 21.6601 99.0818 21.3851 99.4306ZM24.9446 98.9074C25.3786 99.4161 25.668 100.157 25.668 101.058C25.668 101.96 25.3642 102.744 24.9446 103.224C24.5684 103.66 23.9172 104.111 22.8321 104.111C21.7469 104.111 21.0958 103.66 20.7196 103.224C20.2999 102.744 19.9961 101.989 19.9961 101.058C19.9961 100.128 20.2855 99.4015 20.7196 98.9074C21.197 98.3405 21.8771 98.0062 22.8321 98.0062C23.787 98.0062 24.4671 98.3405 24.9446 98.9074Z" fill="#2D2667"/>
<path id="Vector_6" d="M27.8968 100.899H28.736C29.0544 100.899 29.4161 100.797 29.6331 100.593C29.7634 100.463 29.9225 100.23 29.9225 99.8667C29.9225 99.5034 29.7923 99.2563 29.5318 99.0819C29.228 98.8638 28.8807 98.8202 28.6203 98.8202H27.9113V100.899H27.8968ZM27.0576 98.079H28.6058C29.0544 98.079 29.7344 98.1371 30.2264 98.515C30.5158 98.733 30.8196 99.14 30.8196 99.8377C30.8196 100.375 30.6315 100.768 30.4145 101.015C29.908 101.611 29.0978 101.64 28.7216 101.64H27.8968V104.024H27.0576V98.079Z" fill="#2D2667"/>
<path id="Vector_7" d="M32.0635 98.079H33.467L35.3046 103.021L37.1277 98.079H38.5312V104.024H37.6775V98.8784H37.6631L35.7097 104.024H34.885L32.9316 98.8784H32.9172V104.024H32.0635V98.079Z" fill="#2D2667"/>
<path id="Vector_8" d="M42.6556 98.8784L41.4836 101.829H43.8276L42.6556 98.8784ZM42.236 98.079H43.1187L45.6074 104.024H44.6813L44.0736 102.527H41.1798L40.5721 104.024H39.6895L42.2071 98.079H42.236Z" fill="#2D2667"/>
<path id="Vector_9" d="M47.6468 98.079V103.282H50.2658V98.079H51.105V103.282H51.785V105.361H50.9603V104.024H46.8076V98.079H47.6468Z" fill="#2D2667"/>
<path id="Vector_10" d="M53.0006 98.079H53.8398V102.134L53.8109 102.875H53.8543C54.0569 102.468 54.1726 102.279 54.3897 101.945L56.7626 98.0935H57.7031V104.038H56.8494V99.983L56.8784 99.2417H56.835C56.6179 99.7068 56.4877 99.8958 56.2996 100.172L53.9266 104.024H52.9717V98.079H53.0006Z" fill="#2D2667"/>
<path id="Vector_11" d="M60.5394 99.4306C60.2356 99.823 60.033 100.448 60.033 101.058C60.033 101.567 60.1632 102.221 60.5394 102.686C60.8288 103.064 61.2774 103.369 61.9864 103.369C62.6953 103.369 63.1439 103.064 63.4333 102.686C63.795 102.221 63.9397 101.553 63.9397 101.058C63.9397 100.448 63.7516 99.823 63.4333 99.4306C63.1584 99.0818 62.6809 98.7475 61.9864 98.7475C61.2918 98.7475 60.8143 99.0818 60.5394 99.4306ZM64.0989 98.9074C64.5329 99.4161 64.8223 100.157 64.8223 101.058C64.8223 101.96 64.5185 102.744 64.0989 103.224C63.7227 103.66 63.0715 104.111 61.9864 104.111C60.9012 104.111 60.25 103.66 59.8739 103.224C59.4542 102.744 59.1504 101.989 59.1504 101.058C59.1504 100.128 59.4398 99.4015 59.8739 98.9074C60.3513 98.3405 61.0314 98.0062 61.9864 98.0062C62.9413 98.0062 63.6214 98.3405 64.0989 98.9074Z" fill="#2D2667"/>
<path id="Vector_12" d="M66.2549 98.079H67.0941V100.564H69.9301V98.079H70.7693V104.024H69.9301V101.32H67.0941V104.024H66.2549V98.079Z" fill="#2D2667"/>
<path id="Vector_13" d="M72.5195 98.079H73.3732V100.564H76.1947V98.079H77.0339V104.024H76.1947V101.32H73.3732V104.024H72.5195V98.079Z" fill="#2D2667"/>
<path id="Vector_14" d="M79.8558 99.4306C79.552 99.823 79.3494 100.448 79.3494 101.058C79.3494 101.567 79.4796 102.221 79.8558 102.686C80.1452 103.064 80.5938 103.369 81.3028 103.369C82.0117 103.369 82.4603 103.064 82.7497 102.686C83.1114 102.221 83.2561 101.553 83.2561 101.058C83.2561 100.448 83.068 99.823 82.7497 99.4306C82.4748 99.0818 81.9973 98.7475 81.3028 98.7475C80.6082 98.7475 80.1308 99.0818 79.8558 99.4306ZM83.4153 98.9074C83.8493 99.4161 84.1387 100.157 84.1387 101.058C84.1387 101.96 83.8349 102.744 83.4153 103.224C83.0391 103.66 82.3879 104.111 81.3028 104.111C80.2176 104.111 79.5665 103.66 79.1903 103.224C78.7706 102.744 78.4668 101.989 78.4668 101.058C78.4668 100.128 78.7562 99.4015 79.1903 98.9074C79.6677 98.3405 80.3623 98.0062 81.3028 98.0062C82.2433 98.0062 82.9378 98.3405 83.4153 98.9074Z" fill="#2D2667"/>
<path id="Vector_15" d="M85.5703 98.079V104.038H88.8838V103.282H86.424V101.32H88.6523V100.564H86.424V98.8348H88.8838V98.079H85.5703Z" fill="#2D2667"/>
<path id="Vector_16" d="M2.93725 110.768L4.10925 113.718H1.76524L2.93725 110.768ZM2.51764 109.968L0 115.913H0.882621L1.47586 114.401H4.3697L4.9774 115.913H5.90343L3.41473 109.968H2.53211H2.51764Z" fill="#2D2667"/>
<path id="Vector_17" d="M7.21973 109.968V115.927H8.05894V110.724H10.3595V109.968H7.21973Z" fill="#2D2667"/>
<path id="Vector_18" d="M11.7061 109.968V115.927H15.005V115.171H12.5453V113.209H14.788V112.468H12.5453V110.724H15.005V109.968H11.7061Z" fill="#2D2667"/>
<path id="Vector_19" d="M20.315 109.968V112.468H17.4935V109.968H16.6543V115.927H17.4935V113.209H20.315V115.927H21.1687V109.968H20.315Z" fill="#2D2667"/>
<path id="Vector_20" d="M22.5283 109.968V110.724H24.3514V115.927H25.2051V110.724H27.0427V109.968H22.5283Z" fill="#2D2667"/>
<path id="Vector_21" d="M32.223 110.971C31.8468 110.753 31.4272 110.637 31.0076 110.637C30.4867 110.637 29.9514 110.797 29.5607 111.116C29.0832 111.48 28.736 112.119 28.736 112.948C28.736 113.674 28.9964 114.183 29.3003 114.532C29.7054 115.012 30.2842 115.259 31.0944 115.259C31.3838 115.259 31.789 115.201 32.252 114.983L32.2954 115.797C31.8034 115.985 31.4128 116 31.0655 116C30.2842 116 29.3437 115.84 28.6491 115.128C28.2151 114.663 27.8389 113.907 27.8389 112.933C27.8389 112.323 27.9836 111.276 28.9385 110.535C29.5462 110.07 30.3131 109.881 31.0076 109.881C31.6443 109.881 32.0205 110.012 32.2954 110.143L32.223 110.971Z" fill="#2D2667"/>
<path id="Vector_22" d="M33.4385 109.968V110.724H35.2761V115.927H36.1153V110.724H37.9529V109.968H33.4385Z" fill="#2D2667"/>
<path id="Vector_23" d="M40.1523 115.23H40.789C41.1507 115.23 41.715 115.201 42.0044 114.895C42.1201 114.765 42.2359 114.561 42.2359 114.241C42.2359 113.863 42.1057 113.573 41.7295 113.384C41.4256 113.224 41.0494 113.209 40.7022 113.209H40.1523V115.215V115.23ZM40.1523 112.526H40.6153C40.9915 112.526 41.5992 112.526 41.9031 112.236C42.1057 112.032 42.1346 111.756 42.1346 111.611C42.1346 111.32 42.0623 111.087 41.8308 110.913C41.6282 110.753 41.3243 110.695 41.0494 110.695H40.1668V112.541L40.1523 112.526ZM39.3131 109.983H40.9047C41.4112 109.983 42.0478 110.041 42.4963 110.39C42.8291 110.651 42.9738 111.015 42.9738 111.48C42.9738 111.741 42.9304 112.09 42.67 112.395C42.4529 112.657 42.0623 112.831 41.7439 112.904C42.1346 112.948 42.4963 113.108 42.7134 113.326C42.9449 113.558 43.1185 113.907 43.1185 114.343C43.1185 114.91 42.887 115.273 42.6555 115.462C42.1635 115.884 41.3388 115.927 40.8613 115.927H39.2842V109.983H39.3131Z" fill="#2D2667"/>
<path id="Vector_24" d="M45.8236 111.32C45.5198 111.712 45.3172 112.337 45.3172 112.948C45.3172 113.456 45.4474 114.111 45.8236 114.576C46.113 114.954 46.5615 115.259 47.2705 115.259C47.9795 115.259 48.4281 114.954 48.7175 114.576C49.0792 114.111 49.2239 113.442 49.2239 112.948C49.2239 112.337 49.0358 111.712 48.7175 111.32C48.4425 110.971 47.9651 110.637 47.2705 110.637C46.576 110.637 46.0985 110.971 45.8236 111.32ZM49.383 110.797C49.8171 111.305 50.1065 112.047 50.1065 112.948C50.1065 113.849 49.8026 114.634 49.383 115.113C49.0068 115.549 48.3557 116 47.2705 116C46.1853 116 45.5342 115.549 45.158 115.113C44.7384 114.634 44.4346 113.878 44.4346 112.948C44.4346 112.018 44.724 111.291 45.158 110.797C45.6355 110.23 46.3156 109.896 47.2705 109.896C48.2255 109.896 48.9056 110.23 49.383 110.797Z" fill="#2D2667"/>
<path id="Vector_25" d="M55.0267 112.802H55.8659C56.1842 112.802 56.546 112.701 56.763 112.497C56.8932 112.366 57.0524 112.134 57.0524 111.77C57.0524 111.407 56.9222 111.16 56.6617 110.986C56.3579 110.768 56.0106 110.724 55.7502 110.724H55.0412V112.802H55.0267ZM54.1875 109.983H55.7357C56.1842 109.983 56.8643 110.041 57.3563 110.419C57.6456 110.637 57.9495 111.044 57.9495 111.741C57.9495 112.279 57.7614 112.672 57.5444 112.919C57.0379 113.515 56.2277 113.544 55.8515 113.544H55.0267V115.927H54.1875V109.983Z" fill="#2D2667"/>
<path id="Vector_26" d="M60.5394 111.32C60.2356 111.712 60.033 112.337 60.033 112.948C60.033 113.456 60.1632 114.111 60.5394 114.576C60.8288 114.954 61.2774 115.259 61.9864 115.259C62.6953 115.259 63.1439 114.954 63.4333 114.576C63.795 114.111 63.9397 113.442 63.9397 112.948C63.9397 112.337 63.7516 111.712 63.4333 111.32C63.1728 110.971 62.6809 110.637 61.9864 110.637C61.2918 110.637 60.8143 110.971 60.5394 111.32ZM64.0989 110.797C64.5329 111.305 64.8223 112.047 64.8223 112.948C64.8223 113.849 64.5185 114.634 64.0989 115.113C63.7227 115.549 63.0715 116 61.9864 116C60.9012 116 60.25 115.549 59.8739 115.113C59.4542 114.634 59.1504 113.878 59.1504 112.948C59.1504 112.018 59.4398 111.291 59.8739 110.797C60.3513 110.23 61.0314 109.896 61.9864 109.896C62.9413 109.896 63.6214 110.23 64.0989 110.797Z" fill="#2D2667"/>
<path id="Vector_27" d="M70.5803 110.971C70.2041 110.753 69.7845 110.637 69.3649 110.637C68.844 110.637 68.3231 110.797 67.9179 111.116C67.4405 111.48 67.0932 112.119 67.0932 112.948C67.0932 113.674 67.3536 114.183 67.643 114.532C68.0482 115.012 68.6414 115.259 69.4372 115.259C69.7266 115.259 70.1317 115.201 70.5947 114.983L70.6381 115.797C70.1462 115.985 69.7555 116 69.4083 116C68.6269 116 67.6864 115.84 66.9919 115.128C66.5578 114.663 66.1816 113.907 66.1816 112.933C66.1816 112.323 66.3408 111.276 67.2813 110.535C67.889 110.07 68.6559 109.881 69.3504 109.881C70.0015 109.881 70.3632 110.012 70.6381 110.143L70.5658 110.971H70.5803Z" fill="#2D2667"/>
<path id="Vector_28" d="M76.05 110.971C75.6738 110.753 75.2542 110.637 74.8346 110.637C74.3137 110.637 73.7928 110.797 73.3877 111.116C72.9102 111.48 72.5629 112.119 72.5629 112.948C72.5629 113.674 72.8234 114.183 73.1128 114.532C73.5179 115.012 74.1111 115.259 74.9069 115.259C75.1963 115.259 75.6015 115.201 76.0645 114.983L76.1079 115.797C75.6159 115.985 75.2253 116 74.878 116C74.0967 116 73.1562 115.84 72.4616 115.128C72.0276 114.663 71.6514 113.907 71.6514 112.933C71.6514 112.323 71.8105 111.276 72.751 110.535C73.3587 110.07 74.1256 109.881 74.8201 109.881C75.4712 109.881 75.833 110.012 76.1079 110.143L76.0355 110.971H76.05Z" fill="#2D2667"/>
<path id="Vector_29" d="M77.6276 109.968H78.4668V114.023L78.4378 114.765H78.4813C78.6838 114.358 78.7996 114.169 79.0166 113.834L81.3896 109.983H82.3301V115.927H81.4764V111.872L81.5053 111.131H81.4619C81.2449 111.596 81.1146 111.785 80.9265 112.061L78.5536 115.913H77.5986V109.968H77.6276Z" fill="#2D2667"/>
<path id="Vector_30" d="M84.2682 109.968H85.1074V114.023L85.0785 114.765H85.1219C85.3244 114.358 85.4402 114.169 85.6572 113.834L88.0302 109.983H88.9707V115.927H88.117V111.872L88.1459 111.131H88.1025C87.8855 111.596 87.7553 111.785 87.5672 112.061L85.1942 115.913H84.2393V109.968H84.2682Z" fill="#2D2667"/>
<path id="Vector_31" d="M5.80176 55.9434H25.9284L23.1648 60.7397H17.8835V76.5242H12.8483V60.7397H5.80176V55.9434Z" fill="white"/>
<path id="Vector_32" d="M53.7965 60.7397C53.2178 60.7397 52.8126 61.0886 52.8126 61.699V70.8122C52.8126 71.4081 53.2178 71.7424 53.7965 71.7424H64.2288V76.5242H53.7965C50.1503 76.5242 47.7773 74.315 47.7773 70.8122V61.699C47.7773 58.2253 50.1503 55.9579 53.7965 55.9579H65.4732L62.724 60.7397H53.7965Z" fill="white"/>
<path id="Vector_33" d="M39.6601 71.8877H32.3821C31.3403 71.8877 30.5879 71.1319 30.5879 70.0854C30.5879 69.039 31.3403 68.2541 32.3821 68.2541H39.6601V71.9023V71.8877ZM38.7051 55.9579H29.2857L26.5365 60.7397H38.7051C39.3128 60.7397 39.6601 61.0886 39.6601 61.699V63.8937H31.7599C28.1426 63.8937 25.4658 66.5826 25.4658 70.2163C25.4658 73.8499 28.1282 76.5388 31.7599 76.5388H44.6954V61.7136C44.6954 58.2398 42.3224 55.9724 38.7051 55.9724" fill="white"/>
<path id="Vector_34" d="M72.4909 60.7397C71.9121 60.7397 71.507 61.0886 71.507 61.699V70.8122C71.507 71.4081 71.9121 71.7424 72.4909 71.7424H82.9232V76.5242H72.4909C68.8446 76.5242 66.4717 74.315 66.4717 70.8122V61.699C66.4717 58.2253 68.8446 55.9579 72.4909 55.9579H84.1675L81.4184 60.7397H72.4909Z" fill="white"/>
</g>
<defs>
<clipPath id="clip0_884_26823">
<rect width="89" height="116" fill="white"/>
</clipPath>
</defs>
</svg>
