<svg width="82" height="82" viewBox="0 0 82 82" fill="none" xmlns="http://www.w3.org/2000/svg">
<g id="Layer_1" clip-path="url(#clip0_884_22324)">
<path id="Vector" d="M0 39.36C0 20.8017 0 11.5225 5.76124 5.76124C11.5225 0 20.8017 0 39.36 0H42.64C61.1983 0 70.4775 0 76.2388 5.76124C82 11.5225 82 20.8017 82 39.36V42.64C82 61.1983 82 70.4775 76.2388 76.2388C70.4775 82 61.1983 82 42.64 82H39.36C20.8017 82 11.5225 82 5.76124 76.2388C0 70.4605 0 61.1983 0 42.64V39.36Z" fill="#0077FF"/>
<path id="Vector_2" d="M43.6259 59.074C24.9316 59.074 14.2758 46.2599 13.834 24.9484H23.1981C23.504 40.6006 30.4039 47.2286 35.8763 48.5882V24.9484H44.6966V38.4423C50.1009 37.8644 55.7602 31.7123 57.6806 24.9484H66.5009C65.0394 33.2758 58.8872 39.4279 54.5026 41.9602C58.8703 44.0166 65.8721 49.3699 68.5403 59.074H58.8363C56.7459 52.5819 51.5625 47.5685 44.6966 46.8717V59.074H43.6429H43.6259Z" fill="white"/>
</g>
<defs>
<clipPath id="clip0_884_22324">
<rect width="82" height="82" fill="white"/>
</clipPath>
</defs>
</svg>
