<svg width="133" height="83" viewBox="0 0 133 83" fill="none" xmlns="http://www.w3.org/2000/svg">
<g id="Layer_1" clip-path="url(#clip0_884_19752)">
<path id="Vector" d="M1.43187 77.0371C1.43187 78.8115 1.97246 80.0622 2.68838 80.8621C3.57963 82.011 4.74847 82.3746 5.72738 82.3746V82.9127H5.63972C4.57315 82.9127 2.68838 82.7382 1.35882 81.1384C0.467576 80.0767 0.0146484 78.6515 0.0146484 77.4007C0.0146484 76.4263 0.189975 75.1756 1.25655 73.9394C1.97246 72.965 3.21436 71.8887 5.62511 71.8015V72.3396C5.62511 72.2523 5.53744 72.2523 5.53744 72.2523C4.73386 72.2523 3.38969 72.4268 2.49845 73.4885C1.78253 74.4629 1.43187 75.6264 1.43187 77.0371ZM5.71277 72.4123C6.60401 72.4123 7.67059 72.6741 8.57644 73.5612C9.38002 74.4484 10.0083 75.6991 10.0083 77.5607C10.0083 78.7097 9.83295 80.0477 8.9417 81.1093C8.40111 81.7347 7.50987 82.3455 6.09264 82.3455H5.74199V82.8836C7.88974 82.8836 9.13164 81.9092 9.93522 81.1093C10.7388 80.2222 11.3671 78.9714 11.3671 77.1099C11.3671 75.9609 11.1041 74.2593 9.7599 73.1104C8.50339 72.0487 6.9985 71.6851 5.74199 71.6851H5.65433V72.3978H5.74199L5.71277 72.4123Z" fill="#003571"/>
<path id="Vector_2" d="M21.9595 73.0377C21.9595 72.9504 21.9595 72.8632 21.8718 72.7759C21.7842 72.6886 21.6965 72.6886 21.6088 72.6886H16.2467C16.1591 72.6886 16.0714 72.6886 15.9838 72.7759C15.8961 72.8632 15.8961 72.9504 15.8961 73.0377V80.4113C15.8961 80.673 15.9838 81.8365 16.0714 82.1856C16.1591 82.4474 16.2468 82.5346 16.6997 82.6219H16.875C17.0503 82.6219 17.2257 82.5346 17.2257 82.7091C17.2257 82.7964 17.0503 82.7964 17.0503 82.7964H16.9627C16.7873 82.7964 16.612 82.7091 16.4221 82.7091H14.099C13.8652 82.7673 13.7191 82.7964 13.6607 82.7964C13.573 82.7964 13.573 82.7091 13.573 82.7091C13.573 82.6219 13.6607 82.6219 13.7483 82.6219H13.9237C14.2743 82.5346 14.3766 82.4474 14.4643 82.1856C14.5519 81.9238 14.6396 81.4729 14.6396 80.0477V74.0121C14.6396 73.8376 14.6396 73.1249 14.5519 72.8632C14.5519 72.7759 14.4643 72.6014 14.3766 72.5141C14.2013 72.3396 14.0259 72.3396 13.836 72.3396H13.573C13.573 72.3396 13.4854 72.3396 13.4854 72.2523C13.4854 72.1651 13.573 72.1651 13.6607 72.1651H14.2013C14.3766 72.1651 14.9172 72.2523 15.4432 72.2523H22.6754C22.9384 72.2523 23.3037 72.2523 23.9173 72.1651H24.005C24.0926 72.1651 24.1803 72.2523 24.1803 72.2523C24.1803 72.3396 24.0926 72.3396 24.005 72.3396H23.9173C23.5666 72.4269 23.3767 72.4269 23.289 72.6886C23.2014 72.7759 23.2014 73.0377 23.1137 73.6631V80.0622C23.1137 80.4113 23.1137 81.7493 23.289 82.2001C23.3767 82.4619 23.4644 82.5492 23.9173 82.6364H24.1803C24.3556 82.6364 24.5309 82.5492 24.5309 82.7237C24.5309 82.8109 24.4433 82.8109 24.3556 82.8109H24.268C24.0926 82.8109 23.815 82.7237 23.6397 82.7237H21.4919C21.229 82.8109 21.1413 82.8109 21.1413 82.8109C21.0536 82.8109 20.966 82.7237 20.966 82.7237C20.966 82.6364 21.0536 82.6364 21.1413 82.6364H21.4043C21.6673 82.5492 21.7549 82.4619 21.8572 82.2001C22.0325 81.7638 22.0325 80.9494 22.0325 80.4258V73.0522H21.9449L21.9595 73.0377Z" fill="#003571"/>
<path id="Vector_3" d="M28.0234 77.0371C27.9357 78.8115 28.564 80.0622 29.1776 80.8621C30.0689 82.011 31.3254 82.3746 32.2166 82.3746V82.9127H32.129C31.0624 82.9127 29.1776 82.7382 27.8481 81.1384C26.9568 80.0767 26.5039 78.6515 26.5039 77.4007C26.5039 76.4263 26.7669 75.1756 27.7458 73.9394C28.5494 72.965 29.8059 71.8887 32.2166 71.8015V72.3396C32.2166 72.2523 32.129 72.2523 32.129 72.2523C31.3254 72.2523 30.0835 72.4268 29.09 73.4885C28.3741 74.4629 28.0234 75.6264 28.0234 77.0371ZM32.3043 72.4123C33.1955 72.4123 34.2621 72.6741 35.168 73.5612C35.9716 74.4484 36.5998 75.6991 36.5998 77.5607C36.5998 78.7097 36.4245 80.0477 35.5332 81.1093C34.9926 81.7347 34.1014 82.3455 32.6696 82.3455H32.4066V82.8836C34.5543 82.8836 35.7962 81.9092 36.5121 81.1093C37.3157 80.2222 38.0316 78.9714 38.0316 77.1099C38.0316 75.9609 37.681 74.2593 36.3368 73.1104C35.1826 72.0487 33.6631 71.6851 32.4066 71.6851V72.3978H32.3189L32.3043 72.4123Z" fill="#003571"/>
<path id="Vector_4" d="M41.5085 74.2012C41.5085 73.1395 41.4208 72.7759 41.4208 72.6886C41.3332 72.6014 41.2455 72.3396 40.7926 72.3396H40.6173C40.5296 72.3396 40.2666 72.3396 40.2666 72.2523C40.2666 72.1651 40.3543 72.1651 40.4419 72.1651H40.5296C41.1578 72.2523 41.5962 72.2523 41.9614 72.2523H42.6773C43.028 72.1651 43.3056 72.1651 43.7439 72.1651C45.3511 72.1651 46.067 72.5141 46.6076 72.965C47.1482 73.5031 47.3235 74.1139 47.3235 74.652C47.3235 75.2774 47.2358 76.1645 46.4323 77.0517C45.6287 77.8516 44.7374 78.0261 43.6709 78.0261H43.5832C43.4955 78.0261 43.4079 78.0261 43.4079 77.9389C43.4079 77.8516 43.5832 77.8516 43.5832 77.8516H43.7585C44.7374 77.7643 45.6287 77.3135 45.9939 76.5136C46.1693 76.1645 46.1693 75.7137 46.1693 75.3647C46.2569 74.5648 46.0816 73.8521 45.4534 73.2267C44.7374 72.6014 43.8462 72.5141 43.5832 72.5141H43.4079C43.1449 72.5141 42.7796 72.5141 42.7796 72.8632V80.0622C42.7796 80.4113 42.7796 81.7493 42.8673 82.2001C42.9549 82.4619 43.1303 82.5492 43.5832 82.6364H44.1238C44.1822 82.6364 44.2115 82.6655 44.2115 82.7237C44.2115 82.8982 43.7585 82.8109 43.4955 82.8109H42.0637C41.976 82.8109 41.3478 82.8109 40.9971 82.8982H40.7341L40.6465 82.8109C40.6465 82.7237 40.7341 82.7237 40.7341 82.7237H40.9095C41.1725 82.6364 41.4501 82.6364 41.5377 82.2874C41.6254 82.1129 41.713 81.662 41.713 80.1495V74.2012H41.5377H41.5085Z" fill="#003571"/>
<path id="Vector_5" d="M51.4141 78.0988H52.7583V78.5497H51.2388C51.1804 78.5497 51.1511 78.6079 51.1511 78.7242L50.3476 81.2112C50.0846 81.7493 50.0846 82.0111 50.0846 82.0983C50.0846 82.5346 50.4352 82.5346 50.6252 82.5346H50.8005C50.8005 82.5346 50.8882 82.5346 50.8882 82.6219C50.8882 82.7091 50.7128 82.7091 50.6252 82.7091C50.4498 82.7091 50.2745 82.6219 49.9969 82.6219H49.281C48.3021 82.6219 48.4774 82.6219 47.9368 82.7091H47.8492C47.7615 82.7091 47.6738 82.6219 47.6738 82.6219C47.6738 82.4474 47.8492 82.5346 48.0245 82.5346C48.4628 82.4474 48.9157 82.3601 49.3687 81.1966L52.583 72.3978C52.6706 72.3105 52.6706 72.2233 52.6706 72.0487V73.9976C52.583 73.9976 52.583 74.0848 52.583 74.0848L51.2388 77.9098C51.2972 78.0261 51.3557 78.0843 51.4141 78.0843M52.7583 73.9976C52.846 73.9976 52.846 74.0848 52.846 74.0848L54.1901 77.9098C54.1901 77.968 54.1609 77.997 54.1025 77.997H52.7583V78.4479H54.3655C54.3655 78.4479 54.4531 78.4479 54.4531 78.5351L55.7973 81.9965C55.7973 82.0838 55.7973 82.2583 55.7096 82.3456C55.622 82.4328 55.5343 82.3456 55.5343 82.4328C55.5343 82.5201 55.7096 82.5201 55.7973 82.5201C55.9726 82.5201 56.6009 82.6073 56.7762 82.6073H58.1204C58.208 82.6073 58.471 82.6073 58.471 82.5201C58.471 82.4328 58.471 82.4328 58.3834 82.4328H57.9451C57.2291 82.3456 56.9661 81.8074 56.7908 81.3711C56.6155 80.9203 56.1626 80.1204 54.5554 75.8591C54.2924 75.0592 54.0148 74.4339 53.7518 73.7212C53.5765 73.1831 53.3135 72.7468 53.1236 72.2087C53.0359 72.0342 52.8606 71.7724 52.7729 71.7724C52.6852 71.7724 52.5976 71.8597 52.5976 72.0342V73.983H52.7729L52.7583 73.9976Z" fill="#003571"/>
<path id="Vector_6" d="M64.0085 74.2012C64.0085 73.1395 63.9208 72.7759 63.9208 72.6886C63.8332 72.6014 63.7455 72.3396 63.2926 72.3396H63.1173C62.9419 72.3396 62.7666 72.3396 62.7666 72.2523C62.7666 72.1651 62.8543 72.1651 62.9419 72.1651H63.0296C63.6578 72.2523 64.0085 72.2523 64.4614 72.2523H65.265C65.6157 72.1651 65.8933 72.1651 66.2439 72.1651C67.8511 72.1651 68.6547 72.5141 69.1953 72.965C69.7358 73.5031 69.9112 74.1139 69.9112 74.652C69.9112 75.2774 69.7358 76.1645 69.0199 77.0517C68.2163 77.8516 67.3251 78.0261 66.2585 78.0261H66.1709C66.0832 78.0261 65.9079 78.0261 65.9079 77.9389C65.9079 77.8516 66.0832 77.8516 66.1709 77.8516H66.3462C67.3251 77.7643 68.1287 77.3135 68.5816 76.5136C68.7569 76.1645 68.8446 75.7137 68.8446 75.3647C68.8446 74.5648 68.7569 73.8521 68.1287 73.2267C67.4128 72.6014 66.5215 72.5141 66.2585 72.5141H66.0832C65.7325 72.5141 65.4549 72.5141 65.4549 72.8632L65.2796 80.0622C65.2796 80.4113 65.2796 81.7493 65.4549 82.2001C65.5426 82.4619 65.7179 82.5492 66.0832 82.6364H66.6238C66.6238 82.6364 66.7115 82.6364 66.7115 82.7237C66.7115 82.8982 66.1709 82.8109 65.9079 82.8109H64.476C64.3007 82.8109 63.7601 82.8109 63.4095 82.8982H63.2341C63.1465 82.8109 63.0588 82.8109 63.0588 82.8109C63.0588 82.7237 63.1465 82.7237 63.1465 82.7237H63.3218C63.5848 82.6364 63.8624 82.6364 63.9501 82.2874C64.0377 82.1129 64.1254 81.662 64.1254 80.1495V74.2012H64.0377H64.0085Z" fill="#003571"/>
<path id="Vector_7" d="M71.6797 77.7498V77.4007C71.6797 76.4263 71.855 75.1756 72.9216 73.9394C73.6375 72.965 74.9817 71.8887 77.2901 71.8015V72.3396C77.2901 72.2523 77.2025 72.2523 77.2025 72.2523C76.3112 72.2523 75.0547 72.4269 74.1635 73.4885C73.3599 74.3757 73.0092 75.5392 73.0092 76.9499C73.0092 78.7242 73.5498 79.975 74.2658 80.7748C75.157 81.9238 76.3258 82.2874 77.3048 82.2874V82.8255H77.2171C76.1505 82.8255 74.2658 82.651 72.9362 81.0512C72.1326 80.2513 71.6943 79.0151 71.6943 77.7643M77.3194 72.4269C78.2106 72.4269 79.2772 72.6886 80.183 73.5758C80.9866 74.463 81.7025 75.7137 81.7025 77.5753C81.7025 78.7242 81.5272 80.0622 80.5483 81.1239C80.0077 81.7493 79.1165 82.3601 77.6846 82.3601H77.334V82.8982C79.4817 82.8982 80.8113 81.9238 81.5272 81.1239C82.3308 80.2367 83.0467 78.986 83.0467 77.1244C83.0467 75.9755 82.6961 74.2739 81.3519 73.1249C80.1976 72.0633 78.6782 71.6997 77.4216 71.6997H77.334V72.4123L77.3194 72.4269Z" fill="#003571"/>
<path id="Vector_8" d="M94.2672 75.0011C94.1796 75.0011 94.1796 74.8265 94.1796 74.7393C94.1796 74.1139 94.0919 73.4013 93.0253 72.8777C92.0464 72.4268 91.0675 72.4268 90.6146 72.4268C89.6357 72.4268 88.3792 72.6014 87.4879 73.4013C86.5967 74.1139 86.1437 75.3501 86.1437 76.9499C86.1437 79.8877 88.1016 82.2874 91.5058 82.2874C92.5724 82.2874 93.5513 82.1128 94.0042 81.3129C94.1796 81.0512 94.2672 80.6003 94.3549 80.3385C94.3549 80.2804 94.3841 80.2513 94.4426 80.2513C94.5302 80.2513 94.5302 80.4258 94.5302 80.5131C94.5302 80.9639 94.2672 82.3746 94.0919 82.5491C93.9166 82.7237 92.9377 83 91.2282 83C89.7964 83 87.9262 82.8255 86.4944 81.4875C85.1502 80.2513 84.7119 78.7387 84.7119 77.3135C84.7119 75.7137 85.4278 74.3757 86.3191 73.4013C87.3857 72.3396 88.7298 71.8887 90.6876 71.8887C91.3159 71.8887 91.8419 71.976 92.4701 72.0633C92.7331 72.1505 93.0107 72.1505 93.3614 72.2378C93.5367 72.2378 93.6244 72.325 93.8143 72.325C94.165 72.4123 94.2526 72.325 94.3549 72.4123C94.4426 72.4123 94.4426 72.4996 94.4426 72.4996V72.5868C94.3549 72.9359 94.3549 73.0377 94.3549 74.3611C94.4426 74.5357 94.4425 74.9865 94.2672 74.9865" fill="#003571"/>
<path id="Vector_9" d="M105.868 75.0011C105.78 75.0011 105.78 74.8265 105.78 74.7393C105.78 74.1139 105.692 73.4013 104.626 72.8777C103.735 72.4268 102.668 72.4268 102.215 72.4268C101.236 72.4268 100.067 72.6014 99.0885 73.4013C98.1973 74.1139 97.7443 75.3501 97.7443 76.9499C97.7443 79.8877 99.7022 82.2874 103.194 82.2874C104.261 82.2874 105.254 82.1128 105.692 81.3129C105.868 81.0512 105.868 80.6003 105.955 80.3385C105.955 80.2513 106.043 80.2513 106.043 80.2513C106.131 80.2513 106.131 80.4258 106.131 80.5131C106.131 80.9639 105.868 82.3746 105.78 82.5491C105.517 82.7237 104.626 83 102.829 83C101.397 83 99.6145 82.8255 98.095 81.4875C96.7508 80.2513 96.3125 78.7387 96.3125 77.3135C96.3125 75.7137 97.0284 74.3757 97.9197 73.4013C98.9862 72.3396 100.33 71.8887 102.288 71.8887C102.916 71.8887 103.442 71.976 104.071 72.0633C104.334 72.1505 104.699 72.1505 104.962 72.2378C105.137 72.2378 105.225 72.325 105.415 72.325C105.766 72.4123 105.955 72.325 105.955 72.4123C106.043 72.4123 106.043 72.4996 106.043 72.4996V72.5868C105.955 72.9359 105.955 73.0377 105.955 74.3611C105.955 74.5357 106.043 74.9865 105.868 74.9865" fill="#003571"/>
<path id="Vector_10" d="M117.381 72.2378C117.469 72.0633 117.644 71.8887 117.819 71.8887C117.907 71.8887 118.082 71.976 118.082 72.325V80.2367C117.995 81.9238 118.17 82.2728 118.345 82.4619C118.433 82.6364 118.798 82.6364 118.886 82.6364H119.061C119.324 82.6364 119.412 82.5492 119.412 82.7237C119.412 82.8109 119.324 82.8109 119.236 82.8109H119.149C118.608 82.8109 118.082 82.7237 117.542 82.7237H117.191C116.84 82.7237 116.475 82.7237 116.037 82.8109H115.949C115.861 82.7237 115.774 82.7237 115.861 82.6364C115.861 82.5491 115.949 82.5491 115.949 82.5491H116.212C116.3 82.4619 116.475 82.4619 116.475 82.3746C116.563 82.2874 116.65 82.2001 116.738 81.662C116.826 81.2111 116.826 80.5131 116.826 80.0622L116.913 73.8376L109.856 82.6364C109.769 82.7237 109.681 82.8982 109.506 82.8982C109.418 82.8982 109.33 82.8109 109.33 82.4473V74.0121C109.33 72.9504 109.243 72.5868 109.243 72.4996C109.155 72.325 108.98 72.1505 108.615 72.1505H108.439C108.352 72.1505 108.352 72.0633 108.352 72.0633C108.352 71.976 108.439 71.976 108.527 71.976H108.615C108.965 71.976 109.593 72.0633 109.959 72.0633H110.222C110.397 72.0633 110.762 72.0633 111.376 71.976H111.464C111.551 71.976 111.551 72.0633 111.551 72.0633C111.551 72.1505 111.464 72.1505 111.288 72.1505L111.113 72.2378C110.85 72.2378 110.762 72.325 110.572 72.5868C110.572 72.6741 110.485 72.9359 110.485 73.6485V80.8476L117.352 72.2232L117.381 72.2378Z" fill="#003571"/>
<path id="Vector_11" d="M130.954 72.2378C131.042 72.0633 131.217 71.8887 131.393 71.8887C131.48 71.8887 131.656 71.976 131.656 72.325L131.568 80.2367C131.568 81.9238 131.656 82.2728 131.831 82.4619C132.006 82.6364 132.269 82.6364 132.459 82.6364H132.635C132.81 82.6364 132.985 82.5492 132.985 82.7237C132.985 82.8109 132.898 82.8109 132.81 82.8109H132.722C132.182 82.8109 131.656 82.7237 131.115 82.7237H130.852C130.487 82.7237 130.136 82.7237 129.596 82.8109H129.508C129.391 82.7528 129.333 82.6946 129.333 82.6364H129.873C129.961 82.5491 130.136 82.5492 130.224 82.4619C130.312 82.3746 130.399 82.2874 130.399 81.7493C130.487 81.3129 130.487 80.6003 130.487 80.1495V73.9248L123.532 82.7237C123.445 82.8109 123.269 82.9855 123.182 82.9855C123.094 82.9855 123.006 82.8982 123.006 82.5346V74.0994C123.006 73.0377 122.919 72.6741 122.919 72.5868C122.831 72.4123 122.656 72.2378 122.29 72.2378H122.115C122.027 72.2378 122.027 72.1505 122.027 72.1505C122.027 72.0633 122.115 72.0633 122.203 72.0633H122.29C122.641 72.0633 123.357 72.1505 123.635 72.1505H123.81C124.073 72.1505 124.35 72.1505 125.066 72.0633H125.154C125.242 72.0633 125.329 72.1505 125.329 72.1505C125.329 72.2378 125.242 72.2378 125.066 72.2378L124.891 72.325C124.716 72.325 124.54 72.4123 124.453 72.6741C124.365 72.7613 124.365 73.0231 124.365 73.7358V80.9348L130.969 72.2232L130.954 72.2378Z" fill="#003571"/>
<path id="Vector_12" d="M31.8652 35.0936L106.321 1.25073V57.5779L97.7443 45.5794H31.8652V35.0936Z" fill="#003571"/>
<path id="Vector_13" d="M107.037 0L68.7282 17.3214H26.9566L26.7812 60.2394H107.037V0Z" fill="#003571"/>
<path id="Vector_14" d="M31.8652 35.0936L106.321 1.25073V57.5779L97.7443 45.5794H31.8652V35.0936Z" fill="white"/>
<path id="Vector_15" d="M31.8652 38.5695L103.457 17.4232L106.321 57.5779L97.7443 45.5795H31.8652V38.5695Z" fill="#0076BE"/>
<path id="Vector_16" d="M31.8652 42.0309L100.155 33.5811L106.321 57.5779L97.7443 45.5795H31.8652V42.0309Z" fill="#E72F36"/>
</g>
<defs>
<clipPath id="clip0_884_19752">
<rect width="133" height="83" fill="white"/>
</clipPath>
</defs>
</svg>
