<svg width="180" height="58" viewBox="0 0 180 58" fill="none" xmlns="http://www.w3.org/2000/svg">
<g id="Layer_1" clip-path="url(#clip0_884_19950)">
<path id="Vector" d="M117.902 56.873C118.439 56.873 118.88 56.7143 119.196 56.4127C119.511 56.1111 119.685 55.6984 119.685 55.1746C119.685 54.6508 119.527 54.2381 119.196 53.9365C118.88 53.6349 118.439 53.4762 117.902 53.4762H116.751V56.8572H117.902V56.873ZM115.505 52.4603H117.965C118.549 52.4603 119.07 52.5714 119.527 52.7937C119.984 53.0159 120.331 53.3333 120.584 53.746C120.836 54.1587 120.962 54.6349 120.962 55.1746C120.962 55.7143 120.836 56.1905 120.584 56.6032C120.331 57.0159 119.984 57.3333 119.527 57.5556C119.07 57.7778 118.549 57.8889 117.965 57.8889H115.505V52.4445V52.4603Z" fill="#2553C3"/>
<path id="Vector_2" d="M123.943 54.6667H121.751V55.6349H123.943V54.6667Z" fill="#2553C3"/>
<path id="Vector_3" d="M129.259 56.8889V57.9048H125.063V52.4603H129.149V53.4762H126.31V54.6508H128.817V55.6349H126.31V56.8889H129.259Z" fill="#2553C3"/>
<path id="Vector_4" d="M131.325 57.6349C130.883 57.3968 130.521 57.0635 130.268 56.6349C130.016 56.2063 129.89 55.7143 129.89 55.1905C129.89 54.6667 130.016 54.1746 130.268 53.7302C130.521 53.3016 130.883 52.9683 131.325 52.7302C131.767 52.4921 132.271 52.3651 132.823 52.3651C133.297 52.3651 133.722 52.4444 134.101 52.619C134.48 52.7778 134.795 53.0159 135.063 53.3333L134.259 54.0794C133.896 53.6508 133.439 53.4444 132.902 53.4444C132.571 53.4444 132.271 53.5238 132.003 53.6667C131.735 53.8095 131.53 54.0159 131.388 54.2857C131.246 54.5556 131.167 54.8571 131.167 55.1905C131.167 55.5238 131.246 55.8254 131.388 56.0952C131.53 56.3651 131.735 56.5714 132.003 56.7143C132.271 56.8571 132.571 56.9365 132.902 56.9365C133.439 56.9365 133.896 56.7143 134.259 56.2857L135.063 57.0317C134.811 57.3492 134.495 57.5873 134.101 57.7619C133.722 57.9206 133.297 58.0159 132.823 58.0159C132.271 58.0159 131.767 57.8889 131.325 57.6508" fill="#2553C3"/>
<path id="Vector_5" d="M139.274 56.6984C139.526 56.5556 139.731 56.3492 139.889 56.0794C140.031 55.8095 140.11 55.5079 140.11 55.1746C140.11 54.8413 140.031 54.5397 139.889 54.2698C139.747 54 139.542 53.7937 139.274 53.6508C139.022 53.5079 138.722 53.4286 138.407 53.4286C138.091 53.4286 137.791 53.5079 137.539 53.6508C137.287 53.7937 137.082 54 136.924 54.2698C136.782 54.5397 136.703 54.8413 136.703 55.1746C136.703 55.5079 136.782 55.8095 136.924 56.0794C137.066 56.3492 137.271 56.5556 137.539 56.6984C137.807 56.8413 138.091 56.9206 138.407 56.9206C138.722 56.9206 139.022 56.8413 139.274 56.6984ZM136.892 57.6349C136.435 57.3968 136.088 57.0476 135.836 56.6191C135.583 56.1905 135.457 55.7143 135.457 55.1746C135.457 54.6349 135.583 54.1587 135.836 53.7302C136.088 53.3016 136.451 52.9683 136.892 52.7143C137.35 52.4762 137.855 52.3492 138.407 52.3492C138.959 52.3492 139.479 52.4762 139.921 52.7143C140.378 52.9524 140.725 53.2857 140.978 53.7302C141.23 54.1587 141.356 54.6349 141.356 55.1746C141.356 55.7143 141.23 56.1905 140.978 56.6191C140.725 57.0476 140.362 57.381 139.921 57.6349C139.479 57.873 138.974 58 138.407 58C137.839 58 137.334 57.873 136.892 57.6349Z" fill="#2553C3"/>
<path id="Vector_6" d="M147.287 52.4603V57.9048H146.262L143.564 54.6032V57.9048H142.318V52.4603H143.359L146.057 55.7619V52.4603H147.287Z" fill="#2553C3"/>
<path id="Vector_7" d="M152.066 56.6984C152.318 56.5556 152.523 56.3492 152.681 56.0794C152.823 55.8095 152.902 55.5079 152.902 55.1746C152.902 54.8413 152.823 54.5397 152.681 54.2698C152.539 54 152.334 53.7937 152.066 53.6508C151.814 53.5079 151.514 53.4286 151.199 53.4286C150.883 53.4286 150.583 53.5079 150.331 53.6508C150.079 53.7937 149.874 54 149.732 54.2698C149.59 54.5397 149.511 54.8413 149.511 55.1746C149.511 55.5079 149.59 55.8095 149.732 56.0794C149.874 56.3492 150.079 56.5556 150.331 56.6984C150.583 56.8413 150.883 56.9206 151.199 56.9206C151.514 56.9206 151.814 56.8413 152.066 56.6984ZM149.684 57.6349C149.227 57.3968 148.88 57.0476 148.628 56.6191C148.375 56.1905 148.249 55.7143 148.249 55.1746C148.249 54.6349 148.375 54.1587 148.628 53.7302C148.88 53.3016 149.243 52.9683 149.684 52.7143C150.142 52.4762 150.647 52.3492 151.199 52.3492C151.751 52.3492 152.271 52.4762 152.713 52.7143C153.17 52.9524 153.517 53.2857 153.77 53.7302C154.022 54.1587 154.148 54.6349 154.148 55.1746C154.148 55.7143 154.022 56.1905 153.77 56.6191C153.517 57.0476 153.154 57.381 152.713 57.6349C152.271 57.873 151.766 58 151.199 58C150.631 58 150.126 57.873 149.684 57.6349Z" fill="#2553C3"/>
<path id="Vector_8" d="M160.031 57.9048L160.016 54.6349L158.423 57.3333H157.871L156.278 54.7143V57.9048H155.11V52.4603H156.136L158.17 55.8413L160.158 52.4603H161.199L161.214 57.9048H160.031Z" fill="#2553C3"/>
<path id="Vector_9" d="M165.095 55.9841V57.9048H163.833V55.9683L161.735 52.4603H163.076L164.527 54.873L165.962 52.4603H167.193L165.095 55.9841Z" fill="#2553C3"/>
<path id="Vector_10" d="M167.272 57.746C167.13 57.6032 167.051 57.4127 167.051 57.2064C167.051 57 167.114 56.8095 167.272 56.6667C167.429 56.5238 167.587 56.4603 167.808 56.4603C168.029 56.4603 168.202 56.5238 168.344 56.6667C168.486 56.8095 168.565 56.9841 168.565 57.2064C168.565 57.4286 168.502 57.6032 168.344 57.746C168.202 57.8889 168.013 57.9683 167.808 57.9683C167.603 57.9683 167.414 57.8889 167.272 57.746Z" fill="#2553C3"/>
<path id="Vector_11" d="M172.587 53.7302C172.398 53.5714 172.098 53.4921 171.719 53.4921H170.694V55.3968H171.719C172.098 55.3968 172.382 55.3175 172.587 55.1429C172.776 54.9683 172.887 54.746 172.887 54.4444C172.887 54.1429 172.792 53.9048 172.587 53.746M172.902 57.9206L171.861 56.3968H170.71V57.9206H169.464V52.4762H171.814C172.287 52.4762 172.713 52.5556 173.06 52.7143C173.407 52.873 173.691 53.1111 173.88 53.3968C174.07 53.6825 174.164 54.0476 174.164 54.4444C174.164 54.8413 174.07 55.2064 173.88 55.4921C173.691 55.7937 173.407 56.0159 173.06 56.1587L174.275 57.9048H172.934L172.902 57.9206Z" fill="#2553C3"/>
<path id="Vector_12" d="M175.741 57.3492C175.316 56.9206 175.095 56.3016 175.095 55.5079V52.4603H176.357V55.4603C176.357 56.4286 176.767 56.9206 177.571 56.9206C177.965 56.9206 178.265 56.8095 178.47 56.5714C178.675 56.3333 178.786 55.9683 178.786 55.4603V52.4603H180.016V55.5079C180.016 56.3016 179.795 56.9206 179.369 57.3492C178.943 57.7778 178.344 58 177.555 58C176.767 58 176.183 57.7778 175.757 57.3492" fill="#2553C3"/>
<path id="Vector_13" d="M39.4792 26.0476C40.6937 24.8254 42.2079 24.2064 44.006 24.2064C45.8041 24.2064 47.3026 24.8254 48.5329 26.0476C49.7474 27.2699 50.3625 28.8095 50.3625 30.6667C50.3625 32.5238 49.7474 34.0476 48.5329 35.2699C47.3183 36.4921 45.8041 37.1111 44.006 37.1111C42.2079 37.1111 40.7095 36.4921 39.4792 35.2699C38.2647 34.0476 37.6496 32.5079 37.6496 30.6667C37.6496 28.8254 38.2647 27.2857 39.4792 26.0476ZM44.006 39.9841C46.5928 39.9841 48.801 39.0794 50.5991 37.2699C52.3972 35.4603 53.2963 33.254 53.2963 30.6508C53.2963 28.0476 52.3972 25.8413 50.5991 24.0318C48.801 22.2222 46.5928 21.3175 44.006 21.3175C41.4193 21.3175 39.2111 22.2222 37.413 24.0318C35.6149 25.8413 34.7158 28.0476 34.7158 30.6508C34.7158 33.254 35.6149 35.4603 37.413 37.2699C39.2111 39.0794 41.4193 39.9841 44.006 39.9841Z" fill="#00BFFF"/>
<path id="Vector_14" d="M94.0534 35.2698C92.8389 36.4921 91.3247 37.1111 89.5265 37.1111C87.7284 37.1111 86.23 36.5079 85.0155 35.2698C83.801 34.0476 83.1859 32.5079 83.1859 30.6667C83.1859 28.8254 83.801 27.2857 85.0155 26.0635C86.23 24.8413 87.7442 24.2222 89.5265 24.2222C91.3089 24.2222 92.8231 24.8413 94.0534 26.0635C95.2679 27.2857 95.883 28.8254 95.883 30.6667C95.883 32.5079 95.2679 34.0476 94.0534 35.2698ZM89.5265 21.3333C86.9398 21.3333 84.7316 22.2381 82.9335 24.0476C81.1354 25.8572 80.2363 28.0635 80.2363 30.6667C80.2363 33.2699 81.1354 35.4762 82.9335 37.2857C84.7316 39.0952 86.9398 40 89.5265 40C92.1133 40 94.3215 39.0952 96.1196 37.2857C97.9177 35.4762 98.8168 33.2699 98.8168 30.6667C98.8168 28.0635 97.9177 25.8572 96.1196 24.0476C94.3215 22.2381 92.1133 21.3333 89.5265 21.3333Z" fill="#00BFFF"/>
<path id="Vector_15" d="M158.896 21.3968H155.237L148.817 30.4921L155.505 40.127H159.164L152.619 30.5238L158.896 21.3968Z" fill="#FF0054"/>
<path id="Vector_16" d="M31.0882 40.1428L24.5425 30.5397L30.8201 21.4127H27.1608L20.7412 30.5079L27.4289 40.1428H31.0882Z" fill="#FF0054"/>
<path id="Vector_17" d="M137.556 27.4127L132.918 34.1111V21.3968H129.858V40.127H132.256L139.827 29.2222V25.7143V24.127L137.556 27.4127Z" fill="#2553C3"/>
<path id="Vector_18" d="M142.051 23.9048V27.4286V40.1429H145.111V21.3968H142.051V23.9048Z" fill="#00BFFF"/>
<path id="Vector_19" d="M119.716 23.8413V27.3492V40.0635H122.776V21.3333H119.716V23.8413Z" fill="#00BFFF"/>
<path id="Vector_20" d="M107.634 27.3492L113.628 35.9841L117.445 30.4921V30.4762V30.4921L117.461 25.4127L113.628 30.9206L106.972 21.3333H104.559V40.0635H107.634V27.3492Z" fill="#2553C3"/>
<path id="Vector_21" d="M71.3885 29.0159H64.4326V31.9524H71.3885V40.0635H74.4484V21.3333H71.3885V29.0159Z" fill="#2553C3"/>
<path id="Vector_22" d="M59.085 21.3333V40.0635H62.1607V31.9524V29V21.3333H59.085Z" fill="#00BFFF"/>
<path id="Vector_23" d="M169.574 21.3968L162.792 40.127H166.12L167.429 36.3651H173.029L172.019 33.4603H168.454L171.404 25.0159L176.704 40.127H180L173.249 21.3968H169.574Z" fill="#2553C3"/>
<path id="Vector_24" d="M7.77602 21.3968C6.13565 21.3968 4.62145 21.7778 3.23344 22.5556C1.8612 23.3333 0.772871 24.3809 0 25.7143L2.57098 27.2063C3.04416 26.3175 3.75394 25.6032 4.68454 25.0794C5.61514 24.5556 6.64038 24.2857 7.77602 24.2857C9.43218 24.2857 10.836 24.746 11.9401 25.6825C13.0599 26.619 13.7539 27.8413 14.0221 29.3809H5.37855V32.1746H17.0189C17.082 31.7143 17.1136 31.254 17.1136 30.7778C17.1136 28.127 16.2303 25.9048 14.4795 24.1111C12.7129 22.3175 10.489 21.4127 7.77602 21.4127" fill="#2553C3"/>
<path id="Vector_25" d="M13.1861 34.4127C12.8549 34.9524 12.4448 35.4444 11.9401 35.8571C10.8202 36.7778 9.43218 37.2539 7.77602 37.2539C6.64038 37.2539 5.61514 37 4.68454 36.4603C3.75394 35.9365 3.05994 35.2222 2.57098 34.3333L0 35.8095C0.772871 37.127 1.84543 38.1905 3.23344 38.9682C4.62145 39.746 6.13565 40.1428 7.77602 40.1428C10.489 40.1428 12.7129 39.2381 14.4795 37.4444C15.3628 36.5397 16.0095 35.5238 16.4511 34.4127H13.1861Z" fill="#2553C3"/>
<path id="Vector_26" d="M16.9561 0.380951L12.8078 6.06349V0.380951H10.8047V9.11111H12.7132L16.8457 3.44444V9.11111H18.8331V0.380951H16.9561Z" fill="#2553C3"/>
<path id="Vector_27" d="M28.6905 6.28571C28.2647 6.65079 27.6022 6.87302 26.7347 6.96825V2.49206C28.4855 2.65079 29.3372 3.38095 29.3372 4.71429C29.3372 5.39683 29.1164 5.92063 28.6905 6.28571ZM24.8893 6.96825C23.1543 6.77778 22.2867 6.03175 22.2867 4.71429C22.2867 4.03175 22.5076 3.50794 22.9334 3.15873C23.3593 2.79365 24.0218 2.57143 24.8893 2.49206V6.96825ZM30.0943 2.01587C29.3214 1.34921 28.2016 0.968254 26.7347 0.888889V0H24.8893V0.904762C23.4224 1 22.3025 1.36508 21.5139 2.01587C20.741 2.66667 20.3467 3.57143 20.3467 4.71429C20.3467 5.85714 20.741 6.74603 21.5139 7.42857C22.3025 8.07936 23.4224 8.44444 24.8893 8.55555V9.50794H26.7347V8.55555C28.2016 8.49206 29.3214 8.11111 30.0943 7.46032C30.883 6.79365 31.2773 5.88889 31.2773 4.73016C31.2773 3.57143 30.883 2.69841 30.0943 2.03175" fill="#2553C3"/>
<path id="Vector_28" d="M37.7921 4.65079C37.4767 4.92063 37.0193 5.04762 36.4199 5.04762H34.7795V2.01587H36.4199C37.0193 2.01587 37.4925 2.15873 37.7921 2.4127C38.1076 2.68254 38.2653 3.04762 38.2653 3.53968C38.2653 4.03174 38.1076 4.38095 37.7921 4.65079ZM39.8426 1.85714C39.5272 1.38095 39.1013 1.01587 38.5335 0.761903C37.9656 0.507935 37.3032 0.380951 36.5303 0.380951H32.7764V9.11111H34.7953V6.69841H36.5461C37.319 6.69841 37.9814 6.57143 38.5492 6.31746C39.1171 6.06349 39.5587 5.69841 39.8584 5.22222C40.1581 4.74603 40.3158 4.1746 40.3158 3.53968C40.3158 2.90476 40.1581 2.31746 39.8584 1.85714" fill="#2553C3"/>
<path id="Vector_29" d="M48.2493 6.19048C48.0285 6.61905 47.6973 6.95238 47.2872 7.19048C46.8771 7.42857 46.4197 7.55556 45.8991 7.55556C45.3786 7.55556 44.937 7.44445 44.5111 7.19048C44.101 6.95238 43.7698 6.61905 43.549 6.19048C43.3124 5.76191 43.1862 5.28572 43.1862 4.74603C43.1862 4.20635 43.2966 3.73016 43.549 3.28572C43.7856 2.85715 44.1168 2.53969 44.5111 2.28572C44.9212 2.04762 45.3944 1.93651 45.8991 1.93651C46.4039 1.93651 46.8928 2.04762 47.2872 2.28572C47.6973 2.52381 48.0285 2.85715 48.2493 3.28572C48.4859 3.71429 48.6121 4.19048 48.6121 4.74603C48.6121 5.30159 48.4859 5.76191 48.2493 6.19048ZM50.0159 2.44445C49.6058 1.76191 49.0379 1.22223 48.3282 0.8254C47.6184 0.444447 46.7982 0.238098 45.8834 0.238098C44.9686 0.238098 44.1799 0.428574 43.4544 0.8254C42.7288 1.22223 42.161 1.76191 41.7509 2.44445C41.3408 3.12699 41.1357 3.90476 41.1357 4.76191C41.1357 5.61905 41.3408 6.38095 41.7509 7.07937C42.161 7.76191 42.7288 8.30159 43.4544 8.68254C44.1799 9.07937 45.0001 9.26984 45.8834 9.26984C46.7667 9.26984 47.6026 9.07937 48.3282 8.68254C49.0379 8.30159 49.6058 7.76191 50.0159 7.07937C50.426 6.38095 50.631 5.60318 50.631 4.76191C50.631 3.92064 50.426 3.12699 50.0159 2.44445Z" fill="#2553C3"/>
<path id="Vector_30" d="M56.3881 7.60317H54.1957V5.39682H56.3881C57.3345 5.39682 57.8077 5.7619 57.8077 6.47619C57.8077 7.19047 57.3345 7.60317 56.3881 7.60317ZM54.1957 1.87301H56.0569C56.4985 1.87301 56.814 1.96825 57.0506 2.14286C57.2714 2.33333 57.3818 2.5873 57.3818 2.93651C57.3818 3.28571 57.2714 3.55555 57.0506 3.73016C56.8297 3.92063 56.4985 4 56.0569 4H54.1957V1.87301ZM59.4323 5.33333C59.1484 4.96825 58.7383 4.71428 58.2178 4.55555C58.5963 4.38095 58.9118 4.12698 59.1168 3.79365C59.3219 3.46032 59.4323 3.07936 59.4323 2.65079C59.4323 1.92063 59.1484 1.36508 58.5805 0.968253C58.0127 0.571427 57.2398 0.380951 56.2304 0.380951H52.1768V9.11111H56.4512C57.5395 9.11111 58.3597 8.88889 58.9433 8.47619C59.5269 8.03175 59.8266 7.42857 59.8266 6.65079C59.8266 6.12698 59.6846 5.69841 59.4007 5.33333" fill="#2553C3"/>
<path id="Vector_31" d="M63.9272 5.69841L65.2995 2.3492L66.6717 5.69841H63.9272ZM66.3089 0.380951H64.3215L60.4414 9.11111H62.5077L63.2805 7.23809H67.3184L68.0755 9.11111H70.189L66.3089 0.380951Z" fill="#2553C3"/>
<path id="Vector_32" d="M75.8358 5.19047H74.0692C73.5172 5.19047 73.0913 5.04762 72.8074 4.77778C72.5235 4.49206 72.3658 4.11111 72.3658 3.60317C72.3658 3.09524 72.5077 2.68254 72.8074 2.42857C73.1229 2.15873 73.5487 2.01587 74.1165 2.01587H75.8358V5.19047ZM74.0692 0.380951C73.3121 0.380951 72.6497 0.507935 72.0976 0.761903C71.5298 1.03174 71.1039 1.39682 70.7885 1.88889C70.4888 2.38095 70.3311 2.96825 70.3311 3.63492C70.3311 4.30159 70.4888 4.90476 70.8042 5.39682C71.1197 5.88889 71.5613 6.23809 72.1449 6.49206L70.3468 9.12698H72.4604L74.0061 6.80952H75.8516V9.12698H77.8389V0.380951H74.085H74.0692Z" fill="#2553C3"/>
<path id="Vector_33" d="M9.10095 7.46032H7.85489V0.380951H5.85174V7.46032H1.98738V0.380951H0V9.11111H7.85489H9.10095H9.49527V7.46032H9.10095Z" fill="#2553C3"/>
</g>
<defs>
<clipPath id="clip0_884_19950">
<rect width="180" height="58" fill="white"/>
</clipPath>
</defs>
</svg>
