<svg width="161" height="134" viewBox="0 0 161 134" fill="none" xmlns="http://www.w3.org/2000/svg">
<g id="Layer_1" clip-path="url(#clip0_884_22211)">
<path id="Vector" fill-rule="evenodd" clip-rule="evenodd" d="M96.4303 93.9973L98.2565 91.3881C96.5281 90.1813 94.7997 88.9582 93.055 87.7515L93.9681 86.4469C95.6965 87.6536 97.4249 88.8767 99.1696 90.0835C99.7729 89.2192 100.376 88.3549 100.996 87.4742C99.2674 86.2675 97.539 85.0444 95.7944 83.8376L96.7075 82.533C98.4358 83.7398 101.485 85.8761 103.213 87.0829L104.126 85.7946L105.415 86.7078L104.501 88.0124L103.213 87.0992C101.094 90.1324 98.9739 93.1656 96.8379 96.1988L96.1857 95.7422L95.7617 95.4487L95.5335 95.2856C93.8051 94.0788 92.0767 92.8558 90.332 91.649L91.2451 90.3607C92.9735 91.5675 94.7019 92.7905 96.4466 93.9973H96.4303Z" fill="#E41D37"/>
<path id="Vector_2" fill-rule="evenodd" clip-rule="evenodd" d="M79.8643 106.603L80.5818 105.576L80.7775 105.299L83.5005 101.401L83.6961 101.124L84.4136 100.096L85.2778 100.7L85.7017 100.993L89.5987 103.717L90.0226 104.01L90.8868 104.614L90.3324 105.396L89.9737 105.918L87.2507 109.816L86.8757 110.338L86.3213 111.12L85.3593 110.452L85.0169 110.207L81.1199 107.484L80.7775 107.239L79.8154 106.571H79.848L79.8643 106.603ZM88.7019 105.021L84.8049 102.298L82.0819 106.195L85.9789 108.919L88.7019 105.021Z" fill="#E41D37"/>
<path id="Vector_3" fill-rule="evenodd" clip-rule="evenodd" d="M91.8484 100.553L92.3376 99.8518L93.0224 98.857L93.2996 98.4656L93.9355 97.5524L92.6474 96.6391L92.0441 97.5035L91.7506 97.9275L90.8375 99.2158L90.544 99.6561L89.9407 100.52L91.2451 101.434L91.881 100.52L91.8484 100.553ZM89.0113 101.858L88.6851 101.629L88.0166 101.173L87.6905 100.944L86.4024 100.031L85.1143 99.1179L86.0274 97.8133C86.9242 96.5087 87.8536 95.2041 88.7504 93.8995L89.6635 92.5948L90.9516 93.5081L90.0385 94.7964L89.3537 95.7912L89.1254 96.1173L88.2123 97.4056L87.984 97.7318L87.2992 98.7102L88.6036 99.6235L89.2069 98.7591L89.5004 98.3188L90.4135 97.0142L90.707 96.5902L91.3103 95.7259L92.2234 94.4213L93.2181 95.1062L93.5442 95.3345L94.8323 96.2478L96.1367 97.161L95.2236 98.4493C94.3105 99.7376 93.4137 101.059 92.5006 102.347L91.5875 103.651L90.2831 102.738L88.995 101.825L89.0113 101.858Z" fill="#E41D37"/>
<path id="Vector_4" fill-rule="evenodd" clip-rule="evenodd" d="M103.736 83.5767L104.649 82.2721L105.562 80.9838L106.475 79.6792L106.85 79.1574L107.388 78.3746L108.676 79.2878L108.138 80.0706C106.98 81.7177 105.823 83.3647 104.681 85.0281L104.143 85.8109L103.1 85.077C101.632 84.0333 100.148 83.006 98.6646 81.9786L97.6211 81.2447L98.1592 80.462L98.5342 79.9401L99.4473 78.6355L100.36 77.3309L101.274 76.0263L101.632 75.5044L102.17 74.7217L103.475 75.6349L102.937 76.4014L102.562 76.9232L101.649 78.2278L100.735 79.5324L99.8223 80.837L101.11 81.7503L102.024 80.4457L102.937 79.1411L103.85 77.8528L104.225 77.3309L104.763 76.5481L106.067 77.4614L105.529 78.2278L105.154 78.7497L104.241 80.0543L103.328 81.3589L102.415 82.6472L103.719 83.5604L103.736 83.5767Z" fill="#E41D37"/>
<path id="Vector_5" fill-rule="evenodd" clip-rule="evenodd" d="M102.855 73.7596L103.442 72.9442C104.567 71.3297 105.709 69.7152 106.834 68.1008L107.421 67.2691L108.317 67.9051L108.725 68.1823L110.013 69.0956L110.421 69.3728L111.318 70.0088L110.731 70.8242L110.405 71.2971L109.491 72.6017L108.578 73.89L107.665 75.1946L108.953 76.1079L109.28 76.3362L110.258 77.0211L109.345 78.3094L108.366 77.6245C106.85 76.5482 105.334 75.5045 103.817 74.4282L102.839 73.7432L102.855 73.7596ZM109.1 70.4002L107.812 69.4869L106.899 70.7916L105.986 72.0962L105.073 73.4008L106.377 74.314L107.29 73.0094L108.203 71.7211L109.116 70.4165L109.1 70.4002Z" fill="#E41D37"/>
<path id="Vector_6" fill-rule="evenodd" clip-rule="evenodd" d="M108.089 66.2906L108.839 65.2143C109.85 63.7629 110.861 62.3279 111.872 60.8765L112.622 59.8002L113.633 60.5014C115.1 61.5614 116.617 62.5725 118.084 63.6325L119.095 64.3337L118.345 65.41C117.334 66.8614 116.323 68.2965 115.312 69.7478L114.562 70.8241L113.551 70.1229L113.274 69.9272L111.986 69.014L110.681 68.1008L109.377 67.1875L109.1 66.9919L108.089 66.2906ZM116.926 64.7414L115.638 63.8282L114.334 62.9149L113.046 62.0017L112.133 63.3063L111.22 64.5946L110.306 65.8992L111.611 66.8125L112.899 67.7257L114.203 68.6389L115.117 67.3343L116.03 66.046L116.943 64.7414H116.926Z" fill="#E41D37"/>
<path id="Vector_7" fill-rule="evenodd" clip-rule="evenodd" d="M113.323 58.8054C114.839 56.6365 116.356 54.4676 117.872 52.2986L119.16 53.2119L118.524 54.1251L118.247 54.5165L117.334 55.8211L116.421 57.1257L115.508 58.4303L116.796 59.3436L118.084 60.2568L119.372 61.17L120.285 59.8654L121.199 58.5771L122.112 57.2725L122.389 56.8811L123.025 55.9679L124.329 56.8811C122.813 59.05 121.296 61.2189 119.78 63.3878L118.834 62.7355C117.285 61.6755 115.753 60.5666 114.204 59.5066L113.258 58.8543H113.274L113.323 58.8054Z" fill="#E41D37"/>
<path id="Vector_8" fill-rule="evenodd" clip-rule="evenodd" d="M123.774 43.8676L124.688 42.5793L125.747 43.3131C127.199 44.3405 128.666 45.3516 130.117 46.3953L131.177 47.1291L130.264 48.4174L129.204 47.6836L128.96 47.5042L127.655 46.591L126.367 45.6777L125.079 44.7645L124.834 44.5851L123.774 43.8513V43.8676ZM133.77 41.1768L134.83 41.9107L133.916 43.2153L132.857 42.4814C131.405 41.454 129.938 40.443 128.487 39.3993L127.427 38.6654L128.34 37.3771L129.4 38.111L129.644 38.2904L130.949 39.2036L132.237 40.1168L133.525 41.0301L133.77 41.2094V41.1768ZM127.802 40.8833L128.715 39.5787L130.003 40.4919L129.09 41.7802L127.802 40.867V40.8833ZM128.193 43.0848L129.106 41.7802L130.411 42.6934L129.498 43.9817L128.209 43.0685L128.193 43.0848ZM128.585 45.2863L129.498 43.9817L130.802 44.895L129.889 46.1996L128.601 45.2863H128.585Z" fill="#E41D37"/>
<path id="Vector_9" fill-rule="evenodd" clip-rule="evenodd" d="M135.123 38.7307L135.645 39.1058L136.411 39.6439L135.498 40.9485L134.732 40.4104C133.085 39.2525 131.438 38.0947 129.791 36.9531L129.009 36.415L129.922 35.1104L130.705 35.6485L131.226 36.0236L132.514 36.9368L133.803 37.8501L134.716 36.5454L136.004 37.4587L135.091 38.747L135.123 38.7307ZM139.298 33.9036L140.064 34.4418L139.151 35.7464L138.384 35.2082C136.738 34.0504 135.091 32.9088 133.444 31.751L132.661 31.2128L133.574 29.9082L134.357 30.4464L134.879 30.8215L136.167 31.7347L137.455 32.6479L138.759 33.5611L139.281 33.9362L139.298 33.9036ZM133.053 33.3981L133.966 32.0935L135.27 33.0067L134.357 34.295L133.069 33.3818L133.053 33.3981ZM133.444 35.5996L134.357 34.295L135.661 35.2082L134.748 36.5128L133.46 35.5996H133.444Z" fill="#E41D37"/>
<path id="Vector_10" d="M130.448 31.5969L129.541 32.8927L130.837 33.8L131.744 32.5042L130.448 31.5969Z" fill="#E41D37"/>
<path id="Vector_11" fill-rule="evenodd" clip-rule="evenodd" d="M118.557 51.3365L119.16 50.4722C120.269 48.8903 121.394 47.2922 122.503 45.694L123.106 44.8297L124.394 45.743L123.791 46.6073L123.481 47.0476L122.568 48.3359L121.655 49.6405L120.742 50.9451L122.03 51.8583L123.334 52.7716L124.639 53.6848L125.552 52.3802L126.465 51.0756L127.378 49.7873L127.688 49.347L128.291 48.4827L129.579 49.3959L128.976 50.2602C127.851 51.842 126.758 53.4565 125.633 55.0383L125.03 55.9026L124.133 55.283L123.726 54.9894L122.421 54.0762L121.117 53.163L119.812 52.2497L119.405 51.9725L118.508 51.3365H118.557Z" fill="#E41D37"/>
<path id="Vector_12" fill-rule="evenodd" clip-rule="evenodd" d="M134.243 28.9135L134.798 28.1144C135.939 26.4836 137.08 24.8365 138.238 23.2058L138.792 22.4067L140.081 23.3199L139.526 24.119L139.167 24.6245L138.254 25.9129L137.341 27.2175L136.428 28.5221L137.733 29.4353L139.021 30.3485L140.325 31.2618L141.238 29.9572L142.151 28.6525L143.064 27.3642L143.423 26.8587L143.978 26.0596L145.282 26.9729L144.728 27.7719C143.586 29.4027 142.445 31.0498 141.287 32.6805L140.733 33.4796L139.722 32.7784L139.428 32.5827L138.124 31.6695L136.836 30.7562L135.531 29.843L135.254 29.6473L134.243 28.9298V28.9135Z" fill="#E41D37"/>
<path id="Vector_13" fill-rule="evenodd" clip-rule="evenodd" d="M145.591 23.7929L145.852 23.9723L146.896 24.7061L145.982 25.9944L144.939 25.2769C143.471 24.2495 142.004 23.2058 140.52 22.1784L139.477 21.4446L140.39 20.1563L141.433 20.8901L141.694 21.0695L142.999 21.9827L143.912 20.6781L144.221 20.2378L144.825 19.3735L146.113 20.2867L145.51 21.151L145.2 21.5913L144.287 22.896L145.591 23.8092V23.7929ZM143.129 16.2587L144.042 14.9541L145.347 15.8674L144.433 17.172L145.722 18.0852L144.808 19.3898L143.52 18.4766L144.433 17.172L143.129 16.2587ZM148.33 19.8954L149.244 18.5907L150.548 19.504L149.635 20.8086L148.347 19.8954L147.434 21.2L146.129 20.2867L147.042 18.9821L148.33 19.8954Z" fill="#E41D37"/>
<path id="Vector_14" fill-rule="evenodd" clip-rule="evenodd" d="M144.711 13.9594L145.624 12.6548L146.276 13.1114C148.005 14.3181 149.733 15.5412 151.461 16.748L152.114 17.2046L151.201 18.5092L150.548 18.0526L149.896 17.596L148.608 16.6827L147.303 15.7695L146.015 14.8563L145.363 14.3997L144.711 13.9431V13.9594ZM155.098 11.5621L155.75 12.0188L154.837 13.3234L154.184 12.8668C152.456 11.66 150.728 10.4369 148.999 9.23015L148.347 8.77353L149.26 7.48523L149.912 7.94184L150.565 8.39846L151.869 9.31169L153.157 10.2249L154.445 11.1381L155.098 11.5948V11.5621ZM148.738 10.9751L149.651 9.67045L150.94 10.5837L150.027 11.872L148.738 10.9588V10.9751ZM149.13 13.1766L150.043 11.872L151.347 12.7852L150.434 14.0735L149.146 13.1603L149.13 13.1766ZM149.521 15.3781L150.434 14.0735L151.739 14.9868L150.825 16.2914L149.537 15.3781H149.521Z" fill="#E41D37"/>
<path id="Vector_15" fill-rule="evenodd" clip-rule="evenodd" d="M156.059 8.83875L156.711 9.29536L157.364 9.75198L156.45 11.0566L155.798 10.6C154.07 9.39321 152.342 8.17014 150.613 6.96337L149.961 6.50675L150.874 5.20214L151.526 5.65876L152.178 6.11537L153.467 7.0286L154.755 7.94183L155.668 6.65352L156.956 7.56675L156.043 8.87136L156.059 8.83875ZM160.347 4.09322L161 4.54984L160.087 5.83814L159.434 5.38153C157.706 4.17476 155.978 2.95169 154.249 1.74492L153.597 1.2883L154.51 0L155.162 0.456614L155.815 0.913229L157.119 1.82646L158.407 2.73969L159.712 3.65291L160.364 4.10953L160.347 4.09322ZM153.988 3.50615L154.901 2.20153L156.206 3.11476L155.293 4.40307L154.005 3.48984L153.988 3.50615ZM154.38 5.70768L155.293 4.40307L156.597 5.3163L155.684 6.62091L154.396 5.70768H154.38Z" fill="#E41D37"/>
<path id="Vector_16" d="M151.37 1.69306L150.463 2.98883L151.758 3.89614L152.666 2.60037L151.37 1.69306Z" fill="#E41D37"/>
<path id="Vector_17" fill-rule="evenodd" clip-rule="evenodd" d="M108.448 92.6927L109.556 93.4755L111.04 94.5029L110.127 95.8075L108.643 94.7638L107.534 93.981L107.159 93.7364L106.214 93.0841L104.926 92.1709L103.621 91.2576L104.306 90.2629C105.284 88.8604 106.279 87.4416 107.274 86.0392L107.958 85.0607L109.263 85.974L110.551 86.8872L111.839 87.8004L111.154 88.7789L110.926 89.105L110.241 90.0835L109.328 91.3881L108.415 92.6764L108.448 92.6927ZM105.839 90.8826L107.127 91.7958L108.04 90.4912L108.953 89.1866L109.638 88.2081L108.35 87.2949L107.665 88.2733L106.752 89.5616L105.839 90.8663V90.8826Z" fill="#0C54A0"/>
<path id="Vector_18" fill-rule="evenodd" clip-rule="evenodd" d="M97.3758 105.755L97.604 105.429L98.5008 104.124L99.4139 102.82L98.1258 101.923L96.8214 101.01L97.7345 99.705L99.0226 100.618L100.327 101.531L101.224 102.151L101.615 102.445L102.724 103.211L104.224 104.255L103.311 105.559L101.811 104.499L100.718 103.733L99.8053 105.038L98.8922 106.342L98.6639 106.652L97.9791 107.631L99.1204 108.43L100.588 109.457L99.6748 110.762L98.191 109.734L97.0823 108.935L96.7235 108.691L95.7778 108.022L94.4897 107.109L93.1689 106.212L94.0821 104.907L95.3865 105.82L96.6909 106.734L97.3758 105.755Z" fill="#0C54A0"/>
<path id="Vector_19" fill-rule="evenodd" clip-rule="evenodd" d="M108.007 95.7749L109.458 96.7859L108.545 98.0742L107.094 97.0632L105.936 96.2641L105.023 97.5687L104.11 98.857L103.882 99.1832L103.197 100.162L104.355 100.961L105.806 101.972L104.893 103.276L103.442 102.265L102.284 101.466L101.991 101.254L100.996 100.553L99.6915 99.6398L98.4033 98.7266L99.3164 97.4219L100.001 96.4272L100.23 96.101L101.143 94.7964L102.056 93.4918L102.969 92.2035L104.257 93.1167L105.561 94.0299L106.556 94.7312L106.85 94.9432L108.007 95.7422V95.7749ZM103.735 96.6555L104.648 95.3509L103.36 94.4376L102.447 95.7259L101.534 97.0306L101.306 97.3567L100.621 98.3352L101.909 99.2484L102.594 98.2536L102.822 97.9275L103.735 96.6229V96.6555Z" fill="#0C54A0"/>
<path id="Vector_20" fill-rule="evenodd" clip-rule="evenodd" d="M111.447 80.1195L112.295 78.9128L112.475 78.6518L113.208 77.6245L114.513 78.5377L115.817 79.4509L116.681 80.0543L117.122 80.3478L118.198 81.098L119.714 82.158L118.981 83.1854C117.937 84.653 116.91 86.1207 115.882 87.6047L115.149 88.6321L113.632 87.5721L112.556 86.822L112.116 86.5284L111.252 85.925L109.964 85.0118L108.659 84.0986L109.393 83.0712L109.572 82.8103L110.42 81.6035L111.464 80.1358L111.447 80.1195ZM116.192 81.6361L115.752 81.3426L114.888 80.7392L113.6 79.826L112.752 81.0328L111.708 82.5004L110.86 83.7072L112.165 84.6204L113.029 85.2238L113.469 85.5174L114.545 86.2675L114.757 86.4306L115.605 85.2238L116.649 83.7561L117.497 82.5494L117.285 82.3863L116.209 81.6361H116.192Z" fill="#0C54A0"/>
<path id="Vector_21" fill-rule="evenodd" clip-rule="evenodd" d="M119.567 68.5085L120.48 67.2038L121.785 68.1171L123.073 69.0303C123.986 67.7257 124.899 66.4211 125.796 65.1328L124.492 64.2195L123.203 63.3063L124.117 62.018C126.285 63.5346 128.454 65.0512 130.622 66.5678L129.709 67.8561L128.242 66.8288L127.117 66.046C126.204 67.3506 125.291 68.6552 124.394 69.9435L125.519 70.7263L126.986 71.7537L126.073 73.0583C123.905 71.5417 121.736 70.0251 119.567 68.5085Z" fill="#0C54A0"/>
<path id="Vector_22" fill-rule="evenodd" clip-rule="evenodd" d="M130.134 58.9685L131.047 57.6639L132.352 58.5771L131.438 59.8817L130.525 61.17L129.612 62.4746L130.9 63.3879L131.813 62.0996L132.727 60.7949L133.64 59.4903L134.928 60.4036L134.015 61.7082L133.102 63.0128L132.189 64.3174L131.275 65.6057C129.107 64.0891 126.938 62.5725 124.77 61.0559L125.683 59.7676L126.987 60.6808L128.292 61.594L129.205 60.3057L130.118 59.0011H130.134V58.9685Z" fill="#0C54A0"/>
<path id="Vector_23" fill-rule="evenodd" clip-rule="evenodd" d="M132.335 58.5771L133.249 57.2725L132.156 56.506L130.754 55.5276L129.352 54.5491L130.265 53.2445L131.651 54.223L133.053 55.2014L134.162 55.9679L134.455 56.1799L135.466 56.8811L136.754 57.7943L135.841 59.099L134.553 58.1857L133.64 59.4903L132.335 58.5771Z" fill="#0C54A0"/>
<path id="Vector_24" fill-rule="evenodd" clip-rule="evenodd" d="M139.379 48.499L139.933 48.8903L140.683 49.4122L141.971 50.3254L141.058 51.6137L139.754 50.7005L139.004 50.1787L138.449 49.7873L137.52 49.135L137.145 48.874L136.232 50.1787L137.52 51.0919L136.607 52.3965L135.302 51.4833L136.216 50.195L134.911 49.2817L135.824 47.9771L134.52 47.0639L135.433 45.7593L136.917 46.803L138.401 47.8467L139.33 48.499H139.379ZM137.031 54.6143L138.319 55.5276L137.406 56.8159L136.118 55.9026L135.27 55.3156L134.83 54.9894L133.835 54.2882L132.384 53.2771L130.933 52.266L131.846 50.9777L133.297 51.9888L134.748 52.9999L135.743 53.7011L136.656 52.4128L137.944 53.326L137.031 54.6306V54.6143Z" fill="#0C54A0"/>
<path id="Vector_25" d="M132.378 47.4579L131.47 48.7527L132.764 49.6614L133.673 48.3666L132.378 47.4579Z" fill="#0C54A0"/>
<path id="Vector_26" fill-rule="evenodd" clip-rule="evenodd" d="M119.698 82.1579L120.595 80.8696L119.307 79.9564C117.513 78.717 118.035 79.0595 115.41 77.233L114.105 76.3198C115.622 74.1509 117.138 71.982 118.655 69.813L120.09 70.8241C121.329 71.7047 122.601 72.569 123.84 73.4497L125.128 74.3629L126.025 73.0746L127.313 73.9878L126.4 75.2924L125.095 74.3792C123.726 76.3198 121.916 78.9127 120.562 80.8696L121.851 81.7829L120.937 83.0875L119.649 82.1742L119.698 82.1579ZM120.22 78.6518C121.133 77.3472 122.046 76.0426 122.943 74.7543C121.704 73.8737 120.432 73.0093 119.193 72.1287L119.046 72.0309C118.133 73.3355 117.22 74.6401 116.323 75.9284C118.166 77.2167 118.769 77.6407 120.22 78.6518Z" fill="#0C54A0"/>
<path id="Vector_27" fill-rule="evenodd" clip-rule="evenodd" d="M112.703 111.153L111.399 110.24L106.197 106.603L108.92 102.706L107.632 101.792L108.545 100.488L109.833 101.401L110.746 100.113L112.573 97.5035C115.41 99.493 116.519 100.276 119.079 102.053L116.356 105.951L117.644 106.864L116.731 108.152L115.426 107.239C114.268 108.903 114.317 108.805 112.703 111.137V111.153ZM114.138 106.342L110.241 103.619L108.415 106.228L112.312 108.951C113.453 107.321 112.997 107.989 114.138 106.342ZM112.964 99.705L111.138 102.314L113.747 104.141L115.035 105.054L116.845 102.445C115.41 101.434 114.676 100.928 112.948 99.7213" fill="#727271"/>
<path id="Vector_28" fill-rule="evenodd" clip-rule="evenodd" d="M131.928 69.8783L132.841 68.5737L134.145 69.4869L132.319 72.0961L137.521 75.7327L136.607 77.0373C134.879 75.8306 133.151 74.6075 131.406 73.4007C130.803 74.265 130.199 75.1293 129.58 76.01L128.275 75.0967C129.482 73.3681 130.705 71.6395 131.912 69.8946L131.928 69.8783Z" fill="#727271"/>
<path id="Vector_29" fill-rule="evenodd" clip-rule="evenodd" d="M133.476 78.7171L134.781 79.6303L133.868 80.9349L131.275 79.1084L130.362 80.413L128.536 83.006L129.84 83.9192V83.9355V83.9192L131.145 84.8324L130.231 86.137L128.927 85.2238L127.623 84.3106L123.726 81.5872L124.639 80.2826L127.248 82.0927L129.057 79.4998L129.971 78.1952L127.362 76.3851L128.275 75.0804L129.579 75.9937L132.172 77.8201L133.476 78.7171Z" fill="#727271"/>
<path id="Vector_30" fill-rule="evenodd" clip-rule="evenodd" d="M118.491 89.0561C120.008 86.8872 121.524 84.7182 123.04 82.5493C125.209 84.0659 127.378 85.5825 129.546 87.0992C128.03 89.2681 126.514 91.437 124.997 93.6059L118.491 89.0561ZM123.432 84.7672L120.709 88.6647L124.606 91.3881C125.519 90.0835 126.432 88.7788 127.329 87.4905L123.432 84.7672Z" fill="#727271"/>
<path id="Vector_31" fill-rule="evenodd" clip-rule="evenodd" d="M118.198 92.2361L117.285 93.5407L115.459 96.1499L116.747 97.0632L117.66 95.7585L119.47 93.1493L118.182 92.2361H118.198ZM117.807 90.0346L121.704 92.7579L120.791 94.0625L118.068 97.9601L119.372 98.8733L120.66 99.7865L119.747 101.075L117.138 99.2484L113.241 96.525C114.611 94.5844 115.915 92.6927 117.79 90.0182L117.807 90.0346Z" fill="#727271"/>
<g id="Clip path group">
<mask id="mask0_884_22211" style="mask-type:luminance" maskUnits="userSpaceOnUse" x="41" y="48" width="44" height="54">
<g id="clippath">
<path id="Vector_32" d="M41.3506 48.8904L78.5107 101.988L84.6742 93.182L53.6775 48.8904H41.3506Z" fill="white"/>
</g>
</mask>
<g mask="url(#mask0_884_22211)">
<g id="Group">
<path id="Vector_33" d="M70.6621 28.6078L16.5117 66.0385L55.3465 122.235L109.497 84.8047L70.6621 28.6078Z" fill="url(#paint0_linear_884_22211)"/>
</g>
</g>
</g>
<g id="Clip path group_2">
<mask id="mask1_884_22211" style="mask-type:luminance" maskUnits="userSpaceOnUse" x="29" y="48" width="50" height="63">
<g id="clippath-1">
<path id="Vector_34" d="M29.0234 48.8904L72.3633 110.794L78.5105 101.988L41.3504 48.8904H29.0234Z" fill="white"/>
</g>
</mask>
<g mask="url(#mask1_884_22211)">
<g id="Group_2">
<path id="Vector_35" d="M62.3747 25.6935L-0.00390625 69.0859L45.1516 134.017L107.53 90.6242L62.3747 25.6935Z" fill="url(#paint1_linear_884_22211)"/>
</g>
</g>
</g>
<g id="Clip path group_3">
<mask id="mask2_884_22211" style="mask-type:luminance" maskUnits="userSpaceOnUse" x="53" y="48" width="38" height="46">
<g id="clippath-2">
<path id="Vector_36" d="M53.6777 48.8904L84.6744 93.182L90.8379 84.3758L66.0047 48.8904H53.6777Z" fill="white"/>
</g>
</mask>
<g mask="url(#mask2_884_22211)">
<g id="Group_3">
<path id="Vector_37" d="M78.2262 31.285L32.7021 63.9175L66.2801 110.773L111.804 78.1407L78.2262 31.285Z" fill="url(#paint2_linear_884_22211)"/>
</g>
</g>
</g>
<path id="Vector_38" fill-rule="evenodd" clip-rule="evenodd" d="M91.5715 83.3158L90.8378 84.3758L65.9883 48.8904H67.4721L91.5715 83.3158Z" fill="#B2B3B3"/>
</g>
<defs>
<linearGradient id="paint0_linear_884_22211" x1="47.4917" y1="57.63" x2="64.9145" y2="82.8352" gradientUnits="userSpaceOnUse">
<stop stop-color="#00A0E3"/>
<stop offset="1" stop-color="#0C54A0"/>
</linearGradient>
<linearGradient id="paint1_linear_884_22211" x1="48.0903" y1="66.2396" x2="71.8548" y2="100.402" gradientUnits="userSpaceOnUse">
<stop stop-color="#E41D37"/>
<stop offset="1" stop-color="#AF212E"/>
</linearGradient>
<linearGradient id="paint2_linear_884_22211" x1="64.8165" y1="62.5932" x2="76.0745" y2="78.2987" gradientUnits="userSpaceOnUse">
<stop stop-color="#FEFEFE"/>
<stop offset="1" stop-color="#D9DADA"/>
</linearGradient>
<clipPath id="clip0_884_22211">
<rect width="161" height="134" fill="white"/>
</clipPath>
</defs>
</svg>
