<svg width="170" height="41" viewBox="0 0 170 41" fill="none" xmlns="http://www.w3.org/2000/svg">
<g id="Layer_1" clip-path="url(#clip0_884_22327)">
<path id="Vector" d="M132.571 41C132.571 40.8582 132.529 40.7022 132.698 40.6172C132.882 40.9716 133.221 40.8157 133.476 40.8157C136.048 40.8157 138.621 40.8157 141.193 40.8157C141.193 40.8724 141.193 40.9291 141.193 41H132.571Z" fill="#FE7498"/>
<path id="Vector_2" d="M149.293 41C149.293 40.8582 149.265 40.7023 149.434 40.6314C149.618 40.9858 149.957 40.8157 150.212 40.8157C152.784 40.8299 155.343 40.8157 157.915 40.8299C157.915 40.8866 157.915 40.9433 157.915 41H149.293Z" fill="#FE7599"/>
<path id="Vector_3" d="M0 21.6342C0 21.6342 0.113079 21.6342 0.155483 21.6342C0.310967 21.9744 0.621934 21.8185 0.848092 21.8185C2.68562 21.8326 4.50902 21.8185 6.34655 21.8326C6.2052 22.1162 5.93664 21.9886 5.72462 21.9886C3.81641 21.9886 1.90821 21.9886 0 21.9886V21.6342Z" fill="#FE9BB3"/>
<path id="Vector_4" d="M157.928 40.8299C155.356 40.8299 152.797 40.8299 150.225 40.8299C149.97 40.8299 149.631 41 149.447 40.6456C151.978 36.4067 154.508 32.1535 157.024 27.9146C158.395 25.6037 159.766 23.2929 161.165 20.982C161.391 20.5993 161.377 20.3441 161.151 19.9755C157.759 14.3188 154.366 8.63383 150.988 2.96301C150.437 2.0415 149.9 1.10582 149.292 0.0708956C149.589 0.0708956 149.815 0.0425415 150.027 0.0425415C152.43 0.0425415 154.833 0.0567185 157.236 0.0425415C157.745 0.0425415 158.013 0.198489 158.268 0.637977C161.943 6.81917 165.632 12.9862 169.321 19.1674C169.59 19.621 170 20.0889 170.014 20.5567C170.014 20.982 169.576 21.4215 169.321 21.8468C166.127 27.2199 162.918 32.593 159.709 37.9661C159.13 38.9443 158.522 39.9084 157.928 40.8724" fill="#FE0040"/>
<path id="Vector_5" d="M141.193 40.8157C138.621 40.8157 136.048 40.8157 133.476 40.8157C133.207 40.8157 132.882 40.9717 132.698 40.6172C135.285 36.2649 137.872 31.9267 140.458 27.5743C141.773 25.3627 143.073 23.1511 144.416 20.9537C144.656 20.5567 144.6 20.2874 144.388 19.9329C143.427 18.3593 142.494 16.7714 141.547 15.1836C141.363 14.8859 141.193 14.5882 141.024 14.2905C141.222 14.1629 141.405 14.2054 141.575 14.2054C144.034 14.2054 146.494 14.2054 148.967 14.1912C149.434 14.1912 149.702 14.3188 149.943 14.73C150.946 16.4737 151.964 18.2175 153.052 19.9187C153.335 20.3582 153.264 20.6276 153.024 21.0104C151.512 23.5481 150.013 26.0858 148.501 28.6235C146.225 32.4371 143.95 36.2507 141.674 40.0643C141.518 40.3195 141.363 40.5605 141.207 40.8015" fill="#FE0040"/>
<path id="Vector_6" d="M137.363 19.9471C136.854 19.1106 136.401 18.3876 135.977 17.6646C135.115 16.2043 134.295 14.7299 133.377 13.2981C133.066 12.816 133.122 12.49 133.405 12.0505C134.352 10.5052 135.242 8.93152 136.204 7.4004C136.486 6.94674 136.458 6.63484 136.204 6.20953C135.045 4.30981 133.928 2.39591 132.783 0.496184C132.712 0.36859 132.599 0.269351 132.627 0.0992266C132.797 -0.0425438 133.009 0.0283414 133.207 0.0283414C135.638 0.0283414 138.069 0.0283414 140.501 0.0283414C140.967 0.0283414 141.236 0.141758 141.476 0.567069C142.593 2.48097 143.723 4.39487 144.882 6.28042C145.137 6.69155 145.123 6.97509 144.882 7.37205C143.059 10.3918 141.25 13.4256 139.426 16.4595C138.748 17.5937 138.084 18.7137 137.349 19.9613" fill="#FE0040"/>
<path id="Vector_7" d="M6.34634 21.8326C4.50881 21.8326 2.68541 21.8327 0.847882 21.8185C0.607589 21.8185 0.310757 21.9744 0.155273 21.6342C2.95398 16.9416 5.76681 12.2348 8.56552 7.54219C8.73514 7.25865 8.84821 6.98929 9.27226 7.00347C11.2087 7.01764 13.1311 7.00347 15.1948 7.00347C14.587 8.05257 14.0357 9.00243 13.4703 9.95229C11.1381 13.8793 8.79168 17.7922 6.45942 21.7192C6.43115 21.7618 6.37461 21.8043 6.34634 21.8468" fill="#FE0040"/>
<path id="Vector_8" d="M73.6283 31.2037C72.9781 32.6639 72.3137 34.1241 71.6635 35.5844C71.3808 36.2223 71.0699 36.8603 70.8154 37.5124C70.6741 37.8811 70.4621 38.0086 70.0946 37.9803C69.7129 37.9519 69.3313 37.9803 68.9496 37.9803C68.3843 37.9803 68.3701 37.9661 68.3701 37.3707C68.3701 35.3717 68.3701 33.3869 68.3701 31.388C68.3701 30.1546 68.3701 28.9212 68.3701 27.6878C68.3701 27.1065 68.3843 27.0923 68.9638 27.0923C69.4868 27.0923 70.1511 26.8797 70.4903 27.1916C70.8437 27.5176 70.6034 28.184 70.6034 28.7085C70.6176 30.4381 70.6034 32.1535 70.6034 33.9824C71.0133 33.4578 71.183 32.9191 71.4091 32.4229C72.13 30.8351 72.8509 29.2331 73.5435 27.6169C73.7131 27.2341 73.8686 27.0356 74.3068 27.0923C74.8439 27.1632 75.5506 26.8513 75.904 27.2341C76.215 27.5743 76.0029 28.2407 76.0029 28.7652C76.0029 31.5156 76.0029 34.2801 76.0029 37.0304C76.0029 37.2431 76.0029 37.4416 76.0029 37.64C76.0029 37.8385 75.8757 37.9661 75.6637 37.9661C75.1407 37.9661 74.6036 37.9661 74.0806 37.9661C73.8544 37.9661 73.7696 37.8527 73.7696 37.64C73.7696 37.4274 73.7696 37.2289 73.7696 37.0304V31.232C73.7696 31.232 73.6707 31.2178 73.6283 31.2037Z" fill="#313131"/>
<path id="Vector_9" d="M40.8779 27.1065V33.8973C41.2313 33.8122 41.2454 33.5003 41.3444 33.2735C42.1924 31.4021 43.0264 29.545 43.8321 27.6594C44.0017 27.2483 44.2137 27.064 44.666 27.1065C45.1042 27.149 45.5424 27.1065 45.9806 27.1065C46.1926 27.1065 46.3057 27.1916 46.3057 27.4184C46.3057 27.5602 46.3057 27.7161 46.3057 27.8579V37.1864C46.3057 37.3281 46.3057 37.4841 46.3057 37.6259C46.3057 37.8811 46.1926 37.9945 45.9382 37.9803C45.4717 37.9803 45.0053 37.9519 44.5247 37.9803C44.1148 38.0086 44.03 37.8243 44.0441 37.4557C44.0441 35.6978 44.0441 33.9398 44.0441 32.1819C44.0441 31.8558 44.1007 31.5297 43.9593 31.1328C43.3798 32.4512 42.8144 33.6988 42.2631 34.9464C41.8815 35.797 41.4857 36.6477 41.1182 37.5125C40.9768 37.8527 40.779 38.0228 40.3973 37.9803C39.8743 37.9378 39.2241 38.1788 38.8566 37.8811C38.4608 37.5692 38.7153 36.8887 38.7153 36.3783C38.7011 33.5287 38.7153 30.6933 38.7153 27.8437C38.7153 27.0073 38.6587 27.1065 39.4786 27.1065C39.9167 27.1065 40.3549 27.1065 40.892 27.1065" fill="#313131"/>
<path id="Vector_10" d="M19.0112 32.508C19.0112 30.8918 19.0112 29.2898 19.0112 27.6736C19.0112 27.1207 19.0112 27.1065 19.5201 27.1065C21.7251 27.1065 23.916 27.1065 26.121 27.1065C26.5027 27.1065 26.6299 27.2199 26.6158 27.6027C26.6158 30.8918 26.6158 34.1667 26.6158 37.4557C26.6158 37.9661 26.6016 37.9803 26.0645 37.9945C25.7111 37.9945 25.3578 37.9945 25.0044 37.9945C24.4531 37.9945 24.439 37.9803 24.439 37.3849C24.439 34.9181 24.439 32.4512 24.439 29.9986C24.439 29.786 24.439 29.5875 24.439 29.389C24.439 29.1338 24.34 29.0204 24.0715 29.0204C23.2234 29.0204 22.3753 29.0204 21.5131 29.0204C21.2445 29.0204 21.1597 29.1622 21.1597 29.4032C21.1597 30.1687 21.1597 30.9343 21.1597 31.6857C21.1597 33.5571 21.1597 35.4426 21.1597 37.314C21.1597 37.9803 21.1597 37.9945 20.4812 37.9803C20.0148 37.9803 19.4211 38.1788 19.1243 37.8952C18.7709 37.5692 18.9971 36.9595 18.9971 36.4775C18.9829 35.1591 18.9971 33.8406 18.9971 32.5221" fill="#313131"/>
<path id="Vector_11" d="M56.5252 32.7773C56.4828 33.4437 56.5394 34.2376 56.3697 35.0173C55.9457 36.9454 54.6453 38.1079 52.6805 38.1079C50.631 38.1079 49.2458 37.1297 48.8641 35.0598C48.5532 33.3444 48.5249 31.5581 48.9348 29.8143C49.3447 28.0847 50.5744 26.9648 52.5392 26.9364C54.4898 26.908 55.7337 27.9855 56.2567 29.6867C56.5535 30.6508 56.5252 31.6574 56.5252 32.7632M54.2354 32.6072C54.2354 31.9692 54.2354 31.3171 54.2354 30.6791C54.2354 30.2964 54.094 29.9419 53.9244 29.6017C53.6559 29.0913 53.2459 28.8219 52.6523 28.8219C51.8466 28.8219 51.2671 29.1905 51.0974 30.0695C50.7582 31.7141 50.8006 33.3728 51.0974 35.0315C51.1257 35.1733 51.1964 35.3009 51.2671 35.4284C51.5639 35.9955 52.0445 36.2649 52.6947 36.2507C53.3166 36.2365 53.7548 35.9246 54.0092 35.3859C54.1647 35.074 54.2637 34.7338 54.2637 34.3793C54.2637 33.7981 54.2637 33.2168 54.2637 32.6214" fill="#313131"/>
<path id="Vector_12" d="M29.3017 27.1065C30.6021 27.1065 31.8601 27.0782 33.1181 27.1065C34.9981 27.1491 36.3692 28.5101 36.4398 30.3956C36.454 30.7784 36.4681 31.1612 36.3974 31.5298C36.1147 33.0183 35.0122 33.9966 33.4856 34.1242C33.1323 34.1525 32.7789 34.1383 32.4255 34.1525C31.3371 34.1667 31.4785 33.9824 31.4644 35.1449C31.4644 35.8821 31.4644 36.6051 31.4644 37.3423C31.4644 37.952 31.4502 37.9803 30.8142 37.9661C30.2912 37.9661 29.641 38.193 29.3017 37.8385C29.0049 37.5266 29.2169 36.8887 29.2169 36.3925C29.2169 33.6138 29.2169 30.8209 29.2169 28.0422C29.2169 27.7587 29.1604 27.4609 29.2876 27.0923M31.4644 30.5941C31.4644 30.7075 31.4644 30.8209 31.4644 30.9485C31.5068 31.3738 31.2665 31.9551 31.5633 32.2103C31.9591 32.5222 32.5669 32.3095 33.0899 32.3095C33.1464 32.3095 33.203 32.2811 33.2595 32.2528C33.7542 32.111 34.0652 31.7849 34.1359 31.2746C34.1783 31.0194 34.1783 30.75 34.1641 30.4948C34.1217 29.4032 33.6835 28.9921 32.581 28.9921C31.8272 28.9921 31.4502 29.3512 31.4502 30.0695V30.5941" fill="#313131"/>
<path id="Vector_13" d="M105.164 32.5079C105.164 31.0193 105.164 29.5166 105.164 28.028C105.164 26.908 105.206 27.1207 106.125 27.1065C106.422 27.1065 106.704 27.1207 107.001 27.1065C107.326 27.0923 107.397 27.2341 107.397 27.5318C107.397 28.5242 107.397 29.5166 107.397 30.5232C107.397 30.9201 107.538 31.0193 107.906 31.0193C108.485 31.0193 109.065 31.0193 109.644 31.1186C111.454 31.4447 112.556 33.0892 112.259 35.0598C112.005 36.8461 110.719 37.9377 108.867 37.9944C107.821 38.0228 106.761 38.0086 105.701 37.9944C105.178 37.9944 105.149 37.9661 105.149 37.4415C105.149 35.797 105.149 34.1666 105.149 32.5221M107.383 34.436C107.383 34.6061 107.383 34.7904 107.383 34.9606C107.425 36.3074 107.1 36.0947 108.612 36.1089C109.333 36.1089 109.715 35.8254 109.941 35.2016C110.097 34.7479 110.097 34.2801 109.969 33.8264C109.786 33.2026 109.418 32.9332 108.754 32.8907C108.4 32.8765 108.047 32.8907 107.708 32.8907C107.496 32.8907 107.397 33.0041 107.397 33.2168C107.397 33.6279 107.397 34.0391 107.397 34.4502" fill="#313131"/>
<path id="Vector_14" d="M87.4945 32.4938C87.4945 30.8776 87.4945 29.2756 87.4945 27.6594C87.4945 27.1207 87.4945 27.1065 88.0033 27.1065C89.7278 27.1065 91.4664 27.1065 93.1908 27.1065C93.5301 27.1065 93.7138 27.1632 93.7279 27.5743C93.7704 29.0062 93.7845 29.0062 92.3851 29.0062C91.6784 29.0062 90.9717 29.0062 90.279 29.0062C89.9398 29.0062 89.7278 29.0629 89.7419 29.4741C89.7843 30.112 89.7702 30.7642 89.7843 31.4021C90.4063 31.629 91.0565 31.4589 91.6925 31.5014C91.9894 31.5156 92.2721 31.5014 92.5689 31.5014C93.1202 31.5014 93.1343 31.5014 93.1201 32.0968C93.106 33.5145 93.3322 33.2452 92.0035 33.2735C91.3957 33.2735 90.7738 33.2735 90.1518 33.2735C89.855 33.2735 89.7278 33.3728 89.7419 33.6847C89.7419 34.351 89.7561 35.0315 89.7419 35.712C89.7419 36.0097 89.8409 36.1231 90.1518 36.1231C91.113 36.1231 92.0883 36.1231 93.0495 36.1231C93.6997 36.1231 93.7138 36.1231 93.7138 36.8036C93.7138 38.2213 93.8834 37.9803 92.583 37.9945C91.1413 37.9945 89.7137 37.9945 88.2719 37.9945C87.4097 37.9945 87.4945 38.0795 87.4945 37.1722C87.4945 35.6127 87.4945 34.0674 87.4945 32.508" fill="#313131"/>
<path id="Vector_15" d="M58.9566 32.508C58.9566 30.8918 58.9566 29.2898 58.9566 27.6736C58.9566 27.1207 58.9707 27.1065 59.5502 27.1065C60.5821 27.1065 61.5998 27.1065 62.6316 27.1065C65.4162 27.1065 66.5187 29.389 66.123 31.4872C65.812 33.1317 64.6812 34.0674 62.9991 34.1525C62.5892 34.1667 62.1793 34.1525 61.7694 34.1525C61.1475 34.1525 61.1333 34.1525 61.1333 34.7621C61.1333 35.6694 61.1192 36.5768 61.1333 37.4841C61.1333 37.8669 61.0061 38.0086 60.6245 37.9803C60.1015 37.9378 59.4513 38.1788 59.0979 37.8811C58.7304 37.555 58.9707 36.8887 58.9707 36.3783C58.9566 35.0882 58.9707 33.7981 58.9707 32.508M61.1333 30.5941C61.1333 30.7075 61.1333 30.8351 61.1333 30.9485C61.1758 31.3738 60.9213 31.9409 61.2464 32.2102C61.6563 32.5505 62.25 32.3095 62.773 32.3237C62.8013 32.3237 62.8295 32.3237 62.8578 32.3095C63.4797 32.1819 63.819 31.8133 63.9038 31.1895C63.932 30.9627 63.9462 30.7217 63.9038 30.4948C63.7624 29.3748 63.4515 28.907 61.7411 29.0204C61.1192 29.0629 61.1051 29.0346 61.1051 30.353V30.6224L61.1333 30.5941Z" fill="#313131"/>
<path id="Vector_16" d="M80.4976 33.472C80.4976 32.1819 80.4976 30.8918 80.4976 29.6017C80.4976 29.0062 80.4976 29.0062 79.8615 28.9921C79.3385 28.9921 78.8014 28.9921 78.2784 28.9921C77.9816 28.9921 77.8827 28.8645 77.8544 28.5809C77.713 27.1065 77.6989 27.1065 79.2113 27.1065C81.0913 27.1065 82.9571 27.1065 84.837 27.1065C85.4024 27.1065 85.4024 27.1065 85.4165 27.6878C85.4448 28.9921 85.4448 28.9921 84.1444 28.9921C83.7062 28.9921 83.1408 28.8645 82.8723 29.0771C82.5189 29.3607 82.7451 29.9561 82.7451 30.4098C82.7309 32.7206 82.7451 35.0315 82.7451 37.3565C82.7451 37.9661 82.745 37.9803 82.109 37.9661C81.6143 37.9661 81.0065 38.1788 80.6531 37.8669C80.2573 37.5266 80.5117 36.8745 80.4976 36.3641C80.4693 35.4001 80.4976 34.436 80.4976 33.472Z" fill="#323232"/>
<path id="Vector_17" d="M103.029 27.1065C103.029 27.6594 103.029 28.1273 103.029 28.5809C103.029 28.8787 102.916 29.0062 102.619 28.9921C101.997 28.9921 101.389 28.9921 100.768 28.9921C100.654 28.9921 100.541 29.0062 100.442 29.0204C100.273 29.3181 100.358 29.6159 100.358 29.8994C100.358 32.3662 100.358 34.833 100.358 37.2856C100.358 38.037 100.329 37.9803 99.6933 37.952C99.2268 37.9378 98.6473 38.1504 98.3222 37.8669C97.9547 37.5408 98.1808 36.9312 98.1808 36.4492C98.1667 34.2234 98.1808 31.9976 98.1808 29.7576C98.1808 29.0346 98.3222 28.9637 97.4458 28.9779C96.9794 28.9779 96.5129 28.9779 96.0323 28.9779C95.5235 28.9779 95.5093 28.9495 95.4811 28.425C95.434 27.5366 95.858 27.0923 96.7532 27.0923H103.029V27.1065Z" fill="#313131"/>
<path id="Vector_18" d="M128.74 19.8904C130.239 22.3997 131.638 24.7531 133.066 27.1207C132.373 27.2908 125.376 27.3192 124.415 27.149C125.843 24.7531 127.256 22.3856 128.74 19.8762" fill="#FE0040"/>
<path id="Vector_19" d="M114.902 27.1065C115.057 27.4042 115.001 27.6452 115.001 27.872C115.001 30.9768 115.001 34.0816 115.001 37.1864C115.001 37.3281 115.001 37.4841 115.001 37.6258C115.001 37.881 114.888 37.9944 114.633 37.9803C114.167 37.9803 113.701 37.9803 113.234 37.9803C112.909 37.9803 112.838 37.8385 112.838 37.555C112.838 36.7043 112.838 35.8537 112.838 35.0031C112.838 32.6072 112.838 30.1971 112.838 27.8012C112.838 27.0498 112.796 27.0923 113.559 27.1065C114.026 27.1065 114.478 27.1065 114.902 27.1065Z" fill="#313131"/>
<path id="Vector_20" d="M43.1962 21.9744C43.1821 21.9035 43.1396 21.8185 43.1396 21.7334C43.1396 19.3233 43.1396 16.9274 43.1396 14.5173C43.1396 14.0211 43.2386 13.9644 43.6909 14.0069C44.0584 14.0353 44.0019 14.2763 44.0019 14.5031C44.0019 16.1193 44.0019 17.7213 44.0019 19.3375V20.1739C44.0019 20.1739 44.1008 20.1881 44.1432 20.2023C44.6803 19.2099 45.2316 18.2175 45.7687 17.2251C46.2635 16.3036 46.7582 15.3679 47.267 14.4464C47.3801 14.2479 47.4508 14.0353 47.7476 14.0069C48.2282 13.9644 48.3837 14.0636 48.3837 14.5598C48.3837 16.8707 48.3837 19.1957 48.3837 21.5066C48.3837 21.7759 48.412 22.0453 48.0162 22.0453C47.7193 22.0453 47.5215 22.0028 47.5356 21.62C47.5639 20.8544 47.5356 20.103 47.5356 19.3375V15.5238C46.7864 16.899 46.1221 18.1041 45.4719 19.2949C45.0761 20.018 44.6662 20.7268 44.327 21.464C44.0867 21.9744 43.7616 22.1729 43.2103 21.9602" fill="#323232"/>
<path id="Vector_21" d="M34.8851 17.9623C34.8851 16.814 34.8851 15.6798 34.8851 14.5315C34.8851 14.0495 34.9982 13.9644 35.4363 14.0069C35.6484 14.0211 35.7473 14.1203 35.7473 14.333C35.7473 14.6024 35.7473 14.8576 35.7473 15.1269C35.7473 16.9416 35.7473 18.7562 35.7473 20.5709C35.7473 21.2514 35.7473 21.2514 36.3975 21.2656C37.1891 21.2656 37.9806 21.2514 38.7722 21.2656C39.168 21.2656 39.2669 21.1238 39.2669 20.7552C39.2669 18.9689 39.2669 17.1826 39.2669 15.3963C39.2669 15.0986 39.2669 14.815 39.2669 14.5173C39.281 14.0495 39.4082 13.9502 39.8323 14.0069C40.0443 14.0353 40.1291 14.1487 40.1291 14.3472C40.1291 14.8434 40.1291 15.3396 40.1291 15.8358C40.1291 17.4236 40.1291 18.9973 40.1291 20.5851C40.1291 20.9253 40.0302 21.3365 40.6238 21.2798C40.8076 21.2656 40.8359 21.4357 40.8359 21.5916C40.8359 22.3856 40.8217 23.1795 40.8076 23.9592C40.8076 24.2569 40.6945 24.4412 40.3411 24.4412C39.9878 24.4412 39.9878 24.2286 39.9878 23.9876C39.9878 23.5197 39.9878 23.0519 39.9878 22.584C39.9878 22.0595 39.9736 22.0453 39.4506 22.0453C38.2209 22.0453 36.9912 22.0453 35.7614 22.0453C34.7579 22.0453 34.8851 22.1162 34.8851 21.138C34.8851 20.0889 34.8851 19.0256 34.8851 17.9765" fill="#333333"/>
<path id="Vector_22" d="M32.1849 21.946C31.6289 22.0311 31.2661 21.7617 31.0965 21.1379C30.418 21.946 29.5699 22.3146 28.5381 22.187C27.7041 22.0878 27.1387 21.6483 26.8702 20.8402C26.3331 19.1673 27.3508 17.5937 29.1176 17.4236C29.5558 17.381 29.994 17.3952 30.4322 17.381C31.1813 17.381 31.1813 17.4803 31.1672 16.6013C31.1672 16.4879 31.1672 16.3745 31.1672 16.2469C31.1389 15.2261 30.7714 14.7866 29.7961 14.6449C28.9056 14.5314 28.0716 14.9993 27.8314 15.7648C27.789 15.9208 27.8314 16.1334 27.6193 16.1902C27.4214 16.2327 27.2094 16.2752 27.0257 16.1476C26.8561 16.02 26.9267 15.8215 26.9691 15.6514C27.0963 15.1978 27.3366 14.8008 27.7041 14.4747C28.5381 13.7517 30.1495 13.6099 31.0824 14.2054C31.8033 14.659 32.0011 15.3821 32.0294 16.176C32.0577 17.296 32.0294 18.4018 32.0294 19.5218C32.0294 20.3298 31.987 21.1521 32.199 21.946M30.1919 18.0757C29.5841 18.0899 28.9621 18.0757 28.4109 18.4159C27.7041 18.8554 27.4073 19.7628 27.7183 20.5709C27.9868 21.2514 28.6653 21.5207 29.5558 21.3222C30.729 21.0529 31.1813 20.4291 31.1813 19.1248C31.1813 18.4254 30.8515 18.0804 30.1919 18.0899" fill="#323232"/>
<path id="Vector_23" d="M72.5545 22.0028C71.9797 22.0311 71.6027 21.7476 71.4237 21.1521C70.7311 21.9461 69.8971 22.3005 68.8653 22.1729C68.102 22.0737 67.5507 21.7051 67.268 20.982C66.7309 19.6069 67.1832 17.6929 69.4448 17.4094C69.9678 17.3385 70.4908 17.3669 71.0279 17.3669C71.353 17.3669 71.5368 17.2818 71.5085 16.9274C71.4944 16.7006 71.5085 16.4595 71.5085 16.2185C71.4802 15.2687 71.1551 14.8292 70.307 14.6449C69.4448 14.4606 68.5826 14.8575 68.2433 15.5947C68.2009 15.694 68.1868 15.8216 68.1444 15.9208C68.0455 16.1618 67.6921 16.2894 67.4377 16.176C67.1691 16.0626 67.268 15.8216 67.3246 15.6515C67.4518 15.1978 67.6779 14.7867 68.0455 14.4748C68.8511 13.7943 70.3353 13.61 71.2682 14.1062C72.0598 14.5173 72.3425 15.2261 72.3566 16.0626C72.3707 17.055 72.3566 18.0474 72.3566 19.0539C72.3566 20.018 72.2859 20.982 72.5545 21.9886M70.3777 18.0616C70.1798 18.0616 69.8547 18.0616 69.5296 18.1183C68.9077 18.2317 68.3706 18.4869 68.0879 19.1107C67.7204 19.9329 68.0031 20.9678 68.6815 21.2514C69.5862 21.62 70.8442 21.1521 71.3389 20.3015C71.565 19.9187 71.4802 19.5076 71.4802 19.1107C71.4802 17.9198 71.6781 18.0899 70.3777 18.0757" fill="#323232"/>
<path id="Vector_24" d="M114.351 20.6276C114.874 21.138 114.874 21.1947 114.379 21.6058C112.711 22.9668 110.026 22.0878 109.531 19.9896C109.234 18.7279 109.248 17.4236 109.531 16.1618C109.658 15.5522 109.941 14.9993 110.393 14.5598C111.807 13.1847 114.195 13.8084 114.789 15.694C115.001 16.3461 114.959 17.0266 114.987 17.693C115.001 18.0616 114.846 18.1324 114.52 18.1183C113.291 18.1183 112.061 18.1183 110.831 18.1183C110.209 18.1183 110.223 18.1183 110.223 18.7562C110.223 19.1107 110.294 19.4509 110.379 19.7912C110.803 21.4215 112.457 21.8185 113.729 21.1096C113.955 20.982 114.153 20.7977 114.365 20.6418M112.16 17.3102C112.655 17.3102 113.164 17.296 113.658 17.3102C114.068 17.3385 114.167 17.1684 114.125 16.7998C114.096 16.4454 114.054 16.1051 113.927 15.7791C113.46 14.5173 111.948 14.3614 111.086 15.056C110.478 15.5522 110.322 16.2753 110.238 17.0125C110.209 17.2393 110.379 17.3102 110.577 17.3102C111.1 17.3102 111.623 17.3102 112.16 17.3102Z" fill="#323232"/>
<path id="Vector_25" d="M56.836 17.8914C56.8078 18.7704 56.7654 19.4792 56.5392 20.1455C56.0869 21.5207 55.1398 22.2154 53.7264 22.187C52.426 22.1587 51.4224 21.3931 51.069 20.0463C50.7298 18.6995 50.6732 17.296 51.0831 15.9775C51.6485 14.177 52.8217 13.6525 54.5321 13.9218C55.5639 14.0919 56.4544 15.1269 56.6523 16.3461C56.7512 16.9132 56.8643 17.4944 56.8219 17.9056M55.9738 18.0473C55.9455 17.6646 55.9455 17.2818 55.889 16.9132C55.8466 16.6296 55.7759 16.3461 55.677 16.0626C55.3377 15.1269 54.6593 14.6023 53.8112 14.6165C53.0196 14.6165 52.2846 15.1411 52.0019 16.0342C51.592 17.3385 51.592 18.6853 52.0019 19.9896C52.2846 20.9395 53.1327 21.4782 53.9808 21.4073C54.8996 21.3364 55.5922 20.6984 55.8042 19.6777C55.9173 19.139 56.0162 18.5861 55.9879 18.0332" fill="#323232"/>
<path id="Vector_26" d="M63.7204 18.4443H60.3139C60.1301 18.6711 60.2008 18.9122 60.2008 19.139C60.2008 19.8762 60.2008 20.5992 60.2008 21.3364C60.2008 22.0311 60.1725 22.0311 59.7344 22.0453C59.1831 22.0453 59.3386 21.6625 59.3386 21.379C59.3386 19.1532 59.3386 16.9274 59.3386 14.6874C59.3386 14.6023 59.3386 14.5173 59.3386 14.418C59.3103 14.1203 59.4375 14.0069 59.7485 14.0069C60.0595 14.0069 60.2291 14.0778 60.2291 14.4464C60.2008 15.3254 60.2291 16.2043 60.2291 17.0833C60.2291 17.4519 60.328 17.6079 60.7238 17.5937C61.6002 17.5653 62.4765 17.5795 63.367 17.5937C63.678 17.5937 63.7769 17.4803 63.7769 17.1826C63.7628 16.3886 63.7487 15.5947 63.7769 14.815C63.7769 14.5456 63.4942 14.0494 64.1303 14.0211C64.5968 14.0069 64.625 14.0353 64.625 14.7725C64.625 16.8281 64.625 18.8838 64.625 20.9253C64.625 21.1663 64.625 21.3931 64.625 21.6341C64.6533 22.0169 64.413 22.0453 64.1303 22.0453C63.7911 22.0453 63.7628 21.861 63.7628 21.6058C63.7628 20.585 63.7628 19.5643 63.7628 18.4443" fill="#333333"/>
<path id="Vector_27" d="M19.0117 18.0474C19.0117 16.8423 19.0117 15.6373 19.0117 14.4464C19.0117 14.1629 19.0824 14.0069 19.3934 14.0211C19.7043 14.0211 19.8881 14.0778 19.8881 14.4464C19.8739 15.3254 19.8881 16.2044 19.8881 17.0833C19.8881 17.4378 19.9588 17.6221 20.3687 17.6079C21.2168 17.5795 22.0648 17.5795 22.9271 17.6079C23.3087 17.6079 23.4359 17.4945 23.4359 17.1117C23.4077 16.2327 23.4359 15.3537 23.4359 14.4748C23.4359 14.2054 23.4783 14.0211 23.8034 14.0353C24.1144 14.0353 24.284 14.1203 24.284 14.4748C24.284 16.5021 24.284 18.5152 24.284 20.5425C24.284 20.9253 24.284 21.3081 24.284 21.6909C24.284 22.0169 24.1144 22.0736 23.8317 22.0736C23.5349 22.0736 23.4218 21.9602 23.4218 21.6625C23.4218 20.7835 23.4218 19.9046 23.4218 19.0256C23.4218 18.4727 23.4077 18.4585 22.9129 18.4585C22.0931 18.4585 21.2733 18.4585 20.4535 18.4585C19.9164 18.4585 19.9164 18.4727 19.9022 18.9831C19.9022 19.862 19.8881 20.741 19.9022 21.62C19.9022 21.9744 19.775 22.0736 19.4358 22.0736C19.1389 22.0736 19.0117 21.9886 19.0117 21.6767C19.0117 20.6559 19.0117 19.621 19.0117 18.6003V18.0757" fill="#343434"/>
<path id="Vector_28" d="M80.4412 14.0211V21.9177C80.2716 22.1304 80.0455 22.0311 79.8617 22.0453C79.6921 22.0453 79.6073 21.9319 79.6073 21.7618C79.6073 21.5491 79.6073 21.3506 79.6073 21.1522C79.6073 19.0681 79.6073 16.9983 79.6073 14.8009C78.7592 14.8009 77.9252 14.8009 77.0771 14.8009C76.851 15.056 76.9499 15.3679 76.9358 15.6515C76.8934 17.1684 76.8368 18.6854 76.5824 20.2023C76.5117 20.6134 76.3845 20.9962 76.1725 21.3506C75.8757 21.8468 75.4234 22.0737 74.858 22.0737C74.6742 22.0737 74.4905 22.0737 74.4905 21.8185C74.4905 21.6342 74.3632 21.3648 74.6459 21.2939C75.7485 21.0529 75.7626 20.1456 75.8757 19.3092C76.0736 17.7922 76.0453 16.2753 76.0877 14.7441C76.1018 14.0636 76.116 14.0495 76.7662 14.0495C77.9676 14.0495 79.1691 14.0495 80.4412 14.0495" fill="#323232"/>
<path id="Vector_29" d="M96.3296 18.0616C96.3296 19.2383 96.3296 20.4008 96.3296 21.5775C96.3296 21.8894 96.2589 22.0595 95.8914 22.0595C95.538 22.0595 95.4391 21.9035 95.4532 21.5775C95.4673 20.6701 95.4532 19.7628 95.4532 18.8555C95.4532 18.5719 95.3684 18.4302 95.0574 18.4302C94.1811 18.4302 93.3047 18.4443 92.4142 18.4302C92.0043 18.4302 91.9336 18.6145 91.9336 18.9689C91.9478 19.8479 91.9336 20.7268 91.9336 21.6058C91.9336 21.8752 91.8912 22.0453 91.5661 22.0595C91.1986 22.0595 91.1279 21.9035 91.1279 21.5916C91.1279 19.2099 91.1279 16.8423 91.1279 14.4748C91.1279 14.2054 91.1845 14.0495 91.5096 14.0353C91.8912 14.0353 91.9336 14.2196 91.9336 14.5315C91.9336 15.3537 91.9336 16.176 91.9336 16.9983C91.9336 17.6079 91.9478 17.6079 92.5838 17.6221C93.3188 17.6221 94.0538 17.6221 94.7747 17.6221C95.4108 17.6221 95.4108 17.6221 95.4249 16.9274C95.4249 16.1335 95.4391 15.3396 95.4249 14.5598C95.4249 14.177 95.538 14.0211 95.9338 14.0495C96.1741 14.0636 96.3154 14.1345 96.3013 14.4039C96.3013 14.9568 96.3013 15.5239 96.3013 16.0768V18.1041" fill="#323232"/>
<path id="Vector_30" d="M99.3397 22.0453C99.3115 21.8752 99.2832 21.7617 99.2832 21.6483C99.2832 19.2808 99.2832 16.9132 99.2832 14.5456C99.2832 14.2196 99.2832 13.9644 99.7355 14.0069C100.032 14.0353 100.145 14.1487 100.145 14.4322C100.145 15.0985 100.145 15.779 100.145 16.4454C100.145 16.7856 100.273 16.899 100.612 16.8848C101.163 16.8707 101.729 16.8565 102.28 16.8848C103.283 16.9699 104.329 17.5795 104.499 19.0681C104.612 20.103 104.146 21.4782 103.114 21.8185C102.916 21.8893 102.732 21.9602 102.52 21.9744C102.223 21.9744 101.941 22.0028 101.644 22.0028C100.895 22.0028 100.131 22.0028 99.3539 22.0028M100.145 19.4792C100.23 19.9754 99.99 20.5992 100.273 21.1805C100.852 21.2797 101.432 21.2372 102.011 21.223C103.085 21.1947 103.707 20.4858 103.679 19.3942C103.651 18.3025 102.873 17.5795 101.983 17.6929C101.842 17.7071 101.686 17.6929 101.545 17.6929C101.107 17.7213 100.584 17.5228 100.273 17.778C99.9475 18.0615 100.202 18.6003 100.16 19.0256C100.16 19.139 100.16 19.2666 100.16 19.4651" fill="#323232"/>
<path id="Vector_31" d="M85.1346 22.0453C84.753 22.0453 84.3713 22.0453 83.9897 22.0453C83.4243 22.0453 83.4102 22.0453 83.4102 21.464C83.4102 19.1815 83.4102 16.899 83.4102 14.6165C83.4102 14.5315 83.4102 14.4464 83.4102 14.3472C83.4102 14.0636 83.5656 14.0069 83.8059 14.0211C84.0321 14.0211 84.2158 14.0494 84.2158 14.3472C84.2158 15.0135 84.2158 15.694 84.2158 16.3603C84.2158 16.8707 84.2441 16.8849 84.7812 16.899C85.2477 16.899 85.7141 16.899 86.1806 16.899C87.8485 16.9416 88.6259 18.1466 88.5835 19.3517C88.5694 19.7628 88.5835 20.1598 88.4139 20.5567C88.0605 21.4215 87.4527 21.9461 86.5198 22.0169C86.0534 22.0595 85.5869 22.0169 85.1205 22.0169V22.0453M84.2017 19.3517C84.2017 19.862 84.2017 20.3015 84.2017 20.741C84.2017 21.0954 84.3007 21.2939 84.6964 21.2797C85.1911 21.2514 85.7 21.2939 86.1947 21.2797C86.8591 21.2372 87.3962 20.9537 87.6224 20.3015C88.0605 18.9972 87.4245 17.5654 85.8838 17.7497C85.3608 17.8064 84.6823 17.537 84.3572 17.8489C83.9756 18.2033 84.2865 18.898 84.2158 19.3658" fill="#323232"/>
<path id="Vector_32" d="M105.969 17.9907C105.969 16.8423 105.969 15.7082 105.969 14.5598C105.969 14.2338 105.969 13.9928 106.421 14.0069C106.789 14.0069 106.845 14.2054 106.845 14.5173C106.845 16.8565 106.845 19.2099 106.845 21.5491C106.845 22.0028 106.76 22.0595 106.35 22.0595C106.096 22.0595 105.983 21.9461 105.983 21.6909C105.983 21.5208 105.983 21.3365 105.983 21.1663V18.0049" fill="#3A3A3A"/>
<path id="Vector_33" d="M61.1195 30.5799V30.3105C61.1195 28.9921 61.1195 29.0204 61.7555 28.9779C63.4659 28.8645 63.7768 29.3323 63.9182 30.4523C63.9464 30.6791 63.9323 30.9201 63.9182 31.147C63.8334 31.7849 63.4941 32.1394 62.8722 32.267C62.8439 32.267 62.8157 32.2811 62.7874 32.2811C62.2644 32.267 61.6707 32.4938 61.2608 32.1677C60.9357 31.8984 61.1901 31.3455 61.1477 30.906C61.1477 30.7926 61.1477 30.6791 61.1477 30.5515" fill="#FCFCFC"/>
</g>
<defs>
<clipPath id="clip0_884_22327">
<rect width="170" height="41" fill="white"/>
</clipPath>
</defs>
</svg>
