<svg width="161" height="44" viewBox="0 0 161 44" fill="none" xmlns="http://www.w3.org/2000/svg">
<g id="Layer_1" clip-path="url(#clip0_884_22259)">
<path id="Vector" d="M124.668 36.4684V34.4048H131.805V36.4684H129.491V43.8717H126.993V36.4684H124.668Z" fill="#005CA9"/>
<path id="Vector_2" d="M77.1626 44C76.2489 44 75.4276 43.8134 74.6873 43.4404C73.947 43.0673 73.3687 42.5193 72.9407 41.7965C72.5127 41.0736 72.293 40.1876 72.293 39.15C72.293 38.1123 72.5127 37.203 72.9407 36.4801C73.3687 35.7573 73.9586 35.2093 74.6873 34.8362C75.4276 34.4632 76.2489 34.2766 77.1626 34.2766C78.0764 34.2766 78.8977 34.4632 79.6264 34.8362C80.3667 35.2093 80.945 35.7573 81.373 36.4801C81.801 37.203 82.0208 38.089 82.0208 39.15C82.0208 40.2109 81.801 41.0853 81.373 41.8081C80.945 42.531 80.3551 43.0789 79.6264 43.452C78.8861 43.8251 78.0649 44.0116 77.1626 44.0116M77.1626 41.7732C77.6138 41.7732 77.9955 41.6799 78.2962 41.47C78.6085 41.2718 78.8398 40.9687 78.9902 40.584C79.1406 40.1992 79.2216 39.7212 79.2216 39.15C79.2216 38.5787 79.1406 38.1007 78.9902 37.7159C78.8283 37.3312 78.5969 37.0281 78.2962 36.8299C77.9839 36.6317 77.6138 36.5267 77.1626 36.5267C76.7115 36.5267 76.3414 36.6317 76.0291 36.8299C75.7168 37.0281 75.4854 37.3312 75.3235 37.7159C75.1616 38.1123 75.0922 38.5903 75.0922 39.15C75.0922 39.7096 75.1731 40.1876 75.3235 40.584C75.4854 40.9687 75.7168 41.2718 76.0291 41.47C76.3414 41.6682 76.7115 41.7732 77.1626 41.7732Z" fill="#005CA9"/>
<path id="Vector_3" d="M91.3789 43.8717V34.3932H97.6135V36.4684H94.0393V38.0657H97.2549V40.0943H94.0393V41.7965H97.5903V43.8601H91.3789V43.8717Z" fill="#005CA9"/>
<path id="Vector_4" d="M107.619 43.8717V34.3932H113.865V36.4684H110.28V38.0657H113.495V40.0943H110.28V41.7965H113.831V43.8601H107.619V43.8717Z" fill="#005CA9"/>
<path id="Vector_5" d="M104.021 34.3932V38.5903C103.894 38.5903 103.767 38.6136 103.616 38.6253C103.431 38.6253 103.258 38.637 103.096 38.6486C102.934 38.6486 102.818 38.6486 102.749 38.6486C102.159 38.6486 101.754 38.5437 101.534 38.3455C101.314 38.1473 101.21 37.8209 101.21 37.3662V34.3932H98.9316V37.3662C98.9316 38.1007 99.0936 38.7069 99.4059 39.1849C99.7298 39.6629 100.169 40.0244 100.748 40.2692C101.326 40.5024 101.997 40.6189 102.76 40.6189C102.795 40.6189 102.888 40.6189 103.049 40.6189C103.2 40.6189 103.373 40.6073 103.57 40.584C103.732 40.584 103.894 40.5607 104.044 40.5373V43.8601H106.346V34.3932H104.044H104.021Z" fill="#005CA9"/>
<path id="Vector_6" d="M119.371 44C118.468 44 117.67 43.8134 116.965 43.4404C116.259 43.0673 115.692 42.5193 115.276 41.7965C114.86 41.0736 114.651 40.1876 114.651 39.15C114.651 38.1123 114.86 37.203 115.288 36.4801C115.704 35.7573 116.271 35.2093 116.988 34.8362C117.705 34.4632 118.492 34.2766 119.371 34.2766C119.984 34.2766 120.562 34.3582 121.083 34.5214C121.603 34.6847 122.066 34.9295 122.447 35.2326C122.841 35.5474 123.153 35.9321 123.396 36.3868C123.639 36.8415 123.778 37.3662 123.824 37.9491H121.129C121.117 37.7276 121.059 37.5294 120.978 37.3545C120.897 37.1796 120.793 37.0164 120.643 36.8998C120.504 36.7716 120.331 36.6783 120.123 36.6084C119.926 36.5384 119.695 36.5034 119.44 36.5034C119.001 36.5034 118.619 36.6084 118.307 36.8182C117.994 37.0281 117.763 37.3312 117.601 37.7159C117.439 38.1123 117.37 38.5787 117.37 39.1383C117.37 39.6979 117.451 40.1992 117.612 40.584C117.774 40.9687 118.006 41.2602 118.307 41.4584C118.607 41.6566 118.977 41.7499 119.417 41.7499C119.66 41.7499 119.88 41.7149 120.076 41.6682C120.273 41.6099 120.435 41.5283 120.585 41.4117C120.724 41.2952 120.851 41.1553 120.932 40.992C121.025 40.8288 121.083 40.6539 121.117 40.4441H123.812C123.778 40.8521 123.674 41.2602 123.465 41.6682C123.269 42.088 122.98 42.4727 122.609 42.8225C122.239 43.1722 121.788 43.452 121.245 43.6735C120.701 43.8834 120.076 44 119.359 44H119.371Z" fill="#005CA9"/>
<path id="Vector_7" d="M82.5879 36.4684V34.4048H90.0601V36.4684H87.6311V43.8717H85.0169V36.4684H82.5879Z" fill="#005CA9"/>
<path id="Vector_8" d="M133.112 43.8717V34.4048H137.357C138.109 34.4048 138.722 34.4981 139.242 34.6963C139.751 34.8945 140.133 35.1627 140.388 35.5241C140.642 35.8738 140.769 36.2936 140.769 36.7716C140.769 37.1213 140.688 37.4361 140.526 37.7276C140.364 38.019 140.145 38.2522 139.867 38.4504C139.589 38.6486 139.254 38.7769 138.872 38.8468V38.9517C139.289 38.9517 139.682 39.0683 140.017 39.2549C140.364 39.4414 140.631 39.7096 140.839 40.036C141.047 40.3741 141.139 40.7588 141.139 41.2019C141.139 41.7265 141.001 42.1812 140.723 42.5776C140.445 42.9857 140.052 43.3004 139.543 43.5336C139.023 43.7668 138.421 43.8834 137.704 43.8834H133.089L133.112 43.8717ZM135.772 38.2172H136.86C137.091 38.2172 137.299 38.1823 137.473 38.1123C137.646 38.0424 137.785 37.9374 137.889 37.8092C137.993 37.6809 138.04 37.5177 138.04 37.3195C138.04 37.0281 137.935 36.8065 137.716 36.655C137.496 36.5034 137.23 36.4218 136.894 36.4218H135.761V38.2289L135.772 38.2172ZM135.772 41.8081H137.022C137.461 41.8081 137.797 41.7265 138.028 41.5633C138.259 41.4001 138.363 41.1552 138.363 40.8521C138.363 40.6306 138.306 40.4324 138.201 40.2808C138.097 40.1293 137.947 40.0127 137.75 39.9311C137.554 39.8495 137.322 39.8145 137.056 39.8145H135.772V41.8198V41.8081Z" fill="#005CA9"/>
<path id="Vector_9" d="M148.75 43.8717H151.156L146.888 34.4048H145.315L141.047 43.8717H143.43L144.251 42.053H147.906L148.727 43.8717H148.75ZM145.13 40.1409L146.055 38.1123H146.136L147.062 40.1409H145.142H145.13Z" fill="#005CA9"/>
<path id="Vector_10" d="M75.9019 31.257C75.2078 31.257 74.5832 31.1288 74.028 30.8723C73.4844 30.6158 73.0564 30.2543 72.7556 29.8113C72.4433 29.3566 72.293 28.832 72.293 28.2491H74.722C74.722 28.4356 74.7683 28.5872 74.8724 28.7387C74.9765 28.8786 75.1153 28.9952 75.3004 29.0768C75.4854 29.1584 75.6936 29.1934 75.925 29.1934C76.1563 29.1934 76.3414 29.1468 76.5149 29.0652C76.6884 28.9836 76.8156 28.867 76.9082 28.7154C77.0007 28.5638 77.047 28.389 77.047 28.2024C77.047 28.0159 76.9891 27.841 76.885 27.6894C76.7809 27.5379 76.619 27.4329 76.4224 27.3513C76.2257 27.2697 75.9944 27.2231 75.7283 27.2231H74.8261V25.4393H75.7283C75.9597 25.4393 76.1795 25.3927 76.3645 25.3111C76.5496 25.2294 76.6884 25.1129 76.7925 24.9613C76.8966 24.8097 76.9429 24.6465 76.9429 24.46C76.9429 24.2734 76.8966 24.1102 76.8041 23.9703C76.7115 23.8304 76.5959 23.7255 76.4455 23.6322C76.2951 23.5506 76.1216 23.5156 75.9134 23.5156C75.6936 23.5156 75.497 23.5622 75.3119 23.6439C75.1384 23.7255 74.9996 23.8421 74.9071 23.982C74.8146 24.1219 74.7683 24.2967 74.7683 24.4949H72.4549C72.4549 23.912 72.6053 23.399 72.906 22.956C73.2068 22.513 73.6116 22.1632 74.1321 21.9184C74.6526 21.6619 75.2541 21.5453 75.925 21.5453C76.5959 21.5453 77.1626 21.6619 77.6716 21.9067C78.1805 22.1515 78.5738 22.478 78.8514 22.886C79.129 23.2941 79.2794 23.7721 79.2794 24.3084C79.2794 24.8447 79.1059 25.2644 78.7589 25.6025C78.4119 25.9406 77.9723 26.1505 77.4402 26.2088V26.2671C78.1574 26.3487 78.701 26.5819 79.048 26.9666C79.4066 27.3513 79.5801 27.8293 79.5801 28.4123C79.5801 28.9952 79.4182 29.4616 79.1059 29.8929C78.7936 30.3243 78.354 30.6624 77.7988 30.8956C77.2436 31.1404 76.5959 31.257 75.8787 31.257H75.9019Z" fill="#005CA9"/>
<path id="Vector_11" d="M102.876 29.2168V21.6503H100.355V29.1468H98.0645V21.6503H95.5429V29.1468H93.1832V21.6503H90.627V31.1288H101.477H102.182V32.3996H104.623V29.2168H102.876Z" fill="#005CA9"/>
<path id="Vector_12" d="M105.56 21.6503H108.127V26.6052H108.208L112.28 21.6503H113.772V31.1288H111.193V26.1505H111.135L107.04 31.1288H105.56V21.6503Z" fill="#005CA9"/>
<path id="Vector_13" d="M133.101 21.6503H135.726V26.6052H135.807L139.971 21.6503H141.487V31.1288H138.849V26.1505H138.792L134.616 31.1288H133.101V21.6503Z" fill="#005CA9"/>
<path id="Vector_14" d="M152.695 21.6503H155.298V26.6052H155.379L159.497 21.6503H161V31.1288H158.398V26.1505H158.328L154.199 31.1288H152.695V21.6503Z" fill="#005CA9"/>
<path id="Vector_15" d="M115.067 23.7021V21.6385H122.204V23.7021H119.879V31.1054H117.381V23.7021H115.067Z" fill="#005CA9"/>
<path id="Vector_16" d="M123.5 31.1288V21.6503H125.998V25.3577H129.307V21.6503H131.793V31.1288H129.307V27.4213H125.998V31.1288H123.5Z" fill="#005CA9"/>
<path id="Vector_17" d="M148.543 31.1288L145.686 27.3047H145.315V31.1288H142.782V21.6503H145.315V25.2295H145.639L148.323 21.6503H151.527L147.964 26.2088L151.723 31.1288H148.531H148.543Z" fill="#005CA9"/>
<path id="Vector_18" d="M87.3648 31.0005H89.7476L85.5256 21.5336H83.9641L79.7422 31.0005H82.1018L82.9115 29.1817H86.532L87.3417 31.0005H87.3648ZM83.7906 27.2697L84.7044 25.2411H84.7854L85.6991 27.2697H83.8022H83.7906Z" fill="#005CA9"/>
<path id="Vector_19" d="M15.0714 31.1171H15.1408C15.6729 31.0821 16.1587 31.0588 16.5866 31.0239C16.8874 31.0005 18.0556 30.8606 18.5993 31.2104L18.9232 32.248L18.7728 31.7584L17.9053 29.0186C17.9053 29.0186 17.4426 29.1235 16.8411 29.2634C15.3027 29.6481 13.7527 30.1728 12.3994 30.8956C13.0819 31.0472 13.9609 31.1638 15.0714 31.1055V31.1171Z" fill="black"/>
<path id="Vector_20" d="M16.749 33.5305C16.3211 33.5538 15.8237 33.5888 15.2569 33.6237H15.1759C14.9446 33.6354 14.7133 33.647 14.4819 33.647C12.3536 33.647 10.8615 33.1457 10.0402 32.761C9.87828 33.0175 9.75104 33.2973 9.70477 33.5771C9.69321 33.6704 9.68164 33.7403 9.68164 33.8103V33.8452C9.72791 33.9735 9.76261 34.1017 9.80888 34.2067C9.91298 34.4865 10.0286 34.8362 10.0518 34.8596C10.1675 35.0344 10.3063 35.1977 10.7805 35.4541C11.2663 35.7106 11.9372 35.8855 12.851 36.0604C13.5219 36.1886 14.3662 36.3635 15.28 36.3169H15.3263C15.5345 36.3169 15.7311 36.2936 15.9278 36.2819H16.0319C17.4546 36.1886 18.3221 36.1304 18.9352 36.142C19.0393 36.142 19.1203 36.142 19.2128 36.1537H19.2591C19.34 36.1537 19.421 36.177 19.4904 36.1886H19.502C19.5829 36.212 19.6523 36.2236 19.7217 36.2469C19.7796 36.2703 19.849 36.2936 19.9068 36.3286C19.9184 36.3286 19.9415 36.3402 19.9531 36.3519C19.9993 36.3752 20.0456 36.3985 20.0919 36.4335C20.1034 36.4335 20.1266 36.4568 20.1381 36.4685C20.196 36.5034 20.2538 36.5501 20.3001 36.5967L19.3632 33.647C19.1202 33.4489 18.993 33.4139 16.749 33.5421V33.5305Z" fill="black"/>
<path id="Vector_21" d="M9.68164 34.0551C9.68164 34.0551 9.69321 34.1717 9.70477 34.23C9.73948 34.23 9.77418 34.2067 9.80888 34.195C9.77418 34.0901 9.72791 33.9619 9.68164 33.8336V34.0435V34.0551Z" fill="black"/>
<path id="Vector_22" d="M9.71582 34.2766C9.71582 34.2766 9.72739 34.3349 9.73895 34.3582C9.76209 34.4515 9.78522 34.5331 9.83149 34.6147C10.0397 35.0228 10.5024 35.3492 10.7453 35.4775C11.1964 35.7106 11.821 35.9555 12.6307 36.1304C12.6885 36.107 12.7579 36.0837 12.8158 36.0487H12.8389C11.9135 35.8855 11.2542 35.7106 10.7684 35.4541C10.2942 35.2093 10.1554 35.0344 10.0397 34.8596C10.0281 34.8362 9.90089 34.4865 9.80836 34.2067C9.77365 34.2067 9.75052 34.23 9.71582 34.2416C9.71582 34.2533 9.71582 34.2766 9.71582 34.2883V34.2766Z" fill="black"/>
<path id="Vector_23" d="M9.71664 34.2416C9.71664 34.2416 9.78605 34.2183 9.80918 34.2067C9.77448 34.2067 9.75135 34.23 9.70508 34.2416H9.71664Z" fill="black"/>
<path id="Vector_24" d="M20.0918 36.4218C20.0918 36.4218 20.1265 36.4451 20.1381 36.4568C20.1265 36.4568 20.1034 36.4335 20.0918 36.4218Z" fill="#DE5A13"/>
<path id="Vector_25" d="M19.9062 36.3286C19.9062 36.3286 19.941 36.3402 19.9525 36.3519C19.941 36.3519 19.9178 36.3402 19.9062 36.3286Z" fill="#DE5A13"/>
<path id="Vector_26" d="M15.2801 36.3053C14.3664 36.3519 13.522 36.177 12.8511 36.0488C12.7933 36.0721 12.7239 36.0954 12.666 36.1304C13.3947 36.2703 14.2623 36.3636 15.2801 36.3053Z" fill="black"/>
<path id="Vector_27" d="M12.6309 36.1187H12.654C12.7118 36.0954 12.7812 36.0721 12.8391 36.0488H12.8159C12.7581 36.0721 12.6887 36.0954 12.6309 36.1187Z" fill="black"/>
<path id="Vector_28" d="M8.87172 31.6418C6.76654 32.353 3.99047 33.1574 0.80957 33.4489L1.60769 36.0255C4.74232 35.7457 7.51839 34.9878 9.69297 34.2417C9.58887 33.9036 9.27656 32.9242 8.87172 31.6418Z" fill="#FBBB30"/>
<path id="Vector_29" d="M9.71649 34.2417C9.71649 34.1834 9.69336 34.1251 9.69336 34.0668C9.69336 34.1367 9.70493 34.195 9.71649 34.2417Z" fill="black"/>
<path id="Vector_30" d="M15.9273 36.2703C15.7422 36.2703 15.5456 36.2936 15.3258 36.3053H15.2796C14.2617 36.3519 13.3942 36.2703 12.6654 36.1304H12.6423C10.1901 37.1214 6.5928 38.194 2.42871 38.5554L3.2384 41.097C3.5854 41.062 3.94398 41.0387 4.27942 41.0037C4.42979 40.9921 4.58016 40.9687 4.7421 40.9454C4.92717 40.9221 5.11224 40.8988 5.28574 40.8755C5.49395 40.8522 5.70215 40.8172 5.89879 40.7822C6.01446 40.7705 6.11856 40.7472 6.23423 40.7356C6.47713 40.6889 6.72004 40.654 6.96294 40.6073C7.02078 40.6073 7.06705 40.584 7.12488 40.5723C7.40249 40.514 7.68009 40.4674 7.94613 40.4091H7.9577C8.81365 40.2226 9.64647 40.0244 10.4215 39.8145C10.6181 39.7562 10.8147 39.6979 11.0114 39.6396C11.0923 39.6163 11.1733 39.593 11.2543 39.5697C11.4972 39.4997 11.7285 39.4298 11.9599 39.3482C12.0061 39.3365 12.0524 39.3132 12.0987 39.3015C12.2953 39.2432 12.4804 39.1733 12.6654 39.1033C12.7695 39.0684 12.8852 39.0217 12.9893 38.9868C13.105 38.9401 13.2322 38.8935 13.3363 38.8585C13.533 38.7769 13.7296 38.707 13.9147 38.6253C13.9378 38.6253 13.9725 38.602 13.9956 38.5904C14.9788 38.194 15.7885 37.7976 16.39 37.4361C17.1071 37.0048 17.7086 36.5617 18.1482 36.1187C17.6161 36.142 16.9336 36.1887 16.0314 36.247H15.9157L15.9273 36.2703Z" fill="#FBBB30"/>
<path id="Vector_31" d="M18.5996 31.2221C18.0559 30.8607 16.8992 31.0122 16.5869 31.0239C16.1589 31.0472 15.6731 31.0822 15.1411 31.1055H15.0716C13.9728 31.1638 13.0821 31.0589 12.3997 30.8956C11.8445 31.1871 11.3124 31.5252 10.8266 31.8983C10.5374 32.1315 10.2598 32.4229 10.04 32.7494C10.8613 33.1341 12.3419 33.6354 14.4817 33.6354C14.7015 33.6354 14.9328 33.6354 15.1758 33.6238H15.2567C15.8235 33.5888 16.3093 33.5655 16.7489 33.5305C19.0044 33.3906 19.1201 33.4372 19.363 33.6354L18.9234 32.2597L18.5996 31.2221Z" fill="#DE5A13"/>
<path id="Vector_32" d="M7.99248 24.53C8.70963 23.8654 9.53088 23.3175 10.4215 22.9094C13.3364 21.5686 16.4595 20.8808 19.6057 20.496C21.8497 20.2162 24.244 20.1113 26.5111 20.018L23.1336 17.5347C21.6877 17.6047 20.2419 17.698 18.8191 17.8728C15.6729 18.2576 12.5498 18.9454 9.63498 20.2862C8.74433 20.6942 7.93465 21.2422 7.20593 21.9067C6.72012 22.3498 6.43095 23.0726 6.30371 23.504C6.54662 24.2618 6.82422 25.1362 7.1134 26.0573C7.2522 25.6259 7.52981 24.9613 8.00405 24.5416L7.99248 24.53Z" fill="#FBBB30"/>
<path id="Vector_33" d="M29.8428 22.478C29.1256 22.5013 28.235 22.6179 27.5063 22.6529C25.1697 22.7462 22.8217 22.8394 20.5198 23.1193C17.3736 23.504 14.2506 24.1919 11.3357 25.5326C10.445 25.9407 9.63536 26.4886 8.90665 27.1532C8.38614 27.6312 8.09696 28.4123 7.96973 28.8204L8.02756 29.0069C8.27047 29.7647 8.50181 30.5109 8.72158 31.1871C8.72158 31.1521 8.75628 31.1055 8.76784 31.0705C8.92978 30.6508 9.18425 30.1261 9.57753 29.7647C10.2947 29.1002 11.1159 28.5522 12.0066 28.1442C14.9214 26.8034 18.0445 26.1155 21.1907 25.7308C23.4925 25.451 25.8522 25.3577 28.1887 25.2645C28.5936 25.2411 28.9868 25.2295 29.3917 25.2178L30.1898 22.6995L29.8543 22.478H29.8428Z" fill="#FBBB30"/>
<path id="Vector_34" d="M20.1379 36.4568C20.1379 36.4568 20.1032 36.4335 20.0916 36.4218C20.0453 36.3869 19.9991 36.3635 19.9528 36.3402C19.9412 36.3402 19.9181 36.3286 19.9065 36.3169C19.8487 36.2936 19.7909 36.2586 19.7214 36.2353C19.652 36.212 19.5826 36.1887 19.5017 36.177H19.4901C19.4207 36.1653 19.3397 36.1537 19.2588 36.142H19.2241C19.1315 36.142 19.0506 36.1304 18.9465 36.1187C18.7267 36.1187 18.4722 36.1187 18.1715 36.1187C17.7319 36.5617 17.1305 37.0048 16.4133 37.4361C15.8118 37.7976 15.0021 38.194 14.019 38.5904C13.9958 38.5904 13.9727 38.6137 13.938 38.6253C13.7529 38.707 13.5563 38.7769 13.3596 38.8585C13.244 38.8935 13.1283 38.9401 13.0126 38.9868C12.9085 39.0217 12.7929 39.0684 12.6888 39.1033C12.5037 39.1733 12.3071 39.2316 12.122 39.3015C12.0757 39.3132 12.0179 39.3365 11.9832 39.3482C11.7518 39.4298 11.5205 39.4997 11.2776 39.5697C11.1966 39.593 11.1157 39.6163 11.0347 39.6396C10.8496 39.6863 10.6877 39.7446 10.5026 39.7912C10.491 39.7912 10.4679 39.7912 10.4448 39.8029C9.66979 40.0127 8.84854 40.2109 7.98102 40.3975H7.96946C7.69185 40.4558 7.42581 40.5141 7.1482 40.5607C7.09037 40.5607 7.0441 40.584 6.98627 40.5957C6.74336 40.6423 6.50046 40.6773 6.25755 40.7239C6.15345 40.7356 6.03778 40.7589 5.92211 40.7705C5.71391 40.8055 5.51727 40.8288 5.30906 40.8638C5.12399 40.8871 4.95049 40.9104 4.76542 40.9338C4.61505 40.9571 4.46468 40.9687 4.30274 40.9921C3.95573 41.027 3.60873 41.062 3.26172 41.097L4.0714 43.6502C10.4101 43.1606 15.835 41.1903 18.0211 39.7096C19.5364 38.6836 20.6815 37.8442 20.3345 36.5851C20.2767 36.5384 20.2188 36.5035 20.1726 36.4568H20.1379Z" fill="black"/>
<path id="Vector_35" d="M6.29227 23.504C6.41951 23.0842 6.70868 22.3614 7.19449 21.9067C7.91164 21.2422 8.73289 20.6942 9.62355 20.2862C12.5384 18.9454 15.6615 18.2575 18.8077 17.8728C20.2304 17.6979 21.6763 17.6046 23.1221 17.5347L19.7909 15.0747C18.8077 15.133 18.1021 15.1913 17.6626 15.2496C16.2861 15.4245 14.9212 15.6576 13.591 15.9608C12.2608 16.2639 10.9422 16.6603 9.69295 17.1849C8.42059 17.7329 7.20606 18.5024 6.1766 19.4467C5.48259 20.0763 5.47102 20.9157 5.48259 20.9507C5.48259 20.9507 5.81803 22 6.29227 23.4923V23.504Z" fill="black"/>
<path id="Vector_36" d="M21.1905 25.7424C18.0442 26.1272 14.9212 26.815 12.0063 28.1558C11.1157 28.5638 10.306 29.1118 9.57726 29.7763C9.18398 30.1378 8.92951 30.6624 8.76758 31.0821C8.75601 31.1171 8.73287 31.1637 8.72131 31.1987C8.5131 30.5225 8.2702 29.788 8.02729 29.0185C5.96838 29.6947 3.31956 30.3476 -0.0117188 30.9072L0.797966 33.4488C3.97887 33.1457 6.75493 32.3529 8.86011 31.6417C9.26495 32.9242 9.57726 33.9035 9.68136 34.2416C7.49521 34.9878 4.73072 35.7456 1.59608 36.0254L2.40577 38.5553C6.56986 38.1939 10.1672 37.133 12.6194 36.1303C11.8097 35.9671 11.1851 35.7223 10.734 35.4774C10.491 35.3492 10.0284 35.0228 9.82017 34.6147C9.7739 34.5331 9.75076 34.4398 9.72763 34.3582C9.72763 34.3465 9.72763 34.3116 9.7045 34.2766C9.7045 34.2649 9.7045 34.2416 9.7045 34.23C9.7045 34.1833 9.69293 34.125 9.68136 34.0551V33.8102C9.68136 33.7286 9.68136 33.6587 9.7045 33.5654C9.75076 33.2856 9.878 33.0058 10.0399 32.7493C10.2481 32.4229 10.5257 32.1314 10.8265 31.8982C11.3007 31.5251 11.8328 31.1987 12.3996 30.8956C13.7645 30.1727 15.3029 29.6481 16.8413 29.2634C18.611 28.8203 20.3692 28.5522 21.7804 28.354C24.2788 28.0042 28.3272 27.9226 28.5239 27.8876L29.3683 25.2178C28.9634 25.2294 28.5701 25.2411 28.1653 25.2644C25.8288 25.3577 23.4807 25.4509 21.1789 25.7308L21.1905 25.7424Z" fill="black"/>
<path id="Vector_37" d="M10.4222 22.9094C9.53159 23.3174 8.72191 23.8654 7.99319 24.5299C7.53052 24.9496 7.24134 25.6142 7.10254 26.0456C7.39171 26.9549 7.69245 27.8993 7.98163 28.8203C8.09729 28.4123 8.39803 27.6195 8.91855 27.1531C9.6357 26.4886 10.4569 25.9406 11.3476 25.5326C14.2625 24.1918 17.3855 23.504 20.5317 23.1192C22.8336 22.8394 25.1932 22.7461 27.5297 22.6529C28.2469 22.6179 29.1375 22.513 29.8662 22.478L26.5234 20.018C24.2563 20.1113 21.8619 20.2162 19.6179 20.496C16.4717 20.8808 13.3487 21.5686 10.4338 22.9094H10.4222Z" fill="black"/>
<path id="Vector_38" d="M30.9989 22.478L27.552 33.3673L37.3029 26.3604L47.0885 33.3789L43.63 22.478L53.6932 15.0747L41.1315 14.5967L37.3145 2.5766L33.4974 14.5967L20.9473 15.0631L30.9989 22.478Z" fill="#E30613"/>
<path id="Vector_39" d="M59.2111 7.34499H59.2574C62.5887 5.86434 65.7002 5.17647 71.8538 4.24377L70.512 0C64.1734 0.489666 58.7485 2.45999 56.5623 3.94065C55.0471 4.96661 53.9019 5.80604 54.2489 7.06518C55.0008 7.70641 55.6138 7.54319 59.2227 7.34499H59.2111Z" fill="#F2EFF0"/>
<path id="Vector_40" d="M64.9602 9.92157C64.8792 9.66508 64.8098 9.46688 64.752 9.292C64.6595 9.01219 64.5091 8.82565 64.4628 8.7557C64.3934 8.65077 64.2199 8.42925 63.7457 8.19608C62.8897 7.75305 61.386 7.25172 59.2115 7.36831H59.1652C55.5679 7.56651 54.9548 7.72973 54.1914 7.0885L55.5563 11.4022C55.5563 11.4022 55.6257 11.4022 55.672 11.4139C55.7298 11.4139 55.7992 11.4372 55.8686 11.4372C56.6899 11.5305 57.4186 11.4722 58.5174 11.4605H58.795C60.0443 11.4605 60.8424 11.4605 61.4207 11.4955C61.5711 11.4955 61.7099 11.5072 61.8371 11.5188C62.4733 11.5654 62.8088 11.6354 63.3524 11.7054C63.4681 11.717 63.5722 11.7403 63.6763 11.752C64.3125 11.2273 64.5901 10.761 64.7173 10.3879C64.7173 10.3879 64.7173 10.3763 64.7173 10.3646C64.752 10.2713 64.7636 10.1781 64.7867 10.0848C64.8561 9.66508 64.7867 9.37361 64.752 9.292C64.7636 9.33863 64.833 9.51351 64.9602 9.92157Z" fill="#C6C6C6"/>
<path id="Vector_41" d="M63.3292 11.6937C62.774 11.6121 62.4501 11.5422 61.814 11.4955C61.6867 11.4955 61.5479 11.4839 61.3976 11.4722C60.8192 11.4489 60.0211 11.4256 58.7719 11.4372H58.4943C57.3954 11.4489 57.1409 11.4955 56.0999 11.4372C55.9033 11.4372 55.5794 11.309 55.4521 11.0991L55.6951 11.8803L56.5857 14.6667C56.5857 14.6667 56.6782 14.6434 56.7014 14.6434C56.8402 14.6084 56.979 14.5851 57.1178 14.5501C57.4995 14.4568 57.8696 14.3636 58.2166 14.2703C58.5868 14.1654 58.9338 14.0721 59.2692 13.9672H59.2808C59.8476 13.7923 60.3565 13.5941 60.7961 13.3959C62.1725 12.7896 63.0632 12.23 63.6531 11.752C63.5606 11.7403 63.4565 11.717 63.3292 11.6937Z" fill="#183E75"/>
<path id="Vector_42" d="M65.7465 12.4515C65.5614 11.8453 65.4226 11.3672 65.2954 10.9592C65.2029 10.6677 65.1219 10.4345 65.0641 10.2363C65.0409 10.1547 65.0178 10.0731 64.9947 10.0032L64.96 9.90991C64.8211 9.50185 64.7749 9.32697 64.7517 9.28033C64.7749 9.36195 64.8558 9.66507 64.7864 10.0731C64.7749 10.1664 64.7517 10.248 64.717 10.3529C64.717 10.3529 64.717 10.3646 64.717 10.3763C64.5898 10.761 64.3122 11.2157 63.676 11.752C63.0861 12.2416 62.1955 12.7896 60.819 13.4075C60.3795 13.6057 59.8705 13.7923 59.3037 13.9671H59.2922C58.9567 14.0721 58.6097 14.177 58.2396 14.2703C57.881 14.3635 57.5224 14.4568 57.1407 14.5501C57.0019 14.5851 56.8631 14.6084 56.7243 14.6433C56.7012 14.6433 56.6896 14.6433 56.6665 14.655C56.6433 14.655 56.6202 14.655 56.5971 14.6667C55.9493 14.8066 54.8736 15.0864 54.8736 15.0864L47.9219 20.1929C47.9219 20.1929 52.7221 19.9364 54.0986 19.7615C55.4751 19.5866 56.84 19.3535 58.1702 19.0503C58.4478 18.992 58.7369 18.9104 59.0261 18.8405C59.0261 18.8405 59.0493 18.8405 59.0608 18.8405C59.0724 18.8405 59.0955 18.8405 59.0955 18.8405C59.2459 18.7938 59.4078 18.7472 59.5698 18.7006C60.4373 18.4557 61.2932 18.1643 62.0567 17.8378C63.3059 17.3015 64.6708 16.567 65.573 15.576C65.8043 15.3195 65.9663 15.0048 66.0819 14.725C66.2207 14.3869 66.2786 14.107 66.267 14.0604L66.4174 14.5268C66.1745 13.734 65.9431 13.0461 65.7581 12.4632L65.7465 12.4515Z" fill="#E6E6E6"/>
<path id="Vector_43" d="M65.7467 12.4515C65.9318 13.0228 66.1632 13.7223 66.4061 14.5151L66.4292 14.5967C68.4997 13.9205 71.1369 13.256 74.4798 12.6964L73.1264 8.44092C69.6217 9.0122 67.0075 9.63011 65.0527 10.248C65.1221 10.4462 65.1915 10.6794 65.2841 10.9709C65.4113 11.3673 65.5501 11.8569 65.7352 12.4632" fill="#E30613"/>
<path id="Vector_44" d="M63.7335 8.18442C64.2077 8.42925 64.4159 8.70906 64.4853 8.81399C64.5663 8.93058 64.7629 9.32697 64.948 9.92157L64.9827 10.0148C65.0058 10.0848 65.0289 10.1547 65.0521 10.248C67.0069 9.64176 69.621 9.02385 73.1258 8.44091L71.8534 4.24377H71.7956C65.642 5.18813 62.5305 5.87599 59.1992 7.35665C61.3738 7.24006 62.8775 7.74139 63.7335 8.18442Z" fill="#005CA9"/>
<path id="Vector_45" d="M67.1002 16.7419C66.9151 16.1357 66.7763 15.6576 66.6491 15.2496C66.5565 14.9581 66.4756 14.725 66.4177 14.5268C66.3946 14.4451 66.3715 14.3635 66.3483 14.2936L66.3136 14.2003C66.1748 13.7923 66.1286 13.6174 66.1054 13.5707C66.1286 13.6524 66.2095 13.9555 66.1401 14.3635C66.1286 14.4568 66.1054 14.5384 66.0707 14.6433C66.0707 14.6433 66.0707 14.655 66.0707 14.6667C65.9435 15.0514 65.6659 15.5061 65.0297 16.0424C64.4398 16.5321 63.5491 17.08 62.1727 17.6979C61.7331 17.8961 61.2242 18.0827 60.6574 18.2575H60.6458C59.5817 18.5956 58.7836 18.8755 57.4418 19.1086C53.6941 19.7732 48.755 20.0064 48.2114 20.0646C48.2114 20.0646 48.0726 20.0996 48.0842 20.0763L44.4521 22.7462L45.0768 24.7165C45.0768 24.7165 54.0874 24.2151 55.4523 24.0403C56.8288 23.8654 58.1937 23.6322 59.5238 23.3291C60.854 23.026 62.1727 22.6296 63.4219 22.1049C64.6943 21.557 66.0013 20.8808 66.9382 19.8431C67.1696 19.5866 67.3315 19.2719 67.4472 18.992C67.586 18.6539 67.6438 18.3741 67.6323 18.3275L67.7826 18.7938C67.5397 18.0011 67.3084 17.3132 67.1233 16.7303L67.1002 16.7419Z" fill="#005CA9"/>
<path id="Vector_46" d="M68.4876 21.1023C68.3025 20.496 68.1637 20.018 68.0365 19.6099C67.944 19.3185 67.863 19.0853 67.8052 18.8871C67.782 18.8055 67.7589 18.7239 67.7358 18.6539L67.7011 18.5607C67.5623 18.1526 67.516 17.9777 67.4929 17.9311C67.8167 18.9104 66.9955 19.8081 66.3477 20.3911C65.781 20.9041 64.925 21.4287 63.5485 22.0466C63.109 22.2448 62.6001 22.4314 62.0333 22.6062H62.0217C60.9576 22.9443 60.1594 23.2241 58.8177 23.469C55.07 24.1335 50.8828 24.3667 50.3276 24.425C50.3276 24.425 45.8049 24.6931 45.0762 24.7398L45.8627 27.2231L46.4295 29.0069C46.4295 29.0069 54.9659 28.6688 56.8397 28.4239C58.2162 28.2374 59.5811 28.0159 60.9113 27.7128C62.2415 27.4096 63.5601 27.0132 64.8093 26.4886C66.0817 25.9406 67.3888 25.2644 68.3257 24.2268C68.557 23.9703 68.719 23.6555 68.8346 23.3874C68.9734 23.0493 69.0313 22.7695 69.0197 22.7228C69.0197 22.7228 68.6958 21.6969 68.5108 21.1256" fill="#E30613"/>
</g>
<defs>
<clipPath id="clip0_884_22259">
<rect width="161" height="44" fill="white"/>
</clipPath>
</defs>
</svg>
