<svg width="154" height="44" viewBox="0 0 154 44" fill="none" xmlns="http://www.w3.org/2000/svg">
<g id="Layer_1" clip-path="url(#clip0_884_22184)">
<path id="Vector" d="M31.8735 0C32.4491 0.121249 33.0381 0.242498 33.6137 0.37722C35.1532 0.740968 36.5454 1.42805 37.8573 2.34415C39.8118 3.71831 41.2441 5.5101 42.1812 7.69259C42.6765 8.82425 43.0513 10.0233 43.1049 11.2762C43.1718 12.8928 43.1986 14.5095 43.1986 16.1127C43.1986 21.1243 43.1986 26.1359 43.1986 31.1476C43.1986 32.9529 42.8104 34.6638 42.0875 36.3074C41.5119 37.6142 40.7087 38.7593 39.7448 39.8236C38.3392 41.3595 36.6659 42.4507 34.7382 43.1513C33.5468 43.5824 32.3152 43.8653 31.0301 43.8653C27.4826 43.8653 23.9352 43.8653 20.3877 43.8653H19.8389C19.7452 43.3129 20.2405 43.2186 20.4948 43.0031C21.472 42.1408 22.4894 41.3325 23.4934 40.4972C24.3234 39.8102 25.1534 39.1366 25.9967 38.4495C26.9606 37.6681 27.9244 36.8867 28.8882 36.0919C30.1198 35.0814 31.3514 34.071 32.5696 33.0472C32.6767 32.9663 32.7971 32.8181 32.7971 32.7104C32.8105 31.1745 32.7971 29.6252 32.7971 28.049H18.6073C18.7412 27.8065 18.7947 27.6044 18.9286 27.4966C19.705 26.8365 20.4814 26.1898 21.2712 25.5432C22.1815 24.7887 23.1052 24.0478 24.0155 23.3068C25.0864 22.4311 26.144 21.5419 27.2015 20.6663C28.1118 19.9118 29.0355 19.1843 29.9592 18.4434C30.749 17.8102 31.5388 17.1635 32.3152 16.5303C32.6097 16.2878 32.8239 16.0184 32.8105 15.5603C32.7704 14.1592 32.7971 12.7581 32.7971 11.3166H10.9903V15.8163H24.4573C24.6447 16.436 24.0958 16.5573 23.8415 16.7863C22.5564 17.891 21.2311 18.9553 19.9192 20.0196C18.8884 20.8549 17.8309 21.6767 16.8001 22.5119C15.8898 23.2529 15.0063 24.0074 14.1094 24.7483C12.9983 25.6644 11.8738 26.5671 10.7627 27.4697C10.5485 27.6448 10.4147 27.8469 10.4147 28.1702C10.4414 29.6118 10.4147 31.0667 10.4147 32.5622H24.4573C24.6715 33.1953 24.1092 33.3031 23.8549 33.5322C22.5564 34.6503 21.2177 35.7146 19.8924 36.8059C18.8616 37.6412 17.8041 38.463 16.7733 39.2982C15.8764 40.0257 14.9929 40.7667 14.1094 41.5077C13.2393 42.2217 12.3959 42.9626 11.499 43.6363C11.2982 43.7844 10.8966 43.7306 10.6155 43.6767C8.56731 43.2994 6.66641 42.5315 5.03324 41.2517C2.87799 39.5542 1.32514 37.4121 0.54871 34.7177C0.160497 33.357 -0.000142613 32.0233 -0.000142613 30.6356C-0.000142613 24.4654 -0.0269159 18.2952 0.0266307 12.1249C0.0400173 10.0233 0.722737 8.05634 1.7669 6.22413C2.44961 5.02511 3.31975 4.00122 4.35052 3.09859C5.9703 1.69749 7.84443 0.740968 9.94614 0.282915C10.4013 0.18861 10.8698 0.094305 11.3383 0H31.8735Z" fill="black"/>
<path id="Vector_2" d="M63.185 0C63.707 0.202082 64.2693 0.350276 64.7378 0.63319C65.7017 1.21249 66.2639 2.10165 66.371 3.23331C66.4647 4.31108 66.4379 5.38885 65.7686 6.34538C65.0323 7.38273 64.0149 7.90814 62.77 7.94856C61.5116 7.98898 60.2533 7.94856 58.9548 7.94856V12.9198H57.1074V0H63.185ZM58.9414 1.93999V6.11635C60.1194 6.11635 61.2305 6.14329 62.3416 6.11635C62.944 6.08941 63.5464 5.95468 64.0149 5.52358C64.6977 4.90386 64.8583 4.06859 64.537 3.1929C64.2559 2.42498 63.5732 2.00735 62.7834 1.96693C61.525 1.89957 60.2667 1.95346 58.9548 1.95346" fill="black"/>
<path id="Vector_3" d="M154 10.2792C153.746 10.8585 153.612 11.4917 153.116 11.9633C152.474 12.583 151.724 12.9467 150.867 13.0276C149.743 13.1353 148.645 13.0006 147.708 12.2327C146.945 11.613 146.463 10.8316 146.262 9.8616C146.022 8.703 145.981 7.53092 146.262 6.38579C146.704 4.63441 148.404 3.3815 150.265 3.40845C151.845 3.43539 153.304 4.4458 153.732 6.00857C153.839 6.39926 153.893 6.8169 153.987 7.22106V8.703H147.748C147.708 9.7673 148.511 11.0606 149.596 11.384C150.171 11.5456 150.707 11.4917 151.229 11.2896C151.831 11.0606 152.099 10.5083 152.3 9.91549H153.987V10.2792H154ZM152.126 7.01898C152.233 6.11635 151.403 5.18677 150.412 5.07899C149.181 4.95774 148.07 5.83343 147.909 7.01898H152.126Z" fill="black"/>
<path id="Vector_4" d="M114.122 0C114.041 0.767912 114.108 1.60318 113.399 2.1286C113.024 2.39804 112.542 2.54623 112.087 2.66748C111.471 2.84262 110.828 2.74832 110.226 2.55971C109.289 2.27679 108.794 1.53582 108.78 0.552358C108.78 0.363748 108.78 0.18861 108.78 0H110.253C110.226 1.05083 110.989 1.67054 111.873 1.29333C112.421 1.0643 112.542 0.525413 112.649 0H114.122Z" fill="black"/>
<path id="Vector_5" d="M64.6577 37.1696C65.0192 37.5468 65.4743 37.951 65.8358 38.436C66.3712 39.15 66.2775 39.9988 66.157 40.8206C65.8759 42.6393 64.6042 43.5015 62.9576 43.8249C61.378 44.1347 59.785 44.1078 58.3125 43.3129C57.2014 42.7202 56.5187 41.804 56.2911 40.5511C56.2242 40.1739 56.2108 39.7967 56.1572 39.3791H58.6873C58.8479 39.7293 58.9952 40.0931 59.1692 40.4568C59.4236 40.9553 59.8519 41.2247 60.3606 41.3595C61.2174 41.575 62.0741 41.5885 62.8907 41.1978C63.3459 40.9688 63.627 40.5511 63.6404 40.0257C63.6404 39.5273 63.4396 39.0692 62.9576 38.8806C62.4891 38.7055 61.9804 38.5707 61.4851 38.5168C60.9363 38.4495 60.3874 38.5034 59.8118 38.5034V35.9302C60.4945 35.9302 61.204 35.9437 61.9001 35.9302C62.4891 35.9167 62.9844 35.6877 63.2655 35.1219C63.6404 34.3944 63.4262 33.6669 62.6631 33.357C61.7261 32.9663 60.7756 32.899 59.8653 33.5052C59.2228 33.9363 59.022 34.6099 58.8881 35.3374H56.2643C56.3179 34.2731 56.5722 33.3031 57.2014 32.4544C58.1251 31.2015 59.3834 30.6491 60.9229 30.6491C62.0875 30.6491 63.2388 30.6222 64.2829 31.2149C65.4342 31.8616 66.1303 32.8047 66.1169 34.1923C66.1169 34.812 66.1838 35.4721 65.7822 35.9976C65.4342 36.4556 64.979 36.8328 64.6444 37.1831" fill="black"/>
<path id="Vector_6" d="M99.6768 43.771V34.4617H102.113V40.3491C102.113 40.3491 102.167 40.3625 102.207 40.376C102.287 40.2548 102.367 40.12 102.434 39.9988C103.291 38.2744 104.161 36.5634 105.005 34.8255C105.152 34.5022 105.326 34.4213 105.661 34.4213C106.598 34.4348 107.521 34.4213 108.485 34.4213V43.7171H106.049V37.8163C106.049 37.8163 105.982 37.8163 105.955 37.8028C105.366 38.9749 104.777 40.147 104.188 41.3191C103.84 42.0061 103.492 42.7067 103.171 43.4072C103.05 43.6632 102.903 43.771 102.622 43.7575C101.658 43.744 100.694 43.7575 99.7035 43.7575" fill="black"/>
<path id="Vector_7" d="M89.5028 26.7557H90.9753V30.7838H89.543V28.3184H77.2139V19.1035H78.8203V26.7287H82.5284V19.09H84.1615V26.7153H87.8562V19.1035H89.5028V26.7557Z" fill="black"/>
<path id="Vector_8" d="M84.5497 35.2566C84.5497 34.9871 84.5765 34.7851 84.5765 34.556H87.0931V43.744H84.5765C84.5631 43.4611 84.5497 43.1782 84.5363 42.8683C82.9835 44.5793 80.2793 44.1886 79.021 42.4642C78.432 41.6559 78.1643 40.7667 78.0839 39.7698C77.9902 38.5168 78.1241 37.3313 78.6997 36.1996C79.7305 34.1923 82.207 33.7612 83.7866 34.7177C84.0276 34.8659 84.2552 35.0545 84.5363 35.2566M84.4961 39.0692C84.4426 38.7863 84.389 38.3686 84.2686 37.9645C84.041 37.1831 83.5055 36.6846 82.7023 36.5634C82.0196 36.4556 81.4975 36.8463 81.0959 37.3717C80.1187 38.665 80.3731 40.2817 81.4172 41.3325C81.9393 41.8579 82.7559 41.8849 83.3717 41.4807C84.2016 40.9418 84.4024 40.12 84.4828 39.0557" fill="black"/>
<path id="Vector_9" d="M112.689 39.9584C112.997 41.0361 113.733 41.6828 114.643 41.6559C115.259 41.6424 115.794 41.4403 116.076 40.8071C116.129 40.6993 116.276 40.5646 116.383 40.5646C117.12 40.5377 117.856 40.5646 118.632 40.5646C118.512 41.3325 118.271 42.0061 117.776 42.5585C116.946 43.4746 115.902 43.8788 114.67 43.9057C113.572 43.9327 112.622 43.7036 111.765 42.9896C110.895 42.2621 110.386 41.3056 110.279 40.2278C110.172 39.1635 110.119 38.0723 110.507 37.008C111.123 35.3105 112.541 34.3001 114.322 34.2731C115.527 34.2731 116.611 34.5156 117.468 35.4048C118.231 36.1862 118.592 37.1427 118.619 38.2339C118.619 38.7998 118.619 39.3656 118.619 39.9853H112.689V39.9584ZM116.129 37.8432C116.102 36.8733 114.898 36.3883 114.228 36.4826C113.264 36.6173 112.582 37.2774 112.729 37.8432H116.129Z" fill="black"/>
<path id="Vector_10" d="M73.64 15.2909H75.1527C75.1393 15.9375 75.3133 16.5977 74.9385 17.1635C74.7779 17.4195 74.4833 17.6485 74.2022 17.7428C73.0777 18.12 71.8997 17.9179 70.7485 17.9314C69.0216 17.9449 68.4192 18.834 68.1648 20.1678C68.1381 20.3025 68.1247 20.4372 68.0979 20.545C68.5397 20.2621 68.968 19.9253 69.45 19.6828C71.7525 18.4972 74.5235 19.8579 75.0456 22.4042C75.3133 23.7244 75.2732 25.0582 74.6038 26.2707C73.8676 27.6044 72.7699 28.4127 71.1902 28.3993C70.4272 28.3993 69.6775 28.3723 68.9814 28.022C68.2853 27.6718 67.7231 27.1598 67.375 26.4728C66.9868 25.7183 66.7191 24.91 66.7057 24.0478C66.7057 23.4685 66.5852 22.8892 66.6254 22.3099C66.7191 21.03 66.7057 19.7367 67.1475 18.4838C67.5892 17.2848 68.4058 16.5438 69.6508 16.3956C70.6012 16.2743 71.5651 16.3013 72.5289 16.2878C73.4124 16.2743 73.5329 16.1935 73.64 15.2774M68.3255 23.7918C68.3121 24.6001 68.5397 25.3276 69.0082 25.9743C69.8382 27.1194 70.9359 27.2676 72.0336 26.6075C73.5061 25.7318 73.8542 23.6436 73.051 22.2021C72.3816 21.0031 71.0028 20.6393 69.8649 21.2051C68.8208 21.7306 68.4058 22.6736 68.3389 23.7918" fill="black"/>
<path id="Vector_11" d="M91.6183 37.8432H94.9516V34.4752H97.4148V43.744H94.9918V40.0931H91.6585V43.7306H89.2891V34.4617H91.6183V37.8432Z" fill="black"/>
<path id="Vector_12" d="M70.5206 37.8432H73.8539V34.4752H76.2234V43.744H73.8941V40.0931H70.5608V43.7306H68.0977V34.4617H70.5206V37.8432Z" fill="black"/>
<path id="Vector_13" d="M119.315 19.0766C120.962 19.0766 122.568 19.0361 124.175 19.0766C125.286 19.1035 126.143 19.7906 126.397 20.7067C126.718 21.8249 126.397 22.8622 125.487 23.5493C126.611 24.2229 127.026 25.2468 126.638 26.5401C126.37 27.4428 125.38 28.3319 124.188 28.3184C122.582 28.2915 120.975 28.3184 119.329 28.3184V19.0766H119.315ZM121.042 24.3846V26.85C121.939 26.85 122.809 26.8769 123.679 26.85C124.349 26.823 124.938 26.3111 124.978 25.7992C125.032 25.0717 124.764 24.6675 123.88 24.5462C122.957 24.425 122.006 24.4385 121.042 24.3981M121.042 22.8757C121.846 22.8757 122.595 22.9026 123.345 22.8622C123.666 22.8488 124.041 22.7679 124.268 22.5658C124.523 22.3368 124.764 21.9461 124.777 21.6093C124.791 21.1917 124.456 20.801 124.028 20.7471C123.037 20.6528 122.033 20.6393 121.042 20.5989V22.8757Z" fill="black"/>
<path id="Vector_14" d="M96.8389 3.62401H98.5256V10.4948C98.5256 10.4948 98.5925 10.5217 98.6327 10.5217C98.9673 9.94244 99.3154 9.37661 99.6501 8.79731C100.493 7.34232 101.337 5.9008 102.18 4.44581C102.314 4.21678 102.461 3.97428 102.622 3.75873C102.675 3.69137 102.796 3.62401 102.876 3.61053C103.532 3.61053 104.188 3.61053 104.871 3.61053V12.9063H103.171V6.18371L103.064 6.15677C102.595 6.93815 102.127 7.71954 101.671 8.51439C100.868 9.88855 100.052 11.2762 99.2619 12.6638C99.128 12.9063 98.9673 12.9602 98.713 12.9602C98.0972 12.9602 97.4948 12.9602 96.8389 12.9602V3.62401Z" fill="black"/>
<path id="Vector_15" d="M113.773 12.8254V6.02201C113.773 6.02201 113.72 5.99507 113.693 5.9816C113.465 6.37229 113.238 6.74951 113.01 7.1402C111.939 8.97241 110.882 10.7912 109.811 12.6234C109.744 12.7311 109.597 12.8524 109.476 12.8524C108.807 12.8793 108.138 12.8524 107.441 12.8524V3.65092H109.048V10.5621L109.155 10.5891C109.61 9.83463 110.065 9.08019 110.507 8.31228C111.364 6.84382 112.22 5.36188 113.091 3.89342C113.171 3.74522 113.412 3.62397 113.586 3.62397C114.215 3.59703 114.831 3.62397 115.487 3.62397V12.8389H113.787L113.773 12.8254Z" fill="black"/>
<path id="Vector_16" d="M99.9046 25.368C100.052 26.6479 99.3424 27.4697 98.4722 27.9951C97.0131 28.8843 95.4469 28.8573 93.9743 27.9412C92.9837 27.335 92.4215 26.365 92.2341 25.2603C92.0199 23.9265 91.9262 22.5658 92.4616 21.2456C93.0239 19.8445 94.2287 19.0092 95.728 18.9014C96.3036 18.861 96.906 18.9553 97.4816 19.0765C98.9943 19.4268 99.9716 21.1512 99.9314 22.4311C99.918 22.9835 99.9314 23.5358 99.9314 24.1421H93.8137C93.6263 24.7887 94.4429 26.2572 95.139 26.6209C96.1831 27.1868 97.0131 26.9847 97.7494 26.3919C97.9502 26.2302 98.0974 25.9608 98.1777 25.7183C98.2714 25.4489 98.3785 25.3546 98.6597 25.368C99.0746 25.395 99.4762 25.368 99.918 25.368M98.2179 22.485C98.1644 21.2725 97.2407 20.4911 96.2768 20.4372C95.0988 20.3833 94.0279 21.4207 93.9074 22.485H98.2179Z" fill="black"/>
<path id="Vector_17" d="M64.8316 23.6436C64.9387 25.0043 64.5237 26.1899 63.6803 27.2137C63.0646 27.9547 62.2346 28.3723 61.2975 28.4936C60.4542 28.5879 59.5706 28.6014 58.7942 28.1837C57.3886 27.4428 56.572 26.2842 56.3712 24.654C56.2374 23.5897 56.2909 22.5659 56.6657 21.5554C57.228 20.087 58.6202 18.9014 60.3471 18.8745C61.7125 18.8475 62.8905 19.2113 63.7874 20.2756C64.604 21.2456 64.9387 22.3907 64.8316 23.6302M58.0044 23.684C58.0446 24.425 58.1918 25.139 58.6068 25.7857C59.4368 27.1329 61.3243 27.3754 62.3818 26.0956C63.4662 24.7888 63.4528 22.1617 62.0606 21.0031C61.2038 20.2891 59.8652 20.2486 59.0486 21.0031C58.2721 21.7306 58.0446 22.6602 57.991 23.684" fill="black"/>
<path id="Vector_18" d="M144.549 8.19105C144.602 9.53826 144.187 10.7238 143.357 11.7342C142.742 12.4887 141.885 12.9063 140.934 13.0141C139.997 13.1218 139.06 13.068 138.204 12.556C136.985 11.842 136.303 10.7777 136.062 9.41701C135.874 8.39313 135.928 7.35577 136.236 6.34536C136.771 4.64787 138.471 3.43538 140.278 3.39497C142.233 3.34108 144.228 4.98468 144.428 6.96508C144.468 7.36925 144.509 7.78688 144.562 8.19105M137.695 8.08327C137.695 9.08021 137.909 9.90201 138.458 10.5891C139.368 11.7342 141.095 11.7612 142.005 10.7238C143.076 9.49784 143.143 7.248 142.126 5.92773C141.282 4.82301 139.703 4.68829 138.739 5.57745C137.976 6.29147 137.762 7.22105 137.708 8.08327" fill="black"/>
<path id="Vector_19" d="M67.3887 8.32575C67.3887 6.8977 67.7635 5.61785 68.7943 4.59397C69.5707 3.82606 70.5078 3.43537 71.6322 3.40842C72.8103 3.38148 73.8143 3.73175 74.6308 4.55355C75.5144 5.42924 75.916 6.54743 75.9561 7.78687C75.9829 8.67603 75.9294 9.55172 75.5947 10.387C75.0057 11.842 73.6269 13.041 71.9401 13.0545C70.9094 13.0545 69.9723 12.8928 69.1423 12.2461C68.232 11.5456 67.7367 10.616 67.5225 9.5113C67.4422 9.12061 67.4288 8.72992 67.3887 8.33922M74.2426 8.24492C74.2694 7.42312 74.0552 6.65521 73.5733 5.9816C73.0111 5.18674 71.9 4.80952 71.0432 5.09244C70.0928 5.4023 69.5439 6.0759 69.3163 7.01895C68.9683 8.47395 69.062 9.8481 70.2266 10.9259C71.1235 11.7477 72.6496 11.6534 73.4528 10.6834C74.0686 9.95588 74.2159 9.12061 74.2426 8.23145" fill="black"/>
<path id="Vector_20" d="M132.194 28.5205C130.078 28.6552 128.325 26.6075 128.204 24.4385C128.137 23.0912 128.258 21.8249 129.034 20.6797C130.132 19.0631 131.872 18.6185 133.639 19.0361C135.554 19.4942 136.625 21.4611 136.692 22.9969C136.745 24.1151 136.692 25.1794 136.169 26.2168C135.393 27.7795 134.148 28.5205 132.194 28.534M135.072 23.4146C134.924 22.9835 134.791 22.2425 134.443 21.6363C133.519 20.0196 131.35 20.1274 130.493 21.5285C129.69 22.8353 129.677 24.1555 130.306 25.5432C130.922 26.8904 132.595 27.4562 133.867 26.4593C134.75 25.7722 134.951 24.7483 135.072 23.4011" fill="black"/>
<path id="Vector_21" d="M130.547 8.64913C130.105 9.12066 129.663 9.55176 129.261 10.0098C129.168 10.1176 129.128 10.3197 129.128 10.4679C129.128 11.2762 129.128 12.098 129.128 12.9333H127.508V3.65097H129.114V7.94858C129.636 7.40969 130.078 6.96511 130.506 6.52053C131.417 5.59096 132.314 4.64791 133.224 3.71833C133.277 3.66444 133.385 3.62402 133.465 3.62402C134.054 3.62402 134.656 3.62402 135.259 3.62402C135.299 3.66444 135.326 3.70486 135.366 3.7318C135.219 3.94735 135.098 4.20333 134.924 4.37846C133.947 5.3754 132.956 6.35887 131.939 7.38275C132.903 8.79732 133.866 10.2119 134.83 11.613C135.004 11.869 135.192 12.1384 135.352 12.4079C135.433 12.556 135.459 12.7312 135.54 12.9467C134.884 12.9467 134.322 12.9602 133.759 12.9467C133.626 12.9467 133.478 12.7985 133.385 12.6773C132.447 11.357 131.524 10.0368 130.547 8.6626" fill="black"/>
<path id="Vector_22" d="M94.9645 6.84383C94.7236 6.84383 94.5362 6.84383 94.3487 6.84383C93.7463 6.84383 93.2109 6.96508 92.9298 6.11634C92.662 5.30801 91.8588 4.99815 90.9887 5.07898C90.065 5.17329 89.3957 5.65828 89.0075 6.48008C88.3649 7.84077 88.4586 9.20146 89.2484 10.4544C89.7839 11.3166 90.6808 11.7342 91.7517 11.4782C92.4478 11.3031 92.7825 10.7777 93.0235 10.1715C93.077 10.0367 93.1172 9.88854 93.1573 9.74034H94.8173C94.8173 11.0337 94.2149 12.3944 92.8093 12.9063C91.3501 13.4452 89.9178 13.3778 88.6192 12.4752C87.5349 11.7207 86.9459 10.6295 86.879 9.32271C86.8388 8.46049 86.8924 7.57133 87.053 6.72258C87.3743 5.06551 88.3649 3.93385 90.0115 3.52969C91.3769 3.19288 92.7156 3.36802 93.8267 4.31107C94.3889 4.7826 94.6834 5.46967 94.844 6.19717C94.8842 6.38578 94.911 6.58786 94.9511 6.84383" fill="black"/>
<path id="Vector_23" d="M123.88 9.74034H125.393C125.567 10.8855 124.683 12.4078 123.586 12.8389C122.046 13.4587 120.547 13.3913 119.155 12.4078C118.218 11.7342 117.749 10.7508 117.548 9.65951C117.334 8.47396 117.401 7.30189 117.803 6.15676C118.365 4.56704 119.878 3.39497 121.618 3.40844C122.756 3.40844 123.786 3.63747 124.59 4.47274C125.192 5.10593 125.487 5.88731 125.54 6.80342H123.853C123.612 6.11634 123.358 5.42926 122.542 5.18676C121.337 4.82301 120.078 5.29454 119.556 6.57439C119.021 7.92161 119.088 9.28229 119.904 10.5352C120.574 11.5591 122.019 11.9094 122.956 11.1684C123.358 10.8451 123.546 10.2658 123.88 9.74034Z" fill="black"/>
<path id="Vector_24" d="M109.503 22.2694H107.937C107.602 21.7979 107.375 21.3264 107.013 20.9626C106.197 20.1274 104.376 20.518 103.787 21.5823C102.984 23.0104 103.011 24.4519 103.787 25.88C104.309 26.8365 105.608 27.3349 106.558 26.8769C107.187 26.5805 107.549 26.0012 107.696 25.2872H109.396C109.383 26.1359 109.142 26.9038 108.58 27.5236C107.468 28.7361 106.05 28.8842 104.564 28.5474C102.81 28.1567 101.739 26.823 101.485 24.9908C101.311 23.7648 101.431 22.5928 101.873 21.4611C102.422 19.9926 103.734 18.9149 105.42 18.8879C106.598 18.861 107.696 19.0496 108.539 19.9253C109.155 20.5585 109.436 21.3668 109.49 22.2694" fill="black"/>
<path id="Vector_25" d="M85.3262 9.72687C85.5404 11.0067 84.59 12.5156 83.3048 12.9602C81.6985 13.5125 80.1991 13.2835 78.8605 12.2596C78.1778 11.7342 77.736 10.9528 77.5887 10.1041C77.3746 8.86465 77.3344 7.61174 77.736 6.39925C78.2581 4.82301 79.3156 3.73177 80.9488 3.48927C82.9434 3.17941 84.8042 3.75871 85.4199 6.23759C85.4735 6.4262 85.4467 6.62828 85.4735 6.85731C84.9514 6.85731 84.4829 6.85731 84.0143 6.85731C83.9206 6.85731 83.7734 6.72258 83.7466 6.62828C83.3986 5.17329 81.8457 4.80954 80.7614 5.33495C79.7172 5.84689 79.3424 6.763 79.2353 7.78688C79.1282 8.81076 79.3156 9.79423 79.9716 10.6699C80.4803 11.3435 81.1496 11.613 81.926 11.586C82.8363 11.5591 83.3718 10.9663 83.6261 10.131C83.7198 9.82117 83.8537 9.72687 84.1616 9.74034C84.5498 9.76729 84.9514 9.74034 85.3396 9.74034" fill="black"/>
<path id="Vector_26" d="M110.293 19.09H117.763V20.6124H114.858V28.2915H113.211V20.6393H110.293V19.09Z" fill="black"/>
</g>
<defs>
<clipPath id="clip0_884_22184">
<rect width="154" height="44" fill="white"/>
</clipPath>
</defs>
</svg>
