<svg width="177" height="26" viewBox="0 0 177 26" fill="none" xmlns="http://www.w3.org/2000/svg">
<g id="Layer_1" clip-path="url(#clip0_884_18808)">
<path id="Vector" d="M6.97809 4.48387C10.7755 4.48387 13.8426 7.37097 13.8426 11.2742C13.8426 15.1774 10.7268 18.0645 7.17282 18.0645C5.4851 18.0645 3.86229 17.5484 2.67764 16.1452H2.54781V26H0V12.2903C0 7.56452 2.67764 4.48387 6.97809 4.48387ZM6.91318 15.7581C9.4123 15.7581 11.1487 13.7097 11.1487 11.2097C11.1487 8.70968 9.46099 6.72581 6.91318 6.72581C4.36536 6.72581 2.61273 8.70968 2.61273 11.2097C2.61273 13.7097 4.41405 15.7581 6.91318 15.7581Z" fill="#8566D0"/>
<path id="Vector_2" d="M16.2119 11.2742C16.2119 7.37097 19.3926 4.48387 23.1251 4.48387C26.8576 4.48387 30.0383 7.37097 30.0383 11.2742C30.0383 15.1774 26.8576 18.0645 23.1251 18.0645C19.3926 18.0645 16.2119 15.1774 16.2119 11.2742ZM23.1251 15.7581C25.6891 15.7581 27.3606 13.7742 27.3606 11.2742C27.3606 8.77419 25.608 6.79032 23.1251 6.79032C20.6422 6.79032 18.8896 8.77419 18.8896 11.2742C18.8896 13.7742 20.5773 15.7581 23.1251 15.7581Z" fill="#8566D0"/>
<path id="Vector_3" d="M39.4019 18.0645C35.4098 18.0645 32.4238 15.1774 32.4238 11.2742C32.4238 7.37097 35.3611 4.48387 39.337 4.48387C42.3879 4.48387 45.1954 6.14516 45.9418 9.41936H43.3291C42.7125 7.69355 41.1546 6.79032 39.4019 6.79032C36.7243 6.79032 35.1015 8.83871 35.1015 11.3387C35.1015 13.8387 36.7892 15.8226 39.4668 15.8226C41.2195 15.8226 42.7774 14.9839 43.394 13.129H46.0068C45.0655 16.4677 42.323 18.0645 39.4019 18.0645Z" fill="#8566D0"/>
<path id="Vector_4" d="M55.4188 16.2097L51.2482 7.24194H51.1832V17.8065H48.749V4.74194H52.6113L56.7333 13.6452H56.7982L60.9039 4.74194H64.7824V17.7419H62.3482V7.24194H62.2833L58.1126 16.2097H55.4188Z" fill="#8566D0"/>
<path id="Vector_5" d="M67.5254 11.2742C67.5254 7.37097 70.7061 4.48387 74.4548 4.48387C78.2035 4.48387 81.368 7.37097 81.368 11.2742C81.368 15.1774 78.1873 18.0645 74.4548 18.0645C70.7223 18.0645 67.5254 15.1774 67.5254 11.2742ZM74.5035 15.7581C77.0675 15.7581 78.739 13.7742 78.739 11.2742C78.739 8.77419 76.9864 6.79032 74.5035 6.79032C72.0206 6.79032 70.2679 8.77419 70.2679 11.2742C70.203 13.7742 71.9557 15.7581 74.5035 15.7581Z" fill="#8566D0"/>
<path id="Vector_6" d="M82.666 17.871V15.1774H82.7309C83.234 15.1774 83.7858 14.9839 84.159 14.5323C84.6621 14.0161 84.8406 13 85.1002 11.5806L85.4735 9.46774C85.9116 7.09678 86.723 4.66129 90.2121 4.66129H95.1454V17.7419H92.5976V7.11291H90.6016C88.6055 7.11291 88.2323 7.69355 87.7292 10.4516L87.4209 12.371C87.1125 14.1613 86.6744 15.6936 85.798 16.6613C85.1165 17.4355 84.1752 17.8065 82.8608 17.8065H82.6822V17.871H82.666Z" fill="#8566D0"/>
<path id="Vector_7" d="M98.002 11.2742C98.002 7.37097 101.183 4.48387 104.915 4.48387C108.648 4.48387 111.828 7.37097 111.828 11.2742C111.828 15.1774 108.648 18.0645 104.915 18.0645C101.183 18.0645 98.002 15.1774 98.002 11.2742ZM104.915 15.7581C107.479 15.7581 109.151 13.7742 109.151 11.2742C109.151 8.77419 107.398 6.79032 104.915 6.79032C102.432 6.79032 100.68 8.77419 100.68 11.2742C100.68 13.7742 102.432 15.7581 104.915 15.7581Z" fill="#8566D0"/>
<path id="Vector_8" d="M114.846 20.9516H112.412V15.3871H114.035C114.781 14.5484 115.155 13.2742 115.463 11.8065L116.031 9.37097C116.534 7.06452 117.524 4.69355 120.64 4.69355H125.557V15.3871H127.358V20.9516H124.924V17.8065H114.765V20.9516H114.83H114.846ZM123.074 15.4516V7.1129H120.705C119.147 7.1129 118.644 8.3871 118.335 9.74194L117.767 12.2419C117.459 13.6452 117.021 14.8065 116.518 15.2581V15.4516H123.058H123.074Z" fill="#8566D0"/>
<path id="Vector_9" d="M136.218 18.0645C132.161 18.0645 129.24 15.1774 129.24 11.2742C129.24 7.37097 132.178 4.48387 136.105 4.48387C139.156 4.48387 142.774 6.53226 142.774 11.4677V11.9839H131.739C131.983 14.1613 133.671 15.7581 136.17 15.7581C137.663 15.7581 139.415 15.1774 139.918 13.9032H142.531C141.785 16.7903 138.847 18.0645 136.235 18.0645M131.869 0H134.482V2.69355H131.869V0ZM140.227 10C139.853 8.01613 138.36 6.74193 136.105 6.74193C133.849 6.74193 132.372 8.14516 131.934 10H140.227ZM137.549 0H140.162V2.69355H137.549V0Z" fill="#8566D0"/>
<path id="Vector_10" d="M154.8 4.74194V9.91935H156.926L159.912 4.74194H162.719L158.987 10.9516L162.979 17.7419H160.107L156.926 12.2258H154.735V17.7419H152.366V12.2258H150.256L147.075 17.7419H144.203L148.195 10.9516L144.447 4.74194H147.254L150.256 9.91935H152.366V4.74194H154.8Z" fill="#8566D0"/>
<path id="Vector_11" d="M164.78 11.9194L164.715 4.74194H167.279V8.45161H167.344C168.399 7.1129 169.778 6.46774 171.401 6.46774C174.517 6.46774 177.016 8.83871 177.016 12.1613C177.016 15.4839 174.452 18.0484 170.898 18.0484C167.344 18.0484 164.78 15.4839 164.78 11.9032M170.898 15.7419C172.894 15.7419 174.387 14.2742 174.387 12.2903C174.387 10.3065 172.894 8.77419 170.898 8.77419C168.902 8.77419 167.474 10.2419 167.474 12.2903C167.474 14.3387 168.902 15.7419 170.898 15.7419Z" fill="#8566D0"/>
</g>
<defs>
<clipPath id="clip0_884_18808">
<rect width="177" height="26" fill="white"/>
</clipPath>
</defs>
</svg>
