<svg width="147" height="83" viewBox="0 0 147 83" fill="none" xmlns="http://www.w3.org/2000/svg">
<g id="Layer_1" clip-path="url(#clip0_884_19998)">
<path id="Vector" d="M110.366 0L22.0264 19.0363V37.505L110.54 18.4396L110.366 0Z" fill="#EDEDED"/>
<path id="Vector_2" d="M28.7204 32.2802C28.7204 32.8187 28.4736 33.1389 27.9799 33.2407C27.4862 33.3426 27.2539 33.1243 27.2539 32.5858V22.7184C27.2539 22.4419 27.3265 22.209 27.4427 22.0344C27.5588 21.8597 27.7331 21.7433 27.9509 21.6996L31.2759 20.9865C32.7715 20.6663 33.846 20.6663 34.5139 20.9574C35.1818 21.2485 35.5158 21.8888 35.5158 22.8494C35.5158 23.839 35.2254 24.654 34.6446 25.2944C34.0638 25.9348 33.2216 26.3714 32.1181 26.6042L28.7204 27.3319V32.2802ZM31.2905 25.309C32.4666 25.0615 33.2216 24.7996 33.5556 24.5231C33.8895 24.2756 34.0638 23.8681 34.0638 23.2714C34.0638 22.8785 33.9912 22.602 33.8314 22.4273C33.6862 22.2672 33.4104 22.1799 33.0328 22.1799C32.6553 22.1799 32.0745 22.2672 31.2905 22.4419L28.7204 22.9804V25.8329L31.2759 25.2944L31.2905 25.309Z" fill="#1D1D1B"/>
<path id="Vector_3" d="M28.7204 32.2802C28.7204 32.8187 28.4736 33.1389 27.9799 33.2407C27.4862 33.3426 27.2539 33.1243 27.2539 32.5858V22.7184C27.2539 22.4419 27.3265 22.209 27.4427 22.0344C27.5588 21.8597 27.7331 21.7433 27.9509 21.6996L31.2759 20.9865C32.7715 20.6663 33.846 20.6663 34.5139 20.9574C35.1818 21.2485 35.5158 21.8888 35.5158 22.8494C35.5158 23.839 35.2254 24.654 34.6446 25.2944C34.0638 25.9348 33.2216 26.3714 32.1181 26.6042L28.7204 27.3319V32.2802ZM31.2905 25.309C32.4666 25.0615 33.2216 24.7996 33.5556 24.5231C33.8895 24.2756 34.0638 23.8681 34.0638 23.2714C34.0638 22.8785 33.9912 22.602 33.8314 22.4273C33.6862 22.2672 33.4104 22.1799 33.0328 22.1799C32.6553 22.1799 32.0745 22.2672 31.2905 22.4419L28.7204 22.9804V25.8329L31.2759 25.2944L31.2905 25.309Z" fill="#1D1D1B"/>
<path id="Vector_4" d="M28.7204 32.2802C28.7204 32.8187 28.4736 33.1389 27.9799 33.2407C27.4862 33.3426 27.2539 33.1243 27.2539 32.5858V22.7184C27.2539 22.4419 27.3265 22.209 27.4427 22.0344C27.5588 21.8597 27.7331 21.7433 27.9509 21.6996L31.2759 20.9865C32.7715 20.6663 33.846 20.6663 34.5139 20.9574C35.1818 21.2485 35.5158 21.8888 35.5158 22.8494C35.5158 23.839 35.2254 24.654 34.6446 25.2944C34.0638 25.9348 33.2216 26.3714 32.1181 26.6042L28.7204 27.3319V32.2802ZM31.2905 25.309C32.4666 25.0615 33.2216 24.7996 33.5556 24.5231C33.8895 24.2756 34.0638 23.8681 34.0638 23.2714C34.0638 22.8785 33.9912 22.602 33.8314 22.4273C33.6862 22.2672 33.4104 22.1799 33.0328 22.1799C32.6553 22.1799 32.0745 22.2672 31.2905 22.4419L28.7204 22.9804V25.8329L31.2759 25.2944L31.2905 25.309Z" stroke="white" stroke-width="0.5" stroke-miterlimit="10"/>
<path id="Vector_5" d="M46.0278 25.1489C46.0278 26.0076 45.839 26.808 45.476 27.5357C45.113 28.2634 44.5903 28.8746 43.9078 29.3695C43.2254 29.8643 42.4268 30.2136 41.5266 30.4028C40.6263 30.592 39.8277 30.592 39.1453 30.3882C38.4629 30.1845 37.9401 29.7915 37.5771 29.2239C37.2141 28.6563 37.0254 27.9432 37.0254 27.07V23.9991C37.0254 23.1405 37.2141 22.34 37.5771 21.6123C37.9401 20.8846 38.4629 20.2734 39.1453 19.7785C39.8277 19.2837 40.6263 18.9344 41.5266 18.7452C42.4268 18.556 43.2254 18.556 43.9078 18.7598C44.5903 18.9635 45.113 19.3565 45.476 19.9241C45.839 20.4917 46.0278 21.2048 46.0278 22.078V25.1634V25.1489ZM41.5266 20.2152C40.5392 20.4189 39.7842 20.8264 39.2615 21.4231C38.7387 22.0198 38.4919 22.7912 38.4774 23.7226V26.6916C38.4774 27.623 38.7242 28.2779 39.2469 28.6563C39.7551 29.0347 40.5102 29.1221 41.4975 28.9037C42.4849 28.7 43.2399 28.2925 43.7626 27.6958C44.2854 27.0991 44.5322 26.3277 44.5467 25.3963V22.4273C44.5467 21.525 44.2999 20.8701 43.8062 20.448C43.2835 20.0696 42.5285 19.9823 41.5266 20.2006" fill="#1D1D1B"/>
<path id="Vector_6" d="M46.0278 25.1489C46.0278 26.0076 45.839 26.808 45.476 27.5357C45.113 28.2634 44.5903 28.8746 43.9078 29.3695C43.2254 29.8643 42.4268 30.2136 41.5266 30.4028C40.6263 30.592 39.8277 30.592 39.1453 30.3882C38.4629 30.1845 37.9401 29.7915 37.5771 29.2239C37.2141 28.6563 37.0254 27.9432 37.0254 27.07V23.9991C37.0254 23.1405 37.2141 22.34 37.5771 21.6123C37.9401 20.8846 38.4629 20.2734 39.1453 19.7785C39.8277 19.2837 40.6263 18.9344 41.5266 18.7452C42.4268 18.556 43.2254 18.556 43.9078 18.7598C44.5903 18.9635 45.113 19.3565 45.476 19.9241C45.839 20.4917 46.0278 21.2048 46.0278 22.078V25.1634V25.1489ZM41.5266 20.2152C40.5392 20.4189 39.7842 20.8264 39.2615 21.4231C38.7387 22.0198 38.4919 22.7912 38.4774 23.7226V26.6916C38.4774 27.623 38.7242 28.2779 39.2469 28.6563C39.7551 29.0347 40.5102 29.1221 41.4975 28.9037C42.4849 28.7 43.2399 28.2925 43.7626 27.6958C44.2854 27.0991 44.5322 26.3277 44.5467 25.3963V22.4273C44.5467 21.525 44.2999 20.8701 43.8062 20.448C43.2835 20.0696 42.5285 19.9823 41.5266 20.2006" fill="#1D1D1B"/>
<path id="Vector_7" d="M46.0278 25.1489C46.0278 26.0076 45.839 26.808 45.476 27.5357C45.113 28.2634 44.5903 28.8746 43.9078 29.3695C43.2254 29.8643 42.4268 30.2136 41.5266 30.4028C40.6263 30.592 39.8277 30.592 39.1453 30.3882C38.4629 30.1845 37.9401 29.7915 37.5771 29.2239C37.2141 28.6563 37.0254 27.9432 37.0254 27.07V23.9991C37.0254 23.1405 37.2141 22.34 37.5771 21.6123C37.9401 20.8846 38.4629 20.2734 39.1453 19.7785C39.8277 19.2837 40.6263 18.9344 41.5266 18.7452C42.4268 18.556 43.2254 18.556 43.9078 18.7598C44.5903 18.9635 45.113 19.3565 45.476 19.9241C45.839 20.4917 46.0278 21.2048 46.0278 22.078V25.1634V25.1489ZM41.5266 20.2152C40.5392 20.4189 39.7842 20.8264 39.2615 21.4231C38.7387 22.0198 38.4919 22.7912 38.4774 23.7226V26.6916C38.4774 27.623 38.7242 28.2779 39.2469 28.6563C39.7551 29.0347 40.5102 29.1221 41.4975 28.9037C42.4849 28.7 43.2399 28.2925 43.7626 27.6958C44.2854 27.0991 44.5322 26.3277 44.5467 25.3963V22.4273C44.5467 21.525 44.2999 20.8701 43.8062 20.448C43.2835 20.0696 42.5285 19.9823 41.5266 20.2006V20.2152Z" stroke="white" stroke-width="0.5" stroke-miterlimit="10"/>
<path id="Vector_8" d="M52.6925 27.8704C51.5599 28.1178 50.6597 28.1906 50.0208 28.1178C49.3674 28.0451 48.9028 27.7976 48.6124 27.3901C48.322 26.9681 48.1768 26.3423 48.1768 25.4981V20.8118C48.1768 19.9823 48.322 19.2983 48.5978 18.7598C48.8737 18.2213 49.3093 17.7847 49.9192 17.4354C50.529 17.0861 51.3566 16.8096 52.3875 16.5913L55.1609 16.0091C55.8433 15.8636 56.3515 15.9363 56.6855 16.2129C57.0194 16.4894 57.1791 16.9988 57.1791 17.7264C57.1791 18.3814 56.9323 18.7598 56.4386 18.8616C56.2063 18.9053 56.0321 18.8616 55.9014 18.7307C55.7707 18.5997 55.7126 18.3814 55.7126 18.0903C55.7126 17.7992 55.6691 17.61 55.5674 17.5373C55.4803 17.4645 55.2915 17.4499 55.0302 17.5081L52.373 18.0757C51.5744 18.2504 50.9791 18.425 50.6161 18.5851C50.2386 18.7598 49.9918 18.9926 49.8466 19.2837C49.7014 19.5748 49.6433 19.9968 49.6433 20.5353V25.1489C49.6433 25.7165 49.7159 26.0949 49.8611 26.3277C50.0063 26.546 50.2821 26.6624 50.7032 26.677C51.1243 26.677 51.7777 26.5897 52.6925 26.4005L55.0302 25.9057C55.2915 25.8474 55.4803 25.7601 55.5674 25.6437C55.6545 25.5273 55.7126 25.3235 55.7126 25.0324C55.7126 24.7414 55.7707 24.4939 55.9014 24.3047C56.0321 24.1155 56.2063 23.9991 56.4386 23.9409C56.9323 23.8536 57.1646 24.1301 57.1646 24.785C57.1646 25.5127 56.9904 26.0803 56.6709 26.5024C56.337 26.9244 55.8288 27.2009 55.1463 27.3465L52.6925 27.8704Z" fill="#1D1D1B"/>
<path id="Vector_9" d="M52.6925 27.8704C51.5599 28.1178 50.6597 28.1906 50.0208 28.1178C49.3674 28.0451 48.9028 27.7976 48.6124 27.3901C48.322 26.9681 48.1768 26.3423 48.1768 25.4981V20.8118C48.1768 19.9823 48.322 19.2983 48.5978 18.7598C48.8737 18.2213 49.3093 17.7847 49.9192 17.4354C50.529 17.0861 51.3566 16.8096 52.3875 16.5913L55.1609 16.0091C55.8433 15.8636 56.3515 15.9363 56.6855 16.2129C57.0194 16.4894 57.1791 16.9988 57.1791 17.7264C57.1791 18.3814 56.9323 18.7598 56.4386 18.8616C56.2063 18.9053 56.0321 18.8616 55.9014 18.7307C55.7707 18.5997 55.7126 18.3814 55.7126 18.0903C55.7126 17.7992 55.6691 17.61 55.5674 17.5373C55.4803 17.4645 55.2915 17.4499 55.0302 17.5081L52.373 18.0757C51.5744 18.2504 50.9791 18.425 50.6161 18.5851C50.2386 18.7598 49.9918 18.9926 49.8466 19.2837C49.7014 19.5748 49.6433 19.9968 49.6433 20.5353V25.1489C49.6433 25.7165 49.7159 26.0949 49.8611 26.3277C50.0063 26.546 50.2821 26.6624 50.7032 26.677C51.1243 26.677 51.7777 26.5897 52.6925 26.4005L55.0302 25.9057C55.2915 25.8474 55.4803 25.7601 55.5674 25.6437C55.6545 25.5273 55.7126 25.3235 55.7126 25.0324C55.7126 24.7414 55.7707 24.4939 55.9014 24.3047C56.0321 24.1155 56.2063 23.9991 56.4386 23.9409C56.9323 23.8536 57.1646 24.1301 57.1646 24.785C57.1646 25.5127 56.9904 26.0803 56.6709 26.5024C56.337 26.9244 55.8288 27.2009 55.1463 27.3465L52.6925 27.8704Z" fill="#1D1D1B"/>
<path id="Vector_10" d="M52.6925 27.8704C51.5599 28.1178 50.6597 28.1906 50.0208 28.1178C49.3674 28.0451 48.9028 27.7976 48.6124 27.3901C48.322 26.9681 48.1768 26.3423 48.1768 25.4981V20.8118C48.1768 19.9823 48.322 19.2983 48.5978 18.7598C48.8737 18.2213 49.3093 17.7847 49.9192 17.4354C50.529 17.0861 51.3566 16.8096 52.3875 16.5913L55.1609 16.0091C55.8433 15.8636 56.3515 15.9363 56.6855 16.2129C57.0194 16.4894 57.1791 16.9988 57.1791 17.7264C57.1791 18.3814 56.9323 18.7598 56.4386 18.8616C56.2063 18.9053 56.0321 18.8616 55.9014 18.7307C55.7707 18.5997 55.7126 18.3814 55.7126 18.0903C55.7126 17.7992 55.6691 17.61 55.5674 17.5373C55.4803 17.4645 55.2915 17.4499 55.0302 17.5081L52.373 18.0757C51.5744 18.2504 50.9791 18.425 50.6161 18.5851C50.2386 18.7598 49.9918 18.9926 49.8466 19.2837C49.7014 19.5748 49.6433 19.9968 49.6433 20.5353V25.1489C49.6433 25.7165 49.7159 26.0949 49.8611 26.3277C50.0063 26.546 50.2821 26.6624 50.7032 26.677C51.1243 26.677 51.7777 26.5897 52.6925 26.4005L55.0302 25.9057C55.2915 25.8474 55.4803 25.7601 55.5674 25.6437C55.6545 25.5273 55.7126 25.3235 55.7126 25.0324C55.7126 24.7414 55.7707 24.4939 55.9014 24.3047C56.0321 24.1155 56.2063 23.9991 56.4386 23.9409C56.9323 23.8536 57.1646 24.1301 57.1646 24.785C57.1646 25.5127 56.9904 26.0803 56.6709 26.5024C56.337 26.9244 55.8288 27.2009 55.1463 27.3465L52.6925 27.8704Z" stroke="white" stroke-width="0.5" stroke-miterlimit="10"/>
<path id="Vector_11" d="M63.6993 25.5418C62.5667 25.7892 61.6665 25.862 61.0276 25.7892C60.3742 25.7165 59.9096 25.4691 59.6192 25.047C59.3288 24.6249 59.1836 23.9991 59.1836 23.1696V18.4833C59.1836 17.6537 59.3288 16.9697 59.6047 16.4312C59.8806 15.8927 60.3162 15.4561 60.926 15.1068C61.5358 14.7575 62.3635 14.481 63.3944 14.2627L66.1677 13.6805C66.8501 13.535 67.3583 13.6078 67.6923 13.8843C68.0262 14.1608 68.186 14.6702 68.186 15.3979C68.186 16.0528 67.9391 16.4312 67.4454 16.5331C67.2131 16.5767 67.0389 16.5331 66.9082 16.4021C66.7775 16.2711 66.7195 16.0528 66.7195 15.7617C66.7195 15.4706 66.6759 15.2814 66.5742 15.2087C66.4871 15.1359 66.2984 15.1213 66.037 15.1796L63.3799 15.7472C62.5813 15.9218 61.9859 16.0964 61.6229 16.2565C61.2454 16.4312 60.9986 16.664 60.8534 16.9551C60.7082 17.2462 60.6501 17.6683 60.6501 18.2067V22.8203C60.6501 23.3879 60.7227 23.7663 60.8679 23.9991C61.0131 24.2174 61.289 24.3339 61.7101 24.3484C62.1311 24.3484 62.7845 24.2611 63.6993 24.0719L66.037 23.5771C66.2984 23.5189 66.4871 23.4315 66.5742 23.3151C66.6614 23.1987 66.7195 22.9949 66.7195 22.7038C66.7195 22.4128 66.7775 22.1654 66.9082 21.9762C67.0389 21.787 67.2131 21.6705 67.4454 21.6123C67.9391 21.525 68.1714 21.8015 68.1714 22.4564C68.1714 23.1841 67.9972 23.7517 67.6778 24.1738C67.3438 24.5958 66.8356 24.8724 66.1532 25.0179L63.6993 25.5418Z" fill="#1D1D1B"/>
<path id="Vector_12" d="M63.6993 25.5418C62.5667 25.7892 61.6665 25.862 61.0276 25.7892C60.3742 25.7165 59.9096 25.4691 59.6192 25.047C59.3288 24.6249 59.1836 23.9991 59.1836 23.1696V18.4833C59.1836 17.6537 59.3288 16.9697 59.6047 16.4312C59.8806 15.8927 60.3162 15.4561 60.926 15.1068C61.5358 14.7575 62.3635 14.481 63.3944 14.2627L66.1677 13.6805C66.8501 13.535 67.3583 13.6078 67.6923 13.8843C68.0262 14.1608 68.186 14.6702 68.186 15.3979C68.186 16.0528 67.9391 16.4312 67.4454 16.5331C67.2131 16.5767 67.0389 16.5331 66.9082 16.4021C66.7775 16.2711 66.7195 16.0528 66.7195 15.7617C66.7195 15.4706 66.6759 15.2814 66.5742 15.2087C66.4871 15.1359 66.2984 15.1213 66.037 15.1796L63.3799 15.7472C62.5813 15.9218 61.9859 16.0964 61.6229 16.2565C61.2454 16.4312 60.9986 16.664 60.8534 16.9551C60.7082 17.2462 60.6501 17.6683 60.6501 18.2067V22.8203C60.6501 23.3879 60.7227 23.7663 60.8679 23.9991C61.0131 24.2174 61.289 24.3339 61.7101 24.3484C62.1311 24.3484 62.7845 24.2611 63.6993 24.0719L66.037 23.5771C66.2984 23.5189 66.4871 23.4315 66.5742 23.3151C66.6614 23.1987 66.7195 22.9949 66.7195 22.7038C66.7195 22.4128 66.7775 22.1654 66.9082 21.9762C67.0389 21.787 67.2131 21.6705 67.4454 21.6123C67.9391 21.525 68.1714 21.8015 68.1714 22.4564C68.1714 23.1841 67.9972 23.7517 67.6778 24.1738C67.3438 24.5958 66.8356 24.8724 66.1532 25.0179L63.6993 25.5418Z" fill="#1D1D1B"/>
<path id="Vector_13" d="M63.6993 25.5418C62.5667 25.7892 61.6665 25.862 61.0276 25.7892C60.3742 25.7165 59.9096 25.4691 59.6192 25.047C59.3288 24.6249 59.1836 23.9991 59.1836 23.1696V18.4833C59.1836 17.6537 59.3288 16.9697 59.6047 16.4312C59.8806 15.8927 60.3162 15.4561 60.926 15.1068C61.5358 14.7575 62.3635 14.481 63.3944 14.2627L66.1677 13.6805C66.8501 13.535 67.3583 13.6078 67.6923 13.8843C68.0262 14.1608 68.186 14.6702 68.186 15.3979C68.186 16.0528 67.9391 16.4312 67.4455 16.5331C67.2131 16.5767 67.0389 16.5331 66.9082 16.4021C66.7775 16.2711 66.7195 16.0528 66.7195 15.7617C66.7195 15.4706 66.6759 15.2814 66.5742 15.2087C66.4871 15.1359 66.2984 15.1213 66.037 15.1796L63.3799 15.7472C62.5813 15.9218 61.9859 16.0964 61.6229 16.2565C61.2454 16.4312 60.9986 16.664 60.8534 16.9551C60.7082 17.2462 60.6501 17.6683 60.6501 18.2067V22.8203C60.6501 23.3879 60.7227 23.7663 60.8679 23.9991C61.0131 24.2174 61.289 24.3339 61.7101 24.3484C62.1311 24.3484 62.7845 24.2611 63.6993 24.0719L66.037 23.5771C66.2984 23.5189 66.4871 23.4315 66.5742 23.3151C66.6614 23.1987 66.7195 22.9949 66.7195 22.7038C66.7195 22.4128 66.7775 22.1654 66.9082 21.9762C67.0389 21.787 67.2131 21.6705 67.4455 21.6123C67.9391 21.525 68.1714 21.8015 68.1714 22.4564C68.1714 23.1841 67.9972 23.7517 67.6778 24.1738C67.3438 24.5958 66.8356 24.8724 66.1532 25.0179L63.6993 25.5418Z" stroke="white" stroke-width="0.5" stroke-miterlimit="10"/>
<path id="Vector_14" d="M70.4072 23.3879V13.5059C70.4072 12.9383 70.6686 12.6035 71.1477 12.4871C71.6414 12.3852 71.8737 12.6327 71.8737 13.2439V21.2921L77.9576 11.4829C78.1754 11.1482 78.4222 10.9444 78.7126 10.8862C79.1773 10.7843 79.4096 11.0317 79.4096 11.5993V21.4813C79.4096 22.0489 79.1482 22.3691 78.6691 22.471C78.1754 22.5729 77.9431 22.3691 77.9431 21.8452V13.6951L71.9173 23.417C71.7721 23.6498 71.6559 23.7954 71.5543 23.8827C71.4527 23.97 71.3075 24.0282 71.1187 24.0719C70.6395 24.1738 70.4072 23.9409 70.4072 23.3879Z" fill="#1D1D1B"/>
<path id="Vector_15" d="M70.4072 23.3879V13.5059C70.4072 12.9383 70.6686 12.6035 71.1477 12.4871C71.6414 12.3852 71.8737 12.6327 71.8737 13.2439V21.2921L77.9576 11.4829C78.1754 11.1482 78.4222 10.9444 78.7126 10.8862C79.1773 10.7843 79.4096 11.0317 79.4096 11.5993V21.4813C79.4096 22.0489 79.1482 22.3691 78.6691 22.471C78.1754 22.5729 77.9431 22.3691 77.9431 21.8452V13.6951L71.9173 23.417C71.7721 23.6498 71.6559 23.7954 71.5543 23.8827C71.4527 23.97 71.3075 24.0282 71.1187 24.0719C70.6395 24.1738 70.4072 23.9409 70.4072 23.3879Z" fill="#1D1D1B"/>
<path id="Vector_16" d="M70.4072 23.3879V13.5059C70.4072 12.9383 70.6686 12.6035 71.1477 12.4871C71.6414 12.3852 71.8737 12.6327 71.8737 13.2439V21.2921L77.9576 11.4829C78.1754 11.1482 78.4222 10.9444 78.7126 10.8862C79.1773 10.7843 79.4096 11.0317 79.4096 11.5993V21.4813C79.4096 22.0489 79.1482 22.3691 78.6691 22.471C78.1754 22.5729 77.9431 22.3691 77.9431 21.8452V13.6951L71.9173 23.417C71.7721 23.6498 71.6559 23.7954 71.5543 23.8827C71.4527 23.97 71.3075 24.0282 71.1187 24.0719C70.6395 24.1738 70.4072 23.9409 70.4072 23.3879Z" stroke="white" stroke-width="0.5" stroke-miterlimit="10"/>
<path id="Vector_17" d="M88.9055 19.502V15.2087L86.4516 15.7326C85.9144 15.849 85.5224 16.0237 85.261 16.2565C84.9996 16.4894 84.8109 16.8387 84.6947 17.2898L84.2591 19.0072C84.0558 19.7349 83.7364 20.3607 83.2863 20.8701C82.8362 21.3794 82.328 21.6996 81.7762 21.8161C81.1664 21.947 80.876 21.7578 80.876 21.2776C80.876 20.7973 81.1809 20.4917 81.7907 20.3752C81.994 20.3316 82.1973 20.186 82.3861 19.9386C82.5748 19.6912 82.691 19.4583 82.7491 19.24L83.2427 17.3481C83.4025 16.7805 83.6638 16.2711 84.0268 15.8345C82.8507 15.5579 82.2699 14.7575 82.2699 13.4476C82.2699 12.4289 82.6329 11.5557 83.3734 10.8571C84.1139 10.1585 85.1594 9.66368 86.5097 9.3726L89.7186 8.68858C90.1833 8.5867 90.4156 8.83411 90.4156 9.43082V19.1964C90.4156 19.7349 90.1687 20.0551 89.6896 20.1569C89.1814 20.2588 88.92 20.055 88.92 19.5166M88.92 10.3331L86.4952 10.8425C85.5369 11.0463 84.8399 11.3374 84.4043 11.7012C83.9687 12.0796 83.7509 12.5744 83.7509 13.1857C83.7509 14.2918 84.6657 14.6556 86.4952 14.2627L88.92 13.7533V10.3186V10.3331Z" fill="#1D1D1B"/>
<path id="Vector_18" d="M88.9055 19.502V15.2087L86.4516 15.7326C85.9144 15.849 85.5224 16.0237 85.261 16.2565C84.9996 16.4894 84.8109 16.8387 84.6947 17.2898L84.2591 19.0072C84.0558 19.7349 83.7364 20.3607 83.2863 20.8701C82.8362 21.3794 82.328 21.6996 81.7762 21.8161C81.1664 21.947 80.876 21.7578 80.876 21.2776C80.876 20.7973 81.1809 20.4917 81.7907 20.3752C81.994 20.3316 82.1973 20.186 82.3861 19.9386C82.5748 19.6912 82.691 19.4583 82.7491 19.24L83.2427 17.3481C83.4025 16.7805 83.6638 16.2711 84.0268 15.8345C82.8507 15.5579 82.2699 14.7575 82.2699 13.4476C82.2699 12.4289 82.6329 11.5557 83.3734 10.8571C84.1139 10.1585 85.1594 9.66368 86.5097 9.3726L89.7186 8.68858C90.1833 8.5867 90.4156 8.83411 90.4156 9.43082V19.1964C90.4156 19.7349 90.1687 20.0551 89.6896 20.1569C89.1814 20.2588 88.92 20.055 88.92 19.5166M88.92 10.3331L86.4952 10.8425C85.5369 11.0463 84.8399 11.3374 84.4043 11.7012C83.9687 12.0796 83.7509 12.5744 83.7509 13.1857C83.7509 14.2918 84.6657 14.6556 86.4952 14.2627L88.92 13.7533V10.3186V10.3331Z" fill="#1D1D1B"/>
<path id="Vector_19" d="M88.9055 19.502V15.2087L86.4516 15.7326C85.9144 15.849 85.5224 16.0237 85.261 16.2565C84.9996 16.4894 84.8109 16.8387 84.6947 17.2898L84.2591 19.0072C84.0558 19.7349 83.7364 20.3607 83.2863 20.8701C82.8362 21.3794 82.328 21.6996 81.7762 21.8161C81.1664 21.947 80.876 21.7578 80.876 21.2776C80.876 20.7973 81.1809 20.4917 81.7907 20.3752C81.994 20.3316 82.1973 20.186 82.3861 19.9386C82.5748 19.6912 82.691 19.4583 82.7491 19.24L83.2427 17.3481C83.4025 16.7805 83.6638 16.2711 84.0268 15.8345C82.8507 15.5579 82.2699 14.7575 82.2699 13.4476C82.2699 12.4289 82.6329 11.5557 83.3734 10.8571C84.1139 10.1585 85.1594 9.66368 86.5097 9.3726L89.7186 8.68858C90.1833 8.5867 90.4156 8.83411 90.4156 9.43082V19.1964C90.4156 19.7349 90.1687 20.0551 89.6896 20.1569C89.1814 20.2588 88.92 20.055 88.92 19.5166L88.9055 19.502ZM88.9055 10.3186L86.4807 10.828C85.5224 11.0317 84.8254 11.3228 84.3898 11.6866C83.9542 12.065 83.7364 12.5599 83.7364 13.1711C83.7364 14.2772 84.6512 14.6411 86.4807 14.2481L88.9055 13.7387V10.304V10.3186Z" stroke="white" stroke-width="0.5" stroke-miterlimit="10"/>
<path id="Vector_20" d="M98.8667 13.6805C98.7506 13.5932 98.707 13.4622 98.707 13.273C98.707 13.0693 98.7651 12.9092 98.8667 12.7782C98.9829 12.6472 99.1281 12.5599 99.3169 12.5308L105.793 11.1627C105.996 11.1191 106.141 11.1336 106.243 11.2209C106.345 11.3083 106.403 11.4392 106.403 11.643C106.403 11.8468 106.345 12.0068 106.243 12.1378C106.141 12.2688 105.982 12.3416 105.793 12.3852L99.3169 13.7533C99.1281 13.797 98.9829 13.7678 98.8667 13.6805Z" fill="#1D1D1B"/>
<path id="Vector_21" d="M98.8667 13.6805C98.7506 13.5932 98.707 13.4622 98.707 13.273C98.707 13.0693 98.7651 12.9092 98.8667 12.7782C98.9829 12.6472 99.1281 12.5599 99.3169 12.5308L105.793 11.1627C105.996 11.1191 106.141 11.1336 106.243 11.2209C106.345 11.3083 106.403 11.4392 106.403 11.643C106.403 11.8468 106.345 12.0068 106.243 12.1378C106.141 12.2688 105.982 12.3416 105.793 12.3852L99.3169 13.7533C99.1281 13.797 98.9829 13.7678 98.8667 13.6805Z" fill="#1D1D1B"/>
<path id="Vector_22" d="M98.8667 13.6805C98.7506 13.5932 98.707 13.4622 98.707 13.273C98.707 13.0693 98.7651 12.9092 98.8667 12.7782C98.9829 12.6472 99.1281 12.5599 99.3169 12.5308L105.793 11.1627C105.996 11.1191 106.141 11.1336 106.243 11.2209C106.345 11.3083 106.403 11.4392 106.403 11.643C106.403 11.8468 106.345 12.0068 106.243 12.1378C106.141 12.2688 105.982 12.3416 105.793 12.3852L99.3169 13.7533C99.1281 13.797 98.9829 13.7678 98.8667 13.6805Z" stroke="white" stroke-width="0.5" stroke-miterlimit="10"/>
<path id="Vector_23" d="M37.9111 35.9332V54.6056L110.54 38.9458V20.2879L37.9111 35.9332Z" fill="#0062A1"/>
<path id="Vector_24" d="M47.4073 49.4973C46.2748 49.7447 45.3745 49.8175 44.7356 49.7447C44.0822 49.6719 43.6176 49.4245 43.3272 49.0024C43.0368 48.5804 42.8916 47.9546 42.8916 47.125V42.4387C42.8916 41.6091 43.0368 40.9251 43.3127 40.3866C43.5886 39.8481 44.0242 39.4115 44.634 39.0622C45.2438 38.7129 46.0715 38.4364 47.1024 38.2181L49.8757 37.636C50.5581 37.4904 51.0663 37.5632 51.4003 37.8397C51.7343 38.1162 51.894 38.6256 51.894 39.3533C51.894 40.0082 51.6471 40.3866 51.1535 40.4885C50.9211 40.5322 50.7469 40.4885 50.6162 40.3575C50.4855 40.2265 50.4275 40.0082 50.4275 39.7172C50.4275 39.4261 50.3839 39.2369 50.2823 39.1641C50.1951 39.0913 50.0064 39.0768 49.745 39.135L47.0879 39.7026C46.2893 39.8772 45.694 40.0519 45.331 40.212C44.9534 40.3866 44.7066 40.6195 44.5614 40.9106C44.4162 41.2016 44.3581 41.6237 44.3581 42.1622V46.7757C44.3581 47.3433 44.4307 47.7217 44.5759 47.9546C44.7211 48.1729 44.997 48.2893 45.4181 48.3039C45.8392 48.3039 46.4926 48.2165 47.4073 48.0273L49.745 47.5325C50.0064 47.4743 50.1951 47.387 50.2823 47.2705C50.3694 47.1541 50.4275 46.9504 50.4275 46.6593C50.4275 46.3682 50.4855 46.1208 50.6162 45.9316C50.7469 45.7424 50.9211 45.626 51.1535 45.5678C51.6471 45.4804 51.8794 45.757 51.8794 46.4119C51.8794 47.1396 51.7052 47.7072 51.3858 48.1292C51.0518 48.5513 50.5436 48.8278 49.8612 48.9733L47.4073 49.4973Z" fill="white"/>
<path id="Vector_25" d="M47.4073 49.4973C46.2748 49.7447 45.3745 49.8175 44.7356 49.7447C44.0822 49.6719 43.6176 49.4245 43.3272 49.0024C43.0368 48.5804 42.8916 47.9546 42.8916 47.125V42.4387C42.8916 41.6091 43.0368 40.9251 43.3127 40.3866C43.5886 39.8481 44.0242 39.4115 44.634 39.0622C45.2438 38.7129 46.0715 38.4364 47.1024 38.2181L49.8757 37.636C50.5581 37.4904 51.0663 37.5632 51.4003 37.8397C51.7343 38.1162 51.894 38.6256 51.894 39.3533C51.894 40.0082 51.6471 40.3866 51.1535 40.4885C50.9211 40.5322 50.7469 40.4885 50.6162 40.3575C50.4855 40.2265 50.4275 40.0082 50.4275 39.7172C50.4275 39.4261 50.3839 39.2369 50.2823 39.1641C50.1951 39.0913 50.0064 39.0768 49.745 39.135L47.0879 39.7026C46.2893 39.8772 45.694 40.0519 45.331 40.212C44.9534 40.3866 44.7066 40.6195 44.5614 40.9106C44.4162 41.2016 44.3581 41.6237 44.3581 42.1622V46.7757C44.3581 47.3433 44.4307 47.7217 44.5759 47.9546C44.7211 48.1729 44.997 48.2893 45.4181 48.3039C45.8392 48.3039 46.4926 48.2165 47.4073 48.0273L49.745 47.5325C50.0064 47.4743 50.1951 47.387 50.2823 47.2705C50.3694 47.1541 50.4275 46.9504 50.4275 46.6593C50.4275 46.3682 50.4855 46.1208 50.6162 45.9316C50.7469 45.7424 50.9211 45.626 51.1535 45.5678C51.6471 45.4804 51.8795 45.757 51.8795 46.4119C51.8795 47.1396 51.7052 47.7072 51.3858 48.1292C51.0518 48.5513 50.5436 48.8278 49.8612 48.9733L47.4073 49.4973Z" stroke="white" stroke-width="0.5" stroke-miterlimit="10"/>
<path id="Vector_26" d="M60.6208 35.3656C61.1871 35.2492 61.4775 35.4238 61.4775 35.9186C61.4775 36.4135 61.1871 36.7191 60.6208 36.8355L58.1379 37.3595V46.5429C58.1379 46.7757 58.0508 46.9795 57.8911 47.1687C57.7313 47.3579 57.5281 47.4743 57.2667 47.5325C57.0054 47.5907 56.8166 47.5616 56.6714 47.4452C56.5262 47.3288 56.4681 47.1541 56.4681 46.8922V37.7088L53.9707 38.2472C53.7093 38.3055 53.4915 38.2764 53.3463 38.1745C53.2011 38.0726 53.114 37.9125 53.1285 37.6942C53.1285 37.4759 53.2011 37.2721 53.3608 37.1121C53.506 36.952 53.7238 36.8355 53.9852 36.7773L60.6353 35.3656H60.6208Z" fill="white"/>
<path id="Vector_27" d="M60.6208 35.3656C61.1871 35.2492 61.4775 35.4238 61.4775 35.9186C61.4775 36.4135 61.1871 36.7191 60.6208 36.8355L58.1379 37.3595V46.5429C58.1379 46.7757 58.0508 46.9795 57.8911 47.1687C57.7313 47.3579 57.5281 47.4743 57.2667 47.5325C57.0054 47.5907 56.8166 47.5616 56.6714 47.4452C56.5262 47.3288 56.4681 47.1541 56.4681 46.8922V37.7088L53.9707 38.2472C53.7093 38.3055 53.4915 38.2764 53.3463 38.1745C53.2011 38.0726 53.114 37.9125 53.1285 37.6942C53.1285 37.4759 53.2011 37.2721 53.3608 37.1121C53.506 36.952 53.7238 36.8355 53.9852 36.7773L60.6353 35.3656H60.6208Z" stroke="white" stroke-width="0.5" stroke-miterlimit="10"/>
<path id="Vector_28" d="M64.6569 45.1603C64.6569 45.6987 64.4101 46.0189 63.9164 46.1208C63.4227 46.2227 63.1904 46.0044 63.1904 45.4659V35.5984C63.1904 35.3219 63.263 35.0891 63.3792 34.9144C63.4954 34.7398 63.6696 34.6234 63.8874 34.5797L67.2125 33.8666C68.708 33.5464 69.7825 33.5464 70.4504 33.8374C71.1183 34.1285 71.4523 34.7689 71.4523 35.7294C71.4523 36.7191 71.1619 37.5341 70.5811 38.1745C70.0003 38.8148 69.1581 39.2514 68.0546 39.4843L64.6569 40.1974V45.1457V45.1603ZM67.227 38.189C68.4031 37.9416 69.1581 37.6796 69.4921 37.4031C69.826 37.1557 70.0003 36.7482 70.0003 36.1515C70.0003 35.7585 69.9277 35.482 69.768 35.3074C69.6228 35.1473 69.3469 35.06 68.9694 35.06C68.5919 35.06 68.0111 35.1473 67.227 35.3219L64.6569 35.8604V38.713L67.2125 38.1745L67.227 38.189Z" fill="white"/>
<path id="Vector_29" d="M64.6569 45.1603C64.6569 45.6987 64.4101 46.0189 63.9164 46.1208C63.4227 46.2227 63.1904 46.0044 63.1904 45.4659V35.5984C63.1904 35.3219 63.263 35.0891 63.3792 34.9144C63.4954 34.7398 63.6696 34.6234 63.8874 34.5797L67.2125 33.8666C68.708 33.5464 69.7825 33.5464 70.4504 33.8374C71.1183 34.1285 71.4523 34.7689 71.4523 35.7294C71.4523 36.7191 71.1619 37.5341 70.5811 38.1745C70.0003 38.8148 69.1581 39.2514 68.0546 39.4843L64.6569 40.1974V45.1457V45.1603ZM67.227 38.189C68.4031 37.9416 69.1581 37.6796 69.4921 37.4031C69.826 37.1557 70.0003 36.7482 70.0003 36.1515C70.0003 35.7585 69.9277 35.482 69.768 35.3074C69.6228 35.1473 69.3469 35.06 68.9694 35.06C68.5919 35.06 68.0111 35.1473 67.227 35.3219L64.6569 35.8604V38.713L67.2125 38.1745L67.227 38.189Z" stroke="white" stroke-width="0.5" stroke-miterlimit="10"/>
<path id="Vector_30" d="M78.0736 31.6544L82.2263 41.3181C82.2554 41.4345 82.2844 41.5655 82.2844 41.7401C82.2844 41.9002 82.2118 42.0603 82.0666 42.2204C81.9214 42.3805 81.7472 42.4824 81.5584 42.526C81.1954 42.5988 80.9486 42.4678 80.8034 42.1185L79.6418 39.3388L74.9373 40.343L73.7612 43.6176C73.6015 44.0251 73.3546 44.2579 73.0061 44.3307C72.8029 44.3744 72.6286 44.3452 72.4834 44.2434C72.3382 44.1415 72.2656 44.0105 72.2656 43.8504C72.2656 43.6758 72.2801 43.5302 72.3237 43.3993L76.5054 31.9746L78.0736 31.6398V31.6544ZM77.275 34.0266L75.5181 38.7566L79.0464 38.0144L77.275 34.0412V34.0266Z" fill="white"/>
<path id="Vector_31" d="M78.0736 31.6544L82.2263 41.3181C82.2554 41.4345 82.2844 41.5655 82.2844 41.7401C82.2844 41.9002 82.2118 42.0603 82.0666 42.2204C81.9214 42.3805 81.7472 42.4824 81.5584 42.526C81.1954 42.5988 80.9486 42.4678 80.8034 42.1185L79.6418 39.3388L74.9373 40.343L73.7612 43.6176C73.6015 44.0251 73.3546 44.2579 73.0061 44.3307C72.8029 44.3744 72.6286 44.3452 72.4834 44.2434C72.3382 44.1415 72.2656 44.0105 72.2656 43.8504C72.2656 43.6758 72.2801 43.5302 72.3237 43.3993L76.5054 31.9746L78.0736 31.6398V31.6544ZM77.275 34.0266L75.5181 38.7566L79.0464 38.0144L77.275 34.0412V34.0266Z" stroke="white" stroke-width="0.5" stroke-miterlimit="10"/>
<path id="Vector_32" d="M85.4212 40.7214C85.4212 41.289 85.1744 41.6091 84.6807 41.711C84.187 41.8129 83.9402 41.58 83.9547 41.027V31.145C83.9547 30.5774 84.2015 30.2427 84.6662 30.1408C85.1744 30.0244 85.4357 30.2572 85.4357 30.8394V34.5942L91.5051 33.299V29.5441C91.5051 28.9765 91.7519 28.6418 92.2456 28.5253C92.7393 28.4235 92.9716 28.6563 92.9716 29.2239V39.1059C92.9716 39.6589 92.7102 39.9937 92.2311 40.0956C91.7374 40.1974 91.5051 39.9646 91.5051 39.4115V34.7543L85.4357 36.0351V40.6923L85.4212 40.7214Z" fill="white"/>
<path id="Vector_33" d="M85.4212 40.7214C85.4212 41.289 85.1744 41.6091 84.6807 41.711C84.187 41.8129 83.9402 41.58 83.9547 41.027V31.145C83.9547 30.5774 84.2015 30.2427 84.6662 30.1408C85.1744 30.0244 85.4357 30.2572 85.4357 30.8394V34.5942L91.5051 33.299V29.5441C91.5051 28.9765 91.7519 28.6418 92.2456 28.5253C92.7393 28.4235 92.9716 28.6563 92.9716 29.2239V39.1059C92.9716 39.6589 92.7102 39.9937 92.2311 40.0956C91.7374 40.1974 91.5051 39.9646 91.5051 39.4115V34.7543L85.4357 36.0351V40.6923L85.4212 40.7214Z" stroke="white" stroke-width="0.5" stroke-miterlimit="10"/>
<path id="Vector_34" d="M100.435 26.9099L104.588 36.5736C104.617 36.69 104.646 36.821 104.646 36.9956C104.646 37.1557 104.573 37.3158 104.428 37.4759C104.283 37.636 104.108 37.7379 103.92 37.7815C103.557 37.8543 103.31 37.7233 103.165 37.374L102.003 34.5943L97.2986 35.5985L96.1225 38.8731C95.9628 39.2806 95.716 39.5134 95.3675 39.5862C95.1642 39.6298 94.99 39.6007 94.8448 39.4989C94.6996 39.397 94.627 39.266 94.627 39.1059C94.627 38.9313 94.6415 38.7857 94.685 38.6547L98.8668 27.2155L100.435 26.8808V26.9099ZM99.6363 29.2821L97.8939 34.0121L101.422 33.2699L99.6509 29.2967L99.6363 29.2821Z" fill="white"/>
<path id="Vector_35" d="M100.435 26.9099L104.588 36.5736C104.617 36.69 104.646 36.821 104.646 36.9956C104.646 37.1557 104.573 37.3158 104.428 37.4759C104.283 37.636 104.108 37.7379 103.92 37.7815C103.557 37.8543 103.31 37.7233 103.165 37.374L102.003 34.5943L97.2986 35.5985L96.1225 38.8731C95.9628 39.2806 95.716 39.5134 95.3675 39.5862C95.1642 39.6298 94.99 39.6007 94.8448 39.4989C94.6996 39.397 94.627 39.266 94.627 39.1059C94.627 38.9313 94.6415 38.7857 94.685 38.6547L98.8668 27.2155L100.435 26.8808V26.9099ZM99.6363 29.2821L97.8939 34.0121L101.422 33.2699L99.6509 29.2967L99.6363 29.2821Z" stroke="white" stroke-width="0.5" stroke-miterlimit="10"/>
<path id="Vector_36" d="M0 64.5168V83L147 51.3165V32.8478L0 64.5168Z" fill="#BA2B54"/>
<path id="Vector_37" d="M5.19824 67.7477C5.19824 67.4712 5.25632 67.2383 5.387 67.0637C5.51768 66.889 5.6774 66.7726 5.90972 66.7289L9.19123 66.0303C10.2221 65.812 11.0498 65.7393 11.6741 65.7975C12.2985 65.8702 12.7486 66.074 13.039 66.4378C13.3294 66.8017 13.4746 67.3402 13.4746 68.0388C13.4746 68.8392 13.2713 69.5087 12.8503 70.0472C13.7505 70.3819 14.2151 71.2406 14.2006 72.6377V72.9725C14.2006 73.8166 14.0554 74.5006 13.765 75.0391C13.4746 75.5776 13.01 76.0288 12.3566 76.3635C11.7177 76.7128 10.832 77.0039 9.69943 77.2367L5.8952 78.0372C5.6774 78.0808 5.50316 78.0372 5.387 77.9207C5.27084 77.7898 5.19824 77.586 5.19824 77.3095V67.7186V67.7477ZM6.66476 72.434V76.4217L9.69943 75.7813C10.5997 75.5921 11.2531 75.4029 11.6596 75.2283C12.0662 75.0537 12.3566 74.8208 12.5018 74.5297C12.647 74.2532 12.7341 73.8311 12.7341 73.2781V73.0016C12.7341 72.4485 12.6615 72.0701 12.5308 71.8518C12.4001 71.6335 12.1388 71.5171 11.7613 71.5025C11.3837 71.488 10.8029 71.5608 10.0189 71.7354L6.66476 72.4485V72.434ZM9.17671 70.4256C9.96079 70.2655 10.5416 70.0908 10.9336 69.9307C11.3257 69.7706 11.6015 69.5669 11.7613 69.334C11.921 69.1012 11.9936 68.781 11.9936 68.388C11.9936 67.9951 11.921 67.7186 11.7613 67.5585C11.6015 67.3984 11.3257 67.3256 10.9336 67.3256C10.5416 67.3256 9.94627 67.4129 9.17671 67.573L6.66476 68.1115V70.9641L9.17671 70.4256Z" fill="white"/>
<path id="Vector_38" d="M5.19824 67.7477C5.19824 67.4712 5.25632 67.2383 5.387 67.0637C5.51768 66.889 5.6774 66.7726 5.90972 66.7289L9.19123 66.0303C10.2221 65.812 11.0498 65.7393 11.6741 65.7975C12.2985 65.8702 12.7486 66.074 13.039 66.4378C13.3294 66.8017 13.4746 67.3402 13.4746 68.0388C13.4746 68.8392 13.2713 69.5087 12.8503 70.0472C13.7505 70.3819 14.2151 71.2406 14.2006 72.6377V72.9725C14.2006 73.8166 14.0554 74.5006 13.765 75.0391C13.4746 75.5776 13.01 76.0288 12.3566 76.3635C11.7177 76.7128 10.832 77.0039 9.69943 77.2367L5.8952 78.0372C5.6774 78.0808 5.50316 78.0372 5.387 77.9207C5.27084 77.7898 5.19824 77.586 5.19824 77.3095V67.7186V67.7477ZM6.66476 72.434V76.4217L9.69943 75.7813C10.5997 75.5921 11.2531 75.4029 11.6596 75.2283C12.0662 75.0537 12.3566 74.8208 12.5018 74.5297C12.647 74.2532 12.7341 73.8311 12.7341 73.2781V73.0016C12.7341 72.4485 12.6615 72.0701 12.5308 71.8518C12.4001 71.6335 12.1388 71.5171 11.7613 71.5025C11.3837 71.488 10.8029 71.5608 10.0189 71.7354L6.66476 72.4485V72.434ZM9.17671 70.4256C9.96079 70.2655 10.5416 70.0908 10.9336 69.9307C11.3257 69.7706 11.6015 69.5669 11.7613 69.334C11.921 69.1012 11.9936 68.781 11.9936 68.388C11.9936 67.9951 11.921 67.7186 11.7613 67.5585C11.6015 67.3984 11.3257 67.3256 10.9336 67.3256C10.5416 67.3256 9.94627 67.4129 9.17671 67.573L6.66476 68.1115V70.9641L9.17671 70.4256Z" stroke="white" stroke-width="0.5" stroke-miterlimit="10"/>
<path id="Vector_39" d="M25.0756 69.858C25.0756 70.7167 24.8869 71.5171 24.5239 72.2448C24.1609 72.9725 23.6381 73.5837 22.9557 74.0786C22.2733 74.5734 21.4747 74.9227 20.5744 75.1119C19.6742 75.3011 18.8756 75.3011 18.1932 75.0973C17.5107 74.8936 16.988 74.5006 16.625 73.933C16.262 73.3654 16.0732 72.6523 16.0732 71.7791V68.7082C16.0732 67.8496 16.262 67.0491 16.625 66.3214C16.988 65.5937 17.5107 64.9825 18.1932 64.4877C18.8756 63.9928 19.6742 63.6435 20.5744 63.4543C21.4747 63.2651 22.2733 63.2651 22.9557 63.4689C23.6381 63.6726 24.1609 64.0656 24.5239 64.6332C24.8869 65.2008 25.0756 65.9139 25.0756 66.7871V69.8725V69.858ZM20.5744 64.9243C19.5871 65.128 18.832 65.5355 18.3093 66.1322C17.7866 66.7289 17.5398 67.5003 17.5252 68.4317V71.4007C17.5252 72.3321 17.7721 72.987 18.2948 73.3654C18.803 73.7438 19.558 73.8312 20.5454 73.6129C21.5327 73.4091 22.2878 73.0016 22.8105 72.4049C23.3332 71.8082 23.5801 71.0368 23.5946 70.1054V67.1364C23.5946 66.2341 23.3477 65.5792 22.8541 65.1571C22.3313 64.7787 21.5763 64.6914 20.5744 64.9097" fill="white"/>
<path id="Vector_40" d="M25.0756 69.858C25.0756 70.7167 24.8869 71.5171 24.5239 72.2448C24.1609 72.9725 23.6381 73.5837 22.9557 74.0786C22.2733 74.5734 21.4747 74.9227 20.5744 75.1119C19.6742 75.3011 18.8756 75.3011 18.1932 75.0973C17.5107 74.8936 16.988 74.5006 16.625 73.933C16.262 73.3654 16.0732 72.6523 16.0732 71.7791V68.7082C16.0732 67.8496 16.262 67.0491 16.625 66.3214C16.988 65.5937 17.5107 64.9825 18.1932 64.4877C18.8756 63.9928 19.6742 63.6435 20.5744 63.4543C21.4747 63.2651 22.2733 63.2651 22.9557 63.4689C23.6381 63.6726 24.1609 64.0656 24.5239 64.6332C24.8869 65.2008 25.0756 65.9139 25.0756 66.7871V69.8725V69.858ZM20.5744 64.9243C19.5871 65.128 18.832 65.5355 18.3093 66.1322C17.7866 66.7289 17.5398 67.5003 17.5252 68.4317V71.4007C17.5252 72.3321 17.7721 72.987 18.2948 73.3654C18.803 73.7438 19.558 73.8312 20.5454 73.6129C21.5327 73.4091 22.2878 73.0016 22.8105 72.4049C23.3332 71.8082 23.5801 71.0368 23.5946 70.1054V67.1364C23.5946 66.2341 23.3477 65.5792 22.8541 65.1571C22.3313 64.7787 21.5763 64.6914 20.5744 64.9097V64.9243Z" stroke="white" stroke-width="0.5" stroke-miterlimit="10"/>
<path id="Vector_41" d="M32.3503 65.8702C33.0037 65.7247 33.5119 65.4773 33.9039 65.1134C34.2814 64.7496 34.4847 64.3275 34.4847 63.8618C34.4847 63.3524 34.2814 62.974 33.8603 62.7412C33.4538 62.5083 32.9165 62.4647 32.2777 62.5956L29.0833 63.2651C28.8074 63.3233 28.6186 63.4107 28.5315 63.5271C28.4444 63.6435 28.4008 63.8473 28.4008 64.1675V64.4876C28.4008 65.0843 28.154 65.4336 27.6603 65.5355C27.1666 65.6374 26.9198 65.39 26.9198 64.7933C26.9198 63.8618 27.0795 63.1778 27.3699 62.7266C27.6748 62.29 28.1975 61.9844 28.9381 61.8243L32.3793 61.0966C33.0763 60.9511 33.6861 60.9511 34.2233 61.0966C34.7606 61.2421 35.1671 61.5187 35.472 61.9116C35.7624 62.3191 35.9222 62.814 35.9076 63.4252C35.9076 64.4585 35.5301 65.3463 34.7896 66.0885C35.5301 66.5979 35.9076 67.3693 35.9076 68.4171C35.9076 69.0284 35.7479 69.6251 35.4575 70.1781C35.1526 70.7312 34.7315 71.2115 34.1943 71.6044C33.657 71.9974 33.0472 72.2739 32.3648 72.4049L28.9235 73.1326C28.183 73.2926 27.6603 73.2053 27.3554 72.8997C27.0505 72.5795 26.9053 71.9683 26.9053 71.0223C26.9053 70.4256 27.1521 70.0763 27.6458 69.9744C28.1395 69.8725 28.3863 70.1199 28.3863 70.7166V71.0368C28.3863 71.357 28.4299 71.5462 28.517 71.619C28.6041 71.6917 28.7929 71.7063 29.0687 71.6481L32.2631 70.9786C32.8875 70.8476 33.4102 70.5565 33.8313 70.0908C34.2524 69.6397 34.4556 69.1448 34.4556 68.6063C34.4556 68.097 34.2524 67.7186 33.8603 67.4857C33.4683 67.2528 32.9601 67.1946 32.3212 67.3256L30.8257 67.6458C30.2158 67.7768 29.9254 67.5876 29.9254 67.1073C29.9254 66.627 30.2303 66.3069 30.8402 66.1759L32.3357 65.8557L32.3503 65.8702Z" fill="white"/>
<path id="Vector_42" d="M32.3503 65.8702C33.0037 65.7247 33.5119 65.4773 33.9039 65.1134C34.2814 64.7496 34.4847 64.3275 34.4847 63.8618C34.4847 63.3524 34.2814 62.974 33.8603 62.7412C33.4538 62.5083 32.9165 62.4647 32.2777 62.5956L29.0833 63.2651C28.8074 63.3233 28.6186 63.4107 28.5315 63.5271C28.4444 63.6435 28.4008 63.8473 28.4008 64.1675V64.4876C28.4008 65.0843 28.154 65.4336 27.6603 65.5355C27.1666 65.6374 26.9198 65.39 26.9198 64.7933C26.9198 63.8618 27.0795 63.1778 27.3699 62.7266C27.6748 62.29 28.1975 61.9844 28.9381 61.8243L32.3793 61.0966C33.0763 60.9511 33.6861 60.9511 34.2233 61.0966C34.7606 61.2421 35.1671 61.5187 35.472 61.9116C35.7624 62.3191 35.9222 62.814 35.9076 63.4252C35.9076 64.4585 35.5301 65.3463 34.7896 66.0885C35.5301 66.5979 35.9076 67.3693 35.9076 68.4171C35.9076 69.0284 35.7479 69.6251 35.4575 70.1781C35.1526 70.7312 34.7315 71.2115 34.1943 71.6044C33.657 71.9974 33.0472 72.2739 32.3648 72.4049L28.9235 73.1326C28.183 73.2926 27.6603 73.2053 27.3554 72.8997C27.0505 72.5795 26.9053 71.9683 26.9053 71.0223C26.9053 70.4256 27.1521 70.0763 27.6458 69.9744C28.1395 69.8725 28.3863 70.1199 28.3863 70.7166V71.0368C28.3863 71.357 28.4299 71.5462 28.517 71.619C28.6041 71.6917 28.7929 71.7063 29.0687 71.6481L32.2631 70.9786C32.8875 70.8476 33.4102 70.5565 33.8313 70.0908C34.2524 69.6397 34.4556 69.1448 34.4556 68.6063C34.4556 68.097 34.2524 67.7186 33.8603 67.4857C33.4683 67.2528 32.9601 67.1946 32.3212 67.3256L30.8257 67.6458C30.2158 67.7768 29.9254 67.5876 29.9254 67.1073C29.9254 66.627 30.2303 66.3069 30.8402 66.1759L32.3357 65.8557L32.3503 65.8702Z" stroke="white" stroke-width="0.5" stroke-miterlimit="10"/>
<path id="Vector_43" d="M43.5746 64.9388C43.4149 65.1426 43.2261 65.259 43.0083 65.3027C42.7905 65.3463 42.6017 65.3027 42.4275 65.1862L39.7849 61.9553V70.1054C39.7849 70.7021 39.538 71.0514 39.0444 71.1533C38.5507 71.2551 38.3184 71.0223 38.3184 70.4692V60.5872C38.3184 60.0197 38.5652 59.6849 39.0298 59.583C39.3202 59.5248 39.5671 59.6267 39.7849 59.8741L43.0083 63.7163L46.2608 58.477C46.4786 58.1422 46.7254 57.9385 47.0013 57.8802C47.4804 57.7784 47.7128 58.0112 47.7128 58.5788V68.4608C47.7128 69.0139 47.4659 69.3486 46.9722 69.4505C46.4786 69.5524 46.2317 69.3049 46.2317 68.7082V60.5581L43.5891 64.9097L43.5746 64.9388Z" fill="white"/>
<path id="Vector_44" d="M43.5746 64.9388C43.4149 65.1426 43.2261 65.259 43.0083 65.3027C42.7905 65.3463 42.6017 65.3027 42.4275 65.1862L39.7849 61.9553V70.1054C39.7849 70.7021 39.538 71.0514 39.0444 71.1533C38.5507 71.2551 38.3184 71.0223 38.3184 70.4692V60.5872C38.3184 60.0197 38.5652 59.6849 39.0298 59.583C39.3202 59.5248 39.5671 59.6267 39.7849 59.8741L43.0083 63.7163L46.2608 58.477C46.4786 58.1422 46.7254 57.9385 47.0013 57.8802C47.4804 57.7784 47.7128 58.0112 47.7128 58.5788V68.4608C47.7128 69.0139 47.4659 69.3486 46.9722 69.4505C46.4786 69.5524 46.2317 69.3049 46.2317 68.7082V60.5581L43.5891 64.9097L43.5746 64.9388Z" stroke="white" stroke-width="0.5" stroke-miterlimit="10"/>
<path id="Vector_45" d="M59.0668 62.6539C59.0668 63.5125 58.8781 64.313 58.5151 65.0407C58.1521 65.7684 57.6294 66.3796 56.9469 66.8744C56.2645 67.3693 55.4659 67.7186 54.5656 67.9078C53.6654 68.097 52.8668 68.097 52.1844 67.8932C51.5019 67.6895 50.9792 67.2965 50.6162 66.7289C50.2532 66.1613 50.0645 65.4482 50.0645 64.5749V61.5041C50.0645 60.6454 50.2532 59.845 50.6162 59.1173C50.9792 58.3896 51.5019 57.7784 52.1844 57.2835C52.8668 56.7887 53.6654 56.4394 54.5656 56.2502C55.4659 56.061 56.2645 56.061 56.9469 56.2648C57.6294 56.4685 58.1521 56.8615 58.5151 57.4291C58.8781 57.9967 59.0668 58.7098 59.0668 59.583V62.6684V62.6539ZM54.5656 57.7201C53.5783 57.9239 52.8232 58.3314 52.3005 58.9281C51.7778 59.5248 51.531 60.2961 51.5164 61.2276V64.1966C51.5164 65.128 51.7633 65.7829 52.286 66.1613C52.7942 66.5397 53.5492 66.627 54.5366 66.4087C55.524 66.205 56.279 65.7975 56.8017 65.2008C57.3244 64.6041 57.5713 63.8327 57.5858 62.9013V59.9323C57.5858 59.03 57.339 58.3751 56.8453 57.953C56.3226 57.5746 55.5675 57.4873 54.5656 57.7056" fill="white"/>
<path id="Vector_46" d="M59.0668 62.6539C59.0668 63.5125 58.8781 64.313 58.5151 65.0407C58.1521 65.7684 57.6294 66.3796 56.9469 66.8744C56.2645 67.3693 55.4659 67.7186 54.5656 67.9078C53.6654 68.097 52.8668 68.097 52.1844 67.8932C51.5019 67.6895 50.9792 67.2965 50.6162 66.7289C50.2532 66.1613 50.0645 65.4482 50.0645 64.5749V61.5041C50.0645 60.6454 50.2532 59.845 50.6162 59.1173C50.9792 58.3896 51.5019 57.7784 52.1844 57.2835C52.8668 56.7887 53.6654 56.4394 54.5656 56.2502C55.4659 56.061 56.2645 56.061 56.9469 56.2648C57.6294 56.4685 58.1521 56.8615 58.5151 57.4291C58.8781 57.9967 59.0668 58.7098 59.0668 59.583V62.6684V62.6539ZM54.5656 57.7201C53.5783 57.9239 52.8232 58.3314 52.3005 58.9281C51.7778 59.5248 51.531 60.2961 51.5164 61.2276V64.1966C51.5164 65.128 51.7633 65.7829 52.286 66.1613C52.7942 66.5397 53.5492 66.627 54.5366 66.4087C55.524 66.205 56.279 65.7975 56.8017 65.2008C57.3244 64.6041 57.5713 63.8327 57.5858 62.9013V59.9323C57.5858 59.03 57.339 58.3751 56.8453 57.953C56.3226 57.5746 55.5675 57.4873 54.5656 57.7056V57.7201Z" stroke="white" stroke-width="0.5" stroke-miterlimit="10"/>
<path id="Vector_47" d="M67.9676 60.3398V64.2111C67.9676 64.444 67.895 64.6477 67.7353 64.8369C67.5901 65.0261 67.3868 65.1426 67.1545 65.1862C66.9367 65.2299 66.7624 65.1862 66.6172 65.0698C66.4866 64.9534 66.414 64.7642 66.414 64.5313V60.66L66.2978 60.6891C65.7896 60.8055 65.354 61.0238 64.991 61.3731C64.628 61.7224 64.3667 62.159 64.2069 62.7121C64.1053 63.0323 63.9601 63.5271 63.7713 64.1675C63.5826 64.7496 63.3067 65.2444 62.9292 65.6228C62.5517 66.0012 62.1015 66.2486 61.5788 66.3651C61.3029 66.4233 61.0851 66.4087 60.9109 66.3069C60.7367 66.205 60.6641 66.0449 60.6641 65.8266C60.6641 65.3318 60.969 65.0261 61.5643 64.8951C61.6224 64.8951 61.6805 64.8224 61.7531 64.7351C61.8111 64.6332 61.8692 64.5167 61.9128 64.3567C62.087 63.7891 62.2177 63.3524 62.3048 63.0177C62.4355 62.4938 62.6823 61.9407 63.0599 61.3731C63.4374 60.8055 63.873 60.3544 64.3667 60.0196C64.1053 59.7577 63.7713 59.3211 63.3938 58.7244C62.9727 58.084 62.6243 57.5746 62.3484 57.2399C62.087 56.9051 61.8257 56.7596 61.5643 56.7887C61.2884 56.8324 61.0706 56.8178 60.9109 56.7159C60.7512 56.6141 60.6786 56.454 60.6786 56.2211C60.6786 55.7408 60.9545 55.4498 61.5207 55.3188C61.9709 55.2169 62.421 55.2751 62.8566 55.4934C63.2922 55.6972 63.7133 56.061 64.0908 56.5558C64.3521 56.9197 64.6571 57.3417 64.9765 57.822C65.2814 58.3023 65.5428 58.6516 65.7606 58.8844C65.9638 59.161 66.1526 59.2774 66.3123 59.2337L66.414 59.2046V55.1441C66.414 54.8822 66.4866 54.6493 66.6318 54.4747C66.777 54.3 66.9512 54.1836 67.198 54.1254C67.7062 54.0235 67.9676 54.2418 67.9676 54.8239V58.8844L68.0692 58.8553C68.2144 58.8262 68.4032 58.6225 68.65 58.2586C68.8388 57.9821 69.1002 57.5164 69.4486 56.8615C69.8407 56.1192 70.1746 55.5225 70.465 55.0423C70.7554 54.562 71.0894 54.1254 71.4814 53.7324C71.9315 53.2813 72.3817 53.0193 72.8318 52.9174C73.1077 52.8592 73.3255 52.8738 73.4997 52.9756C73.6594 53.0775 73.7465 53.2376 73.7465 53.4559C73.7465 53.6742 73.6739 53.8634 73.5142 54.0235C73.369 54.1836 73.1367 54.3 72.8463 54.3728C72.5849 54.4456 72.3091 54.7221 72.0477 55.1732C71.7573 55.6244 71.4088 56.2648 71.0023 57.0943C70.6248 57.822 70.3053 58.3896 70.0294 58.8117C70.3924 58.899 70.7119 59.0445 71.0168 59.2628C71.3072 59.4812 71.5395 59.7286 71.6847 60.0342C72.0041 60.6018 72.2365 61.1985 72.3817 61.7952C72.4252 62.0572 72.4978 62.2464 72.5704 62.3628C72.6575 62.4792 72.7447 62.5374 72.8318 62.5229C73.0931 62.4647 73.3109 62.4792 73.4852 62.5811C73.6594 62.683 73.732 62.8431 73.732 63.0614C73.732 63.5562 73.4126 63.8618 72.7882 63.9928C72.2655 64.1092 71.8154 64.051 71.4379 63.8327C71.0604 63.6144 70.7845 63.236 70.6248 62.7266C70.5522 62.5374 70.5086 62.3773 70.4941 62.29C70.3198 61.8097 70.1601 61.4168 70.0294 61.1548C69.8988 60.8929 69.71 60.66 69.4632 60.4854C69.1147 60.2671 68.6646 60.2234 68.0983 60.3398L67.9821 60.3689L67.9676 60.3398Z" fill="white"/>
<path id="Vector_48" d="M67.9676 60.3398V64.2111C67.9676 64.444 67.895 64.6477 67.7353 64.8369C67.5901 65.0261 67.3868 65.1426 67.1545 65.1862C66.9367 65.2299 66.7624 65.1862 66.6172 65.0698C66.4866 64.9534 66.414 64.7642 66.414 64.5313V60.66L66.2978 60.6891C65.7896 60.8055 65.354 61.0238 64.991 61.3731C64.628 61.7224 64.3667 62.159 64.2069 62.7121C64.1053 63.0323 63.9601 63.5271 63.7713 64.1675C63.5826 64.7496 63.3067 65.2444 62.9292 65.6228C62.5517 66.0012 62.1015 66.2486 61.5788 66.3651C61.3029 66.4233 61.0851 66.4087 60.9109 66.3069C60.7367 66.205 60.6641 66.0449 60.6641 65.8266C60.6641 65.3318 60.969 65.0261 61.5643 64.8951C61.6224 64.8951 61.6805 64.8224 61.7531 64.7351C61.8111 64.6332 61.8692 64.5167 61.9128 64.3567C62.087 63.7891 62.2177 63.3524 62.3048 63.0177C62.4355 62.4938 62.6823 61.9407 63.0599 61.3731C63.4374 60.8055 63.873 60.3544 64.3667 60.0196C64.1053 59.7577 63.7713 59.3211 63.3938 58.7244C62.9727 58.084 62.6243 57.5746 62.3484 57.2399C62.087 56.9051 61.8257 56.7596 61.5643 56.7887C61.2884 56.8324 61.0706 56.8178 60.9109 56.7159C60.7512 56.6141 60.6786 56.454 60.6786 56.2211C60.6786 55.7408 60.9545 55.4498 61.5207 55.3188C61.9709 55.2169 62.421 55.2751 62.8566 55.4934C63.2922 55.6972 63.7133 56.061 64.0908 56.5558C64.3521 56.9197 64.6571 57.3417 64.9765 57.822C65.2814 58.3023 65.5428 58.6516 65.7606 58.8844C65.9638 59.161 66.1526 59.2774 66.3123 59.2337L66.414 59.2046V55.1441C66.414 54.8822 66.4866 54.6493 66.6318 54.4747C66.777 54.3 66.9512 54.1836 67.198 54.1254C67.7062 54.0235 67.9676 54.2418 67.9676 54.8239V58.8844L68.0692 58.8553C68.2144 58.8262 68.4032 58.6225 68.65 58.2586C68.8388 57.9821 69.1002 57.5164 69.4486 56.8615C69.8407 56.1192 70.1746 55.5225 70.465 55.0423C70.7554 54.562 71.0894 54.1254 71.4814 53.7324C71.9315 53.2813 72.3817 53.0193 72.8318 52.9174C73.1077 52.8592 73.3255 52.8738 73.4997 52.9756C73.6594 53.0775 73.7465 53.2376 73.7465 53.4559C73.7465 53.6742 73.6739 53.8634 73.5142 54.0235C73.369 54.1836 73.1367 54.3 72.8463 54.3728C72.5849 54.4456 72.3091 54.7221 72.0477 55.1732C71.7573 55.6244 71.4088 56.2648 71.0023 57.0943C70.6248 57.822 70.3053 58.3896 70.0294 58.8117C70.3924 58.899 70.7119 59.0445 71.0168 59.2628C71.3072 59.4812 71.5395 59.7286 71.6847 60.0342C72.0041 60.6018 72.2365 61.1985 72.3817 61.7952C72.4252 62.0572 72.4978 62.2464 72.5704 62.3628C72.6575 62.4792 72.7447 62.5374 72.8318 62.5229C73.0931 62.4647 73.3109 62.4792 73.4852 62.5811C73.6594 62.683 73.732 62.8431 73.732 63.0614C73.732 63.5562 73.4126 63.8618 72.7882 63.9928C72.2655 64.1092 71.8154 64.051 71.4379 63.8327C71.0604 63.6144 70.7845 63.236 70.6248 62.7266C70.5522 62.5374 70.5086 62.3773 70.4941 62.29C70.3198 61.8097 70.1601 61.4168 70.0294 61.1548C69.8988 60.8929 69.71 60.66 69.4632 60.4854C69.1147 60.2671 68.6646 60.2234 68.0983 60.3398L67.9821 60.3689L67.9676 60.3398Z" stroke="white" stroke-width="0.5" stroke-miterlimit="10"/>
<path id="Vector_49" d="M77.1449 62.2318C77.1449 62.7994 76.898 63.1196 76.4043 63.2215C75.9107 63.3233 75.6638 63.0905 75.6783 62.5374V52.6554C75.6783 52.0878 75.9252 51.7531 76.3898 51.6512C76.898 51.5348 77.1594 51.7677 77.1594 52.3498V56.1047L83.2287 54.8239V51.0691C83.2287 50.5015 83.4756 50.1668 83.9692 50.0503C84.4629 49.9484 84.7098 50.1813 84.7098 50.7489V60.6309C84.7098 61.1839 84.4484 61.5187 83.9692 61.6206C83.4756 61.7224 83.2432 61.5041 83.2432 60.9365V56.2793L77.1739 57.5746V62.2318H77.1449Z" fill="white"/>
<path id="Vector_50" d="M77.1449 62.2318C77.1449 62.7994 76.898 63.1196 76.4043 63.2215C75.9107 63.3233 75.6638 63.0905 75.6783 62.5374V52.6554C75.6783 52.0878 75.9252 51.7531 76.3898 51.6512C76.898 51.5348 77.1594 51.7677 77.1594 52.3498V56.1047L83.2287 54.8239V51.0691C83.2287 50.5015 83.4756 50.1668 83.9692 50.0503C84.4629 49.9484 84.7098 50.1813 84.7098 50.7489V60.6309C84.7098 61.1839 84.4484 61.5187 83.9692 61.6206C83.4756 61.7224 83.2432 61.5041 83.2432 60.9365V56.2793L77.1739 57.5746V62.2318H77.1449Z" stroke="white" stroke-width="0.5" stroke-miterlimit="10"/>
<path id="Vector_51" d="M96.0492 54.8094C96.0492 55.6681 95.8605 56.4685 95.4975 57.1962C95.1345 57.9239 94.6118 58.5352 93.9293 59.03C93.2469 59.5248 92.4483 59.8741 91.5481 60.0633C90.6478 60.2525 89.8492 60.2525 89.1668 60.0487C88.4843 59.845 87.9616 59.452 87.5986 58.8845C87.2356 58.3169 87.0469 57.6037 87.0469 56.7305V53.6597C87.0469 52.801 87.2356 52.0005 87.5986 51.2728C87.9616 50.5452 88.4843 49.9339 89.1668 49.4391C89.8492 48.9442 90.6478 48.595 91.5481 48.4058C92.4483 48.2166 93.2469 48.2166 93.9293 48.4203C94.6118 48.6241 95.1345 49.017 95.4975 49.5846C95.8605 50.1522 96.0492 50.8653 96.0492 51.7386V54.824V54.8094ZM91.5481 49.8757C90.5607 50.0794 89.8057 50.4869 89.2829 51.0836C88.7602 51.6803 88.5134 52.4517 88.4989 53.3831V56.3521C88.4989 57.2835 88.7457 57.9385 89.2684 58.3169C89.7766 58.6953 90.5317 58.7826 91.519 58.5643C92.5064 58.3605 93.2614 57.953 93.7841 57.3563C94.3068 56.7596 94.5537 55.9883 94.5682 55.0568V52.0879C94.5682 51.1855 94.3214 50.5306 93.8277 50.1085C93.305 49.7301 92.5499 49.6428 91.5481 49.8611" fill="white"/>
<path id="Vector_52" d="M96.0492 54.8094C96.0492 55.6681 95.8605 56.4685 95.4975 57.1962C95.1345 57.9239 94.6118 58.5352 93.9293 59.03C93.2469 59.5248 92.4483 59.8741 91.5481 60.0633C90.6478 60.2525 89.8492 60.2525 89.1668 60.0487C88.4843 59.845 87.9616 59.452 87.5986 58.8845C87.2356 58.3169 87.0469 57.6037 87.0469 56.7305V53.6597C87.0469 52.801 87.2356 52.0005 87.5986 51.2728C87.9616 50.5452 88.4843 49.9339 89.1668 49.4391C89.8492 48.9442 90.6478 48.595 91.5481 48.4058C92.4483 48.2166 93.2469 48.2166 93.9293 48.4203C94.6118 48.6241 95.1345 49.017 95.4975 49.5846C95.8605 50.1522 96.0492 50.8653 96.0492 51.7386V54.824V54.8094ZM91.5481 49.8757C90.5607 50.0794 89.8057 50.4869 89.2829 51.0836C88.7602 51.6803 88.5134 52.4517 88.4989 53.3831V56.3521C88.4989 57.2835 88.7457 57.9385 89.2684 58.3169C89.7766 58.6953 90.5317 58.7826 91.519 58.5643C92.5064 58.3605 93.2614 57.953 93.7841 57.3563C94.3068 56.7596 94.5537 55.9883 94.5682 55.0568V52.0879C94.5682 51.1855 94.3214 50.5306 93.8277 50.1085C93.305 49.7301 92.5499 49.6428 91.5481 49.8611V49.8757Z" stroke="white" stroke-width="0.5" stroke-miterlimit="10"/>
<path id="Vector_53" d="M102.714 57.5164C101.581 57.7638 100.681 57.8366 100.042 57.7638C99.3889 57.691 98.9242 57.4436 98.6338 57.0216C98.3434 56.5995 98.1982 55.9737 98.1982 55.1441V50.4578C98.1982 49.6283 98.3434 48.9442 98.6193 48.4058C98.8952 47.8673 99.3308 47.4307 99.9406 47.0814C100.55 46.7321 101.378 46.4556 102.409 46.2373L105.182 45.6551C105.865 45.5096 106.373 45.5823 106.707 45.8589C107.041 46.1354 107.201 46.6448 107.201 47.3724C107.201 48.0274 106.954 48.4058 106.46 48.5076C106.228 48.5513 106.054 48.5076 105.923 48.3767C105.792 48.2457 105.734 48.0274 105.734 47.7363C105.734 47.4452 105.691 47.256 105.589 47.1832C105.502 47.1105 105.313 47.0959 105.052 47.1541L102.395 47.7217C101.596 47.8964 101.001 48.071 100.638 48.2311C100.26 48.4058 100.013 48.6386 99.868 48.9297C99.7228 49.2208 99.6648 49.6428 99.6648 50.1813V54.7949C99.6648 55.3625 99.7374 55.7408 99.8826 55.9737C100.028 56.192 100.304 56.3084 100.725 56.323C101.146 56.323 101.799 56.2357 102.714 56.0465L105.052 55.5516C105.313 55.4934 105.502 55.4061 105.589 55.2897C105.676 55.1733 105.734 54.9695 105.734 54.6784C105.734 54.3873 105.792 54.1399 105.923 53.9507C106.054 53.7615 106.228 53.6451 106.46 53.5869C106.954 53.4996 107.186 53.7761 107.186 54.431C107.186 55.1587 107.012 55.7263 106.692 56.1484C106.358 56.5704 105.85 56.8469 105.168 56.9925L102.714 57.5164Z" fill="white"/>
<path id="Vector_54" d="M102.714 57.5164C101.581 57.7638 100.681 57.8366 100.042 57.7638C99.3889 57.691 98.9242 57.4436 98.6338 57.0216C98.3434 56.5995 98.1982 55.9737 98.1982 55.1441V50.4578C98.1982 49.6283 98.3434 48.9442 98.6193 48.4058C98.8952 47.8673 99.3308 47.4307 99.9406 47.0814C100.55 46.7321 101.378 46.4556 102.409 46.2373L105.182 45.6551C105.865 45.5096 106.373 45.5823 106.707 45.8589C107.041 46.1354 107.201 46.6448 107.201 47.3724C107.201 48.0274 106.954 48.4058 106.46 48.5076C106.228 48.5513 106.054 48.5076 105.923 48.3767C105.792 48.2457 105.734 48.0274 105.734 47.7363C105.734 47.4452 105.691 47.256 105.589 47.1832C105.502 47.1105 105.313 47.0959 105.052 47.1541L102.395 47.7217C101.596 47.8964 101.001 48.071 100.638 48.2311C100.26 48.4058 100.013 48.6386 99.868 48.9297C99.7228 49.2208 99.6648 49.6428 99.6648 50.1813V54.7949C99.6648 55.3625 99.7374 55.7408 99.8826 55.9737C100.028 56.192 100.304 56.3084 100.725 56.323C101.146 56.323 101.799 56.2357 102.714 56.0465L105.052 55.5516C105.313 55.4934 105.502 55.4061 105.589 55.2897C105.676 55.1733 105.734 54.9695 105.734 54.6784C105.734 54.3873 105.792 54.1399 105.923 53.9507C106.054 53.7615 106.228 53.6451 106.46 53.5869C106.954 53.4996 107.186 53.7761 107.186 54.431C107.186 55.1587 107.012 55.7263 106.692 56.1484C106.358 56.5704 105.85 56.8469 105.168 56.9925L102.714 57.5164Z" stroke="white" stroke-width="0.5" stroke-miterlimit="10"/>
<path id="Vector_55" d="M115.927 43.3847C116.494 43.2683 116.784 43.4429 116.784 43.9377C116.784 44.4326 116.494 44.7382 115.927 44.8546L113.445 45.3786V54.562C113.445 54.7948 113.357 54.9986 113.198 55.1878C113.038 55.377 112.835 55.4934 112.573 55.5516C112.312 55.6098 112.123 55.5807 111.978 55.4643C111.833 55.3479 111.775 55.1732 111.775 54.9113V45.7279L109.277 46.2663C109.016 46.3246 108.798 46.2955 108.653 46.1936C108.508 46.0917 108.421 45.9316 108.435 45.7133C108.435 45.495 108.508 45.2912 108.667 45.1312C108.813 44.9711 109.03 44.8546 109.292 44.7964L115.942 43.3847H115.927Z" fill="white"/>
<path id="Vector_56" d="M115.927 43.3847C116.494 43.2683 116.784 43.4429 116.784 43.9377C116.784 44.4326 116.494 44.7382 115.927 44.8546L113.445 45.3786V54.562C113.445 54.7948 113.357 54.9986 113.198 55.1878C113.038 55.377 112.835 55.4934 112.573 55.5516C112.312 55.6098 112.123 55.5807 111.978 55.4643C111.833 55.3479 111.775 55.1732 111.775 54.9113V45.7279L109.277 46.2663C109.016 46.3246 108.798 46.2955 108.653 46.1936C108.508 46.0917 108.421 45.9316 108.435 45.7133C108.435 45.495 108.508 45.2912 108.667 45.1312C108.813 44.9711 109.03 44.8546 109.292 44.7964L115.942 43.3847H115.927Z" stroke="white" stroke-width="0.5" stroke-miterlimit="10"/>
<path id="Vector_57" d="M119.978 48.2311V52.3935L126.643 50.9817C126.919 50.9235 127.137 50.9381 127.296 51.04C127.441 51.1418 127.529 51.3165 127.529 51.5639C127.529 51.7822 127.456 51.9714 127.296 52.1315C127.151 52.2916 126.933 52.3935 126.643 52.4517L119.209 54.0235C118.991 54.0671 118.817 54.0235 118.7 53.9071C118.584 53.7761 118.512 53.5723 118.512 53.2958V43.7049C118.512 43.4284 118.584 43.1955 118.7 43.0208C118.831 42.8462 118.991 42.7298 119.209 42.6861L126.643 41.1143C126.919 41.0561 127.137 41.0707 127.282 41.1725C127.427 41.2744 127.514 41.449 127.514 41.6965C127.514 41.9148 127.441 42.104 127.282 42.2641C127.122 42.4241 126.919 42.526 126.628 42.5842L119.964 43.996V46.7612L124.479 45.8006C124.799 45.7278 125.031 45.7424 125.205 45.8443C125.365 45.9316 125.452 46.1062 125.452 46.3682C125.452 46.8339 125.133 47.1396 124.479 47.2705L119.964 48.2311H119.978Z" fill="white"/>
<path id="Vector_58" d="M119.978 48.2311V52.3935L126.643 50.9817C126.919 50.9235 127.137 50.9381 127.296 51.04C127.441 51.1418 127.529 51.3165 127.529 51.5639C127.529 51.7822 127.456 51.9714 127.296 52.1315C127.151 52.2916 126.933 52.3935 126.643 52.4517L119.209 54.0235C118.991 54.0671 118.817 54.0235 118.7 53.9071C118.584 53.7761 118.512 53.5723 118.512 53.2958V43.7049C118.512 43.4284 118.584 43.1955 118.7 43.0208C118.831 42.8462 118.991 42.7298 119.209 42.6861L126.643 41.1143C126.919 41.0561 127.137 41.0707 127.282 41.1725C127.427 41.2744 127.514 41.449 127.514 41.6965C127.514 41.9148 127.441 42.104 127.282 42.2641C127.122 42.4241 126.919 42.526 126.628 42.5842L119.964 43.996V46.7612L124.479 45.8006C124.799 45.7278 125.031 45.7424 125.205 45.8443C125.365 45.9316 125.452 46.1062 125.452 46.3682C125.452 46.8339 125.133 47.1396 124.479 47.2705L119.964 48.2311H119.978Z" stroke="white" stroke-width="0.5" stroke-miterlimit="10"/>
<path id="Vector_59" d="M129.605 51.0982V41.2162C129.605 40.6486 129.852 40.3139 130.346 40.1974C130.84 40.0956 131.072 40.343 131.072 40.9542V49.0024L137.156 39.1932C137.374 38.8585 137.62 38.6547 137.911 38.5965C138.376 38.4946 138.608 38.7421 138.608 39.3097V49.1916C138.608 49.7447 138.346 50.0794 137.867 50.1813C137.374 50.2832 137.141 50.0794 137.141 49.5555V41.4054L131.116 51.1273C130.97 51.3602 130.854 51.5057 130.753 51.593C130.651 51.6803 130.506 51.7386 130.317 51.7822C129.838 51.8841 129.605 51.6512 129.605 51.0982ZM133.032 40.0519C132.35 40.1974 131.871 40.1247 131.58 39.8336C131.304 39.5425 131.159 38.9749 131.159 38.1162V37.3594L132.626 37.0538V38.0871C132.626 38.3491 132.655 38.4946 132.713 38.5529C132.771 38.6111 132.916 38.6111 133.163 38.5529L134.949 38.1745C135.181 38.1308 135.326 38.058 135.384 37.9853C135.442 37.9125 135.472 37.7378 135.472 37.4904V36.4571L136.938 36.1515V36.9083C136.938 37.767 136.793 38.4073 136.517 38.8003C136.241 39.2078 135.747 39.4843 135.065 39.6298L133.018 40.0664L133.032 40.0519Z" fill="white"/>
<path id="Vector_60" d="M129.605 51.0982V41.2162C129.605 40.6486 129.852 40.3139 130.346 40.1974C130.84 40.0956 131.072 40.343 131.072 40.9542V49.0024L137.156 39.1932C137.374 38.8585 137.62 38.6547 137.911 38.5965C138.376 38.4946 138.608 38.7421 138.608 39.3097V49.1916C138.608 49.7447 138.346 50.0794 137.867 50.1813C137.374 50.2832 137.141 50.0794 137.141 49.5555V41.4054L131.116 51.1273C130.97 51.3602 130.854 51.5057 130.753 51.593C130.651 51.6803 130.506 51.7386 130.317 51.7822C129.838 51.8841 129.605 51.6512 129.605 51.0982ZM133.032 40.0519C132.35 40.1974 131.871 40.1247 131.58 39.8336C131.304 39.5425 131.159 38.9749 131.159 38.1162V37.3594L132.626 37.0538V38.0871C132.626 38.3491 132.655 38.4946 132.713 38.5529C132.771 38.6111 132.916 38.6111 133.163 38.5529L134.949 38.1745C135.181 38.1308 135.326 38.058 135.384 37.9853C135.442 37.9125 135.472 37.7378 135.472 37.4904V36.4571L136.938 36.1515V36.9083C136.938 37.767 136.793 38.4073 136.517 38.8003C136.241 39.2078 135.747 39.4843 135.065 39.6298L133.018 40.0664L133.032 40.0519Z" stroke="white" stroke-width="0.5" stroke-miterlimit="10"/>
</g>
<defs>
<clipPath id="clip0_884_19998">
<rect width="147" height="83" fill="white"/>
</clipPath>
</defs>
</svg>
