<?xml version="1.0" encoding="utf-8"?><svg xmlns="http://www.w3.org/2000/svg" xmlns:xlink="http://www.w3.org/1999/xlink"><symbol fill="none" viewBox="0 0 128 137" id="nominates-1" xmlns="http://www.w3.org/2000/svg"><g clip-path="url(#aa)"><path d="M103.195 2.681H8.527a4.264 4.264 0 0 0-4.263 4.264v123.142a4.264 4.264 0 0 0 4.263 4.264h94.668a4.264 4.264 0 0 0 4.263-4.264V6.945a4.264 4.264 0 0 0-4.263-4.264Z" fill="#94B8ED"/><path d="M98.931 2.681H4.263A4.264 4.264 0 0 0 0 6.945v123.142a4.264 4.264 0 0 0 4.263 4.264h94.668a4.264 4.264 0 0 0 4.264-4.264V6.945a4.264 4.264 0 0 0-4.264-4.264Z" fill="#B3D0FF"/><path d="M96.056 9.077H8.526v118.167h87.53V9.077Z" fill="#D7E7FF"/><path d="M91.083 15.796H4.263v115.002h86.82V15.796Z" fill="#EBF3FF"/><path d="M75.03 0H31.846a4.264 4.264 0 0 0-4.263 4.264V8.56a4.264 4.264 0 0 0 4.263 4.265H75.03a4.264 4.264 0 0 0 4.263-4.265V4.264A4.264 4.264 0 0 0 75.03 0ZM29.715 27.232H14.599V42.35h15.116V27.232Zm0 21.353H14.599v15.118h15.116V48.585Zm0 25.617H14.599V89.32h15.116V74.202Zm0 21.352H14.599v15.118h15.116V95.554Z" fill="#94B8ED"/><path d="m18.152 34.145 4.554 7.462 8.688-18.348-9.237 11.532-4.005-.646Zm0 18.284 4.554 7.43 8.688-18.316-9.237 11.532-4.005-.646Zm0 29.687 4.554 7.43 8.688-18.316-9.237 11.532-4.005-.646Zm0 18.284 4.554 7.43 8.688-18.317-9.237 11.501-4.005-.614Z" fill="#163A54"/><path d="M84.138 29.073H33.914v1.97h50.224v-1.97Zm0 4.555H33.914v1.97h50.224v-1.97Zm0 4.587H33.914v1.97h50.224v-1.97Zm0 11.403H33.914v1.971h50.224v-1.97Zm0 4.588H33.914v1.97h50.224v-1.97Zm0 4.554H33.914v1.971h50.224v-1.97Zm0 18.284H33.914v1.97h50.224v-1.97Zm0 4.556H33.914v1.97h50.224V81.6Zm0 4.554H33.914v1.97h50.224v-1.97Zm0 11.436H33.914v1.97h50.224v-1.97Zm0 4.554H33.914v1.971h50.224v-1.971Zm0 4.587H33.914v1.971h50.224v-1.971Z" fill="#B3D0FF"/><path d="M91.922 54.787c-.29.29-.129-8.819 2.197-8.14 2.325.678 6.879 2.035 6.944 4.845.065 2.843.129 5.815-1.55 7.042 0 0-1.486-9.95-7.558-3.747h-.032Z" fill="#53424D"/><path d="M83.815 65.77c-.516-.387-7.17-2.842-7.493-4.974-.258-1.551 4.328-3.586 4.328-3.586s-.097 2.132 5.523 3.553c4.748 1.196-2.358 5.04-2.358 5.04v-.033Z" fill="#FFBE9E"/><path d="M76.225 60.182c-.258-3.586 3.069-13.826 3.069-13.826l1.518 1.809-.291 12.34s-4.037 3.262-4.328-.323h.032Z" fill="#FFBE9E"/><path d="M81.102 48.714c.194-.161.517-.194.743-.29.452-.195.808-.55 1.163-.873.194-.194.84-.355.807-.71-.064-.582-1.033 0-1.292 0-.226.032-.516 0-.613-.26-.065-.128-.033-.29 0-.451.097-.485.29-.937.452-1.422.097-.258.129-.484.226-.743.065-.194.194-.42.194-.613 0-.162-.13-.323-.291-.259-.162.032-.162.194-.194.29l-.387.776c0 .065-.13.323-.194.355-.323.065-.097-.678-.065-.775.097-.29.162-.614.065-.904 0-.033-.032-.097-.065-.097a.178.178 0 0 0-.161.097c-.194.323-.291.743-.485 1.066a.178.178 0 0 1-.161.097c-.259 0-.194-.517-.194-.711 0-.097 0-.226-.097-.29-.064 0-.13 0-.194.064l-.097.194c-.064.194-.161.387-.226.581 0 .097-.064.388-.194.388 0 0-.064 0-.064-.032-.065-.065-.065-.194-.065-.259a.243.243 0 0 0-.161-.226c-.13-.032-.226.097-.259.194-.193.387-.258.84-.355 1.26a9.802 9.802 0 0 0-.194 1.356c-.097.84 0 1.712-.161 2.552 0 .13-.065.259-.032.388 0 .258.161.452.323.646.323.323.807.517 1.26.452.16 0 .451-.032.516-.161.065-.097 0-.291 0-.42 0-.162 0-.323.065-.452.064-.259.193-.517.42-.743l-.033-.065Z" fill="#FFBE9E"/><path d="M95.41 66.061c2.068 1.421 3.489 3.521 2.39 5.362-.645 1.034-3.035 1.616-4.586 1.228-3.004-.743-9.56-3.844-13.048-7.85-1.292-1.453.42-6.202 3.585-5.168 4.166 1.356 8.753 4.425 11.692 6.428h-.032Z" fill="#984512"/><path d="M125.125 126.178s2.649 2.197 2.81 2.778c.485 1.712-3.456 6.106-5.587 6.752-.291.097-.872-.065-.937-.969-.065-.872 1.679-3.844.517-4.684-1.163-.84 3.197-3.909 3.197-3.909v.032Z" fill="#D2A35F"/><path d="M109.881 110.026s.032-19.414-.55-22.548c-.839-4.619-5.91-7.72-10.367-4.684-3.069 2.1-1.518 30.495 5.264 33.047 5.297 2.003 5.62-5.847 5.62-5.847l.033.032Z" fill="#163A54"/><path d="M119.828 131.444c-4.844-3.489-18.281-16.055-19.185-20.61-.969-4.91 5.749-5.492 10.465-.84 3.036 3.004 13.21 13.342 15.762 16.313.613.711-1.551 2.746-2.713 3.715 0 0-2.94 2.423-4.329 1.422Z" fill="#163A54"/><path d="M88.66 131.153s.614 3.392.356 3.941c-.743 1.615-6.59 2.423-8.657 1.518-.29-.129-.613-.613-.064-1.324.549-.711 3.746-1.841 3.424-3.23-.356-1.39 4.974-.905 4.974-.905h-.033Z" fill="#D2A35F"/><path d="M90.275 105.407s9.819-11.21 11.434-13.955c2.358-4.07.517-9.724-4.877-10.273-3.682-.388-21.091 22.096-17.41 28.589 2.81 4.942 10.853-4.361 10.853-4.361Z" fill="#163A54"/><path d="M81.2 131.734c-1.422-5.782-3.521-24.066-1.26-28.104 2.422-4.393 7.945-.452 8.526 6.138.356 4.264 1.422 18.704 1.422 22.645 0 .969-3.198 1.098-4.684 1.066-.032 0-3.585-.065-4.005-1.745Z" fill="#163A54"/><path d="M103.647 88.932c.775 1.39 2.906 4.749 4.877 3.553.258-.161.064-.613-.194-.452-1.647 1.002-3.585-2.164-4.231-3.327-.162-.258-.614-.065-.452.194v.032Zm-9.916.711c-1.292.937-4.586 3.165-5.91 1.26-.162-.259.193-.582.355-.323 1.098 1.582 4.134-.517 5.232-1.325.258-.194.582.194.323.356v.032Zm5.2 2.003c-.969 1.26-1.13 3.327-.581 4.942.13.42-.517.582-.646.194-.646-1.841-.484-4.006.743-5.62.258-.356.743.128.484.484Z" fill="#113144"/><path d="M88.66 67.385c.55-4.36 8.204-4.425 13.372-4.554 3.488-.097 5.717 1.13 6.621 7.397.356 2.455 1.841 9.918 1.324 13.89-.096.712-1.001 1.52-1.421 2.068-2.584 3.263-19.54 3.424-19.573-.517 0 0-1.518-8.98-.323-18.284Z" fill="#D2A35F"/><path d="M99.77 56.37s-5.005 1.841-4.65 2.229c.355.388-.032 1.292.064 2.132.097.904-.355 1.938-1 2.94-.453.71.645 1.324 1.55 1.356 3.908.162 6.104-1.583 5.103-2.713-2.197-2.52-1.034-5.976-1.034-5.976l-.032.032Z" fill="#FFBE9E"/><path d="M95.185 60.731c-.097-.84.29-1.744-.065-2.132-.355-.388 5.071-2.39 5.071-2.39s-.71 1-.678 2.325c-1.26 2.326-3.36 3.295-4.683 4.038.29-.549.42-1.518.387-1.841h-.032Z" fill="#FF9C81"/><path d="M93.731 51.137c-1.808 1.841-2.81 7.397-.29 9.626 1.356 1.228 5.426-.872 6.976-4.167.194-.42.517-2.778-.904-5.072-.646-1.033-3.909-2.26-5.782-.355v-.032Z" fill="#FFBE9E"/><path d="M91.955 55.66c.064.322 0-3.263 1.97-3.813.807-.226.743.679 1.68.614.807-.064 2.97-2.003 2.745 2.907 0 .227.258.485.387.679.162.226-.161.872-.097 1.163.033.258.743-.678.776-.42.032.42-.517 1.68.097 1.744.29.033.581-.484.775-.678.549-.517 1.162-.937 1.582-1.583.485-.71.679-1.583.679-2.423 0-.84-.13-1.712-.549-2.422a3.244 3.244 0 0 0-2.1-1.454c-.517-.097-1.066 0-1.55-.194-.452-.13-.905-.13-1.325-.258-.355-.097-.484-.291-.742-.55-.55-.516-1.357-.807-2.1-.646-.743.13-1.42.743-1.582 1.486-.097.42-.646 4.652-.614 4.975 0 .29 0 .581.032.872h-.064Z" fill="#53424D"/><path d="M98.027 56.628s1.292-1.518 2.132-1.26c.872.259.032 2.617-1.68 2.552-1.712-.064-.872-.904-.484-1.324l.032.032Z" fill="#FFBE9E"/><path d="M96.38 56.24h-.065c-.064 0-.129.065-.194.065-.258.065-.387-.097-.484-.29-.065-.13-.258 0-.194.096.194.453.678.55 1.098.259.13-.097-.032-.258-.161-.162v.033Zm-2.487-.516s-.13.13-.194.161c-.226.13-.387 0-.517-.193-.064-.13-.29 0-.193.096.129.259.355.453.678.356a1.05 1.05 0 0 0 .42-.323c.097-.13-.097-.226-.194-.13v.033Z" fill="#201714"/><path d="M93.311 54.626c.356-.13.679 0 .872.355.097.161.323 0 .227-.162a.913.913 0 0 0-1.195-.452c-.162.065-.097.323.096.259Zm2.326.614c.323-.227.678-.162.937.096.129.13.323-.064.194-.194-.356-.355-.84-.42-1.26-.129-.162.097 0 .323.161.226h-.032Z" fill="#4D2F20"/><path d="M94.7 55.4c.065.227.13.518.065.776-.097.355-.485.517-.71.84-.291.42 0 .646.516.775.13 0 .162-.129.065-.161-1.099-.29.161-.872.323-1.357.096-.29.064-.614-.033-.905-.032-.096-.226-.064-.193.033H94.7Z" fill="#7C4930"/><path d="M94.184 59.374s-.582-.743.097-1.195c.645-.42 1.194.226 1.194.226l-1.291.97Z" fill="#FAFFFF"/><path d="M96.993 57.92c-.096.291-.387.453-.678.356-.29-.097-.452-.388-.355-.679.097-.29.387-.452.678-.355.29.097.452.388.355.678Zm-4.553-1.162a.558.558 0 0 1 .775.064.558.558 0 0 1-.065.775.558.558 0 0 1-.775-.064.558.558 0 0 1 .064-.775Z" fill="#FF9C81"/><path d="M99.448 77.432c-.452.452-3.746 6.751-5.91 6.784-1.583.032-3.004-4.749-3.004-4.749s2.1.355 4.23-5.04c1.777-4.554 4.684 2.973 4.684 2.973v.032Z" fill="#FFBE9E"/><path d="M92.924 84.216c-3.585-.194-13.34-4.813-13.34-4.813l2.003-1.293 12.209 1.874s2.713 4.426-.872 4.232Z" fill="#FFBE9E"/><path d="M82.2 77.916c-.129-.226-.129-.516-.193-.775-.13-.484-.42-.872-.71-1.26-.162-.226-.227-.872-.582-.872-.582 0-.162 1.034-.13 1.292 0 .227-.096.517-.322.582-.162.064-.323 0-.453-.065-.452-.161-.904-.42-1.356-.614-.226-.096-.452-.193-.71-.29-.162-.065-.388-.226-.582-.259-.162 0-.323.097-.323.259 0 .161.162.161.258.226.227.161.485.323.71.484.066.033.324.162.324.227 0 .323-.678 0-.775-.033-.29-.129-.582-.226-.905-.161-.032 0-.096 0-.096.064 0 .065 0 .13.064.162.29.258.678.355 1.001.614a.178.178 0 0 1 .097.161c-.064.258-.549.13-.71.097-.097 0-.226 0-.291.065-.032.064 0 .129 0 .193.032.065.097.097.161.13.194.097.356.226.55.29.096.033.387.13.355.259 0 0 0 .032-.032.064-.097.065-.194.033-.291.033-.097 0-.194 0-.258.129-.033.097.064.226.161.29.355.26.775.388 1.195.517.42.162.872.259 1.324.388.84.194 1.712.226 2.52.485.129.032.258.097.387.097.259 0 .485-.097.678-.259.356-.29.614-.743.614-1.195 0-.162 0-.452-.097-.55-.097-.064-.29-.064-.42-.096a2.38 2.38 0 0 1-.452-.13 1.475 1.475 0 0 1-.678-.516l-.032-.032Z" fill="#FFBE9E"/><path d="M101.224 65.964c1.68-1.873 3.941-3.004 5.62-1.68.937.776 1.228 3.198.646 4.684-1.13 2.875-5.038 8.98-9.463 11.953-1.615 1.066-6.072-1.196-4.651-4.232 1.873-3.941 5.523-8.108 7.881-10.757l-.033.032Z" fill="#A13819"/></g><defs><clipPath id="aa"><path fill="#fff" d="M0 0h128v137H0z"/></clipPath></defs></symbol><symbol fill="none" viewBox="0 0 139 125" id="nominates-2" xmlns="http://www.w3.org/2000/svg"><g clip-path="url(#ba)"><path d="M6.217 0H72.03c3.447 0 6.217 2.806 6.217 6.224v111.23a6.225 6.225 0 0 1-6.217 6.224H6.217c-3.447 0-6.217-2.806-6.217-6.224V6.224C0 2.806 2.803 0 6.217 0Z" fill="#83ABDB"/><path d="M10.791 0h65.812c3.447 0 6.217 2.806 6.217 6.224v111.23a6.225 6.225 0 0 1-6.217 6.224H10.791c-3.446 0-6.217-2.806-6.217-6.224V6.224A6.224 6.224 0 0 1 10.791 0Z" fill="#B3D0FF"/><path d="M76.764 11.094H10.63v96.136h66.134V11.094Z" fill="#E6F0FF"/><path d="M64.749 5.708c0 .71-.58 1.29-1.289 1.29H24c-.709 0-1.289-.58-1.289-1.29 0-.71.58-1.29 1.289-1.29h39.46c.709 0 1.289.58 1.289 1.29ZM48.578 115.97a4.863 4.863 0 0 1-4.865 4.87 4.863 4.863 0 0 1-4.864-4.87c0-2.677 2.19-4.87 4.864-4.87a4.863 4.863 0 0 1 4.864 4.87Z" fill="#97B8FF"/><path d="M88 27.703H21.357v73.303H88V27.703Z" fill="#83ABDB"/><path d="M87.999 28H22.907v73h65.092V28Z" fill="#B3D0FF"/><path d="M83.655 37.313H28.499v41.022h55.156V37.313Zm0 44.505H28.499v3.063h55.156v-3.063Zm-30.389 7.836H28.499v3.064h24.767v-3.064Z" fill="#EBF3FF"/><path d="M93.064 92.815c0 1.903-1.707 3.418-3.801 3.418H61.785c-2.094 0-3.801-1.548-3.801-3.418V17.963c0-1.87 1.707-3.418 3.801-3.418h27.478c2.094 0 3.801 1.515 3.801 3.418v74.852Z" fill="#163A54"/><path d="M90.39 27.058H61.883v.709H90.39v-.71Zm0-6.031H61.883v.71H90.39v-.71Zm0 12.319H61.883v.71H90.39v-.71Zm0 6.257H61.883v.71H90.39v-.71Zm0 6.257H61.883v.709H90.39v-.71Zm0 6.288H61.883v.71H90.39v-.71Zm0 6.256H61.883v.71H90.39v-.71Zm0 6.256H61.883v.71H90.39v-.71Zm0 6.29H61.883v.709H90.39v-.71Zm0 6.256H61.883v.71H90.39v-.71Zm0 6.256H61.883v.71H90.39v-.71Zm0 6.289H61.883v.71H90.39v-.71Z" fill="#fff"/><path d="M45.71 43.989H18.33V71.4h27.38V43.989Z" fill="#FEC000"/><path d="M45.485 43.989H18.329v4.676h27.156v-4.676Z" fill="#E08B03"/><path d="M42.94 51.793H21.39v.87h21.55v-.87Zm0 2.806H21.39v.87h21.55v-.87Zm0 2.805H21.39v.871h21.55v-.87Zm0 2.806H21.39v.871h21.55v-.87Zm0 2.806H21.39v.87h21.55v-.87Zm0 2.806H21.39v.87h21.55v-.87Z" fill="#fff"/><path d="M121.476 69.111s6.894-3.354 8.247-7.127c1.353-3.773-1.385-5.547-1.385-5.547s-5.155 7.772-9.181 9.32c-4.027 1.548 2.319 3.354 2.319 3.354Zm-5.573-1.29s-.869.226-.998.258c-1.095.258-2.158.71-3.286.71-.548 0-1.095-.097-1.546-.355a3.267 3.267 0 0 1-.741-.58c-.097-.097-.193-.162-.322-.13-.097.033-.129.162-.129.258 0 .258.258.452.419.678.096.129.225.387.193.58-.064.161-.29.258-.419.323-.483.16-.998.193-1.482.225-.418 0-.869-.032-.902.484 0 .194-.096.323-.193.484-.032.097-.064.161 0 .258 0 .032.032.064.065.097a.368.368 0 0 1 .096.258c0 .064 0 .129.032.193.033.065.129.097.194.13.193.031.386.064.58.064.225 0 .451.064.708.064.194 0 .387-.032.58-.032.838 0 2.674-.29 2.738-.29.612-.13 2.158-.613 2.674-.871.515-.258 1.836-2.838 1.836-2.838l-.097.032Z" fill="#FBB99D"/><path d="M122.539 68.53c-2.609 1.839-11.113 2.968-11.113 2.968l.87-2.322 9.116-4.515s3.737 2.031 1.127 3.902v-.032Z" fill="#FBB99D"/><path d="M127.822 50.535c5.831 1.194 2.835 12.9 2.835 12.9l-6.41-.096s-2.094-13.965 3.575-12.804Z" fill="#DB6005"/><path d="M111.071 116.389s.548 3.419.29 3.967c-.805 1.613-6.894 2.322-9.02 1.355-.29-.129-.612-.645-.064-1.355.58-.709 3.962-1.774 3.608-3.193-.322-1.419 5.186-.806 5.186-.806v.032Z" fill="#FFA60E"/><path d="m115.517 71.369 9.889 4.74c-1.03 3.838-3.833 9.675-5.669 13.32l-3.64 6.901a6.373 6.373 0 0 0-.741 2.29l-2.609 17.447c-.129.806-.612 1.548-1.321 1.903-1.224.612-3.318 1.29-5.734.548-3.576-1.097-1.095-22.478-.29-25.09 1.482-4.644 5.251-12.352 5.315-12.578l4.736-9.514.064.033Z" fill="#FEC000"/><path d="M136.939 115.648s2.094 2.741 2.029 3.354c-.064.612-7.087 5.966-7.087 5.966s-.837-.226-.644-1.161c.161-.936 2.577-3.644 1.643-4.741-.902-1.064 4.059-3.451 4.059-3.451v.033Z" fill="#E0880A"/><path d="M138.549 118.486c-1.514-.194-7.763 5.643-6.99 6.32 1.16 1 5.541-2.031 6.765-3.902 1.353-2.064.225-2.418.225-2.418Z" fill="#FFA60E"/><path d="m120.767 74.561 10.019-1.322c.869 3.902 1.385 10.256 1.449 14.383v7.902c0 .806.129 1.644.387 2.418l5.734 16.577c.258.774.193 1.645-.258 2.322-.773 1.161-2.287 2.87-4.767 3.483-3.608.903-11.307-19.028-11.758-21.737-.87-4.805-1.128-13.512-1.16-13.738l.29-10.288h.064Z" fill="#FEC000"/><path d="M129.626 53.148c-1.063-4.644-7.119-3.225-11.275-2.387-2.802.58-4.381 2.322-4.22 9.32.065 3.064-1.063 10.546.29 14.061 0 0 5.799 3.58 16.397-.935 0 0 1.063-10.191-1.192-20.092v.033Z" fill="#FF7600"/><path d="M102.277 57.211s9.278 2.451 12.724.58c3.447-1.87 2.61-4.966 2.61-4.966s-8.988 2.129-12.95.613c-3.962-1.516-2.384 3.773-2.384 3.773Z" fill="#FBB99D"/><path d="M121.444 54.534c-.193 5.837-12.016 4.87-12.016 4.87l-.966-6.224s13.143-4.354 12.95 1.354h.032Z" fill="#DB6005"/><path d="m106.142 51.084.548-.839c.612-.935 1.063-1.967 1.868-2.741.387-.355.838-.677 1.353-.806a4.37 4.37 0 0 1 .935-.097c.128 0 .257 0 .322-.13.032-.096 0-.193-.097-.29-.193-.16-.483-.16-.741-.225-.161-.032-.451-.13-.515-.29-.065-.162 0-.387.096-.516.226-.452.58-.807.902-1.161.29-.29.645-.549.323-.968-.129-.161-.129-.29-.194-.484 0-.096-.064-.16-.161-.193-.032 0-.064 0-.129-.032-.096 0-.161-.065-.257-.097-.065-.032-.097-.065-.161-.097-.065 0-.162 0-.226.032a4.647 4.647 0 0 0-.483.355c-.161.161-.387.258-.548.42-.129.128-.225.29-.386.419-.612.58-1.708 2-1.772 2.064-.354.483-1.128 1.87-1.353 2.418-.193.516.612 3.258.612 3.258h.064Z" fill="#FBB99D"/><path d="M100.924 55.05c.644-3.063 5.96-9.61 5.96-9.61l.934 2.257-3.511 9.385s-4.027 1.032-3.415-2.032h.032Zm24.418-4.224c0 .612-1.289 1.128-2.867 1.128-1.579 0-2.867-.516-2.867-1.128 0-.613 1.288-1.13 2.867-1.13 1.578 0 2.867.517 2.867 1.13Z" fill="#FBB99D"/><path d="M120.123 47.504s1.096 1.29-.483 3.225c0 0 3.737 2.225 5.702 0 0 0-1.063-1.645-.612-4.031l-4.639.806h.032Z" fill="#FBB99D"/><path d="M118.48 38.151s-.869 2.355-.966 4.838c-.161 3.676.902 5.773 5.347 4.547 4.349-1.193-2.222-10.062-4.349-9.417l-.032.032Z" fill="#FBB99D"/><path d="M120.316 47.89s1.386 0 2.159-.257c0 0 .161.226.386.355 0 0-1.288.354-2.545-.097Z" fill="#DC8162"/><path d="M120.317 43.537c.998.516 1.127 4.322 3.157 4.58 2.867.387 5.057-4.87 4.735-7.58-.322-2.644-1.353-3.869-4.639-4.578-3.028-.646-6.442.612-6.185 2.418.065.548.355 1.193 1.289 1.71.966.515-.516 2.29 1.675 3.45h-.032Z" fill="#53424D"/><path d="M120.768 45.15s1.675-1.742.966-2.516c-.999-1.096-2.126 1.451-2.126 1.451l1.16 1.065Z" fill="#FBB99D"/><path d="M113.681 75.077s10.823 2.226 17.588-1.193l-.451-1.838s-7.506 2.967-16.751.903l-.386 2.096v.032Z" fill="#E08B03"/><path d="M119.028 73.304h.967l.225 3.031h-1.578l.386-3.031Zm6.733-.355.708-.226 1.192 2.774-1.449.483-.451-3.031Z" fill="#FEC000"/><path d="M116.193 75.884c-.612 1.677-2.351 5.772-4.767 4.805-.322-.13-.193-.645.129-.516 1.997.806 3.543-3.032 4.091-4.418.129-.323.644-.194.515.129h.032Z" fill="#E08B03"/></g><defs><clipPath id="ba"><path fill="#fff" d="M0 0h139v125H0z"/></clipPath></defs></symbol><symbol fill="none" viewBox="0 0 120 90" id="sContact-icon-1" xmlns="http://www.w3.org/2000/svg"><g clip-path="url(#ca)" fill="#153C88"><path d="m76.177 46.238-7.745-3.489a1.54 1.54 0 0 1-.901-1.404v-2.156a11.493 11.493 0 0 0 4.274-8.96v-3.035a2.806 2.806 0 0 0 1.425-2.445v-.294C73.23 18.138 68.159 13 61.926 13h-2.85c-6.234 0-11.305 5.14-11.305 11.455v2.672c0 .913.387 1.74 1.065 2.27.115.09.234.169.36.237v.596c0 3.625 1.673 6.86 4.275 8.961v2.156a1.54 1.54 0 0 1-.901 1.404l-7.746 3.488c-2.536 1.142-4.176 3.7-4.176 6.51v17.9c0 .746.597 1.351 1.333 1.351.735 0 1.333-.605 1.333-1.35v-17.9c0-.157.01-.312.026-.465l3.57 3.616c.554.563.861 1.31.861 2.107v12.641c0 .746.597 1.351 1.333 1.351s1.333-.605 1.333-1.35V58.007a5.681 5.681 0 0 0-1.642-4.018l-4.255-4.311a4.347 4.347 0 0 1 1.367-.973l7.616-3.428 5.646 5.72V70.65c0 .746.597 1.351 1.333 1.351s1.333-.605 1.333-1.35V50.998l5.647-5.721 7.616 3.428c.522.236.983.57 1.367.973l-4.255 4.311a5.681 5.681 0 0 0-1.643 4.018v12.641c0 .746.597 1.351 1.333 1.351s1.333-.605 1.333-1.35V58.007c0-.796.306-1.545.862-2.107l3.57-3.616c.015.153.026.308.026.464v17.9c0 .746.597 1.351 1.333 1.351s1.333-.605 1.333-1.35v-17.9c0-2.813-1.64-5.369-4.177-6.51l-.002-.002ZM60.5 48.53l-4.955-5.02c.377-.643.59-1.386.59-2.163v-.55c1.344.573 2.82.89 4.367.89a11.1 11.1 0 0 0 4.365-.89v.55c0 .777.214 1.52.59 2.162l-4.955 5.021H60.5Zm0-9.546c-4.763 0-8.64-3.928-8.64-8.754v-.607c.832-.333 1.645-.866 2.422-1.592.54-.506.574-1.36.074-1.909a1.323 1.323 0 0 0-1.884-.077c-.666.623-1.333 1.026-1.98 1.198l-.035.007a.28.28 0 0 1-.024-.123v-2.672c0-4.826 3.877-8.754 8.64-8.754h2.85c4.764 0 8.639 3.928 8.639 8.754v.294c0 .043-.027.08-.06.088-7.983 1.597-11.987-1.414-13.338-2.782a1.321 1.321 0 0 0-1.885 0 1.364 1.364 0 0 0 0 1.91c4.139 4.194 10.178 4.27 13.856 3.822v2.44c0 4.827-3.877 8.753-8.64 8.753l.005.004Zm-21.463-.092v-2.888a10.04 10.04 0 0 0-4.53-8.41 5.747 5.747 0 0 0 .255-1.695c0-3.133-2.515-5.681-5.607-5.681-3.093 0-5.608 2.548-5.608 5.681 0 .584.087 1.15.256 1.695a10.04 10.04 0 0 0-4.53 8.41v2.886a10.04 10.04 0 0 0 4.274 8.237v2.97a1.53 1.53 0 0 1-.839 1.374l-4.61 2.335C16.188 54.777 15 56.724 15 58.89v11.76c0 .745.597 1.35 1.333 1.35s1.333-.605 1.333-1.35V59.474l2.172 2.2c.554.565.862 1.312.862 2.108v6.868c0 .746.597 1.35 1.333 1.35s1.333-.604 1.333-1.35v-6.868a5.681 5.681 0 0 0-1.642-4.018L18.7 56.702l-.044-.041c.19-.17.402-.317.636-.436l4.61-2.336c.237-.12.457-.26.662-.418l3.26 3.303V70.65c0 .746.597 1.351 1.332 1.351.736 0 1.334-.605 1.334-1.35v-13.88l3.26-3.302c.204.156.424.299.66.417l1.271.645a1.33 1.33 0 0 0 1.788-.605 1.36 1.36 0 0 0-.595-1.812l-1.271-.644a1.53 1.53 0 0 1-.839-1.374v-2.97a10.042 10.042 0 0 0 4.275-8.237l-.002.002ZM29.155 22.92c1.62 0 2.941 1.336 2.941 2.98 0 .182-.016.359-.046.533a9.737 9.737 0 0 0-5.785-.002 3.093 3.093 0 0 1-.05-.53c0-1.645 1.319-2.981 2.942-2.981h-.002Zm0 5.775c3.98 0 7.216 3.28 7.216 7.311v.49c-5.55 1.722-8.857-2.555-8.999-2.742a1.32 1.32 0 0 0-2.008-.144c-1.273 1.289-2.519 1.91-3.42 2.21.1-3.945 3.294-7.123 7.21-7.123v-.002Zm0 25.611-3.08-3.12a4.29 4.29 0 0 0 .138-1.085v-1.647a9.755 9.755 0 0 0 5.883 0V50.1c0 .373.05.737.139 1.084l-3.08 3.121Zm0-8.102c-3.98 0-7.216-3.279-7.216-7.31v-.28c1.063-.247 2.64-.823 4.283-2.163a11.943 11.943 0 0 0 2.472 1.823 10.506 10.506 0 0 0 5.094 1.332c.804 0 1.662-.093 2.57-.311-.206 3.844-3.359 6.91-7.203 6.91Zm73.744 4.718-7.459-3.78a1.53 1.53 0 0 1-.839-1.374v-1.915a8.59 8.59 0 0 0 2.85-6.405V35.91h.092c.735 0 1.333-.605 1.333-1.35v-2.887c0-4.726-3.795-8.569-8.457-8.569h-2.85c-4.663 0-8.456 3.845-8.456 8.569v2.886c0 .746.597 1.35 1.333 1.35h.093v1.537a8.604 8.604 0 0 0 2.849 6.407v1.915a1.53 1.53 0 0 1-.84 1.374 1.358 1.358 0 0 0-.594 1.811 1.33 1.33 0 0 0 1.788.605 4.3 4.3 0 0 0 .66-.417l3.26 3.302V70.65c0 .746.597 1.351 1.333 1.351s1.333-.605 1.333-1.35V52.44l3.26-3.302c.204.156.425.299.661.417l7.218 3.658-2.19 2.218a5.681 5.681 0 0 0-1.642 4.018v11.198c0 .745.597 1.35 1.333 1.35s1.333-.605 1.333-1.35V59.45c0-.796.306-1.545.862-2.107l2.074-2.101c.062.245.098.498.098.76v14.646c0 .745.597 1.35 1.333 1.35s1.333-.605 1.333-1.35V56.002c0-2.167-1.187-4.114-3.1-5.082l-.002.002Zm-21.121-17.99v-1.26c0-3.234 2.598-5.866 5.79-5.866h2.85c3.191 0 5.79 2.632 5.79 5.867v1.5c-5.794-.317-9.292-2.603-9.326-2.624a1.324 1.324 0 0 0-1.683.17c-1.276 1.292-2.526 1.914-3.423 2.212h.002Zm7.215 17.04-3.08-3.12c.091-.348.139-.712.139-1.084v-.289a8.315 8.315 0 0 0 2.941.535 8.31 8.31 0 0 0 2.942-.535v.289c0 .372.05.734.139 1.084l-3.08 3.12Zm0-6.657c-3.192 0-5.79-2.633-5.79-5.867V35.27a11.29 11.29 0 0 0 3.128-1.934c1.4.738 4.328 2.013 8.453 2.434v1.677c0 3.236-2.598 5.867-5.79 5.867Z"/></g><defs><clipPath id="ca"><path fill="#fff" transform="translate(15 13)" d="M0 0h91v59H0z"/></clipPath></defs></symbol><symbol fill="none" viewBox="0 0 120 90" id="sContact-icon-2" xmlns="http://www.w3.org/2000/svg"><g clip-path="url(#da)" fill="#153C88"><path d="M38.063 15.184h25.804v2.592H38.063v-2.592Zm29.674 18.143H83.22c.713 0 1.29-.58 1.29-1.296V16.48c0-.716-.577-1.296-1.29-1.296H67.737c-.712 0-1.29.58-1.29 1.296v15.55c0 .717.578 1.296 1.29 1.296Zm1.29-15.551H81.93v12.96H69.028v-12.96Zm-36.125 2.592h30.966v2.592H32.902v-2.592Zm0 5.184h30.966v2.591H32.902v-2.591Zm0 5.183h30.966v2.592H32.902v-2.591Zm0 5.185H71.61v2.591H32.902V35.92Zm21.934 15.55h-9.032V42.4c0-.717-.577-1.297-1.29-1.297H34.193c-.713 0-1.29.58-1.29 1.296v18.144c0 .716.577 1.296 1.29 1.296h20.643c.713 0 1.29-.58 1.29-1.296v-7.776c0-.716-.577-1.296-1.29-1.296Zm-1.29 7.777H35.483V43.695h7.741v9.072c0 .716.578 1.296 1.29 1.296h9.032v5.184Zm-5.161-18.144h11.612v2.592H48.385v-2.592Z"/><path d="M48.385 46.287h7.741v2.592h-7.741v-2.592Z"/><path d="M89.672 41.317V11.296c0-.716-.578-1.296-1.29-1.296h-59.35c-.713 0-1.29.58-1.29 1.296v7.776H21.29c-.713 0-1.29.58-1.29 1.296v41.47c0 2.863 2.311 5.184 5.16 5.184h35.066c4.262 10.616 16.286 15.75 26.854 11.467 10.57-4.282 15.68-16.359 11.415-26.974a20.7 20.7 0 0 0-8.825-10.2l.002.002ZM22.58 61.839V21.664h5.161v40.175a2.585 2.585 0 0 1-2.58 2.592 2.586 2.586 0 0 1-2.58-2.592Zm7.024 2.592a5.16 5.16 0 0 0 .718-2.592V12.592h56.77v27.445c-10.516-4.33-22.536.721-26.847 11.283a20.75 20.75 0 0 0-.858 13.11H29.604ZM79.35 77.39c-9.977 0-18.063-8.123-18.063-18.144 0-10.021 8.086-18.144 18.063-18.144 9.977 0 18.063 8.123 18.063 18.144-.011 10.016-8.091 18.132-18.063 18.143Z"/><path d="m84.14 50.23-12.72 3.833h-3.682c-2.137 0-3.87 1.741-3.87 3.888v2.592c0 2.146 1.733 3.888 3.87 3.888v2.591c0 2.147 1.734 3.888 3.87 3.888a3.88 3.88 0 0 0 3.871-3.888v-1.368l8.66 2.61a1.29 1.29 0 0 0 1.662-1.243V51.469a1.293 1.293 0 0 0-1.661-1.24v.001ZM66.448 60.543V57.95c0-.716.577-1.296 1.29-1.296h2.58v5.184h-2.58c-.713 0-1.29-.58-1.29-1.296Zm6.45 6.48c0 .716-.577 1.296-1.29 1.296-.712 0-1.29-.58-1.29-1.297v-2.591h1.102l1.479.445v2.146Zm10.323-1.742-10.322-3.11v-5.848l10.322-3.11V65.28Zm5.159-7.331h6.452v2.593h-6.451V57.95Zm-.923-4.8 3.87-3.889 1.825 1.832-3.87 3.888-1.825-1.832Zm-.002 12.2 1.824-1.833 3.87 3.888-1.823 1.832-3.87-3.888Z"/></g><defs><clipPath id="da"><path fill="#fff" transform="translate(20 10)" d="M0 0h80v70H0z"/></clipPath></defs></symbol><symbol fill="none" viewBox="0 0 120 90" id="sContact-icon-3" xmlns="http://www.w3.org/2000/svg"><g clip-path="url(#ea)"><path d="M105.899 47.196a1.53 1.53 0 0 0-1.969-.891l-5.556 2.09-8.868-25.29 15.255-6.1a1.525 1.525 0 0 0 .851-1.984 1.532 1.532 0 0 0-1.988-.85l-16.61 6.645a1.527 1.527 0 0 0-.876 1.919l.289.824-4.54 1.248c-.301-.279-.623-.55-.972-.813a1.482 1.482 0 0 0-.597-.275c-8.2-1.789-18.384-3.748-20.31-2.957-3.22 1.324-9.144 5.397-12.682 7.825l-1.569 1.069c-.361.24-.6.625-.661 1.056-.218 1.553-.944 3.566-1.783 5.897-.52 1.444-1.082 3.002-1.602 4.673a1.533 1.533 0 0 0 .361 1.517c1.694 1.75 3.767 2.682 5.918 2.682.3 0 .6-.015.902-.052 2.312-.28 4.388-1.633 5.544-3.616.646-1.105 1.285-2.759 1.732-4.132 1.657-.31 4.507-.927 6.18-1.324a1.526 1.526 0 0 0 1.136-1.837 1.523 1.523 0 0 0-1.84-1.133c-2.202.523-5.923 1.307-6.86 1.43-.602.08-1.1.508-1.269 1.088-.485 1.673-1.196 3.47-1.722 4.374-.669 1.144-1.923 1.959-3.272 2.121-.902.103-2.223-.019-3.597-1.123.422-1.282.86-2.494 1.269-3.632.79-2.194 1.483-4.125 1.816-5.826l1.049-.714c3.215-2.207 9.195-6.317 12.018-7.487 1.426-.274 10.324 1.294 18.25 3.012.379.31.723.63 1.044.952.392.397.963.55 1.495.4l5.577-1.533 6.286 17.922-1.98.88a1.528 1.528 0 0 0-.906 1.464c.004.015.042 1.362-.484 3.19l-8.388-4.579-13.593-8.423a1.529 1.529 0 0 0-2.104.5 1.524 1.524 0 0 0 .5 2.1l13.66 8.46 10.02 5.472c.012.006.024.01.035.018.004 0 .006.003.008.005 1.319.718 1.83 2.417 1.131 3.709-.743 1.348-2.303 1.865-3.614 1.154l-10.332-5.118a1.533 1.533 0 0 0-2.007.61 1.523 1.523 0 0 0 .493 2.036l5.07 3.29c1.264.69 1.652 2.161.918 3.499a2.855 2.855 0 0 1-1.682 1.383 2.402 2.402 0 0 1-1.87-.199l-7.948-4.334a1.528 1.528 0 0 0-1.605 2.594l4.178 2.9c.434.626.715 1.866.177 2.85-.691 1.263-2.415 1.705-3.797.956l-4.515-2.36c-.602-.317-1.403-.128-1.876.362a1.524 1.524 0 0 0-.056 2.045c.52.605.723 1.843.159 2.87-.373.677-.998.982-1.459 1.117a3.256 3.256 0 0 1-2.421-.26l-.881-.474a5.051 5.051 0 0 0-.24-6.852l-.99-.992c-1.17-1.185-2.904-1.64-4.506-1.366a5.027 5.027 0 0 0-1.452-3.79l-.99-.998c-1.174-1.185-2.904-1.64-4.505-1.366a4.986 4.986 0 0 0-1.453-3.788l-.994-1.004c-1.25-1.255-3.119-1.69-4.797-1.303 0-.036.004-.072.004-.108a5.004 5.004 0 0 0-1.458-3.575l-.994-1.002c-1.665-1.678-4.451-1.886-6.397-.63l-4.119-2.073 5.873-16.744 9.711 1.915a1.522 1.522 0 0 0 1.795-1.2 1.522 1.522 0 0 0-1.202-1.791L32.56 23.59l.33-.943a1.53 1.53 0 0 0-.85-1.911l-15.722-6.618a1.538 1.538 0 0 0-2.003.811 1.524 1.524 0 0 0 .816 2l14.398 6.054-8.899 25.37-4.614-1.54a1.535 1.535 0 0 0-1.936.96c-.27.8.163 1.664.963 1.933l6.046 2.02a1.526 1.526 0 0 0 1.927-.939l1.63-4.646 2.746 1.381-.369.362a5.046 5.046 0 0 0-.027 7.137l.994.997a5.015 5.015 0 0 0 3.188 1.47 5.02 5.02 0 0 0-.392 1.941 4.983 4.983 0 0 0 1.465 3.561l.993.998a4.996 4.996 0 0 0 3.588 1.492c.672 0 1.324-.13 1.928-.378a4.99 4.99 0 0 0 1.44 3.043l.99 1.001a5.02 5.02 0 0 0 3.589 1.492c.672 0 1.324-.13 1.928-.378a5.02 5.02 0 0 0 1.435 3.049l.998 1.003a5.03 5.03 0 0 0 3.584 1.484 5.049 5.049 0 0 0 3.557-1.45l.015-.015 1.682.908a6.23 6.23 0 0 0 2.993.76 6.22 6.22 0 0 0 1.752-.25c1.438-.424 2.604-1.34 3.282-2.585a5.783 5.783 0 0 0 .694-2.454l1.462.764c2.813 1.535 6.437.53 7.924-2.183a5.554 5.554 0 0 0 .654-3.006l.397.214a5.499 5.499 0 0 0 4.201.448c1.474-.431 2.752-1.469 3.505-2.848.623-1.133.862-2.392.692-3.606l1.076.53c2.764 1.508 6.143.453 7.71-2.399 1.279-2.354.671-5.328-1.273-7.08.55-1.6.75-2.994.82-3.896l.878-.39 1.269 3.62a1.522 1.522 0 0 0 1.976.92l7.022-2.64a1.522 1.522 0 0 0 .892-1.964l-.005.002Zm-76.735 5.671a1.998 1.998 0 0 1 .005-2.817l2.013-1.975a2 2 0 0 1 1.41-.574c.534 0 1.044.208 1.417.586l.994 1.001c.372.376.575.876.571 1.41a1.963 1.963 0 0 1-.58 1.398l-2.015 1.978c-.753.744-2.074.742-2.823-.011l-.99-.996h-.002Zm6.248 8.973-.998-1.001a1.983 1.983 0 0 1 .015-2.81l4.002-3.964a1.97 1.97 0 0 1 1.403-.574c.532 0 1.044.21 1.418.585l.994 1.004c.373.372.576.87.572 1.404 0 .534-.209 1.034-.587 1.408l-4.002 3.962c-.753.742-2.074.744-2.82-.012l.003-.002Zm7.947 5.158-.998-1.003a1.957 1.957 0 0 1-.575-1.404 1.973 1.973 0 0 1 .584-1.404l3.013-2.97c.372-.37.871-.574 1.402-.574.532 0 1.046.208 1.419.585l.99.998a1.996 1.996 0 0 1-.01 2.817l-3.008 2.97c-.753.743-2.074.743-2.82-.015h.003Zm7.947 5.162-.994-1.001a1.987 1.987 0 0 1-.575-1.414c.003-.534.21-1.034.58-1.4l2.013-1.974c.373-.37.875-.574 1.407-.574.54 0 1.043.207 1.418.589l.988.988c.776.782.774 2.05-.004 2.818l-2.012 1.974c-.755.744-2.08.742-2.823-.006h.002Z" fill="#153C88"/></g><defs><clipPath id="ea"><path fill="#fff" transform="translate(14 14)" d="M0 0h92v62H0z"/></clipPath></defs></symbol><symbol fill="none" viewBox="0 0 120 90" id="sContact-icon-4" xmlns="http://www.w3.org/2000/svg"><g clip-path="url(#fa)" fill="#153C88"><path d="M74.063 54.844c-.863 0-1.563.7-1.563 1.562v10.782c0 4.307-3.505 7.812-7.813 7.812h-16.87c-.862 0-1.562.698-1.562 1.56v3.107l-3.732-3.73a1.561 1.561 0 0 0-1.432-.939H30.937c-4.307 0-7.812-3.504-7.812-7.812V43.125c0-4.308 3.505-7.813 7.813-7.813h15.78a1.563 1.563 0 0 0 0-3.124h-15.78C24.905 32.188 20 37.093 20 43.124v24.063c0 6.03 4.906 10.937 10.938 10.937h9.353l6.417 6.417a1.563 1.563 0 0 0 2.667-1.103l.003-5.314h15.31c6.03 0 10.937-4.906 10.937-10.938v-10.78c0-.863-.7-1.563-1.563-1.563Z"/><path d="M77.289 5h-3.955C60.812 5 50.623 15.188 50.623 27.71c0 12.524 10.188 22.71 22.711 22.71h3.955a22.74 22.74 0 0 0 5.764-.739l5.842 5.84a1.563 1.563 0 0 0 2.667-1.105v-9.041a22.932 22.932 0 0 0 5.97-7.36A22.466 22.466 0 0 0 100 27.712C100 15.188 89.812 5 77.289 5Zm11.77 38.366a1.562 1.562 0 0 0-.622 1.248v6.031l-3.823-3.822a1.565 1.565 0 0 0-1.564-.389c-1.86.572-3.799.861-5.761.861h-3.955c-10.8 0-19.586-8.786-19.586-19.586 0-10.8 8.786-19.586 19.586-19.586h3.955c10.8 0 19.586 8.786 19.586 19.586 0 6.208-2.849 11.914-7.816 15.655v.002Z"/><path d="M82.349 22.097c-.225-3.27-2.863-5.908-6.135-6.133a6.561 6.561 0 0 0-4.978 1.763 6.637 6.637 0 0 0-2.101 4.835 1.563 1.563 0 0 0 3.125 0c0-.978.393-1.884 1.11-2.551a3.493 3.493 0 0 1 5.862 2.302 3.473 3.473 0 0 1-2.714 3.656 2.956 2.956 0 0 0-2.33 2.898v3.753a1.563 1.563 0 0 0 3.125 0v-3.63c3.148-.76 5.26-3.642 5.036-6.895v.002Zm-5.494 15.6a1.574 1.574 0 0 0-1.105-.458c-.41 0-.814.167-1.105.458-.29.29-.457.694-.457 1.105 0 .41.167.815.457 1.106.29.29.694.456 1.105.456.41 0 .814-.166 1.105-.456a1.58 1.58 0 0 0 .457-1.106c0-.413-.167-.815-.457-1.105ZM62.969 53.438H30a1.563 1.563 0 0 0 0 3.124h32.969a1.563 1.563 0 0 0 0-3.124Zm1.104 9.207a1.574 1.574 0 0 0-1.104-.458c-.411 0-.814.168-1.105.458-.29.29-.458.694-.458 1.105 0 .41.167.814.458 1.105.29.29.694.457 1.105.457.41 0 .814-.167 1.104-.457a1.57 1.57 0 0 0 .458-1.105 1.57 1.57 0 0 0-.458-1.105Zm-7.25-.457H30a1.563 1.563 0 0 0 0 3.124h26.823a1.563 1.563 0 0 0 0-3.124Zm-4.01-17.5H30a1.563 1.563 0 0 0 0 3.124h22.813a1.563 1.563 0 0 0 0-3.124Z"/></g><defs><clipPath id="fa"><path fill="#fff" transform="translate(20 5)" d="M0 0h80v80H0z"/></clipPath></defs></symbol><symbol fill="none" viewBox="0 0 16 16" id="telegram" xmlns="http://www.w3.org/2000/svg"><path d="m14.629 3.698-2.012 9.618c-.152.679-.548.848-1.11.528l-3.066-2.29-1.48 1.442c-.163.166-.3.305-.616.305l.22-3.165 5.683-5.204c.247-.223-.054-.347-.384-.123L4.839 9.29l-3.024-.959c-.658-.208-.67-.667.137-.986L13.78 2.727c.548-.208 1.027.124.849.971Z" fill="#000"/></symbol></svg>