<svg width="139" height="125" viewBox="0 0 139 125" fill="none" xmlns="http://www.w3.org/2000/svg">
<g clip-path="url(#clip0_884_18128)">
<path d="M6.21715 0H72.0287C75.4755 0 78.2459 2.80573 78.2459 6.2242V117.454C78.2459 120.904 75.4433 123.678 72.0287 123.678H6.21715C2.77034 123.678 0 120.872 0 117.454V6.2242C0 2.80573 2.80255 0 6.21715 0Z" fill="#83ABDB"/>
<path d="M10.7914 0H76.603C80.0498 0 82.8201 2.80573 82.8201 6.2242V117.454C82.8201 120.904 80.0176 123.678 76.603 123.678H10.7914C7.34455 123.678 4.57422 120.872 4.57422 117.454V6.2242C4.57422 2.77348 7.37677 0 10.7914 0Z" fill="#B3D0FF"/>
<path d="M76.7641 11.0939H10.6304V107.23H76.7641V11.0939Z" fill="#E6F0FF"/>
<path d="M64.7487 5.7082C64.7487 6.4177 64.1688 6.99819 63.4602 6.99819H23.999C23.2903 6.99819 22.7104 6.4177 22.7104 5.7082C22.7104 4.99871 23.2903 4.41821 23.999 4.41821H63.4602C64.1688 4.41821 64.7487 4.99871 64.7487 5.7082Z" fill="#97B8FF"/>
<path d="M48.5775 115.97C48.5775 118.647 46.4192 120.84 43.7133 120.84C41.0074 120.84 38.8491 118.647 38.8491 115.97C38.8491 113.293 41.0396 111.1 43.7133 111.1C46.387 111.1 48.5775 113.261 48.5775 115.97Z" fill="#97B8FF"/>
<path d="M88 27.7025H21.3574V101.006H88V27.7025Z" fill="#83ABDB"/>
<path d="M87.9988 28H22.9067V101H87.9988V28Z" fill="#B3D0FF"/>
<path d="M83.6546 37.3129H28.499V78.3346H83.6546V37.3129Z" fill="#EBF3FF"/>
<path d="M83.6546 81.8176H28.499V84.8813H83.6546V81.8176Z" fill="#EBF3FF"/>
<path d="M53.2659 89.6543H28.499V92.718H53.2659V89.6543Z" fill="#EBF3FF"/>
<path d="M93.0641 92.8148C93.0641 94.7175 91.3568 96.2332 89.2629 96.2332H61.785C59.6912 96.2332 57.9839 94.6853 57.9839 92.8148V17.9631C57.9839 16.0926 59.6912 14.5446 61.785 14.5446H89.2629C91.3568 14.5446 93.0641 16.0604 93.0641 17.9631V92.8148Z" fill="#163A54"/>
<path d="M90.3905 27.0576H61.8818V27.767H90.3905V27.0576Z" fill="white"/>
<path d="M90.3905 21.0269H61.8818V21.7363H90.3905V21.0269Z" fill="white"/>
<path d="M90.3905 33.3463H61.8818V34.0557H90.3905V33.3463Z" fill="white"/>
<path d="M90.3905 39.6027H61.8818V40.3122H90.3905V39.6027Z" fill="white"/>
<path d="M90.3905 45.8592H61.8818V46.5687H90.3905V45.8592Z" fill="white"/>
<path d="M90.3905 52.1479H61.8818V52.8573H90.3905V52.1479Z" fill="white"/>
<path d="M90.3905 58.4043H61.8818V59.1138H90.3905V58.4043Z" fill="white"/>
<path d="M90.3905 64.6607H61.8818V65.3702H90.3905V64.6607Z" fill="white"/>
<path d="M90.3905 70.9495H61.8818V71.659H90.3905V70.9495Z" fill="white"/>
<path d="M90.3905 77.2059H61.8818V77.9154H90.3905V77.2059Z" fill="white"/>
<path d="M90.3905 83.4623H61.8818V84.1718H90.3905V83.4623Z" fill="white"/>
<path d="M90.3905 89.751H61.8818V90.4605H90.3905V89.751Z" fill="white"/>
<path d="M45.7103 43.9886H18.3291V71.4009H45.7103V43.9886Z" fill="#FEC000"/>
<path d="M45.4848 43.9886H18.3291V48.6649H45.4848V43.9886Z" fill="#E08B03"/>
<path d="M42.9398 51.7931H21.3892V52.6638H42.9398V51.7931Z" fill="white"/>
<path d="M42.9398 54.5988H21.3892V55.4696H42.9398V54.5988Z" fill="white"/>
<path d="M42.9398 57.4045H21.3892V58.2753H42.9398V57.4045Z" fill="white"/>
<path d="M42.9398 60.2103H21.3892V61.081H42.9398V60.2103Z" fill="white"/>
<path d="M42.9398 63.016H21.3892V63.8867H42.9398V63.016Z" fill="white"/>
<path d="M42.9398 65.8217H21.3892V66.6925H42.9398V65.8217Z" fill="white"/>
<path d="M121.476 69.1112C121.476 69.1112 128.37 65.7572 129.723 61.984C131.076 58.2108 128.338 56.437 128.338 56.437C128.338 56.437 123.183 64.2092 119.157 65.7572C115.13 67.3052 121.476 69.1112 121.476 69.1112Z" fill="#FBB99D"/>
<path d="M115.903 67.8212C115.903 67.8212 115.034 68.047 114.905 68.0792C113.81 68.3372 112.747 68.7887 111.619 68.7887C111.071 68.7887 110.524 68.6919 110.073 68.4339C109.783 68.2727 109.557 68.0792 109.332 67.8535C109.235 67.7567 109.139 67.6922 109.01 67.7245C108.913 67.7567 108.881 67.8857 108.881 67.9825C108.881 68.2404 109.139 68.434 109.3 68.6597C109.396 68.7887 109.525 69.0467 109.493 69.2402C109.429 69.4014 109.203 69.4982 109.074 69.5627C108.591 69.7239 108.076 69.7562 107.592 69.7884C107.174 69.7884 106.723 69.7562 106.69 70.2722C106.69 70.4657 106.594 70.5947 106.497 70.7559C106.465 70.8527 106.433 70.9172 106.497 71.0139C106.497 71.0462 106.529 71.0784 106.562 71.1107C106.626 71.1752 106.658 71.2719 106.658 71.3687C106.658 71.4332 106.658 71.4977 106.69 71.5622C106.723 71.6267 106.819 71.6589 106.884 71.6912C107.077 71.7234 107.27 71.7557 107.464 71.7557C107.689 71.7557 107.915 71.8202 108.172 71.8202C108.366 71.8202 108.559 71.7879 108.752 71.7879C109.59 71.7879 111.426 71.4977 111.49 71.4977C112.102 71.3687 113.648 70.8849 114.164 70.6269C114.679 70.3689 116 67.789 116 67.789L115.903 67.8212Z" fill="#FBB99D"/>
<path d="M122.539 68.5307C119.93 70.3689 111.426 71.4977 111.426 71.4977L112.296 69.1757L121.412 64.6607C121.412 64.6607 125.149 66.6925 122.539 68.563V68.5307Z" fill="#FBB99D"/>
<path d="M127.822 50.5353C133.653 51.7286 130.657 63.4352 130.657 63.4352L124.247 63.3385C124.247 63.3385 122.153 49.3744 127.822 50.5353Z" fill="#DB6005"/>
<path d="M111.071 116.389C111.071 116.389 111.619 119.808 111.361 120.356C110.556 121.969 104.467 122.678 102.341 121.711C102.051 121.582 101.729 121.066 102.277 120.356C102.857 119.647 106.239 118.582 105.885 117.163C105.563 115.744 111.071 116.357 111.071 116.357V116.389Z" fill="#FFA60E"/>
<path d="M115.517 71.3687L125.406 76.1094C124.376 79.9471 121.573 85.7843 119.737 89.4285L116.097 96.33C115.71 97.0395 115.453 97.8135 115.356 98.6197L112.747 116.067C112.618 116.873 112.135 117.615 111.426 117.97C110.202 118.582 108.108 119.26 105.692 118.518C102.116 117.421 104.597 96.0397 105.402 93.4275C106.884 88.7835 110.653 81.0758 110.717 80.8501L115.453 71.3364L115.517 71.3687Z" fill="#FEC000"/>
<path d="M136.939 115.648C136.939 115.648 139.033 118.389 138.968 119.002C138.904 119.614 131.881 124.968 131.881 124.968C131.881 124.968 131.044 124.742 131.237 123.807C131.398 122.871 133.814 120.163 132.88 119.066C131.978 118.002 136.939 115.615 136.939 115.615V115.648Z" fill="#E0880A"/>
<path d="M138.549 118.486C137.035 118.292 130.786 124.129 131.559 124.806C132.719 125.806 137.1 122.775 138.324 120.904C139.677 118.84 138.549 118.486 138.549 118.486Z" fill="#FFA60E"/>
<path d="M120.767 74.5614L130.786 73.2391C131.655 77.1414 132.171 83.4946 132.235 87.6225V95.5237C132.235 96.33 132.364 97.1685 132.622 97.9424L138.356 114.519C138.614 115.293 138.549 116.164 138.098 116.841C137.325 118.002 135.811 119.711 133.331 120.324C129.723 121.227 122.024 101.296 121.573 98.5874C120.703 93.7822 120.445 85.0748 120.413 84.849L120.703 74.5614H120.767Z" fill="#FEC000"/>
<path d="M129.626 53.1476C128.563 48.5036 122.507 49.9226 118.351 50.7611C115.549 51.3416 113.97 53.0831 114.131 60.0813C114.196 63.145 113.068 70.6269 114.421 74.1421C114.421 74.1421 120.22 77.7219 130.818 73.2069C130.818 73.2069 131.881 63.016 129.626 53.1153V53.1476Z" fill="#FF7600"/>
<path d="M102.277 57.211C102.277 57.211 111.555 59.662 115.001 57.7915C118.448 55.9211 117.611 52.8251 117.611 52.8251C117.611 52.8251 108.623 54.9536 104.661 53.4378C100.699 51.9221 102.277 57.211 102.277 57.211Z" fill="#FBB99D"/>
<path d="M121.444 54.5343C121.251 60.3715 109.428 59.404 109.428 59.404L108.462 53.1798C108.462 53.1798 121.605 48.8261 121.412 54.5343H121.444Z" fill="#DB6005"/>
<path d="M106.142 51.0836C106.142 51.0836 106.626 50.3418 106.69 50.2451C107.302 49.3099 107.753 48.2779 108.558 47.5039C108.945 47.1491 109.396 46.8266 109.911 46.6976C110.201 46.6331 110.523 46.6009 110.846 46.6009C110.974 46.6009 111.103 46.6009 111.168 46.4719C111.2 46.3751 111.168 46.2784 111.071 46.1816C110.878 46.0204 110.588 46.0204 110.33 45.9559C110.169 45.9236 109.879 45.8269 109.815 45.6656C109.75 45.5044 109.815 45.2786 109.911 45.1496C110.137 44.6981 110.491 44.3434 110.813 43.9886C111.103 43.6984 111.458 43.4404 111.136 43.0212C111.007 42.8599 111.007 42.7309 110.942 42.5374C110.942 42.4407 110.878 42.3762 110.781 42.3439C110.749 42.3439 110.717 42.3439 110.652 42.3117C110.556 42.3117 110.491 42.2472 110.395 42.2149C110.33 42.1827 110.298 42.1504 110.234 42.1182C110.169 42.1182 110.072 42.1182 110.008 42.1504C109.847 42.2472 109.686 42.3762 109.525 42.5052C109.364 42.6664 109.138 42.7632 108.977 42.9244C108.848 43.0534 108.752 43.2147 108.591 43.3437C107.979 43.9241 106.883 45.3431 106.819 45.4076C106.465 45.8914 105.691 47.2781 105.466 47.8264C105.273 48.3424 106.078 51.0836 106.078 51.0836H106.142Z" fill="#FBB99D"/>
<path d="M100.924 55.0503C101.568 51.9866 106.884 45.4399 106.884 45.4399L107.818 47.6974L104.307 57.082C104.307 57.082 100.28 58.114 100.892 55.0503H100.924Z" fill="#FBB99D"/>
<path d="M125.342 50.8256C125.342 51.4383 124.053 51.9543 122.475 51.9543C120.896 51.9543 119.608 51.4383 119.608 50.8256C119.608 50.2128 120.896 49.6968 122.475 49.6968C124.053 49.6968 125.342 50.2128 125.342 50.8256Z" fill="#FBB99D"/>
<path d="M120.123 47.5039C120.123 47.5039 121.219 48.7939 119.64 50.7288C119.64 50.7288 123.377 52.9541 125.342 50.7288C125.342 50.7288 124.279 49.0841 124.73 46.6976L120.091 47.5039H120.123Z" fill="#FBB99D"/>
<path d="M118.48 38.1514C118.48 38.1514 117.611 40.5057 117.514 42.9889C117.353 46.6654 118.416 48.7616 122.861 47.5361C127.21 46.3429 120.639 37.4742 118.512 38.1192L118.48 38.1514Z" fill="#FBB99D"/>
<path d="M120.316 47.8909C120.316 47.8909 121.702 47.8909 122.475 47.6329C122.475 47.6329 122.636 47.8586 122.861 47.9876C122.861 47.9876 121.573 48.3424 120.316 47.8909Z" fill="#DC8162"/>
<path d="M120.317 43.5371C121.315 44.0531 121.444 47.8586 123.474 48.1166C126.341 48.5036 128.531 43.2469 128.209 40.5379C127.887 37.8934 126.856 36.668 123.57 35.9585C120.542 35.3135 117.128 36.5712 117.385 38.3772C117.45 38.9254 117.74 39.5704 118.674 40.0864C119.64 40.6024 118.158 42.3762 120.349 43.5371H120.317Z" fill="#53424D"/>
<path d="M120.768 45.1496C120.768 45.1496 122.443 43.4082 121.734 42.6342C120.735 41.5377 119.608 44.0854 119.608 44.0854L120.768 45.1496Z" fill="#FBB99D"/>
<path d="M113.681 75.0774C113.681 75.0774 124.504 77.3026 131.269 73.8841L130.818 72.0459C130.818 72.0459 123.312 75.0129 114.067 72.9489L113.681 75.0451V75.0774Z" fill="#E08B03"/>
<path d="M119.028 73.3036H119.995L120.22 76.3351H118.642L119.028 73.3036Z" fill="#FEC000"/>
<path d="M125.761 72.9489L126.469 72.7231L127.661 75.4966L126.212 75.9804L125.761 72.9489Z" fill="#FEC000"/>
<path d="M116.193 75.8837C115.581 77.5607 113.842 81.6564 111.426 80.6889C111.104 80.5599 111.233 80.0439 111.555 80.1729C113.552 80.9791 115.098 77.1414 115.646 75.7547C115.775 75.4322 116.29 75.5612 116.161 75.8837H116.193Z" fill="#E08B03"/>
</g>
<defs>
<clipPath id="clip0_884_18128">
<rect width="139" height="125" fill="white"/>
</clipPath>
</defs>
</svg>
