<svg width="128" height="137" viewBox="0 0 128 137" fill="none" xmlns="http://www.w3.org/2000/svg">
<g clip-path="url(#clip0_884_17995)">
<path d="M103.195 2.68121H8.52711C6.17248 2.68121 4.26367 4.59031 4.26367 6.9453V130.087C4.26367 132.442 6.17248 134.351 8.52711 134.351H103.195C105.549 134.351 107.458 132.442 107.458 130.087V6.9453C107.458 4.59031 105.549 2.68121 103.195 2.68121Z" fill="#94B8ED"/>
<path d="M98.9311 2.68121H4.26344C1.90881 2.68121 0 4.59031 0 6.9453V130.087C0 132.442 1.90881 134.351 4.26344 134.351H98.9311C101.286 134.351 103.195 132.442 103.195 130.087V6.9453C103.195 4.59031 101.286 2.68121 98.9311 2.68121Z" fill="#B3D0FF"/>
<path d="M96.0565 9.07735H8.52686V127.244H96.0565V9.07735Z" fill="#D7E7FF"/>
<path d="M91.0827 15.7965H4.26367V130.798H91.0827V15.7965Z" fill="#EBF3FF"/>
<path d="M75.0299 0H31.8464C29.4918 0 27.583 1.9091 27.583 4.26409V8.56048C27.583 10.9155 29.4918 12.8246 31.8464 12.8246H75.0299C77.3845 12.8246 79.2933 10.9155 79.2933 8.56048V4.26409C79.2933 1.9091 77.3845 0 75.0299 0Z" fill="#94B8ED"/>
<path d="M29.7149 27.232H14.5991V42.3502H29.7149V27.232Z" fill="#94B8ED"/>
<path d="M29.7149 48.5848H14.5991V63.7029H29.7149V48.5848Z" fill="#94B8ED"/>
<path d="M29.7149 74.2016H14.5991V89.3197H29.7149V74.2016Z" fill="#94B8ED"/>
<path d="M29.7149 95.5544H14.5991V110.672H29.7149V95.5544Z" fill="#94B8ED"/>
<path d="M18.1519 34.145L22.706 41.6072L31.3944 23.2587L22.1569 34.7911L18.1519 34.145Z" fill="#163A54"/>
<path d="M18.1519 52.4289L22.706 59.8588L31.3944 41.5426L22.1569 53.075L18.1519 52.4289Z" fill="#163A54"/>
<path d="M18.1519 82.116L22.706 89.5459L31.3944 71.2297L22.1569 82.7621L18.1519 82.116Z" fill="#163A54"/>
<path d="M18.1519 100.4L22.706 107.83L31.3944 89.5135L22.1569 101.014L18.1519 100.4Z" fill="#163A54"/>
<path d="M84.1381 29.0733H33.9136V31.0439H84.1381V29.0733Z" fill="#B3D0FF"/>
<path d="M84.1381 33.6282H33.9136V35.5987H84.1381V33.6282Z" fill="#B3D0FF"/>
<path d="M84.1381 38.2153H33.9136V40.1858H84.1381V38.2153Z" fill="#B3D0FF"/>
<path d="M84.1381 49.6185H33.9136V51.589H84.1381V49.6185Z" fill="#B3D0FF"/>
<path d="M84.1381 54.2056H33.9136V56.1761H84.1381V54.2056Z" fill="#B3D0FF"/>
<path d="M84.1381 58.7604H33.9136V60.731H84.1381V58.7604Z" fill="#B3D0FF"/>
<path d="M84.1381 77.0443H33.9136V79.0149H84.1381V77.0443Z" fill="#B3D0FF"/>
<path d="M84.1381 81.5992H33.9136V83.5697H84.1381V81.5992Z" fill="#B3D0FF"/>
<path d="M84.1381 86.154H33.9136V88.1245H84.1381V86.154Z" fill="#B3D0FF"/>
<path d="M84.1381 97.5895H33.9136V99.56H84.1381V97.5895Z" fill="#B3D0FF"/>
<path d="M84.1381 102.144H33.9136V104.115H84.1381V102.144Z" fill="#B3D0FF"/>
<path d="M84.1381 106.731H33.9136V108.702H84.1381V106.731Z" fill="#B3D0FF"/>
<path d="M91.9225 54.7871C91.6318 55.0778 91.7933 45.9682 94.1188 46.6465C96.4443 47.3249 100.998 48.6817 101.063 51.4921C101.128 54.3348 101.192 57.3068 99.5127 58.5343C99.5127 58.5343 98.027 48.5848 91.9548 54.7871H91.9225Z" fill="#53424D"/>
<path d="M83.8154 65.7703C83.2986 65.3827 76.645 62.9276 76.322 60.7956C76.0637 59.245 80.6501 57.2099 80.6501 57.2099C80.6501 57.2099 80.5532 59.3419 86.1732 60.7633C90.9211 61.9585 83.8154 65.8026 83.8154 65.8026V65.7703Z" fill="#FFBE9E"/>
<path d="M76.2252 60.1818C75.9668 56.5961 79.2935 46.3558 79.2935 46.3558L80.8116 48.1648L80.5209 60.5048C80.5209 60.5048 76.4836 63.7675 76.1929 60.1818H76.2252Z" fill="#FFBE9E"/>
<path d="M81.1022 48.714C81.2959 48.5525 81.6189 48.5202 81.845 48.4232C82.2972 48.2294 82.6525 47.8741 83.0078 47.551C83.2016 47.3572 83.8475 47.1957 83.8152 46.8404C83.7507 46.2589 82.7817 46.8404 82.5233 46.8404C82.2972 46.8727 82.0065 46.8404 81.9096 46.5819C81.845 46.4527 81.8773 46.2912 81.9096 46.1297C82.0065 45.6451 82.2003 45.1929 82.3618 44.7083C82.4587 44.4499 82.491 44.2238 82.5879 43.9653C82.6525 43.7715 82.7817 43.5454 82.7817 43.3516C82.7817 43.19 82.6525 43.0285 82.491 43.0931C82.3295 43.1254 82.3295 43.287 82.2972 43.3839C82.168 43.6423 82.0388 43.9007 81.9096 44.1592C81.9096 44.2238 81.7804 44.4822 81.7158 44.5145C81.3928 44.5791 81.6189 43.8361 81.6512 43.7392C81.7481 43.4485 81.8127 43.1254 81.7158 42.8347C81.7158 42.8024 81.6835 42.7378 81.6512 42.7378C81.5866 42.7378 81.522 42.7701 81.4897 42.8347C81.2959 43.1577 81.199 43.5777 81.0053 43.9007C80.973 43.9653 80.9084 43.9976 80.8438 43.9976C80.5854 43.9976 80.65 43.4808 80.65 43.287C80.65 43.19 80.65 43.0608 80.5531 42.9962C80.4885 42.9962 80.4239 42.9962 80.3593 43.0608C80.327 43.1254 80.2947 43.19 80.2624 43.2547C80.1978 43.4485 80.1009 43.6423 80.0363 43.8361C80.0363 43.933 79.9717 44.2238 79.8425 44.2238C79.8425 44.2238 79.7779 44.2238 79.7779 44.1915C79.7133 44.1269 79.7133 43.9976 79.7133 43.933C79.7133 43.8361 79.6487 43.7392 79.5518 43.7069C79.4226 43.6746 79.3257 43.8038 79.2934 43.9007C79.0996 44.2884 79.035 44.7406 78.9381 45.1606C78.8412 45.6128 78.7766 46.0651 78.7443 46.5173C78.6474 47.3572 78.7443 48.2294 78.5828 49.0693C78.5828 49.1985 78.5182 49.3278 78.5505 49.457C78.5505 49.7154 78.712 49.9092 78.8735 50.103C79.1965 50.4261 79.681 50.6199 80.1332 50.5553C80.2947 50.5553 80.5854 50.523 80.65 50.3938C80.7146 50.2969 80.65 50.103 80.65 49.9738C80.65 49.8123 80.65 49.6508 80.7146 49.5216C80.7792 49.2631 80.9084 49.0047 81.1345 48.7786L81.1022 48.714Z" fill="#FFBE9E"/>
<path d="M95.4106 66.0611C97.4777 67.4824 98.8988 69.5822 97.8007 71.4235C97.1547 72.4572 94.7646 73.0387 93.2143 72.651C90.2105 71.908 83.6538 68.8069 80.1656 64.8012C78.8736 63.3476 80.5854 58.5989 83.7507 59.6326C87.9173 60.9894 92.5037 64.0582 95.4429 66.0611H95.4106Z" fill="#984512"/>
<path d="M125.125 126.178C125.125 126.178 127.774 128.375 127.935 128.956C128.42 130.668 124.479 135.062 122.348 135.708C122.057 135.805 121.476 135.643 121.411 134.739C121.346 133.867 123.09 130.895 121.928 130.055C120.765 129.215 125.125 126.146 125.125 126.146V126.178Z" fill="#D2A35F"/>
<path d="M109.881 110.026C109.881 110.026 109.913 90.6119 109.331 87.4784C108.492 82.859 103.421 79.7578 98.9636 82.7944C95.8952 84.8941 97.4456 113.289 104.228 115.841C109.525 117.844 109.848 109.994 109.848 109.994L109.881 110.026Z" fill="#163A54"/>
<path d="M119.828 131.444C114.984 127.955 101.547 115.389 100.643 110.834C99.6741 105.924 106.392 105.342 111.108 109.994C114.144 112.998 124.318 123.336 126.87 126.307C127.483 127.018 125.319 129.053 124.157 130.022C124.157 130.022 121.217 132.445 119.828 131.444Z" fill="#163A54"/>
<path d="M88.6602 131.153C88.6602 131.153 89.2738 134.545 89.0155 135.094C88.2726 136.709 82.4265 137.517 80.3594 136.612C80.0687 136.483 79.7457 135.999 80.2948 135.288C80.8439 134.577 84.0414 133.447 83.7185 132.058C83.3632 130.668 88.6925 131.153 88.6925 131.153H88.6602Z" fill="#D2A35F"/>
<path d="M90.2751 105.407C90.2751 105.407 100.094 94.1976 101.709 91.4518C104.067 87.3815 102.226 81.7284 96.8318 81.1792C93.1497 80.7915 75.7407 103.275 79.4228 109.768C82.2327 114.71 90.2751 105.407 90.2751 105.407Z" fill="#163A54"/>
<path d="M81.1991 131.734C79.778 125.952 77.6786 107.668 79.9395 103.63C82.3619 99.237 87.885 103.178 88.4664 109.768C88.8217 114.032 89.8875 128.472 89.8875 132.413C89.8875 133.382 86.6899 133.511 85.2042 133.479C85.1719 133.479 81.619 133.414 81.1991 131.734Z" fill="#163A54"/>
<path d="M103.647 88.9321C104.422 90.3211 106.553 93.6807 108.524 92.4855C108.782 92.324 108.588 91.8717 108.33 92.0332C106.683 93.0347 104.745 89.8689 104.099 88.706C103.937 88.4475 103.485 88.6414 103.647 88.8998V88.9321Z" fill="#113144"/>
<path d="M93.7311 89.6428C92.4391 90.5796 89.1447 92.8085 87.8204 90.9026C87.6589 90.6442 88.0142 90.3212 88.1757 90.5796C89.2739 92.1625 92.3099 90.0627 93.4081 89.2551C93.6665 89.0613 93.9895 89.449 93.7311 89.6105V89.6428Z" fill="#113144"/>
<path d="M98.9314 91.6456C97.9624 92.9055 97.8009 94.9729 98.35 96.5881C98.4792 97.008 97.8332 97.1695 97.704 96.7819C97.058 94.9406 97.2195 92.7762 98.4469 91.1611C98.7053 90.8057 99.1897 91.2903 98.9314 91.6456Z" fill="#113144"/>
<path d="M88.6603 67.3855C89.2094 63.0245 96.8642 62.9599 102.032 62.8307C105.52 62.7338 107.749 63.9613 108.653 70.2282C109.009 72.6833 110.494 80.1455 109.977 84.1188C109.881 84.8295 108.976 85.6371 108.556 86.1863C105.972 89.4489 89.0156 89.6105 88.9833 85.6694C88.9833 85.6694 87.4652 76.689 88.6603 67.3855Z" fill="#D2A35F"/>
<path d="M99.7709 56.37C99.7709 56.37 94.7646 58.2113 95.1199 58.5989C95.4752 58.9866 95.0876 59.8911 95.1845 60.731C95.2814 61.6355 94.8292 62.6692 94.1833 63.6706C93.7311 64.3813 94.8292 64.995 95.7336 65.0274C99.6417 65.1889 101.838 63.4445 100.837 62.3138C98.6405 59.7942 99.8032 56.3377 99.8032 56.3377L99.7709 56.37Z" fill="#FFBE9E"/>
<path d="M95.1849 60.731C95.088 59.8911 95.4756 58.9866 95.1203 58.5989C94.765 58.2113 100.191 56.2084 100.191 56.2084C100.191 56.2084 99.4806 57.2099 99.5129 58.5343C98.2533 60.8602 96.1538 61.8293 94.8296 62.5723C95.1203 62.0231 95.2495 61.054 95.2172 60.731H95.1849Z" fill="#FF9C81"/>
<path d="M93.7312 51.1368C91.9225 52.9781 90.9212 58.5343 93.4405 60.7633C94.7971 61.9908 98.8667 59.8911 100.417 56.5961C100.611 56.1761 100.934 53.818 99.5127 51.5244C98.8667 50.4907 95.6045 49.2631 93.7312 51.1691V51.1368Z" fill="#FFBE9E"/>
<path d="M91.9546 55.6593C92.0192 55.9823 91.9546 52.3966 93.9248 51.8474C94.7323 51.6213 94.6677 52.5258 95.6044 52.4612C96.4118 52.3966 98.5758 50.4584 98.3498 55.3685C98.3498 55.5947 98.6081 55.8531 98.7373 56.0469C98.8988 56.2731 98.5758 56.9191 98.6404 57.2099C98.6727 57.4683 99.3833 56.5315 99.4156 56.7899C99.4479 57.2099 98.8988 58.4697 99.5125 58.5343C99.8032 58.5666 100.094 58.0498 100.288 57.8559C100.837 57.3391 101.45 56.9191 101.87 56.273C102.355 55.5624 102.549 54.6902 102.549 53.8503C102.549 53.0104 102.419 52.1382 102 51.4275C101.547 50.6845 100.74 50.1353 99.9001 49.9738C99.3833 49.8769 98.8342 49.9738 98.3498 49.78C97.8976 49.6508 97.4454 49.6508 97.0255 49.5216C96.6702 49.4247 96.541 49.2308 96.2826 48.9724C95.7335 48.4556 94.9261 48.1648 94.1832 48.3263C93.4403 48.4556 92.7621 49.0693 92.6006 49.8123C92.5037 50.2323 91.9546 54.464 91.9869 54.7871C91.9869 55.0778 91.9869 55.3685 92.0192 55.6593H91.9546Z" fill="#53424D"/>
<path d="M98.0271 56.6284C98.0271 56.6284 99.3191 55.1101 100.159 55.3686C101.031 55.627 100.191 57.9852 98.4793 57.9205C96.7675 57.8559 97.6072 57.016 97.9948 56.5961L98.0271 56.6284Z" fill="#FFBE9E"/>
<path d="M96.3798 56.2407C96.3798 56.2407 96.3475 56.2407 96.3152 56.2407C96.2506 56.2407 96.1861 56.3054 96.1215 56.3054C95.8631 56.37 95.7339 56.2084 95.637 56.0146C95.5724 55.8854 95.3786 56.0146 95.4432 56.1115C95.637 56.5638 96.1215 56.6607 96.5413 56.37C96.6705 56.273 96.509 56.1115 96.3798 56.2084V56.2407Z" fill="#201714"/>
<path d="M93.893 55.7239C93.893 55.7239 93.7638 55.8531 93.6992 55.8854C93.4731 56.0146 93.3116 55.8854 93.1824 55.6916C93.1178 55.5624 92.8917 55.6916 92.9886 55.7885C93.1178 56.0469 93.3439 56.2407 93.6669 56.1438C93.8284 56.0792 93.9899 55.95 94.0868 55.8208C94.1837 55.6916 93.9899 55.5947 93.893 55.6916V55.7239Z" fill="#201714"/>
<path d="M93.3115 54.6256C93.6668 54.4963 93.9897 54.6256 94.1835 54.9809C94.2804 55.1424 94.5065 54.9809 94.4096 54.8194C94.1835 54.3671 93.6991 54.1733 93.2146 54.3671C93.0531 54.4317 93.1177 54.6902 93.3115 54.6256Z" fill="#4D2F20"/>
<path d="M95.637 55.2393C95.96 55.0132 96.3153 55.0778 96.5737 55.3362C96.7029 55.4655 96.8967 55.2716 96.7675 55.1424C96.4122 54.7871 95.9277 54.7225 95.5078 55.0132C95.3463 55.1101 95.5078 55.3362 95.6693 55.2393H95.637Z" fill="#4D2F20"/>
<path d="M94.7003 55.4008C94.7648 55.627 94.8294 55.9177 94.7649 56.1761C94.668 56.5315 94.2804 56.693 94.0543 57.016C93.7636 57.436 94.0543 57.6621 94.5711 57.7913C94.7003 57.7913 94.7325 57.6621 94.6357 57.6298C93.5375 57.3391 94.7971 56.7576 94.9586 56.273C95.0555 55.9823 95.0232 55.6593 94.9263 55.3685C94.894 55.2716 94.7003 55.3039 94.7326 55.4008H94.7003Z" fill="#7C4930"/>
<path d="M94.1836 59.3742C94.1836 59.3742 93.6022 58.6312 94.2805 58.179C94.9264 57.759 95.4755 58.4051 95.4755 58.4051L94.1836 59.3742Z" fill="#FAFFFF"/>
<path d="M96.9934 57.9205C96.8965 58.2113 96.6058 58.3728 96.3151 58.2759C96.0244 58.179 95.8629 57.8882 95.9598 57.5975C96.0567 57.3068 96.3474 57.1452 96.6381 57.2421C96.9288 57.3391 97.0903 57.6298 96.9934 57.9205Z" fill="#FF9C81"/>
<path d="M92.4394 56.7576C92.6655 56.5638 93.0208 56.5961 93.2146 56.8222C93.4084 57.0483 93.3761 57.4037 93.15 57.5975C92.9239 57.7913 92.5686 57.759 92.3748 57.5329C92.181 57.3068 92.2133 56.9514 92.4394 56.7576Z" fill="#FF9C81"/>
<path d="M99.4482 77.432C98.996 77.8842 95.7015 84.1834 93.5375 84.2157C91.9548 84.248 90.5337 79.4671 90.5337 79.4671C90.5337 79.4671 92.6331 79.8224 94.7648 74.4277C96.5413 69.8729 99.4482 77.3997 99.4482 77.3997V77.432Z" fill="#FFBE9E"/>
<path d="M92.9239 84.2157C89.3387 84.0219 79.5845 79.4025 79.5845 79.4025L81.587 78.1104L93.7959 79.984C93.7959 79.984 96.509 84.4096 92.9239 84.2157Z" fill="#FFBE9E"/>
<path d="M82.2006 77.9165C82.0714 77.6904 82.0714 77.3997 82.0068 77.1412C81.8776 76.6567 81.5869 76.269 81.2962 75.8814C81.1347 75.6553 81.0701 75.0092 80.7148 75.0092C80.1334 75.0092 80.5533 76.0429 80.5856 76.3013C80.5856 76.5275 80.4887 76.8182 80.2626 76.8828C80.1012 76.9474 79.9397 76.8828 79.8105 76.8182C79.3583 76.6567 78.9061 76.3982 78.4539 76.2044C78.2278 76.1075 78.0017 76.0106 77.7433 75.9137C77.5818 75.8491 77.3558 75.6876 77.162 75.6553C77.0005 75.6553 76.839 75.7522 76.839 75.9137C76.839 76.0752 77.0005 76.0752 77.0974 76.1398C77.3235 76.3013 77.5818 76.4629 77.8079 76.6244C77.8725 76.6567 78.1309 76.7859 78.1309 76.8505C78.1309 77.1735 77.4527 76.8505 77.3558 76.8182C77.0651 76.689 76.7744 76.5921 76.4514 76.6567C76.4191 76.6567 76.3545 76.6567 76.3545 76.7213C76.3545 76.7859 76.3545 76.8505 76.4191 76.8828C76.7098 77.1412 77.0974 77.2381 77.4204 77.4966C77.4849 77.5289 77.5172 77.5935 77.5172 77.6581C77.4527 77.9165 76.9682 77.7873 76.8067 77.755C76.7098 77.755 76.5806 77.755 76.516 77.8196C76.4837 77.8842 76.516 77.9488 76.516 78.0134C76.5483 78.078 76.6129 78.1103 76.6775 78.1426C76.8713 78.2396 77.0328 78.3688 77.2266 78.4334C77.3235 78.4657 77.6141 78.5626 77.5818 78.6918C77.5818 78.6918 77.5818 78.7241 77.5495 78.7564C77.4527 78.821 77.3558 78.7887 77.2589 78.7887C77.162 78.7887 77.0651 78.7887 77.0005 78.9179C76.9682 79.0148 77.0651 79.1441 77.162 79.2087C77.5172 79.4671 77.9371 79.5963 78.357 79.7255C78.7769 79.887 79.2291 79.984 79.6813 80.1132C80.521 80.307 81.3931 80.3393 82.2006 80.5977C82.3298 80.63 82.459 80.6946 82.5882 80.6946C82.8465 80.6946 83.0726 80.5977 83.2664 80.4362C83.6217 80.1455 83.8801 79.6932 83.8801 79.241C83.8801 79.0795 83.8801 78.7887 83.7832 78.6918C83.6863 78.6272 83.4925 78.6272 83.3633 78.5949C83.2018 78.5626 83.0726 78.5303 82.9111 78.4657C82.6528 78.3688 82.4267 78.2073 82.2329 77.9488L82.2006 77.9165Z" fill="#FFBE9E"/>
<path d="M101.224 65.9642C102.904 64.0905 105.165 62.9599 106.844 64.2844C107.781 65.0596 108.072 67.4824 107.49 68.9684C106.36 71.8434 102.452 77.9488 98.0267 80.9208C96.4118 81.9868 91.9546 79.7255 93.3757 76.689C95.2491 72.7479 98.8988 68.5807 101.257 65.9318L101.224 65.9642Z" fill="#A13819"/>
</g>
<defs>
<clipPath id="clip0_884_17995">
<rect width="128" height="137" fill="white"/>
</clipPath>
</defs>
</svg>
