<svg width="92" height="62" viewBox="0 0 92 62" fill="none" xmlns="http://www.w3.org/2000/svg">
<g id="Layer_1" clip-path="url(#clip0_1072_341)">
<path id="Vector" d="M91.8986 33.1958C91.6024 32.4061 90.7213 32.0093 89.93 32.305L84.374 34.3957L75.5058 9.10503L90.7614 3.00461C91.545 2.68986 91.9273 1.80284 91.6119 1.02073C91.2966 0.238624 90.4098 -0.139076 89.6242 0.171859L73.0135 6.81594C72.2548 7.11734 71.8706 7.96621 72.1382 8.73496L72.4268 9.55904L67.8876 10.8066C67.5856 10.5281 67.2645 10.2572 66.9147 9.99396C66.7408 9.86043 66.5363 9.76505 66.3184 9.71927C58.1172 7.92997 47.9341 5.97089 46.0076 6.76253C42.7871 8.08639 36.8641 12.1591 33.3264 14.5874L31.7573 15.6556C31.396 15.896 31.1571 16.2813 31.096 16.7124C30.8781 18.2652 30.1518 20.2777 29.3128 22.6088C28.7929 24.0528 28.231 25.6113 27.7112 27.2823C27.5468 27.8164 27.6844 28.3963 28.0724 28.7988C29.7657 30.5481 31.8395 31.4809 33.9896 31.4809C34.2897 31.4809 34.5897 31.4656 34.8917 31.4294C37.2043 31.149 39.28 29.7965 40.4363 27.8126C41.0823 26.7081 41.7206 25.0543 42.1679 23.6808C43.8249 23.3718 46.6746 22.7537 48.3488 22.357C49.1707 22.1624 49.6791 21.3402 49.4841 20.52C49.2911 19.7016 48.4635 19.1828 47.6436 19.3869C45.4418 19.9095 41.7206 20.6936 40.7841 20.8175C40.1821 20.8977 39.6832 21.325 39.515 21.9049C39.0296 23.5778 38.3186 25.3747 37.793 26.2789C37.1241 27.4235 35.8703 28.238 34.5209 28.4002C33.6188 28.5032 32.2982 28.3811 30.924 27.2766C31.3464 25.9947 31.784 24.7834 32.193 23.6446C32.9824 21.4509 33.6762 19.5204 34.0087 17.8188L35.058 17.1054C38.2727 14.8983 44.253 10.7875 47.076 9.61817C48.5017 9.34348 57.4005 10.9115 65.3265 12.6302C65.7049 12.9393 66.0489 13.2597 66.37 13.5821C66.7618 13.9789 67.3333 14.1315 67.8646 13.9827L73.4417 12.449L79.7278 30.3707L77.7477 31.2501C77.1724 31.5057 76.815 32.0856 76.8418 32.7151C76.8456 32.7304 76.8838 34.0771 76.3582 35.9046L67.9697 31.3264L54.3769 22.9025C53.6545 22.46 52.7141 22.6832 52.2726 23.4023C51.8292 24.1234 52.0548 25.06 52.7734 25.5025L66.4331 33.9626L76.4538 39.4355C76.4653 39.4412 76.4767 39.445 76.4882 39.4526C76.492 39.4526 76.4939 39.4565 76.4958 39.4584C77.8146 40.1756 78.3268 41.8753 77.6273 43.1667C76.8838 44.5153 75.3242 45.0323 74.0131 44.3208L63.6809 39.2028C62.9585 38.8422 62.0755 39.115 61.6741 39.8132C61.2727 40.5152 61.4868 41.406 62.1672 41.8486L67.2377 45.1391C68.5011 45.8297 68.8891 47.3004 68.1551 48.6376C67.7882 49.3129 67.1728 49.8165 66.4732 50.0206C66.026 50.1541 65.338 50.2247 64.6021 49.8222L56.6551 45.4882C55.9365 45.0972 55.0459 45.3318 54.6216 46.0261C54.1973 46.7167 54.3827 47.619 55.0497 48.0825L59.2277 50.982C59.6615 51.6077 59.9425 52.8476 59.4054 53.8319C58.7136 55.0948 56.9896 55.5373 55.6078 54.7876L51.0934 52.428C50.4914 52.1113 49.6905 52.3002 49.2166 52.7904C48.6757 53.3589 48.6508 54.2402 49.1611 54.8353C49.681 55.44 49.8836 56.678 49.3198 57.7043C48.9471 58.3815 48.3221 58.6867 47.8615 58.8222C47.0664 59.0549 46.1605 58.9557 45.4399 58.5627L44.5588 58.0877C46.2637 56.1191 46.191 53.1242 44.3199 51.2357L43.3299 50.2438C42.1583 49.0592 40.4248 48.6033 38.8232 48.878C38.8882 47.5141 38.4046 46.1311 37.3706 45.0876L36.3806 44.09C35.2071 42.9054 33.4774 42.4494 31.8758 42.7241C31.8796 42.6497 31.8815 42.5773 31.8815 42.5029C31.8872 41.1542 31.3712 39.8876 30.4232 38.9357L29.4294 37.9323C28.1794 36.6771 26.3102 36.2422 24.6321 36.6294C24.6321 36.5932 24.6359 36.5569 24.6359 36.5207C24.6417 35.1682 24.1256 33.9016 23.1777 32.9459L22.1838 31.9444C20.5191 30.2658 17.7325 30.0578 15.7869 31.3149L11.6681 29.2414L17.5414 12.4967L27.2525 14.4119C27.3537 14.4329 27.455 14.4424 27.5525 14.4424C28.2673 14.4424 28.9076 13.9388 29.0471 13.212C29.2115 12.3842 28.6744 11.5849 27.8449 11.4208L18.5601 9.58956L18.8907 8.64721C19.1564 7.888 18.7837 7.05057 18.0402 6.73582L2.31826 0.118447C1.54229 -0.202026 0.645917 0.154691 0.315271 0.929166C-0.0115535 1.70746 0.351584 2.60211 1.13137 2.9283L15.5288 8.98295L6.63005 34.3537L2.01628 32.8124C1.2212 32.5472 0.349673 32.9745 0.0801866 33.7738C-0.1893 34.5731 0.242643 35.4372 1.04346 35.7062L7.08875 37.7263C7.2512 37.7816 7.41366 37.8064 7.5742 37.8064C8.20492 37.8064 8.7974 37.4134 9.01529 36.7878L10.6456 32.1409L13.3921 33.522L13.0232 33.8844C11.0469 35.8416 11.0317 39.0387 12.9964 41.0207L13.9903 42.0183C14.8503 42.8825 15.9703 43.3937 17.1782 43.4872C16.9221 44.0938 16.7883 44.7519 16.7864 45.4291C16.7826 46.7758 17.3025 48.0425 18.2505 48.9905L19.2443 49.9882C20.1961 50.9534 21.4709 51.4799 22.8317 51.4799C23.5045 51.4799 24.1562 51.3502 24.7602 51.1022C24.8749 52.2525 25.3756 53.3188 26.1994 54.1448L27.1894 55.1463C28.1431 56.1077 29.4179 56.638 30.7787 56.638C31.4515 56.638 32.1032 56.5083 32.7072 56.2603C32.8218 57.4086 33.3188 58.4769 34.1425 59.3086L35.1402 60.312C36.0939 61.2677 37.3668 61.7961 38.7238 61.7961C40.0693 61.7961 41.3326 61.2772 42.2806 60.3463L42.2959 60.331L43.9778 61.2391C44.8952 61.7427 45.9311 61.9983 46.9708 61.9983C47.5614 61.9983 48.152 61.9162 48.7234 61.7484C50.1607 61.3249 51.3266 60.4093 52.0051 59.1636C52.4217 58.4063 52.6511 57.5574 52.6989 56.7105L54.161 57.4735C56.9743 59.0091 60.5981 58.0038 62.085 55.2912C62.6106 54.3298 62.7979 53.2826 62.7387 52.2849L63.1362 52.4985C64.4263 53.2005 65.919 53.3627 67.3371 52.9468C68.8107 52.5157 70.0893 51.478 70.8424 50.0988C71.4654 48.9657 71.7043 47.7067 71.5342 46.4935L72.6103 47.0238C75.3739 48.5308 78.753 47.4759 80.3203 44.6241C81.5989 42.2701 80.9911 39.2962 79.0474 37.5432C79.5978 35.9446 79.7966 34.5502 79.8673 33.6479L80.7446 33.2587L82.0136 36.8774C82.1474 37.2647 82.436 37.5832 82.8087 37.7568C83.0113 37.8522 83.233 37.8999 83.4547 37.8999C83.6382 37.8999 83.8217 37.8655 83.9899 37.7988L91.0118 35.1587C91.8031 34.863 92.2044 33.9798 91.9044 33.1939L91.8986 33.1958ZM15.1638 38.867C14.3897 38.0849 14.3935 36.8183 15.1695 36.0495L17.1821 34.0752C17.5586 33.7051 18.0593 33.501 18.5926 33.501C19.1258 33.501 19.6361 33.7089 20.0088 34.0866L21.0027 35.0881C21.3754 35.4639 21.5779 35.9637 21.5741 36.4978C21.5703 37.0319 21.3658 37.5298 20.9931 37.8961L18.9786 39.8742C18.2256 40.6182 16.9049 40.6163 16.1557 39.8628L15.1657 38.867H15.1638ZM21.4117 47.8402L20.414 46.8388C20.0413 46.4668 19.8387 45.9689 19.8387 45.4386C19.8425 44.9045 20.0489 44.4047 20.4293 44.0289L24.4314 40.065C24.8041 39.693 25.303 39.4908 25.8343 39.4908C26.3656 39.4908 26.8778 39.7006 27.2525 40.0764L28.2463 41.0798C28.619 41.4518 28.8216 41.9497 28.8178 42.4838C28.8178 43.0179 28.6094 43.5177 28.231 43.8916L24.2288 47.8536C23.4758 48.5956 22.1551 48.5976 21.4098 47.8422L21.4117 47.8402ZM29.3587 52.9983L28.361 51.9949C27.9883 51.623 27.7838 51.1251 27.7857 50.591C27.7895 50.0568 27.994 49.559 28.3705 49.187L31.3827 46.2169C31.7554 45.8468 32.2542 45.6427 32.7855 45.6427C33.3169 45.6427 33.831 45.8507 34.2037 46.2283L35.1937 47.226C35.9678 48.0081 35.962 49.2709 35.1841 50.0435L32.1758 53.0136C31.4228 53.7556 30.1021 53.7556 29.3567 52.9983H29.3587ZM37.3056 58.1602L36.3118 57.1588C35.9391 56.783 35.7365 56.2832 35.7365 55.7452C35.7403 55.2111 35.9467 54.7113 36.3175 54.3451L38.3301 52.3707C38.7028 52.0007 39.2054 51.7966 39.7367 51.7966C40.2776 51.7966 40.7803 52.0045 41.1549 52.386L42.143 53.3741C42.919 54.1562 42.9171 55.4248 42.1392 56.1916L40.1266 58.166C39.3717 58.9099 38.0472 58.908 37.3037 58.1602H37.3056Z" fill="#153C88"/>
</g>
<defs>
<clipPath id="clip0_1072_341">
<rect width="92" height="62" fill="white"/>
</clipPath>
</defs>
</svg>
