<svg width="91" height="59" viewBox="0 0 91 59" fill="none" xmlns="http://www.w3.org/2000/svg">
<g id="Capa_1" clip-path="url(#clip0_1072_320)">
<path id="Vector" d="M61.1774 33.2376L53.4317 29.7494C52.8843 29.5027 52.5306 28.9517 52.5306 28.3448V26.1892C55.1326 24.0895 56.8051 20.8534 56.8051 17.2284V14.194C57.6618 13.715 58.2305 12.7858 58.2305 11.7485V11.455C58.2305 5.13772 53.158 0 46.9248 0H44.0758C37.8408 0 32.7701 5.13952 32.7701 11.455V14.1274C32.7701 15.0404 33.1575 15.867 33.8347 16.3964C33.9502 16.4864 34.0693 16.5657 34.1955 16.6341V17.2302C34.1955 20.8552 35.868 24.0895 38.47 26.191V28.3466C38.47 28.9535 38.1163 29.5045 37.5689 29.7512L29.8232 33.2394C27.287 34.3811 25.6465 36.9383 25.6465 39.7493V57.6494C25.6465 58.3949 26.2437 59 26.9795 59C27.7153 59 28.3125 58.3949 28.3125 57.6494V39.7493C28.3125 39.5926 28.3232 39.4378 28.3392 39.2847L31.9081 42.9007C32.4626 43.4644 32.7701 44.2117 32.7701 45.0077V57.6494C32.7701 58.3949 33.3673 59 34.1031 59C34.8389 59 35.4361 58.3949 35.4361 57.6494V45.0077C35.4361 43.4896 34.8531 42.0634 33.7938 40.9901L29.5389 36.6789C29.9228 36.2756 30.3813 35.9424 30.9056 35.7065L38.5216 32.2778L44.1682 37.9989V57.6494C44.1682 58.3949 44.7654 59 45.5012 59C46.237 59 46.8342 58.3949 46.8342 57.6494V37.9989L52.4808 32.2778L60.0967 35.7065C60.6193 35.9424 61.0796 36.2756 61.4635 36.6789L57.2086 40.9901C56.1493 42.0634 55.5663 43.4896 55.5663 45.0077V57.6494C55.5663 58.3949 56.1635 59 56.8993 59C57.6351 59 58.2323 58.3949 58.2323 57.6494V45.0077C58.2323 44.2117 58.538 43.4626 59.0943 42.9007L62.6632 39.2847C62.6792 39.4378 62.6899 39.5926 62.6899 39.7493V57.6494C62.6899 58.3949 63.2871 59 64.0229 59C64.7587 59 65.3559 58.3949 65.3559 57.6494V39.7493C65.3559 36.9365 63.7154 34.3811 61.1791 33.2394L61.1774 33.2376ZM45.4994 35.53L40.5442 30.5094C40.921 29.8665 41.1343 29.1245 41.1343 28.3466V27.7973C42.4779 28.37 43.9531 28.6869 45.5012 28.6869C47.0493 28.6869 48.5227 28.37 49.8664 27.7973V28.3466C49.8664 29.1245 50.0796 29.8665 50.4564 30.5094L45.5012 35.53H45.4994ZM45.4994 25.9839C40.7361 25.9839 36.8597 22.0563 36.8597 17.2302V16.6233C37.6915 16.2901 38.5038 15.7571 39.2805 15.0314C39.8208 14.5253 39.8546 13.6718 39.3551 13.1225C38.8557 12.5751 38.0132 12.5409 37.4712 13.0451C36.8046 13.6682 36.1381 14.0715 35.4912 14.2426C35.4752 14.2462 35.4645 14.248 35.4556 14.2498C35.4468 14.2318 35.4325 14.1922 35.4325 14.1274V11.455C35.4325 6.62879 39.3089 2.70122 44.0722 2.70122H46.9213C51.6863 2.70122 55.561 6.62879 55.561 11.455V11.7485C55.561 11.7917 55.5343 11.8295 55.5005 11.8367C47.5185 13.4341 43.5141 10.4231 42.1633 9.05448C41.6426 8.52684 40.7983 8.52684 40.2776 9.05448C39.7568 9.58212 39.7568 10.4375 40.2776 10.9651C44.417 15.1592 50.4564 15.2349 54.1337 14.7865V17.2266C54.1337 22.0545 50.2574 25.9803 45.4941 25.9803L45.4994 25.9839Z" fill="#153C88"/>
<path id="Vector_2" d="M24.0368 25.8921V23.0036C24.0368 19.4794 22.2292 16.3784 19.5063 14.5938C19.6752 14.0463 19.7623 13.4755 19.7623 12.8992C19.7623 9.7658 17.2473 7.21765 14.1548 7.21765C11.0622 7.21765 8.54725 9.7658 8.54725 12.8992C8.54725 13.4827 8.63434 14.0481 8.80318 14.5938C6.08029 16.3784 4.27273 19.4794 4.27273 23.0036V25.8903C4.27273 29.3028 5.96654 32.3192 8.54725 34.1272V37.0967C8.54725 37.682 8.22555 38.2096 7.70834 38.4707L3.09791 40.8064C1.18727 41.777 0 43.7237 0 45.8901V57.6494C0 58.3949 0.597188 59 1.33301 59C2.06883 59 2.66602 58.3949 2.66602 57.6494V46.4753L4.83793 48.6759C5.39246 49.2396 5.69994 49.9869 5.69994 50.7829V57.6512C5.69994 58.3967 6.29713 59.0018 7.03295 59.0018C7.76877 59.0018 8.36596 58.3967 8.36596 57.6512V50.7829C8.36596 49.2648 7.78299 47.8386 6.72369 46.7653L3.70043 43.7021C3.68621 43.6877 3.67021 43.6751 3.656 43.6607C3.84617 43.4914 4.05768 43.3437 4.29228 43.2249L8.90271 40.8892C9.1391 40.7686 9.35949 40.6281 9.56389 40.4714L12.8235 43.7741V57.6494C12.8235 58.3949 13.4207 59 14.1565 59C14.8924 59 15.4896 58.3949 15.4896 57.6494V43.7723L18.7492 40.4696C18.9536 40.6263 19.174 40.7686 19.4104 40.8874L20.6812 41.5321C20.8731 41.6294 21.0757 41.6744 21.2766 41.6744C21.7654 41.6744 22.2363 41.4007 22.4692 40.927C22.798 40.2607 22.5314 39.4486 21.8738 39.1154L20.603 38.4707C20.0858 38.2096 19.7641 37.682 19.7641 37.0967V34.1272C22.3448 32.3192 24.0386 29.301 24.0386 25.8903L24.0368 25.8921ZM14.1548 9.91887C15.7757 9.91887 17.0963 11.2551 17.0963 12.8992C17.0963 13.0811 17.0803 13.2576 17.0501 13.4323C16.1347 13.1477 15.1625 12.9929 14.1548 12.9929C13.147 12.9929 12.1784 13.1459 11.2648 13.4305C11.2346 13.2576 11.215 13.0793 11.215 12.8992C11.215 11.2551 12.5338 9.91887 14.1565 9.91887H14.1548ZM14.1548 15.6941C18.1342 15.6941 21.3708 18.9734 21.3708 23.0054V23.4952C15.8219 25.2168 12.5143 20.9398 12.3721 20.7526C12.1393 20.4392 11.7856 20.2429 11.3999 20.2159C11.0142 20.1889 10.6356 20.3312 10.3637 20.6085C9.09111 21.8979 7.8452 22.5191 6.94408 22.8199C7.04361 18.8743 10.2375 15.6959 14.1548 15.6959V15.6941ZM14.1548 41.3052L11.0746 38.1844C11.1653 37.8369 11.2133 37.4731 11.2133 37.1003V35.4526C12.1428 35.7461 13.131 35.9064 14.1548 35.9064C15.1785 35.9064 16.1667 35.7479 17.0963 35.4526V37.1003C17.0963 37.4731 17.146 37.8369 17.2349 38.1844L14.1548 41.3052ZM14.1548 33.2034C10.1753 33.2034 6.93875 29.9241 6.93875 25.8921V25.6129C8.0016 25.3662 9.5781 24.79 11.2221 23.4502C11.8033 24.0066 12.6351 24.6891 13.6944 25.2726C14.9475 25.9641 16.6768 26.6052 18.7883 26.6052C19.5917 26.6052 20.4501 26.5115 21.3583 26.2936C21.1522 30.1384 17.9992 33.2034 14.1548 33.2034Z" fill="#153C88"/>
<path id="Vector_3" d="M87.8995 37.9215L80.44 34.1416C79.9228 33.8805 79.6011 33.3528 79.6011 32.7676V30.8533C81.3482 29.283 82.4501 26.9942 82.4501 24.4478V22.9099C82.4803 22.9099 82.5106 22.9099 82.5426 22.9099C83.2784 22.9099 83.8756 22.3049 83.8756 21.5593V18.6726C83.8756 13.9473 80.0809 10.1044 75.419 10.1044H72.5699C67.9061 10.1044 64.1133 13.9491 64.1133 18.6726V21.5593C64.1133 22.3049 64.7105 22.9099 65.4463 22.9099C65.457 22.9099 65.4889 22.9099 65.5387 22.9081V24.446C65.5387 26.9924 66.6424 29.2812 68.3878 30.8533V32.7676C68.3878 33.3528 68.0661 33.8805 67.5489 34.1416C66.8913 34.4747 66.6229 35.2869 66.9535 35.9532C67.1863 36.4268 67.6573 36.7005 68.1461 36.7005C68.3469 36.7005 68.5495 36.6537 68.7415 36.5583C68.9779 36.4376 69.1983 36.2972 69.4027 36.1405L72.6623 39.4432V57.6494C72.6623 58.3949 73.2595 59 73.9953 59C74.7311 59 75.3283 58.3949 75.3283 57.6494V39.4414L78.588 36.1387C78.7924 36.2954 79.0128 36.4376 79.2491 36.5565L86.4669 40.2139L84.2772 42.4325C83.2179 43.5058 82.635 44.9321 82.635 46.4501V57.6476C82.635 58.3931 83.2322 58.9982 83.968 58.9982C84.7038 58.9982 85.301 58.3931 85.301 57.6476V46.4501C85.301 45.6542 85.6067 44.905 86.163 44.3432L88.2372 42.2416C88.2994 42.4866 88.3349 42.7405 88.3349 43.0016V57.6476C88.3349 58.3931 88.9321 58.9982 89.6679 58.9982C90.4037 58.9982 91.0009 58.3931 91.0009 57.6476V43.0016C91.0009 40.8352 89.8137 38.8885 87.9012 37.9197L87.8995 37.9215ZM66.7775 19.9314V18.6726C66.7775 15.4384 69.376 12.8056 72.5681 12.8056H75.4172C78.6093 12.8056 81.2078 15.4384 81.2078 18.6726V20.1727C75.4136 19.8558 71.9158 17.5705 71.882 17.5489C71.6563 17.3958 71.3986 17.322 71.1427 17.322C70.7979 17.322 70.4566 17.4571 70.1989 17.7182C68.9228 19.0112 67.6733 19.6325 66.7757 19.9314H66.7775ZM73.9935 36.9725L70.9134 33.8517C71.004 33.5041 71.052 33.1403 71.052 32.7676V32.4794C71.9691 32.8252 72.9591 33.0143 73.9935 33.0143C75.0279 33.0143 76.0179 32.8252 76.935 32.4794V32.7676C76.935 33.1403 76.9848 33.5023 77.0737 33.8517L73.9935 36.9725ZM73.9935 30.3149C70.8014 30.3149 68.2029 27.6821 68.2029 24.4478V22.2706C69.1361 21.8925 70.2238 21.291 71.3311 20.3366C72.7316 21.0749 75.6589 22.3499 79.7841 22.7713V24.4478C79.7841 27.6839 77.1856 30.3149 73.9935 30.3149Z" fill="#153C88"/>
</g>
<defs>
<clipPath id="clip0_1072_320">
<rect width="91" height="59" fill="white"/>
</clipPath>
</defs>
</svg>
