<svg width="80" height="70" viewBox="0 0 80 70" fill="none" xmlns="http://www.w3.org/2000/svg">
<g id="Layer_3" clip-path="url(#clip0_1072_325)">
<path id="Vector" d="M18.0625 5.18387H43.8669V7.7758H18.0625V5.18387Z" fill="#153C88"/>
<path id="Vector_2" d="M47.7375 23.3274H63.2201C63.933 23.3274 64.5103 22.7475 64.5103 22.0314V6.47983C64.5103 5.76381 63.933 5.18387 63.2201 5.18387H47.7375C47.0246 5.18387 46.4473 5.76381 46.4473 6.47983V22.0314C46.4473 22.7475 47.0246 23.3274 47.7375 23.3274ZM49.0277 7.7758H61.9299V20.7355H49.0277V7.7758Z" fill="#153C88"/>
<path id="Vector_3" d="M12.9023 10.3677H43.8676V12.9597H12.9023V10.3677Z" fill="#153C88"/>
<path id="Vector_4" d="M12.9023 15.5516H43.8676V18.1435H12.9023V15.5516Z" fill="#153C88"/>
<path id="Vector_5" d="M12.9023 20.7355H43.8676V23.3274H12.9023V20.7355Z" fill="#153C88"/>
<path id="Vector_6" d="M12.9023 25.9193H51.6089V28.5113H12.9023V25.9193Z" fill="#153C88"/>
<path id="Vector_7" d="M34.8361 41.4709H25.8045V32.3992C25.8045 31.6831 25.2272 31.1032 24.5143 31.1032H14.1926C13.4797 31.1032 12.9023 31.6831 12.9023 32.3992V50.5427C12.9023 51.2587 13.4797 51.8387 14.1926 51.8387H34.8361C35.5489 51.8387 36.1263 51.2587 36.1263 50.5427V42.7669C36.1263 42.0509 35.5489 41.4709 34.8361 41.4709ZM33.5458 49.2467H15.4828V33.6951H23.2241V42.7669C23.2241 43.4829 23.8015 44.0629 24.5143 44.0629H33.5458V49.2467Z" fill="#153C88"/>
<path id="Vector_8" d="M28.3848 31.1032H39.9967V33.6951H28.3848V31.1032Z" fill="#153C88"/>
<path id="Vector_9" d="M28.3848 36.2871H36.1261V38.879H28.3848V36.2871Z" fill="#153C88"/>
<path id="Vector_10" d="M69.6718 31.317V1.29597C69.6718 0.579945 69.0944 0 68.3816 0H9.03153C8.31868 0 7.74131 0.579945 7.74131 1.29597V9.07176H1.29022C0.577373 9.07176 0 9.65171 0 10.3677V51.8386C0 54.7011 2.3111 57.0225 5.16087 57.0225H40.2258C44.4883 67.6381 56.5116 72.7717 67.0801 68.4886C77.6486 64.207 82.7595 52.1302 78.4953 41.5147C76.7712 37.2201 73.6634 33.6303 69.6702 31.3154L69.6718 31.317ZM2.58044 51.8386V11.6637H7.74131V51.8386C7.74131 53.2707 6.58657 54.4306 5.16087 54.4306C3.73518 54.4306 2.58044 53.2707 2.58044 51.8386ZM9.60406 54.4306C10.0685 53.6465 10.3153 52.7507 10.3217 51.8386V2.59193H67.0914V30.0373C56.5761 25.7071 44.5561 30.7581 40.2451 41.3203C38.5469 45.4803 38.2453 50.0826 39.3871 54.4306H9.60406ZM59.35 67.3902C49.3734 67.3902 41.287 59.2678 41.287 49.2467C41.287 39.2257 49.3734 31.1032 59.35 31.1032C69.3267 31.1032 77.4131 39.2257 77.4131 49.2467C77.4018 59.2629 69.3218 67.3789 59.35 67.3902Z" fill="#153C88"/>
<path id="Vector_11" d="M64.1397 40.23L51.4198 44.0629H47.7378C45.6009 44.0629 43.8672 45.8043 43.8672 47.9508V50.5427C43.8672 52.6891 45.6009 54.4306 47.7378 54.4306V57.0225C47.7378 59.169 49.4716 60.9104 51.6085 60.9104C53.7454 60.9104 55.4792 59.169 55.4792 57.0225V55.6537L64.1397 58.2634C64.822 58.4691 65.5412 58.0787 65.7461 57.3935C65.7815 57.272 65.8009 57.1473 65.8009 57.0209V41.4693C65.8009 40.7533 65.2235 40.1733 64.5107 40.1733C64.3849 40.1733 64.2607 40.1912 64.1397 40.2284V40.23ZM46.4476 50.5427V47.9508C46.4476 47.2347 47.025 46.6548 47.7378 46.6548H50.3183V51.8387H47.7378C47.025 51.8387 46.4476 51.2587 46.4476 50.5427ZM52.8987 57.0225C52.8987 57.7385 52.3213 58.3185 51.6085 58.3185C50.8957 58.3185 50.3183 57.7385 50.3183 57.0225V54.4306H51.4198L52.8987 54.8761V57.0225ZM63.2205 55.2811L52.8987 52.1707V46.3227L63.2205 43.2124V55.2811Z" fill="#153C88"/>
<path id="Vector_12" d="M68.3809 47.9508H74.832V50.5427H68.3809V47.9508Z" fill="#153C88"/>
<path id="Vector_13" d="M67.457 43.1492L71.3277 39.2613L73.1517 41.0935L69.2811 44.9814L67.457 43.1492Z" fill="#153C88"/>
<path id="Vector_14" d="M67.4551 55.3491L69.2791 53.5169L73.1498 57.4048L71.3257 59.237L67.4551 55.3491Z" fill="#153C88"/>
</g>
<defs>
<clipPath id="clip0_1072_325">
<rect width="80" height="70" fill="white"/>
</clipPath>
</defs>
</svg>
