<svg width="120" height="90" viewBox="0 0 120 90" fill="none" xmlns="http://www.w3.org/2000/svg">
<g clip-path="url(#clip0_1301_181)">
<path d="M74.0625 54.8438C73.2 54.8438 72.5 55.5438 72.5 56.4062V67.1875C72.5 71.4953 68.9953 75 64.6875 75H47.8172C46.9547 75 46.2547 75.6984 46.2547 76.5609V79.6672L42.5234 75.9375C42.2828 75.3828 41.7297 74.9984 41.0906 74.9984H30.9375C26.6297 74.9984 23.125 71.4937 23.125 67.1859V43.125C23.125 38.8172 26.6297 35.3125 30.9375 35.3125H46.7188C47.5812 35.3125 48.2812 34.6125 48.2812 33.75C48.2812 32.8875 47.5812 32.1875 46.7188 32.1875H30.9375C24.9062 32.1875 20 37.0938 20 43.125V67.1875C20 73.2188 24.9062 78.125 30.9375 78.125H40.2906L46.7078 84.5422C47.0062 84.8406 47.4062 85 47.8125 85C48.0141 85 48.2172 84.9609 48.4094 84.8812C48.9938 84.6391 49.3734 84.0703 49.375 83.4391L49.3781 78.125H64.6875C70.7188 78.125 75.625 73.2188 75.625 67.1875V56.4062C75.625 55.5438 74.925 54.8438 74.0625 54.8438Z" fill="#153C88"/>
<path d="M77.2887 5H73.334C60.8121 5 50.623 15.1875 50.623 27.7109C50.623 40.2344 60.8105 50.4203 73.334 50.4203H77.2887C79.2434 50.4203 81.1777 50.1719 83.0527 49.6812L88.8949 55.5203C89.1934 55.8187 89.5934 55.9781 89.9996 55.9781C90.2012 55.9781 90.4043 55.9391 90.598 55.8594C91.1824 55.6172 91.5621 55.0484 91.5621 54.4156V45.375C94.0355 43.3719 96.0902 40.8422 97.5324 38.0156C99.1699 34.8047 99.9996 31.3391 99.9996 27.7109C99.9996 15.1875 89.8121 5 77.2887 5ZM89.059 43.3656C88.6668 43.6609 88.4371 44.1234 88.4371 44.6141V50.6453L84.6137 46.8234C84.3168 46.5266 83.9168 46.3656 83.509 46.3656C83.3559 46.3656 83.2012 46.3875 83.0496 46.4344C81.1902 47.0062 79.2512 47.2953 77.2887 47.2953H73.334C62.534 47.2953 53.748 38.5094 53.748 27.7094C53.748 16.9094 62.534 8.12344 73.334 8.12344H77.2887C88.0887 8.12344 96.8746 16.9094 96.8746 27.7094C96.8746 33.9172 94.0262 39.6234 89.059 43.3641V43.3656Z" fill="#153C88"/>
<path d="M82.3488 22.0969C82.1238 18.8266 79.4863 16.1891 76.2145 15.9641C74.3598 15.8359 72.591 16.4625 71.2363 17.7266C69.9004 18.9734 69.1348 20.7359 69.1348 22.5625C69.1348 23.425 69.8348 24.125 70.6973 24.125C71.5598 24.125 72.2598 23.425 72.2598 22.5625C72.2598 21.5844 72.6535 20.6781 73.3691 20.0109C74.0832 19.3438 75.0176 19.0141 76.0004 19.0813C77.7238 19.2 79.1129 20.5891 79.2316 22.3125C79.352 24.0531 78.2098 25.5906 76.5176 25.9688C75.1457 26.275 74.1879 27.4672 74.1879 28.8672V32.6203C74.1879 33.4828 74.8879 34.1828 75.7504 34.1828C76.6129 34.1828 77.3129 33.4828 77.3129 32.6203V28.9906C80.4613 28.2297 82.5738 25.3484 82.3488 22.0953V22.0969Z" fill="#153C88"/>
<path d="M76.8547 37.6969C76.5641 37.4062 76.1609 37.2391 75.75 37.2391C75.3391 37.2391 74.9359 37.4062 74.6453 37.6969C74.3547 37.9875 74.1875 38.3906 74.1875 38.8016C74.1875 39.2125 74.3547 39.6172 74.6453 39.9078C74.9359 40.1984 75.3391 40.3641 75.75 40.3641C76.1609 40.3641 76.5641 40.1984 76.8547 39.9078C77.1453 39.6156 77.3125 39.2141 77.3125 38.8016C77.3125 38.3891 77.1453 37.9875 76.8547 37.6969Z" fill="#153C88"/>
<path d="M62.9688 53.4375H30C29.1375 53.4375 28.4375 54.1375 28.4375 55C28.4375 55.8625 29.1375 56.5625 30 56.5625H62.9688C63.8312 56.5625 64.5312 55.8625 64.5312 55C64.5312 54.1375 63.8312 53.4375 62.9688 53.4375Z" fill="#153C88"/>
<path d="M64.0734 62.6453C63.7828 62.3547 63.3797 62.1875 62.9688 62.1875C62.5578 62.1875 62.1547 62.3547 61.8641 62.6453C61.5734 62.9359 61.4062 63.3391 61.4062 63.75C61.4062 64.1609 61.5734 64.5641 61.8641 64.8547C62.1547 65.1453 62.5578 65.3125 62.9688 65.3125C63.3797 65.3125 63.7828 65.1453 64.0734 64.8547C64.3641 64.5641 64.5312 64.1625 64.5312 63.75C64.5312 63.3375 64.3641 62.9359 64.0734 62.6453Z" fill="#153C88"/>
<path d="M56.8234 62.1875H30C29.1375 62.1875 28.4375 62.8875 28.4375 63.75C28.4375 64.6125 29.1375 65.3125 30 65.3125H56.8234C57.6859 65.3125 58.3859 64.6125 58.3859 63.75C58.3859 62.8875 57.6859 62.1875 56.8234 62.1875Z" fill="#153C88"/>
<path d="M52.8125 44.6875H30C29.1375 44.6875 28.4375 45.3875 28.4375 46.25C28.4375 47.1125 29.1375 47.8125 30 47.8125H52.8125C53.675 47.8125 54.375 47.1125 54.375 46.25C54.375 45.3875 53.675 44.6875 52.8125 44.6875Z" fill="#153C88"/>
</g>
<defs>
<clipPath id="clip0_1301_181">
<rect width="80" height="80" fill="white" transform="translate(20 5)"/>
</clipPath>
</defs>
</svg>
