<svg width="120" height="90" viewBox="0 0 120 90" fill="none" xmlns="http://www.w3.org/2000/svg">
<g clip-path="url(#clip0_1301_180)">
<path d="M105.899 47.1958C105.602 46.4061 104.721 46.0093 103.93 46.305L98.374 48.3957L89.5058 23.105L104.761 17.0046C105.545 16.6899 105.927 15.8028 105.612 15.0207C105.297 14.2386 104.41 13.8609 103.624 14.1719L87.0135 20.8159C86.2548 21.1173 85.8706 21.9662 86.1382 22.735L86.4268 23.559L81.8876 24.8066C81.5856 24.5281 81.2645 24.2572 80.9147 23.994C80.7408 23.8604 80.5363 23.7651 80.3184 23.7193C72.1172 21.93 61.9341 19.9709 60.0076 20.7625C56.7871 22.0864 50.8641 26.1591 47.3264 28.5874L45.7573 29.6556C45.396 29.896 45.1571 30.2813 45.096 30.7124C44.8781 32.2652 44.1518 34.2777 43.3128 36.6088C42.7929 38.0528 42.231 39.6113 41.7112 41.2823C41.5468 41.8164 41.6844 42.3963 42.0724 42.7988C43.7657 44.5481 45.8395 45.4809 47.9896 45.4809C48.2897 45.4809 48.5897 45.4656 48.8917 45.4294C51.2043 45.149 53.28 43.7965 54.4363 41.8126C55.0823 40.7081 55.7206 39.0543 56.1679 37.6808C57.8249 37.3718 60.6746 36.7537 62.3488 36.357C63.1707 36.1624 63.6791 35.3402 63.4841 34.52C63.2911 33.7016 62.4635 33.1828 61.6436 33.3869C59.4418 33.9095 55.7206 34.6936 54.7841 34.8175C54.1821 34.8977 53.6832 35.325 53.515 35.9049C53.0296 37.5778 52.3186 39.3747 51.793 40.2789C51.1241 41.4235 49.8703 42.238 48.5209 42.4002C47.6188 42.5032 46.2982 42.3811 44.924 41.2766C45.3464 39.9947 45.784 38.7834 46.193 37.6446C46.9824 35.4509 47.6762 33.5204 48.0087 31.8188L49.058 31.1054C52.2727 28.8983 58.253 24.7875 61.076 23.6182C62.5017 23.3435 71.4005 24.9115 79.3265 26.6302C79.7049 26.9393 80.0489 27.2597 80.37 27.5821C80.7618 27.9789 81.3333 28.1315 81.8646 27.9827L87.4417 26.449L93.7278 44.3707L91.7477 45.2501C91.1724 45.5057 90.815 46.0856 90.8418 46.7151C90.8456 46.7304 90.8838 48.0771 90.3582 49.9046L81.9697 45.3264L68.3769 36.9025C67.6545 36.46 66.7141 36.6832 66.2726 37.4023C65.8292 38.1234 66.0548 39.06 66.7734 39.5025L80.4331 47.9626L90.4538 53.4355C90.4653 53.4412 90.4767 53.445 90.4882 53.4526C90.492 53.4526 90.4939 53.4565 90.4958 53.4584C91.8146 54.1756 92.3268 55.8753 91.6273 57.1667C90.8838 58.5153 89.3242 59.0323 88.0131 58.3208L77.6809 53.2028C76.9585 52.8422 76.0755 53.115 75.6741 53.8132C75.2727 54.5152 75.4868 55.406 76.1672 55.8486L81.2377 59.1391C82.5011 59.8297 82.8891 61.3004 82.1551 62.6376C81.7882 63.3129 81.1728 63.8165 80.4732 64.0206C80.026 64.1541 79.338 64.2247 78.6021 63.8222L70.6551 59.4882C69.9365 59.0972 69.0459 59.3318 68.6216 60.0261C68.1973 60.7167 68.3827 61.619 69.0497 62.0825L73.2277 64.982C73.6615 65.6077 73.9425 66.8476 73.4054 67.8319C72.7136 69.0948 70.9896 69.5373 69.6078 68.7876L65.0934 66.428C64.4914 66.1113 63.6905 66.3002 63.2166 66.7904C62.6757 67.3589 62.6508 68.2402 63.1611 68.8353C63.681 69.44 63.8836 70.678 63.3198 71.7043C62.9471 72.3815 62.3221 72.6867 61.8615 72.8222C61.0664 73.0549 60.1605 72.9557 59.4399 72.5627L58.5588 72.0877C60.2637 70.1191 60.191 67.1242 58.3199 65.2357L57.3299 64.2438C56.1583 63.0592 54.4248 62.6033 52.8232 62.878C52.8882 61.5141 52.4046 60.1311 51.3706 59.0876L50.3806 58.09C49.2071 56.9054 47.4774 56.4494 45.8758 56.7241C45.8796 56.6497 45.8815 56.5773 45.8815 56.5029C45.8872 55.1542 45.3712 53.8876 44.4232 52.9357L43.4294 51.9323C42.1794 50.6771 40.3102 50.2422 38.6321 50.6294C38.6321 50.5932 38.6359 50.5569 38.6359 50.5207C38.6417 49.1682 38.1256 47.9016 37.1777 46.9459L36.1838 45.9444C34.5191 44.2658 31.7325 44.0578 29.7869 45.3149L25.6681 43.2414L31.5414 26.4967L41.2525 28.4119C41.3537 28.4329 41.455 28.4424 41.5525 28.4424C42.2673 28.4424 42.9076 27.9388 43.0471 27.212C43.2115 26.3842 42.6744 25.5849 41.8449 25.4208L32.5601 23.5896L32.8907 22.6472C33.1564 21.888 32.7837 21.0506 32.0402 20.7358L16.3183 14.1184C15.5423 13.798 14.6459 14.1547 14.3153 14.9292C13.9884 15.7075 14.3516 16.6021 15.1314 16.9283L29.5288 22.9829L20.63 48.3537L16.0163 46.8124C15.2212 46.5472 14.3497 46.9745 14.0802 47.7738C13.8107 48.5731 14.2426 49.4372 15.0435 49.7062L21.0887 51.7263C21.2512 51.7816 21.4137 51.8064 21.5742 51.8064C22.2049 51.8064 22.7974 51.4134 23.0153 50.7878L24.6456 46.1409L27.3921 47.522L27.0232 47.8844C25.0469 49.8416 25.0317 53.0387 26.9964 55.0207L27.9903 56.0183C28.8503 56.8825 29.9703 57.3937 31.1782 57.4872C30.9221 58.0938 30.7883 58.7519 30.7864 59.4291C30.7826 60.7758 31.3025 62.0425 32.2505 62.9905L33.2443 63.9882C34.1961 64.9534 35.4709 65.4799 36.8317 65.4799C37.5045 65.4799 38.1562 65.3502 38.7602 65.1022C38.8749 66.2525 39.3756 67.3188 40.1994 68.1448L41.1894 69.1463C42.1431 70.1077 43.4179 70.638 44.7787 70.638C45.4515 70.638 46.1032 70.5083 46.7072 70.2603C46.8218 71.4086 47.3188 72.4769 48.1425 73.3086L49.1402 74.312C50.0939 75.2677 51.3668 75.7961 52.7238 75.7961C54.0693 75.7961 55.3326 75.2772 56.2806 74.3463L56.2959 74.331L57.9778 75.2391C58.8952 75.7427 59.9311 75.9983 60.9708 75.9983C61.5614 75.9983 62.152 75.9162 62.7234 75.7484C64.1607 75.3249 65.3266 74.4093 66.0051 73.1636C66.4217 72.4063 66.6511 71.5574 66.6989 70.7105L68.161 71.4735C70.9743 73.0091 74.5981 72.0038 76.085 69.2912C76.6106 68.3298 76.7979 67.2826 76.7387 66.2849L77.1362 66.4985C78.4263 67.2005 79.919 67.3627 81.3371 66.9468C82.8107 66.5157 84.0893 65.478 84.8424 64.0988C85.4654 62.9657 85.7043 61.7067 85.5342 60.4935L86.6103 61.0238C89.3739 62.5308 92.753 61.4759 94.3203 58.6241C95.5989 56.2701 94.9911 53.2962 93.0474 51.5432C93.5978 49.9446 93.7966 48.5502 93.8673 47.6479L94.7446 47.2587L96.0136 50.8774C96.1474 51.2647 96.436 51.5832 96.8087 51.7568C97.0113 51.8522 97.233 51.8999 97.4547 51.8999C97.6382 51.8999 97.8217 51.8655 97.9899 51.7988L105.012 49.1587C105.803 48.863 106.204 47.9798 105.904 47.1939L105.899 47.1958ZM29.1638 52.867C28.3897 52.0849 28.3935 50.8183 29.1695 50.0495L31.1821 48.0752C31.5586 47.7051 32.0593 47.501 32.5926 47.501C33.1258 47.501 33.6361 47.7089 34.0088 48.0866L35.0027 49.0881C35.3754 49.4639 35.5779 49.9637 35.5741 50.4978C35.5703 51.0319 35.3658 51.5298 34.9931 51.8961L32.9786 53.8742C32.2256 54.6182 30.9049 54.6163 30.1557 53.8628L29.1657 52.867H29.1638ZM35.4117 61.8402L34.414 60.8388C34.0413 60.4668 33.8387 59.9689 33.8387 59.4386C33.8425 58.9045 34.0489 58.4047 34.4293 58.0289L38.4314 54.065C38.8041 53.693 39.303 53.4908 39.8343 53.4908C40.3656 53.4908 40.8778 53.7006 41.2525 54.0764L42.2463 55.0798C42.619 55.4518 42.8216 55.9497 42.8178 56.4838C42.8178 57.0179 42.6094 57.5177 42.231 57.8916L38.2288 61.8536C37.4758 62.5956 36.1551 62.5976 35.4098 61.8422L35.4117 61.8402ZM43.3587 66.9983L42.361 65.9949C41.9883 65.623 41.7838 65.1251 41.7857 64.591C41.7895 64.0568 41.994 63.559 42.3705 63.187L45.3827 60.2169C45.7554 59.8468 46.2542 59.6427 46.7855 59.6427C47.3169 59.6427 47.831 59.8507 48.2037 60.2283L49.1937 61.226C49.9678 62.0081 49.962 63.2709 49.1841 64.0435L46.1758 67.0136C45.4228 67.7556 44.1021 67.7556 43.3567 66.9983H43.3587ZM51.3056 72.1602L50.3118 71.1588C49.9391 70.783 49.7365 70.2832 49.7365 69.7452C49.7403 69.2111 49.9467 68.7113 50.3175 68.3451L52.3301 66.3707C52.7028 66.0007 53.2054 65.7966 53.7367 65.7966C54.2776 65.7966 54.7803 66.0045 55.1549 66.386L56.143 67.3741C56.919 68.1562 56.9171 69.4248 56.1392 70.1916L54.1266 72.166C53.3717 72.9099 52.0472 72.908 51.3037 72.1602H51.3056Z" fill="#153C88"/>
</g>
<defs>
<clipPath id="clip0_1301_180">
<rect width="92" height="62" fill="white" transform="translate(14 14)"/>
</clipPath>
</defs>
</svg>
