<svg width="120" height="90" viewBox="0 0 120 90" fill="none" xmlns="http://www.w3.org/2000/svg">
<g clip-path="url(#clip0_1301_179)">
<path d="M38.0625 15.1839H63.8669V17.7758H38.0625V15.1839Z" fill="#153C88"/>
<path d="M67.7375 33.3274H83.2201C83.933 33.3274 84.5103 32.7475 84.5103 32.0314V16.4798C84.5103 15.7638 83.933 15.1839 83.2201 15.1839H67.7375C67.0246 15.1839 66.4473 15.7638 66.4473 16.4798V32.0314C66.4473 32.7475 67.0246 33.3274 67.7375 33.3274ZM69.0277 17.7758H81.9299V30.7355H69.0277V17.7758Z" fill="#153C88"/>
<path d="M32.9023 20.3677H63.8676V22.9597H32.9023V20.3677Z" fill="#153C88"/>
<path d="M32.9023 25.5516H63.8676V28.1435H32.9023V25.5516Z" fill="#153C88"/>
<path d="M32.9023 30.7355H63.8676V33.3274H32.9023V30.7355Z" fill="#153C88"/>
<path d="M32.9023 35.9193H71.6089V38.5113H32.9023V35.9193Z" fill="#153C88"/>
<path d="M54.8361 51.4709H45.8045V42.3992C45.8045 41.6831 45.2272 41.1032 44.5143 41.1032H34.1926C33.4797 41.1032 32.9023 41.6831 32.9023 42.3992V60.5427C32.9023 61.2587 33.4797 61.8387 34.1926 61.8387H54.8361C55.5489 61.8387 56.1263 61.2587 56.1263 60.5427V52.7669C56.1263 52.0509 55.5489 51.4709 54.8361 51.4709ZM53.5458 59.2467H35.4828V43.6951H43.2241V52.7669C43.2241 53.4829 43.8015 54.0629 44.5143 54.0629H53.5458V59.2467Z" fill="#153C88"/>
<path d="M48.3848 41.1032H59.9967V43.6951H48.3848V41.1032Z" fill="#153C88"/>
<path d="M48.3848 46.2871H56.1261V48.879H48.3848V46.2871Z" fill="#153C88"/>
<path d="M89.6718 41.317V11.296C89.6718 10.5799 89.0944 10 88.3816 10H29.0315C28.3187 10 27.7413 10.5799 27.7413 11.296V19.0718H21.2902C20.5774 19.0718 20 19.6517 20 20.3677V61.8386C20 64.7011 22.3111 67.0225 25.1609 67.0225H60.2258C64.4883 77.6381 76.5116 82.7717 87.0801 78.4886C97.6486 74.207 102.759 62.1302 98.4953 51.5147C96.7712 47.2201 93.6634 43.6303 89.6702 41.3154L89.6718 41.317ZM22.5804 61.8386V21.6637H27.7413V61.8386C27.7413 63.2707 26.5866 64.4306 25.1609 64.4306C23.7352 64.4306 22.5804 63.2707 22.5804 61.8386ZM29.6041 64.4306C30.0685 63.6465 30.3153 62.7507 30.3217 61.8386V12.5919H87.0914V40.0373C76.5761 35.7071 64.5561 40.7581 60.2451 51.3203C58.5469 55.4803 58.2453 60.0826 59.3871 64.4306H29.6041ZM79.35 77.3902C69.3734 77.3902 61.287 69.2678 61.287 59.2467C61.287 49.2257 69.3734 41.1032 79.35 41.1032C89.3267 41.1032 97.4131 49.2257 97.4131 59.2467C97.4018 69.2629 89.3218 77.3789 79.35 77.3902Z" fill="#153C88"/>
<path d="M84.1397 50.23L71.4198 54.0629H67.7378C65.6009 54.0629 63.8672 55.8043 63.8672 57.9508V60.5427C63.8672 62.6891 65.6009 64.4306 67.7378 64.4306V67.0225C67.7378 69.169 69.4716 70.9104 71.6085 70.9104C73.7454 70.9104 75.4792 69.169 75.4792 67.0225V65.6537L84.1397 68.2634C84.822 68.4691 85.5412 68.0787 85.7461 67.3935C85.7815 67.272 85.8009 67.1473 85.8009 67.0209V51.4693C85.8009 50.7533 85.2235 50.1733 84.5107 50.1733C84.3849 50.1733 84.2607 50.1912 84.1397 50.2284V50.23ZM66.4476 60.5427V57.9508C66.4476 57.2347 67.025 56.6548 67.7378 56.6548H70.3183V61.8387H67.7378C67.025 61.8387 66.4476 61.2587 66.4476 60.5427ZM72.8987 67.0225C72.8987 67.7385 72.3213 68.3185 71.6085 68.3185C70.8957 68.3185 70.3183 67.7385 70.3183 67.0225V64.4306H71.4198L72.8987 64.8761V67.0225ZM83.2205 65.2811L72.8987 62.1707V56.3227L83.2205 53.2124V65.2811Z" fill="#153C88"/>
<path d="M88.3809 57.9508H94.832V60.5427H88.3809V57.9508Z" fill="#153C88"/>
<path d="M87.457 53.1492L91.3277 49.2613L93.1517 51.0935L89.2811 54.9814L87.457 53.1492Z" fill="#153C88"/>
<path d="M87.4551 65.3491L89.2791 63.5169L93.1498 67.4048L91.3257 69.237L87.4551 65.3491Z" fill="#153C88"/>
</g>
<defs>
<clipPath id="clip0_1301_179">
<rect width="80" height="70" fill="white" transform="translate(20 10)"/>
</clipPath>
</defs>
</svg>
