<svg width="80" height="80" viewBox="0 0 80 80" fill="none" xmlns="http://www.w3.org/2000/svg">
<g id="Capa_1" clip-path="url(#clip0_1072_344)">
<path id="Vector" d="M54.0625 49.8438C53.2 49.8438 52.5 50.5438 52.5 51.4062V62.1875C52.5 66.4953 48.9953 70 44.6875 70H27.8172C26.9547 70 26.2547 70.6984 26.2547 71.5609V74.6672L22.5234 70.9375C22.2828 70.3828 21.7297 69.9984 21.0906 69.9984H10.9375C6.62969 69.9984 3.125 66.4937 3.125 62.1859V38.125C3.125 33.8172 6.62969 30.3125 10.9375 30.3125H26.7188C27.5812 30.3125 28.2812 29.6125 28.2812 28.75C28.2812 27.8875 27.5812 27.1875 26.7188 27.1875H10.9375C4.90625 27.1875 0 32.0938 0 38.125V62.1875C0 68.2188 4.90625 73.125 10.9375 73.125H20.2906L26.7078 79.5422C27.0062 79.8406 27.4062 80 27.8125 80C28.0141 80 28.2172 79.9609 28.4094 79.8812C28.9938 79.6391 29.3734 79.0703 29.375 78.4391L29.3781 73.125H44.6875C50.7188 73.125 55.625 68.2188 55.625 62.1875V51.4062C55.625 50.5438 54.925 49.8438 54.0625 49.8438Z" fill="#153C88"/>
<path id="Vector_2" d="M57.2887 0H53.334C40.8121 0 30.623 10.1875 30.623 22.7109C30.623 35.2344 40.8105 45.4203 53.334 45.4203H57.2887C59.2434 45.4203 61.1777 45.1719 63.0527 44.6812L68.8949 50.5203C69.1934 50.8187 69.5934 50.9781 69.9996 50.9781C70.2012 50.9781 70.4043 50.9391 70.598 50.8594C71.1824 50.6172 71.5621 50.0484 71.5621 49.4156V40.375C74.0355 38.3719 76.0902 35.8422 77.5324 33.0156C79.1699 29.8047 79.9996 26.3391 79.9996 22.7109C79.9996 10.1875 69.8121 0 57.2887 0ZM69.059 38.3656C68.6668 38.6609 68.4371 39.1234 68.4371 39.6141V45.6453L64.6137 41.8234C64.3168 41.5266 63.9168 41.3656 63.509 41.3656C63.3559 41.3656 63.2012 41.3875 63.0496 41.4344C61.1902 42.0062 59.2512 42.2953 57.2887 42.2953H53.334C42.534 42.2953 33.748 33.5094 33.748 22.7094C33.748 11.9094 42.534 3.12344 53.334 3.12344H57.2887C68.0887 3.12344 76.8746 11.9094 76.8746 22.7094C76.8746 28.9172 74.0262 34.6234 69.059 38.3641V38.3656Z" fill="#153C88"/>
<path id="Vector_3" d="M62.3488 17.0969C62.1238 13.8266 59.4863 11.1891 56.2145 10.9641C54.3598 10.8359 52.591 11.4625 51.2363 12.7266C49.9004 13.9734 49.1348 15.7359 49.1348 17.5625C49.1348 18.425 49.8348 19.125 50.6973 19.125C51.5598 19.125 52.2598 18.425 52.2598 17.5625C52.2598 16.5844 52.6535 15.6781 53.3691 15.0109C54.0832 14.3438 55.0176 14.0141 56.0004 14.0813C57.7238 14.2 59.1129 15.5891 59.2316 17.3125C59.352 19.0531 58.2098 20.5906 56.5176 20.9688C55.1457 21.275 54.1879 22.4672 54.1879 23.8672V27.6203C54.1879 28.4828 54.8879 29.1828 55.7504 29.1828C56.6129 29.1828 57.3129 28.4828 57.3129 27.6203V23.9906C60.4613 23.2297 62.5738 20.3484 62.3488 17.0953V17.0969Z" fill="#153C88"/>
<path id="Vector_4" d="M56.8547 32.6969C56.5641 32.4062 56.1609 32.2391 55.75 32.2391C55.3391 32.2391 54.9359 32.4062 54.6453 32.6969C54.3547 32.9875 54.1875 33.3906 54.1875 33.8016C54.1875 34.2125 54.3547 34.6172 54.6453 34.9078C54.9359 35.1984 55.3391 35.3641 55.75 35.3641C56.1609 35.3641 56.5641 35.1984 56.8547 34.9078C57.1453 34.6156 57.3125 34.2141 57.3125 33.8016C57.3125 33.3891 57.1453 32.9875 56.8547 32.6969Z" fill="#153C88"/>
<path id="Vector_5" d="M42.9688 48.4375H10C9.1375 48.4375 8.4375 49.1375 8.4375 50C8.4375 50.8625 9.1375 51.5625 10 51.5625H42.9688C43.8312 51.5625 44.5312 50.8625 44.5312 50C44.5312 49.1375 43.8312 48.4375 42.9688 48.4375Z" fill="#153C88"/>
<path id="Vector_6" d="M44.0734 57.6453C43.7828 57.3547 43.3797 57.1875 42.9688 57.1875C42.5578 57.1875 42.1547 57.3547 41.8641 57.6453C41.5734 57.9359 41.4062 58.3391 41.4062 58.75C41.4062 59.1609 41.5734 59.5641 41.8641 59.8547C42.1547 60.1453 42.5578 60.3125 42.9688 60.3125C43.3797 60.3125 43.7828 60.1453 44.0734 59.8547C44.3641 59.5641 44.5312 59.1625 44.5312 58.75C44.5312 58.3375 44.3641 57.9359 44.0734 57.6453Z" fill="#153C88"/>
<path id="Vector_7" d="M36.8234 57.1875H10C9.1375 57.1875 8.4375 57.8875 8.4375 58.75C8.4375 59.6125 9.1375 60.3125 10 60.3125H36.8234C37.6859 60.3125 38.3859 59.6125 38.3859 58.75C38.3859 57.8875 37.6859 57.1875 36.8234 57.1875Z" fill="#153C88"/>
<path id="Vector_8" d="M32.8125 39.6875H10C9.1375 39.6875 8.4375 40.3875 8.4375 41.25C8.4375 42.1125 9.1375 42.8125 10 42.8125H32.8125C33.675 42.8125 34.375 42.1125 34.375 41.25C34.375 40.3875 33.675 39.6875 32.8125 39.6875Z" fill="#153C88"/>
</g>
<defs>
<clipPath id="clip0_1072_344">
<rect width="80" height="80" fill="white"/>
</clipPath>
</defs>
</svg>
