<svg width="120" height="90" viewBox="0 0 120 90" fill="none" xmlns="http://www.w3.org/2000/svg">
<g clip-path="url(#clip0_1301_178)">
<path d="M76.1774 46.2376L68.4317 42.7494C67.8843 42.5027 67.5306 41.9517 67.5306 41.3448V39.1892C70.1326 37.0895 71.8051 33.8534 71.8051 30.2284V27.194C72.6618 26.715 73.2305 25.7858 73.2305 24.7485V24.455C73.2305 18.1377 68.158 13 61.9248 13H59.0758C52.8408 13 47.7701 18.1395 47.7701 24.455V27.1274C47.7701 28.0404 48.1575 28.867 48.8347 29.3964C48.9502 29.4864 49.0693 29.5657 49.1955 29.6341V30.2302C49.1955 33.8552 50.868 37.0895 53.47 39.191V41.3466C53.47 41.9535 53.1163 42.5045 52.5689 42.7512L44.8232 46.2394C42.287 47.3811 40.6465 49.9383 40.6465 52.7493V70.6494C40.6465 71.3949 41.2437 72 41.9795 72C42.7153 72 43.3125 71.3949 43.3125 70.6494V52.7493C43.3125 52.5926 43.3232 52.4378 43.3392 52.2847L46.9081 55.9007C47.4626 56.4644 47.7701 57.2117 47.7701 58.0077V70.6494C47.7701 71.3949 48.3673 72 49.1031 72C49.8389 72 50.4361 71.3949 50.4361 70.6494V58.0077C50.4361 56.4896 49.8531 55.0634 48.7938 53.9901L44.5389 49.6789C44.9228 49.2756 45.3813 48.9424 45.9056 48.7065L53.5216 45.2778L59.1682 50.9989V70.6494C59.1682 71.3949 59.7654 72 60.5012 72C61.237 72 61.8342 71.3949 61.8342 70.6494V50.9989L67.4808 45.2778L75.0967 48.7065C75.6193 48.9424 76.0796 49.2756 76.4635 49.6789L72.2086 53.9901C71.1493 55.0634 70.5663 56.4896 70.5663 58.0077V70.6494C70.5663 71.3949 71.1635 72 71.8993 72C72.6351 72 73.2323 71.3949 73.2323 70.6494V58.0077C73.2323 57.2117 73.538 56.4626 74.0943 55.9007L77.6632 52.2847C77.6792 52.4378 77.6899 52.5926 77.6899 52.7493V70.6494C77.6899 71.3949 78.2871 72 79.0229 72C79.7587 72 80.3559 71.3949 80.3559 70.6494V52.7493C80.3559 49.9365 78.7154 47.3811 76.1791 46.2394L76.1774 46.2376ZM60.4994 48.53L55.5442 43.5094C55.921 42.8665 56.1343 42.1245 56.1343 41.3466V40.7973C57.4779 41.37 58.9531 41.6869 60.5012 41.6869C62.0493 41.6869 63.5227 41.37 64.8664 40.7973V41.3466C64.8664 42.1245 65.0796 42.8665 65.4564 43.5094L60.5012 48.53H60.4994ZM60.4994 38.9839C55.7361 38.9839 51.8597 35.0563 51.8597 30.2302V29.6233C52.6915 29.2901 53.5038 28.7571 54.2805 28.0314C54.8208 27.5253 54.8546 26.6718 54.3551 26.1225C53.8557 25.5751 53.0132 25.5409 52.4712 26.0451C51.8046 26.6682 51.1381 27.0715 50.4912 27.2426C50.4752 27.2462 50.4645 27.248 50.4556 27.2498C50.4468 27.2318 50.4325 27.1922 50.4325 27.1274V24.455C50.4325 19.6288 54.3089 15.7012 59.0722 15.7012H61.9213C66.6863 15.7012 70.561 19.6288 70.561 24.455V24.7485C70.561 24.7917 70.5343 24.8295 70.5005 24.8367C62.5185 26.4341 58.5141 23.4231 57.1633 22.0545C56.6426 21.5268 55.7983 21.5268 55.2776 22.0545C54.7568 22.5821 54.7568 23.4375 55.2776 23.9651C59.417 28.1592 65.4564 28.2349 69.1337 27.7865V30.2266C69.1337 35.0545 65.2574 38.9803 60.4941 38.9803L60.4994 38.9839Z" fill="#153C88"/>
<path d="M39.0368 38.8921V36.0036C39.0368 32.4794 37.2292 29.3784 34.5063 27.5938C34.6752 27.0463 34.7623 26.4755 34.7623 25.8992C34.7623 22.7658 32.2473 20.2177 29.1548 20.2177C26.0622 20.2177 23.5472 22.7658 23.5472 25.8992C23.5472 26.4827 23.6343 27.0481 23.8032 27.5938C21.0803 29.3784 19.2727 32.4794 19.2727 36.0036V38.8903C19.2727 42.3028 20.9665 45.3192 23.5472 47.1272V50.0967C23.5472 50.682 23.2255 51.2096 22.7083 51.4707L18.0979 53.8064C16.1873 54.777 15 56.7237 15 58.8901V70.6494C15 71.3949 15.5972 72 16.333 72C17.0688 72 17.666 71.3949 17.666 70.6494V59.4753L19.8379 61.6759C20.3925 62.2396 20.6999 62.9869 20.6999 63.7829V70.6512C20.6999 71.3967 21.2971 72.0018 22.0329 72.0018C22.7688 72.0018 23.366 71.3967 23.366 70.6512V63.7829C23.366 62.2648 22.783 60.8386 21.7237 59.7653L18.7004 56.7021C18.6862 56.6877 18.6702 56.6751 18.656 56.6607C18.8462 56.4914 19.0577 56.3437 19.2923 56.2249L23.9027 53.8892C24.1391 53.7686 24.3595 53.6281 24.5639 53.4714L27.8235 56.7741V70.6494C27.8235 71.3949 28.4207 72 29.1565 72C29.8924 72 30.4896 71.3949 30.4896 70.6494V56.7723L33.7492 53.4696C33.9536 53.6263 34.174 53.7686 34.4104 53.8874L35.6812 54.5321C35.8731 54.6294 36.0757 54.6744 36.2766 54.6744C36.7654 54.6744 37.2363 54.4007 37.4692 53.927C37.798 53.2607 37.5314 52.4486 36.8738 52.1154L35.603 51.4707C35.0858 51.2096 34.7641 50.682 34.7641 50.0967V47.1272C37.3448 45.3192 39.0386 42.301 39.0386 38.8903L39.0368 38.8921ZM29.1548 22.9189C30.7757 22.9189 32.0963 24.2551 32.0963 25.8992C32.0963 26.0811 32.0803 26.2576 32.0501 26.4323C31.1347 26.1477 30.1625 25.9929 29.1548 25.9929C28.147 25.9929 27.1784 26.1459 26.2648 26.4305C26.2346 26.2576 26.215 26.0793 26.215 25.8992C26.215 24.2551 27.5338 22.9189 29.1565 22.9189H29.1548ZM29.1548 28.6941C33.1342 28.6941 36.3708 31.9734 36.3708 36.0054V36.4952C30.8219 38.2168 27.5143 33.9398 27.3721 33.7526C27.1393 33.4392 26.7856 33.2429 26.3999 33.2159C26.0142 33.1889 25.6356 33.3312 25.3637 33.6085C24.0911 34.8979 22.8452 35.5191 21.9441 35.8199C22.0436 31.8743 25.2375 28.6959 29.1548 28.6959V28.6941ZM29.1548 54.3052L26.0746 51.1844C26.1653 50.8369 26.2133 50.4731 26.2133 50.1003V48.4526C27.1428 48.7461 28.131 48.9064 29.1548 48.9064C30.1785 48.9064 31.1667 48.7479 32.0963 48.4526V50.1003C32.0963 50.4731 32.146 50.8369 32.2349 51.1844L29.1548 54.3052ZM29.1548 46.2034C25.1753 46.2034 21.9388 42.9241 21.9388 38.8921V38.6129C23.0016 38.3662 24.5781 37.79 26.2221 36.4502C26.8033 37.0066 27.6351 37.6891 28.6944 38.2726C29.9475 38.9641 31.6768 39.6052 33.7883 39.6052C34.5917 39.6052 35.4501 39.5115 36.3583 39.2936C36.1522 43.1384 32.9992 46.2034 29.1548 46.2034Z" fill="#153C88"/>
<path d="M102.899 50.9215L95.44 47.1416C94.9228 46.8805 94.6011 46.3528 94.6011 45.7676V43.8533C96.3482 42.283 97.4501 39.9942 97.4501 37.4478V35.9099C97.4803 35.9099 97.5106 35.9099 97.5426 35.9099C98.2784 35.9099 98.8756 35.3049 98.8756 34.5593V31.6726C98.8756 26.9473 95.0809 23.1044 90.419 23.1044H87.5699C82.9061 23.1044 79.1133 26.9491 79.1133 31.6726V34.5593C79.1133 35.3049 79.7105 35.9099 80.4463 35.9099C80.457 35.9099 80.4889 35.9099 80.5387 35.9081V37.446C80.5387 39.9924 81.6424 42.2812 83.3878 43.8533V45.7676C83.3878 46.3528 83.0661 46.8805 82.5489 47.1416C81.8913 47.4747 81.6229 48.2869 81.9535 48.9532C82.1863 49.4268 82.6573 49.7005 83.1461 49.7005C83.3469 49.7005 83.5495 49.6537 83.7415 49.5583C83.9779 49.4376 84.1983 49.2972 84.4027 49.1405L87.6623 52.4432V70.6494C87.6623 71.3949 88.2595 72 88.9953 72C89.7311 72 90.3283 71.3949 90.3283 70.6494V52.4414L93.588 49.1387C93.7924 49.2954 94.0128 49.4376 94.2491 49.5565L101.467 53.2139L99.2772 55.4325C98.2179 56.5058 97.635 57.9321 97.635 59.4501V70.6476C97.635 71.3931 98.2322 71.9982 98.968 71.9982C99.7038 71.9982 100.301 71.3931 100.301 70.6476V59.4501C100.301 58.6542 100.607 57.905 101.163 57.3432L103.237 55.2416C103.299 55.4866 103.335 55.7405 103.335 56.0016V70.6476C103.335 71.3931 103.932 71.9982 104.668 71.9982C105.404 71.9982 106.001 71.3931 106.001 70.6476V56.0016C106.001 53.8352 104.814 51.8885 102.901 50.9197L102.899 50.9215ZM81.7775 32.9314V31.6726C81.7775 28.4384 84.376 25.8056 87.5681 25.8056H90.4172C93.6093 25.8056 96.2078 28.4384 96.2078 31.6726V33.1727C90.4136 32.8558 86.9158 30.5705 86.882 30.5489C86.6563 30.3958 86.3986 30.322 86.1427 30.322C85.7979 30.322 85.4566 30.4571 85.1989 30.7182C83.9228 32.0112 82.6733 32.6325 81.7757 32.9314H81.7775ZM88.9935 49.9725L85.9134 46.8517C86.004 46.5041 86.052 46.1403 86.052 45.7676V45.4794C86.9691 45.8252 87.9591 46.0143 88.9935 46.0143C90.0279 46.0143 91.0179 45.8252 91.935 45.4794V45.7676C91.935 46.1403 91.9848 46.5023 92.0737 46.8517L88.9935 49.9725ZM88.9935 43.3149C85.8014 43.3149 83.2029 40.6821 83.2029 37.4478V35.2706C84.1361 34.8925 85.2238 34.291 86.3311 33.3366C87.7316 34.0749 90.6589 35.3499 94.7841 35.7713V37.4478C94.7841 40.6839 92.1856 43.3149 88.9935 43.3149Z" fill="#153C88"/>
</g>
<defs>
<clipPath id="clip0_1301_178">
<rect width="91" height="59" fill="white" transform="translate(15 13)"/>
</clipPath>
</defs>
</svg>
