<svg width="21" height="20" viewBox="0 0 21 20" fill="none" xmlns="http://www.w3.org/2000/svg">
<g clip-path="url(#clip0_517_115)">
<path d="M19.5119 7.10147C19.506 7.1082 19.5002 7.11454 19.4939 7.12087L8.53399 18.23C7.59651 19.1802 6.48443 19.6771 5.3032 19.6771C5.21336 19.6771 5.12351 19.6744 5.03289 19.6684C3.9044 19.5968 2.80989 19.0777 1.95053 18.2066C1.09156 17.3356 0.579463 16.2262 0.508761 15.0823C0.428294 13.7833 0.9193 12.5563 1.92787 11.534L12.8515 0.461265C13.0347 0.275572 13.3316 0.275968 13.5144 0.461265C13.6976 0.646958 13.6976 0.947472 13.5144 1.13316L2.59075 12.2059C0.79274 14.0283 1.34234 16.246 2.6138 17.5347C3.88526 18.8235 6.07311 19.3806 7.87112 17.5581L18.8213 6.45887C20.024 5.08419 19.617 3.51035 18.6779 2.55853C17.7389 1.6067 16.1862 1.19414 14.83 2.41322L7.83401 9.50519C6.90981 10.442 7.17465 11.549 7.84729 12.2304C8.51954 12.9118 9.61171 13.1802 10.5359 12.2435L16.5909 6.1061C16.7741 5.9204 17.0705 5.9204 17.2537 6.1061C17.4369 6.29179 17.4369 6.5923 17.2537 6.778L11.1988 12.9154C9.88553 14.2465 8.18517 13.9163 7.18441 12.9023C6.18365 11.8883 5.85787 10.1644 7.17113 8.83329L14.1772 1.73182C14.1835 1.72548 14.1897 1.71954 14.1964 1.7136C15.0069 0.979938 15.96 0.637851 16.953 0.725353C17.8303 0.80256 18.6783 1.21512 19.3412 1.88663C20.0041 2.55853 20.4111 3.4181 20.4869 4.30737C20.5732 5.31383 20.2361 6.27991 19.5123 7.10147H19.5119Z" fill="#CBCBCB"/>
</g>
<defs>
<clipPath id="clip0_517_115">
<rect width="20" height="19.3548" fill="white" transform="translate(0.5 0.322632)"/>
</clipPath>
</defs>
</svg>
